<svg width="60" height="60" viewBox="0 0 60 60" fill="none" xmlns="http://www.w3.org/2000/svg">
<path d="M51.4074 8.34973C51.0479 8.10501 50.6309 7.95811 50.1974 7.92348C49.7638 7.88885 49.3288 7.96769 48.9349 8.15223L6.43495 28.1522C6.00052 28.3569 5.63425 28.6824 5.37993 29.0898C5.12561 29.4972 4.99401 29.9692 5.00087 30.4494C5.00772 30.9296 5.15274 31.3977 5.41859 31.7976C5.68444 32.1976 6.05985 32.5125 6.49995 32.7047L20 38.6122V55.4172L34.59 44.9972L46.4999 50.2072C46.8676 50.3683 47.2687 50.4384 47.6692 50.4117C48.0698 50.385 48.458 50.2622 48.801 50.0538C49.1441 49.8454 49.4319 49.5574 49.6401 49.2142C49.8484 48.871 49.971 48.4828 49.9974 48.0822L52.4974 10.5822C52.5248 10.1476 52.4388 9.71322 52.2477 9.32183C52.0566 8.93045 51.767 8.59546 51.4074 8.34973ZM45.2424 44.1997L32.07 38.4347L39.9999 22.9172L20.8774 33.5422L13.5475 30.3347L47.2249 14.4847L45.2424 44.1997Z" fill="#1D1D1D"/>
</svg>
