<svg width="16" height="16" viewBox="0 0 16 16" fill="none" xmlns="http://www.w3.org/2000/svg">
<path d="M7.99995 5.91719C6.85308 5.91719 5.91714 6.85312 5.91714 8C5.91714 9.14688 6.85308 10.0828 7.99995 10.0828C9.14683 10.0828 10.0828 9.14688 10.0828 8C10.0828 6.85312 9.14683 5.91719 7.99995 5.91719ZM14.2468 8C14.2468 7.1375 14.2546 6.28281 14.2062 5.42188C14.1578 4.42188 13.9296 3.53438 13.1984 2.80313C12.4656 2.07031 11.5796 1.84375 10.5796 1.79531C9.71714 1.74688 8.86245 1.75469 8.00151 1.75469C7.13901 1.75469 6.28433 1.74688 5.42339 1.79531C4.42339 1.84375 3.53589 2.07188 2.80464 2.80313C2.07183 3.53594 1.84526 4.42188 1.79683 5.42188C1.74839 6.28438 1.7562 7.13906 1.7562 8C1.7562 8.86094 1.74839 9.71719 1.79683 10.5781C1.84526 11.5781 2.07339 12.4656 2.80464 13.1969C3.53745 13.9297 4.42339 14.1562 5.42339 14.2047C6.28589 14.2531 7.14058 14.2453 8.00151 14.2453C8.86401 14.2453 9.7187 14.2531 10.5796 14.2047C11.5796 14.1562 12.4671 13.9281 13.1984 13.1969C13.9312 12.4641 14.1578 11.5781 14.2062 10.5781C14.2562 9.71719 14.2468 8.8625 14.2468 8V8ZM7.99995 11.2047C6.22651 11.2047 4.79526 9.77344 4.79526 8C4.79526 6.22656 6.22651 4.79531 7.99995 4.79531C9.77339 4.79531 11.2046 6.22656 11.2046 8C11.2046 9.77344 9.77339 11.2047 7.99995 11.2047ZM11.3359 5.4125C10.9218 5.4125 10.5875 5.07812 10.5875 4.66406C10.5875 4.25 10.9218 3.91563 11.3359 3.91563C11.75 3.91563 12.0843 4.25 12.0843 4.66406C12.0845 4.76238 12.0652 4.85976 12.0276 4.95062C11.99 5.04148 11.9349 5.12404 11.8654 5.19356C11.7959 5.26309 11.7133 5.31821 11.6225 5.35578C11.5316 5.39335 11.4342 5.41262 11.3359 5.4125V5.4125Z" fill="url(#paint0_linear)"/>
<defs>
<linearGradient id="paint0_linear" x1="8.00163" y1="1.75422" x2="8.00163" y2="14.2458" gradientUnits="userSpaceOnUse">
<stop stop-color="#FCD380"/>
<stop offset="0.526135" stop-color="#FF82CE"/>
<stop offset="1" stop-color="#80CEFF"/>
</linearGradient>
</defs>
</svg>
