<svg width="16" height="16" viewBox="0 0 16 16" fill="none" xmlns="http://www.w3.org/2000/svg">
<path d="M7.99995 4.79531C6.22651 4.79531 4.79526 6.22656 4.79526 8C4.79526 9.77344 6.22651 11.2047 7.99995 11.2047C9.77339 11.2047 11.2046 9.77344 11.2046 8C11.2046 6.22656 9.77339 4.79531 7.99995 4.79531ZM7.99995 10.0828C6.85308 10.0828 5.91714 9.14687 5.91714 8C5.91714 6.85313 6.85308 5.91719 7.99995 5.91719C9.14683 5.91719 10.0828 6.85313 10.0828 8C10.0828 9.14687 9.14683 10.0828 7.99995 10.0828ZM11.3359 3.91719C10.9218 3.91719 10.5875 4.25156 10.5875 4.66563C10.5875 5.07969 10.9218 5.41406 11.3359 5.41406C11.75 5.41406 12.0843 5.08125 12.0843 4.66563C12.0845 4.5673 12.0652 4.46992 12.0276 4.37906C11.99 4.2882 11.9349 4.20565 11.8654 4.13612C11.7959 4.0666 11.7133 4.01148 11.6225 3.97391C11.5316 3.93634 11.4342 3.91706 11.3359 3.91719ZM14.2468 8C14.2468 7.1375 14.2546 6.28281 14.2062 5.42188C14.1578 4.42188 13.9296 3.53437 13.1984 2.80313C12.4656 2.07031 11.5796 1.84375 10.5796 1.79531C9.71714 1.74688 8.86245 1.75469 8.00151 1.75469C7.13901 1.75469 6.28433 1.74688 5.42339 1.79531C4.42339 1.84375 3.53589 2.07188 2.80464 2.80313C2.07183 3.53594 1.84526 4.42188 1.79683 5.42188C1.74839 6.28438 1.7562 7.13906 1.7562 8C1.7562 8.86094 1.74839 9.71719 1.79683 10.5781C1.84526 11.5781 2.07339 12.4656 2.80464 13.1969C3.53745 13.9297 4.42339 14.1562 5.42339 14.2047C6.28589 14.2531 7.14058 14.2453 8.00151 14.2453C8.86401 14.2453 9.7187 14.2531 10.5796 14.2047C11.5796 14.1562 12.4671 13.9281 13.1984 13.1969C13.9312 12.4641 14.1578 11.5781 14.2062 10.5781C14.2562 9.71719 14.2468 8.8625 14.2468 8ZM12.8718 11.6844C12.7578 11.9688 12.6203 12.1812 12.4 12.4C12.1796 12.6203 11.9687 12.7578 11.6843 12.8719C10.8625 13.1984 8.91089 13.125 7.99995 13.125C7.08901 13.125 5.13589 13.1984 4.31401 12.8734C4.02964 12.7594 3.81714 12.6219 3.59839 12.4016C3.37808 12.1813 3.24058 11.9703 3.12651 11.6859C2.80151 10.8625 2.87495 8.91094 2.87495 8C2.87495 7.08906 2.80151 5.13594 3.12651 4.31406C3.24058 4.02969 3.37808 3.81719 3.59839 3.59844C3.8187 3.37969 4.02964 3.24063 4.31401 3.12656C5.13589 2.80156 7.08901 2.875 7.99995 2.875C8.91089 2.875 10.864 2.80156 11.6859 3.12656C11.9703 3.24063 12.1828 3.37813 12.4015 3.59844C12.6218 3.81875 12.7593 4.02969 12.8734 4.31406C13.1984 5.13594 13.125 7.08906 13.125 8C13.125 8.91094 13.1984 10.8625 12.8718 11.6844Z" fill="#FBFBFB"/>
</svg>
