<svg width="60" height="60" viewBox="0 0 60 60" fill="none" xmlns="http://www.w3.org/2000/svg">
<g clip-path="url(#clip0)">
<path d="M59.1844 51.8742L47.4996 40.1918C46.9723 39.6645 46.2574 39.3715 45.5074 39.3715H43.5973C46.8316 35.2348 48.7535 30.0328 48.7535 24.3727C48.7535 10.909 37.8422 0 24.3773 0C10.9125 0 0 10.909 0 24.3727C0 37.8363 10.9113 48.7453 24.3773 48.7453C30.0375 48.7453 35.2418 46.8234 39.3785 43.5891V45.4992C39.3785 46.2492 39.6715 46.9641 40.1988 47.4914L51.8836 59.1738C52.9852 60.2754 54.7664 60.2754 55.8563 59.1738L59.1727 55.8574C60.2742 54.7559 60.2742 52.9758 59.1844 51.8742ZM24.3773 41.2453C15.0563 41.2453 7.50234 33.7055 7.50234 24.3727C7.50234 15.0527 15.0434 7.5 24.3773 7.5C33.6984 7.5 41.2523 15.0398 41.2523 24.3727C41.2523 33.6926 33.7113 41.2453 24.3773 41.2453ZM24.3797 13.125C19.6008 13.125 15.7266 16.998 15.7266 21.777C15.7266 25.6395 21.382 32.6813 23.5488 35.2371C23.6505 35.3587 23.7775 35.4565 23.9211 35.5236C24.0647 35.5908 24.2212 35.6255 24.3797 35.6255C24.5382 35.6255 24.6947 35.5908 24.8383 35.5236C24.9818 35.4565 25.1089 35.3587 25.2105 35.2371C27.3773 32.6813 33.0328 25.6406 33.0328 21.777C33.0328 16.998 29.1586 13.125 24.3797 13.125ZM24.3797 24.375C22.8258 24.375 21.5672 23.1152 21.5672 21.5625C21.5672 20.0086 22.827 18.75 24.3797 18.75C25.9324 18.75 27.1922 20.0086 27.1922 21.5625C27.1922 23.1152 25.9324 24.375 24.3797 24.375Z" fill="#1D1D1D"/>
</g>
<defs>
<clipPath id="clip0">
<rect width="60" height="60" fill="white"/>
</clipPath>
</defs>
</svg>
