<svg width="427" height="329" viewBox="0 0 427 329" fill="none" xmlns="http://www.w3.org/2000/svg">
<g filter="url(#filter0_d)">
<path d="M228.443 202.363C228.443 202.363 152.508 222.579 160.594 246.012C168.68 269.445 259.992 300.256 268.905 300.994C277.818 301.732 292.869 280.866 287.055 269.15C281.241 257.433 255.713 252.121 255.713 252.121C255.713 252.121 314.915 258.112 334.718 253.272C334.718 253.272 312.997 270.035 314.65 274.728C316.302 279.45 333.98 302.558 355.17 294.619C376.361 286.68 424.791 265.52 422.902 237.394C421.013 209.269 353.754 205.727 353.754 205.727C353.754 205.727 235.202 205.58 228.443 202.363Z" fill="#202B35"/>
<path d="M274.07 100.161C274.07 100.161 237.74 102.552 227.765 117.426C217.789 132.3 212.507 146.142 195.212 152.31C177.918 158.478 148.553 161.783 155.665 184.242C162.778 206.702 179.689 207.174 212.625 193.509L231.424 178.783L219.501 216.972C219.501 216.972 304.704 248.196 362.047 210.627L343.779 177.307C343.779 177.307 394.717 199.855 403.896 170.46C413.074 141.066 381.259 151.72 368.569 141.774C355.879 131.828 349.622 110.638 341.506 104.44C333.449 98.2427 292.515 95.2325 274.07 100.161Z" fill="#EC5946"/>
<path d="M285.639 150.982C293.961 151.513 302.225 149.418 309.987 146.378C314.974 144.43 319.814 142.069 324.035 138.793C328.993 134.957 332.918 129.969 336.784 125.04C340.326 120.525 343.867 116.039 347.409 111.524C345.49 108.513 343.572 106.005 341.536 104.47C333.42 98.2724 292.515 95.2621 274.07 100.161C274.07 100.161 252.732 101.578 238.271 108.926C242.078 118.607 247.213 127.844 254.385 135.34C262.619 143.958 273.745 150.215 285.639 150.982Z" fill="#A32B23"/>
<path d="M170.097 127.844L179.364 120.968L277.611 141.39H292.663L397.344 115.213C397.344 115.213 398.436 126.309 401.417 129.526L291.925 156.206H280.74L170.097 127.844Z" fill="#EEEEEE"/>
<path d="M292.574 147.883H277.611V261.3H292.574V147.883Z" fill="#D6766D"/>
<path d="M167.293 125.808L277.611 147.884V261.301L172.665 235.566L167.293 125.808Z" fill="#F3776B"/>
<path d="M402.892 125.807L292.574 147.883V261.3L397.521 235.565L402.892 125.807Z" fill="#DD665A"/>
<path d="M164.342 162.403C162.069 164.026 160.328 166.771 160.712 169.545C160.859 170.519 161.243 171.493 161.243 172.467C161.243 174.208 160.063 175.831 160.299 177.543C160.594 179.52 162.689 180.908 162.778 182.914C162.837 184.331 161.833 185.571 161.42 186.958C160.446 190.293 163.191 193.48 165.67 195.9C168.001 198.143 170.333 200.415 172.664 202.658C173.255 203.249 173.904 203.839 174.701 204.104C175.498 204.37 176.501 204.163 176.914 203.426C177.209 202.894 177.121 202.245 177.032 201.625C176.235 197.346 174.347 193.273 171.602 189.879C173.107 191.68 174.937 193.185 176.973 194.306C177.947 194.837 179.098 195.28 180.102 194.837C181.164 194.365 181.607 193.067 181.459 191.916C181.282 190.765 180.662 189.761 180.013 188.787C177.298 184.597 174.435 180.258 170.244 177.543C172.281 179.107 174.789 180.081 177.357 180.317C178.006 180.376 178.714 180.376 179.216 179.963C179.747 179.52 179.865 178.783 179.836 178.104C179.659 175.566 177.593 173.618 175.675 171.936C173.52 170.047 171.336 168.158 169.182 166.269C172.281 167.892 175.586 169.162 179.01 169.988C179.836 167.509 179.364 164.617 177.77 162.521C174.199 157.888 168.503 159.452 164.342 162.403Z" fill="#FFEECB"/>
<path d="M404.25 162.403C406.522 164.026 408.264 166.771 407.88 169.545C407.732 170.519 407.349 171.493 407.349 172.467C407.349 174.208 408.529 175.831 408.293 177.543C407.998 179.52 405.903 180.908 405.814 182.914C405.755 184.331 406.758 185.571 407.172 186.958C408.146 190.293 405.401 193.48 402.922 195.9C400.59 198.143 398.259 200.415 395.927 202.658C395.337 203.249 394.688 203.839 393.891 204.104C393.094 204.37 392.091 204.163 391.678 203.426C391.382 202.894 391.471 202.245 391.559 201.625C392.356 197.346 394.245 193.273 396.99 189.879C395.485 191.68 393.655 193.185 391.619 194.306C390.645 194.837 389.494 195.28 388.49 194.837C387.428 194.365 386.985 193.067 387.133 191.916C387.31 190.765 387.929 189.761 388.579 188.787C391.294 184.597 394.157 180.258 398.347 177.543C396.311 179.107 393.802 180.081 391.235 180.317C390.586 180.376 389.877 180.376 389.376 179.963C388.844 179.52 388.726 178.783 388.756 178.104C388.933 175.566 390.999 173.618 392.917 171.936C395.071 170.047 397.255 168.158 399.41 166.269C396.311 167.892 393.006 169.162 389.582 169.988C388.756 167.509 389.228 164.617 390.822 162.521C394.393 157.888 400.089 159.452 404.25 162.403Z" fill="#FFEECB"/>
<path d="M230.804 61.7653C226.112 63.9197 223.338 69.291 223.603 74.4557C223.869 79.6204 226.879 84.4015 230.981 87.5298C235.113 90.6582 240.248 92.1928 245.384 92.6945C246.859 92.8421 248.571 92.8421 249.633 91.7796C250.312 91.1008 250.578 90.1564 250.814 89.2415C252.349 82.9259 254.119 71.7406 250.017 65.9266C246.269 60.6439 236.323 59.1977 230.804 61.7653Z" fill="#F5D5C8"/>
<path d="M354.197 69.291C358.889 71.4455 361.663 76.8167 361.398 81.9814C361.132 87.1462 358.122 91.9272 354.019 95.0555C349.888 98.1839 344.752 99.7185 339.617 100.22C338.142 100.368 336.43 100.368 335.367 99.3053C334.689 98.6266 334.423 97.6822 334.187 96.7673C332.652 90.4516 330.882 79.2663 334.984 73.4523C338.732 68.1696 348.678 66.753 354.197 69.291Z" fill="#F5D5C8"/>
<path d="M248.807 64.3623C248.807 64.3623 234.051 126.722 274.099 135.133C314.148 143.545 337.64 126.427 347.733 74.4555C357.856 22.5134 282.068 -18.6272 248.807 64.3623Z" fill="#FFEECB"/>
<path d="M332.741 103.26C327.429 98.833 319.49 100.692 312.643 99.5413C309.131 98.9511 305.737 97.505 302.904 95.3506C299.392 92.6649 296.322 88.7692 291.925 88.2675C287.705 87.7658 283.927 90.6285 279.913 92.0156C276.637 93.1371 273.125 93.3142 269.732 93.9044C261.438 95.321 253.618 99.2462 247.538 105.06C249.279 113.973 252.88 122.473 259.727 128.346C262.708 128.375 265.688 127.991 268.581 127.195C277.08 124.863 284.606 118.606 287.734 110.372C288.944 107.185 289.505 103.791 290.302 100.486C290.538 99.5413 290.803 98.5969 291.453 97.8591C292.102 97.1508 293.224 96.7671 294.05 97.2984C295.053 97.9181 295.024 99.3347 294.965 100.486C294.581 108.307 297.355 116.245 302.579 122.118C306.386 126.398 311.433 129.526 316.922 131.09C324.743 126.516 331.236 119.344 336.459 109.31C335.81 106.919 334.571 104.795 332.741 103.26Z" fill="#F5D5C8"/>
<path d="M248.807 64.3621C248.807 64.3621 247.243 70.9434 246.505 80.1219C267.37 79.266 287.911 70.5598 302.697 55.774C307.242 68.0217 316.096 78.6462 327.34 85.3161C332.357 88.2969 337.817 90.4808 343.454 91.8384C345.077 86.5556 346.494 80.7711 347.733 74.485C357.856 22.5133 282.068 -18.6273 248.807 64.3621Z" fill="#F5D5C8"/>
<path d="M241.547 73.0685C241.547 73.0685 283.868 74.0424 304.084 45.4152C304.084 45.4152 326.838 84.3718 347.526 84.1652C347.526 84.1652 361.397 27.7962 346.021 13.7187C330.645 -0.358849 243.318 -25.8577 241.547 73.0685Z" fill="#202B35"/>
<path d="M346.021 13.7188C340.857 8.96728 327.517 2.94672 312.023 0.792297C307.301 15.3125 304.704 30.5705 304.35 45.8285C306.947 50.1078 328.137 84.313 347.527 84.1359C347.527 84.1654 361.397 27.7963 346.021 13.7188Z" fill="#141B21"/>
<path d="M258.871 122.768C275.953 122.768 289.8 108.92 289.8 91.8385C289.8 74.7568 275.953 60.9093 258.871 60.9093C241.789 60.9093 227.942 74.7568 227.942 91.8385C227.942 108.92 241.789 122.768 258.871 122.768Z" fill="#D5D3EA"/>
<path d="M326.661 126.103C343.743 126.103 357.59 112.255 357.59 95.1735C357.59 78.0917 343.743 64.2443 326.661 64.2443C309.579 64.2443 295.732 78.0917 295.732 95.1735C295.732 112.255 309.579 126.103 326.661 126.103Z" fill="#D5D3EA"/>
<path d="M301.959 91.4551C300.159 88.8285 296.47 87.4709 293.43 87.2348C290.567 87.0282 286.701 87.766 284.783 90.068C283.986 91.0124 284.724 92.547 286.022 92.2224C288.383 91.6026 290.39 90.8058 292.899 91.16C293.961 91.3075 295.083 91.6026 296.086 92.0453C297.296 92.6061 298.152 93.4915 299.244 94.1702C300.867 95.2327 303.081 93.1078 301.959 91.4551Z" fill="#454C52"/>
<path d="M241.988 315.278C241.988 315.278 239.421 288.835 252.642 278.919C252.642 278.919 281.565 261.831 295.731 270.685C295.731 270.685 267.517 309.936 241.988 315.278Z" fill="#8889C2"/>
<path d="M287.026 269.15C287.026 269.15 236.559 296.39 241.99 315.278C247.42 334.166 299.303 301.024 304.35 291.727C309.396 282.431 301.516 266.287 287.026 269.15Z" fill="#3E426D"/>
<path d="M366.415 315.278C366.415 315.278 368.982 288.835 355.761 278.919C355.761 278.919 326.838 261.831 312.672 270.685C312.672 270.685 340.886 309.936 366.415 315.278Z" fill="#8889C2"/>
<path d="M321.378 269.15C321.378 269.15 371.845 296.39 366.415 315.278C360.984 334.166 309.101 301.024 304.055 291.727C299.008 282.431 306.858 266.287 321.378 269.15Z" fill="#3E426D"/>
<path d="M149.319 277.62L135.832 269.032H27.5801L13.5911 277.62H149.319Z" fill="#F3776B"/>
<path d="M13.5682 293.988L149.297 293.988L149.297 277.638L13.5682 277.638L13.5682 293.988Z" fill="#FFE8D9"/>
<path d="M13.5682 281.715L149.297 281.715L149.297 280.416L13.5682 280.416L13.5682 281.715Z" fill="#F9AE90"/>
<path d="M13.5682 286.462L149.297 286.462L149.297 285.164L13.5682 285.164L13.5682 286.462Z" fill="#F9AE90"/>
<path d="M13.5682 291.18L149.297 291.18L149.297 289.881L13.5682 289.881L13.5682 291.18Z" fill="#F9AE90"/>
<path d="M149.32 259.057L135.833 250.469H27.5803L13.5914 259.057H149.32Z" fill="#F3776B"/>
<path d="M13.5682 275.407L149.297 275.407L149.297 259.057L13.5682 259.057L13.5682 275.407Z" fill="#FFE8D9"/>
<path d="M13.5682 263.164L149.297 263.164L149.297 261.866L13.5682 261.866L13.5682 263.164Z" fill="#F9AE90"/>
<path d="M13.5682 267.882L149.297 267.882L149.297 266.583L13.5682 266.583L13.5682 267.882Z" fill="#F9AE90"/>
<path d="M13.5682 272.629L149.297 272.629L149.297 271.33L13.5682 271.33L13.5682 272.629Z" fill="#F9AE90"/>
<path d="M149.32 241.291L135.833 232.703H27.5803L13.5914 241.291H149.32Z" fill="#F3776B"/>
<path d="M13.5682 257.662L149.297 257.662L149.297 241.312L13.5682 241.312L13.5682 257.662Z" fill="#FFE8D9"/>
<path d="M13.5682 245.389L149.297 245.389L149.297 244.091L13.5682 244.091L13.5682 245.389Z" fill="#F9AE90"/>
<path d="M13.5682 250.137L149.297 250.137L149.297 248.838L13.5682 248.838L13.5682 250.137Z" fill="#F9AE90"/>
<path d="M13.5682 254.854L149.297 254.854L149.297 253.556L13.5682 253.556L13.5682 254.854Z" fill="#F9AE90"/>
<path d="M139.728 223.494L126.241 214.906H18.0185L4 223.494H139.728Z" fill="#F3776B"/>
<path d="M4.02879 239.881L139.757 239.881L139.757 223.531L4.02879 223.531L4.02879 239.881Z" fill="#FFE8D9"/>
<path d="M4.02879 227.608L139.757 227.608L139.757 226.31L4.02879 226.31L4.02879 227.608Z" fill="#F9AE90"/>
<path d="M4.02879 232.355L139.757 232.355L139.757 231.057L4.02879 231.057L4.02879 232.355Z" fill="#F9AE90"/>
<path d="M4.02879 237.073L139.757 237.073L139.757 235.774L4.02879 235.774L4.02879 237.073Z" fill="#F9AE90"/>
<path d="M155.96 206.967L142.473 198.379H34.2503L20.2318 206.967H155.96Z" fill="#F3776B"/>
<path d="M20.2419 223.343L155.97 223.343L155.97 206.993L20.2419 206.993L20.2419 223.343Z" fill="#FFE8D9"/>
<path d="M20.2419 211.07L155.97 211.07L155.97 209.771L20.2419 209.771L20.2419 211.07Z" fill="#F9AE90"/>
<path d="M20.2419 215.817L155.97 215.817L155.97 214.518L20.2419 214.518L20.2419 215.817Z" fill="#F9AE90"/>
<path d="M20.2419 220.535L155.97 220.535L155.97 219.236L20.2419 219.236L20.2419 220.535Z" fill="#F9AE90"/>
<path d="M135.508 203.278H102.307L95.4596 129.379H143.359L135.508 203.278Z" fill="#D5D3EA"/>
<path d="M106.084 198.674L102.572 154.612C107.53 154.612 110.245 159.894 114.584 162.285C121.401 166.033 130.786 164.174 135.656 158.124C135.656 157.888 136.01 158.301 136.01 158.566L133.206 198.408L106.084 198.674Z" fill="#A33CAB"/>
<path d="M114.938 191.09L112.046 190.027L142.857 105.178L155.843 121.794L153.393 123.712L143.86 111.524L114.938 191.09Z" fill="#5C287B"/>
<path d="M114.938 191.089L124.766 164.056C123.644 164.203 122.523 164.262 121.401 164.203L112.016 190.057L114.938 191.089Z" fill="#5C287B"/>
</g>
<defs>
<filter id="filter0_d" x="0" y="0" width="426.956" height="329" filterUnits="userSpaceOnUse" color-interpolation-filters="sRGB">
<feFlood flood-opacity="0" result="BackgroundImageFix"/>
<feColorMatrix in="SourceAlpha" type="matrix" values="0 0 0 0 0 0 0 0 0 0 0 0 0 0 0 0 0 0 127 0"/>
<feOffset dy="4"/>
<feGaussianBlur stdDeviation="2"/>
<feColorMatrix type="matrix" values="0 0 0 0 0 0 0 0 0 0 0 0 0 0 0 0 0 0 0.25 0"/>
<feBlend mode="normal" in2="BackgroundImageFix" result="effect1_dropShadow"/>
<feBlend mode="normal" in="SourceGraphic" in2="effect1_dropShadow" result="shape"/>
</filter>
</defs>
</svg>
