<svg width="1824" height="984" viewBox="0 0 1824 984" fill="none" xmlns="http://www.w3.org/2000/svg">
<g clip-path="url(#clip0)">
<path d="M1824 0H0V984H1824V0Z" fill="#FBFBFB"/>
<path d="M1862.92 -34.1438H-86.2632V1164.56H1862.92V-34.1438Z" fill="url(#paint0_linear)"/>
<path opacity="0.26" d="M1862.92 298.317V414.592C1733.58 289.327 1499.26 285.881 1346.39 420.735C1180.43 567.277 1247.4 617.473 863.267 473.179C285.752 256.213 17.4612 491.759 -86.2632 637.102V326.337C63.8239 225.047 215.721 183.092 566.852 307.008C788.78 385.373 899.605 215.607 1113.88 405.751C1211.75 492.658 1507.89 -3.30676 1862.92 298.317Z" fill="#80CEFF"/>
<path opacity="0.26" d="M1862.92 560.497V708.087C1656.31 508.653 1441.48 642.159 1364.62 697.299C1283.18 755.736 1247.67 859.124 763.163 692.804C397.83 567.389 58.5332 678.27 -86.2632 740.452V599.605C241.617 465.649 839.877 635.116 961.561 674.823C1188.64 748.843 1156.2 756.036 1415.02 582.972C1597.55 461.004 1773.54 502.659 1862.92 560.497Z" fill="#80CEFF"/>
<path d="M938.59 57.4073L941.792 89.9223L972.004 93.3685L941.792 96.9646L938.59 129.33L935.248 96.9646L905.175 93.3685L935.248 89.9223L938.59 57.4073Z" fill="white"/>
<path d="M446.142 207.695L448.788 233.617L472.874 236.464L448.788 239.311L446.142 265.233L443.636 239.311L419.55 236.464L443.636 233.617L446.142 207.695Z" fill="white"/>
<path d="M1629.3 197.806L1631.94 223.728L1656.03 226.575L1631.94 229.422L1629.3 255.194L1626.65 229.422L1602.56 226.575L1626.65 223.728L1629.3 197.806Z" fill="white"/>
<path d="M1534.62 113.597L1536.43 130.978L1552.58 132.926L1536.43 134.724L1534.62 152.105L1532.95 134.724L1516.8 132.926L1532.95 130.978L1534.62 113.597Z" fill="white"/>
<path d="M1195.6 28.0389L1197.13 43.1726L1211.34 44.8208L1197.13 46.469L1195.6 61.7525L1194.07 46.469L1180.01 44.8208L1194.07 43.1726L1195.6 28.0389Z" fill="white"/>
<path d="M1723.41 19.7981L1725.92 44.3715L1748.75 47.0686L1725.92 49.7657L1723.41 74.3392L1720.91 49.7657L1698.07 47.0686L1720.91 44.3715L1723.41 19.7981Z" fill="white"/>
<path d="M1407.92 378.51L1409.04 389.149L1418.78 390.198L1409.04 391.396L1407.92 401.885L1406.95 391.396L1397.06 390.198L1406.95 389.149L1407.92 378.51Z" fill="white"/>
<path d="M1717.01 241.109L1717.57 246.203L1722.3 246.803L1717.57 247.252L1717.01 252.347L1716.59 247.252L1711.72 246.803L1716.59 246.203L1717.01 241.109Z" fill="white"/>
<path d="M1300.72 223.727L1302.67 243.057L1320.77 245.154L1302.67 247.402L1300.72 266.731L1298.77 247.402L1280.81 245.154L1298.77 243.057L1300.72 223.727Z" fill="white"/>
<path d="M755.227 361.429L756.201 371.768L765.808 372.817L756.201 373.865L755.227 384.204L754.252 373.865L744.646 372.817L754.252 371.768L755.227 361.429Z" fill="white"/>
<path d="M1174.58 479.801L1176.11 495.234L1190.45 496.882L1176.11 498.53L1174.58 513.964L1173.05 498.53L1158.71 496.882L1173.05 495.234L1174.58 479.801Z" fill="white"/>
<path d="M1337.2 385.853L1339.56 409.227L1361.28 411.775L1339.56 414.322L1337.2 437.697L1334.83 414.322L1313.11 411.775L1334.83 409.227L1337.2 385.853Z" fill="white"/>
<path d="M1121.39 302.093L1123.2 320.523L1140.33 322.471L1123.2 324.568L1121.39 342.998L1119.45 324.568L1102.32 322.471L1119.45 320.523L1121.39 302.093Z" fill="white"/>
<path d="M196.926 64.45L198.875 83.9289L216.835 86.0266L198.875 88.1244L196.926 107.454L194.977 88.1244L176.877 86.0266L194.977 83.9289L196.926 64.45Z" fill="white"/>
<path d="M950.981 352.888L952.93 372.367L970.89 374.465L952.93 376.563L950.981 395.892L949.032 376.563L930.932 374.465L949.032 372.367L950.981 352.888Z" fill="white"/>
<path d="M618.923 201.252L620.594 217.584L635.77 219.382L620.594 221.181L618.923 237.513L617.252 221.181L602.077 219.382L617.252 217.584L618.923 201.252Z" fill="white"/>
<path d="M1100.65 421.364C1104.11 421.364 1106.92 418.345 1106.92 414.621C1106.92 410.897 1104.11 407.879 1100.65 407.879C1097.19 407.879 1094.38 410.897 1094.38 414.621C1094.38 418.345 1097.19 421.364 1100.65 421.364Z" fill="white"/>
<path d="M1207.85 428.856C1210.55 428.856 1212.73 426.508 1212.73 423.612C1212.73 420.715 1210.55 418.367 1207.85 418.367C1205.16 418.367 1202.98 420.715 1202.98 423.612C1202.98 426.508 1205.16 428.856 1207.85 428.856Z" fill="white"/>
<path d="M1185.58 328.465C1189.04 328.465 1191.84 325.446 1191.84 321.722C1191.84 317.998 1189.04 314.979 1185.58 314.979C1182.12 314.979 1179.31 317.998 1179.31 321.722C1179.31 325.446 1182.12 328.465 1185.58 328.465Z" fill="white"/>
<path d="M1015.72 494.785C1016.87 494.785 1017.81 493.779 1017.81 492.537C1017.81 491.296 1016.87 490.29 1015.72 490.29C1014.57 490.29 1013.63 491.296 1013.63 492.537C1013.63 493.779 1014.57 494.785 1015.72 494.785Z" fill="white"/>
<path d="M1038.69 403.384C1041 403.384 1042.87 401.371 1042.87 398.889C1042.87 396.406 1041 394.394 1038.69 394.394C1036.39 394.394 1034.52 396.406 1034.52 398.889C1034.52 401.371 1036.39 403.384 1038.69 403.384Z" fill="white"/>
<path d="M1037.3 294.002C1038.84 294.002 1040.09 292.66 1040.09 291.005C1040.09 289.35 1038.84 288.008 1037.3 288.008C1035.76 288.008 1034.52 289.35 1034.52 291.005C1034.52 292.66 1035.76 294.002 1037.3 294.002Z" fill="white"/>
<path d="M970.751 249.799C972.674 249.799 974.232 248.122 974.232 246.053C974.232 243.985 972.674 242.307 970.751 242.307C968.829 242.307 967.271 243.985 967.271 246.053C967.271 248.122 968.829 249.799 970.751 249.799Z" fill="white"/>
<path d="M916.173 268.529C918.48 268.529 920.35 266.517 920.35 264.034C920.35 261.552 918.48 259.539 916.173 259.539C913.867 259.539 911.997 261.552 911.997 264.034C911.997 266.517 913.867 268.529 916.173 268.529Z" fill="white"/>
<path d="M842.383 307.487C844.69 307.487 846.56 305.474 846.56 302.992C846.56 300.509 844.69 298.497 842.383 298.497C840.076 298.497 838.206 300.509 838.206 302.992C838.206 305.474 840.076 307.487 842.383 307.487Z" fill="white"/>
<path d="M665.565 320.973C667.871 320.973 669.741 318.96 669.741 316.478C669.741 313.995 667.871 311.982 665.565 311.982C663.258 311.982 661.388 313.995 661.388 316.478C661.388 318.96 663.258 320.973 665.565 320.973Z" fill="white"/>
<path d="M1294.87 347.943C1297.95 347.943 1300.44 345.26 1300.44 341.95C1300.44 338.64 1297.95 335.956 1294.87 335.956C1291.8 335.956 1289.3 338.64 1289.3 341.95C1289.3 345.26 1291.8 347.943 1294.87 347.943Z" fill="white"/>
<path d="M1270.51 439.345C1272.43 439.345 1273.99 437.668 1273.99 435.599C1273.99 433.53 1272.43 431.853 1270.51 431.853C1268.58 431.853 1267.03 433.53 1267.03 435.599C1267.03 437.668 1268.58 439.345 1270.51 439.345Z" fill="white"/>
<path d="M1129.89 178.626C1133.35 178.626 1136.15 175.607 1136.15 171.883C1136.15 168.16 1133.35 165.141 1129.89 165.141C1126.43 165.141 1123.62 168.16 1123.62 171.883C1123.62 175.607 1126.43 178.626 1129.89 178.626Z" fill="white"/>
<path d="M1441.9 109.102C1444.2 109.102 1446.07 107.089 1446.07 104.606C1446.07 102.124 1444.2 100.111 1441.9 100.111C1439.59 100.111 1437.72 102.124 1437.72 104.606C1437.72 107.089 1439.59 109.102 1441.9 109.102Z" fill="white"/>
<path d="M1521.26 41.6744C1523.56 41.6744 1525.43 39.6618 1525.43 37.1792C1525.43 34.6966 1523.56 32.6841 1521.26 32.6841C1518.95 32.6841 1517.08 34.6966 1517.08 37.1792C1517.08 39.6618 1518.95 41.6744 1521.26 41.6744Z" fill="white"/>
<path d="M1443.98 183.271C1446.29 183.271 1448.16 181.259 1448.16 178.776C1448.16 176.294 1446.29 174.281 1443.98 174.281C1441.68 174.281 1439.81 176.294 1439.81 178.776C1439.81 181.259 1441.68 183.271 1443.98 183.271Z" fill="white"/>
<path d="M1107.19 538.238C1111.19 538.238 1114.43 534.749 1114.43 530.446C1114.43 526.143 1111.19 522.655 1107.19 522.655C1103.2 522.655 1099.95 526.143 1099.95 530.446C1099.95 534.749 1103.2 538.238 1107.19 538.238Z" fill="white"/>
<path d="M1116.38 483.398C1118.61 483.398 1120.42 481.452 1120.42 479.052C1120.42 476.652 1118.61 474.707 1116.38 474.707C1114.15 474.707 1112.34 476.652 1112.34 479.052C1112.34 481.452 1114.15 483.398 1116.38 483.398Z" fill="white"/>
<path d="M1726.89 151.805C1728.59 151.805 1729.96 150.329 1729.96 148.509C1729.96 146.688 1728.59 145.212 1726.89 145.212C1725.2 145.212 1723.83 146.688 1723.83 148.509C1723.83 150.329 1725.2 151.805 1726.89 151.805Z" fill="white"/>
<path d="M1531.7 268.679C1534 268.679 1535.87 266.666 1535.87 264.184C1535.87 261.701 1534 259.689 1531.7 259.689C1529.39 259.689 1527.52 261.701 1527.52 264.184C1527.52 266.666 1529.39 268.679 1531.7 268.679Z" fill="white"/>
<path d="M1443.98 309.136C1445.14 309.136 1446.07 308.129 1446.07 306.888C1446.07 305.647 1445.14 304.64 1443.98 304.64C1442.83 304.64 1441.9 305.647 1441.9 306.888C1441.9 308.129 1442.83 309.136 1443.98 309.136Z" fill="white"/>
<path d="M520.907 129.33C524.368 129.33 527.173 126.311 527.173 122.587C527.173 118.863 524.368 115.844 520.907 115.844C517.447 115.844 514.642 118.863 514.642 122.587C514.642 126.311 517.447 129.33 520.907 129.33Z" fill="white"/>
<path d="M609.177 105.355C613.944 105.355 617.809 101.196 617.809 96.0654C617.809 90.9347 613.944 86.7754 609.177 86.7754C604.41 86.7754 600.545 90.9347 600.545 96.0654C600.545 101.196 604.41 105.355 609.177 105.355Z" fill="white"/>
<path d="M437.928 68.4951C440.619 68.4951 442.801 66.1472 442.801 63.2508C442.801 60.3544 440.619 58.0065 437.928 58.0065C435.236 58.0065 433.055 60.3544 433.055 63.2508C433.055 66.1472 435.236 68.4951 437.928 68.4951Z" fill="white"/>
<path d="M269.324 147.31C272.169 147.31 274.475 144.828 274.475 141.766C274.475 138.704 272.169 136.222 269.324 136.222C266.479 136.222 264.172 138.704 264.172 141.766C264.172 144.828 266.479 147.31 269.324 147.31Z" fill="white"/>
<path d="M59.3685 75.3879C62.8287 75.3879 65.6338 72.3691 65.6338 68.6452C65.6338 64.9213 62.8287 61.9025 59.3685 61.9025C55.9083 61.9025 53.1033 64.9213 53.1033 68.6452C53.1033 72.3691 55.9083 75.3879 59.3685 75.3879Z" fill="white"/>
<path d="M784.047 102.359C785.2 102.359 786.135 101.353 786.135 100.111C786.135 98.87 785.2 97.8638 784.047 97.8638C782.894 97.8638 781.958 98.87 781.958 100.111C781.958 101.353 782.894 102.359 784.047 102.359Z" fill="white"/>
<path d="M838.345 410.276C839.499 410.276 840.434 409.27 840.434 408.029C840.434 406.787 839.499 405.781 838.345 405.781C837.192 405.781 836.257 406.787 836.257 408.029C836.257 409.27 837.192 410.276 838.345 410.276Z" fill="white"/>
<path d="M1104.55 252.946C1106.24 252.946 1107.61 251.47 1107.61 249.65C1107.61 247.829 1106.24 246.353 1104.55 246.353C1102.86 246.353 1101.49 247.829 1101.49 249.65C1101.49 251.47 1102.86 252.946 1104.55 252.946Z" fill="white"/>
<path d="M1322.72 93.2185C1324.26 93.2185 1325.5 91.8768 1325.5 90.2217C1325.5 88.5667 1324.26 87.225 1322.72 87.225C1321.18 87.225 1319.93 88.5667 1319.93 90.2217C1319.93 91.8768 1321.18 93.2185 1322.72 93.2185Z" stroke="#E6E6E6" stroke-width="1.49614" stroke-miterlimit="10"/>
<path d="M1024.77 19.798C1026.31 19.798 1027.56 18.4563 1027.56 16.8012C1027.56 15.1461 1026.31 13.8044 1024.77 13.8044C1023.23 13.8044 1021.99 15.1461 1021.99 16.8012C1021.99 18.4563 1023.23 19.798 1024.77 19.798Z" stroke="#E6E6E6" stroke-width="1.49614" stroke-miterlimit="10"/>
<path d="M861.179 174.131C863.101 174.131 864.659 172.454 864.659 170.385C864.659 168.316 863.101 166.639 861.179 166.639C859.256 166.639 857.698 168.316 857.698 170.385C857.698 172.454 859.256 174.131 861.179 174.131Z" stroke="#E6E6E6" stroke-width="1.49614" stroke-miterlimit="10"/>
<path d="M678.095 40.7753C680.402 40.7753 682.272 38.7628 682.272 36.2802C682.272 33.7976 680.402 31.785 678.095 31.785C675.788 31.785 673.918 33.7976 673.918 36.2802C673.918 38.7628 675.788 40.7753 678.095 40.7753Z" stroke="#E6E6E6" stroke-width="1.49614" stroke-miterlimit="10"/>
<path d="M1812.52 37.1788C1814.21 37.1788 1815.58 35.7029 1815.58 33.8824C1815.58 32.0618 1814.21 30.5859 1812.52 30.5859C1810.83 30.5859 1809.46 32.0618 1809.46 33.8824C1809.46 35.7029 1810.83 37.1788 1812.52 37.1788Z" stroke="#E6E6E6" stroke-width="1.49614" stroke-miterlimit="10"/>
<path d="M1484.64 412.374C1486.33 412.374 1487.7 410.898 1487.7 409.077C1487.7 407.257 1486.33 405.781 1484.64 405.781C1482.95 405.781 1481.58 407.257 1481.58 409.077C1481.58 410.898 1482.95 412.374 1484.64 412.374Z" stroke="#E6E6E6" stroke-width="1.49614" stroke-miterlimit="10"/>
<path d="M914.503 468.563C916.195 468.563 917.566 467.087 917.566 465.267C917.566 463.446 916.195 461.97 914.503 461.97C912.811 461.97 911.44 463.446 911.44 465.267C911.44 467.087 912.811 468.563 914.503 468.563Z" stroke="#E6E6E6" stroke-width="1.49614" stroke-miterlimit="10"/>
<path d="M1227.76 235.565C1228.69 235.565 1229.43 234.76 1229.43 233.767C1229.43 232.774 1228.69 231.969 1227.76 231.969C1226.84 231.969 1226.09 232.774 1226.09 233.767C1226.09 234.76 1226.84 235.565 1227.76 235.565Z" stroke="#E6E6E6" stroke-width="1.49614" stroke-miterlimit="10"/>
<path d="M1262.57 189.115C1263.49 189.115 1264.24 188.31 1264.24 187.317C1264.24 186.324 1263.49 185.519 1262.57 185.519C1261.65 185.519 1260.9 186.324 1260.9 187.317C1260.9 188.31 1261.65 189.115 1262.57 189.115Z" stroke="#E6E6E6" stroke-width="1.49614" stroke-miterlimit="10"/>
<path d="M2054 943V378.796C1994.39 399.064 1933.4 420.153 1909.7 429.465C1857.27 450.006 1752.26 507.522 1737.89 515.739C1723.52 523.955 1475.44 556.822 1380.05 610.229C1348.41 627.895 1280.54 636.796 1203.66 640.904C1129.83 636.796 1064.4 627.895 1034.14 610.229C942.423 556.822 703.966 523.955 690.209 515.739C676.451 507.522 575.566 450.006 525.123 429.465C474.68 408.924 249.98 330.866 249.98 330.866C249.98 330.866 277.494 330.866 181.194 322.65C84.894 314.433 -61.8486 298 -61.8486 298L-86 314.022V943H2054Z" fill="url(#paint1_linear)"/>
<path d="M939 818.026C985.11 831.953 1032.92 855.134 1081.57 890.501C1254.53 1015.93 1383.32 960.319 1494 900.671V811.887C1447.82 789.989 1394.95 748.483 1364.68 747.383C1290.64 744.635 1330.97 746.65 1381.64 705.419C1428.85 666.937 1388.91 637.801 1201.07 641.282C1109.17 643.023 1029.48 692.409 1134.7 695.158C1216.6 697.357 1027.07 781.01 939 818.026Z" fill="#92BEDA"/>
<path d="M1845.56 386.136C1839.55 379.636 1831 362.036 1830.52 360.767C1831 363.146 1845.41 432.752 1836.7 434.02C1827.83 435.289 1801.88 429.105 1801.88 429.105C1801.88 429.105 1832.1 478.733 1824.83 475.086C1817.55 471.44 1800.28 465.414 1800.28 465.414C1800.28 465.414 1828.47 490.783 1820.55 490.783C1812.8 490.783 1785.1 492.527 1785.1 492.527C1785.1 492.527 1825.14 527.727 1813.27 523.445C1801.24 519.165 1766.89 513.139 1766.89 513.139C1766.89 513.139 1831 577.989 1813.27 573.073C1796.18 568.317 1782.4 563.084 1781.61 562.767C1782.88 563.877 1819.44 596.698 1808.68 594.796C1801.88 593.685 1789.38 593.051 1780.82 592.734C1772.43 585.916 1756.29 573.39 1751.38 570.219C1744.41 565.78 1779.24 547.705 1769.11 549.607C1758.98 551.51 1735.87 556.425 1738.56 552.778C1741.25 548.973 1755.65 506.638 1750.91 509.176C1746.16 511.713 1739.67 512.981 1733.17 517.897C1726.69 522.811 1728.26 473.025 1724 476.037C1719.72 479.209 1708.96 481.587 1708.96 481.587C1708.96 481.587 1699.78 422.921 1695.51 415.786C1695.51 415.786 1691.55 488.247 1686.64 483.172C1681.73 478.099 1674.93 463.511 1674.93 463.511C1674.93 463.511 1686.64 519.165 1679.84 520.116C1673.04 521.068 1652.93 516.31 1652.93 516.31C1652.93 516.31 1676.19 554.681 1670.65 551.827C1664.96 548.973 1651.82 544.374 1651.82 544.374C1651.82 544.374 1673.51 564.035 1667.5 564.035C1661.47 564.035 1640.11 565.463 1640.11 565.463C1640.11 565.463 1671.13 592.576 1661.78 589.246C1652.61 585.916 1626.02 581.319 1626.02 581.319C1626.02 581.319 1675.56 631.422 1661.78 627.617C1648.18 623.812 1637.26 619.689 1637.26 619.689C1637.26 619.689 1666.69 645.851 1658.15 644.424C1649.76 642.996 1629.98 642.521 1629.98 642.521C1629.98 642.521 1654.35 667.573 1654.98 670.109C1655.14 670.427 1654.67 670.426 1653.72 669.634C1648.02 665.67 1620.79 657.426 1608.45 656.632V665.353C1612.25 668.683 1616.99 672.488 1622.06 676.451C1619.06 677.721 1615.25 678.672 1611.45 681.367C1607.19 684.538 1608.29 653.461 1605.44 655.364C1602.59 657.267 1595.48 658.852 1595.48 658.852C1595.48 658.852 1589.45 622.384 1586.45 617.945C1586.45 617.945 1583.75 663.133 1580.59 659.962C1577.42 656.791 1572.83 647.754 1572.83 647.754C1572.83 647.754 1580.59 682.477 1576 682.952C1571.41 683.586 1557.96 680.575 1557.96 680.575C1557.96 680.575 1573.47 704.516 1569.83 702.772C1566.18 701.028 1557.17 698.174 1557.17 698.174C1557.17 698.174 1571.72 710.383 1567.6 710.383C1563.5 710.383 1549.41 711.334 1549.41 711.334C1549.41 711.334 1570.14 728.3 1563.97 726.238C1557.8 724.177 1540.08 721.323 1540.08 721.323C1540.08 721.323 1573.14 752.558 1563.97 750.181C1554.79 747.802 1547.51 745.265 1547.51 745.265C1547.51 745.265 1567.13 761.596 1561.43 760.645C1555.74 759.693 1542.6 759.535 1542.6 759.535C1542.6 759.535 1558.91 775.073 1559.38 776.66C1559.38 776.818 1559.22 776.818 1558.59 776.343C1555.26 774.122 1540.23 769.842 1531.21 768.573C1531.68 765.877 1532 763.498 1531.84 761.755C1536.43 762.23 1543.39 762.23 1543.39 762.23C1543.39 762.23 1524.56 747.168 1519.97 744.155C1515.22 741.301 1538.8 729.092 1531.84 730.361C1525.03 731.629 1509.52 734.959 1511.26 732.422C1513.01 729.885 1522.81 701.345 1519.49 703.089C1516.17 704.833 1511.89 705.626 1507.62 708.956C1503.35 712.285 1504.45 678.672 1501.45 680.892C1498.6 682.952 1491.32 684.697 1491.32 684.697C1491.32 684.697 1485.15 645.216 1482.29 640.459C1482.29 640.459 1479.61 689.295 1476.28 685.807C1473.11 682.477 1468.69 673.122 1468.53 672.646C1468.84 673.914 1476.28 710.065 1471.69 710.7C1467.1 711.334 1453.49 708.163 1453.49 708.163C1453.49 708.163 1469.16 734.008 1465.36 732.105C1461.56 730.203 1452.7 727.032 1452.7 727.032C1452.7 727.032 1467.25 740.192 1463.3 740.192C1459.34 740.192 1444.94 741.143 1444.94 741.143C1444.94 741.143 1465.83 759.376 1459.5 757.157C1453.49 754.937 1436.08 751.924 1435.45 751.766C1436.39 752.717 1468.69 785.379 1459.5 783.001C1450.79 780.623 1443.67 777.928 1443.04 777.611C1443.99 778.562 1462.67 795.21 1457.13 794.259C1451.44 793.308 1438.13 792.99 1438.13 792.99C1438.13 792.99 1454.44 809.798 1454.91 811.541C1454.91 811.858 1454.75 811.7 1453.96 811.224C1450.16 808.529 1431.8 802.98 1423.41 802.503V808.37C1433.07 816.933 1454.28 831.678 1447 829.776C1444.62 829.141 1425.63 824.701 1425.63 824.701C1425.63 824.701 1427.53 826.922 1430.06 830.093C1430.06 830.093 1452.22 860.535 1447 859.583C1445.09 859.266 1441.3 857.84 1437.03 856.413C1437.18 856.255 1425.63 852.448 1423.25 851.814C1423.25 851.814 1441.78 873.06 1439.24 873.06C1436.55 873.06 1428.32 873.22 1423.25 873.378V876.55C1423.57 876.867 1424.05 877.025 1424.37 877.342C1382.26 880.513 1338.89 881.306 1294.09 878.769C1294.09 874.33 1294.25 870.524 1294.25 869.255C1294.41 865.927 1296.47 841.984 1297.26 833.898C1300.58 830.568 1303.59 827.239 1303.75 825.018C1304.22 819.945 1301.86 814.078 1305.17 810.115C1307.71 807.261 1309.29 788.551 1309.92 776.343C1311.98 773.012 1312.61 768.414 1312.94 767.78C1313.41 766.671 1316.88 766.354 1317.04 765.402C1317.2 764.45 1318.79 763.658 1318.79 763.658C1327.17 763.975 1327.49 757.474 1328.12 755.888C1328.75 754.303 1327.33 752.083 1327.33 752.083C1318.15 751.766 1315.94 757.633 1315.3 758.584C1314.67 759.693 1312.61 759.059 1312.61 759.059C1312.76 755.413 1322.74 751.132 1325.75 750.339C1327.81 749.704 1327.81 747.485 1327.49 745.899L1334.45 746.058L1345.37 734.008L1344.74 732.739C1344.74 732.739 1339.99 736.544 1336.36 739.398L1336.67 734.959H1335.1L1333.82 741.301C1333.35 741.777 1332.87 742.094 1332.71 742.252C1331.61 743.203 1328.75 743.045 1326.86 743.045C1325.59 735.91 1332.4 733.373 1335.25 731.471L1335.41 731.312L1339.04 730.837L1339.2 729.092L1336.67 729.251C1336.99 727.507 1335.88 725.763 1336.04 726.873C1336.2 727.983 1334.29 728.934 1332.87 729.568L1331.92 726.555H1330.34V730.678C1327.96 731.788 1326.23 733.214 1325.12 734.8C1323.69 733.849 1321.63 732.105 1321.63 730.203C1321.63 729.092 1321.79 726.555 1322.11 724.019L1325.59 719.896L1324.96 719.103L1322.58 720.531C1322.9 717.835 1323.06 715.774 1323.06 715.774L1321.48 716.09C1321.48 716.09 1320.21 721.006 1319.42 725.604L1316.41 723.542L1314.67 724.494L1318.95 728.141C1318.63 730.52 1318.48 732.422 1318.79 733.056C1319.42 734.325 1321.63 736.544 1323.37 738.289C1322.11 742.252 1323.06 745.741 1323.06 745.741C1313.41 747.644 1306.44 755.73 1304.86 757.633C1304.22 757.316 1303.59 757.316 1302.8 757.316C1302.01 757.316 1301.21 757.474 1300.58 757.791C1299.16 756.047 1292.2 747.802 1282.38 745.899C1282.38 745.899 1283.17 742.886 1282.38 739.557C1284.12 737.813 1286.5 735.593 1287.13 734.325C1287.45 733.691 1287.29 731.788 1286.97 729.409L1291.25 725.763L1289.5 724.811L1286.5 726.873C1285.71 722.274 1284.43 717.36 1284.43 717.36L1282.85 717.043C1282.85 717.043 1283.17 719.262 1283.33 721.799L1280.96 720.372L1280.33 721.165L1283.8 725.287C1284.12 727.824 1284.28 730.203 1284.28 731.471C1284.28 733.214 1282.54 734.8 1281.12 735.91C1280.01 734.166 1278.26 732.422 1275.73 731.154V727.983H1274.16L1273.35 730.203C1272.09 729.726 1269.4 727.824 1267.81 721.64L1266.39 721.957C1265.92 723.86 1266.39 728.141 1268.77 730.837L1266.71 730.678L1266.87 732.422L1272.25 733.056C1275.58 734.959 1280.33 737.972 1278.42 744.472C1276.52 744.472 1274.16 744.472 1273.2 743.68C1273.04 743.52 1272.56 743.203 1272.09 742.728L1270.83 736.386H1269.25L1269.56 740.826C1265.92 737.972 1261.17 734.166 1261.17 734.166L1260.54 735.434L1271.46 747.485L1277.95 747.327C1277.95 748.595 1278.26 750.181 1279.85 750.656C1283.01 751.449 1292.83 755.73 1292.99 759.376C1292.99 759.376 1290.93 760.01 1290.29 758.901C1289.66 757.791 1287.45 751.924 1278.26 752.4C1278.26 752.4 1276.84 754.62 1277.47 756.205C1278.1 757.791 1278.42 764.292 1286.81 763.975C1286.81 763.975 1288.39 764.768 1288.55 765.719C1288.71 766.671 1292.2 766.988 1292.67 768.097C1292.83 768.573 1293.14 770.317 1293.78 772.219C1292.83 777.452 1291.41 784.746 1290.78 788.709C1290.78 788.709 1289.66 794.735 1285.55 793.942C1281.43 792.991 1263.55 781.416 1242.34 794.259C1227.14 803.614 1208.62 789.66 1196.27 809.798C1184.08 829.776 1193.11 846.741 1191.37 848.643C1189.62 850.546 1195.79 846.266 1195.95 843.57C1196.27 840.874 1197.23 831.519 1197.23 831.519C1197.23 831.519 1203.4 839.765 1197.54 859.9C1197.23 860.218 1196.91 867.987 1196.91 867.987V868.78C1134.85 858.949 1070.28 842.618 1002.85 818.201V813.92C999.524 813.126 996.353 812.175 993.826 811.066C986.549 807.895 977.996 803.931 972.772 800.76C978.786 798.698 985.747 794.576 988.128 792.356C988.602 792.356 989.234 792.356 989.708 792.197V789.026C988.286 789.66 986.865 790.295 985.747 790.771C977.206 791.563 955.046 794.576 961.692 791.405C966.126 789.185 971.508 778.562 974.193 770.793L974.509 769.999C976.259 764.767 976.89 760.962 974.995 762.389C970.245 765.719 961.376 774.598 962.797 771.268C964.231 767.939 981.167 730.995 977.838 733.214C974.351 735.435 957.099 757.95 958.047 750.498C959.007 743.045 969.613 724.653 965.81 727.19C962.008 729.726 953.625 742.252 952.835 738.289C952.349 735.117 959.323 717.201 958.533 711.334C962.955 711.81 969.455 711.81 969.455 711.81C969.455 711.81 951.717 698.491 947.295 695.954C942.861 693.417 965.021 682.635 958.533 683.746C952.033 684.855 937.479 687.868 939.058 685.648C940.795 683.428 949.98 658.377 946.809 659.803C943.808 661.231 939.69 662.023 935.571 665.036C931.465 668.049 932.57 638.399 929.715 640.301C927.03 642.204 920.227 643.63 920.227 643.63C920.227 643.63 914.371 608.907 911.674 604.626C911.674 604.626 909.147 647.595 905.976 644.582C902.975 641.57 898.541 633.007 898.541 633.007C898.541 633.007 905.976 665.987 901.541 666.463C897.265 666.938 884.448 664.243 884.448 664.243C884.448 664.243 899.33 686.916 895.686 685.331C892.053 683.746 883.658 680.892 883.658 680.892C883.658 680.892 897.435 692.466 893.632 692.466C889.83 692.466 876.223 693.258 876.223 693.258C876.223 693.258 895.843 709.273 889.988 707.371C884.132 705.467 867.196 702.613 867.196 702.613C867.196 702.613 898.699 732.263 889.988 730.043C881.289 727.824 874.473 725.287 874.473 725.287C874.473 725.287 893.159 740.826 887.777 740.032C882.394 739.24 869.893 738.923 869.893 738.923C869.893 738.923 885.395 753.827 885.711 755.254C885.711 755.412 885.553 755.412 884.922 754.937C881.289 752.558 864.025 747.802 856.116 747.327V752.558C858.485 754.62 861.656 756.84 864.985 759.218C859.129 756.205 853.115 753.352 847.094 750.181C824.459 738.447 801.825 727.666 779.348 717.36V709.907C777.607 709.431 775.707 709.114 773.491 708.48C777.132 708.956 779.348 707.529 777.765 706.737C775.391 705.468 756.713 691.99 761.62 693.735C766.527 695.478 772.858 694.052 772.858 694.052C772.858 694.052 771.275 692.941 768.743 691.198C773.017 690.722 777.29 690.405 779.19 690.564V685.489C776.341 684.697 773.65 683.904 771.592 682.952C765.419 680.098 758.296 676.452 753.864 673.597C758.929 671.854 764.786 668.049 766.843 665.987C767.318 665.987 767.793 665.987 768.268 665.829V662.974C767.16 663.608 765.894 664.085 764.944 664.56C757.821 665.194 739.143 668.049 744.683 665.036C748.324 663.133 752.914 653.461 755.289 646.326L755.605 645.533C757.188 640.777 757.505 637.448 755.922 638.557C751.965 641.57 744.367 649.656 745.633 646.643C746.741 643.63 761.145 610.175 758.296 612.237C755.447 614.298 740.726 634.593 741.676 627.934C742.467 621.275 751.49 604.468 748.324 606.846C745.158 609.224 738.035 620.481 737.402 616.835C736.927 613.822 742.942 597.809 742.309 592.417C745.95 592.734 751.49 592.734 751.49 592.734C751.49 592.734 736.611 580.685 732.812 578.306C729.013 575.927 747.691 566.255 742.309 567.208C736.769 568.159 724.423 570.853 725.847 568.951C727.272 566.889 735.028 544.217 732.495 545.485C729.963 546.753 726.481 547.547 722.998 550.241C719.516 552.937 720.466 526.141 718.091 527.886C715.717 529.629 710.019 530.897 710.019 530.897C710.019 530.897 705.112 499.504 702.896 495.54C702.896 495.54 700.68 534.385 698.147 531.691C695.615 528.995 691.816 521.226 691.816 521.226C691.816 521.226 698.147 551.035 694.349 551.51C690.708 551.986 679.945 549.449 679.945 549.449C679.945 549.449 692.449 570.061 689.442 568.476C686.434 567.048 679.311 564.512 679.311 564.512C679.311 564.512 691.025 574.976 687.701 574.976C684.377 574.976 672.98 575.769 672.98 575.769C672.98 575.769 689.6 590.356 684.693 588.612C679.786 586.868 665.541 584.33 665.541 584.33C665.541 584.33 692.133 611.127 684.693 609.224C677.412 607.164 671.555 604.943 671.555 604.943C671.555 604.943 687.226 619.055 682.794 618.262C678.362 617.47 667.757 617.31 667.757 617.31C667.757 617.31 680.736 630.788 681.211 632.056C681.211 632.215 681.053 632.215 680.578 631.739C677.57 629.678 663.008 625.238 656.36 624.763V629.519C664.116 636.337 680.894 648.071 675.196 646.643C673.297 646.167 671.081 645.692 669.023 645.058C671.555 643.79 673.138 643.155 673.138 643.155L667.915 644.899C662.85 643.63 658.259 642.679 658.259 642.679C658.259 642.679 659.684 644.424 661.742 646.96L656.36 648.705V651.242C658.418 650.131 660.634 649.18 662.691 648.071C667.598 654.254 674.563 663.133 673.455 662.974C673.297 662.974 673.138 662.974 673.297 663.291C671.555 664.243 668.865 665.67 665.224 667.098C662.058 665.987 658.734 664.877 656.518 664.243V667.098C657.151 667.573 657.785 668.207 658.418 668.841C622.962 656.632 587.981 646.167 553.158 637.131V634.118C551.258 633.641 549.042 633.166 546.668 632.532C550.625 633.007 553.158 631.581 551.417 630.47C548.884 629.044 528.149 614.14 533.53 616.042C538.912 617.945 545.877 616.359 545.877 616.359C545.877 616.359 544.135 615.091 541.445 613.188C546.193 612.712 550.942 612.237 552.999 612.554V606.846C549.834 606.053 546.826 605.102 544.61 603.991C537.804 600.821 529.89 596.857 524.983 593.685C530.681 591.625 537.171 587.503 539.229 585.282C539.703 585.282 540.178 585.282 540.811 585.124V581.953C539.545 582.587 538.279 583.221 537.013 583.696C529.098 584.49 508.363 587.503 514.536 584.33C518.651 582.111 523.717 571.488 526.249 563.718L526.566 562.926C528.307 557.694 528.782 553.888 527.041 555.315C522.609 558.645 514.378 567.525 515.644 564.195C516.91 560.864 532.897 523.921 529.573 526.141C526.407 528.361 510.104 550.875 511.054 543.582C512.003 536.13 521.817 517.738 518.335 520.274C514.853 522.811 506.938 535.496 506.305 531.374C505.83 528.203 512.32 510.285 511.687 504.26C515.802 504.735 521.975 504.736 521.975 504.736C521.975 504.736 505.355 491.418 501.24 488.881C497.125 486.343 517.86 475.562 511.687 476.671C505.672 477.781 491.901 480.794 493.484 478.575C495.067 476.354 503.614 451.145 500.765 452.73C497.916 454.156 494.117 454.95 490.318 457.963C486.519 460.974 487.469 431.324 484.937 433.227C482.404 435.13 476.073 436.557 476.073 436.557C476.073 436.557 470.691 401.834 468.158 397.552C468.158 397.552 465.784 440.521 462.935 437.508C460.086 434.495 455.97 425.775 455.97 425.775C455.97 425.775 462.935 458.755 458.819 459.389C454.704 460.023 442.833 457.169 442.833 457.169C442.833 457.169 456.603 480.001 453.279 478.258C449.955 476.513 442.041 473.817 442.041 473.817C442.041 473.817 454.862 485.551 451.38 485.551C447.898 485.551 435.077 486.343 435.077 486.343C435.077 486.343 453.438 502.516 447.898 500.455C442.358 498.553 426.687 495.698 426.687 495.698C426.687 495.698 455.97 525.348 447.898 523.128C439.825 520.908 433.335 518.372 433.335 518.372C433.335 518.372 450.747 533.91 445.682 533.117C440.617 532.325 428.903 532.008 428.903 532.008C428.903 532.008 432.702 535.813 436.343 539.777C432.702 540.094 427.479 540.728 422.414 541.363C420.039 540.886 417.823 540.569 416.082 540.411V541.997C409.593 542.472 405.477 542.472 409.276 540.411C414.341 537.875 420.514 525.031 423.838 515.359L424.155 514.25C426.213 507.908 426.846 503.309 424.63 505.053C419.09 509.017 408.801 519.799 410.384 515.835C411.967 511.871 431.753 467.158 427.795 469.854C423.838 472.549 403.736 499.821 404.844 490.783C405.952 481.904 418.298 459.548 413.866 462.56C409.593 465.731 399.621 480.952 398.829 476.037C398.196 472.074 406.427 450.51 405.477 443.375C410.542 443.85 418.14 443.85 418.14 443.85C418.14 443.85 397.563 427.836 392.498 424.666C387.433 421.495 413.075 408.652 405.477 409.92C398.038 411.188 381.101 414.834 383.001 412.14C384.9 409.444 395.663 379.002 392.023 380.904C388.541 382.648 383.792 383.599 379.043 387.087C374.295 390.734 375.561 354.9 372.395 357.12C369.23 359.341 361.315 361.084 361.315 361.084C361.315 361.084 355.617 319.226 352.451 313.993C352.451 313.993 349.444 366 345.962 362.195C342.479 358.548 337.414 348.082 337.414 348.082C337.414 348.082 345.962 388.04 340.897 388.674C335.831 389.308 321.111 385.978 321.111 385.978C321.111 385.978 338.206 413.408 334.09 411.506C329.975 409.444 320.161 406.114 320.161 406.114C320.161 406.114 336.148 420.226 331.716 420.226C327.284 420.226 311.614 421.177 311.614 421.177C311.614 421.177 334.407 440.679 327.601 438.302C322.377 436.557 310.031 434.178 304.333 433.069C304.807 431.324 304.649 430.532 304.016 431.007C303.541 431.324 302.908 431.959 302.117 432.752C301.642 432.593 301.325 432.593 301.325 432.593C301.325 432.593 301.483 432.752 301.8 433.069C294.361 440.838 275.683 465.414 276.949 455.901C278.374 445.278 292.778 418.799 287.713 422.604C282.647 426.251 270.934 444.326 269.985 438.46C269.193 433.861 278.849 408.335 277.899 399.772C283.914 400.406 292.936 400.406 292.936 400.406C292.936 400.406 268.56 381.379 262.545 377.574C256.53 373.927 286.921 358.548 277.899 360.133C269.035 361.718 248.933 366 251.307 362.829C253.681 359.658 266.344 323.665 262.07 325.727C257.797 327.787 252.257 328.898 246.717 333.179C241.177 337.459 242.443 295.125 238.802 297.662C235.003 300.358 225.665 302.419 225.665 302.419C225.665 302.419 217.75 252.633 213.951 246.607C213.951 246.607 210.469 308.126 206.195 303.846C201.922 299.407 196.065 287.197 196.065 287.197C196.065 287.197 206.195 334.447 200.339 335.239C194.324 336.033 176.913 332.069 176.913 332.069C176.913 332.069 197.173 364.572 192.266 362.195C187.359 359.816 175.805 355.852 175.805 355.852C175.805 355.852 194.799 372.501 189.417 372.501C184.035 372.501 165.516 373.769 165.516 373.769C165.516 373.769 192.583 396.759 184.51 394.064C176.438 391.21 153.328 387.246 153.328 387.246C153.328 387.246 196.382 429.739 184.51 426.568C172.639 423.397 163.142 419.75 163.142 419.75C163.142 419.75 164.883 421.178 167.257 423.397C155.702 425.141 134.65 428.471 137.183 425.617C140.032 422.604 155.227 387.721 150.162 389.783C145.097 391.845 138.291 392.796 131.485 396.918C124.678 401.04 126.419 360.133 121.829 362.67C117.239 365.206 106.001 367.268 106.001 367.268C106.001 367.268 96.345 319.226 91.913 313.359C91.913 313.359 87.6389 372.818 82.5739 368.537C77.509 364.255 70.228 352.364 70.228 352.364C70.228 352.364 82.5739 398.029 75.293 398.821C68.1699 399.614 46.96 395.808 46.96 395.808C46.96 395.808 71.4939 427.202 65.6381 424.983C59.781 422.604 45.6941 418.799 45.6941 418.799C45.6941 418.799 68.487 434.972 62.1549 434.972C59.3059 434.972 53.4501 435.13 47.593 435.447C41.895 428.947 32.714 418.799 29.7071 416.103C25.1171 411.981 48.068 395.173 41.2621 396.918C34.6141 398.663 19.4179 403.26 21.1589 399.772C22.9011 396.284 32.3981 356.645 29.232 359.024C26.0659 361.401 21.7931 362.512 17.677 367.109C13.4029 371.708 14.5109 325.25 11.6619 328.104C8.81296 330.959 1.84908 333.337 1.84908 333.337C1.84908 333.337 -4.16593 278.635 -7.0149 271.977C-7.0149 271.977 -9.70595 339.68 -12.872 334.922C-16.0381 330.166 -20.4701 316.53 -20.4701 316.53C-20.4701 316.53 -12.872 368.537 -17.304 369.33C-21.736 370.281 -35.032 365.841 -35.032 365.841C-35.032 365.841 -34.2411 367.585 -33.291 370.122C-41.522 363.146 -51.019 355.377 -54.8181 352.84C-61.7819 348.082 -26.801 328.74 -37.0901 330.8C-47.3779 332.862 -70.488 338.095 -67.797 334.13C-65.1059 330.166 -50.544 284.66 -55.451 287.356C-60.3581 290.052 -66.689 291.32 -73.179 296.711C-79.6691 302.102 -78.0861 248.509 -82.3589 251.839C-86.633 255.169 -97.3971 257.864 -97.3971 257.864C-97.3971 257.864 -106.577 194.918 -110.851 187.307C-110.851 187.307 -114.966 265.158 -119.715 259.609C-124.622 254.059 -131.428 238.52 -131.428 238.52C-131.428 238.52 -119.715 298.296 -126.521 299.248C-133.327 300.199 -153.588 295.283 -153.588 295.283C-153.588 295.283 -130.162 336.508 -135.86 333.496C-141.558 330.483 -154.854 325.41 -154.854 325.41C-154.854 325.41 -133.011 346.497 -139.026 346.497C-145.041 346.497 -166.409 347.924 -166.409 347.924C-166.409 347.924 -135.385 377.098 -144.566 373.452C-150.581 371.232 -163.877 368.219 -172.424 366.475C-173.374 355.852 -173.849 343.326 -175.748 344.911C-179.23 347.607 -187.778 349.669 -187.778 349.669C-187.778 349.669 -195.059 299.248 -198.541 293.223C-198.541 293.223 -201.707 355.535 -205.664 351.095C-209.621 346.656 -215.003 334.288 -215.003 334.288C-215.003 334.288 -205.664 382.173 -211.046 382.965C-216.586 383.758 -232.731 379.794 -232.731 379.794C-232.731 379.794 -222.442 398.027 -218.96 406.431C-226.241 400.248 -253.466 376.94 -261.064 371.867C-269.928 366 -225.925 341.583 -238.746 344.119C-251.567 346.656 -280.691 353.315 -277.209 348.401C-273.885 343.326 -255.524 286.246 -261.697 289.576C-267.712 292.906 -275.943 294.649 -284.015 301.309C-292.088 307.968 -290.03 240.899 -295.412 245.021C-300.794 249.303 -314.406 252.633 -314.406 252.633C-314.406 252.633 -325.961 173.672 -331.343 164C-331.343 164 -336.408 261.67 -342.423 254.693C-348.438 248.034 -356.669 229.167 -357.143 228.214C-356.827 229.959 -342.581 303.212 -351.129 304.321C-353.819 304.638 -358.251 304.321 -363 303.687V341.9C-361.417 345.863 -361.101 348.082 -362.683 347.29C-362.842 347.29 -362.842 347.131 -363 347.131V717.201V800.76V1008.47H1853V911.431V767.463V352.047C1850.95 372.025 1848.41 389.149 1845.56 386.136ZM772.542 711.651C772.383 711.651 771.909 711.968 771.275 712.285C771.117 712.127 771.117 711.968 770.959 711.81C772.225 711.651 772.858 711.493 772.542 711.651ZM768.585 706.26C769.534 706.895 770.642 707.371 771.592 707.688C770.326 707.371 768.901 707.054 767.477 706.737C767.002 705.785 767.16 705.468 768.585 706.26ZM747.849 674.232C749.115 674.866 751.015 674.708 753.073 674.232C755.763 678.355 761.145 685.172 764.944 686.599C766.527 687.234 766.843 687.868 766.21 688.661C757.03 682.001 743.734 672.329 747.849 674.232ZM673.771 663.608C674.563 665.353 679.786 671.378 675.671 670.586C674.088 670.269 671.081 669.158 667.757 668.049C670.131 666.145 672.347 664.56 673.771 663.608ZM779.19 716.09C779.19 716.09 779.031 716.249 778.557 716.566C778.398 716.566 778.398 716.566 778.24 716.408C778.873 716.249 779.19 716.09 779.19 716.09ZM297.21 528.044C299.267 527.409 301.325 526.458 303.383 525.507C306.549 529.629 309.556 533.434 311.139 535.654C305.757 532.959 300.85 530.422 297.21 528.044ZM309.398 546.119C308.131 545.643 306.865 545.326 305.441 544.851C304.966 544.534 304.491 544.057 303.858 543.74C304.333 543.423 304.807 543.106 305.441 542.631C306.707 543.899 308.131 545.168 309.398 546.119ZM304.333 541.521C303.699 541.838 302.908 542.155 302.117 542.472C290.72 534.385 281.065 527.092 285.813 529.154C287.871 530.105 290.878 529.946 294.202 528.995C296.577 532.483 300.375 537.398 304.333 541.521ZM540.495 630.153C541.603 630.947 542.711 631.422 543.819 631.739C542.394 631.422 540.811 630.947 539.229 630.63C538.912 629.519 539.07 629.202 540.495 630.153ZM517.702 594.637C519.126 595.271 521.184 595.113 523.4 594.479C526.249 598.918 532.422 606.529 536.538 608.115C538.279 608.749 538.595 609.541 537.962 610.492C527.832 603.357 513.111 592.734 517.702 594.637ZM439.667 542.314C442.358 545.168 444.415 547.705 444.574 548.181C444.574 548.339 444.415 548.339 443.782 547.864C442.516 547.07 439.667 545.802 436.185 544.692C437.609 543.899 438.717 543.106 439.667 542.314ZM433.335 578.306C433.335 578.306 433.494 578.306 433.335 578.306C434.602 579.891 435.393 581.002 435.71 581.794C432.544 579.099 430.961 577.514 433.335 578.306ZM423.838 551.193C425.263 552.461 426.846 553.571 428.429 554.84C426.371 553.729 424.471 552.62 422.889 551.669C423.205 551.352 423.522 551.352 423.838 551.193ZM413.233 552.461C414.974 553.254 417.507 553.095 420.356 552.303C422.255 554.998 425.105 558.804 428.112 561.975C426.371 561.499 424.63 561.182 423.205 560.864C415.449 555.315 409.751 550.875 413.233 552.461ZM283.439 485.709C284.863 481.904 300.217 447.338 303.858 435.13C311.93 443.216 336.148 468.11 327.759 465.89C317.629 463.194 309.714 460.182 309.714 460.182C309.714 460.182 331.241 478.892 325.068 477.941C318.895 476.988 304.333 476.671 304.333 476.671C304.333 476.671 322.219 494.589 322.694 496.491C322.694 496.808 322.535 496.649 321.744 496.174C318.737 494.112 307.498 490.466 298.159 488.405C298.476 487.295 298.951 486.343 299.267 485.234L299.742 483.965C302.275 476.513 302.908 471.123 300.375 473.025C293.727 477.624 281.539 490.466 283.439 485.709ZM282.014 514.725C285.971 512.664 290.403 505.529 294.202 497.602C301.958 503.626 311.455 510.602 314.779 513.932C313.197 514.09 311.297 514.25 309.239 514.567C308.131 514.25 306.865 514.09 305.757 513.773C309.239 512.188 311.455 511.079 311.455 511.079L304.333 513.298C297.368 511.713 291.037 510.285 291.037 510.285C291.037 510.285 292.936 512.664 295.785 515.993C285.338 517.103 276.474 517.58 282.014 514.725ZM168.84 424.983C175.963 431.484 186.093 441.473 181.186 440.679C173.747 439.411 156.652 439.094 156.652 439.094C156.652 439.094 161.242 443.692 166.149 448.766C159.659 444.801 153.486 441.155 150.637 439.728C145.255 437.349 162.509 428.947 168.84 424.983ZM178.337 462.56C178.495 462.877 178.021 462.719 177.229 462.243C176.913 462.085 176.596 461.926 176.279 461.768C176.754 461.768 177.229 461.768 177.704 461.768C178.179 462.085 178.337 462.402 178.337 462.56ZM168.365 485.709C166.782 485.392 165.041 484.917 163.3 484.44C163.775 483.014 164.25 481.587 164.725 480.318C164.883 480.318 164.883 480.16 164.883 480.16H164.725C164.725 480.001 164.725 480.001 164.883 479.843C169.948 483.965 172.164 486.502 168.365 485.709ZM168.682 517.58C168.207 517.58 167.89 517.103 167.89 516.31C168.207 516.786 168.523 517.103 168.682 517.58ZM41.42 441.631C50.284 447.974 62.7891 457.327 56.2991 455.584C52.658 454.633 46.6429 453.522 40.4699 452.413C41.1029 448.132 41.42 444.326 41.42 441.631ZM44.744 484.44C45.852 480.635 46.96 476.988 47.7509 473.817C51.2341 476.988 54.241 480.001 56.2991 482.38C55.5069 483.648 54.716 485.075 53.7659 486.66C50.6011 485.709 47.593 485.075 44.744 484.44ZM49.0181 494.589C47.7509 496.649 46.485 498.553 45.377 500.138C43.9531 499.979 42.528 499.979 40.945 499.821C41.42 496.967 42.2109 493.478 43.161 489.832C45.377 491.418 47.2771 493.161 49.0181 494.589ZM38.096 465.097C40.47 467.158 42.686 469.061 45.0611 471.123C42.686 475.086 39.9949 480.16 38.096 482.538C37.146 482.221 36.1971 482.063 35.405 481.746C35.5629 478.892 36.8301 472.232 38.096 465.097ZM-36.9309 380.904C-34.399 381.221 -31.3909 381.379 -28.5419 381.379C-24.902 390.734 -21.261 400.406 -23.319 398.98C-26.9589 396.284 -35.665 392.003 -35.665 392.003C-35.665 392.003 -25.3771 405.322 -24.7429 409.286C-24.9021 409.286 -25.2179 409.444 -25.535 409.761C-25.8509 409.92 -26.01 410.237 -26.3259 410.395C-30.442 410.554 -39.464 411.346 -42.4709 411.664C-39.464 400.248 -36.14 387.087 -36.9309 380.904ZM-29.0169 434.02C-29.8091 433.544 -30.9171 433.227 -32.0251 432.752C-31.5501 431.484 -31.075 430.056 -30.442 428.788C-28.0669 432.435 -26.8009 435.13 -29.0169 434.02ZM-42.6301 412.615C-41.3629 414.2 -38.5139 417.847 -35.507 421.812C-37.881 424.823 -40.097 427.677 -41.9971 429.422C-43.421 428.947 -44.6869 428.63 -45.9541 428.313C-45.7949 425.141 -44.371 419.275 -42.6301 412.615ZM-34.8741 453.522C-36.9309 455.108 -38.1981 454.95 -37.723 451.779C-37.5651 450.985 -37.5651 450.193 -37.248 449.4C-36.615 450.827 -35.665 452.254 -34.8741 453.522ZM-142.35 412.298C-141.717 414.2 -142.191 415.152 -144.407 414.517C-144.566 414.517 -144.724 414.359 -144.882 414.359C-144.091 413.725 -143.141 412.932 -142.35 412.298ZM-157.229 391.368C-151.689 398.027 -146.623 404.528 -144.091 408.969C-147.573 409.761 -151.689 410.554 -155.329 411.188C-158.337 410.237 -160.869 409.286 -162.927 408.493C-161.502 404.845 -159.128 398.027 -157.229 391.368ZM-146.782 431.007C-149.789 428.63 -152.163 426.726 -153.588 425.775C-154.696 424.983 -154.379 423.714 -153.271 422.129C-150.106 425.775 -147.573 429.105 -146.782 431.007ZM-164.035 410.871C-163.718 411.189 -163.402 411.506 -163.085 411.823C-163.877 411.663 -164.351 411.346 -164.035 410.871ZM-167.042 379.794C-167.517 380.111 -167.834 380.428 -168.309 380.745C-169.733 382.014 -170.841 379.319 -171.474 374.878C-170.05 376.306 -168.625 378.051 -167.042 379.794ZM-218.327 407.541C-217.694 409.444 -217.535 410.395 -218.485 409.92C-219.91 409.127 -221.809 408.335 -223.867 407.382C-221.493 407.541 -219.593 407.541 -218.327 407.541ZM-238.904 406.748C-236.213 407.065 -233.047 407.224 -230.04 407.382C-225.133 412.298 -217.694 420.543 -221.176 420.543C-224.817 420.543 -235.263 421.177 -240.329 421.495C-239.062 415.469 -238.429 410.237 -238.904 406.748ZM-233.364 472.708C-232.256 469.695 -231.148 466.682 -230.04 463.828C-224.658 470.963 -221.651 476.196 -225.766 475.086C-228.299 474.293 -230.99 473.5 -233.364 472.708ZM-227.349 488.564C-227.666 488.881 -227.982 489.198 -228.299 489.673C-228.457 489.673 -228.457 489.673 -228.615 489.673C-231.148 489.198 -234.947 488.881 -238.587 488.722C-237.796 485.551 -236.53 482.063 -235.422 478.575C-231.465 482.538 -227.982 486.66 -227.349 488.564ZM-240.803 423.872C-234.789 429.581 -219.751 444.326 -225.766 442.107C-229.723 440.679 -237.479 438.777 -243.969 437.349C-242.703 432.91 -241.595 428.313 -240.803 423.872ZM-245.71 444.961C-242.703 448.449 -239.221 452.413 -235.897 456.376C-242.703 465.256 -249.351 473.817 -250.142 468.11C-250.617 464.939 -248.401 455.584 -245.71 444.961ZM1285.87 866.084L1286.66 855.62L1288.87 866.244L1288.55 878.61C1287.29 878.452 1285.87 878.452 1284.59 878.293L1285.87 866.084ZM1226.03 844.997C1233.94 845.789 1266.23 846.106 1274.63 842.935C1274.63 842.935 1275.58 864.023 1277.47 866.878C1278.26 867.987 1278.42 872.743 1278.42 878.135C1256.89 876.55 1235.05 874.171 1212.89 871L1212.73 870.049L1226.03 844.997ZM1203.87 868.304C1203.71 867.987 1204.19 866.878 1204.98 865.133L1204.5 867.353L1205.14 869.89C1204.66 869.89 1204.35 869.732 1203.87 869.732C1204.03 868.938 1203.87 868.463 1203.87 868.304ZM964.705 801.394C966.284 802.028 968.337 801.869 970.877 801.235C972.14 803.137 974.035 805.516 976.259 807.895C973.561 806.785 970.876 805.833 968.179 804.723C964.389 802.186 962.481 800.601 964.705 801.394ZM1768.95 596.54C1771.16 596.698 1773.86 596.857 1776.39 597.015C1784.94 606.053 1803.93 625.872 1804.56 628.41C1804.72 628.885 1804.25 628.727 1802.82 627.776C1798.07 624.446 1781.45 618.738 1766.1 614.932C1768 607.639 1769.43 600.503 1768.95 596.54ZM1789.69 720.848C1788.26 720.531 1786.36 720.054 1783.99 719.262C1785.57 716.249 1787.15 713.078 1788.57 709.748C1792.38 715.456 1796.81 722.274 1789.69 720.848ZM1789.53 663.45C1790.01 662.499 1790.32 661.389 1790.8 660.437C1793.32 663.133 1793.48 664.402 1789.85 663.45C1789.69 663.45 1789.53 663.45 1789.53 663.45ZM1775.44 697.699C1775.76 696.748 1776.7 694.369 1778.12 691.039C1779.08 692.307 1780.03 693.735 1780.98 694.844C1777.02 698.333 1774.49 700.394 1775.44 697.699ZM1774.65 659.962C1775.28 659.645 1775.91 659.328 1776.55 659.011C1776.23 659.328 1775.76 659.803 1775.44 660.12C1775.28 659.962 1774.97 659.962 1774.65 659.962ZM1778.12 657.267L1772.11 659.169C1771.01 658.852 1769.9 658.694 1768.79 658.377C1769.74 654.571 1771.48 650.131 1773.23 645.692C1776.39 648.229 1779.4 650.608 1782.09 652.668C1780.66 654.413 1779.4 655.839 1778.12 657.267ZM1760.72 635.861C1762.46 637.131 1764.04 638.557 1765.78 639.825C1762.78 643.155 1760.24 644.899 1759.93 642.204C1759.77 641.094 1760.08 638.716 1760.72 635.861ZM1623.49 714.505C1621.74 713.553 1623.96 711.334 1626.97 708.956C1632.03 715.456 1637.1 722.116 1639.31 725.604C1633.61 721.482 1626.18 716.09 1623.49 714.505ZM1631.87 759.059C1630.45 760.328 1629.5 760.645 1629.19 759.376C1629.03 758.742 1629.19 757.633 1629.5 756.364C1630.61 757.316 1631.24 758.267 1631.87 759.059ZM1635.83 730.837C1635.68 730.995 1635.52 730.995 1635.2 731.154C1635.2 730.995 1635.2 730.837 1635.2 730.837C1635.52 730.837 1635.68 730.837 1635.83 730.837ZM1635.36 732.422C1635.99 731.946 1636.78 731.471 1637.41 730.995C1638.68 730.995 1639.95 731.154 1641.22 731.154C1644.06 735.593 1649.92 743.363 1643.59 741.935C1641.69 741.46 1638.2 740.509 1634.26 739.081C1634.89 736.544 1635.2 734.325 1635.36 732.422ZM1623.65 678.355C1637.41 689.136 1651.03 699.601 1643.43 697.699C1639.95 696.748 1635.83 695.796 1631.87 694.844C1636.62 692.624 1639.62 691.198 1639.62 691.198L1629.98 694.369C1626.33 693.575 1622.69 692.624 1619.85 691.99C1621.58 686.759 1623.33 681.209 1623.65 678.355ZM1617.79 697.54C1617.95 697.857 1618.11 698.016 1618.42 698.333L1617.31 698.65C1617.46 698.174 1617.64 697.857 1617.79 697.54ZM1614.94 703.724C1615.1 703.564 1615.25 703.247 1615.41 702.772C1616.99 701.979 1618.58 701.187 1620.16 700.553C1621.11 701.662 1621.9 702.772 1622.85 704.041C1617.95 704.675 1613.99 704.992 1614.94 703.724ZM1530.89 806.627C1531.21 804.089 1532.47 800.284 1534.05 796.32C1534.69 796.003 1535.32 795.686 1535.96 795.527C1537.22 797.113 1538.64 798.698 1540.08 800.443C1535.01 806.31 1530.42 810.907 1530.89 806.627ZM1539.91 828.031C1537.22 830.568 1535.17 831.995 1535.96 830.251C1536.11 829.616 1536.75 828.19 1537.69 825.97C1538.48 826.605 1539.27 827.397 1539.91 828.031ZM1534.85 853.242C1536.75 852.131 1538.96 849.436 1541.02 845.948C1544.66 848.643 1547.83 851.022 1548.62 852.131C1543.87 852.765 1539.27 853.082 1534.85 853.242ZM1548.3 820.579C1546.4 819.944 1544.02 819.31 1541.65 818.359C1544.66 816.299 1547.35 814.554 1549.09 813.286C1550.04 815.347 1556.53 822.323 1551.47 821.372C1551.16 821.372 1550.67 821.213 1550.2 821.055C1550.2 819.787 1549.88 819.31 1548.93 820.104C1548.77 820.262 1548.62 820.421 1548.3 820.579ZM1551.31 791.563C1553.37 793.308 1553.68 794.259 1551.63 793.783C1551.31 793.783 1550.99 793.625 1550.67 793.625C1550.83 792.831 1550.99 792.197 1551.31 791.563ZM1549.41 812.809C1549.09 812.809 1549.09 812.809 1549.09 813.126C1547.35 814.078 1544.81 815.347 1541.65 816.457C1542.92 813.444 1544.18 810.115 1545.44 806.944C1548.3 810.432 1550.04 812.968 1549.41 812.809ZM1549.09 789.82C1548.3 790.612 1547.51 791.722 1546.56 792.673C1545.62 792.514 1544.66 792.197 1543.71 792.039C1546.88 790.612 1548.93 789.82 1549.09 789.82L1542.44 791.722C1540.39 791.246 1538.33 790.771 1536.43 790.454C1537.69 787.441 1538.8 784.587 1539.43 782.684C1543.08 785.221 1546.56 787.758 1549.09 789.82ZM1529.47 775.232C1531.84 777.135 1534.85 779.354 1537.85 781.574C1535.96 783.476 1533.42 786.807 1531.21 789.502C1530.73 789.343 1530.42 789.343 1530.42 789.343C1530.42 789.343 1530.57 789.502 1530.89 789.82C1528.19 792.99 1525.98 795.21 1525.51 792.99C1525.19 790.612 1527.56 782.684 1529.47 775.232Z" fill="#031F31"/>
</g>
<defs>
<linearGradient id="paint0_linear" x1="888.328" y1="524.493" x2="888.328" y2="-84.2104" gradientUnits="userSpaceOnUse">
<stop stop-color="#1E5E87"/>
<stop offset="0.1741" stop-color="#255C7E"/>
<stop offset="0.3014" stop-color="#265370"/>
<stop offset="0.4249" stop-color="#164D6F"/>
<stop offset="0.5363" stop-color="#154868"/>
<stop offset="1" stop-color="#0C334B"/>
</linearGradient>
<linearGradient id="paint1_linear" x1="984" y1="885.195" x2="984" y2="384.619" gradientUnits="userSpaceOnUse">
<stop stop-color="#01667C"/>
<stop offset="1" stop-color="#134463"/>
</linearGradient>
<clipPath id="clip0">
<rect width="1824" height="984" fill="white"/>
</clipPath>
</defs>
</svg>
