<svg width="1824" height="984" viewBox="0 0 1824 984" fill="none" xmlns="http://www.w3.org/2000/svg">
<g clip-path="url(#clip0)">
<rect width="1824" height="984" fill="#FBFBFB"/>
<path d="M1824 -306.433H0V983.301H1824V-306.433Z" fill="url(#paint0_linear)"/>
<path d="M-64.9958 268.563C-57.1963 261.197 -39.8641 253.614 -29.0314 258.381C-24.915 260.33 -20.1487 265.963 -17.7655 269.43C-15.3823 272.68 -15.3823 275.279 -14.7323 278.963C-11.0492 278.529 -8.01611 275.713 -4.33301 277.879C0.216705 280.696 3.24985 291.095 3.0332 296.078C2.81654 303.444 -3.46639 305.828 -5.84958 311.677C-6.93284 314.494 -6.49953 320.777 -5.84958 323.593C-1.51652 323.376 3.03319 320.127 7.5829 319.26C13.6492 317.96 21.232 317.31 25.9984 322.293C27.515 323.81 29.0315 326.626 29.4648 328.793C29.6815 330.093 29.0315 332.476 29.6815 333.559C31.4147 336.159 37.6976 332.476 40.2975 332.476C51.1301 332.259 55.8965 344.392 53.7299 353.274C52.43 358.474 54.5966 366.274 49.8302 370.39C55.0299 369.523 67.8124 370.173 68.8956 377.106C67.8124 369.957 71.2788 359.991 76.0452 354.791C79.0783 351.325 84.0613 346.342 88.8277 345.475C94.244 344.608 99.6603 348.941 104.86 346.558C113.309 342.659 116.776 330.526 128.042 332.692C131.508 333.342 134.758 335.726 137.141 338.109C138.225 339.192 141.908 344.608 143.857 345.258C145.807 345.908 147.757 344.175 149.274 343.525C155.123 341.142 160.973 341.142 167.039 342.658C177.439 345.475 179.605 355.224 177.655 364.974C176.789 368.874 175.056 371.69 176.139 375.806C184.155 373.207 188.705 361.291 194.338 356.091C200.404 350.458 209.72 352.408 217.086 353.924C220.769 354.574 219.469 354.574 222.502 352.408C226.619 349.375 230.085 346.342 234.852 344.175C241.351 341.142 251.317 340.275 257.817 343.742C261.067 345.475 263.017 350.241 266.266 351.541C269.516 353.058 268.866 351.975 272.983 349.158C278.616 345.258 284.682 341.359 291.398 339.192C295.081 337.892 298.114 336.809 302.014 338.759C305.047 340.275 304.831 343.092 308.73 343.308C314.363 343.742 321.946 337.459 327.146 336.592C335.379 335.509 342.528 336.809 348.594 342.875C356.611 350.675 357.694 361.074 358.56 371.69C370.26 372.99 375.676 384.689 374.593 395.088C374.159 399.855 372.643 403.971 369.176 407.221C366.793 409.388 363.543 410.688 361.81 413.721C359.21 418.27 360.294 422.603 355.961 426.503C352.061 429.97 347.294 433.869 344.478 438.636C346.428 442.535 354.444 440.802 357.694 445.785C360.51 450.335 360.077 463.984 355.527 467.451C361.377 463.334 371.56 470.484 372.21 476.333C373.509 488.033 365.71 498.648 367.877 510.564C372.86 510.348 377.843 507.098 383.042 506.448C388.892 505.581 394.958 507.098 400.591 506.015C404.924 505.148 407.741 503.198 412.29 504.715C416.19 505.148 419.007 507.531 420.523 511.648C420.523 515.331 421.823 517.714 424.64 518.797C428.106 515.547 437.205 504.931 441.972 504.715C448.255 504.282 449.338 511.648 451.071 516.197C454.104 508.615 460.604 497.782 470.787 500.598C477.503 502.548 483.786 508.831 487.469 514.464C492.885 522.697 488.119 526.163 491.369 533.313C503.501 531.796 513.25 525.947 518.667 541.762C521.05 552.162 519.317 561.694 513.684 570.361C510.867 573.177 508.051 575.56 504.801 577.943C503.501 581.41 504.151 585.526 502.418 589.426C499.168 595.492 494.835 600.259 489.419 604.158C486.386 605.242 484.002 606.758 481.836 609.141C491.152 614.991 500.685 613.908 511.301 615.424C515.2 615.858 517.367 616.074 519.967 619.324C521.917 621.707 521.267 626.04 524.3 627.557C532.749 617.158 551.381 588.993 565.897 603.292C570.88 595.492 572.397 584.876 583.879 583.576C595.145 582.277 599.912 592.243 604.895 599.825C617.027 596.359 632.41 583.143 643.892 595.926C651.908 604.808 649.525 629.507 638.692 635.573C641.726 638.173 645.625 634.923 648.875 639.69C653.208 645.972 650.392 652.689 646.492 658.105C652.125 659.405 667.074 652.255 670.974 651.822C679.207 650.955 687.439 649.656 689.389 659.405C694.156 658.755 697.622 653.772 702.172 651.389C707.588 648.789 712.354 648.572 717.554 651.822C720.371 653.555 723.187 657.022 726.22 658.105C730.12 659.622 735.32 657.672 739.436 657.455C745.502 657.238 751.135 659.838 756.552 662.221C759.801 663.738 763.918 664.605 766.301 667.204C770.201 667.204 776.7 671.537 779.3 673.054C782.117 674.787 784.716 675.004 787.1 677.82C789.699 681.287 789.05 683.453 785.583 685.62C781.683 688.003 781.9 686.487 778.434 684.537C774.1 682.153 763.484 682.153 758.285 683.67C751.352 685.62 744.202 684.97 736.836 684.97C733.37 684.97 729.687 684.97 726.22 684.97C722.104 684.97 721.021 684.97 717.771 683.237C715.171 681.72 716.904 680.637 712.571 681.72C710.838 682.153 708.455 683.887 707.155 684.537C702.388 686.703 697.839 687.137 692.639 686.703C687.006 686.27 681.806 683.887 676.39 682.587C671.407 681.287 666.857 681.287 661.658 681.287C657.325 681.287 652.342 682.153 648.225 681.287C641.509 680.204 635.876 678.687 628.943 679.554C620.927 680.42 613.344 683.453 605.111 684.32C599.045 684.97 592.979 685.403 586.912 686.053C583.663 686.486 580.196 686.92 576.73 686.27C568.28 684.537 562.214 681.07 553.115 681.07C539.899 681.287 526.683 683.02 513.467 683.02C499.818 683.02 486.169 683.02 472.52 683.02C460.171 683.02 447.821 681.07 435.472 681.07C406.657 681.287 378.059 681.287 349.244 681.07C336.462 681.07 324.113 682.587 311.547 683.02C300.064 683.453 288.582 682.803 277.099 683.02C273.199 683.02 269.299 683.887 265.4 682.37C262.367 681.287 259.983 678.687 256.734 677.82C248.717 675.871 239.835 677.82 232.685 681.287C227.485 683.67 221.636 687.353 217.086 682.803C212.103 677.604 208.42 677.387 201.054 676.304C193.254 675.004 184.805 674.787 176.789 674.137C165.956 673.271 155.557 672.404 144.724 672.404C134.975 672.404 123.925 670.887 114.176 672.837C106.593 674.354 99.6603 673.487 91.8608 674.137C83.8447 674.787 76.6951 678.037 68.2457 677.82C58.4963 677.604 50.4801 679.12 40.9474 681.503C29.8981 684.103 18.8488 683.02 7.5829 683.02C-0.866562 683.02 -8.01611 685.62 -16.2489 686.487C-23.8318 687.353 -31.4146 686.487 -38.9975 685.403C-58.9295 683.02 -79.2949 678.254 -99.2269 683.02L-64.9958 268.563Z" fill="#285D7E"/>
<path d="M583.879 587.909C588.646 589.209 593.845 595.492 594.712 600.258C594.929 601.558 596.445 605.891 595.795 606.541C594.712 607.841 590.379 606.325 588.862 606.975C585.612 608.058 580.846 612.391 579.113 615.424C578.03 617.157 576.08 623.007 576.946 624.74C578.463 624.307 580.413 621.49 581.929 620.624C584.963 618.674 587.996 616.941 591.462 615.857C593.195 615.424 599.478 613.041 600.778 614.124C602.078 615.208 601.645 617.157 601.861 618.674C603.595 618.891 603.811 617.157 605.111 616.291C606.844 614.991 608.794 614.774 610.961 614.991C613.561 615.208 617.027 618.241 619.41 617.374C619.41 615.641 617.027 614.124 616.161 612.824C615.077 611.308 614.427 609.141 612.911 608.058C612.044 607.408 611.394 607.191 610.744 607.408C610.094 607.625 609.444 607.841 608.578 608.058C608.144 608.275 607.494 608.275 606.628 608.275C607.278 608.275 607.928 608.275 608.578 608.058C609.228 607.841 609.878 607.625 610.744 607.408C612.477 606.758 613.994 606.108 615.511 605.675C620.71 604.375 627.86 602.858 632.626 606.541C635.876 608.925 637.393 612.608 637.393 616.507C637.393 617.807 637.826 620.191 637.176 621.274C636.309 622.79 633.926 624.09 632.626 625.174C628.076 628.857 622.01 631.023 618.76 636.439C620.494 639.906 625.477 636.223 628.076 635.79C631.976 634.923 636.093 634.273 640.209 634.273C649.525 626.473 651.258 604.158 643.675 595.709C632.193 582.926 616.811 596.142 604.678 599.609C599.695 591.809 594.929 582.06 583.663 583.36C579.33 583.793 576.513 585.526 574.347 587.909C577.813 587.259 581.279 587.259 583.879 587.909Z" fill="#457FA4"/>
<path d="M609.011 607.841C608.361 608.058 607.711 608.058 607.061 608.058C607.928 608.058 608.578 608.058 609.011 607.841Z" fill="#FAAB41"/>
<path d="M611.178 607.191C610.528 607.191 609.878 607.625 609.011 607.841C609.878 607.625 610.528 607.408 611.178 607.191Z" fill="#FAAB41"/>
<path d="M472.086 511.431C472.736 513.814 471.22 517.497 472.52 519.447C474.686 523.347 481.836 522.697 484.869 526.163C486.819 528.113 487.469 533.096 486.602 535.696C485.519 539.812 481.619 536.129 479.453 534.396C475.336 530.93 471.22 530.93 466.237 532.663C464.07 533.313 455.188 538.946 453.888 538.512C445.655 542.629 440.238 546.529 436.555 555.195C435.689 557.145 435.905 563.211 433.089 563.427C432.872 562.777 432.872 562.128 432.656 561.478C429.622 560.394 425.289 561.261 422.04 561.261C417.057 561.261 411.64 560.828 408.824 565.594C407.957 566.894 407.741 567.977 406.441 569.494C405.141 571.01 403.624 572.31 402.541 574.26C406.441 569.277 413.807 566.894 419.44 569.71C421.39 570.794 423.34 572.31 425.289 573.393C427.239 574.477 428.973 576.427 430.922 576.86C433.956 568.194 447.388 576.643 451.504 580.326C451.288 577.077 447.821 574.043 445.655 571.877C443.705 569.71 442.405 569.494 439.372 570.794C438.939 568.627 442.405 565.377 443.705 563.861C446.955 559.744 449.771 558.011 454.971 557.361C461.254 556.711 463.854 557.578 468.62 560.611C471.653 562.561 473.82 564.727 475.77 567.977C476.636 569.71 479.019 573.394 478.803 575.127C477.069 576.427 473.82 575.343 471.653 576.427C468.837 577.727 465.37 580.543 465.804 584.009C469.92 583.793 473.82 581.41 478.153 582.06C481.403 582.71 481.186 583.576 483.352 585.526C486.169 588.126 490.285 586.393 492.452 589.642C495.268 593.542 491.152 593.759 488.335 594.625C485.086 595.492 482.486 598.309 479.886 600.258C478.153 601.342 472.52 603.075 471.653 605.025C475.553 605.891 480.753 605.458 484.652 605.025C485.302 605.025 485.952 604.808 486.386 604.808C487.252 604.375 488.119 603.942 488.985 603.725C494.618 599.825 498.951 594.842 501.985 588.993C503.718 585.093 503.068 581.193 504.368 577.51C507.618 575.343 510.434 572.743 513.25 569.927C518.883 561.261 520.617 551.728 518.233 541.329C512.601 525.513 503.068 531.146 490.935 532.879C487.685 525.947 492.452 522.263 487.035 514.031C483.352 508.398 477.069 502.115 470.353 500.165C466.67 499.082 463.42 499.948 460.604 501.681C461.254 502.115 461.687 502.331 462.337 502.765C466.237 504.931 470.787 507.314 472.086 511.431Z" fill="#457FA4"/>
<path d="M131.508 431.486C131.508 431.919 131.508 432.136 131.508 432.569C131.725 432.136 131.725 431.702 131.508 431.486Z" fill="#FAAB41"/>
<path d="M83.6279 364.107C84.2779 366.273 84.2779 371.256 86.2278 372.123C89.9109 373.856 91.8608 369.523 93.1607 375.373C93.594 377.539 91.8608 387.939 94.4606 388.805C97.927 390.105 97.7104 384.472 98.1437 382.739C99.0103 379.056 102.693 376.023 106.81 376.673C110.71 377.323 111.143 381.872 111.36 385.122C113.093 385.556 114.609 382.522 116.343 381.872C119.376 380.789 122.842 381.222 124.792 383.606C126.309 385.339 127.608 390.105 127.825 392.272C128.042 394.005 127.392 395.305 128.475 397.038C125.442 398.338 121.542 396.605 118.292 398.121C115.043 399.638 111.36 402.888 108.976 405.921C107.676 407.437 106.81 412.204 105.077 413.287C102.91 414.587 100.31 413.287 97.927 414.587C93.8106 416.97 92.0774 426.286 92.0774 430.619C96.8438 430.186 101.177 424.553 105.51 423.036C110.71 421.087 109.41 423.686 112.009 427.153C117.642 427.37 121.326 419.787 125.875 426.503C126.309 427.37 126.309 428.236 127.175 428.886C127.825 429.536 128.692 429.319 129.342 429.753C130.208 430.403 130.858 430.836 131.292 431.703C130.858 428.019 126.959 424.12 124.142 422.17C121.759 420.653 118.726 420.003 115.909 419.787C116.126 416.97 113.309 414.154 110.71 417.187C112.226 414.587 115.693 411.987 118.509 410.904C119.809 410.471 121.759 410.037 123.059 410.687C123.709 411.121 124.359 412.637 125.225 412.854C126.525 413.07 128.042 411.554 128.908 410.904C131.075 409.604 133.675 408.521 136.275 408.304C138.658 408.087 141.258 408.304 143.424 409.604C144.941 410.687 145.807 412.637 147.324 413.72C149.274 414.804 151.657 413.937 153.823 413.07C156.857 411.987 157.073 409.821 154.907 407.221C152.74 404.621 149.274 403.538 146.024 403.538C143.857 403.538 140.174 404.404 138.441 403.321C137.358 398.555 142.991 395.522 145.807 392.705C148.19 390.322 154.473 384.039 152.09 380.356C150.574 377.973 146.891 377.973 149.707 373.856C151.44 371.256 153.607 373.423 156.207 372.34C155.99 365.623 133.675 369.523 130.208 371.04C128.692 369.957 128.475 366.707 127.392 364.974C125.659 362.157 123.709 361.724 120.459 361.724C115.476 361.724 111.143 363.674 105.943 363.024C107.026 358.257 114.826 353.708 119.376 353.274C126.525 352.408 127.392 358.257 132.591 360.64C136.275 362.374 143.207 360.207 147.107 360.424C149.274 360.64 156.64 361.29 156.207 364.974C156.423 359.774 166.823 359.341 169.639 362.59C170.939 364.107 170.506 364.973 169.206 366.273C168.556 366.923 167.473 366.707 167.039 367.573C166.606 368.44 167.039 369.74 166.823 370.606C166.389 372.34 164.439 374.94 164.656 376.673C164.873 378.406 165.956 378.623 167.039 380.139C168.772 382.522 167.906 383.172 165.956 384.906C162.49 387.939 160.756 391.405 160.106 396.172C165.739 396.388 170.289 390.105 176.789 391.405C180.038 392.055 181.122 395.088 183.938 396.172C187.621 397.471 191.304 395.088 194.987 397.038C197.371 398.338 200.404 401.588 201.487 404.188C198.021 405.704 194.338 404.621 190.654 406.354C186.321 408.304 186.321 409.821 183.722 412.854C179.172 418.053 174.189 420.87 174.189 428.669C176.355 427.37 177.872 425.42 178.955 422.82C181.555 418.92 185.238 416.754 189.788 416.32C193.904 415.887 197.804 416.537 201.487 417.837C203.87 418.92 205.82 420.437 207.337 422.17C209.72 422.17 211.67 421.52 213.62 420.003C218.169 418.487 222.069 419.353 225.752 422.387C227.702 423.686 235.502 429.103 236.585 431.703C230.085 432.569 224.669 431.269 218.386 433.869C214.92 434.736 212.32 436.686 210.153 439.719C209.287 441.452 209.503 442.319 210.803 442.535C208.42 442.102 203.437 446.435 202.354 447.085C197.371 450.551 199.104 447.302 192.821 446.435C175.272 444.268 166.389 459.434 164.006 474.167C167.473 469.617 170.722 462.684 176.139 460.734C180.905 459.001 185.021 458.567 187.621 463.767C188.488 463.551 189.138 462.901 189.571 462.034C191.088 459.867 193.254 458.568 195.854 457.918C198.887 456.834 201.92 456.834 204.52 458.134C206.253 458.351 207.553 459.218 208.637 460.301C211.236 460.301 211.02 458.351 214.486 459.434C219.686 460.951 223.152 465.717 226.835 469.183C229.435 468.317 227.919 459.434 226.835 457.484C224.452 453.584 221.202 453.368 216.869 453.151C222.286 450.335 230.519 447.518 236.585 449.685C239.185 451.201 241.785 452.501 244.384 454.018C246.551 456.401 248.717 458.784 250.884 461.167C255.217 464.634 254.567 462.467 260.417 463.334C265.616 464.201 268.433 466.8 270.383 471.783C272.549 470.267 274.499 468.534 276.232 466.584C280.349 463.551 284.682 463.334 288.798 465.284C296.598 467.45 304.181 471.783 310.897 476.116C304.83 476.333 300.281 475.033 294.431 478.066C289.665 480.666 285.765 484.349 282.732 488.899C282.949 490.632 282.299 491.499 281.215 491.715C279.915 492.149 278.615 492.149 277.316 491.499C272.982 491.065 268.866 491.499 264.75 492.799C260.417 494.965 257.817 498.215 256.517 502.981C255.434 504.281 255 505.798 255.217 507.098C258.683 504.498 262.367 502.548 266.266 501.031C271.033 499.082 280.999 494.965 285.548 497.565C288.148 499.082 289.448 501.031 292.481 498.432C292.481 494.532 292.265 491.499 294.648 488.249C298.764 483.049 308.73 481.749 314.796 482.183C318.696 482.399 322.813 482.833 325.846 485.216C327.146 486.299 328.662 488.682 330.612 488.466C330.829 480.883 328.446 472.65 320.646 470.05C318.046 469.184 316.963 469.4 315.23 467.45C311.547 463.551 311.98 457.268 306.78 454.234C303.097 452.068 300.064 452.285 295.948 451.851C290.965 451.201 286.848 448.601 282.082 447.735C278.182 446.868 275.366 446.435 272.766 449.685C271.899 450.768 271.466 452.068 270.383 452.935C269.083 446.218 259.767 444.918 254.35 447.085C253.484 445.135 252.4 443.185 251.101 441.452C257.383 443.402 263.666 439.719 269.949 438.635C273.416 437.986 276.882 437.552 280.565 437.769C281.865 437.769 283.165 438.202 284.465 437.552C283.598 429.969 275.366 426.503 268.866 424.77C262.8 423.036 258.033 423.903 251.967 424.77C250.667 420.87 249.151 417.62 244.818 416.32C242.651 415.887 240.268 415.67 238.101 415.237C235.718 415.67 233.335 415.67 230.952 415.02C229.435 415.237 228.569 414.37 228.352 412.854C227.052 410.254 225.752 407.437 224.236 404.838C219.253 400.505 214.053 401.371 207.987 402.671C217.303 390.539 234.418 383.822 249.151 388.805C247.201 384.472 244.818 381.222 240.701 378.839C239.185 377.973 236.801 377.106 234.852 377.323C233.985 377.756 233.335 378.189 232.468 378.839C233.118 377.973 233.768 377.539 234.852 377.323C236.152 376.456 237.668 375.806 239.185 375.373C243.734 375.156 248.284 375.156 253.05 375.373C254.134 374.723 255.434 374.073 256.517 373.423C260.2 370.39 264.533 369.307 269.299 370.39C272.983 371.473 276.666 372.123 280.565 372.123C283.382 372.773 285.765 372.123 288.148 370.39C296.814 367.573 302.014 373.206 309.813 375.806C314.147 369.957 304.614 362.59 300.281 360.424C292.698 356.524 285.115 356.957 276.666 358.474C277.749 351.541 284.248 346.775 290.965 346.341C298.764 345.908 302.664 350.024 307.43 355.224C310.68 354.791 313.497 353.058 315.663 350.241C322.596 345.475 330.395 342.875 338.845 342.225C341.878 342.008 344.911 342.225 347.728 342.658C341.661 336.592 334.512 335.292 326.279 336.375C321.079 337.025 313.28 343.308 307.864 343.092C303.964 342.875 304.181 340.058 301.147 338.542C297.248 336.592 294.431 337.892 290.531 338.975C284.032 341.142 277.965 345.041 272.116 348.941C267.783 351.758 268.649 352.624 265.4 351.324C262.367 350.024 260.417 345.258 256.95 343.525C250.451 340.058 240.268 340.925 233.985 343.958C229.219 346.125 225.752 349.374 221.636 352.191C218.603 354.357 219.903 354.358 216.219 353.708C209.07 352.408 199.754 350.241 193.471 355.874C187.838 361.074 183.288 372.99 175.272 375.59C174.189 371.473 176.139 368.657 176.789 364.757C178.739 355.007 176.572 345.258 166.173 342.442C160.106 340.925 154.257 340.925 148.407 343.308C146.891 343.958 144.941 345.475 142.991 345.041C141.041 344.391 137.358 338.975 136.275 337.892C133.675 335.509 130.642 333.126 127.175 332.476C115.909 330.309 112.443 342.442 103.993 346.341C99.0103 348.725 93.3773 344.392 87.961 345.258C83.1946 345.908 78.2116 351.108 75.1785 354.574C74.5285 355.441 73.6619 356.524 73.012 357.391C78.6449 357.607 82.1114 359.341 83.6279 364.107Z" fill="#457FA4"/>
<path d="M233.552 378.839C234.202 378.189 235.068 377.756 235.935 377.323C234.852 377.539 234.202 377.973 233.552 378.839Z" fill="#FAAB41"/>
<path d="M-85.3613 374.073C-82.7614 371.257 -76.9118 371.04 -73.4454 370.173C-70.6289 369.523 -68.029 369.523 -65.2126 369.307C-61.5295 369.09 -57.8464 368.223 -54.1633 368.007C-38.3476 367.357 -19.4988 372.34 -7.79956 383.606C2.59978 393.355 7.14949 406.788 7.58279 420.87C7.79945 428.02 7.58279 435.169 7.58279 442.319C7.58279 445.569 7.14948 447.735 6.71618 450.768C6.49953 452.285 5.63292 454.235 7.14948 455.101C8.0161 455.535 9.74931 455.101 10.6159 455.318C11.9158 455.535 13.2158 456.401 14.0824 457.051C16.8989 459.218 17.9821 460.734 18.1988 464.201C18.4154 468.317 21.0153 469.834 22.9651 473.733C25.565 479.15 26.2149 478.716 30.7646 475.25C32.9312 473.517 35.3144 471.567 37.9142 471.134C39.8641 470.7 41.8139 471.134 43.7638 471.134C48.3135 470.7 50.0467 469.184 54.8131 471.134C60.0128 473.3 65.2124 475.467 68.8955 480.016C70.4121 481.966 71.2787 486.949 74.0952 487.816C79.5115 479.8 76.695 467.884 84.7112 461.601C91.8607 455.968 104.86 454.451 113.093 457.484C117.859 459.218 122.192 460.734 125.009 465.284C126.958 468.534 127.825 472.433 129.558 475.9C131.292 479.366 134.325 480.016 134.975 483.916C135.625 486.949 135.191 490.849 134.758 494.099C134.541 495.832 133.241 498.215 133.891 499.732C135.841 499.515 137.574 497.782 139.741 498.648C142.124 499.515 143.424 504.281 144.507 506.448C145.807 509.264 146.457 510.131 149.274 510.998C152.74 511.864 155.773 512.081 158.59 514.681C163.139 519.23 162.49 525.947 162.49 531.796C162.49 535.913 163.356 541.112 161.406 544.579C165.089 545.879 175.055 542.629 174.622 549.345C178.522 550.645 178.955 548.262 181.988 551.728C183.722 553.895 186.971 555.845 187.621 558.445C188.271 561.261 187.188 561.911 190.004 563.644C193.254 565.594 195.204 564.294 198.454 562.128C203.654 558.661 210.803 554.978 217.303 555.195C224.452 555.411 224.019 562.561 227.052 567.111C231.602 562.561 233.552 553.895 241.351 555.628C242.868 556.495 244.384 557.145 245.901 557.578C246.984 558.011 248.284 558.011 249.367 557.795C252.184 558.228 252.4 559.745 254.567 561.694C257.817 564.511 261.933 562.778 264.316 566.244C265.833 568.627 266.7 572.96 267.133 575.777C267.35 577.943 265.833 579.46 266.266 581.41C269.516 582.493 272.116 579.893 274.932 579.027C280.999 576.86 286.632 582.276 290.748 586.609C295.948 592.242 296.164 597.875 296.164 605.458C296.164 611.308 296.381 617.374 292.698 622.357C295.298 621.707 296.598 620.624 298.981 622.357C300.497 623.44 301.364 625.39 302.231 626.907C303.314 626.474 304.614 625.824 305.914 625.607C308.08 625.39 310.247 626.907 312.413 626.907C315.013 619.324 331.045 621.707 336.895 622.791C345.778 624.524 354.011 630.59 353.144 640.773C353.577 635.356 338.412 633.19 335.162 634.706C330.829 636.656 331.479 638.606 327.146 636.44C323.029 634.49 319.779 635.14 315.88 637.306C314.363 638.173 314.58 637.74 313.497 639.039C312.413 640.556 313.28 642.723 310.68 643.156C308.514 640.556 303.964 640.989 300.714 640.989C297.248 640.989 294.648 640.773 293.348 644.456C286.415 636.44 277.532 633.84 267.133 636.44C265.4 636.873 253.484 639.689 252.834 642.073C261.067 639.473 266.483 631.673 275.582 630.373C279.265 629.94 282.082 630.373 285.115 631.89C279.915 629.94 274.716 628.207 269.516 626.69C274.066 620.624 278.832 619.974 285.982 621.491C283.382 616.724 288.365 614.124 290.315 610.658C293.348 605.675 289.665 601.342 285.332 598.959C281.865 597.226 277.099 596.142 273.199 597.225C268.649 598.309 266.05 603.725 264.75 607.841C263.016 604.592 261.067 600.909 258.467 598.525C255 595.276 252.834 596.359 249.367 598.959C247.851 600.042 246.334 601.125 244.818 602.209C243.518 603.292 242.001 604.158 240.268 604.808C239.185 605.892 239.185 607.625 238.751 608.925C238.751 605.025 238.101 598.959 239.835 595.492C241.784 592.026 245.684 590.726 249.151 590.293C253.267 589.643 256.3 587.909 260.417 587.909C258.9 583.793 255.217 578.81 251.101 576.86C246.551 574.91 241.351 575.993 236.585 576.643C230.085 577.51 224.452 575.993 222.719 584.226C216.653 584.226 213.62 580.11 207.553 582.926C203.004 585.093 198.454 588.776 193.471 590.076C205.17 592.676 219.253 592.026 225.752 604.158C221.636 604.592 216.436 601.775 212.536 600.692C208.42 599.175 204.304 598.742 199.97 599.175C198.671 599.825 197.371 600.475 196.071 600.909C195.637 601.342 195.204 601.559 194.771 601.992C193.471 601.775 192.171 601.775 190.871 601.775C185.888 601.992 182.855 603.942 178.522 606.325C175.705 607.841 174.839 607.408 171.589 606.325C164.873 603.725 160.106 601.775 152.957 603.075C143.207 605.025 134.325 608.925 131.292 618.674C125.875 606.108 137.791 596.792 148.84 595.926C152.957 595.709 153.39 593.326 157.723 591.376C165.956 587.909 172.889 589.643 179.172 595.276C179.388 589.643 179.605 585.526 185.238 583.143C188.055 581.843 192.821 579.46 195.854 580.327C191.088 579.027 186.971 577.727 182.205 577.727C176.355 577.727 172.022 579.243 167.256 582.493C165.089 580.977 163.789 577.51 162.056 575.344C159.24 571.877 156.207 570.144 151.874 570.361C147.974 570.577 145.374 571.227 141.258 569.711C136.058 567.761 129.775 566.244 124.575 569.494C122.409 570.794 121.109 573.61 118.942 574.694C115.043 574.694 111.359 574.477 107.46 573.61C104.21 572.96 100.743 572.527 97.2771 572.744C91.8607 572.744 87.5277 573.827 82.978 576.21C81.8947 576.86 78.4283 578.16 79.2949 579.893C83.6279 579.243 86.6611 579.243 90.9941 580.543C97.7104 582.926 103.127 587.259 108.76 591.592C109.193 590.943 90.1275 588.559 88.8276 588.343C79.9448 587.909 71.0621 587.909 62.1793 588.343C60.0128 588.343 57.8462 588.776 55.8964 589.859C49.6134 590.726 42.8972 588.559 36.3976 588.343C31.6313 587.693 27.0815 588.126 22.5318 589.643C20.582 591.159 18.6321 592.026 16.2489 592.459C16.0322 588.559 15.5989 584.01 17.1155 580.543C20.3653 572.96 28.1648 571.66 35.531 570.361C41.3806 569.494 47.0136 568.844 52.8632 569.927C58.0629 571.01 62.8293 572.744 67.8123 573.827C69.1122 571.444 69.9788 569.061 70.8454 566.461C72.5786 565.594 74.3119 564.511 76.0451 563.644C80.5948 563.644 85.3611 563.861 89.9109 564.294C91.8607 562.778 93.3773 560.828 94.6772 558.878C100.527 551.295 110.06 552.378 118.726 552.812C125.442 553.245 131.075 554.328 137.358 556.711C141.691 550.212 150.14 547.395 157.29 550.862C147.324 545.879 137.791 540.029 126.309 539.596C121.326 539.379 119.159 540.679 114.826 538.079C117.426 533.746 125.009 535.479 129.342 535.479C133.458 535.479 138.441 536.996 142.557 536.346C142.557 530.496 140.174 526.597 138.224 521.397C134.758 511.864 125.659 510.131 118.076 516.414C116.342 517.931 115.909 518.581 113.743 518.797C110.493 519.23 108.76 519.014 106.16 521.18C104.21 522.697 103.127 524.863 101.61 526.597C100.96 526.813 100.094 527.03 99.4436 527.247C97.927 529.63 97.4937 532.23 97.927 534.829C94.8939 535.479 91.8607 534.829 89.0442 532.663C84.7112 532.013 80.3781 531.363 76.0451 531.146C68.0289 529.413 60.6627 526.597 52.8632 532.013C51.3467 534.613 49.1801 536.129 46.5803 536.129C43.1138 536.779 39.6474 536.779 36.181 536.346C30.3313 537.213 24.915 539.163 19.932 542.629C18.1988 544.796 16.2489 545.662 13.8657 545.012C12.9991 535.263 16.4656 528.113 26.6482 526.163C32.9312 525.08 39.2141 527.03 45.497 526.163C47.4469 519.014 52.8632 518.797 59.5795 518.364C63.9125 518.797 68.2456 518.364 72.362 516.631C74.9618 515.981 77.345 516.414 79.5115 517.931C83.4113 519.88 88.8276 524.647 90.9941 518.147C91.4274 515.114 91.2108 512.298 90.3442 509.264C90.3442 506.881 90.3442 504.498 89.9109 502.115C84.7112 499.948 79.5115 499.732 74.3118 502.332C71.712 503.631 69.3288 507.315 66.0791 507.098C65.6457 505.148 65.6458 501.465 66.9457 499.948C68.0289 498.865 71.9287 498.865 73.4453 498.648C67.5956 497.132 58.9295 495.832 53.2965 497.132C50.2634 497.999 47.0136 498.865 43.9805 499.732C42.2472 501.248 40.514 502.548 38.3475 503.198C34.0144 503.198 34.4477 500.815 27.7315 501.898C22.3152 502.765 17.7655 506.231 12.3492 507.098C9.31601 503.198 17.5488 498.215 19.7153 497.349C23.6151 495.832 27.9482 494.749 32.0646 494.099C33.5811 494.315 35.0977 494.099 36.6143 493.665C38.5641 488.249 28.1648 487.166 24.6984 486.733C20.1487 486.299 15.8156 487.166 11.4825 488.899C10.3993 489.766 9.53267 489.549 8.88271 488.466C7.14948 486.516 4.7663 485.433 1.73317 485.216C-2.38324 484.133 -6.49964 484.133 -10.616 484.999C-15.3824 485.649 -19.7155 487.166 -24.0485 489.332C-22.0986 480.016 -11.4827 472.867 -2.59989 472.433C2.81643 472.217 6.49953 473.083 11.0492 476.117C10.8326 474.167 10.3993 471.35 9.31602 469.617C7.36614 466.584 3.46638 466.151 0.433243 465.067C-3.0332 463.767 -9.09948 461.384 -12.5659 461.817C-19.9321 462.901 -27.515 467.017 -34.4479 469.4C-37.481 470.484 -41.3807 471.134 -44.1972 472.433C-49.6135 475.25 -50.2635 483.916 -50.6968 489.116C-51.1301 494.965 -50.6968 499.732 -46.7971 504.281C-52.8633 501.898 -62.8294 498.432 -66.2958 492.799C-71.4955 484.566 -66.7291 472.867 -59.5796 467.667C-57.6297 466.367 -55.8965 465.284 -53.9466 463.984C-49.6135 459.651 -44.6305 456.618 -38.7809 455.101C-31.848 453.585 -24.9151 454.885 -18.4155 452.285C-24.0485 442.319 -40.2975 439.502 -50.4802 442.319C-56.1131 444.052 -61.5295 445.785 -66.7291 448.168C-69.7623 449.685 -72.5787 452.285 -75.6119 453.368C-77.5618 447.302 -80.5949 442.969 -78.645 435.819C-76.4785 431.703 -74.5286 427.586 -72.3621 423.47C-67.3791 418.92 -61.7461 416.537 -55.2465 416.32C-50.2635 415.67 -43.9806 413.937 -38.9976 414.371C-32.7146 415.02 -27.515 418.704 -21.0154 416.97C-21.4487 410.254 -24.6985 403.105 -28.5982 397.688C-32.2813 392.705 -38.9976 392.489 -45.0638 392.272C-54.5966 392.055 -60.8795 395.088 -68.8956 400.505C-71.4955 402.455 -74.312 404.404 -76.9118 406.354C-78.645 409.171 -81.0282 410.471 -83.8447 410.254C-84.928 404.405 -85.1446 398.555 -84.928 392.489C-84.928 389.889 -84.4946 386.639 -85.1446 384.039C-86.4445 380.139 -89.6943 377.973 -85.3613 374.073Z" fill="#457FA4"/>
<path d="M-84.2779 569.277C-83.8446 567.111 -79.0782 563.428 -77.1284 562.344C-71.4954 559.094 -62.1793 560.828 -56.113 560.828C-53.2966 560.828 -50.0468 560.394 -47.4469 561.478C-44.6305 562.561 -42.0306 565.811 -40.0807 568.194C-38.1309 570.577 -37.0476 573.61 -36.6143 576.643C-36.181 578.81 -37.0476 581.193 -36.3976 583.36C-32.4979 583.576 -31.198 588.559 -29.8981 591.592C-28.3815 595.276 -28.8148 596.575 -24.6984 596.575C-23.6151 596.575 -22.0986 597.009 -21.0153 596.575C-19.7154 596.142 -19.7154 595.059 -18.8488 594.409C-16.6822 592.892 -13.4324 592.242 -11.0493 593.542C-6.28291 596.359 -3.24977 602.425 2.81651 602.425C5.633 602.425 9.53275 601.775 12.1326 602.642C14.2991 603.292 14.9491 605.025 16.6823 606.325C20.1487 608.708 25.5651 606.108 29.2482 605.892C33.7979 605.675 40.2974 605.025 44.4138 607.191C49.8302 610.225 53.7299 616.724 54.1632 622.79C54.3799 626.257 56.3297 628.857 56.5464 632.107C56.5464 633.406 56.3298 637.09 58.9296 637.09C60.4462 637.09 61.3128 634.273 62.1794 633.623C64.1293 631.89 65.2125 632.323 67.5957 632.107C71.0621 632.107 72.5787 631.24 74.0953 634.49C75.1786 636.873 75.3952 639.473 76.6951 641.639C74.9619 641.639 74.0953 640.123 72.3621 639.689C70.4122 639.039 68.4623 639.473 66.7291 640.123C63.9126 641.206 61.0961 643.372 61.0961 646.406C56.7631 646.622 45.7138 639.906 45.7138 648.789C42.6806 649.439 27.9482 646.406 27.9482 652.255C29.8981 649.872 29.8981 646.406 31.6313 643.806C34.2312 639.689 39.2142 637.523 43.9805 637.09C47.2303 636.873 47.8803 637.306 49.3969 634.056C50.0468 632.756 50.9134 628.857 52.8633 630.373C50.6968 626.907 48.3136 623.657 45.2805 620.841C42.6806 618.457 42.2473 619.324 38.9975 619.974C34.0145 620.841 28.3815 616.508 23.8318 618.457C21.232 619.541 21.6653 620.407 20.582 623.007C19.4988 625.39 19.7154 625.824 16.8989 626.257C13.8658 626.69 14.2991 626.257 12.1326 628.423C10.1827 630.373 8.88279 631.673 6.49961 629.94C4.33308 628.423 4.54974 625.39 2.59986 623.657C0.649986 621.924 -3.24976 622.14 -5.4163 622.357C-14.0824 623.44 -21.6653 628.857 -30.3314 630.373C-31.4146 625.824 -26.8649 620.624 -23.1818 618.674C-19.7154 616.941 -16.0323 616.291 -12.1325 616.507C-10.616 616.941 -9.31604 616.941 -7.79947 616.507C-6.93286 609.358 2.38321 614.991 6.49961 615.858C2.81651 612.391 -3.24976 609.141 -7.58282 607.408C-10.8326 606.325 -19.2821 603.508 -23.1818 605.675C-24.915 606.541 -25.3484 608.708 -27.2982 609.358C-29.6814 610.008 -32.0646 608.275 -34.6644 608.275C-35.9643 607.841 -37.2643 608.058 -38.3475 608.708C-38.5642 609.358 -38.7808 609.791 -39.2141 610.441C-40.514 611.525 -40.2974 612.391 -42.4639 611.958C-47.4469 611.091 -43.7638 602.858 -40.0807 601.992C-41.814 592.459 -56.9797 593.976 -63.6959 593.759C-66.2957 593.759 -68.4623 593.759 -70.8454 594.409C-74.7452 595.709 -77.5617 600.042 -81.4614 600.909C-84.2779 601.342 -84.2779 599.609 -85.3612 597.442C-87.961 592.026 -90.9941 588.776 -88.8276 582.71C-88.1777 581.193 -87.0944 579.46 -86.6611 577.727C-86.0111 575.993 -86.8777 574.044 -84.2779 569.277Z" fill="#D1BDF0"/>
<path d="M1883.8 277.879C1876 270.73 1859.1 263.147 1848.7 267.913C1844.8 269.647 1840.03 275.28 1837.65 278.746C1835.27 281.996 1835.27 284.379 1834.62 288.062C1831.15 287.629 1828.12 284.812 1824.43 287.196C1819.88 290.012 1817.07 300.195 1817.28 304.961C1817.5 312.111 1823.78 314.494 1825.95 320.127C1827.03 322.943 1826.6 329.01 1825.95 331.826C1821.83 331.609 1817.28 328.36 1812.95 327.493C1807.1 326.193 1799.52 325.543 1794.97 330.526C1793.45 332.043 1791.94 334.859 1791.5 337.026C1791.29 338.326 1791.94 340.709 1791.29 341.575C1789.55 344.175 1783.49 340.709 1780.89 340.492C1770.27 340.275 1765.72 352.191 1767.89 360.857C1769.19 366.057 1767.02 373.64 1771.57 377.54C1766.37 376.673 1754.02 377.323 1752.94 384.039C1753.8 377.106 1750.55 367.14 1746.01 362.157C1742.97 358.691 1738.21 353.925 1733.44 353.058C1728.24 352.191 1722.82 356.524 1717.84 354.141C1709.61 350.458 1706.14 338.542 1695.31 340.492C1691.84 341.142 1688.81 343.309 1686.43 345.692C1685.34 346.558 1681.66 351.975 1679.71 352.625C1677.98 353.275 1676.03 351.541 1674.51 350.891C1668.66 348.508 1663.03 348.508 1657.18 350.025C1646.99 352.625 1644.83 362.157 1646.78 371.69C1647.43 375.373 1649.38 378.19 1648.29 382.306C1640.5 379.923 1635.95 368.224 1630.53 363.024C1624.46 357.391 1615.36 359.558 1608.43 360.857C1604.96 361.507 1606.26 361.507 1603.23 359.341C1599.11 356.524 1595.86 353.275 1591.1 351.325C1584.82 348.508 1575.07 347.425 1568.57 350.891C1565.32 352.625 1563.37 357.391 1560.33 358.691C1557.08 359.991 1557.95 359.124 1553.83 356.308C1548.2 352.625 1542.35 348.725 1535.85 346.558C1532.17 345.475 1529.35 344.175 1525.45 346.125C1522.42 347.642 1522.64 350.242 1518.95 350.458C1513.54 350.891 1505.95 344.609 1500.97 343.959C1492.95 342.875 1486.02 344.175 1479.96 350.025C1472.16 357.608 1471.07 367.79 1470.21 378.19C1458.72 379.273 1453.31 390.756 1454.39 401.155C1454.82 405.921 1456.34 409.821 1459.81 412.854C1462.19 415.021 1465.22 416.321 1466.96 419.137C1469.56 423.47 1468.47 427.803 1472.59 431.486C1476.49 434.953 1481.04 438.636 1483.86 443.402C1481.91 447.302 1474.11 445.569 1471.07 450.552C1468.47 455.102 1468.69 468.317 1473.24 471.784C1467.61 467.884 1457.42 474.6 1456.99 480.45C1455.69 491.932 1463.27 502.332 1461.11 514.031C1456.12 513.814 1451.36 510.781 1446.16 509.915C1440.52 509.048 1434.67 510.565 1429.04 509.481C1424.71 508.615 1422.11 506.881 1417.56 508.181C1413.66 508.615 1411.06 510.998 1409.54 514.898C1409.54 518.364 1408.24 520.747 1405.43 522.047C1402.18 519.014 1393.08 508.615 1388.53 508.181C1382.24 507.748 1381.38 514.898 1379.65 519.447C1376.61 512.081 1370.33 501.465 1360.36 504.282C1353.86 506.015 1347.58 512.298 1344.11 517.931C1338.91 525.947 1343.46 529.413 1340.21 536.346C1328.3 534.83 1318.98 529.197 1313.35 544.796C1310.97 554.978 1312.7 564.295 1318.12 572.744C1320.72 575.56 1323.53 577.944 1326.78 580.11C1328.08 583.577 1327.43 587.476 1329.17 591.159C1332.2 597.009 1336.53 601.775 1341.95 605.675C1344.76 606.758 1347.36 608.275 1349.31 610.442C1340.21 616.291 1330.9 615.208 1320.5 616.508C1316.6 616.941 1314.43 616.941 1312.05 620.191C1310.1 622.574 1310.75 626.907 1307.72 628.207C1299.48 618.024 1281.28 590.509 1266.99 604.592C1262.22 597.009 1260.7 586.61 1249.44 585.31C1238.39 584.01 1233.84 593.759 1228.85 601.342C1216.94 598.092 1201.99 585.093 1190.72 597.442C1182.92 606.108 1185.31 630.157 1195.92 636.223C1192.89 638.606 1189.21 635.573 1185.96 640.34C1181.84 646.406 1184.44 653.122 1188.34 658.322C1182.92 659.622 1168.19 652.472 1164.29 652.039C1156.28 651.172 1148.26 649.872 1146.31 659.405C1141.54 658.755 1138.29 653.772 1133.74 651.606C1128.54 649.006 1123.78 649.006 1118.58 652.039C1115.76 653.772 1113.16 657.022 1110.13 658.105C1106.23 659.622 1101.25 657.672 1097.13 657.455C1091.28 657.239 1085.86 659.838 1080.45 662.222C1077.2 663.521 1073.3 664.605 1070.91 666.988C1067.23 666.988 1060.73 671.104 1058.13 672.838C1055.32 674.354 1052.72 674.787 1050.55 677.604C1047.95 680.854 1048.6 683.02 1052.07 685.187C1055.75 687.353 1055.75 686.053 1059 684.104C1063.33 681.72 1073.51 681.937 1078.71 683.237C1085.43 684.97 1092.58 684.537 1099.73 684.537C1103.2 684.537 1106.66 684.537 1110.13 684.537C1114.03 684.537 1115.33 684.537 1118.36 682.804C1120.96 681.287 1119.23 680.42 1123.56 681.287C1125.29 681.72 1127.46 683.454 1128.98 684.104C1133.53 686.27 1138.08 686.703 1143.28 686.27C1148.69 685.837 1153.89 683.67 1159.09 682.154C1164.08 680.854 1168.41 680.854 1173.39 680.854C1177.51 680.854 1182.49 681.72 1186.61 680.854C1193.11 679.77 1198.52 678.471 1205.46 679.121C1213.26 679.987 1220.84 683.02 1228.85 683.887C1234.7 684.537 1240.55 684.754 1246.62 685.62C1249.87 686.053 1253.34 686.487 1256.59 685.837C1265.04 684.103 1270.89 680.637 1279.55 680.854C1292.55 681.07 1305.33 682.804 1318.33 682.587C1331.55 682.587 1344.98 682.587 1358.2 682.587C1370.33 682.587 1382.24 680.637 1394.38 680.854C1422.54 681.07 1450.49 681.07 1478.66 680.854C1491 680.854 1503.14 682.37 1515.49 682.804C1526.75 683.237 1538.02 682.587 1549.28 682.804C1553.18 682.804 1556.87 683.454 1560.55 682.154C1563.58 681.07 1565.97 678.471 1569.22 677.821C1577.02 675.871 1585.68 677.821 1592.61 681.07C1597.6 683.454 1603.45 686.92 1607.78 682.587C1612.76 677.604 1616.23 677.387 1623.6 676.304C1631.18 675.221 1639.63 674.787 1647.21 674.137C1657.83 673.271 1668.01 672.404 1678.63 672.404C1688.16 672.404 1698.99 670.888 1708.31 672.838C1715.89 674.354 1722.61 673.488 1730.19 674.137C1737.99 674.787 1745.14 677.821 1753.15 677.821C1762.69 677.604 1770.49 679.121 1779.8 681.287C1790.64 683.887 1801.47 682.804 1812.52 682.804C1820.75 682.804 1827.9 685.187 1835.7 686.27C1843.28 687.137 1850.43 686.27 1858.01 685.187C1877.51 682.804 1897.45 678.254 1916.94 683.02L1883.8 277.879Z" fill="#285D7E"/>
<path d="M1249.44 590.076C1244.67 591.376 1239.69 597.442 1238.82 602.209C1238.6 603.509 1237.09 607.625 1237.74 608.492C1238.82 609.575 1242.94 608.275 1244.45 608.925C1247.7 610.008 1252.25 614.341 1253.99 617.158C1254.85 618.891 1256.8 624.524 1256.15 626.257C1254.64 625.824 1252.69 623.224 1251.17 622.141C1248.14 620.191 1245.32 618.458 1241.85 617.591C1240.34 617.158 1234.05 614.774 1232.75 615.858C1231.45 616.941 1231.89 618.891 1231.67 620.407C1229.94 620.624 1229.72 618.891 1228.42 618.024C1226.69 616.724 1224.96 616.724 1222.79 616.941C1220.41 617.158 1216.72 620.191 1214.34 619.324C1214.34 617.591 1216.51 616.074 1217.59 614.774C1218.67 613.258 1219.32 611.308 1220.84 610.008C1221.71 609.358 1222.36 609.141 1223.01 609.358C1223.66 609.575 1224.31 609.791 1224.96 610.008C1225.39 610.225 1226.04 610.225 1226.69 610.225C1226.04 610.225 1225.39 610.225 1224.96 610.008C1224.31 609.791 1223.66 609.575 1223.01 609.358C1221.49 608.708 1219.76 608.058 1218.46 607.842C1213.26 606.542 1206.32 605.025 1201.77 608.708C1198.74 611.091 1197.01 614.558 1197.01 618.458C1197.01 619.757 1196.57 621.924 1197.22 623.224C1198.09 624.524 1200.47 626.04 1201.77 626.907C1206.32 630.59 1212.17 632.757 1215.42 637.956C1213.69 641.206 1208.92 637.74 1206.32 637.306C1202.42 636.44 1198.52 636.006 1194.41 635.79C1185.31 628.207 1183.57 606.325 1190.94 598.092C1202.21 585.743 1217.16 598.525 1229.07 601.992C1233.84 594.409 1238.6 584.876 1249.65 585.96C1253.77 586.393 1256.59 588.126 1258.75 590.509C1255.5 589.426 1252.04 589.426 1249.44 590.076Z" fill="#457FA4"/>
<path d="M1224.96 609.575C1225.61 609.792 1226.25 609.792 1226.69 609.792C1226.04 609.792 1225.39 609.792 1224.96 609.575Z" fill="#FAAB41"/>
<path d="M1222.79 608.925C1223.44 608.925 1224.09 609.358 1224.74 609.575C1224.31 609.358 1223.44 609.141 1222.79 608.925Z" fill="#FAAB41"/>
<path d="M1358.85 515.331C1358.2 517.714 1359.5 521.181 1358.41 523.347C1356.25 527.03 1349.31 526.597 1346.28 529.847C1344.55 531.797 1343.9 536.563 1344.55 539.163C1345.63 543.279 1349.31 539.596 1351.48 537.863C1355.6 534.613 1359.5 534.613 1364.48 536.13C1366.65 536.78 1375.31 542.413 1376.61 541.763C1384.63 545.879 1390.04 549.562 1393.51 558.012C1394.16 559.961 1394.16 565.811 1396.76 566.028C1396.98 565.378 1396.98 564.728 1397.19 564.078C1400.01 562.995 1404.34 563.861 1407.59 563.861C1412.36 563.861 1417.78 563.428 1420.38 567.978C1421.24 569.278 1421.46 570.361 1422.76 571.661C1424.06 573.177 1425.36 574.477 1426.44 576.21C1422.54 571.444 1415.39 569.061 1409.76 571.877C1407.81 572.961 1405.86 574.261 1403.91 575.344C1402.18 576.427 1400.23 578.377 1398.49 578.81C1395.46 570.361 1382.46 578.594 1378.35 582.06C1378.56 578.81 1382.03 575.777 1383.98 573.611C1385.93 571.444 1387.23 571.227 1390.04 572.527C1390.48 570.577 1387.01 567.328 1385.93 565.811C1382.68 561.911 1379.86 560.178 1374.88 559.528C1368.81 558.878 1366.21 559.745 1361.45 562.778C1358.41 564.728 1356.25 566.894 1354.51 569.927C1353.65 571.661 1351.26 575.127 1351.7 577.077C1353.43 578.377 1356.68 577.294 1358.85 578.377C1361.66 579.46 1364.91 582.493 1364.7 585.743C1360.58 585.526 1356.9 583.143 1352.56 584.01C1349.53 584.66 1349.53 585.526 1347.58 587.476C1344.98 590.076 1340.86 588.343 1338.48 591.593C1335.88 595.276 1339.78 595.493 1342.38 596.359C1345.63 597.226 1348.01 600.042 1350.61 601.775C1352.35 602.859 1357.76 604.592 1358.63 606.542C1354.73 607.408 1349.75 606.975 1345.85 606.542C1345.2 606.542 1344.76 606.325 1344.11 606.325C1343.25 605.892 1342.6 605.459 1341.73 605.242C1336.31 601.342 1331.98 596.576 1328.95 590.726C1327.22 587.043 1327.87 583.143 1326.57 579.677C1323.53 577.51 1320.5 575.127 1317.9 572.311C1312.27 563.861 1310.75 554.328 1313.13 544.362C1318.55 528.98 1328.08 534.396 1340 535.913C1343.03 529.197 1338.48 525.514 1343.9 517.498C1347.58 512.081 1353.65 505.798 1360.15 503.848C1363.83 502.765 1367.08 503.632 1369.68 505.365C1369.03 505.798 1368.6 506.015 1367.95 506.232C1364.48 509.048 1359.93 511.431 1358.85 515.331Z" fill="#457FA4"/>
<path d="M1738.42 371.257C1737.77 373.207 1737.77 378.406 1736.04 379.273C1732.36 381.006 1730.41 376.673 1729.11 382.523C1728.67 384.689 1730.41 394.655 1727.81 395.739C1724.56 396.822 1724.77 391.405 1724.34 389.889C1723.47 386.206 1719.79 383.173 1715.89 384.039C1712.21 384.689 1711.77 389.022 1711.34 392.272C1709.61 392.705 1708.09 389.672 1706.36 389.022C1703.32 387.939 1700.07 388.372 1697.91 390.756C1696.61 392.489 1695.09 397.038 1695.09 399.205C1694.88 400.938 1695.53 402.238 1694.44 403.971C1697.47 405.055 1701.16 403.538 1704.41 405.055C1707.66 406.571 1711.34 409.604 1713.51 412.637C1714.59 414.154 1715.67 418.704 1717.41 420.004C1719.36 421.304 1722.17 420.004 1724.34 421.304C1728.46 423.687 1729.97 432.786 1730.19 436.903C1725.42 436.469 1721.31 431.053 1716.97 429.32C1711.77 427.37 1713.07 429.97 1710.47 433.219C1705.06 433.436 1701.37 426.07 1696.83 432.569C1696.39 433.436 1696.39 434.303 1695.53 434.736C1694.88 435.386 1694.01 435.169 1693.36 435.603C1692.49 436.036 1691.84 436.686 1691.63 437.553C1692.06 434.086 1695.74 430.186 1698.56 428.236C1700.94 426.72 1703.76 426.07 1706.57 425.853C1706.36 423.037 1709.17 420.437 1711.56 423.253C1710.04 420.654 1706.79 418.054 1703.97 416.971C1702.67 416.537 1700.94 416.104 1699.42 416.754C1698.77 417.187 1698.13 418.704 1697.26 418.92C1695.96 419.137 1694.66 417.62 1693.58 416.971C1691.41 415.671 1688.81 414.587 1686.43 414.371C1684.04 414.154 1681.44 414.371 1679.49 415.671C1677.98 416.754 1677.11 418.704 1675.59 419.57C1673.64 420.654 1671.26 419.787 1669.31 419.137C1666.28 418.054 1666.06 416.104 1668.23 413.287C1670.39 410.688 1673.64 409.821 1676.89 409.604C1679.06 409.604 1682.53 410.471 1684.48 409.388C1685.56 404.621 1679.93 401.805 1677.11 398.988C1674.73 396.605 1668.66 390.539 1671.04 387.072C1672.56 384.689 1676.03 384.906 1673.43 380.789C1671.69 378.19 1669.53 380.356 1667.14 379.273C1667.36 372.557 1689.24 376.456 1692.49 377.973C1694.01 376.89 1694.23 373.64 1695.31 372.123C1697.04 369.307 1698.99 368.874 1702.02 368.874C1706.79 368.874 1711.34 370.823 1716.32 370.173C1715.24 365.407 1707.66 361.074 1703.32 360.641C1696.39 359.991 1695.53 365.407 1690.33 367.79C1686.86 369.524 1679.93 367.357 1676.24 367.574C1674.08 367.79 1666.93 368.44 1667.36 372.123C1667.14 367.14 1656.96 366.49 1654.14 369.74C1652.84 371.04 1653.28 371.907 1654.58 373.207C1655.23 373.857 1656.31 373.64 1656.74 374.507C1657.18 375.373 1656.74 376.456 1656.96 377.54C1657.39 379.273 1659.34 381.656 1659.13 383.389C1658.91 385.123 1657.83 385.339 1656.74 386.856C1655.01 389.239 1655.88 389.889 1657.83 391.622C1661.29 394.655 1662.81 398.122 1663.68 402.455C1658.04 402.671 1653.71 396.605 1647.43 397.905C1644.4 398.555 1643.31 401.588 1640.28 402.455C1636.6 403.755 1633.13 401.371 1629.45 403.321C1627.06 404.621 1624.03 407.871 1623.16 410.254C1626.41 411.771 1630.1 410.688 1633.78 412.204C1637.9 414.154 1638.11 415.671 1640.5 418.487C1644.83 423.687 1649.81 426.287 1649.81 434.086C1647.64 432.786 1646.13 430.836 1645.05 428.453C1642.45 424.77 1638.98 422.603 1634.43 421.954C1630.53 421.52 1626.63 422.17 1622.95 423.47C1620.78 424.553 1618.83 425.853 1617.31 427.803C1615.15 427.803 1612.98 427.153 1611.25 425.637C1606.91 424.12 1603.01 424.987 1599.33 428.02C1597.38 429.32 1589.8 434.519 1588.72 437.119C1595 437.986 1600.41 436.686 1606.48 439.286C1609.95 440.152 1612.55 442.102 1614.5 445.135C1615.36 446.869 1615.15 447.735 1613.85 447.952C1616.01 447.519 1621 451.852 1622.08 452.502C1627.06 455.968 1625.33 452.718 1631.4 451.852C1648.51 449.685 1657.18 464.634 1659.56 478.933C1656.31 474.6 1653.06 467.667 1647.64 465.717C1643.1 463.984 1638.98 463.551 1636.6 468.534C1635.73 468.317 1635.08 467.884 1634.65 466.801C1633.13 464.851 1630.96 463.334 1628.36 462.684C1625.33 461.601 1622.51 461.601 1619.7 462.901C1618.18 463.118 1616.66 463.767 1615.58 465.067C1613.2 465.067 1613.2 463.118 1609.95 464.201C1604.96 465.717 1601.5 470.267 1598.03 473.734C1595.43 472.867 1596.95 464.201 1598.03 462.251C1600.41 458.351 1603.45 458.135 1607.78 458.135C1602.36 455.535 1594.56 452.502 1588.5 454.668C1585.9 455.968 1583.52 457.485 1580.92 458.784C1578.75 461.168 1576.58 463.334 1574.63 465.717C1570.52 468.967 1570.95 467.017 1565.32 467.884C1560.12 468.751 1557.52 471.35 1555.57 476.117C1553.4 474.6 1551.45 472.867 1549.72 470.917C1545.6 468.101 1541.48 467.667 1537.37 469.834C1529.79 472 1522.42 476.117 1515.7 480.45C1521.55 480.666 1526.1 479.583 1531.74 482.4C1536.29 484.999 1540.19 488.466 1543 493.016C1542.78 494.749 1543.22 495.615 1544.52 495.832C1545.82 496.265 1547.12 496.265 1548.42 495.615C1552.53 495.182 1556.65 495.615 1560.77 496.915C1564.88 499.082 1567.7 502.332 1568.78 506.881C1569.87 508.181 1570.08 509.481 1570.08 510.998C1566.83 508.398 1563.15 506.665 1559.25 504.932C1554.48 502.982 1544.95 498.865 1540.4 501.682C1537.8 503.198 1536.5 505.148 1533.47 502.548C1533.47 498.649 1533.69 495.615 1531.3 492.582C1527.4 487.599 1517.44 486.083 1511.59 486.733C1507.9 486.949 1503.79 487.383 1500.75 489.766C1499.45 490.632 1497.94 493.232 1495.99 493.016C1495.77 485.649 1498.15 477.417 1505.74 475.033C1508.34 474.167 1509.2 474.383 1511.15 472.434C1514.84 468.75 1514.4 462.468 1519.39 459.651C1523.07 457.485 1526.1 457.701 1530 457.268C1534.77 456.618 1538.89 454.235 1543.65 453.151C1547.33 452.285 1550.15 451.852 1552.75 454.885C1553.62 455.968 1554.05 457.268 1555.13 458.135C1556.22 451.635 1565.53 450.335 1570.73 452.502C1571.6 450.552 1572.68 448.602 1573.98 447.085C1567.7 448.818 1561.63 445.352 1555.57 444.269C1552.1 443.619 1548.63 443.185 1545.17 443.402C1543.87 443.402 1542.57 443.835 1541.49 443.185C1542.35 435.819 1550.37 432.569 1556.87 430.62C1562.93 428.886 1567.48 429.753 1573.33 430.62C1574.63 426.937 1576.15 423.687 1580.48 422.387C1582.65 421.954 1584.82 421.737 1586.98 421.304C1589.37 421.737 1591.75 421.737 1593.92 421.087C1595.43 421.304 1596.3 420.437 1596.3 418.92C1597.6 416.321 1598.9 413.721 1600.2 411.121C1605.18 406.788 1609.95 407.654 1616.01 408.954C1606.91 397.255 1590.23 390.539 1575.72 395.522C1577.45 391.405 1580.05 388.156 1583.95 385.772C1585.47 384.906 1587.85 384.039 1589.8 384.473C1590.67 384.906 1591.32 385.339 1591.97 385.989C1591.32 385.123 1590.67 384.689 1589.8 384.473C1588.5 383.606 1587.2 382.956 1585.68 382.739C1581.13 382.523 1576.8 382.523 1572.25 382.739C1571.17 382.089 1570.08 381.439 1568.78 380.789C1565.1 377.756 1560.98 376.673 1556.22 377.756C1552.53 378.84 1548.85 379.49 1545.17 379.49C1542.57 380.139 1540.19 379.49 1537.8 377.756C1529.35 374.94 1524.15 380.356 1516.79 382.956C1512.45 377.323 1521.99 369.957 1526.1 367.79C1533.47 363.891 1541.05 364.324 1549.07 365.84C1548.2 359.124 1541.7 354.358 1535.2 354.141C1527.62 353.708 1523.72 357.824 1519.17 362.807C1515.92 362.374 1513.1 360.857 1511.15 358.041C1504.44 353.491 1496.85 350.675 1488.62 350.241C1485.81 350.025 1482.77 350.241 1479.96 350.675C1486.02 344.825 1492.74 343.525 1500.97 344.608C1506.17 345.258 1513.75 351.541 1518.95 351.108C1522.64 350.891 1522.64 348.075 1525.45 346.775C1529.14 345.042 1532.17 346.125 1535.85 347.208C1542.35 349.158 1548.2 353.058 1553.83 356.958C1557.95 359.774 1557.3 360.641 1560.33 359.341C1563.37 358.041 1565.32 353.275 1568.57 351.541C1575.07 348.075 1584.82 348.942 1591.1 351.975C1595.86 354.141 1599.11 357.174 1603.23 359.991C1606.26 362.157 1604.96 362.157 1608.43 361.507C1615.58 360.207 1624.68 358.041 1630.53 363.674C1635.95 368.874 1640.5 380.356 1648.29 382.956C1649.38 378.84 1647.64 376.24 1646.78 372.34C1644.83 362.807 1646.99 353.275 1657.18 350.675C1663.03 349.158 1668.88 349.158 1674.51 351.541C1676.03 352.191 1677.98 353.708 1679.71 353.275C1681.66 352.625 1685.34 347.425 1686.43 346.342C1688.81 343.959 1691.84 341.792 1695.31 341.142C1706.36 339.192 1709.61 350.891 1717.84 354.791C1722.82 356.958 1728.24 352.841 1733.44 353.708C1738.21 354.358 1742.97 359.341 1746.01 362.807C1746.66 363.674 1747.52 364.541 1748.17 365.624C1743.41 364.974 1739.94 366.707 1738.42 371.257Z" fill="#457FA4"/>
<path d="M1591.96 385.772C1591.31 385.122 1590.45 384.689 1589.8 384.256C1590.66 384.473 1591.31 384.906 1591.96 385.772Z" fill="#FAAB41"/>
<path d="M1903.73 381.006C1901.13 378.19 1895.5 377.973 1892.03 377.106C1889.21 376.456 1886.83 376.456 1884.01 376.24C1880.33 376.24 1876.86 375.156 1873.18 374.94C1857.58 374.29 1839.38 379.273 1827.9 390.105C1817.72 399.638 1813.17 412.854 1812.73 426.503C1812.52 433.436 1812.73 440.369 1812.73 447.518C1812.73 450.552 1813.17 452.935 1813.6 455.751C1813.82 457.268 1814.47 459.001 1813.17 460.084C1812.3 460.518 1810.57 460.084 1809.7 460.301C1808.4 460.518 1807.1 461.384 1806.23 462.034C1803.42 464.201 1802.33 465.501 1802.12 468.967C1801.9 473.084 1799.3 474.383 1797.57 478.283C1794.97 483.483 1794.32 483.266 1789.99 479.8C1788.04 478.283 1785.65 476.333 1783.05 475.683C1781.1 475.25 1779.15 475.683 1777.2 475.683C1772.65 475.25 1770.92 473.733 1766.37 475.683C1761.39 477.85 1756.19 479.8 1752.72 484.349C1751.2 486.299 1750.34 491.066 1747.74 491.932C1742.54 484.133 1745.14 472.434 1737.34 466.367C1730.41 460.951 1717.62 459.434 1709.61 462.251C1704.84 463.984 1700.72 465.501 1697.91 469.834C1695.96 473.084 1695.09 476.983 1693.58 480.233C1691.84 483.483 1689.03 484.133 1688.16 488.033C1687.51 491.066 1687.94 494.749 1688.38 497.999C1688.59 499.515 1689.89 501.898 1689.24 503.415C1687.29 503.198 1685.56 501.682 1683.39 502.332C1681.01 503.198 1679.71 507.748 1678.84 509.915C1677.76 512.514 1676.89 513.598 1674.08 514.464C1670.83 515.331 1667.58 515.547 1664.98 518.147C1660.43 522.48 1661.29 529.197 1661.29 534.83C1661.29 538.946 1660.43 543.929 1662.38 547.395C1658.69 548.695 1648.94 545.446 1649.38 552.162C1645.69 553.245 1645.04 551.079 1642.23 554.545C1640.5 556.712 1637.25 558.661 1636.81 561.045C1636.16 563.861 1637.25 564.511 1634.43 566.244C1631.18 568.194 1629.45 566.894 1626.2 564.728C1621.21 561.261 1614.06 557.795 1607.78 557.795C1600.85 558.011 1601.06 564.944 1598.25 569.494C1593.91 564.944 1591.96 556.495 1584.17 558.228C1582.65 559.095 1581.35 559.745 1579.62 560.178C1578.53 560.611 1577.23 560.611 1576.15 560.395C1573.55 560.828 1573.12 562.345 1571.17 564.078C1567.92 566.894 1563.8 564.944 1561.63 568.627C1560.12 571.011 1559.25 575.344 1559.03 577.944C1558.82 580.11 1560.33 581.41 1559.9 583.576C1556.87 584.66 1554.05 582.277 1551.45 581.193C1545.38 579.027 1539.97 584.443 1536.07 588.559C1530.87 593.976 1530.87 599.609 1530.87 606.975C1530.87 612.608 1530.65 618.674 1534.12 623.441C1531.52 622.791 1530.22 621.707 1528.05 623.441C1526.75 624.524 1525.67 626.474 1524.8 627.99C1523.72 627.557 1522.42 626.907 1521.12 626.907C1518.95 626.69 1517 627.99 1514.84 628.207C1512.24 620.841 1496.64 623.007 1490.79 624.307C1481.91 626.04 1474.11 631.89 1474.76 641.856C1474.32 636.44 1489.05 634.273 1492.3 636.006C1496.42 637.956 1495.99 639.906 1500.32 637.74C1504.44 635.79 1507.47 636.656 1511.15 638.606C1512.45 639.473 1512.45 639.04 1513.54 640.123C1514.62 641.639 1513.75 643.589 1516.35 644.239C1518.52 641.639 1523.07 642.289 1526.1 642.289C1529.35 642.289 1532.17 642.073 1533.25 645.539C1539.97 637.74 1548.63 635.14 1558.82 637.74C1560.55 638.173 1572.25 640.989 1572.68 643.373C1564.67 640.773 1559.47 633.19 1550.58 631.89C1547.12 631.457 1544.3 631.89 1541.27 633.407C1546.25 631.457 1551.45 629.724 1556.65 628.207C1552.1 622.357 1547.55 621.707 1540.62 623.224C1543.22 618.674 1538.23 616.074 1536.29 612.608C1533.47 607.842 1536.72 603.509 1541.27 601.125C1544.73 599.392 1549.28 598.309 1553.18 599.392C1557.52 600.475 1560.12 605.892 1561.42 609.791C1563.15 606.758 1564.88 603.075 1567.48 600.692C1570.73 597.659 1572.9 598.526 1576.58 601.125C1578.1 602.209 1579.4 603.292 1581.13 604.159C1582.43 605.242 1583.95 606.108 1585.68 606.542C1586.77 607.625 1586.77 609.358 1587.2 610.658C1587.2 606.758 1587.85 600.909 1586.12 597.442C1584.38 593.976 1580.48 592.893 1577.02 592.459C1573.12 591.809 1570.08 590.076 1565.97 590.076C1567.48 585.96 1570.95 581.193 1575.07 579.243C1579.62 577.294 1584.6 578.377 1589.15 579.027C1595.43 579.893 1601.06 578.377 1602.58 586.393C1608.43 586.393 1611.46 582.493 1617.53 585.31C1622.08 587.476 1626.41 590.943 1631.18 592.243C1619.7 594.842 1606.05 594.192 1599.55 606.108C1603.45 606.542 1608.65 603.725 1612.55 602.859C1616.45 601.559 1620.56 600.909 1624.9 601.342C1626.2 601.992 1627.5 602.425 1628.8 603.075C1629.23 603.509 1629.66 603.725 1630.1 604.159C1631.4 603.942 1632.7 603.942 1633.78 603.942C1638.55 604.158 1641.58 606.108 1645.91 608.275C1648.73 609.791 1649.59 609.358 1652.63 608.275C1659.13 605.675 1663.89 603.725 1670.83 605.242C1680.36 607.192 1689.03 610.875 1692.06 620.407C1697.26 608.275 1685.78 599.175 1674.94 598.309C1671.04 598.092 1670.39 595.709 1666.28 593.976C1658.26 590.509 1651.54 592.243 1645.26 597.876C1645.04 592.459 1644.83 588.343 1639.2 585.96C1636.38 584.66 1631.83 582.277 1628.8 583.36C1633.35 582.06 1637.46 580.977 1642.23 580.977C1647.86 580.977 1652.19 582.493 1656.74 585.743C1658.91 584.226 1660.21 580.977 1661.73 578.81C1664.33 575.344 1667.36 573.61 1671.69 573.827C1675.59 574.044 1678.19 574.694 1682.09 573.177C1687.29 571.227 1693.36 569.711 1698.34 572.961C1700.29 574.26 1701.81 576.86 1703.97 577.944C1707.66 577.944 1711.34 577.727 1715.02 577.077C1718.27 576.427 1721.52 576.21 1724.99 576.21C1730.19 576.21 1734.52 577.294 1739.07 579.677C1740.16 580.327 1743.62 581.41 1742.76 583.36C1738.64 582.71 1735.39 582.71 1731.49 584.01C1724.99 586.176 1719.57 590.509 1714.16 594.842C1713.72 594.192 1732.36 591.809 1733.66 591.593C1742.32 591.159 1750.99 591.159 1759.65 591.593C1761.82 591.593 1763.77 592.026 1765.72 593.109C1771.79 593.976 1778.5 591.809 1784.79 591.593C1789.34 590.943 1793.89 591.376 1798.43 592.676C1800.17 594.192 1802.33 595.059 1804.5 595.276C1804.72 591.593 1805.15 587.043 1803.63 583.576C1800.38 576.21 1792.8 574.91 1785.65 573.61C1780.02 572.744 1774.39 572.094 1768.75 573.177C1763.77 574.26 1759 575.994 1754.02 576.86C1752.94 574.477 1751.85 572.094 1750.99 569.711C1749.25 568.844 1747.52 567.761 1745.79 566.894C1741.24 566.894 1736.69 567.111 1732.36 567.544C1730.62 566.028 1728.89 564.078 1727.59 562.128C1721.96 554.762 1712.42 555.628 1703.97 556.062C1697.26 556.278 1691.84 557.578 1685.78 559.745C1681.66 553.462 1673.21 550.645 1666.28 553.895C1676.03 548.912 1685.34 543.279 1696.61 542.846C1701.59 542.629 1703.54 543.929 1707.87 541.329C1705.49 536.996 1697.91 538.729 1693.58 538.729C1689.68 538.729 1684.69 540.246 1680.79 539.596C1680.79 533.963 1683.18 530.063 1685.13 524.864C1688.38 515.547 1697.26 513.814 1704.84 519.881C1706.57 521.18 1706.79 522.047 1708.96 522.264C1712.21 522.697 1713.94 522.48 1716.54 524.647C1718.49 526.163 1719.57 528.113 1721.09 530.063C1721.74 530.28 1722.61 530.497 1723.26 530.713C1724.56 533.096 1725.21 535.48 1724.77 538.296C1727.81 538.946 1730.62 538.296 1733.44 536.13C1737.56 535.48 1741.89 534.83 1746.01 534.613C1754.02 532.88 1761.17 530.28 1768.75 535.48C1770.27 538.079 1772.22 539.379 1775.04 539.379C1778.29 540.029 1781.75 540.029 1785.22 539.596C1791.07 540.463 1796.27 542.412 1801.25 545.662C1802.98 547.829 1804.93 548.479 1807.32 548.045C1808.18 538.513 1804.93 531.58 1794.75 529.63C1788.69 528.547 1782.4 530.497 1776.34 529.63C1774.39 522.697 1769.19 522.48 1762.47 522.047C1758.14 522.48 1754.02 522.047 1750.12 520.531C1747.52 519.881 1745.35 520.314 1743.19 521.83C1739.51 523.78 1734.09 528.33 1731.92 522.047C1731.49 519.231 1731.71 516.197 1732.57 513.381C1732.57 510.998 1732.57 508.831 1733.01 506.448C1738.21 504.282 1743.19 504.065 1748.17 506.665C1750.77 507.965 1752.94 511.431 1756.19 511.214C1756.62 509.481 1756.62 505.581 1755.32 504.065C1754.24 502.982 1750.55 502.982 1749.04 502.982C1754.89 501.465 1763.12 500.382 1768.75 501.465C1771.79 502.332 1774.82 503.198 1777.85 504.065C1779.37 505.581 1781.32 506.665 1783.27 507.315C1787.6 507.315 1786.95 504.931 1793.67 506.015C1798.87 506.881 1803.42 510.348 1808.62 510.998C1811.65 507.315 1803.42 502.332 1801.47 501.465C1797.57 499.949 1793.45 498.865 1789.34 498.215C1787.82 498.432 1786.3 498.215 1784.79 497.782C1782.84 492.366 1793.02 491.499 1796.27 491.066C1800.82 490.632 1804.93 491.499 1809.05 493.016C1810.13 493.882 1811 493.666 1811.65 492.582C1813.38 490.632 1815.77 489.549 1818.58 489.333C1822.7 488.466 1826.6 488.249 1830.72 489.116C1835.27 489.766 1839.6 491.282 1843.93 493.232C1842.2 484.133 1831.58 477.2 1823.13 476.767C1817.93 476.55 1814.25 477.417 1809.92 480.45C1810.13 478.5 1810.57 475.683 1811.65 473.95C1813.6 471.134 1817.5 470.484 1820.32 469.4C1823.78 468.101 1829.63 465.717 1833.1 466.151C1840.25 467.234 1847.83 471.134 1854.55 473.517C1857.58 474.6 1861.26 475.25 1864.08 476.55C1869.5 479.367 1870.15 487.599 1870.58 492.799C1871.01 498.432 1870.58 503.198 1866.68 507.748C1872.53 505.365 1882.28 502.115 1885.75 496.482C1890.95 488.466 1886.18 476.983 1879.25 472C1877.51 470.917 1875.56 469.617 1873.83 468.534C1869.71 464.417 1864.73 461.384 1859.1 459.868C1852.38 458.568 1845.45 459.651 1839.17 457.051C1844.8 447.302 1860.61 444.485 1870.36 447.302C1875.78 448.818 1881.2 450.552 1886.4 453.151C1889.21 454.451 1892.03 457.268 1895.06 458.351C1897.01 452.502 1900.05 448.168 1898.1 441.236C1896.15 437.336 1893.98 433.219 1892.03 429.32C1887.26 424.77 1881.63 422.387 1875.35 422.387C1870.58 421.737 1864.3 420.004 1859.53 420.654C1853.25 421.304 1848.27 424.77 1841.98 423.253C1842.42 416.754 1845.67 409.604 1849.35 404.405C1853.03 399.422 1859.53 399.205 1865.38 398.988C1874.7 398.772 1880.98 401.588 1888.78 407.221C1891.38 409.171 1893.98 411.121 1896.8 413.071C1898.53 415.887 1900.7 417.187 1903.51 416.97C1904.59 411.121 1904.81 405.488 1904.59 399.638C1904.59 397.038 1904.16 394.005 1904.81 391.405C1904.81 387.072 1908.06 384.906 1903.73 381.006Z" fill="#457FA4"/>
<path d="M1902.65 572.094C1902.21 570.144 1897.45 566.461 1895.71 565.378C1890.3 562.128 1881.2 564.078 1875.13 564.078C1872.31 564.078 1869.28 563.645 1866.68 564.728C1864.08 565.811 1861.26 569.061 1859.53 571.227C1857.58 573.611 1856.71 576.427 1856.28 579.46C1855.85 581.627 1856.71 584.01 1856.06 586.176C1852.16 586.393 1851.08 591.376 1849.78 594.409C1848.27 598.092 1848.7 599.392 1844.58 599.176C1843.5 599.176 1841.98 599.609 1841.12 599.176C1839.82 598.742 1840.03 597.876 1838.95 597.009C1836.78 595.493 1833.75 594.843 1831.37 596.142C1826.6 598.742 1823.78 604.809 1817.93 604.809C1815.12 604.809 1811.43 604.159 1808.83 605.025C1806.67 605.675 1806.02 607.408 1804.28 608.708C1800.82 611.092 1795.62 608.492 1791.94 608.275C1787.6 608.058 1781.1 607.408 1777.2 609.575C1772 612.608 1768.1 618.891 1767.67 624.741C1767.45 627.99 1765.5 630.807 1765.29 633.84C1765.29 635.14 1765.5 638.823 1762.9 638.606C1761.6 638.606 1760.52 635.79 1759.87 635.14C1757.92 633.407 1756.84 633.84 1754.45 633.84C1751.2 633.84 1749.69 632.973 1748.17 636.223C1747.09 638.39 1746.87 640.99 1745.57 643.156C1747.3 643.156 1748.17 641.64 1749.69 641.206C1751.64 640.556 1753.37 640.99 1755.1 641.64C1757.92 642.723 1760.52 644.673 1760.52 647.922C1764.64 648.139 1775.69 641.64 1775.47 650.306C1778.5 650.956 1793.02 647.923 1792.8 653.772C1791.07 651.606 1790.85 647.923 1789.34 645.539C1786.74 641.423 1781.97 639.256 1777.2 639.04C1773.95 638.823 1773.3 639.256 1772 636.007C1771.35 634.707 1770.49 631.024 1768.54 632.324C1770.7 628.857 1773.09 625.824 1775.9 623.007C1778.29 620.624 1778.94 621.491 1781.97 622.141C1786.74 623.007 1792.37 618.674 1796.7 620.841C1799.3 621.924 1798.87 622.791 1799.95 625.391C1800.82 627.774 1800.82 628.207 1803.63 628.424C1806.45 628.857 1806.23 628.424 1808.18 630.59C1810.13 632.54 1811.43 633.84 1813.82 632.107C1815.98 630.59 1815.77 627.557 1817.72 625.824C1819.67 624.091 1823.35 624.307 1825.73 624.524C1834.18 625.607 1841.55 630.807 1850 632.324C1851.08 627.774 1846.53 622.791 1843.07 620.841C1839.6 619.324 1835.92 618.458 1832.23 618.674C1830.72 619.108 1829.42 619.108 1828.12 618.674C1827.25 611.741 1818.15 617.158 1814.25 618.024C1817.72 614.558 1823.78 611.308 1828.12 609.792C1831.15 608.708 1839.6 606.109 1843.28 608.058C1844.8 608.925 1845.23 611.092 1847.18 611.742C1849.57 612.391 1851.95 610.658 1854.33 610.658C1855.63 610.225 1856.71 610.442 1858.01 611.092C1858.23 611.741 1858.45 612.175 1858.66 612.825C1859.96 613.908 1859.75 614.775 1861.91 614.341C1866.9 613.475 1863.21 605.459 1859.53 604.592C1861.05 595.276 1876 596.792 1882.71 596.576C1885.1 596.576 1887.26 596.576 1889.86 597.226C1893.76 598.526 1896.58 602.859 1900.26 603.509C1902.86 603.942 1903.08 602.209 1904.16 600.042C1906.76 594.843 1909.58 591.376 1907.41 585.527C1906.76 584.01 1905.68 582.277 1905.24 580.76C1904.38 578.377 1905.24 576.644 1902.65 572.094Z" fill="#D1BDF0"/>
<path d="M1072 616.291C1041.23 611.525 1009.82 614.125 979.921 613.041C969.738 610.442 959.555 608.275 949.373 606.758C941.14 605.458 932.69 606.758 924.241 608.275C921.858 608.058 919.691 607.842 917.308 607.625C899.759 605.892 883.51 596.576 868.345 595.709C854.912 594.843 841.913 603.509 828.697 607.625C826.531 607.408 824.147 607.192 821.981 606.975C811.148 605.892 800.749 608.708 790.133 611.091C783.417 611.091 776.7 610.875 770.201 610.875C764.568 610.875 758.935 611.308 753.519 611.741C749.835 610.875 745.936 609.575 742.253 608.275C731.637 604.809 724.487 603.292 713.004 605.892C696.972 609.575 674.874 613.691 661.008 621.924C661.008 623.441 659.275 624.741 657.758 625.824C657.108 625.824 656.458 625.824 655.808 625.824C632.626 644.239 605.328 661.138 581.496 664.821C699.572 656.155 822.197 668.504 941.14 663.955C1066.37 659.188 1189.86 649.656 1315.3 649.656C1234.05 644.456 1151.08 628.64 1072 616.291Z" fill="#356683"/>
<path d="M1042.75 652.039C1054.67 655.939 1085.21 639.69 1101.25 634.923C1130.93 626.474 1160.61 619.324 1190.51 614.125C1225.82 607.842 1262.44 606.975 1296.88 597.009C1322.88 589.643 1351.05 590.076 1376.83 583.36C1405.86 575.777 1414.09 570.144 1443.77 581.41C1457.42 586.61 1469.99 592.459 1483.86 597.009C1493.39 600.042 1701.37 613.041 1695.52 609.142C1695.52 618.024 1521.12 622.357 1521.12 631.24V649.222L1042.75 652.039Z" fill="#0D344B"/>
<path d="M889.577 652.472C969.522 640.773 1065.93 634.706 1149.34 634.706C1187.26 634.706 1225.17 635.356 1261.79 634.706C1299.7 633.84 1322.23 622.791 1359.5 618.458C1383.33 607.192 1403.26 609.358 1423.41 610.875C1463.06 614.124 1487.76 605.675 1523.72 602.858C1549.72 585.31 1577.67 587.043 1620.13 587.043C1662.81 587.043 1685.56 583.793 1724.12 577.077C1764.85 569.927 1804.07 570.361 1846.97 567.111V672.187L889.577 652.472Z" fill="#0D2432"/>
<path d="M753.952 652.039C742.036 655.939 711.488 639.69 695.456 634.923C665.774 626.474 636.093 619.324 606.195 614.125C570.88 607.842 534.266 606.975 499.818 597.009C473.82 589.643 445.655 590.076 419.873 583.36C390.842 575.777 382.609 570.144 352.928 581.41C339.278 586.61 326.713 592.459 312.847 597.009C303.314 600.042 269.733 608.492 275.582 604.592C275.582 613.475 275.582 622.357 275.582 631.24V649.222L753.952 652.039Z" fill="#0D344B"/>
<path d="M-22.9651 655.289H594.929C603.595 655.289 612.261 655.505 620.927 654.855C592.329 643.373 572.18 625.174 539.899 621.924C516.934 619.541 493.102 619.541 470.353 616.291C448.255 613.258 425.506 612.608 402.974 609.358C384.775 606.758 367.66 599.392 349.461 597.659C329.312 595.709 310.247 601.125 290.098 600.042C254.784 598.092 222.719 579.893 186.538 579.243C153.39 578.594 124.142 590.293 90.3443 588.56C53.9467 586.61 20.5821 561.478 -15.8155 563.211C-15.8155 590.726 -22.9651 627.774 -22.9651 655.289Z" fill="#0D2432"/>
<path d="M1838.95 647.922H-25.7816V1003.23H1838.95V647.922Z" fill="url(#paint1_linear)"/>
<path d="M-73.012 905.956L1904.59 928.921V1040.71H-89.9109L-73.012 905.956Z" fill="#347BA6"/>
<path d="M1978.69 865.659H-51.13L1978.69 825.578V865.659Z" fill="#4788B0"/>
<path d="M1978.69 971.385H-51.13L1978.69 931.087V971.385Z" fill="#215779"/>
<path d="M-51.13 806.296H1904.59L-51.13 778.781V806.296Z" fill="#4788B0"/>
<path d="M719.287 830.127C719.287 830.127 571.53 834.894 389.108 834.894C206.687 834.894 58.9296 830.127 58.9296 830.127C58.9296 830.127 206.687 825.361 389.108 825.361C571.53 825.361 719.287 830.127 719.287 830.127Z" fill="#4788B0"/>
<path d="M2006.85 872.375C2006.85 872.375 1859.1 877.141 1676.68 877.141C1494.25 877.141 1346.5 872.375 1346.5 872.375C1346.5 872.375 1494.25 867.608 1676.68 867.608C1859.1 867.608 2006.85 872.375 2006.85 872.375Z" fill="#4788B0"/>
<path d="M741.169 894.473C741.169 894.473 593.412 899.24 410.99 899.24C228.569 899.24 80.8115 894.473 80.8115 894.473C80.8115 894.473 228.569 889.707 410.99 889.707C593.412 889.707 741.169 894.473 741.169 894.473Z" fill="#4788B0"/>
<path d="M1090.62 857.093C1105.2 857.903 1117.36 858.228 1120.44 858.228C1120.6 858.228 1120.6 858.066 1120.6 858.066L1121.57 858.39C1121.25 858.552 1121.09 858.714 1120.76 858.876C1118.17 867.79 1139.73 878.163 1139.73 878.163L1140.21 878.325C1140.7 890.805 1172.95 908.633 1173.28 908.795H1172.95H1172.63L1153.83 907.661L1190.29 928.406C1190.94 928.731 1191.27 928.731 1191.43 928.731L1190.94 928.893C1190.62 928.731 1158.53 916.251 1111.85 910.254C1112.5 910.74 1112.66 911.064 1112.66 911.064C1110.39 912.037 1107.64 912.847 1105.04 913.495L1114.77 918.844C1120.6 917.061 1120.11 915.116 1120.11 915.116C1131.95 920.951 1137.62 925.813 1137.62 925.813L1130.65 927.596L1153.18 940.076C1154.15 940.562 1154.8 940.724 1154.8 940.724H1154.47H1154.15C1154.15 940.724 1153.02 940.238 1151.07 939.428L1150.75 939.265L1150.59 939.428C1149.94 939.266 1089.48 920.465 1038.43 911.875L1041.35 913.82L1026.27 912.685L1033.08 916.413C1040.7 916.737 1043.62 916.089 1043.62 916.089L1055.61 924.03C1051.88 923.868 1048.64 923.706 1045.88 923.382L1064.36 933.431C1064.68 933.593 1065.01 933.593 1065.17 933.755L1065.01 933.917L1064.85 934.079C957.229 898.26 822.382 868.925 820.923 868.6L820.437 868.438V868.276C820.437 868.114 814.44 849.638 840.21 841.372C838.103 838.292 836.969 834.889 838.265 832.458H1061.77L1066.47 835.051H1062.09L1065.33 836.834C1065.33 836.834 1069.71 836.185 1081.05 839.751C1092.4 843.317 1107.47 850.448 1107.47 850.448C1107.47 850.448 1096.61 849.962 1081.38 849.313C1083.81 852.069 1087.05 854.5 1090.62 857.093ZM1080.57 849.8C1071.49 849.475 1060.8 849.151 1050.1 848.827L1060.47 854.824C1070.03 855.796 1080.41 856.607 1089.64 857.093C1086.24 854.5 1083 851.907 1080.57 849.8ZM1083.97 872.977C1082.51 872.328 1081.05 871.842 1079.6 871.194C1069.71 867.952 1047.5 860.983 1021.57 854.5C1033.24 860.335 1042.97 865.845 1049.13 869.411C1067.93 875.408 1080.89 880.432 1084.94 882.053L1107.47 883.025L1090.13 873.463L1083.97 872.977ZM1007.63 906.364C1001.48 904.581 993.534 902.474 984.62 899.719L976.03 899.233L962.253 893.074C938.104 885.943 911.037 877.677 889.481 871.194C933.242 889.346 989.968 903.447 990.292 903.609C996.937 905.23 1002.77 906.04 1007.63 906.364ZM1000.67 900.529L993.372 900.205C1000.5 902.961 1006.18 905.067 1010.23 906.526C1010.88 906.526 1011.52 906.526 1012.17 906.526L1000.67 900.529ZM1040.86 880.756L1030.16 874.921L1000.83 876.38C993.372 872.328 985.754 868.6 978.623 865.359C966.143 861.631 944.749 855.634 922.058 850.772L925.3 853.203H924.814C956.256 870.87 973.598 873.787 973.598 873.787L953.177 873.463L965.657 880.27C974.571 878.649 976.192 875.246 976.192 875.246L1001.64 890.319C1028.87 893.722 1055.93 900.205 1071.82 904.419C1039.73 888.212 1000.67 876.38 1000.67 876.38C1019.95 880.108 1032.59 881.08 1040.86 880.756ZM1056.26 873.787C1057.23 874.435 1058.2 874.921 1059.34 875.57C1102.77 888.05 1140.21 902.961 1149.61 906.688H1150.26L1109.58 884.322L1085.59 883.025L1083.65 881.891H1083.97C1079.76 880.27 1067.44 875.57 1050.26 870.059C1054.15 872.328 1056.26 873.787 1056.26 873.787L1053.66 873.949C1054.47 874.111 1055.45 874.435 1056.26 874.597C1056.42 874.111 1056.26 873.787 1056.26 873.787ZM1133.08 905.716L1148.8 906.526C1138.92 902.474 1102.45 888.212 1060.47 876.056C1070.2 881.729 1078.62 886.915 1085.43 891.291C1109.9 897.774 1127.25 903.609 1133.08 905.716ZM1150.75 906.04C1147.51 903.933 1136.65 896.315 1127.73 887.563C1126.92 886.753 1126.11 885.943 1125.3 885.132L1112.82 884.484L1150.75 906.04ZM962.577 880.756L948.477 873.463L929.028 873.139C934.538 875.732 939.887 878.163 945.235 880.594C952.529 881.08 958.201 881.08 962.577 880.756ZM920.924 850.61C919.789 850.448 918.817 850.124 917.682 849.962C914.927 849.962 912.496 849.962 910.065 850.124L918.817 854.824C922.707 854.014 924.814 853.203 924.814 853.203H924.327L920.924 850.61ZM920.276 850.124L919.951 849.8C919.627 849.8 919.303 849.8 918.979 849.8C919.465 849.962 919.951 849.962 920.276 850.124ZM903.906 850.124C898.719 850.286 895.478 850.286 895.478 850.286L893.047 848.989C877.974 849.313 877.812 850.286 877.812 850.286L879.757 851.42C877.974 851.745 876.191 852.069 874.246 852.393C877.163 853.852 879.27 854.824 879.27 854.824H878.946C894.181 857.417 906.337 856.769 914.279 855.634L903.906 850.124ZM879.108 854.824H878.784C878.784 854.824 876.677 853.852 873.76 852.393C865.818 854.014 857.39 856.607 849.935 859.2C871.004 861.955 886.24 863.252 896.126 863.738C884.619 858.552 879.108 854.824 879.108 854.824ZM964.846 849.8C956.418 849.638 946.694 849.638 937.131 849.638C944.587 851.258 947.504 852.231 947.828 852.231L947.666 852.555C947.666 852.555 944.263 851.582 935.835 849.638C930.648 849.638 925.462 849.638 920.6 849.8L921.41 850.286C943.29 854.986 963.874 860.821 976.678 864.549C960.308 857.093 947.666 852.393 947.666 852.393C967.764 855.31 982.675 855.796 993.372 855.31L990.13 853.527C981.054 851.42 971.491 849.476 961.767 847.855L964.846 849.8ZM849.935 859.2C843.127 861.469 837.131 863.738 833.079 865.359H870.194C857.714 861.631 849.935 859.2 849.935 859.2ZM862.576 852.393L858.363 850.124C854.959 850.772 852.042 851.582 850.097 852.393C850.097 852.393 847.503 850.286 844.586 847.206C815.737 852.393 831.296 862.766 833.079 863.9L862.576 852.393ZM961.119 847.368C970.843 849.151 980.244 850.934 989.158 853.041L973.598 844.775C968.574 844.775 962.901 844.775 956.905 844.775L961.119 847.368ZM998.72 854.986C1005.69 854.338 1010.23 853.203 1012.82 852.555C1003.1 850.286 993.21 848.179 983.161 846.396L998.72 854.986ZM1110.55 883.187L1124.17 883.836C1121.9 881.404 1119.95 878.811 1118.33 876.218L1094.34 873.949L1110.55 883.187ZM1119.3 876.38C1120.76 878.973 1122.87 881.567 1124.98 883.998L1135.03 884.484C1133.24 883.511 1127.89 880.594 1120.93 876.542L1119.3 876.38ZM1170.52 907.661C1163.39 903.447 1139.89 889.022 1139.24 878.163L1121.9 876.542C1128.87 880.594 1134.38 883.511 1136 884.322H1137.13L1139.73 885.618L1126.27 884.97C1127.08 885.78 1127.89 886.753 1128.87 887.563C1139.24 897.774 1152.53 906.526 1152.69 906.526H1152.04L1170.52 907.661ZM1190.13 928.568L1152.21 907.661H1151.56H1151.4C1151.4 907.661 1151.4 907.661 1151.23 907.661L1134.7 906.688H1133.73L1132.11 905.716C1125.95 903.447 1109.42 897.936 1086.08 891.939C1100.18 901.178 1108.28 907.661 1111.36 910.254C1153.5 915.602 1183.97 926.299 1190.13 928.568ZM1056.26 874.921C1055.12 874.597 1053.99 874.273 1052.85 873.949L1034.7 874.759L1044.91 880.432C1053.66 879.46 1055.77 876.542 1056.26 874.921ZM1103.1 914.306C1097.59 915.602 1092.72 916.575 1092.72 916.575C1086.89 912.685 1080.24 908.795 1073.11 905.23C1057.55 901.016 1030 894.371 1002.45 890.805L1020.11 901.178C1053.83 907.337 1084.46 916.089 1106.01 923.22C1107.47 923.706 1108.93 924.192 1110.39 924.679C1106.18 922.41 1103.42 921.275 1103.42 921.275C1107.64 920.951 1110.71 920.303 1113.15 919.816L1103.1 914.306ZM1129.19 928.244L1124.49 929.379C1134.7 932.945 1142.64 936.186 1147.99 938.293L1129.19 928.244ZM1027.25 905.067L1037.78 911.875C1084.94 919.816 1140.05 936.348 1149.45 939.265C1144.43 937.158 1135.67 933.755 1124 929.541L1120.6 930.351C1117.52 928.406 1114.6 926.624 1112.01 925.327C1110.07 924.679 1107.96 924.03 1105.85 923.22C1084.62 916.251 1054.15 907.499 1020.92 901.502L1003.58 900.691L1014.44 906.526C1022.87 906.526 1027.25 905.067 1027.25 905.067ZM1024.17 912.847L1007.63 911.551L987.861 902.961C988.672 903.123 989.482 903.285 990.292 903.609L831.62 865.845C829.675 866.656 828.216 867.142 827.73 867.466C833.565 868.763 920.438 887.077 1016.39 914.792C1022.71 915.765 1027.57 916.413 1031.46 916.575L1024.17 912.847ZM1064.2 933.755L1044.91 923.706C1033.57 922.734 1029.19 921.437 1029.19 921.437L1012.33 914.306C1012.82 914.468 1013.47 914.468 1013.96 914.63C916.224 886.429 828.541 868.114 827.568 867.952L827.406 867.79L821.247 868.762C830.81 870.707 959.984 899.233 1064.2 933.755ZM821.247 868.6L829.189 865.521L832.917 864.062H832.43C832.268 863.9 826.92 860.821 826.109 857.093C825.461 853.851 828.379 849.638 844.1 846.882C842.803 845.424 841.507 843.965 840.372 842.344C817.195 849.962 820.599 866.169 821.247 868.6ZM998.882 844.775C998.882 844.775 991.751 844.613 980.568 844.613L982.513 845.748C992.885 847.531 1003.42 849.8 1013.47 852.231C1014.77 851.745 1015.41 851.582 1015.41 851.582H1014.93C1014.93 851.582 1013.14 850.286 1009.74 848.341C1008.28 848.341 1006.82 848.341 1005.37 848.341L998.882 844.775ZM1010.55 848.341C1013.96 850.286 1015.9 851.582 1015.9 851.582H1015.41C1017.03 852.393 1018.66 853.203 1020.28 854.014C1043.94 859.848 1064.69 866.169 1076.19 869.897C1053.99 860.497 1043.29 852.555 1043.29 852.555C1046.69 853.203 1050.58 853.689 1054.47 854.176L1044.75 848.827C1032.43 848.341 1020.44 848.179 1010.55 848.341Z" fill="url(#paint2_linear)"/>
<path d="M1045.41 785.317C1058.54 783.697 1070.05 783.21 1072.97 783.048C1073.13 783.21 1073.29 783.21 1073.45 783.372L1073.78 782.724C1073.29 782.4 1072.64 782.076 1072.15 781.752C1053.35 764.247 1055.62 743.826 1055.62 743.826L1055.95 743.502C1033.42 718.866 1032.93 684.02 1032.93 683.696H1032.61H1032.28L1015.43 685.803L1013.81 645.122C1013.97 644.636 1014.13 644.311 1014.13 644.311L1013.32 643.987C1013.16 644.311 1004.08 668.623 968.426 680.292C968.102 679.32 967.94 678.833 967.94 678.833C963.888 677.051 959.674 675.43 955.622 673.971L955.46 663.274C964.536 666.678 967.778 670.73 967.778 670.73C968.75 659.222 965.509 649.66 965.509 649.66L955.298 646.256L954.812 621.783C954.974 620.972 955.136 620.486 955.136 620.324L954.812 620.162L954.488 620C954.488 620 954.326 620.972 953.839 622.593L953.677 622.755L953.353 622.593C953.029 622.917 927.097 659.871 891.926 676.727L891.278 672.999L878.312 675.268V667.974C885.281 667.164 889.495 668.623 889.495 668.623L886.902 653.063C883.499 653.388 880.743 653.874 878.312 654.36V634.749C878.474 634.587 878.474 634.425 878.636 634.263L878.312 634.101L877.988 633.939C836.01 704.117 755.135 761.654 754.324 762.14L754 762.303L754.324 762.627C754.648 763.113 782.525 799.094 823.693 815.463C827.42 821.622 832.283 828.105 838.117 832.968H1061.62V827.943H1057.24V824.378C1057.24 824.378 1062.75 825.512 1067.45 818.543C1072.15 811.574 1074.1 797.473 1074.1 797.473C1074.1 797.473 1064.05 798.445 1049.95 799.58C1047.84 795.204 1046.55 790.342 1045.41 785.317ZM1048.82 799.58C1040.23 800.228 1030.34 800.877 1020.13 801.363L1019.64 789.693C1027.42 787.748 1036.34 786.29 1044.76 785.317C1045.74 790.342 1047.03 795.204 1048.82 799.58ZM1009.43 754.037C1008.95 755.171 1008.62 756.306 1008.3 757.44C1004.41 763.761 995.007 777.538 980.906 790.18C981.879 778.834 981.554 767.975 981.068 761.006C988.686 749.174 992.576 739.45 993.71 736.37L1014.29 734.426L1014.46 753.064L1009.43 754.037ZM871.667 688.558C868.588 691.962 864.86 696.338 860.808 701.362L852.866 702.172L850.435 714.328C839.414 728.429 827.42 744.474 817.858 757.278C828.393 721.784 858.863 693.907 859.187 693.744C863.077 690.827 867.453 689.206 871.667 688.558ZM875.395 699.903L868.75 700.552C870.857 695.203 872.64 690.989 873.936 688.234C874.584 688.234 875.233 688.072 875.881 688.072L875.395 699.903ZM951.895 738.802L951.732 750.147L919.804 747.392C919.804 755.333 918.993 762.627 917.859 768.948C912.186 776.079 901.813 787.911 888.199 797.635L887.064 792.935L886.74 793.097C885.768 758.413 897.761 752.74 897.761 752.74L877.988 753.388V739.936C889.82 743.016 897.761 749.823 897.761 749.823L895.492 720.325C916.562 713.68 931.473 700.876 939.577 692.61C937.308 724.377 919.804 747.554 919.804 747.554C932.283 740.098 943.142 738.153 951.895 738.802ZM980.258 752.578C980.258 751.443 980.096 750.309 980.096 749.174C1000.52 724.701 1010.89 695.689 1013.32 688.234H1013.97L1014.29 732.156L992.576 734.588V736.695H992.9C991.765 739.936 988.037 749.174 981.068 760.033C980.744 755.171 980.258 752.578 980.258 752.578L977.502 752.254C977.989 751.768 978.313 751.281 978.799 750.795C979.772 751.93 980.258 752.578 980.258 752.578ZM998.41 689.855L1012.51 688.234C1009.92 696.014 999.707 724.053 980.096 748.04C979.447 737.019 978.313 726.97 977.016 718.056C989.982 705.576 996.303 693.907 998.41 689.855ZM1015.43 689.206C1016.24 693.42 1019.16 708.331 1026.45 725.511C1027.1 727.132 1027.91 728.753 1028.56 730.374L1017.21 731.67L1015.43 689.206ZM873.936 738.964L873.45 753.388L854.487 754.037C855.297 749.012 856.108 744.15 857.08 739.612C863.077 737.991 868.75 738.153 873.936 738.964ZM887.55 797.959C886.902 798.445 886.254 798.932 885.605 799.256C882.85 799.256 880.257 799.094 877.826 799.094V789.855C883.174 791.476 886.74 792.935 886.74 792.935L886.416 793.097L887.55 797.959ZM887.713 798.77L887.875 799.418C887.55 799.418 887.226 799.418 886.902 799.418C887.226 799.256 887.55 799.094 887.713 798.77ZM871.505 798.932C866.156 798.77 862.753 798.607 862.753 798.607V801.201C847.194 800.714 845.087 798.607 845.087 798.607V796.501C842.817 796.014 840.386 795.204 837.793 794.556C838.117 791.8 838.441 789.855 838.441 789.855H838.117C848.652 784.831 861.942 786.128 871.991 788.397L871.505 798.932ZM837.955 789.855H837.631C837.631 789.855 837.307 791.8 836.983 794.394C825.962 790.99 812.833 785.966 800.516 781.103C816.399 775.593 829.365 773.324 838.441 772.351C836.497 782.238 837.955 789.855 837.955 789.855ZM932.932 799.418C924.828 799.742 915.103 799.742 905.541 799.742C909.917 796.501 911.214 794.718 911.376 794.556L910.727 794.069C910.727 794.069 909.106 796.014 904.244 799.742C898.896 799.742 893.709 799.58 888.847 799.418L888.523 798.283C901.651 788.883 911.7 777.7 917.697 770.406C915.103 784.993 911.051 794.231 911.051 794.231C925.638 788.397 939.739 787.586 951.408 788.559V791.962C946.06 796.014 940.225 799.904 933.58 803.308L932.932 799.418ZM800.516 780.941C789.495 776.403 779.284 772.027 772.315 768.786H809.43C804.081 776.241 800.516 780.941 800.516 780.941ZM825.8 794.394V798.77C821.099 797.473 816.885 796.014 813.482 794.394C813.482 794.394 814.778 798.607 817.534 804.604C778.96 794.394 775.718 774.134 775.394 772.027L825.8 794.394ZM933.58 804.28C940.225 800.877 946.06 797.149 951.246 793.259L951.084 809.629C946.06 809.629 940.387 809.629 934.39 809.467L933.58 804.28ZM957.567 789.531C965.671 790.828 972.316 792.935 976.206 794.394C970.695 798.77 964.536 802.984 957.891 806.549L957.567 789.531ZM1017.21 734.101L1029.69 732.805C1031.96 737.667 1034.72 742.691 1037.96 747.716L1018.18 752.092L1017.21 734.101ZM1038.61 747.554C1035.36 742.529 1032.77 737.505 1030.5 732.805L1039.74 731.832C1039.74 733.615 1039.74 739.45 1040.06 747.229L1038.61 747.554ZM1032.12 685.965C1032.61 694.069 1035.85 722.594 1055.14 743.826L1040.71 747.067C1040.39 739.288 1040.39 733.453 1040.39 731.832L1041.36 731.67V728.915L1029.2 730.212C1028.39 728.429 1027.58 726.808 1026.94 725.025C1018.51 704.928 1015.91 687.91 1015.75 687.748L1015.1 687.91V687.748L1032.12 685.965ZM1013.48 645.284L1013.81 686.127H1013.16H1013L998.248 688.072L997.276 688.234V690.017C995.169 694.393 988.848 705.252 976.692 717.083C973.775 698.931 969.885 686.127 968.264 681.265C1000.68 670.568 1011.54 649.66 1013.48 645.284ZM978.151 750.309C977.665 750.957 977.016 751.606 976.53 752.254L956.757 750.633L956.595 739.612C967.292 741.395 974.747 747.067 978.151 750.309ZM952.705 673.161C944.763 670.406 938.28 668.785 938.28 668.785C939.739 676.564 940.063 684.02 939.577 691.151C931.797 699.417 916.562 712.545 895.33 719.352L893.709 698.931C916.238 686.937 930.663 669.595 939.253 655.819C939.901 654.846 940.387 653.874 941.035 652.901C940.873 657.277 940.387 659.709 940.387 659.709C945.249 660.519 949.463 661.491 952.867 662.626L952.705 673.161ZM953.029 645.77L946.222 643.501C949.788 636.37 951.895 630.211 953.353 625.997L953.029 645.77ZM893.871 691.313L891.764 677.861C924.342 662.464 948.977 629.887 953.191 624.214C951.895 628.266 949.625 635.073 945.574 643.177L940.549 641.556C941.035 645.446 941.198 648.687 941.198 651.443C940.387 652.739 939.577 654.198 938.766 655.495C930.338 669.109 916.076 686.289 893.871 698.12L877.988 699.741V688.234C886.74 688.234 893.871 691.313 893.871 691.313ZM876.367 675.754L862.105 678.185L857.891 694.879C858.377 694.393 858.863 694.069 859.349 693.744L770.045 767.813C766.642 766.192 764.211 765.058 763.238 764.734C766.804 762.303 819.965 726.322 864.86 672.026C869.236 670.081 873.288 668.947 876.691 668.461L876.367 675.754ZM877.826 634.911L877.015 654.684C867.453 656.629 865.508 659.222 865.508 659.222L861.78 673.323C862.105 673.161 862.591 672.999 862.915 672.675C817.047 727.942 762.914 763.761 762.266 764.085L762.428 764.41L754.486 762.465C760.483 758.413 837.145 702.659 877.826 634.911ZM754.81 762.789L768.587 768.948L774.908 771.703H774.584C774.584 772.027 774.908 778.024 781.229 785.479C786.415 791.8 797.112 800.066 818.02 805.415C819.317 808.17 820.937 811.249 822.72 814.491C784.794 799.094 758.538 767.489 754.81 762.789ZM976.044 809.142C976.044 809.142 969.075 809.304 957.891 809.467V807.36C964.861 803.794 971.344 799.418 977.016 794.718C979.123 795.528 980.258 796.176 980.42 796.176L980.096 796.338C980.096 796.338 980.582 798.932 980.744 802.497C979.123 802.497 977.665 802.335 976.206 802.335V809.142H976.044ZM981.392 802.335C981.392 798.607 980.744 796.014 980.744 796.014L980.42 796.176C980.582 794.556 980.744 793.097 980.906 791.476C993.872 779.969 1002.95 767.489 1007.65 760.358C1002.79 778.672 1006.84 794.394 1006.84 794.394C1009.27 793.259 1012.02 792.124 1015.1 791.152L1015.27 801.687C1003.11 802.173 991.279 802.497 981.392 802.335Z" fill="#081C28"/>
</g>
<defs>
<linearGradient id="paint0_linear" x1="911.989" y1="-306.375" x2="911.989" y2="427.128" gradientUnits="userSpaceOnUse">
<stop stop-color="#2C5976"/>
<stop offset="1" stop-color="#61A5D1"/>
</linearGradient>
<linearGradient id="paint1_linear" x1="906.457" y1="646.439" x2="906.457" y2="995.554" gradientUnits="userSpaceOnUse">
<stop stop-color="#407799"/>
<stop offset="1" stop-color="#0D4C74"/>
</linearGradient>
<linearGradient id="paint2_linear" x1="908.424" y1="793.239" x2="908.424" y2="943.843" gradientUnits="userSpaceOnUse">
<stop stop-color="#162E3E"/>
<stop offset="1" stop-color="#1D4157" stop-opacity="0"/>
</linearGradient>
<clipPath id="clip0">
<rect width="1824" height="984" fill="white"/>
</clipPath>
</defs>
</svg>
