<svg width="1824" height="984" viewBox="0 0 1824 984" fill="none" xmlns="http://www.w3.org/2000/svg">
<g clip-path="url(#clip0)">
<path d="M1824 0H0V984H1824V0Z" fill="url(#paint0_linear)"/>
<path opacity="0.04" d="M1706.15 424.343C1798.31 331.01 1785.17 192.064 1676.81 113.999C1568.45 35.9338 1405.9 48.311 1313.74 141.644C1221.58 234.977 1234.72 373.923 1343.08 451.988C1451.44 530.053 1614 517.676 1706.15 424.343Z" fill="#E5EDD4"/>
<path opacity="0.04" d="M1665.68 401.625C1743.38 327.232 1736.63 213.784 1650.61 148.233C1564.58 82.6814 1431.86 89.8486 1354.16 164.241C1276.46 238.634 1283.21 352.082 1369.23 417.633C1455.26 483.185 1587.98 476.017 1665.68 401.625Z" fill="#E5EDD4"/>
<path opacity="0.04" d="M1509.98 422.182C1599.86 422.182 1672.73 359.856 1672.73 282.972C1672.73 206.088 1599.86 143.761 1509.98 143.761C1420.1 143.761 1347.23 206.088 1347.23 282.972C1347.23 359.856 1420.1 422.182 1509.98 422.182Z" fill="#E5EDD4"/>
<path opacity="0.04" d="M1509.98 377.472C1571 377.472 1620.46 335.163 1620.46 282.972C1620.46 230.78 1571 188.471 1509.98 188.471C1448.96 188.471 1399.5 230.78 1399.5 282.972C1399.5 335.163 1448.96 377.472 1509.98 377.472Z" fill="#E5EDD4"/>
<path opacity="0.15" d="M1510.75 350.657C1555.07 350.657 1590.99 319.926 1590.99 282.018C1590.99 244.109 1555.07 213.379 1510.75 213.379C1466.43 213.379 1430.5 244.109 1430.5 282.018C1430.5 319.926 1466.43 350.657 1510.75 350.657Z" fill="white"/>
<path d="M1557.71 283.037C1562.66 254.817 1546.71 228.046 1519.79 214.2C1520.81 214.298 1521.83 214.395 1522.85 214.526C1567.51 220.263 1597.97 256.533 1589.61 294.83C1581.93 330.014 1543.31 354.341 1501.75 350.192C1490.01 349.02 1479.21 345.743 1469.76 340.879C1512.28 344.939 1551.3 319.542 1557.71 283.037Z" fill="white"/>
<path d="M537.062 309.196C514.677 301.764 488.783 304.829 467.368 314.12C464.173 300.884 449.613 290.968 434.005 288.86C418.398 286.752 402.308 291.471 389.419 299.289C390.508 276.362 390.937 251.467 375.102 232.946C358.462 213.483 327.87 206.473 299.687 206.913C257.329 207.573 216.216 222.131 182.488 244.059C148.76 265.987 121.998 294.981 100.327 326.119C87.9521 319.585 72.0756 318.147 58.3752 322.318C44.6747 326.49 33.4318 336.186 28.667 347.939L576.302 356.262C576.978 335.731 559.448 316.627 537.062 309.196Z" fill="url(#paint1_linear)"/>
<path d="M1402.11 336.853C1389.45 335.158 1376.62 340.613 1367.75 348.525C1364.03 333.798 1357.88 319.52 1349.56 306.239C1346.02 300.578 1341.91 294.941 1335.81 291.193C1324.59 284.296 1309.28 285.26 1295.83 287.964C1261.25 294.917 1229.45 311.652 1206.61 334.925C1197.11 321.414 1175.65 316.932 1157.74 320.652C1139.82 324.371 1124.79 334.552 1111.03 345.04C1103.56 338.623 1092.25 335.666 1081.86 337.416C1071.47 339.166 1062.32 345.57 1058.25 353.931L1423.8 359.856C1425.91 349.047 1414.77 338.548 1402.11 336.853Z" fill="url(#paint2_linear)"/>
<path d="M827.914 490.171C819.175 491.29 811.489 496.287 802.675 496.817C802.399 479.865 800.897 460.617 785.557 449.882C769.618 438.728 745.845 442.035 726.837 448.813C701.574 457.82 678.831 471.948 661 489.707C658.045 480.448 646.959 473.604 635.755 474.12C624.55 474.637 614.39 494.951 612.616 504.428L844.589 508.405C848.611 501.676 836.654 489.052 827.914 490.171Z" fill="url(#paint3_linear)"/>
<path d="M100.876 61.4689C102.113 61.4689 102.114 59.8278 100.876 59.8278C99.6402 59.8278 99.6377 61.4689 100.876 61.4689Z" fill="white"/>
<path d="M83.1891 147.199C84.4255 147.199 84.4275 145.558 83.1891 145.558C81.9532 145.558 81.9513 147.199 83.1891 147.199Z" fill="white"/>
<path d="M235.515 93.4275C235.515 94.2678 235.515 95.1085 235.515 95.9488C235.515 97.0055 237.435 97.0071 237.435 95.9488C237.435 95.1085 237.435 94.2678 237.435 93.4275C237.435 92.3708 235.515 92.3692 235.515 93.4275Z" fill="white"/>
<path d="M181.427 194.286C181.427 193.446 181.427 192.605 181.427 191.765C181.427 190.708 179.507 190.706 179.507 191.765C179.507 192.605 179.507 193.446 179.507 194.286C179.507 195.343 181.427 195.344 181.427 194.286Z" fill="white"/>
<path d="M164.768 118.642C164.768 119.482 164.768 120.323 164.768 121.163C164.768 122.22 166.688 122.222 166.688 121.163C166.688 120.323 166.688 119.482 166.688 118.642C166.688 117.585 164.768 117.584 164.768 118.642Z" fill="white"/>
<path d="M460.51 48.8617C461.746 48.8617 461.748 47.2206 460.51 47.2206C459.273 47.2206 459.271 48.8617 460.51 48.8617Z" fill="white"/>
<path d="M475.249 207.714C476.485 207.714 476.487 206.073 475.249 206.073C474.013 206.073 474.011 207.714 475.249 207.714Z" fill="white"/>
<path d="M440.835 239.672C440.835 238.832 440.835 237.991 440.835 237.151C440.835 236.094 438.915 236.093 438.915 237.151C438.915 237.991 438.915 238.832 438.915 239.672C438.915 240.729 440.835 240.731 440.835 239.672Z" fill="white"/>
<path d="M351.441 298.487C352.677 298.487 352.679 296.845 351.441 296.845C350.204 296.845 350.202 298.487 351.441 298.487Z" fill="white"/>
<path d="M380.919 177.457C381.901 177.457 382.884 177.457 383.867 177.457C385.102 177.457 385.104 175.815 383.867 175.815C382.884 175.815 381.901 175.815 380.919 175.815C379.683 175.815 379.681 177.457 380.919 177.457Z" fill="white"/>
<path d="M667.536 208.834C666.554 207.994 665.571 207.153 664.588 206.313C663.713 205.565 662.355 206.726 663.231 207.474C664.213 208.315 665.196 209.155 666.179 209.996C667.053 210.744 668.411 209.583 667.536 208.834Z" fill="white"/>
<path d="M644.234 375.832C644.234 374.992 644.234 374.151 644.234 373.311C644.234 372.254 642.314 372.252 642.314 373.311C642.314 374.151 642.314 374.992 642.314 375.832C642.314 376.888 644.234 376.89 644.234 375.832Z" fill="white"/>
<path d="M498.831 444.731C500.068 444.731 500.07 443.09 498.831 443.09C497.596 443.09 497.593 444.731 498.831 444.731Z" fill="white"/>
<path d="M355.348 539.727C355.348 538.887 355.348 538.046 355.348 537.206C355.348 536.149 353.428 536.147 353.428 537.206C353.428 538.046 353.428 538.887 353.428 539.727C353.428 540.783 355.348 540.785 355.348 539.727Z" fill="white"/>
<path d="M442.823 376.652C444.06 376.652 444.061 375.011 442.823 375.011C441.587 375.011 441.585 376.652 442.823 376.652Z" fill="white"/>
<path d="M159.154 441.97C160.136 442.811 161.119 443.651 162.102 444.491C162.977 445.24 164.335 444.079 163.459 443.33C162.477 442.49 161.494 441.649 160.511 440.809C159.636 440.061 158.278 441.222 159.154 441.97Z" fill="white"/>
<path d="M79.8353 499.243C79.4149 501.878 84.7083 501.673 84.0933 499.17C83.8392 498.136 81.9883 498.573 82.2418 499.606C82.1957 499.419 82.2149 499.643 82.2475 499.533C82.2725 499.448 82.1982 499.581 82.2923 499.446C82.2117 499.561 82.3966 499.408 82.3115 499.436C82.2507 499.457 82.1963 499.589 82.3256 499.435C82.3128 499.45 82.2258 499.492 82.204 499.493C82.3864 499.485 82.2712 499.475 82.1963 499.488C82.1355 499.499 82.0747 499.514 82.0139 499.525C82.1426 499.503 82.117 499.525 82.003 499.52C81.9096 499.516 81.6267 499.48 81.8418 499.523C81.7816 499.511 81.7227 499.499 81.6638 499.484C81.596 499.464 81.6171 499.474 81.7272 499.512C81.7067 499.503 81.6862 499.494 81.6658 499.485C81.6165 499.366 81.6984 499.584 81.6696 499.498C81.653 499.486 81.6376 499.472 81.6235 499.458C81.5755 499.413 81.5928 499.432 81.676 499.515C81.6869 499.56 81.7323 499.661 81.6971 499.557C81.7662 499.76 81.715 499.505 81.6869 499.68C81.7566 499.241 81.5634 498.798 81.0161 498.67C80.5681 498.564 79.9057 498.801 79.8353 499.243Z" fill="white"/>
<path d="M133.302 313.616C134.539 313.616 134.541 311.975 133.302 311.975C132.066 311.975 132.064 313.616 133.302 313.616Z" fill="white"/>
<path d="M272.529 428.202C271.546 427.362 270.563 426.521 269.581 425.681C268.706 424.932 267.348 426.093 268.223 426.842C269.206 427.682 270.189 428.523 271.171 429.363C272.045 430.111 273.404 428.95 272.529 428.202Z" fill="white"/>
<path d="M663.909 66.5119C665.146 66.5119 665.147 64.8708 663.909 64.8708C662.673 64.8708 662.671 66.5119 663.909 66.5119Z" fill="white"/>
<path d="M814.248 137.113C815.484 137.113 815.486 135.472 814.248 135.472C813.012 135.472 813.009 137.113 814.248 137.113Z" fill="white"/>
<path d="M778.874 303.53C780.111 303.53 780.113 301.889 778.874 301.889C777.638 301.889 777.636 303.53 778.874 303.53Z" fill="white"/>
<path d="M723.348 528.927C723.348 527.948 723.348 526.97 723.348 525.991C723.348 524.934 721.428 524.932 721.428 525.991C721.428 526.97 721.428 527.948 721.428 528.927C721.428 529.984 723.348 529.986 723.348 528.927Z" fill="white"/>
<path d="M578.188 685.396C579.425 685.396 579.426 683.755 578.188 683.755C576.952 683.755 576.95 685.396 578.188 685.396Z" fill="white"/>
<path d="M221.123 708.891C222.267 708.891 223.412 708.891 224.557 708.891C225.792 708.891 225.794 707.248 224.557 707.248C223.412 707.248 222.268 707.248 221.123 707.248C219.888 707.248 219.885 708.891 221.123 708.891Z" fill="white"/>
<path d="M177.169 804.402C176.024 803.422 174.88 802.444 173.735 801.465C172.86 800.716 171.502 801.878 172.378 802.626C173.522 803.605 174.666 804.584 175.811 805.563C176.686 806.311 178.044 805.15 177.169 804.402Z" fill="white"/>
<path d="M150.554 613.784C150.586 613.985 150.579 613.672 150.569 613.815C150.56 613.877 150.566 613.87 150.589 613.793C150.578 613.819 150.568 613.846 150.557 613.872C150.621 613.97 150.387 613.847 150.574 613.865C150.644 613.872 150.443 613.922 150.601 613.859C150.687 613.825 150.678 613.833 150.597 613.857C150.663 613.837 150.733 613.82 150.802 613.808C150.912 613.79 150.665 613.81 150.851 613.801C150.925 613.798 151 613.799 151.074 613.799C151.189 613.799 151.428 613.837 151.529 613.917C151.431 613.839 151.473 613.898 151.545 613.936C151.584 613.957 151.521 613.838 151.547 613.953C151.532 613.887 151.505 613.851 151.524 613.941C151.481 613.742 151.466 614.028 151.505 613.869C151.252 614.9 153.102 615.341 153.357 614.306C154.022 611.601 148.25 611.381 148.703 614.22C148.773 614.66 149.432 614.9 149.883 614.794C150.438 614.664 150.625 614.226 150.554 613.784Z" fill="white"/>
<path d="M71.0169 819.666C71.0169 818.687 71.0169 817.708 71.0169 816.729C71.0169 815.673 69.0969 815.671 69.0969 816.729C69.0969 817.708 69.0969 818.687 69.0969 819.666C69.0969 820.723 71.0169 820.724 71.0169 819.666Z" fill="white"/>
<path d="M463.929 643.461C463.929 644.44 463.929 645.418 463.929 646.397C463.929 647.454 465.849 647.456 465.849 646.397C465.849 645.418 465.849 644.44 465.849 643.461C465.849 642.405 463.929 642.402 463.929 643.461Z" fill="white"/>
<path d="M417.782 834.35C417.782 833.371 417.782 832.392 417.782 831.413C417.782 830.356 415.862 830.354 415.862 831.413C415.862 832.392 415.862 833.371 415.862 834.35C415.862 835.406 417.782 835.408 417.782 834.35Z" fill="white"/>
<path d="M916.623 398.473C917.86 398.473 917.862 396.831 916.623 396.831C915.387 396.831 915.385 398.473 916.623 398.473Z" fill="white"/>
<path d="M1239.52 163.809C1240.76 163.809 1240.76 162.168 1239.52 162.168C1238.29 162.168 1238.28 163.809 1239.52 163.809Z" fill="white"/>
<path d="M1487.84 325.549C1488.65 324.857 1489.46 324.164 1490.26 323.472C1491.14 322.724 1489.78 321.562 1488.91 322.311C1488.1 323.003 1487.29 323.696 1486.48 324.388C1485.61 325.136 1486.96 326.298 1487.84 325.549Z" fill="white"/>
<path d="M1312.36 496.076C1313.59 496.076 1313.59 494.435 1312.36 494.435C1311.12 494.435 1311.12 496.076 1312.36 496.076Z" fill="white"/>
<path d="M1764.09 40.6365C1763.6 41.0564 1763.11 41.4762 1762.62 41.896C1761.74 42.6444 1763.1 43.8061 1763.97 43.0572C1764.47 42.6373 1764.96 42.2175 1765.45 41.7976C1766.32 41.0498 1764.97 39.8881 1764.09 40.6365C1763.6 41.0564 1763.11 41.4762 1762.62 41.896C1761.74 42.6444 1763.1 43.8061 1763.97 43.0572C1764.47 42.6373 1764.96 42.2175 1765.45 41.7976C1766.32 41.0498 1764.97 39.8881 1764.09 40.6365Z" fill="white"/>
<path d="M1590.59 125.608C1590.59 126.3 1590.59 126.993 1590.59 127.685C1590.59 128.742 1592.51 128.743 1592.51 127.685C1592.51 126.993 1592.51 126.3 1592.51 125.608C1592.51 124.552 1590.59 124.55 1590.59 125.608Z" fill="white"/>
<path d="M996.741 103.585C997.978 103.585 997.98 101.944 996.741 101.944C995.505 101.944 995.503 103.585 996.741 103.585Z" fill="white"/>
<path d="M1058.93 313.253C1058.12 312.561 1057.31 311.868 1056.5 311.176C1055.63 310.427 1054.27 311.589 1055.14 312.337C1055.95 313.029 1056.76 313.722 1057.57 314.414C1058.44 315.162 1059.8 314.001 1058.93 313.253Z" fill="white"/>
<path d="M1087.58 476.664C1087.58 475.216 1087.58 473.768 1087.58 472.32C1087.58 471.263 1085.66 471.261 1085.66 472.32C1085.66 473.768 1085.66 475.216 1085.66 476.664C1085.66 477.721 1087.58 477.722 1087.58 476.664Z" fill="white"/>
<path d="M929.164 686.021C930.401 686.021 930.403 684.38 929.164 684.38C927.928 684.38 927.926 686.021 929.164 686.021Z" fill="white"/>
<path d="M411.194 769.48V686.423L550.449 626.987L611.637 660.085L756.166 575.652L960.829 761.033L411.194 769.48Z" fill="#2578AC"/>
<path d="M550.449 626.987L566.603 665.615L545.22 685.506L582.971 742.325L427.528 749.901L550.449 626.987Z" fill="#251258"/>
<path d="M756.166 575.652L786.885 615.772L764.9 638.055L811.993 665.382L799.686 679.104L868.707 740.802L589.282 729.287L756.166 575.652Z" fill="#0E4262"/>
<path d="M550.449 626.987V647.294L536.41 655.477L541.219 658.323L520.268 666.862L523.616 679.104L482.054 701.55L489.388 715.183L458.872 768.042L411.194 769.48V686.423L550.449 626.987Z" fill="#080B4A"/>
<path d="M756.166 575.652L550.449 695.496L562.216 707.261L513.115 729.129L593.443 749.901L733.722 739.965L693.295 695.496L715.947 686.482L699.474 644.862L754.221 609.576L756.166 575.652Z" fill="#062436"/>
<path d="M630.579 731.034L964.803 517.716L1291.08 798.945L630.579 731.034Z" fill="#2578AC"/>
<path d="M964.803 517.716L975.71 581.908L928.435 601.202L980.797 634.636L956.013 691.832L996.114 735.696L662.977 710.356L964.803 517.716Z" fill="#062436"/>
<path d="M1824 547.43L1747.96 458.537L1349.46 815.504L1824 859.622V547.43Z" fill="#0E4262"/>
<path d="M1747.96 458.537L1712.33 545.505L1667.94 559.713L1631.84 613.809L1652.28 645.502L1550.87 662.257L1411.87 759.595L1747.96 458.537Z" fill="#2578AC"/>
<path d="M1824 547.43L1747.96 458.537L1789.58 538.14L1824 566.415V547.43Z" fill="#062436"/>
<path d="M842.537 803.514L1312.36 397.652L1628.72 886.594L842.537 803.514Z" fill="url(#paint4_linear)"/>
<path d="M1312.36 397.652L1361.26 528.927L1349.02 557.796L1404.32 592.464L1331.23 642.123L1428.1 818.48L932.048 726.188L1312.36 397.652Z" fill="#0E4262"/>
<path d="M1312.36 397.652L1303.62 539.559L1146.65 622.026L1190.4 665.993L1120.92 784.843L842.537 803.514L1312.36 397.652Z" fill="#062436"/>
<path d="M1261.77 798.051L1542.26 525.378L1799.99 852.354L1261.77 798.051Z" fill="#062436"/>
<path d="M1542.26 525.378L1261.77 798.051L1473.36 819.399L1466.25 749.218L1434.35 719.382L1520.87 670.875L1514.78 611.392L1546.86 591.247L1542.26 525.378Z" fill="#0E4262"/>
<path d="M1542.26 525.378L1571.55 586.183L1608.5 619.121L1598.34 630.577L1799.99 852.354L1542.26 525.378Z" fill="#2578AC"/>
<path d="M1057.86 738.028L1058 746.4H1060.49V738.028H1057.86Z" fill="#080B4A"/>
<path d="M1061.33 738.028H1060.49V746.4H1061.33V738.028Z" fill="#80CEFF"/>
<path d="M1064.07 720.006L1064.98 720.676L1067.01 720.076L1069.93 719.209L1068.94 715.672L1067.54 714.945L1067.86 716.211L1064.07 720.006Z" fill="#80CEFF"/>
<path d="M1070.49 727.133H1072.91L1069.93 721.898L1067.49 721.372L1065.28 720.895L1069.34 723.879L1070.49 727.133Z" fill="#80CEFF"/>
<path d="M1067.45 709.022L1063.98 698.835L1062.2 697.969L1065.89 709.022H1067.45Z" fill="#80CEFF"/>
<path d="M1074.34 733.181C1073.66 732.372 1073.03 731.548 1072.43 730.71L1071.06 729.695L1071.37 732.416L1073.87 736.526L1071.89 738.027H1075.89L1074.34 733.181Z" fill="#80CEFF"/>
<path d="M1059.43 693.033H1060.85H1062.65L1059.22 682.241L1061.33 690.837L1059.43 693.033Z" fill="#80CEFF"/>
<path d="M1061.93 697.137H1063.98L1062.65 694.307L1061.14 693.711L1059.43 693.033L1062.22 695.264L1061.93 697.137Z" fill="#80CEFF"/>
<path d="M1067.15 713.413L1068.94 713.691L1067.45 710.296L1066.18 709.894L1066.47 710.757L1067.15 713.413Z" fill="#80CEFF"/>
<path d="M1057.84 685.23L1056.95 688.931L1058.21 689.363L1058.85 681.078L1057.84 685.23Z" fill="#170B36"/>
<path d="M1071.37 732.416L1071.07 729.695L1067.62 727.133H1070.18H1070.49L1069.34 723.879L1065.28 720.895L1064.68 720.766L1064.98 720.676L1064.07 720.006L1067.86 716.211L1067.54 714.945L1065.11 713.688L1063.48 712.842L1064.96 713.073L1067.15 713.413L1066.47 710.757L1066.19 709.894L1064.12 709.237L1063.44 709.022H1064.07H1065.89L1062.21 697.969L1062.06 697.9L1060.5 697.137H1061.93L1062.22 695.264L1059.43 693.033L1061.33 690.837L1059.22 682.241L1058.85 681.078L1058.21 689.363L1058.97 689.621L1059.43 689.779H1059.04H1058.18L1057.86 693.948L1060.94 703.495L1056.82 705.339L1060.5 713.691L1056.27 725.133L1062.21 731.016L1058.74 738.028H1064.27H1071.89L1073.87 736.527L1071.37 732.416Z" fill="#2B6589"/>
<path d="M1056.27 725.133L1060.5 713.691L1056.82 705.339L1060.94 703.496L1057.86 693.948L1058.18 689.779H1056.7L1056.32 691.338L1054.55 698.693L1057.69 699.684L1053.89 700.391L1051.57 707.041L1056.7 708.457L1051.07 709.73L1049.59 715.389L1053.72 716.521L1048.26 719.209L1045.45 729.114L1054.55 730.812L1044.29 732.368L1043.3 738.028H1058.74L1062.2 731.016L1056.27 725.133Z" fill="#17364A"/>
<path opacity="0.66" d="M1061.84 750.101L1054.97 748.208L1060.39 746.496L1059.27 746.174L1058.89 746.065L1053.27 747.74L1051.81 747.339L1047.96 746.278L1045.9 745.709L1042.72 746.96C1042.4 747.24 1042.04 747.521 1041.64 747.801L1041.51 748.24L1041.18 749.373L1039.7 748.995L1039.52 748.948L1038.11 748.587L1034.81 750.4L1035.79 750.916L1036.67 751.381L1036.91 751.508L1036.63 751.488L1034.78 751.354L1032.03 751.155L1028.81 752.365L1028.93 752.811L1029.14 753.591L1029.28 754.121L1028.54 753.815L1027.44 753.362L1026.54 752.99L1023.49 754.359L1023.9 754.7L1024.57 755.259L1024.79 755.443L1024.34 755.342L1023.02 755.054L1021.89 754.805L1010.34 759.43L1010.49 760.113L1010.51 760.167L1010.64 760.775L1009.43 760.542L1007.67 760.205L1004.16 761.787L1004.52 762.336L1004.92 762.964L1003.62 762.73L1001.97 762.431L984.038 769.41L981.802 770.281L991.926 767.674L999.987 765.598L999.567 765.146L1000.36 764.917L1001.76 765.158L1004.85 764.362L1017.86 761.008L1016.76 760.07L1020.74 760.355L1030.78 757.995L1028.86 756.692L1034.13 757.072L1040.89 755.352L1039.45 754.395L1045.22 754.342L1054.75 751.962L1051.35 750.312L1057.65 751.299L1061.84 750.101Z" fill="#170B36"/>
<path d="M1023.71 739.304L1023.81 745.051H1025.52V739.304H1023.71Z" fill="#080B4A"/>
<path d="M1026.1 739.304H1025.52V745.051H1026.1V739.304Z" fill="#80CEFF"/>
<path d="M1027.98 726.931L1028.61 727.391L1030 726.978L1032.01 726.383L1031.32 723.955L1030.36 723.456L1030.58 724.325L1027.98 726.931Z" fill="#80CEFF"/>
<path d="M1032.39 731.824H1034.05L1032.01 728.229L1030.33 727.868L1028.81 727.541L1031.6 729.589L1032.39 731.824Z" fill="#80CEFF"/>
<path d="M1030.3 719.389L1027.92 712.395L1026.7 711.8L1029.23 719.389H1030.3Z" fill="#80CEFF"/>
<path d="M1035.03 735.976C1034.57 735.421 1034.13 734.855 1033.72 734.279L1032.78 733.583L1032.99 735.451L1034.71 738.273L1033.35 739.303H1036.09L1035.03 735.976Z" fill="#80CEFF"/>
<path d="M1024.79 708.412H1025.77H1027.01L1024.65 701.002L1026.1 706.904L1024.79 708.412Z" fill="#80CEFF"/>
<path d="M1026.51 711.229H1027.92L1027.01 709.286L1025.97 708.877L1024.79 708.412L1026.71 709.943L1026.51 711.229Z" fill="#80CEFF"/>
<path d="M1030.09 722.403L1031.32 722.595L1030.3 720.263L1029.43 719.987L1029.63 720.58L1030.09 722.403Z" fill="#80CEFF"/>
<path d="M1023.71 703.054L1023.09 705.595L1023.96 705.891L1024.4 700.203L1023.71 703.054Z" fill="#17364A"/>
<path d="M1032.99 735.451L1032.78 733.583L1030.41 731.824H1032.17H1032.39L1031.6 729.589L1028.81 727.541L1028.4 727.452L1028.61 727.391L1027.98 726.93L1030.58 724.325L1030.36 723.456L1028.7 722.592L1027.58 722.012L1028.59 722.17L1030.09 722.404L1029.63 720.58L1029.43 719.987L1028.01 719.537L1027.55 719.389H1027.98H1029.23L1026.7 711.8L1026.6 711.753L1025.53 711.229H1026.51L1026.71 709.943L1024.79 708.412L1026.1 706.904L1024.65 701.001L1024.4 700.203L1023.96 705.891L1024.48 706.069L1024.79 706.177H1024.53H1023.94L1023.71 709.04L1025.83 715.595L1023 716.86L1025.53 722.595L1022.63 730.45L1026.7 734.489L1024.32 739.304H1028.12H1033.35L1034.71 738.273L1032.99 735.451Z" fill="#2B6589"/>
<path d="M1022.63 730.45L1025.53 722.595L1023 716.86L1025.83 715.595L1023.71 709.04L1023.94 706.177H1022.92L1022.66 707.248L1021.44 712.298L1023.6 712.977L1020.99 713.463L1019.4 718.029L1022.92 719.001L1019.06 719.875L1018.04 723.761L1020.87 724.538L1017.13 726.383L1015.2 733.184L1021.44 734.349L1014.4 735.418L1013.72 739.304H1024.32L1026.7 734.489L1022.63 730.45Z" fill="#17364A"/>
<path opacity="0.66" d="M1026.45 747.593L1021.73 746.293L1025.45 745.117L1024.69 744.897L1024.43 744.822L1020.56 745.972L1019.57 745.697L1016.92 744.968L1015.5 744.577L1013.32 745.437C1013.1 745.629 1012.85 745.821 1012.58 746.014L1012.49 746.316L1012.26 747.093L1011.25 746.833L1011.13 746.801L1010.16 746.553L1007.89 747.797L1008.56 748.151L1009.17 748.471L1009.33 748.558L1009.14 748.544L1007.87 748.452L1005.98 748.315L1003.77 749.146L1003.86 749.453L1004 749.988L1004.09 750.351L1003.59 750.141L1002.83 749.83L1002.21 749.574L1000.12 750.515L1000.4 750.749L1000.86 751.133L1001.01 751.259L1000.7 751.19L999.798 750.992L999.022 750.821L991.09 753.996L991.196 754.465L991.204 754.502L991.299 754.919L990.465 754.76L989.254 754.528L986.85 755.614L987.092 755.991L987.368 756.422L986.48 756.262L985.343 756.056L973.033 760.848L971.498 761.445L978.448 759.656L983.983 758.23L983.694 757.92L984.239 757.762L985.203 757.928L987.321 757.381L996.253 755.078L995.496 754.434L998.231 754.63L1005.12 753.01L1003.81 752.115L1007.43 752.376L1012.06 751.195L1011.08 750.538L1015.04 750.502L1021.58 748.868L1019.25 747.735L1023.57 748.412L1026.45 747.593Z" fill="#170B36"/>
<path d="M1153.47 729.305L1153.6 736.372H1155.7V729.305H1153.47Z" fill="#080B4A"/>
<path d="M1156.41 729.305H1155.7V736.372H1156.41V729.305Z" fill="#80CEFF"/>
<path d="M1158.72 714.093L1159.49 714.658L1161.2 714.152L1163.67 713.42L1162.83 710.434L1161.65 709.821L1161.92 710.89L1158.72 714.093Z" fill="#80CEFF"/>
<path d="M1164.14 720.109H1166.18L1163.67 715.689L1161.6 715.245L1159.74 714.844L1163.17 717.362L1164.14 720.109Z" fill="#80CEFF"/>
<path d="M1161.57 704.821L1158.64 696.221L1157.14 695.49L1160.26 704.821H1161.57Z" fill="#80CEFF"/>
<path d="M1167.39 725.214C1166.81 724.531 1166.28 723.835 1165.78 723.128L1164.62 722.271L1164.88 724.568L1166.99 728.038L1165.32 729.305H1168.69L1167.39 725.214Z" fill="#80CEFF"/>
<path d="M1154.8 691.324H1156H1157.52L1154.62 682.213L1156.41 689.47L1154.8 691.324Z" fill="#80CEFF"/>
<path d="M1156.91 694.788H1158.64L1157.52 692.399L1156.25 691.896L1154.8 691.324L1157.16 693.207L1156.91 694.788Z" fill="#80CEFF"/>
<path d="M1161.32 708.527L1162.83 708.762L1161.57 705.895L1160.5 705.556L1160.75 706.286L1161.32 708.527Z" fill="#80CEFF"/>
<path d="M1153.46 684.737L1152.71 687.86L1153.77 688.225L1154.31 681.232L1153.46 684.737Z" fill="#17364A"/>
<path d="M1164.88 724.568L1164.62 722.272L1161.71 720.109H1163.87H1164.14L1163.17 717.362L1159.74 714.844L1159.23 714.734L1159.49 714.658L1158.72 714.093L1161.92 710.89L1161.65 709.821L1159.6 708.759L1158.22 708.045L1159.47 708.24L1161.32 708.527L1160.75 706.286L1160.5 705.556L1158.76 705.002L1158.19 704.821H1158.72H1160.26L1157.14 695.49L1157.03 695.432L1155.71 694.788H1156.91L1157.16 693.207L1154.8 691.324L1156.41 689.47L1154.62 682.213L1154.31 681.232L1153.77 688.225L1154.41 688.443L1154.8 688.577H1154.48H1153.75L1153.47 692.096L1156.07 700.155L1152.6 701.712L1155.71 708.762L1152.14 718.42L1157.14 723.386L1154.22 729.305H1158.89H1165.32L1166.99 728.039L1164.88 724.568Z" fill="#2B6589"/>
<path d="M1152.14 718.42L1155.71 708.762L1152.6 701.712L1156.07 700.155L1153.47 692.096L1153.74 688.577H1152.5L1152.18 689.893L1150.68 696.102L1153.33 696.938L1150.12 697.535L1148.17 703.148L1152.5 704.343L1147.75 705.418L1146.49 710.195L1149.98 711.151L1145.37 713.42L1143 721.781L1150.68 723.214L1142.02 724.528L1141.19 729.305H1154.22L1157.14 723.386L1152.14 718.42Z" fill="#17364A"/>
<path opacity="0.66" d="M1156.84 739.497L1151.03 737.899L1155.61 736.453L1154.67 736.182L1154.35 736.09L1149.6 737.504L1148.37 737.166L1145.12 736.27L1143.38 735.789L1140.7 736.845C1140.43 737.082 1140.12 737.318 1139.78 737.555L1139.67 737.926L1139.39 738.882L1138.15 738.562L1138 738.523L1136.81 738.217L1134.02 739.748L1134.84 740.183L1135.59 740.576L1135.79 740.684L1135.56 740.667L1133.99 740.553L1131.67 740.385L1128.96 741.407L1129.06 741.783L1129.23 742.442L1129.35 742.889L1128.73 742.631L1127.8 742.248L1127.04 741.934L1124.47 743.089L1124.81 743.377L1125.37 743.849L1125.56 744.004L1125.18 743.92L1124.07 743.676L1123.12 743.466L1113.36 747.371L1113.49 747.946L1113.5 747.992L1113.62 748.505L1112.6 748.309L1111.11 748.024L1108.15 749.359L1108.45 749.823L1108.79 750.354L1107.69 750.156L1106.3 749.904L1091.16 755.795L1089.27 756.53L1097.82 754.329L1104.62 752.577L1104.27 752.196L1104.94 752.002L1106.12 752.206L1108.73 751.534L1119.71 748.703L1118.78 747.91L1122.14 748.151L1130.61 746.159L1129 745.059L1133.45 745.38L1139.15 743.928L1137.94 743.119L1142.81 743.075L1150.85 741.066L1147.98 739.674L1153.3 740.506L1156.84 739.497Z" fill="#170B36"/>
<path d="M1083.65 743.179L1083.88 756.677H1087.89V743.179H1083.65Z" fill="#080B4A"/>
<path d="M1089.25 743.179H1087.89V756.677H1089.25V743.179Z" fill="#80CEFF"/>
<path d="M1093.67 714.119L1095.14 715.201L1098.41 714.232L1103.12 712.835L1101.52 707.132L1099.26 705.96L1099.78 708.002L1093.67 714.119Z" fill="#80CEFF"/>
<path d="M1104.02 725.611H1107.92L1103.12 717.17L1099.18 716.321L1095.62 715.554L1102.16 720.365L1104.02 725.611Z" fill="#80CEFF"/>
<path d="M1099.12 696.409L1093.52 679.983L1090.66 678.586L1096.61 696.409H1099.12Z" fill="#80CEFF"/>
<path d="M1110.23 735.363C1109.13 734.058 1108.11 732.73 1107.15 731.379L1104.95 729.743L1105.44 734.131L1109.46 740.758L1106.28 743.178H1112.72L1110.23 735.363Z" fill="#80CEFF"/>
<path d="M1086.18 670.628H1088.47H1091.38L1085.85 653.226L1089.25 667.087L1086.18 670.628Z" fill="#80CEFF"/>
<path d="M1090.21 677.245H1093.52L1091.38 672.682L1088.95 671.72L1086.18 670.628L1090.69 674.225L1090.21 677.245Z" fill="#80CEFF"/>
<path d="M1098.63 703.489L1101.52 703.938L1099.12 698.462L1097.08 697.814L1097.54 699.207L1098.63 703.489Z" fill="#80CEFF"/>
<path d="M1083.63 658.047L1082.18 664.012L1084.22 664.709L1085.25 651.351L1083.63 658.047Z" fill="#17364A"/>
<path d="M1105.44 734.13L1104.95 729.743L1099.38 725.611H1103.51H1104.02L1102.16 720.365L1095.62 715.554L1094.65 715.345L1095.14 715.201L1093.67 714.119L1099.78 708.002L1099.26 705.96L1095.35 703.932L1092.72 702.569L1095.1 702.94L1098.63 703.489L1097.54 699.207L1097.08 697.814L1093.74 696.756L1092.65 696.409H1093.67H1096.61L1090.66 678.586L1090.43 678.476L1087.91 677.245H1090.21L1090.69 674.225L1086.18 670.628L1089.25 667.087L1085.85 653.226L1085.25 651.351L1084.22 664.709L1085.44 665.126L1086.18 665.381H1085.56H1084.17L1083.65 672.104L1088.61 687.498L1081.97 690.471L1087.91 703.938L1081.09 722.387L1090.66 731.872L1085.07 743.179H1093.99H1106.28L1109.46 740.758L1105.44 734.13Z" fill="#2B6589"/>
<path d="M1081.09 722.387L1087.91 703.938L1081.97 690.471L1088.61 687.498L1083.65 672.104L1084.17 665.381H1081.78L1081.17 667.894L1078.31 679.754L1083.38 681.352L1077.25 682.492L1073.51 693.215L1081.78 695.497L1072.71 697.55L1070.31 706.675L1076.98 708.501L1068.18 712.835L1063.64 728.805L1078.31 731.543L1061.78 734.053L1060.18 743.179H1085.07L1090.66 731.872L1081.09 722.387Z" fill="#17364A"/>
<path opacity="0.66" d="M1090.07 762.645L1078.99 759.593L1087.73 756.832L1085.93 756.314L1085.32 756.138L1076.25 758.839L1073.91 758.193L1067.69 756.482L1064.36 755.565L1059.24 757.583C1058.73 758.034 1058.14 758.486 1057.49 758.938L1057.29 759.647L1056.76 761.473L1054.38 760.863L1054.09 760.787L1051.82 760.205L1046.49 763.127L1048.06 763.96L1049.49 764.711L1049.87 764.916L1049.43 764.883L1046.44 764.666L1042.01 764.345L1036.82 766.297L1037.01 767.016L1037.34 768.273L1037.57 769.128L1036.38 768.635L1034.61 767.905L1033.15 767.305L1028.24 769.512L1028.9 770.063L1029.98 770.964L1030.33 771.26L1029.6 771.098L1027.48 770.633L1025.66 770.231L1007.03 777.69L1007.28 778.79L1007.3 778.878L1007.52 779.858L1005.57 779.483L1002.72 778.938L997.076 781.489L997.643 782.375L998.291 783.388L996.206 783.011L993.536 782.529L964.625 793.782L961.02 795.185L977.343 790.982L990.341 787.635L989.664 786.906L990.943 786.536L993.208 786.925L998.183 785.643L1019.16 780.233L1017.38 778.72L1023.8 779.18L1039.99 775.374L1036.9 773.274L1045.4 773.886L1056.29 771.113L1053.98 769.569L1063.27 769.484L1078.65 765.646L1073.16 762.986L1083.31 764.577L1090.07 762.645Z" fill="#170B36"/>
<path d="M1199.94 841.104C796.86 605.512 416.889 646.398 174.774 762.854L178.256 841.104H1199.94Z" fill="url(#paint5_linear)"/>
<path d="M808.546 707.629L808.634 712.739H810.152V707.629H808.546Z" fill="#132E40"/>
<path d="M810.666 707.629H810.152V712.739H810.666V707.629Z" fill="#80CEFF"/>
<path d="M812.338 696.629L812.894 697.039L814.132 696.672L815.916 696.143L815.31 693.985L814.454 693.541L814.651 694.314L812.338 696.629Z" fill="#80CEFF"/>
<path d="M816.258 700.979H817.733L815.916 697.784L814.424 697.463L813.077 697.172L815.553 698.993L816.258 700.979Z" fill="#80CEFF"/>
<path d="M814.401 689.926L812.281 683.708L811.2 683.179L813.451 689.926H814.401Z" fill="#80CEFF"/>
<path d="M818.607 704.671C818.193 704.177 817.804 703.674 817.441 703.163L816.608 702.543L816.795 704.204L818.318 706.713L817.113 707.629H819.551L818.607 704.671Z" fill="#80CEFF"/>
<path d="M809.504 680.167H810.373H811.473L809.378 673.579L810.665 678.827L809.504 680.167Z" fill="#80CEFF"/>
<path d="M811.03 682.671H812.281L811.473 680.945L810.552 680.58L809.504 680.167L811.21 681.528L811.03 682.671Z" fill="#80CEFF"/>
<path d="M814.217 692.606L815.31 692.775L814.401 690.703L813.629 690.458L813.805 690.985L814.217 692.606Z" fill="#80CEFF"/>
<path d="M808.538 675.405L807.991 677.663L808.762 677.926L809.152 672.87L808.538 675.405Z" fill="#17364A"/>
<path d="M816.794 704.204L816.608 702.543L814.502 700.979H816.065H816.259L815.553 698.993L813.077 697.172L812.71 697.094L812.895 697.039L812.339 696.629L814.651 694.314L814.454 693.541L812.974 692.773L811.978 692.257L812.881 692.398L814.217 692.605L813.805 690.985L813.629 690.458L812.367 690.057L811.953 689.926H812.34H813.451L811.2 683.179L811.114 683.137L810.161 682.671H811.03L811.21 681.528L809.505 680.167L810.666 678.827L809.378 673.579L809.152 672.87L808.762 677.926L809.223 678.084L809.505 678.18H809.271H808.742L808.546 680.725L810.426 686.552L807.912 687.678L810.161 692.775L807.579 699.759L811.2 703.349L809.084 707.629H812.459H817.112L818.317 706.713L816.794 704.204Z" fill="#2B6589"/>
<path d="M807.579 699.759L810.161 692.775L807.912 687.678L810.426 686.552L808.546 680.725L808.742 678.181H807.839L807.61 679.132L806.527 683.622L808.445 684.226L806.123 684.657L804.709 688.717L807.839 689.58L804.406 690.358L803.498 693.812L806.022 694.502L802.69 696.143L800.974 702.189L806.527 703.224L800.267 704.175L799.661 707.629H809.084L811.2 703.349L807.579 699.759Z" fill="#17364A"/>
<path opacity="0.66" d="M810.977 714.998L806.781 713.842L810.09 712.798L809.41 712.601L809.179 712.535L805.745 713.557L804.858 713.313L802.506 712.665L801.245 712.318L799.307 713.081C799.112 713.252 798.891 713.423 798.646 713.595L798.568 713.862L798.366 714.553L797.467 714.323L797.356 714.294L796.497 714.074L794.48 715.18L795.076 715.495L795.613 715.779L795.76 715.856L795.593 715.844L794.46 715.762L792.783 715.641L790.82 716.379L790.892 716.652L791.018 717.128L791.104 717.451L790.652 717.265L789.982 716.988L789.432 716.761L787.572 717.597L787.821 717.805L788.23 718.146L788.364 718.258L788.087 718.197L787.286 718.02L786.596 717.868L779.545 720.691L779.639 721.108L779.647 721.141L779.731 721.512L778.99 721.37L777.914 721.164L775.776 722.129L775.991 722.465L776.236 722.848L775.447 722.705L774.436 722.523L763.493 726.782L762.129 727.314L768.307 725.722L773.227 724.455L772.971 724.179L773.455 724.039L774.312 724.186L776.196 723.701L784.136 721.654L783.463 721.081L785.894 721.255L792.019 719.814L790.851 719.019L794.067 719.251L798.191 718.201L797.315 717.617L800.833 717.585L806.652 716.133L804.575 715.126L808.418 715.728L810.977 714.998Z" fill="#041A27"/>
<path d="M787.707 708.408L787.767 711.916H788.811V708.408H787.707Z" fill="#132E40"/>
<path d="M789.163 708.408H788.811V711.916H789.163V708.408Z" fill="#80CEFF"/>
<path d="M790.312 700.856L790.694 701.137L791.542 700.885L792.767 700.522L792.352 699.04L791.764 698.735L791.899 699.266L790.312 700.856Z" fill="#80CEFF"/>
<path d="M793.003 703.842H794.015L792.767 701.648L791.743 701.428L790.818 701.229L792.519 702.479L793.003 703.842Z" fill="#80CEFF"/>
<path d="M791.728 696.253L790.272 691.984L789.53 691.621L791.076 696.253H791.728Z" fill="#80CEFF"/>
<path d="M794.615 706.377C794.331 706.038 794.064 705.693 793.815 705.342L793.243 704.916L793.371 706.057L794.416 707.779L793.589 708.408H795.263L794.615 706.377Z" fill="#80CEFF"/>
<path d="M788.366 689.553H788.962H789.718L788.278 685.03L789.163 688.633L788.366 689.553Z" fill="#80CEFF"/>
<path d="M789.412 691.273H790.271L789.717 690.087L789.084 689.836L788.365 689.553L789.536 690.488L789.412 691.273Z" fill="#80CEFF"/>
<path d="M791.601 698.093L792.352 698.21L791.728 696.787L791.197 696.618L791.318 696.98L791.601 698.093Z" fill="#80CEFF"/>
<path d="M787.702 686.283L787.326 687.834L787.855 688.014L788.123 684.543L787.702 686.283Z" fill="#17364A"/>
<path d="M793.371 706.056L793.243 704.916L791.797 703.842H792.87H793.003L792.519 702.479L790.818 701.229L790.566 701.174L790.694 701.137L790.312 700.856L791.899 699.266L791.764 698.735L790.747 698.208L790.064 697.854L790.684 697.95L791.601 698.093L791.318 696.98L791.197 696.618L790.331 696.343L790.047 696.253H790.312H791.076L789.529 691.621L789.471 691.592L788.817 691.273H789.413L789.537 690.488L788.366 689.553L789.163 688.633L788.278 685.03L788.123 684.543L787.855 688.014L788.172 688.123L788.366 688.189H788.205H787.842L787.707 689.937L788.998 693.937L787.272 694.71L788.817 698.21L787.044 703.005L789.529 705.47L788.077 708.408H790.394H793.589L794.417 707.779L793.371 706.056Z" fill="#2B6589"/>
<path d="M787.044 703.005L788.816 698.21L787.272 694.71L788.998 693.937L787.707 689.937L787.842 688.19H787.222L787.064 688.843L786.321 691.925L787.638 692.34L786.044 692.636L785.073 695.423L787.222 696.016L784.865 696.55L784.242 698.921L785.974 699.396L783.687 700.522L782.509 704.673L786.321 705.384L782.023 706.036L781.607 708.408H788.077L789.529 705.47L787.044 703.005Z" fill="#17364A"/>
<path opacity="0.66" d="M789.376 713.467L786.496 712.674L788.768 711.956L788.301 711.822L788.142 711.776L785.784 712.478L785.175 712.31L783.56 711.865L782.695 711.627L781.364 712.151C781.23 712.268 781.078 712.385 780.91 712.503L780.856 712.687L780.717 713.162L780.1 713.003L780.024 712.984L779.434 712.832L778.05 713.591L778.459 713.808L778.828 714.003L778.929 714.056L778.814 714.048L778.036 713.992L776.885 713.908L775.537 714.415L775.586 714.602L775.673 714.929L775.732 715.151L775.422 715.023L774.962 714.833L774.584 714.678L773.307 715.252L773.478 715.395L773.758 715.629L773.85 715.706L773.66 715.664L773.11 715.543L772.637 715.439L767.796 717.377L767.86 717.663L767.865 717.686L767.923 717.941L767.415 717.843L766.676 717.702L765.208 718.365L765.356 718.595L765.524 718.858L764.982 718.76L764.289 718.635L756.775 721.56L755.838 721.924L760.08 720.832L763.458 719.962L763.282 719.773L763.614 719.677L764.202 719.778L765.495 719.445L770.946 718.039L770.484 717.646L772.153 717.766L776.359 716.777L775.558 716.231L777.766 716.39L780.597 715.669L779.995 715.268L782.411 715.246L786.406 714.249L784.98 713.557L787.619 713.971L789.376 713.467Z" fill="#041A27"/>
<path d="M866.905 702.306L866.979 706.619H868.262V702.306H866.905Z" fill="#132E40"/>
<path d="M868.695 702.306H868.261V706.619H868.695V702.306Z" fill="#80CEFF"/>
<path d="M870.107 693.02L870.576 693.366L871.62 693.057L873.126 692.61L872.615 690.788L871.893 690.413L872.059 691.066L870.107 693.02Z" fill="#80CEFF"/>
<path d="M873.415 696.692H874.66L873.126 693.995L871.867 693.724L870.73 693.479L872.82 695.016L873.415 696.692Z" fill="#80CEFF"/>
<path d="M871.848 687.361L870.058 682.113L869.146 681.667L871.046 687.361H871.848Z" fill="#80CEFF"/>
<path d="M875.398 699.808C875.048 699.391 874.72 698.967 874.414 698.535L873.71 698.013L873.868 699.414L875.154 701.532L874.137 702.305H876.195L875.398 699.808Z" fill="#80CEFF"/>
<path d="M867.714 679.124H868.447H869.376L867.607 673.563L868.695 677.992L867.714 679.124Z" fill="#80CEFF"/>
<path d="M869.002 681.238H870.057L869.376 679.78L868.598 679.473L867.714 679.123L869.154 680.273L869.002 681.238Z" fill="#80CEFF"/>
<path d="M871.692 689.623L872.615 689.767L871.848 688.017L871.196 687.81L871.344 688.255L871.692 689.623Z" fill="#80CEFF"/>
<path d="M866.898 675.103L866.436 677.01L867.087 677.232L867.417 672.964L866.898 675.103Z" fill="#17364A"/>
<path d="M873.868 699.414L873.711 698.013L871.933 696.692H873.252H873.416L872.82 695.016L870.73 693.478L870.42 693.412L870.577 693.366L870.107 693.02L872.059 691.066L871.893 690.413L870.643 689.765L869.803 689.329L870.565 689.448L871.692 689.623L871.345 688.255L871.196 687.81L870.13 687.472L869.781 687.361H870.108H871.046L869.146 681.667L869.073 681.631L868.269 681.238H869.003L869.154 680.273L867.714 679.124L868.695 677.992L867.608 673.563L867.417 672.964L867.087 677.232L867.477 677.365L867.714 677.447H867.517H867.071L866.905 679.595L868.492 684.514L866.37 685.464L868.269 689.767L866.089 695.662L869.146 698.693L867.359 702.305H870.209H874.137L875.154 701.532L873.868 699.414Z" fill="#2B6589"/>
<path d="M866.089 695.662L868.269 689.767L866.37 685.464L868.492 684.514L866.905 679.595L867.071 677.447H866.308L866.114 678.25L865.2 682.039L866.82 682.55L864.86 682.915L863.666 686.341L866.308 687.07L863.411 687.726L862.644 690.642L864.774 691.225L861.962 692.61L860.513 697.713L865.2 698.588L859.917 699.39L859.405 702.305H867.359L869.145 698.693L866.089 695.662Z" fill="#17364A"/>
<path opacity="0.66" d="M868.957 708.525L865.416 707.55L868.209 706.668L867.635 706.502L867.44 706.446L864.541 707.309L863.793 707.102L861.807 706.556L860.743 706.263L859.107 706.908C858.942 707.052 858.755 707.197 858.548 707.341L858.483 707.567L858.312 708.151L857.554 707.956L857.459 707.932L856.734 707.746L855.032 708.68L855.535 708.946L855.989 709.186L856.113 709.251L855.971 709.24L855.014 709.171L853.599 709.068L851.942 709.692L852.003 709.922L852.109 710.323L852.182 710.596L851.8 710.439L851.234 710.205L850.77 710.014L849.2 710.719L849.41 710.895L849.755 711.183L849.868 711.277L849.634 711.226L848.959 711.077L848.376 710.949L842.424 713.332L842.503 713.684L842.509 713.712L842.58 714.025L841.955 713.905L841.047 713.731L839.243 714.546L839.425 714.83L839.631 715.153L838.965 715.033L838.112 714.879L828.874 718.475L827.722 718.923L832.937 717.58L837.09 716.511L836.874 716.278L837.283 716.16L838.006 716.284L839.596 715.874L846.299 714.145L845.73 713.662L847.783 713.809L852.953 712.593L851.967 711.922L854.682 712.118L858.163 711.231L857.423 710.738L860.394 710.71L865.306 709.484L863.552 708.634L866.796 709.143L868.957 708.525Z" fill="#041A27"/>
<path d="M824.287 710.773L824.429 719.012H826.878V710.773H824.287Z" fill="#132E40"/>
<path d="M827.706 710.773H826.878V719.012H827.706V710.773Z" fill="#80CEFF"/>
<path d="M830.403 693.037L831.3 693.697L833.295 693.106L836.171 692.253L835.194 688.772L833.815 688.057L834.132 689.303L830.403 693.037Z" fill="#80CEFF"/>
<path d="M836.723 700.051H839.101L836.171 694.899L833.766 694.381L831.593 693.912L835.586 696.849L836.723 700.051Z" fill="#80CEFF"/>
<path d="M833.729 682.228L830.311 672.202L828.567 671.35L832.198 682.228H833.729Z" fill="#80CEFF"/>
<path d="M840.51 706.003C839.841 705.207 839.216 704.396 838.63 703.571L837.286 702.573L837.587 705.25L840.043 709.296L838.1 710.773H842.032L840.51 706.003Z" fill="#80CEFF"/>
<path d="M825.833 666.492H827.234H829.008L825.629 655.871L827.706 664.331L825.833 666.492Z" fill="#80CEFF"/>
<path d="M828.294 670.53H830.311L829.008 667.745L827.522 667.159L825.833 666.492L828.584 668.688L828.294 670.53Z" fill="#80CEFF"/>
<path d="M833.432 686.548L835.194 686.822L833.729 683.48L832.484 683.085L832.767 683.935L833.432 686.548Z" fill="#80CEFF"/>
<path d="M824.274 658.813L823.393 662.454L824.636 662.879L825.265 654.726L824.274 658.813Z" fill="#17364A"/>
<path d="M837.588 705.25L837.286 702.572L833.892 700.051H836.411H836.723L835.587 696.849L831.594 693.912L831.002 693.785L831.3 693.697L830.403 693.037L834.132 689.302L833.815 688.057L831.427 686.819L829.822 685.987L831.278 686.213L833.432 686.548L832.767 683.935L832.484 683.085L830.449 682.439L829.781 682.228H830.405H832.198L828.567 671.349L828.429 671.282L826.892 670.53H828.294L828.584 668.688L825.834 666.492L827.706 664.331L825.629 655.871L825.265 654.726L824.636 662.879L825.379 663.134L825.834 663.29H825.457H824.604L824.287 667.393L827.318 676.788L823.266 678.603L826.892 686.822L822.729 698.083L828.567 703.872L825.155 710.773H830.597H838.1L840.044 709.296L837.588 705.25Z" fill="#2B6589"/>
<path d="M822.729 698.083L826.892 686.822L823.266 678.602L827.318 676.788L824.287 667.393L824.604 663.29H823.148L822.777 664.824L821.032 672.062L824.125 673.037L820.381 673.733L818.102 680.278L823.148 681.67L817.613 682.923L816.148 688.493L820.217 689.607L814.845 692.253L812.078 702L821.032 703.671L810.938 705.203L809.961 710.773H825.155L828.567 703.872L822.729 698.083Z" fill="#17364A"/>
<path opacity="0.66" d="M828.207 722.654L821.443 720.791L826.778 719.106L825.681 718.79L825.308 718.682L819.771 720.331L818.34 719.936L814.548 718.892L812.516 718.332L809.391 719.564C809.074 719.839 808.719 720.115 808.324 720.391L808.198 720.824L807.872 721.938L806.423 721.567L806.242 721.52L804.858 721.165L801.607 722.949L802.568 723.456L803.435 723.915L803.67 724.04L803.4 724.02L801.573 723.888L798.87 723.692L795.705 724.883L795.821 725.322L796.025 726.09L796.163 726.611L795.435 726.311L794.354 725.865L793.467 725.498L790.468 726.846L790.87 727.181L791.528 727.731L791.745 727.912L791.298 727.813L790.008 727.529L788.895 727.284L777.524 731.836L777.676 732.508L777.688 732.561L777.824 733.159L776.63 732.931L774.895 732.598L771.448 734.155L771.795 734.696L772.19 735.314L770.917 735.084L769.288 734.789L751.642 741.658L749.442 742.514L759.405 739.949L767.337 737.906L766.924 737.462L767.705 737.236L769.087 737.473L772.123 736.69L784.927 733.389L783.841 732.466L787.761 732.746L797.637 730.423L795.755 729.141L800.939 729.515L807.59 727.823L806.176 726.88L811.851 726.829L821.233 724.486L817.883 722.863L824.08 723.834L828.207 722.654Z" fill="#041A27"/>
<path d="M1720.04 936.638C1583.34 805.824 1449.94 764.965 1277.5 738.469C1105.07 711.972 929.618 730.85 759.001 771.202V936.638H1720.04Z" fill="url(#paint6_linear)"/>
<path d="M1824 841.005C1794.74 830.252 1764.94 820.616 1734.53 812.437C1577.76 770.275 1409.59 768.103 1246.26 783.617C1114.99 796.085 982.89 820.453 867.829 875.919V984H1824V841.005Z" fill="url(#paint7_linear)"/>
<path d="M1217.95 785.086L1218.3 805.429H1224.35V785.086H1217.95Z" fill="#132E40"/>
<path d="M1226.39 785.086H1224.35V805.429H1226.39V785.086Z" fill="#80CEFF"/>
<path d="M1233.05 741.293L1235.27 742.922L1240.19 741.462L1247.29 739.357L1244.88 730.762L1241.48 728.996L1242.26 732.073L1233.05 741.293Z" fill="#80CEFF"/>
<path d="M1248.66 758.612H1254.53L1247.29 745.89L1241.36 744.61L1235.99 743.454L1245.85 750.705L1248.66 758.612Z" fill="#80CEFF"/>
<path d="M1241.27 714.602L1232.82 689.847L1228.52 687.742L1237.48 714.602H1241.27Z" fill="#80CEFF"/>
<path d="M1258.01 773.308C1256.36 771.341 1254.81 769.339 1253.37 767.303L1250.05 764.838L1250.79 771.45L1256.86 781.438L1252.06 785.085H1261.77L1258.01 773.308Z" fill="#80CEFF"/>
<path d="M1221.77 675.749H1225.23H1229.61L1221.26 649.522L1226.39 670.413L1221.77 675.749Z" fill="#80CEFF"/>
<path d="M1227.84 685.721H1232.82L1229.61 678.844L1225.94 677.395L1221.77 675.749L1228.56 681.17L1227.84 685.721Z" fill="#80CEFF"/>
<path d="M1240.53 725.272L1244.88 725.948L1241.27 717.696L1238.19 716.72L1238.89 718.819L1240.53 725.272Z" fill="#80CEFF"/>
<path d="M1217.92 656.788L1215.74 665.779L1218.81 666.829L1220.36 646.697L1217.92 656.788Z" fill="#17364A"/>
<path d="M1250.79 771.45L1250.05 764.838L1241.67 758.612H1247.89H1248.66L1245.85 750.705L1235.99 743.454L1234.53 743.14L1235.27 742.922L1233.05 741.293L1242.26 732.073L1241.48 728.996L1235.58 725.939L1231.62 723.885L1235.21 724.444L1240.53 725.271L1238.89 718.819L1238.19 716.72L1233.16 715.125L1231.52 714.602H1233.06H1237.48L1228.52 687.742L1228.18 687.575L1224.38 685.721H1227.84L1228.56 681.17L1221.77 675.749L1226.39 670.413L1221.26 649.522L1220.36 646.697L1218.81 666.829L1220.65 667.458L1221.77 667.842H1220.84H1218.73L1217.95 677.972L1225.44 701.172L1215.43 705.652L1224.38 725.948L1214.1 753.752L1228.52 768.046L1220.09 785.086H1233.53H1252.06L1256.86 781.438L1250.79 771.45Z" fill="#2B6589"/>
<path d="M1214.1 753.752L1224.38 725.948L1215.43 705.652L1225.44 701.172L1217.95 677.972L1218.73 667.842H1215.14L1214.22 671.629L1209.91 689.503L1217.55 691.909L1208.31 693.629L1202.68 709.788L1215.14 713.227L1201.47 716.321L1197.85 730.074L1207.9 732.825L1194.64 739.357L1187.81 763.424L1209.91 767.551L1184.99 771.333L1182.58 785.086H1220.1L1228.52 768.046L1214.1 753.752Z" fill="#17364A"/>
<path opacity="0.66" d="M1227.63 814.423L1210.93 809.823L1224.1 805.663L1221.39 804.881L1220.47 804.616L1206.8 808.686L1203.27 807.713L1193.91 805.135L1188.89 803.752L1181.17 806.793C1180.39 807.474 1179.51 808.154 1178.54 808.836L1178.22 809.903L1177.42 812.655L1173.84 811.737L1173.4 811.622L1169.98 810.745L1161.95 815.149L1164.32 816.404L1166.47 817.536L1167.05 817.844L1166.38 817.796L1161.87 817.469L1155.2 816.985L1147.38 819.926L1147.67 821.01L1148.17 822.904L1148.51 824.192L1146.71 823.45L1144.04 822.349L1141.85 821.444L1134.45 824.771L1135.44 825.601L1137.06 826.959L1137.6 827.405L1136.5 827.163L1133.31 826.461L1130.56 825.855L1102.49 837.095L1102.86 838.753L1102.89 838.886L1103.23 840.362L1100.28 839.797L1095.99 838.976L1087.48 842.821L1088.34 844.156L1089.31 845.682L1086.17 845.114L1082.15 844.388L1038.58 861.347L1033.14 863.462L1057.74 857.127L1077.33 852.083L1076.31 850.985L1078.24 850.428L1081.65 851.014L1089.15 849.081L1120.76 840.929L1118.08 838.648L1127.76 839.342L1152.15 833.607L1147.5 830.441L1160.3 831.364L1176.72 827.185L1173.23 824.857L1187.24 824.73L1210.41 818.946L1202.14 814.937L1217.44 817.334L1227.63 814.423Z" fill="#17364A"/>
<path d="M1134.99 788.186L1135.23 802.154H1139.38V788.186H1134.99Z" fill="#132E40"/>
<path d="M1140.78 788.186H1139.38V802.154H1140.78V788.186Z" fill="#80CEFF"/>
<path d="M1145.35 758.119L1146.88 759.238L1150.26 758.235L1155.13 756.79L1153.48 750.889L1151.14 749.676L1151.68 751.789L1145.35 758.119Z" fill="#80CEFF"/>
<path d="M1156.07 770.01H1160.1L1155.13 761.276L1151.06 760.397L1147.37 759.603L1154.14 764.581L1156.07 770.01Z" fill="#80CEFF"/>
<path d="M1150.99 739.794L1145.2 722.798L1142.24 721.353L1148.4 739.794H1150.99Z" fill="#80CEFF"/>
<path d="M1162.49 780.1C1161.36 778.75 1160.29 777.376 1159.3 775.977L1157.02 774.285L1157.53 778.825L1161.7 785.682L1158.4 788.187H1165.07L1162.49 780.1Z" fill="#80CEFF"/>
<path d="M1137.61 713.119H1139.98H1142.99L1137.26 695.112L1140.78 709.455L1137.61 713.119Z" fill="#80CEFF"/>
<path d="M1141.78 719.965H1145.2L1142.99 715.243L1140.47 714.249L1137.61 713.119L1142.27 716.84L1141.78 719.965Z" fill="#80CEFF"/>
<path d="M1150.49 747.12L1153.48 747.584L1150.99 741.919L1148.88 741.248L1149.36 742.689L1150.49 747.12Z" fill="#80CEFF"/>
<path d="M1134.97 700.101L1133.47 706.274L1135.58 706.994L1136.64 693.172L1134.97 700.101Z" fill="#17364A"/>
<path d="M1157.53 778.824L1157.02 774.284L1151.27 770.01H1155.54H1156.07L1154.14 764.581L1147.37 759.603L1146.37 759.387L1146.88 759.237L1145.35 758.119L1151.68 751.789L1151.14 749.676L1147.09 747.578L1144.37 746.168L1146.84 746.551L1150.49 747.12L1149.36 742.689L1148.88 741.248L1145.43 740.153L1144.3 739.794H1145.36H1148.4L1142.24 721.353L1142.01 721.238L1139.4 719.965H1141.78L1142.27 716.84L1137.61 713.118L1140.78 709.455L1137.26 695.112L1136.64 693.172L1135.58 706.994L1136.84 707.425L1137.61 707.69H1136.97H1135.52L1134.99 714.645L1140.13 730.574L1133.25 733.65L1139.4 747.584L1132.34 766.673L1142.24 776.487L1136.46 788.186H1145.68H1158.4L1161.7 785.682L1157.53 778.824Z" fill="#2B6589"/>
<path d="M1132.34 766.673L1139.4 747.584L1133.25 733.65L1140.13 730.574L1134.99 714.645L1135.52 707.69H1133.06L1132.43 710.29L1129.47 722.562L1134.71 724.214L1128.36 725.394L1124.5 736.489L1133.06 738.85L1123.67 740.974L1121.19 750.417L1128.09 752.305L1118.98 756.79L1114.29 773.314L1129.47 776.147L1112.36 778.744L1110.7 788.186H1136.46L1142.24 776.487L1132.34 766.673Z" fill="#17364A"/>
<path opacity="0.66" d="M1141.63 808.329L1130.16 805.17L1139.21 802.314L1137.35 801.777L1136.72 801.595L1127.33 804.39L1124.91 803.722L1118.48 801.951L1115.03 801.002L1109.73 803.09C1109.2 803.557 1108.59 804.025 1107.92 804.493L1107.71 805.225L1107.16 807.114L1104.7 806.484L1104.4 806.405L1102.05 805.803L1096.54 808.827L1098.17 809.688L1099.64 810.466L1100.04 810.677L1099.58 810.643L1096.48 810.419L1091.9 810.087L1086.53 812.106L1086.73 812.85L1087.08 814.151L1087.31 815.035L1086.08 814.526L1084.24 813.77L1082.74 813.149L1077.66 815.433L1078.34 816.002L1079.45 816.935L1079.82 817.241L1079.06 817.074L1076.87 816.593L1074.99 816.177L1055.71 823.894L1055.97 825.033L1055.99 825.123L1056.22 826.137L1054.2 825.749L1051.25 825.186L1045.41 827.825L1046 828.742L1046.67 829.789L1044.51 829.399L1041.75 828.9L1011.84 840.544L1008.11 841.996L1025 837.647L1038.44 834.184L1037.74 833.43L1039.07 833.047L1041.41 833.449L1046.56 832.122L1068.26 826.525L1066.42 824.959L1073.07 825.435L1089.81 821.497L1086.62 819.324L1095.41 819.957L1106.68 817.088L1104.29 815.49L1113.91 815.403L1129.81 811.432L1124.14 808.679L1134.64 810.325L1141.63 808.329Z" fill="#17364A"/>
<path d="M1450.3 763.89L1450.6 781.063H1455.7V763.89H1450.3Z" fill="#132E40"/>
<path d="M1457.43 763.89H1455.7V781.063H1457.43V763.89Z" fill="#80CEFF"/>
<path d="M1463.05 726.923L1464.92 728.298L1469.07 727.066L1475.07 725.289L1473.03 718.034L1470.16 716.543L1470.82 719.14L1463.05 726.923Z" fill="#80CEFF"/>
<path d="M1476.22 741.542H1481.18L1475.07 730.804L1470.06 729.723L1465.53 728.748L1473.85 734.868L1476.22 741.542Z" fill="#80CEFF"/>
<path d="M1469.98 704.393L1462.86 683.496L1459.22 681.719L1466.79 704.393H1469.98Z" fill="#80CEFF"/>
<path d="M1484.12 753.948C1482.72 752.288 1481.42 750.598 1480.2 748.879L1477.4 746.798L1478.02 752.38L1483.14 760.811L1479.09 763.89H1487.29L1484.12 753.948Z" fill="#80CEFF"/>
<path d="M1453.52 671.595H1456.44H1460.14L1453.1 649.456L1457.43 667.091L1453.52 671.595Z" fill="#80CEFF"/>
<path d="M1458.65 680.013H1462.86L1460.14 674.208L1457.04 672.985L1453.52 671.595L1459.26 676.172L1458.65 680.013Z" fill="#80CEFF"/>
<path d="M1469.36 713.399L1473.03 713.97L1469.98 707.005L1467.38 706.18L1467.98 707.952L1469.36 713.399Z" fill="#80CEFF"/>
<path d="M1450.27 655.59L1448.44 663.179L1451.03 664.066L1452.34 647.071L1450.27 655.59Z" fill="#17364A"/>
<path d="M1478.02 752.38L1477.4 746.799L1470.32 741.542H1475.57H1476.22L1473.85 734.868L1465.53 728.748L1464.3 728.483L1464.92 728.298L1463.05 726.923L1470.82 719.14L1470.16 716.543L1465.18 713.963L1461.84 712.229L1464.87 712.701L1469.36 713.399L1467.98 707.952L1467.38 706.18L1463.14 704.834L1461.75 704.393H1463.05H1466.79L1459.22 681.719L1458.93 681.578L1455.73 680.013H1458.65L1459.26 676.171L1453.52 671.595L1457.43 667.091L1453.1 649.456L1452.34 647.071L1451.03 664.066L1452.58 664.596L1453.52 664.921H1452.74H1450.96L1450.3 673.472L1456.62 693.056L1448.17 696.838L1455.73 713.97L1447.05 737.441L1459.22 749.506L1452.11 763.89H1463.45H1479.09L1483.14 760.811L1478.02 752.38Z" fill="#2B6589"/>
<path d="M1447.05 737.441L1455.73 713.97L1448.17 696.838L1456.62 693.056L1450.3 673.472L1450.96 664.921H1447.93L1447.15 668.118L1443.52 683.205L1449.96 685.237L1442.16 686.688L1437.41 700.329L1447.93 703.232L1436.39 705.844L1433.34 717.453L1441.82 719.775L1430.62 725.289L1424.85 745.606L1443.52 749.089L1422.48 752.281L1420.44 763.89H1452.11L1459.22 749.506L1447.05 737.441Z" fill="#17364A"/>
<path opacity="0.66" d="M1458.47 788.656L1444.37 784.772L1455.49 781.26L1453.21 780.601L1452.43 780.377L1440.89 783.813L1437.91 782.992L1430 780.815L1425.77 779.648L1419.25 782.215C1418.59 782.789 1417.85 783.364 1417.03 783.94L1416.77 784.841L1416.09 787.164L1413.07 786.389L1412.69 786.292L1409.81 785.551L1403.03 789.269L1405.03 790.328L1406.84 791.284L1407.33 791.543L1406.77 791.503L1402.96 791.227L1397.33 790.818L1390.73 793.301L1390.97 794.216L1391.39 795.815L1391.68 796.902L1390.16 796.276L1387.91 795.346L1386.06 794.583L1379.81 797.391L1380.65 798.091L1382.02 799.238L1382.47 799.614L1381.54 799.409L1378.85 798.817L1376.53 798.306L1352.83 807.795L1353.15 809.194L1353.17 809.306L1353.46 810.551L1350.97 810.075L1347.35 809.382L1340.17 812.627L1340.89 813.754L1341.71 815.042L1339.06 814.563L1335.66 813.95L1298.89 828.266L1294.3 830.051L1315.06 824.704L1331.6 820.446L1330.74 819.518L1332.37 819.048L1335.25 819.542L1341.58 817.911L1368.26 811.029L1366 809.104L1374.17 809.689L1394.76 804.848L1390.83 802.176L1401.64 802.955L1415.5 799.427L1412.56 797.463L1424.38 797.355L1443.94 792.473L1436.96 789.088L1449.88 791.112L1458.47 788.656Z" fill="#17364A"/>
<path d="M1280.62 797.602L1281.19 830.404H1290.94V797.602H1280.62Z" fill="#132E40"/>
<path d="M1294.23 797.602H1290.94V830.404H1294.23V797.602Z" fill="#80CEFF"/>
<path d="M1304.97 726.989L1308.55 729.616L1316.49 727.262L1327.94 723.868L1324.05 710.009L1318.56 707.162L1319.82 712.122L1304.97 726.989Z" fill="#80CEFF"/>
<path d="M1330.14 754.915H1339.6L1327.94 734.402L1318.36 732.339L1309.71 730.475L1325.61 742.165L1330.14 754.915Z" fill="#80CEFF"/>
<path d="M1318.22 683.953L1304.61 644.036L1297.66 640.643L1312.12 683.953H1318.22Z" fill="#80CEFF"/>
<path d="M1345.22 778.612C1342.55 775.441 1340.06 772.213 1337.73 768.929L1332.38 764.954L1333.58 775.616L1343.35 791.721L1335.62 797.602H1351.27L1345.22 778.612Z" fill="#80CEFF"/>
<path d="M1286.78 621.305H1292.35H1299.42L1285.97 579.016L1294.23 612.701L1286.78 621.305Z" fill="#80CEFF"/>
<path d="M1296.58 637.384H1304.61L1299.42 626.295L1293.5 623.959L1286.78 621.305L1297.73 630.046L1296.58 637.384Z" fill="#80CEFF"/>
<path d="M1317.03 701.156L1324.05 702.247L1318.22 688.942L1313.26 687.367L1314.39 690.751L1317.03 701.156Z" fill="#80CEFF"/>
<path d="M1280.57 590.732L1277.06 605.229L1282.01 606.922L1284.52 574.46L1280.57 590.732Z" fill="#17364A"/>
<path d="M1333.58 775.615L1332.38 764.953L1318.86 754.914H1328.89H1330.14L1325.61 742.165L1309.71 730.475L1307.36 729.967L1308.55 729.616L1304.97 726.989L1319.82 712.122L1318.56 707.161L1309.05 702.233L1302.66 698.92L1308.46 699.822L1317.03 701.156L1314.39 690.751L1313.26 687.367L1305.15 684.795L1302.5 683.953H1304.98H1312.12L1297.66 640.643L1297.11 640.374L1290.99 637.384H1296.58L1297.73 630.046L1286.78 621.305L1294.23 612.701L1285.97 579.016L1284.52 574.46L1282.01 606.922L1284.97 607.935L1286.78 608.555H1285.28H1281.88L1280.62 624.89L1292.69 662.298L1276.56 669.522L1290.99 702.247L1274.42 747.079L1297.66 770.126L1284.08 797.601H1305.75H1335.62L1343.35 791.72L1333.58 775.615Z" fill="#2B6589"/>
<path d="M1274.42 747.079L1290.99 702.247L1276.56 669.522L1292.69 662.298L1280.62 624.89L1281.88 608.555H1276.09L1274.61 614.662L1267.66 643.482L1279.98 647.363L1265.07 650.134L1256 676.191L1276.09 681.736L1254.05 686.724L1248.22 708.9L1264.42 713.336L1243.03 723.868L1232.02 762.675L1267.66 769.328L1227.48 775.426L1223.59 797.602H1284.08L1297.66 770.127L1274.42 747.079Z" fill="#17364A"/>
<path opacity="0.66" d="M1296.23 844.907L1269.3 837.488L1290.54 830.78L1286.17 829.521L1284.69 829.092L1262.65 835.655L1256.95 834.087L1241.85 829.929L1233.76 827.699L1221.32 832.602C1220.06 833.7 1218.64 834.798 1217.07 835.897L1216.57 837.617L1215.27 842.055L1209.5 840.574L1208.78 840.389L1203.27 838.974L1190.33 846.076L1194.15 848.099L1197.61 849.924L1198.55 850.42L1197.47 850.343L1190.2 849.816L1179.44 849.036L1166.83 853.779L1167.29 855.526L1168.1 858.581L1168.65 860.657L1165.75 859.46L1161.45 857.685L1157.92 856.227L1145.98 861.591L1147.58 862.928L1150.2 865.118L1151.06 865.837L1149.28 865.445L1144.14 864.314L1139.71 863.339L1094.45 881.462L1095.05 884.136L1095.1 884.349L1095.64 886.729L1090.88 885.818L1083.97 884.495L1070.25 890.693L1071.63 892.847L1073.21 895.307L1068.14 894.392L1061.65 893.219L991.398 920.565L982.638 923.975L1022.3 913.76L1053.89 905.627L1052.24 903.856L1055.35 902.958L1060.85 903.902L1072.94 900.785L1123.92 887.641L1119.6 883.964L1135.2 885.081L1174.52 875.834L1167.03 870.73L1187.67 872.218L1214.15 865.479L1208.52 861.727L1231.11 861.521L1268.47 852.195L1255.13 845.731L1279.81 849.596L1296.23 844.907Z" fill="#17364A"/>
<path d="M1220.8 984C1047.37 818.608 877.992 766.81 659.215 733.193C439.987 699.505 216.924 691.931 0 743.176V778.277H0.01856L0 984H1220.8Z" fill="url(#paint8_linear)"/>
<path d="M321.039 691.901L321.858 739.453H335.993V691.901H321.039Z" fill="#132E40"/>
<path d="M340.769 691.901H335.993V739.453H340.769V691.901Z" fill="#80CEFF"/>
<path d="M356.335 589.54L361.514 593.348L373.023 589.936L389.627 585.016L383.99 564.926L376.028 560.798L377.855 567.989L356.335 589.54Z" fill="#80CEFF"/>
<path d="M392.813 630.021H406.539L389.627 600.286L375.748 597.295L363.206 594.593L386.254 611.54L392.813 630.021Z" fill="#80CEFF"/>
<path d="M375.533 527.154L355.803 469.291L345.74 464.372L366.693 527.154H375.533Z" fill="#80CEFF"/>
<path d="M414.673 664.373C410.811 659.776 407.199 655.097 403.822 650.336L396.064 644.574L397.802 660.029L411.974 683.376L400.762 691.901H423.451L414.673 664.373Z" fill="#80CEFF"/>
<path d="M329.965 436.339H338.044H348.286L328.783 375.036L340.769 423.867L329.965 436.339Z" fill="#80CEFF"/>
<path d="M344.164 459.647H355.803L348.286 443.573L339.707 440.186L329.965 436.339L345.837 449.01L344.164 459.647Z" fill="#80CEFF"/>
<path d="M373.816 552.092L383.99 553.674L375.533 534.386L368.345 532.104L369.982 537.009L373.816 552.092Z" fill="#80CEFF"/>
<path d="M320.968 392.02L315.875 413.035L323.049 415.49L326.682 368.433L320.968 392.02Z" fill="#17364A"/>
<path d="M397.802 660.029L396.065 644.574L376.472 630.021H391.012H392.813L386.254 611.54L363.206 594.593L359.795 593.858L361.514 593.348L356.335 589.54L377.855 567.989L376.028 560.798L362.248 553.653L352.984 548.852L361.388 550.159L373.816 552.092L369.982 537.009L368.345 532.104L356.599 528.375L352.748 527.154H356.348H366.693L345.74 464.372L344.942 463.981L336.073 459.647H344.164L345.837 449.01L329.965 436.339L340.769 423.867L328.783 375.036L326.682 368.433L323.049 415.49L327.342 416.958L329.965 417.857H327.788H322.867L321.039 441.536L338.534 495.763L315.144 506.235L336.073 553.674L312.044 618.663L345.74 652.073L326.05 691.901H357.455H400.762L411.974 683.377L397.802 660.029Z" fill="#2B6589"/>
<path d="M312.044 618.663L336.073 553.674L315.144 506.235L338.534 495.763L321.039 441.536L322.866 417.857H314.463L312.326 426.709L302.25 468.487L320.1 474.112L298.492 478.131L285.338 515.902L314.463 523.94L282.52 531.172L274.063 563.318L297.551 569.748L266.546 585.016L250.575 641.272L302.25 650.915L243.997 659.756L238.36 691.901H326.05L345.74 652.073L312.044 618.663Z" fill="#17364A"/>
<path opacity="0.66" d="M343.663 760.476L304.622 749.723L335.414 739.999L329.085 738.172L326.933 737.552L294.978 747.066L286.72 744.792L264.836 738.764L253.105 735.533L235.069 742.641C233.245 744.232 231.191 745.823 228.911 747.416L228.183 749.91L226.305 756.343L217.942 754.196L216.9 753.929L208.909 751.878L190.145 762.173L195.691 765.105L200.697 767.752L202.058 768.471L200.501 768.359L189.955 767.595L174.355 766.464L156.084 773.339L156.754 775.872L157.927 780.301L158.726 783.31L154.523 781.576L148.287 779.003L143.162 776.888L125.855 784.665L128.174 786.604L131.974 789.779L133.224 790.821L130.648 790.254L123.197 788.614L116.774 787.2L51.1532 813.473L52.0287 817.348L52.0985 817.658L52.8799 821.108L45.9871 819.787L35.9717 817.869L16.0812 826.855L18.0818 829.976L20.3621 833.542L13.0162 832.215L3.61142 830.516L0.0178223 831.915V845.584L2.45238 846.002L19.9781 841.483L93.8725 822.43L87.6089 817.1L110.232 818.72L167.231 805.315L156.368 797.916L186.291 800.073L224.673 790.305L216.518 784.865L249.265 784.567L303.416 771.048L284.085 761.677L319.853 767.28L343.663 760.476Z" fill="#041A27"/>
<path d="M127.117 699.149L127.68 731.796H137.384V699.149H127.117Z" fill="#132E40"/>
<path d="M140.664 699.149H137.384V731.796H140.664V699.149Z" fill="#80CEFF"/>
<path d="M151.351 628.87L154.907 631.485L162.809 629.142L174.208 625.764L170.338 611.971L164.872 609.137L166.127 614.074L151.351 628.87Z" fill="#80CEFF"/>
<path d="M176.395 656.664H185.819L174.208 636.248L164.68 634.195L156.068 632.339L171.892 643.974L176.395 656.664Z" fill="#80CEFF"/>
<path d="M164.532 586.038L150.985 546.31L144.077 542.933L158.463 586.038H164.532Z" fill="#80CEFF"/>
<path d="M191.404 680.249C188.752 677.093 186.273 673.88 183.954 670.612L178.628 666.656L179.821 677.266L189.551 693.296L181.854 699.149H197.431L191.404 680.249Z" fill="#80CEFF"/>
<path d="M133.246 523.686H138.793H145.825L132.435 481.598L140.664 515.123L133.246 523.686Z" fill="#80CEFF"/>
<path d="M142.995 539.689H150.986L145.825 528.653L139.934 526.328L133.246 523.687L144.143 532.386L142.995 539.689Z" fill="#80CEFF"/>
<path d="M163.352 603.159L170.338 604.245L164.532 591.003L159.597 589.436L160.721 592.804L163.352 603.159Z" fill="#80CEFF"/>
<path d="M127.068 493.258L123.573 507.687L128.498 509.371L130.992 477.063L127.068 493.258Z" fill="#17364A"/>
<path d="M179.821 677.266L178.628 666.655L165.177 656.664H175.159H176.396L171.893 643.974L156.069 632.339L153.727 631.835L154.907 631.485L151.351 628.87L166.127 614.074L164.872 609.136L155.411 604.231L149.05 600.935L154.821 601.832L163.352 603.159L160.721 592.804L159.597 589.436L151.532 586.876L148.888 586.038H151.36H158.463L144.077 542.933L143.529 542.665L137.439 539.689H142.995L144.143 532.386L133.246 523.686L140.664 515.123L132.435 481.597L130.992 477.063L128.498 509.371L131.445 510.38L133.246 510.997H131.752H128.373L127.118 527.254L139.13 564.485L123.07 571.675L137.439 604.245L120.942 648.865L144.077 671.804L130.558 699.149H152.12H181.853L189.551 693.296L179.821 677.266Z" fill="#2B6589"/>
<path d="M120.942 648.865L137.439 604.245L123.07 571.675L139.13 564.485L127.117 527.254L128.373 510.997H122.603L121.136 517.075L114.218 545.758L126.474 549.621L111.638 552.379L102.606 578.313L122.603 583.831L100.671 588.796L94.8653 610.867L110.991 615.282L89.7044 625.764L78.7392 664.387L114.218 671.009L74.2228 677.078L70.3521 699.149H130.558L144.077 671.804L120.942 648.865Z" fill="#17364A"/>
<path opacity="0.66" d="M142.651 746.23L115.846 738.847L136.988 732.17L132.642 730.917L131.164 730.49L109.225 737.023L103.555 735.461L88.5306 731.323L80.4755 729.104L68.0928 733.984C66.841 735.077 65.4304 736.169 63.865 737.263L63.3645 738.975L62.0749 743.392L56.3334 741.918L55.6179 741.734L50.1318 740.326L37.2486 747.395L41.0566 749.407L44.4934 751.224L45.4278 751.718L44.359 751.64L37.1187 751.116L26.4083 750.339L13.8643 755.059L14.3245 756.798L15.1296 759.839L15.6781 761.906L12.7923 760.715L8.51008 758.948L4.992 757.497L0 759.74V778.277H0.01856V782.069L21.5174 777.012L14.0595 771.932L34.6042 773.414L60.9562 766.707L55.3574 762.972L77.8406 762.767L115.02 753.485L101.747 747.052L126.304 750.899L142.651 746.23Z" fill="#041A27"/>
<path d="M729.82 726.833L730.276 753.313H738.147V726.833H729.82Z" fill="#132E40"/>
<path d="M740.807 726.833H738.147V753.313H740.807V726.833Z" fill="#80CEFF"/>
<path d="M749.475 669.829L752.36 671.95L758.769 670.05L768.015 667.31L764.876 656.122L760.442 653.823L761.46 657.828L749.475 669.829Z" fill="#80CEFF"/>
<path d="M769.789 692.373H777.433L768.015 675.813L760.287 674.148L753.302 672.643L766.137 682.081L769.789 692.373Z" fill="#80CEFF"/>
<path d="M760.167 635.087L749.18 602.864L743.576 600.125L755.244 635.087H760.167Z" fill="#80CEFF"/>
<path d="M781.963 711.503C779.812 708.943 777.801 706.337 775.92 703.686L771.6 700.477L772.568 709.084L780.46 722.085L774.216 726.833H786.852L781.963 711.503Z" fill="#80CEFF"/>
<path d="M734.79 584.514H739.29H744.993L734.132 550.375L740.807 577.568L734.79 584.514Z" fill="#80CEFF"/>
<path d="M742.698 597.493H749.18L744.993 588.542L740.216 586.656L734.791 584.514L743.629 591.57L742.698 597.493Z" fill="#80CEFF"/>
<path d="M759.21 648.975L764.876 649.856L760.167 639.115L756.164 637.844L757.075 640.576L759.21 648.975Z" fill="#80CEFF"/>
<path d="M729.78 559.833L726.944 571.536L730.939 572.903L732.962 546.697L729.78 559.833Z" fill="#17364A"/>
<path d="M772.568 709.084L771.6 700.477L760.69 692.373H768.787H769.79L766.137 682.081L753.302 672.643L751.402 672.234L752.36 671.95L749.475 669.829L761.46 657.828L760.442 653.823L752.768 649.845L747.61 647.171L752.289 647.899L759.21 648.975L757.075 640.576L756.164 637.844L749.622 635.767L747.478 635.087H749.483H755.244L743.576 600.125L743.131 599.908L738.191 597.494H742.698L743.63 591.57L734.79 584.514L740.807 577.568L734.132 550.375L732.962 546.697L730.939 572.903L733.33 573.721L734.79 574.221H733.578H730.837L729.82 587.408L739.563 617.606L726.537 623.438L738.191 649.856L724.81 686.048L743.576 704.653L732.61 726.833H750.099H774.216L780.46 722.085L772.568 709.084Z" fill="#2B6589"/>
<path d="M724.81 686.047L738.191 649.856L726.537 623.438L739.563 617.606L729.82 587.407L730.837 574.221H726.157L724.968 579.151L719.356 602.416L729.297 605.549L717.263 607.787L709.938 628.821L726.157 633.297L708.369 637.325L703.66 655.226L716.74 658.807L699.473 667.31L690.579 698.638L719.356 704.008L686.916 708.931L683.777 726.833H732.61L743.576 704.653L724.81 686.047Z" fill="#17364A"/>
<path opacity="0.66" d="M742.419 765.021L720.678 759.032L737.826 753.617L734.301 752.6L733.103 752.255L715.308 757.553L710.709 756.287L698.522 752.929L691.989 751.13L681.945 755.088C680.929 755.974 679.786 756.86 678.516 757.748L678.11 759.137L677.064 762.719L672.408 761.524L671.827 761.374L667.377 760.232L656.928 765.965L660.017 767.598L662.804 769.072L663.562 769.473L662.696 769.41L656.823 768.984L648.136 768.355L637.961 772.184L638.334 773.594L638.987 776.061L639.432 777.737L637.091 776.771L633.618 775.337L630.764 774.16L621.126 778.49L622.417 779.57L624.533 781.338L625.229 781.919L623.795 781.603L619.645 780.689L616.069 779.902L579.526 794.533L580.013 796.691L580.052 796.863L580.488 798.785L576.65 798.05L571.072 796.981L559.996 801.986L561.11 803.723L562.38 805.71L558.289 804.97L553.052 804.024L496.339 826.099L489.267 828.852L521.287 820.606L546.784 814.04L545.455 812.611L547.965 811.885L552.406 812.647L562.166 810.131L603.317 799.52L599.829 796.552L612.428 797.454L644.169 789.989L638.12 785.869L654.783 787.07L676.157 781.631L671.616 778.601L689.853 778.435L720.009 770.907L709.244 765.688L729.162 768.808L742.419 765.021Z" fill="#041A27"/>
<path d="M467.529 721.156L468.85 797.828H491.642V721.156H467.529Z" fill="#132E40"/>
<path d="M499.343 721.156H491.642V797.828H499.343V721.156Z" fill="#80CEFF"/>
<path d="M524.442 556.107L532.792 562.247L551.351 556.746L578.123 548.812L569.033 516.419L556.196 509.762L559.142 521.357L524.442 556.107Z" fill="#80CEFF"/>
<path d="M583.26 621.38H605.391L578.123 573.433L555.745 568.611L535.522 564.254L572.684 591.579L583.26 621.38Z" fill="#80CEFF"/>
<path d="M555.398 455.514L523.584 362.214L507.359 354.282L541.144 455.514H555.398Z" fill="#80CEFF"/>
<path d="M618.507 676.77C612.28 669.357 606.456 661.812 601.011 654.136L588.503 644.845L591.304 669.765L614.156 707.41L596.077 721.156H632.662L618.507 676.77Z" fill="#80CEFF"/>
<path d="M481.923 309.082H494.949H511.464L480.017 210.237L499.343 288.971L481.923 309.082Z" fill="#80CEFF"/>
<path d="M504.817 346.664H523.584L511.464 320.746L497.63 315.286L481.923 309.082L507.515 329.512L504.817 346.664Z" fill="#80CEFF"/>
<path d="M552.628 495.724L569.033 498.275L555.398 467.175L543.807 463.496L546.447 471.405L552.628 495.724Z" fill="#80CEFF"/>
<path d="M467.414 237.621L459.204 271.506L470.771 275.463L476.629 199.587L467.414 237.621Z" fill="#17364A"/>
<path d="M591.304 669.765L588.502 644.845L556.912 621.38H580.356H583.26L572.684 591.579L535.522 564.253L530.021 563.068L532.792 562.247L524.442 556.107L559.142 521.357L556.196 509.762L533.976 498.241L519.039 490.5L532.589 492.608L552.628 495.724L546.447 471.405L543.807 463.496L524.868 457.483L518.658 455.514H524.463H541.144L507.359 354.282L506.072 353.653L491.77 346.664H504.817L507.515 329.512L481.923 309.082L499.343 288.971L480.017 210.237L476.629 199.587L470.771 275.463L477.693 277.831L481.923 279.281H478.413H470.477L467.529 317.461L495.74 404.899L458.025 421.783L491.77 498.275L453.027 603.065L507.359 656.936L475.61 721.156H526.247H596.076L614.155 707.41L591.304 669.765Z" fill="#2B6589"/>
<path d="M453.027 603.065L491.77 498.275L458.025 421.783L495.74 404.899L467.529 317.461L470.477 279.281H456.927L453.482 293.555L437.234 360.918L466.017 369.989L431.175 376.467L409.965 437.372L456.927 450.332L405.42 461.993L391.785 513.826L429.658 524.193L379.665 548.812L353.913 639.52L437.234 655.07L343.306 669.323L334.216 721.156H475.61L507.359 656.936L453.027 603.065Z" fill="#17364A"/>
<path opacity="0.66" d="M504.01 831.727L441.059 814.388L490.71 798.708L480.504 795.764L477.034 794.763L425.509 810.105L412.194 806.437L376.908 796.718L357.991 791.507L328.91 802.968C325.97 805.534 322.658 808.099 318.981 810.668L317.807 814.69L314.778 825.062L301.294 821.601L299.614 821.169L286.729 817.862L256.473 834.462L265.416 839.19L273.488 843.457L275.681 844.616L273.171 844.434L256.167 843.203L231.013 841.38L201.553 852.465L202.634 856.549L204.525 863.69L205.813 868.542L199.036 865.746L188.979 861.596L180.717 858.187L152.81 870.726L156.55 873.852L162.676 878.971L164.692 880.652L160.537 879.738L148.523 877.093L138.167 874.813L32.3586 917.176L33.7704 923.424L33.8831 923.923L35.1432 929.486L24.0296 927.357L7.88053 924.264L0.0168457 927.816V957.717L101.242 931.617L91.142 923.023L127.62 925.635L219.526 904.02L202.011 892.09L250.26 895.569L312.148 879.818L298.999 871.046L351.801 870.565L439.116 848.766L407.946 833.656L465.618 842.691L504.01 831.727Z" fill="#041A27"/>
<path opacity="0.4" d="M643.5 234.063L1056.52 153.562C1056.69 153.529 1056.87 153.62 1056.9 153.767C1056.94 153.913 1056.84 154.059 1056.67 154.094L644.969 239.396C643.247 239.752 641.514 238.85 641.096 237.379C640.679 235.909 641.736 234.428 643.457 234.071C643.466 234.07 643.491 234.065 643.5 234.063Z" fill="white"/>
<path opacity="0.4" d="M1130.87 229.504L1740.37 102.499C1740.55 102.464 1740.72 102.554 1740.76 102.7C1740.8 102.846 1740.7 102.993 1740.53 103.03L1132.42 234.82C1130.7 235.192 1128.95 234.305 1128.52 232.839C1128.08 231.372 1129.12 229.882 1130.84 229.51L1130.87 229.504Z" fill="white"/>
<path d="M895.07 762.897C895.07 762.897 944.772 759.321 968.483 763.703C968.483 763.703 949.648 720.394 935.695 721.747C921.741 723.1 899.559 746.715 895.07 762.897Z" fill="#0C2230"/>
<path opacity="0.18" d="M899.389 762.234C897.569 762.611 895.723 763.077 894.211 764.017C893.67 764.356 893.128 764.844 893.219 765.407C893.325 766.08 894.221 766.415 894.996 766.595C900.699 767.959 906.711 768.038 912.637 768.096C923.715 768.208 934.803 768.293 945.855 767.704C952.041 767.375 958.254 766.828 964.217 765.396C965.326 765.131 966.7 764.425 966.318 763.502C966.164 763.125 965.745 762.881 965.337 762.674C963.639 761.825 961.739 761.274 959.782 761.067C957.415 760.812 955.023 761.061 952.646 761.157C945.558 761.449 938.528 760.451 931.466 760.154C927.975 760.006 924.447 760.021 920.988 760.478C919.449 760.679 918.372 760.987 916.791 760.907C915.014 760.817 913.231 760.796 911.454 760.844C907.39 760.955 903.336 761.417 899.389 762.234Z" fill="#000203"/>
<path d="M922.463 756.09C922.463 756.09 913.406 754.525 911.279 759.491C909.151 764.451 929.567 766.298 930.697 766.181C931.827 766.064 932.14 761.533 932.14 761.533C932.14 761.533 923.747 756.244 922.463 756.09Z" fill="#387FAC"/>
<path d="M917.974 758.138C919.794 759.639 922.022 760.642 924.352 761.014C924.431 761.024 924.304 759.029 924.097 758.78C923.726 758.34 922.924 758.058 922.362 757.995C920.977 757.825 919.354 758.037 917.974 758.138Z" fill="#266085"/>
<path d="M930.469 762.154C928.739 762.26 926.978 762.367 925.37 763.009C924.155 763.491 923.073 764.261 922.007 765.025C921.492 765.391 920.935 765.831 920.871 766.457C920.749 766.547 921.036 766.691 921.179 766.728C921.328 766.765 921.476 766.68 921.598 766.59C921.407 766.754 921.492 766.945 921.503 767.2C921.503 767.242 921.513 767.29 921.54 767.322C921.577 767.37 921.646 767.38 921.704 767.38C921.922 767.38 922.134 767.301 922.293 767.157C922.161 767.338 922.06 767.656 922.198 767.831C922.283 767.937 922.442 767.964 922.574 767.927C922.707 767.89 922.818 767.799 922.925 767.715C922.962 767.906 922.988 768.07 922.999 768.266C923.009 768.431 923.195 768.542 923.36 768.532C923.524 768.521 923.673 768.426 923.811 768.335C923.949 768.473 923.736 768.707 923.773 768.898C923.805 769.089 924.033 769.179 924.23 769.179C924.983 769.19 925.519 768.494 926.044 767.948C927.185 766.765 928.808 766.059 930.453 766.038C930.856 766.033 931.302 766.054 931.61 765.794C931.785 765.645 931.886 765.428 931.96 765.216C932.204 764.51 932.23 763.714 931.944 763.03C931.652 762.335 931.212 762.112 930.469 762.154Z" fill="#965544"/>
<path d="M926.554 763.295C926.925 763.162 927.296 763.035 927.689 763.009C928.145 762.982 928.596 763.099 929.037 763.221C929.535 763.359 930.931 763.56 932.119 763.751C932.093 763.502 932.029 763.253 931.933 763.019C931.647 762.329 931.207 762.112 930.464 762.154C928.734 762.26 926.973 762.367 925.365 763.009C924.15 763.491 923.068 764.261 922.001 765.025C921.529 765.359 921.025 765.762 920.893 766.309C922.399 764.791 924.522 764.011 926.554 763.295Z" fill="#7A3E32"/>
<path d="M938.528 756.09C938.528 756.09 947.585 754.525 949.712 759.491C951.84 764.452 931.424 766.298 930.294 766.181C929.164 766.064 928.851 761.534 928.851 761.534C928.851 761.534 937.244 756.244 938.528 756.09Z" fill="#387FAC"/>
<path d="M943.022 758.138C941.202 759.64 938.974 760.642 936.645 761.014C936.565 761.024 936.692 759.029 936.899 758.78C937.271 758.34 938.072 758.058 938.634 757.995C940.014 757.825 941.637 758.037 943.022 758.138Z" fill="#36365B"/>
<path d="M940.417 732.443C940.417 732.443 942.247 730.698 942.576 731.902C942.91 733.106 940.581 737.515 939.085 736.39C937.589 735.271 940.417 732.443 940.417 732.443Z" fill="#965544"/>
<path d="M927.604 731.239C927.604 731.239 926.861 728.819 925.98 729.711C925.1 730.602 924.983 735.584 926.835 735.335C928.691 735.085 927.604 731.239 927.604 731.239Z" fill="#965544"/>
<path d="M931.562 740.587L927.195 741.945C926.564 742.142 925.89 741.802 925.667 741.181L923.184 734.136L919.46 735.786L923.169 747.166L926.622 746.954L929.344 757.363H938.74L941.934 746.296C941.939 746.291 940.443 740.534 931.562 740.587Z" fill="#387FAC"/>
<path d="M932.199 740.587C932.199 740.587 931.307 750.774 931.769 757.024H933.27C933.27 757.024 932.857 743.823 934.114 740.672L932.199 740.587Z" fill="#1A557A"/>
<path d="M937.164 738.884L935.371 742.359C935.371 742.359 932.511 743.574 931.132 741.722L930.851 738.629C930.851 738.624 935.891 737.202 937.164 738.884Z" fill="#965544"/>
<path d="M934.602 723.397C933.042 723.328 931.403 723.774 929.827 725.095C928.347 726.342 927.455 728.151 927.333 730.082L927.089 733.907C926.904 736.751 928.792 739.319 931.567 739.993L932.75 740.279C935.663 740.985 938.639 739.388 939.658 736.571L940.953 732.995C942.576 728.48 939.398 723.604 934.602 723.397Z" fill="#B56F59"/>
<path d="M928.182 733.128L927.238 731.499L927.073 731.759L927.991 733.812L928.182 733.128Z" fill="#B7A970"/>
<path d="M930.448 737.197C931.992 737.197 933.244 735.89 933.244 734.279C933.244 732.667 931.992 731.361 930.448 731.361C928.903 731.361 927.652 732.667 927.652 734.279C927.652 735.89 928.903 737.197 930.448 737.197Z" fill="#B7A970"/>
<path d="M938.746 734.48L941.313 732.194L941.414 732.501L938.857 734.799L938.746 734.48Z" fill="#B7A970"/>
<path d="M936.56 738.231C938.104 738.231 939.356 736.925 939.356 735.313C939.356 733.702 938.104 732.395 936.56 732.395C935.015 732.395 933.764 733.702 933.764 735.313C933.764 736.925 935.015 738.231 936.56 738.231Z" fill="#B7A970"/>
<path d="M934.602 723.397C933.042 723.328 931.403 723.774 929.827 725.095C928.347 726.342 927.455 728.151 927.333 730.082L927.201 732.125C927.62 731.796 927.965 731.377 928.193 730.894C928.251 731.371 928.129 731.87 927.853 732.268C928.628 731.844 929.27 731.186 929.673 730.406C929.753 731.011 930.135 731.568 930.676 731.849C930.649 731.536 930.883 731.265 931.106 731.042C931.419 730.724 931.737 730.401 932.05 730.082C932.045 730.698 931.87 731.313 931.546 731.844C932.496 731.499 933.371 730.958 934.103 730.268C934.04 731.26 934.888 732.215 935.881 732.273C935.477 731.711 935.636 730.936 935.817 730.268C936.125 731.451 937.281 732.364 938.507 732.379C938.337 732.13 938.204 731.86 938.109 731.573C938.846 732.088 939.074 733.207 938.586 733.966C939.064 733.764 939.451 733.372 939.647 732.894C939.87 733.324 940.215 733.658 940.608 733.939L940.947 733C942.576 728.48 939.398 723.604 934.602 723.397Z" fill="#91594A"/>
<path d="M927.28 730.639C927.243 731.218 926.988 731.775 926.575 732.189C927.047 732.093 927.381 731.685 927.636 731.276C927.859 730.921 928.05 730.549 928.214 730.162C928.394 730.507 928.755 730.735 929.121 730.873C929.063 730.273 929.259 729.599 929.662 729.154C929.551 729.557 929.71 729.987 930.002 730.284C930.294 730.581 930.686 730.761 931.079 730.899C931.312 730.273 931.726 729.7 932.342 729.435C932.506 730.151 932.214 730.905 931.641 731.366C932.761 731.218 933.795 730.523 934.347 729.536C934.342 729.499 934.273 729.753 934.289 729.785C934.48 730.289 934.612 730.852 935.01 731.212C935.35 731.52 935.859 731.631 936.3 731.488C936.114 731.228 935.965 730.926 936.04 730.618C936.146 730.162 936.321 729.727 936.56 729.324C936.464 729.637 936.501 730.167 936.666 730.448C936.83 730.73 937.08 730.952 937.334 731.143C937.52 731.281 937.716 731.414 937.928 731.515C938.082 731.589 938.241 731.653 938.406 731.706C938.406 731.393 938.464 731.043 938.464 730.73C938.692 731.037 938.873 731.377 938.979 731.748C939.037 731.96 939.08 732.178 939.048 732.395C939 732.724 938.793 733.011 938.735 733.34C939.202 733.022 939.642 732.597 939.907 732.098C939.828 732.449 939.854 732.958 940.056 733.25C940.258 733.541 940.587 733.748 940.937 733.796C940.666 733.393 940.608 732.884 940.815 732.443C940.868 732.719 941.122 733.085 941.393 733.165C941.664 733.244 941.95 733.223 942.226 733.202C941.87 732.804 941.605 732.321 941.435 731.817C941.626 731.923 941.828 732.029 942.051 732.035C942.189 732.04 942.327 731.998 942.459 731.96C942.767 731.87 943.075 731.78 943.383 731.695C943.16 731.685 942.937 731.451 942.804 731.265C942.603 730.979 942.454 730.655 942.364 730.321C942.316 730.146 942.284 729.955 942.157 729.822C941.833 729.477 941.966 729.011 941.876 728.544C941.775 728.018 941.711 727.435 941.313 727.085C941.573 727.286 942.061 727.557 942.38 727.626C942.231 727.355 942.088 727.079 941.939 726.809C941.642 726.257 941.335 725.689 940.878 725.254C940.337 724.74 939.637 724.442 939 724.05C939.414 723.965 939.653 723.859 940.029 723.678C939.584 723.7 939.138 723.647 938.708 723.53C937.844 723.286 937.17 722.973 936.273 722.973C935.944 722.665 935.594 722.31 935.27 722.002C935.302 722.225 935.371 722.442 935.477 722.644C934.819 722.533 934.156 722.564 933.488 722.586C932.825 722.607 932.151 722.745 931.572 723.084C931.981 723.079 932.389 723.159 932.761 723.323C932.671 723.254 932.4 723.302 932.299 723.344C931.254 723.779 930.124 724.023 928.994 724.05C929.259 724.315 929.567 724.527 929.906 724.681C928.792 725.09 927.758 725.726 927.057 726.687C927.445 726.591 927.721 726.538 928.092 726.39C927.965 726.522 927.896 726.602 927.768 726.734C927.524 726.989 927.28 727.249 926.994 727.456C926.622 727.732 926.187 727.918 925.736 728.002C926.198 728.278 926.718 728.453 927.248 728.517C926.771 728.979 926.278 729.271 925.62 729.318C926.155 729.52 926.718 729.658 927.286 729.732C927.301 729.695 927.312 729.663 927.328 729.626C927.031 730.098 926.506 730.369 926.012 730.629C926.389 730.639 926.904 730.639 927.28 730.639Z" fill="#663C2F"/>
<path opacity="0.63" d="M942.279 731.631C941.855 731.531 941.446 731.302 941.202 730.942C941.154 731.223 941.223 731.525 941.393 731.753C941.425 731.796 941.457 731.833 941.494 731.865C941.664 731.955 941.844 732.04 942.04 732.045C942.178 732.05 942.316 732.008 942.449 731.971C942.757 731.881 943.064 731.791 943.372 731.706C943.345 731.706 943.319 731.7 943.292 731.695C942.953 731.716 942.613 731.711 942.279 731.631Z" fill="#B7A970"/>
<path opacity="0.63" d="M937.875 730.931C937.663 730.586 937.446 730.241 937.271 729.875C937.053 729.424 936.894 728.894 937.085 728.432C936.82 728.761 936.538 729.127 936.448 729.53C936.485 729.467 936.517 729.398 936.56 729.334C936.464 729.647 936.501 730.178 936.666 730.459C936.83 730.74 937.08 730.963 937.334 731.154C937.52 731.292 937.716 731.424 937.928 731.525C938.082 731.599 938.242 731.663 938.406 731.716C938.406 731.69 938.406 731.663 938.406 731.637C938.194 731.44 938.029 731.18 937.875 730.931Z" fill="#B7A970"/>
<path opacity="0.63" d="M926.628 732.173C927.073 732.061 927.397 731.669 927.641 731.271C927.848 730.942 928.028 730.592 928.182 730.236C928.119 729.95 928.034 729.658 928.023 729.371C928.007 730.454 927.477 731.515 926.628 732.173Z" fill="#B7A970"/>
<path opacity="0.63" d="M931.976 731.308C932.915 731.09 933.758 730.485 934.268 729.668C934.358 728.952 934.368 728.215 934.384 727.493C934.018 728.979 933.159 730.332 931.976 731.308Z" fill="#B7A970"/>
<path opacity="0.63" d="M930.495 725.801C930.532 726.05 930.67 726.273 930.867 726.432C931.063 726.586 931.307 726.676 931.556 726.692C931.864 726.713 932.183 726.628 932.442 726.464C932.84 726.209 932.549 726.14 932.241 726.209C931.631 726.342 930.968 726.209 930.495 725.801Z" fill="#B7A970"/>
<path opacity="0.63" d="M928.135 727.037C928.272 727.058 928.511 727.403 928.692 727.461C928.851 727.514 929.238 727.573 929.323 727.376C929.503 726.963 928.347 727.069 928.135 727.037Z" fill="#B7A970"/>
<path opacity="0.63" d="M936.539 726.639C936.539 726.639 936.74 728.65 938.74 728.506C938.746 728.506 935.897 729.467 936.539 726.639Z" fill="#B7A970"/>
<path d="M934.727 734.139L932.271 733.814L932.23 734.124L934.686 734.449L934.727 734.139Z" fill="#B7A970"/>
<path opacity="0.63" d="M916.982 735.611L920.622 756.769L945.287 747.659L924.919 733.595C924.919 733.595 919.768 731.058 916.982 735.611Z" fill="#B7A970"/>
<path d="M919.173 748.381L917.285 746.949C917.285 746.949 929.519 744.55 931.557 751.808L922.203 750.487L919.173 748.381Z" fill="#B7A970"/>
<path d="M944.969 748.381L946.858 746.949C946.858 746.949 934.623 744.55 932.586 751.808L941.94 750.487L944.969 748.381Z" fill="#B7A970"/>
<path d="M916.643 749.002L917.078 748.233C917.078 748.233 926.67 745.744 930.607 751.533H933.642C933.642 751.533 936.528 746.041 948.524 747.087V747.803L933.934 752.387H930.342L916.643 749.002Z" fill="#BC5E5E"/>
<path d="M916.643 749.002C916.643 749.002 921.598 756.822 921.736 761.263L931.116 763.417H933.658C933.658 763.417 940.581 761.693 945.701 760.403L948.529 747.803C948.529 747.803 938.799 746.593 934.374 751.304H929.923C929.917 751.299 924.856 746.307 916.643 749.002Z" fill="#6B3232"/>
<path d="M929.917 751.299L931.111 763.417H933.652L934.369 751.299H929.917Z" fill="#682C2C"/>
<path d="M916.447 735.674L916.85 733.976L919.322 729.822C919.322 729.822 920.436 728.57 922.049 729.599L925.53 733.594L916.447 735.674Z" fill="#3F3D36"/>
<path d="M921.546 738.47C924.145 738.165 926.076 736.419 925.859 734.571C925.642 732.723 923.359 731.472 920.761 731.778C918.162 732.083 916.231 733.828 916.448 735.676C916.665 737.524 918.947 738.775 921.546 738.47Z" fill="#4F4D43"/>
<path d="M921.502 738.09C923.807 737.82 925.519 736.272 925.327 734.634C925.135 732.995 923.11 731.886 920.805 732.157C918.5 732.427 916.788 733.975 916.98 735.613C917.172 737.252 919.197 738.361 921.502 738.09Z" fill="#B7A970"/>
<path d="M921.02 736.502C923.11 736.258 924.707 734.963 924.845 733.504C924.081 732.523 922.521 731.955 920.802 732.157C918.712 732.401 917.115 733.695 916.977 735.154C917.736 736.136 919.301 736.703 921.02 736.502Z" fill="#938755"/>
<path d="M945.659 752.71C945.505 752.774 945.341 752.854 945.25 752.997C945.16 753.14 945.166 753.358 945.309 753.448C945.367 753.485 945.436 753.49 945.505 753.501C946.359 753.602 947.261 753.697 948.046 753.347C948.662 753.071 948.72 752.387 948.02 752.265C947.277 752.127 946.327 752.429 945.659 752.71Z" fill="#965544"/>
<path d="M945.659 754.074C945.505 754.138 945.341 754.217 945.25 754.36C945.16 754.504 945.166 754.721 945.309 754.811C945.367 754.848 945.436 754.854 945.505 754.864C946.359 754.965 947.261 755.061 948.046 754.711C948.662 754.435 948.72 753.75 948.02 753.628C947.277 753.49 946.327 753.793 945.659 754.074Z" fill="#965544"/>
<path d="M945.473 755.437C945.34 755.501 945.203 755.581 945.123 755.724C945.043 755.867 945.049 756.085 945.176 756.175C945.224 756.212 945.287 756.217 945.346 756.228C946.078 756.329 946.853 756.424 947.526 756.074C948.057 755.798 948.11 755.114 947.505 754.992C946.868 754.854 946.051 755.151 945.473 755.437Z" fill="#965544"/>
<path d="M945.59 756.573C945.489 756.636 945.383 756.716 945.324 756.859C945.266 757.003 945.271 757.22 945.362 757.31C945.399 757.347 945.446 757.353 945.489 757.363C946.041 757.464 946.63 757.56 947.139 757.209C947.537 756.934 947.579 756.249 947.123 756.127C946.64 755.989 946.025 756.292 945.59 756.573Z" fill="#965544"/>
<path d="M972.329 760.6C966.271 749.039 946.826 714.182 932.92 715.015C918.961 715.848 897.978 749.628 891.542 760.552C890.423 762.457 891.107 765.072 892.948 765.889C893.06 765.937 893.166 765.985 893.272 766.027C894.301 766.431 895.436 766.006 896.073 764.977C900.784 757.379 920.303 726.835 931.625 723.19C943.669 719.312 959.983 754.557 965.432 764.499C966.021 765.571 967.114 766.096 968.186 765.82L970.653 765.184C972.404 764.733 973.263 762.388 972.329 760.6Z" fill="#9D834E"/>
<path d="M972.33 760.6C966.271 749.039 946.827 714.182 932.921 715.015C918.962 715.848 897.979 749.628 891.543 760.552C891.092 761.321 890.933 762.202 891.028 763.04C893.543 758.732 896.535 754.7 899.512 750.689C901.735 747.697 903.958 744.704 906.181 741.712C907.189 740.359 908.192 739.001 909.338 737.759C910.139 736.884 911.009 736.072 911.874 735.261C912.319 734.841 911.868 735.229 912.102 734.661C912.298 734.194 912.266 733.669 912.346 733.17C912.601 731.52 913.959 730.295 915.237 729.218C917.45 727.35 919.232 725.482 921.445 723.615C922.543 722.692 923.763 721.922 924.978 721.153C926.262 720.341 927.552 719.53 928.835 718.718C929.175 718.506 929.525 718.288 929.913 718.203C930.501 718.076 931.106 718.267 931.706 718.368C933.149 718.607 934.677 718.283 935.897 717.482C936.682 716.967 939.171 718.378 939.653 719.185C940.142 719.991 940.439 720.92 941.086 721.599C941.924 722.48 943.213 722.793 944.094 723.626C944.826 724.321 945.219 725.313 945.935 726.024C946.975 727.053 948.567 727.361 949.607 728.395C950.588 729.377 950.949 730.905 952.063 731.738C954.329 733.441 955.193 736.438 956.743 738.81C957.093 739.346 957.443 739.876 957.719 740.449C958.361 741.765 958.631 743.272 959.475 744.466C960.271 745.59 961.496 746.323 962.478 747.283C963.486 748.27 964.229 749.485 964.961 750.689C967.38 754.658 969.799 758.626 972.213 762.595C972.325 762.78 972.442 762.966 972.558 763.152C972.808 762.345 972.755 761.417 972.33 760.6Z" fill="#25485F"/>
<path opacity="0.63" d="M963.697 758.297C963.246 757.087 962.907 755.841 962.461 754.636C961.416 751.819 959.952 749.405 957.824 747.283C957.336 744.402 954.641 742.529 952.8 740.264C951.749 738.969 950.948 737.494 950.158 736.024C949.134 734.13 948.481 732.056 946.932 730.56C945.627 729.297 944.693 727.636 943.17 726.644C942.438 726.167 941.626 725.599 940.799 725.302C940.236 723.944 938.931 722.989 937.531 722.543C936.13 722.092 934.623 722.087 933.153 722.161C931.705 722.235 930.235 722.389 928.909 722.968C926.713 723.917 925.163 725.886 923.466 727.562C922.489 728.528 921.439 729.414 920.42 730.332C916.361 733.987 911.242 736.555 910.016 741.876C909.783 742.879 909.167 743.744 908.562 744.582C903.771 751.209 898.981 757.83 894.195 764.457C893.829 764.961 893.463 765.47 893.065 765.948C893.134 765.979 893.208 766.006 893.277 766.038C894.306 766.441 895.442 766.017 896.078 764.987C900.784 757.379 920.304 726.835 931.625 723.19C943.669 719.312 959.984 754.557 965.432 764.499C966.021 765.571 967.114 766.096 968.186 765.82L968.578 765.719C966.435 763.64 964.748 761.093 963.697 758.297Z" fill="#7B602A"/>
</g>
<defs>
<linearGradient id="paint0_linear" x1="433.631" y1="103.256" x2="1345.35" y2="1118.75" gradientUnits="userSpaceOnUse">
<stop stop-color="#041A27"/>
<stop offset="0.9964" stop-color="#1D5172"/>
</linearGradient>
<linearGradient id="paint1_linear" x1="302.493" y1="209.201" x2="302.493" y2="350.332" gradientUnits="userSpaceOnUse">
<stop offset="0.0077" stop-color="white" stop-opacity="0.5"/>
<stop offset="1" stop-color="white" stop-opacity="0.1"/>
</linearGradient>
<linearGradient id="paint2_linear" x1="1241.15" y1="287.069" x2="1241.15" y2="356.922" gradientUnits="userSpaceOnUse">
<stop offset="0.0077" stop-color="white" stop-opacity="0.5"/>
<stop offset="1" stop-color="white" stop-opacity="0.1"/>
</linearGradient>
<linearGradient id="paint3_linear" x1="729.003" y1="446.984" x2="729.003" y2="506.892" gradientUnits="userSpaceOnUse">
<stop offset="0.0077" stop-color="white" stop-opacity="0.5"/>
<stop offset="1" stop-color="white" stop-opacity="0.1"/>
</linearGradient>
<linearGradient id="paint4_linear" x1="1235.63" y1="417.884" x2="1235.63" y2="821.775" gradientUnits="userSpaceOnUse">
<stop offset="0.0015" stop-color="#3C8ABC"/>
<stop offset="0.2053" stop-color="#2E7AAB"/>
<stop offset="0.4206" stop-color="#196292"/>
<stop offset="0.6413" stop-color="#0B4C76"/>
<stop offset="0.8642" stop-color="#042D47"/>
<stop offset="0.999"/>
</linearGradient>
<linearGradient id="paint5_linear" x1="687.356" y1="671.054" x2="687.356" y2="828.208" gradientUnits="userSpaceOnUse">
<stop offset="0.0015" stop-color="#4D95C1"/>
<stop offset="0.999" stop-color="#01090F"/>
</linearGradient>
<linearGradient id="paint6_linear" x1="1239.52" y1="727.989" x2="1239.52" y2="920.815" gradientUnits="userSpaceOnUse">
<stop offset="0.0015" stop-color="#4D95C1"/>
<stop offset="0.999" stop-color="#01080C"/>
</linearGradient>
<linearGradient id="paint7_linear" x1="1345.91" y1="776.569" x2="1345.91" y2="968.269" gradientUnits="userSpaceOnUse">
<stop offset="0.0015" stop-color="#4D95C1"/>
<stop offset="0.999" stop-color="#02121C"/>
</linearGradient>
<linearGradient id="paint8_linear" x1="610.398" y1="708.706" x2="610.398" y2="963.123" gradientUnits="userSpaceOnUse">
<stop offset="0.0015" stop-color="#4D95C1"/>
<stop offset="0.999" stop-color="#0D2432"/>
</linearGradient>
<clipPath id="clip0">
<rect width="1824" height="984" fill="white"/>
</clipPath>
</defs>
</svg>
