<svg width="1824" height="984" viewBox="0 0 1824 984" fill="none" xmlns="http://www.w3.org/2000/svg">
<g clip-path="url(#clip0)">
<rect width="1824" height="984" fill="#FBFBFB"/>
<path d="M1876 228C1876 228 1772.64 235.558 1753.41 279.533C1734.18 323.508 1770.23 329.005 1770.23 329.005C1770.23 329.005 1736.58 347.328 1717.35 329.005C1698.12 310.682 1670.96 354.657 1670.96 354.657C1670.96 354.657 1645.24 336.335 1622.4 338.167C1599.57 339.999 1597.16 387.41 1597.16 387.41C1597.16 387.41 1593.56 359.925 1561.59 387.41C1529.62 414.894 1529.62 429.553 1500.77 422.223C1471.93 414.894 1462.31 392.907 1431.07 400.236C1399.82 407.565 1390.92 438.714 1390.92 438.714C1390.92 438.714 1366.16 433.217 1322.9 438.714C1279.63 444.211 1272.42 493.683 1272.42 493.683C1272.42 493.683 1265.21 491.851 1238.77 493.683C1212.32 495.515 1214.73 526.893 1200.31 540.406C1185.88 553.92 1133 580.717 1106.56 574.533C1080.12 568.349 1065.7 526.893 1048.87 540.406C1048.87 540.406 970.267 494.599 945.508 531.932C945.508 531.932 878.203 521.396 863.781 540.406C849.358 559.416 849.358 573.388 813.302 574.533C777.246 575.907 776.284 514.067 719.075 540.406C719.075 540.406 645.04 491.851 589.753 515.441C589.753 515.441 608.983 489.789 589.753 475.131C570.523 460.473 552.736 480.628 531.583 476.963C510.43 473.299 490.719 425.659 459.71 432.988C428.702 440.317 390.242 449.937 390.242 449.937C390.242 449.937 375.82 421.994 339.763 421.994C303.707 421.994 277.266 449.937 277.266 449.937C277.266 449.937 277.266 390.845 258.036 378.019C238.806 365.193 224.864 383.516 224.864 383.516C224.864 383.516 218.855 332.212 173.664 337.709C128.474 343.206 126.791 367.025 99.8691 365.193C73.1875 363.59 44.3425 244.72 -47 299.689V727.301H1876V228Z" fill="#ECF8FF"/>
<path d="M-25 462C-25 462 75.9836 468.713 94.7713 508.32C113.559 547.927 78.3321 552.85 78.3321 552.85C78.3321 552.85 111.21 569.409 129.998 552.85C148.786 536.291 175.323 575.898 175.323 575.898C175.323 575.898 200.452 559.339 222.762 561.129C245.073 562.696 247.421 605.436 247.421 605.436C247.421 605.436 250.944 580.821 282.178 605.436C313.413 630.05 313.413 643.252 341.594 636.763C369.776 630.274 379.169 610.359 409.699 617.072C440.229 623.561 448.919 651.756 448.919 651.756C448.919 651.756 473.108 646.833 515.38 651.756C557.652 656.679 564.697 701.208 564.697 701.208C564.697 701.208 571.743 699.642 597.576 701.208C623.409 702.775 621.06 731.193 635.151 743.501C649.242 755.584 700.908 779.751 726.741 774.381C752.574 769.01 766.665 731.417 783.104 743.501C783.104 743.501 859.898 702.327 884.088 735.893C884.088 735.893 949.844 726.271 963.935 743.501C978.026 760.507 978.026 773.038 1013.25 774.381C1048.48 775.723 1049.42 719.781 1105.31 743.501C1105.31 743.501 1177.64 699.642 1231.66 721.124C1231.66 721.124 1212.87 698.076 1231.66 684.873C1250.45 671.671 1267.83 689.796 1288.49 686.44C1309.16 683.083 1328.42 640.343 1358.71 646.833C1389.01 653.322 1426.58 662.273 1426.58 662.273C1426.58 662.273 1440.67 636.987 1475.9 636.987C1511.13 636.987 1536.96 662.273 1536.96 662.273C1536.96 662.273 1536.96 609.016 1555.75 597.604C1574.53 585.968 1588.15 602.527 1588.15 602.527C1588.15 602.527 1594.03 556.43 1638.18 561.353C1682.33 566.276 1683.97 587.758 1710.27 585.968C1736.58 584.401 1764.76 477.216 1854 526.669V911.775H-25V462Z" fill="#BFE6FF"/>
<path d="M40 890.307C124.6 890.307 298.03 723.005 319.18 720.614C340.33 718.224 369.94 739.735 369.94 739.735C369.94 739.735 435.505 730.175 488.38 694.324C541.255 658.473 581.44 641.743 634.315 648.913C634.315 648.913 689.305 601.112 721.03 541.361C752.755 481.61 771.79 522.241 771.79 522.241C771.79 522.241 799.285 476.83 814.09 467.27C828.895 457.71 850.045 484 869.08 484C888.115 484 957.91 364.498 989.635 357.328C1021.36 350.158 1084.81 462.49 1139.8 493.561C1194.79 524.631 1213.83 605.893 1245.55 653.693C1277.28 701.494 1385.14 706.274 1410.52 742.125C1435.9 777.975 1467.63 830.556 1488.78 804.266C1509.93 777.975 1522.62 820.996 1545.88 842.507C1569.15 864.017 1732 890.307 1732 890.307V1239.25H40V890.307Z" fill="#5386A7"/>
<path d="M520.105 1062.39C592.015 1000.25 727.375 966.788 733.72 928.547C740.065 890.307 701.995 911.817 716.8 880.747C731.605 849.676 907.15 813.826 909.265 773.195C911.38 732.564 839.47 739.734 847.93 711.054C856.39 682.373 902.92 639.353 909.265 620.232C915.61 601.112 888.115 593.942 886 577.211C883.885 560.481 979.06 493.56 979.06 448.149C979.06 402.739 952.2 389.115 989.635 357.328C957.91 364.498 888.115 484 869.08 484C850.045 484 828.895 457.709 814.09 467.27C799.285 476.83 771.79 522.241 771.79 522.241C771.79 522.241 752.755 481.61 721.03 541.361C689.305 601.112 634.315 648.913 634.315 648.913C581.44 641.743 541.255 658.473 488.38 694.323C435.505 730.174 369.94 739.734 369.94 739.734C369.94 739.734 340.33 718.224 319.18 720.614C298.03 723.004 124.6 890.307 40 890.307V1239.25H484.15C484.15 1239.25 448.195 1124.53 520.105 1062.39Z" fill="#3A7295"/>
<path d="M1275.16 739.974C1319.57 768.893 1285.73 813.826 1247.66 842.507C1209.59 871.187 1215.94 923.768 1205.36 954.838C1194.79 985.909 1118.65 1021.76 1194.79 1005.03C1270.93 988.299 1215.94 954.838 1268.81 914.208C1321.69 873.577 1349.18 883.137 1351.3 844.897C1353.41 806.656 1363.99 809.046 1380.91 798.291C1397.83 787.536 1393.81 727.785 1410.52 742.125C1385.14 706.274 1277.27 701.494 1245.55 653.693C1280.45 721.092 1230.74 711.054 1275.16 739.974Z" fill="#3A7295"/>
<path d="M547.177 660.863C544.85 683.569 556.06 697.909 556.06 708.664C556.06 725.395 505.3 737.345 500.224 770.805C495.148 804.266 511.856 829.839 436.139 831.512C398.704 832.229 317.065 954.121 336.1 958.901C355.135 963.682 414.355 904.648 469.345 873.577C524.335 842.506 553.945 866.407 543.37 831.512C532.795 796.618 515.875 794.706 577.21 756.465C638.545 718.224 594.13 687.154 634.315 648.913C602.59 644.611 575.306 648.913 547.177 660.863Z" fill="#5386A7"/>
<path d="M298.03 789.926C316.007 777.975 320.237 791.121 338.215 773.195C356.192 755.27 349.847 745.71 369.94 739.735C369.94 739.735 340.33 718.224 319.18 720.614C318.968 720.614 318.757 720.614 318.545 720.853C312.623 728.741 310.297 739.974 304.375 749.295C293.8 766.025 263.132 793.511 263.132 805.461C263.132 817.411 280.052 801.876 298.03 789.926Z" fill="#5386A7"/>
<path d="M1806.74 892.407C1725.28 886.033 1680.62 818.728 1624.34 817.041C1568.07 815.353 1519.47 866.723 1459.46 877.409C1399.25 888.095 1405.15 918.092 1333.33 932.903C1261.52 947.713 1182.03 890.157 1129.49 890.157C1077.15 890.157 1022.85 960.649 997.466 964.961C972.281 969.273 958.704 973.585 935.29 982.022C912.072 990.646 886.69 958.587 857.57 956.337C828.449 954.275 768.241 994.771 710 1022.7H1887.41V924.466C1858.68 907.405 1831.73 894.469 1806.74 892.407Z" fill="#3A7295"/>
<path d="M1556.85 930.465C1562.17 896.719 1602.7 884.158 1601.52 862.973C1600.14 841.975 1574.56 847.787 1608.4 818.165C1558.62 825.102 1513.76 867.847 1459.46 877.596C1399.25 888.283 1405.15 918.279 1333.33 933.09C1261.52 947.901 1182.03 890.345 1129.49 890.345C1077.15 890.345 1022.85 960.837 997.466 965.149C972.281 969.461 958.704 973.773 935.29 982.209C911.875 990.646 886.69 958.775 857.57 956.525C828.449 954.463 768.241 994.958 710 1022.89H1472.25C1404.95 981.647 1551.54 964.211 1556.85 930.465Z" fill="#234961"/>
<path d="M1242.04 956.712C1255.22 941.714 1307.56 935.527 1307.56 935.527C1243.02 935.34 1175.53 890.345 1129.29 890.345C1127.52 890.345 1125.75 890.532 1123.79 890.532C1105.49 896.719 1085.81 937.777 1115.91 931.59C1146.02 925.403 1097.62 967.774 1111.98 970.398C1126.34 972.835 1084.63 1000.39 1100.17 1007.89C1115.72 1015.39 1118.47 1022.89 1118.47 1022.89H1153.89C1153.89 1022.89 1189.31 1000.39 1222.17 985.397C1255.02 970.398 1228.85 971.898 1242.04 956.712Z" fill="#3A7295"/>
<path d="M-38 687C29.8207 700.38 61.4903 829.054 105.409 859.514C149.329 889.975 167.255 891.968 191.156 922.143C215.058 952.604 247.923 922.143 277.202 929.83C306.482 937.516 320.524 984.772 334.566 996.16C348.608 1007.55 372.51 996.16 396.411 1007.55C420.313 1018.93 472 1060.78 472 1060.78H-38V687Z" fill="#234961"/>
<path d="M295.448 271.59C338.222 271.59 372.896 238.551 372.896 197.795C372.896 157.039 338.222 124 295.448 124C252.675 124 218 157.039 218 197.795C218 238.551 252.675 271.59 295.448 271.59Z" fill="#ECF8FF"/>
<path d="M761.953 587.442C767.584 588.748 773.006 592.218 778.643 591.246C781.982 590.682 785.087 588.554 788.5 588.615C789.946 588.684 792.994 589.866 794.082 588.78C793.792 588.352 793.512 587.717 793.123 587.181C792.445 586.217 791.668 585.144 791.084 584.392C788.419 581.676 783.52 584.545 780.186 582.832C778.568 582.03 777.61 580.431 776.647 578.936C771.443 570.922 763.464 564.638 754.396 561.614C754.971 562.574 755.65 563.538 756.22 564.6C754.484 564.103 752.748 563.605 751.115 563.113C751.897 564.082 752.462 565.248 752.924 566.409C751.704 565.936 750.258 565.866 748.994 566.323C749.579 567.076 750.371 567.839 751.28 568.296C750.547 568.468 749.716 568.532 748.983 568.704C753.177 571.907 757.257 575.312 761.121 578.914C762.311 580.006 763.569 581.826 762.58 583.021C762.142 583.518 761.409 583.689 760.779 583.866C757.966 584.248 755.227 583.082 752.449 582.741C749.877 582.41 747.28 582.596 744.762 583.303C745.667 583.864 746.571 584.425 747.481 584.883C746.62 585.566 745.759 586.249 744.893 587.036C745.936 586.879 746.87 586.82 747.903 586.87C747.868 587.593 747.523 588.301 747.081 588.901C751.636 586.739 756.942 586.166 761.953 587.442Z" fill="#1D1D1D"/>
<path d="M618.063 609.093C623.694 610.399 629.117 613.869 634.753 612.897C638.093 612.333 641.197 610.205 644.61 610.266C646.056 610.336 649.104 611.517 650.192 610.431C649.902 610.003 649.622 609.368 649.234 608.832C648.555 607.868 647.779 606.795 647.194 606.043C644.53 603.327 639.63 606.197 636.296 604.484C634.679 603.681 633.721 602.082 632.757 600.587C627.553 592.573 619.574 586.289 610.507 583.265C611.082 584.225 611.76 585.189 612.33 586.251C610.594 585.754 608.858 585.256 607.226 584.764C608.007 585.733 608.572 586.899 609.034 588.06C607.815 587.587 606.369 587.518 605.105 587.974C605.689 588.727 606.481 589.49 607.39 589.947C606.658 590.119 605.827 590.183 605.094 590.355C609.287 593.558 613.367 596.963 617.231 600.565C618.421 601.657 619.679 603.478 618.69 604.672C618.252 605.169 617.519 605.34 616.89 605.517C614.076 605.899 611.338 604.733 608.559 604.392C605.987 604.061 603.391 604.247 600.872 604.954C601.777 605.515 602.682 606.076 603.591 606.534C602.73 607.217 601.869 607.9 601.003 608.687C602.046 608.53 602.98 608.471 604.013 608.521C603.978 609.244 603.634 609.952 603.191 610.552C607.741 608.493 613.151 607.925 618.063 609.093Z" fill="#1D1D1D"/>
<path d="M1012.96 587.711C1018.59 589.016 1024.01 592.486 1029.65 591.515C1032.99 590.951 1036.09 588.823 1039.51 588.884C1040.95 588.953 1044 590.135 1045.09 589.048C1044.8 588.62 1044.52 587.986 1044.13 587.45C1043.45 586.485 1042.68 585.413 1042.09 584.66C1039.43 581.944 1034.53 584.814 1031.19 583.101C1029.58 582.299 1028.62 580.7 1027.65 579.204C1024.76 574.718 1021.12 570.92 1016.82 567.814L1000.5 567.03C1000.99 567.571 1001.69 568.122 1002.4 568.467C1001.66 568.638 1000.83 568.702 1000.1 568.874C1004.29 572.077 1008.37 575.482 1012.24 579.084C1013.43 580.177 1014.68 581.997 1013.7 583.191C1013.26 583.688 1012.52 583.86 1011.89 584.036C1009.08 584.419 1006.34 583.252 1003.56 582.911C1000.99 582.581 998.396 582.766 995.877 583.473C996.782 584.034 997.687 584.595 998.596 585.053C997.735 585.736 996.874 586.42 996.009 587.206C997.051 587.049 997.986 586.991 999.018 587.04C998.984 587.763 998.639 588.471 998.196 589.071C1002.64 587.111 1008.05 586.543 1012.96 587.711Z" fill="#1D1D1D"/>
<path d="M639.269 800.992C644.9 802.297 650.323 805.767 655.959 804.796C659.299 804.232 662.403 802.104 665.816 802.165C667.262 802.234 670.31 803.416 671.398 802.329C671.108 801.901 670.828 801.267 670.439 800.731C669.761 799.766 668.985 798.694 668.4 797.941C665.736 795.225 660.836 798.095 657.502 796.382C655.885 795.58 654.926 793.981 653.963 792.485C648.759 784.472 640.78 778.188 631.713 775.164C632.288 776.123 632.966 777.087 633.536 778.15C631.8 777.652 630.064 777.155 628.432 776.662C629.213 777.632 629.778 778.797 630.24 779.958C629.02 779.486 627.575 779.416 626.311 779.873C626.895 780.626 627.687 781.388 628.596 781.846C627.864 782.018 627.032 782.081 626.3 782.253C630.493 785.457 634.573 788.862 638.437 792.463C639.627 793.556 640.885 795.376 639.896 796.571C639.458 797.067 638.725 797.239 638.096 797.416C635.282 797.798 632.544 796.631 629.765 796.291C627.193 795.96 624.596 796.146 622.078 796.853C622.983 797.414 623.887 797.975 624.797 798.433C623.936 799.116 623.075 799.799 622.209 800.585C623.252 800.428 624.186 800.37 625.219 800.42C625.184 801.142 624.84 801.85 624.397 802.45C628.952 800.288 634.357 799.824 639.269 800.992Z" fill="#1D1D1D"/>
<path d="M344.598 806.801C349.407 807.964 354.132 810.882 359.035 810.083C361.957 809.602 364.633 807.764 367.53 807.8C368.769 807.86 371.409 808.918 372.389 807.93C372.202 807.507 371.809 807.074 371.524 806.543C370.944 805.687 370.265 804.723 369.671 804.177C367.4 801.894 363.144 804.277 360.214 802.79C358.798 802.101 358.036 800.719 357.166 799.435C352.635 792.489 345.753 787.085 337.91 784.431C338.49 785.287 338.966 786.138 339.546 786.994C338.012 786.61 336.586 786.127 335.052 785.743C335.735 786.604 336.207 787.558 336.673 788.616C335.552 788.251 334.416 788.197 333.26 788.555C333.85 789.205 334.44 789.854 335.246 790.307C334.622 790.38 333.889 790.552 333.264 790.626C336.858 793.386 340.442 796.353 343.814 799.414C344.802 800.393 345.972 801.898 345.091 802.995C344.757 803.496 344.132 803.57 343.507 803.643C341.112 803.942 338.673 802.997 336.308 802.676C334.046 802.36 331.759 802.561 329.659 803.184C330.465 803.637 331.168 804.085 331.974 804.538C331.222 805.123 330.469 805.708 329.711 806.396C330.547 806.229 331.482 806.17 332.303 806.313C332.273 806.933 332.037 807.543 331.594 808.143C335.721 806.271 340.3 805.766 344.598 806.801Z" fill="#1D1D1D"/>
<path d="M791.17 791.423C795.364 792.453 799.386 794.923 803.665 794.197C806.168 793.8 808.422 792.149 811.003 792.273C812.036 792.323 814.377 793.16 815.243 792.373C815.051 792.053 814.761 791.625 814.471 791.197C813.989 790.45 813.405 789.697 812.913 789.156C810.942 787.094 807.321 789.197 804.789 788.041C803.575 787.465 802.911 786.191 802.135 785.118C798.287 779.033 792.299 774.397 785.474 772.102C785.955 772.85 786.437 773.598 786.815 774.341C785.488 773.966 784.263 773.597 782.936 773.223C783.521 773.975 783.997 774.826 784.267 775.667C783.353 775.313 782.32 775.263 781.376 775.528C781.862 776.173 782.462 776.616 783.067 776.955C782.545 777.034 781.921 777.107 781.394 777.289C784.487 779.715 787.574 782.244 790.45 784.867C791.34 785.738 792.313 787.027 791.54 788.025C791.21 788.423 790.684 788.605 790.168 788.58C788.087 788.79 786.052 788.071 783.996 787.765C782.044 787.464 780.067 787.68 778.281 788.215C778.984 788.663 779.589 789.003 780.292 789.451C779.648 789.937 778.998 790.527 778.354 791.014C779.087 790.842 779.913 790.881 780.636 790.916C780.611 791.433 780.375 792.042 780.045 792.441C783.429 790.947 787.487 790.521 791.17 791.423Z" fill="#1D1D1D"/>
<path d="M1540.54 674.462C1544.73 675.491 1548.75 677.962 1553.03 677.236C1555.54 676.839 1557.79 675.188 1560.37 675.312C1561.4 675.361 1563.74 676.199 1564.61 675.412C1564.42 675.092 1564.13 674.664 1563.84 674.236C1563.36 673.489 1562.77 672.736 1562.28 672.195C1560.31 670.133 1556.69 672.236 1554.16 671.079C1552.94 670.503 1552.28 669.229 1551.5 668.157C1547.66 662.072 1541.67 657.436 1534.84 655.141C1535.32 655.889 1535.81 656.637 1536.18 657.38C1534.86 657.005 1533.63 656.636 1532.3 656.261C1532.89 657.014 1533.37 657.865 1533.64 658.706C1532.72 658.352 1531.69 658.302 1530.74 658.567C1531.23 659.212 1531.83 659.655 1532.43 659.994C1531.91 660.073 1531.29 660.146 1530.76 660.328C1533.85 662.754 1536.94 665.283 1539.82 667.906C1540.71 668.777 1541.68 670.066 1540.91 671.063C1540.58 671.462 1540.05 671.643 1539.54 671.619C1537.46 671.829 1535.42 671.11 1533.36 670.804C1531.41 670.503 1529.43 670.719 1527.65 671.254C1528.35 671.702 1528.96 672.042 1529.66 672.489C1529.02 672.976 1528.37 673.566 1527.72 674.052C1528.45 673.881 1529.28 673.92 1530 673.955C1529.98 674.471 1529.74 675.081 1529.41 675.479C1532.8 673.986 1536.75 673.555 1540.54 674.462Z" fill="#1D1D1D"/>
<path d="M853.448 744.834C861.843 744.617 870.615 747.316 878.235 743.852C882.681 741.789 886.19 737.713 891.01 736.496C893.002 735.971 897.733 736.612 898.968 734.601C898.373 734.055 897.68 733.401 896.987 732.746C895.699 731.546 894.2 730.439 892.995 729.656C888.265 726.841 882.499 732.671 877.168 731.586C874.606 731.049 872.728 729.199 870.846 727.452C860.527 718.158 847.035 712.437 833.103 711.56C834.287 712.755 835.58 713.853 836.765 715.048C834.178 715.027 831.591 715.007 829.009 714.882C830.406 715.985 831.689 717.289 832.858 718.794C830.901 718.596 829.017 719.023 827.31 720.08C828.51 720.966 829.823 721.65 831.259 721.926C830.201 722.393 829.247 722.864 828.189 723.331C835.294 726.261 842.178 729.49 849.047 733.029C851.171 734.063 853.555 736.144 852.625 738.273C852.167 739.183 851.311 739.763 850.361 740.131C846.564 741.605 842.34 741.195 838.282 741.621C834.535 742.062 830.954 743.339 827.751 745.358C829.182 745.738 830.608 746.22 832.142 746.605C831.148 747.903 830.258 749.205 829.263 750.503C830.641 749.845 832.008 749.393 833.469 749.153C833.626 750.195 833.468 751.327 833.108 752.344C838.712 747.749 845.987 744.993 853.448 744.834Z" fill="#1D1D1D"/>
<path d="M1073.51 760.074C1081.9 759.856 1090.68 762.555 1098.3 759.092C1102.74 757.028 1106.25 752.953 1111.07 751.735C1113.06 751.21 1117.79 751.852 1119.03 749.841C1118.43 749.295 1117.74 748.64 1117.05 747.986C1115.76 746.785 1114.26 745.678 1113.06 744.895C1108.33 742.08 1102.56 747.91 1097.23 746.826C1094.67 746.289 1092.79 744.439 1090.91 742.692C1080.59 733.397 1067.1 727.676 1053.16 726.799C1054.35 727.995 1055.64 729.092 1056.83 730.288C1054.24 730.267 1051.65 730.246 1049.07 730.122C1050.47 731.224 1051.75 732.528 1052.92 734.033C1050.96 733.836 1049.08 734.263 1047.37 735.319C1048.57 736.205 1049.88 736.889 1051.32 737.165C1050.26 737.632 1049.31 738.104 1048.25 738.57C1055.36 741.5 1062.24 744.729 1069.11 748.268C1071.23 749.302 1073.62 751.384 1072.69 753.513C1072.23 754.422 1071.37 755.002 1070.42 755.371C1066.63 756.844 1062.4 756.434 1058.34 756.86C1054.6 757.301 1051.02 758.578 1047.81 760.598C1049.24 760.977 1050.67 761.46 1052.2 761.844C1051.21 763.142 1050.32 764.445 1049.32 765.743C1050.7 765.084 1052.07 764.632 1053.53 764.392C1053.69 765.435 1053.53 766.566 1053.17 767.584C1058.77 762.988 1066.04 760.336 1073.51 760.074Z" fill="#1D1D1D"/>
<path d="M484.163 661.968C490.511 663.412 496.637 667.329 503.006 666.186C506.764 665.539 510.291 663.224 514.117 663.305C515.77 663.384 519.123 664.684 520.422 663.504C520.137 662.973 519.754 662.334 519.267 661.689C518.495 660.513 517.621 659.333 516.932 658.575C513.973 655.534 508.439 658.684 504.594 656.843C502.775 655.927 501.723 654.117 500.662 652.513C494.779 643.535 485.694 636.577 475.505 633.189C476.179 634.257 476.847 635.427 477.624 636.5C475.681 635.992 473.744 635.382 471.801 634.874C472.681 635.952 473.345 637.226 473.905 638.495C472.479 638.012 470.93 637.938 469.459 638.384C470.142 639.245 471.037 640.013 472.045 640.579C471.209 640.746 470.269 640.908 469.433 641.075C474.123 644.716 478.808 648.461 483.169 652.5C484.56 653.706 485.911 655.738 484.809 657.134C484.366 657.734 483.53 657.901 482.694 658.067C479.571 658.435 476.419 657.248 473.336 656.789C470.459 656.34 467.444 656.609 464.611 657.405C465.619 657.971 466.622 658.64 467.63 659.206C466.66 659.988 465.691 660.769 464.722 661.551C465.873 661.296 467.014 661.247 468.145 661.405C468.002 662.226 467.756 663.042 467.205 663.74C472.502 661.2 478.532 660.662 484.163 661.968Z" fill="#1D1D1D"/>
<path d="M1318.07 737.156C1323.24 737.404 1328.52 739.521 1333.37 737.684C1336.21 736.682 1338.6 734.313 1341.63 733.837C1342.88 733.587 1345.75 734.243 1346.64 733.043C1346.34 732.718 1345.95 732.285 1345.45 731.847C1344.66 731.085 1343.87 730.322 1343.17 729.771C1340.36 727.876 1336.58 731.111 1333.31 730.229C1331.78 729.844 1330.7 728.551 1329.62 727.36C1323.71 721.175 1315.73 717.065 1307.19 715.93C1307.88 716.688 1308.57 717.445 1309.26 718.203C1307.71 718.025 1306.06 717.946 1304.52 717.768C1305.31 718.531 1306.09 719.397 1306.67 720.356C1305.54 720.198 1304.29 720.345 1303.23 720.915C1303.92 721.466 1304.73 721.919 1305.54 722.268C1304.91 722.549 1304.28 722.725 1303.54 723C1307.78 725.171 1311.92 727.44 1315.94 729.911C1317.14 730.693 1318.63 732.007 1317.85 733.315C1317.51 733.816 1316.98 734.101 1316.35 734.278C1313.93 734.99 1311.37 734.556 1308.88 734.644C1306.6 734.741 1304.29 735.355 1302.17 736.391C1303.09 736.746 1303.9 736.992 1304.82 737.347C1304.16 738.143 1303.5 738.836 1302.84 739.633C1303.69 739.259 1304.63 739.097 1305.46 739.034C1305.53 739.658 1305.39 740.376 1305.06 740.981C1308.91 738.268 1313.53 736.938 1318.07 737.156Z" fill="#1D1D1D"/>
<path d="M1535.27 601.024C1540.43 601.273 1545.72 603.39 1550.57 601.553C1553.41 600.551 1555.8 598.181 1558.82 597.706C1560.08 597.456 1562.95 598.111 1563.83 596.911C1563.54 596.587 1563.14 596.154 1562.65 595.716C1561.85 594.953 1561.06 594.19 1560.37 593.639C1557.56 591.745 1553.78 594.979 1550.51 594.097C1548.98 593.713 1547.9 592.419 1546.82 591.228C1540.9 585.044 1532.92 580.933 1524.39 579.798C1525.08 580.556 1525.76 581.314 1526.45 582.071C1524.91 581.894 1523.25 581.814 1521.71 581.636C1522.5 582.399 1523.29 583.265 1523.86 584.224C1522.73 584.066 1521.48 584.213 1520.42 584.783C1521.12 585.334 1521.93 585.787 1522.74 586.137C1522.1 586.417 1521.47 586.594 1520.73 586.869C1524.98 589.039 1529.11 591.309 1533.13 593.779C1534.34 594.562 1535.83 595.875 1535.04 597.183C1534.71 597.685 1534.18 597.97 1533.55 598.147C1531.13 598.858 1528.56 598.425 1526.08 598.512C1523.79 598.609 1521.49 599.223 1519.37 600.26C1520.28 600.614 1521.1 600.86 1522.01 601.215C1521.35 602.011 1520.7 602.704 1520.04 603.501C1520.88 603.127 1521.82 602.966 1522.66 602.902C1522.73 603.527 1522.59 604.245 1522.25 604.849C1526.11 602.136 1530.73 600.806 1535.27 601.024Z" fill="#1D1D1D"/>
<path d="M517.223 826.902C518.9 826.465 520.759 826.554 522.52 826.535C531.633 826.456 540.762 823.893 548.544 819.195C545.053 818.613 541.242 818.223 537.872 819.407L536.254 820.778C536.475 820.478 536.593 820.173 536.82 819.77C536.711 819.868 536.505 819.858 536.397 819.957C536.948 819.259 537.499 818.561 538.148 817.971C539.575 816.28 541.307 814.707 543.329 813.562C543.226 813.557 543.127 813.449 543.132 813.345C543.044 813.03 543.369 812.736 543.59 812.436C543.812 812.136 544.038 811.733 543.738 811.511C542.902 811.678 542.066 811.845 541.333 812.017C541.874 811.525 542.312 811.029 542.858 810.434C539.691 811.731 536.528 812.924 533.36 814.221C532.199 814.683 530.935 815.14 529.706 814.873C528.171 814.489 527.1 813.092 526.122 811.906C523.684 808.787 520.602 806.155 517.175 804.23C516.747 804.52 516.51 805.13 516.594 805.548C515.576 805.188 514.558 804.829 513.54 804.469C513.81 805.31 513.874 806.142 513.726 807.066C512.595 806.908 511.469 806.647 510.338 806.489C511.414 807.783 512.491 809.077 513.675 810.273C513.257 810.356 512.942 810.444 512.524 810.528C513.635 813.273 515.596 815.541 518.113 817.007C519.622 817.908 521.742 819.045 521.446 820.894C521.298 821.819 520.535 822.61 519.684 823.087C517.549 824.433 515.026 825.244 512.542 825.228C511.819 825.193 510.988 825.256 510.545 825.856C510.319 826.259 510.299 826.672 510.274 827.189C510.205 828.635 509.624 829.952 508.64 831.044C511.684 830.155 514.179 827.791 517.223 826.902Z" fill="#1D1D1D"/>
<path d="M431.633 749.085C429.001 749.993 426.1 750.061 423.336 749.411C422.52 749.164 421.595 749.016 421.054 749.508C420.729 749.803 420.596 750.417 420.473 750.826C420.089 752.36 419.095 753.658 417.708 754.523C421.229 754.485 424.535 752.47 428.056 752.432C430.023 752.423 431.862 752.926 433.805 753.433C443.625 755.872 453.992 755.543 463.657 752.591C460.009 750.967 456.04 749.534 452.189 749.97L450.069 751.006C450.394 750.712 450.719 750.417 450.94 750.117C450.734 750.107 450.625 750.205 450.419 750.195C451.172 749.61 452.028 749.03 452.879 748.554C454.915 747.099 457.144 745.964 459.559 745.252C459.46 745.144 459.357 745.139 459.367 744.932C459.387 744.519 459.81 744.332 460.13 744.141C460.449 743.949 460.779 743.551 460.588 743.231C459.658 743.186 458.729 743.142 457.799 743.097C458.439 742.714 459.186 742.232 459.826 741.849C456.073 742.393 452.326 742.834 448.573 743.378C447.22 743.52 445.76 743.76 444.55 743.081C442.933 742.279 442.294 740.488 441.542 738.899C439.769 734.881 437.149 731.235 433.983 728.185C433.452 728.47 433.117 728.971 432.989 729.483C431.986 728.813 430.983 728.144 429.981 727.475C430.039 728.409 429.886 729.437 429.537 730.248C428.42 729.78 427.206 729.204 426.09 728.737C426.94 730.434 427.795 732.028 428.542 733.72C428.129 733.7 427.612 733.675 427.199 733.655C427.665 736.886 429.178 739.858 431.449 742.141C432.83 743.553 434.713 745.299 433.999 747.232C433.748 748.151 432.685 748.721 431.633 749.085Z" fill="#1D1D1D"/>
<path d="M1336.99 634.448C1334.36 635.357 1331.45 635.425 1328.69 634.774C1327.87 634.528 1326.95 634.38 1326.41 634.871C1326.08 635.166 1325.95 635.781 1325.83 636.189C1325.44 637.723 1324.45 639.021 1323.06 639.886C1326.58 639.848 1329.89 637.834 1333.41 637.796C1335.38 637.787 1337.22 638.289 1339.16 638.797C1348.98 641.236 1359.35 640.906 1369.01 637.955C1365.36 636.33 1361.4 634.897 1357.54 635.333L1355.42 636.37C1355.75 636.075 1356.07 635.78 1356.3 635.48C1356.09 635.47 1355.98 635.569 1355.77 635.559C1356.53 634.974 1357.38 634.394 1358.23 633.917C1360.27 632.462 1362.5 631.327 1364.91 630.615C1364.82 630.507 1364.71 630.502 1364.72 630.296C1364.74 629.883 1365.16 629.696 1365.48 629.504C1365.8 629.313 1366.13 628.914 1365.94 628.595C1365.01 628.55 1364.08 628.505 1363.15 628.461C1363.79 628.077 1364.54 627.596 1365.18 627.212C1361.43 627.757 1357.68 628.197 1353.93 628.742C1352.58 628.884 1351.11 629.124 1349.9 628.445C1348.29 627.642 1347.65 625.852 1346.9 624.263C1345.12 620.244 1342.5 616.599 1339.34 613.548C1338.81 613.833 1338.47 614.335 1338.34 614.846C1337.34 614.177 1336.34 613.507 1335.34 612.838C1335.39 613.773 1335.24 614.8 1334.89 615.612C1333.78 615.144 1332.56 614.568 1331.44 614.1C1332.29 615.797 1333.15 617.391 1333.9 619.083C1333.48 619.063 1332.97 619.039 1332.55 619.019C1333.02 622.25 1334.53 625.221 1336.8 627.504C1338.19 628.916 1340.07 630.663 1339.35 632.595C1339.1 633.515 1338.04 634.085 1336.99 634.448Z" fill="#1D1D1D"/>
<path d="M749.846 692.858C747.214 693.766 744.312 693.834 741.549 693.183C740.733 692.937 739.808 692.789 739.267 693.281C738.942 693.576 738.809 694.19 738.686 694.598C738.302 696.133 737.308 697.43 735.92 698.295C739.442 698.258 742.747 696.243 746.269 696.205C748.236 696.196 750.075 696.699 752.017 697.206C761.837 699.645 772.204 699.315 781.87 696.364C778.221 694.74 774.253 693.307 770.402 693.743L768.282 694.779C768.607 694.484 768.931 694.189 769.153 693.89C768.946 693.88 768.838 693.978 768.632 693.968C769.384 693.383 770.24 692.803 771.091 692.326C773.128 690.872 775.356 689.737 777.771 689.025C777.673 688.916 777.57 688.912 777.58 688.705C777.6 688.292 778.023 688.105 778.342 687.914C778.662 687.722 778.992 687.324 778.8 687.004C777.871 686.959 776.941 686.915 776.012 686.87C776.651 686.487 777.399 686.005 778.039 685.622C774.286 686.166 770.538 686.607 766.786 687.151C765.433 687.293 763.972 687.533 762.763 686.854C761.145 686.052 760.507 684.261 759.755 682.672C757.981 678.653 755.362 675.008 752.196 671.957C751.665 672.242 751.33 672.744 751.202 673.255C750.199 672.586 749.196 671.917 748.193 671.247C748.252 672.182 748.099 673.21 747.749 674.021C746.633 673.553 745.419 672.977 744.303 672.51C745.153 674.207 746.008 675.8 746.754 677.493C746.341 677.473 745.825 677.448 745.412 677.428C745.877 680.659 747.391 683.63 749.662 685.913C751.043 687.325 752.926 689.072 752.212 691.005C751.961 691.924 750.898 692.494 749.846 692.858Z" fill="#1D1D1D"/>
<path d="M1194.08 657.182C1193.36 657.044 1192.64 657.009 1192.02 656.979C1190.47 657.008 1188.9 657.243 1187.36 656.962C1186.03 656.691 1184.83 655.909 1183.61 655.436C1180.46 654.043 1177.07 653.672 1173.67 653.302C1170.88 653.065 1168.21 652.729 1165.43 652.492C1163.26 652.284 1161 652.072 1159.19 653.123C1160.08 653.891 1160.98 654.555 1161.87 655.323C1160.85 655.17 1159.71 655.115 1158.68 654.962C1159.59 655.523 1160.5 655.981 1161.4 656.542C1154.35 656.824 1147.4 657.111 1140.35 657.393C1141.23 658.471 1142.44 659.15 1143.87 659.426C1143.33 659.917 1142.79 660.409 1142.25 660.9C1143.39 660.852 1144.43 660.798 1145.56 660.853C1145.2 661.871 1144.64 662.879 1143.98 663.675C1152.57 665.744 1162.34 660.625 1170.22 664.73C1173.96 666.669 1176.37 670.408 1178.05 674.215C1179.73 678.022 1180.87 682.115 1182.66 685.824C1183.04 686.566 1183.62 687.422 1184.44 687.669C1184.7 686.543 1184.86 685.308 1185.12 684.182C1185.88 685.565 1186.75 686.848 1187.62 688.236C1188.1 689.087 1188.46 690.036 1188.94 690.887C1189.68 688.438 1190.21 686.083 1190.74 683.624C1191.11 684.47 1191.58 685.425 1191.96 686.271C1192.21 685.248 1192.37 684.22 1192.62 683.197C1192.82 683.31 1192.92 683.419 1193.12 683.635L1193.59 673.824C1193.44 672.678 1193.4 671.434 1193.24 670.288C1193.11 668.729 1193.1 666.865 1193.99 665.562L1194.39 657.197L1194.08 657.182Z" fill="#1D1D1D"/>
<path d="M678.379 689.421C680.067 688.778 681.572 687.608 682.478 685.995C680.093 683.914 676.843 682.619 673.632 682.672C672.078 682.701 670.514 682.936 668.975 682.655C667.642 682.384 666.437 681.601 665.218 681.129C662.076 679.735 658.678 679.365 655.28 678.994C652.496 678.757 649.821 678.421 647.038 678.184C644.874 677.977 642.607 677.764 640.796 678.816C641.691 679.583 642.591 680.248 643.485 681.015C642.458 680.862 641.322 680.808 640.294 680.655C641.199 681.216 642.108 681.674 643.013 682.235C635.96 682.517 629.011 682.804 621.959 683.085C622.838 684.163 624.048 684.842 625.484 685.118C624.943 685.61 624.401 686.101 623.86 686.593C625.001 686.544 626.039 686.491 627.175 686.545C626.816 687.563 626.249 688.571 625.59 689.367C634.186 691.437 643.955 686.317 651.832 690.422C655.569 692.362 657.977 696.1 659.657 699.908C661.337 703.715 662.486 707.807 664.274 711.516C664.653 712.259 665.233 713.115 666.049 713.361C666.31 712.235 666.473 711.001 666.734 709.875C667.496 711.257 668.366 712.541 669.23 713.928C669.707 714.779 670.076 715.729 670.552 716.58C671.291 714.131 671.818 711.775 672.351 709.317C672.724 710.163 673.196 711.117 673.569 711.963C673.825 710.94 673.978 709.912 674.234 708.89C674.932 709.441 675.626 710.095 676.211 710.848C675.726 705.856 675.345 700.869 674.86 695.877C674.645 693.9 674.651 691.623 676.254 690.561C676.805 689.863 677.642 689.696 678.379 689.421Z" fill="#1D1D1D"/>
</g>
<defs>
<clipPath id="clip0">
<rect width="1824" height="984" fill="white"/>
</clipPath>
</defs>
</svg>
