<svg width="291" height="224" viewBox="0 0 291 224" fill="none" xmlns="http://www.w3.org/2000/svg">
<path d="M220.023 3.76514H74.8212V205.107H220.023V3.76514Z" fill="white"/>
<path d="M213.217 10.5715H81.6276V198.301H213.217V10.5715Z" fill="#446E88"/>
<path d="M152.298 61.5471H101.757V125.749H152.298V61.5471Z" fill="#335C70"/>
<path d="M148.436 65.457H105.619V121.887H148.436V65.457Z" fill="#568196"/>
<path d="M221.375 61.5471H170.834V125.749H221.375V61.5471Z" fill="#335C70"/>
<path d="M217.513 65.457H174.696V121.887H217.513V65.457Z" fill="#568196"/>
<path d="M153.842 162.725C159.442 160.649 165.138 158.911 170.93 157.608C173.489 162.146 175.371 167.118 176.433 172.186C177.495 177.11 177.737 184.351 171.413 185.702C161.904 187.682 155.483 169.435 153.842 162.725Z" fill="#F37765"/>
<path d="M200.231 151.333C199.025 152.685 197.77 153.698 196.032 154.084C193.618 154.664 191.977 156.353 191.012 158.525C188.839 163.256 187.391 168.325 185.171 173.055C183.481 176.579 180.633 180.151 178.075 183.144C177.351 184.013 176.578 184.834 175.565 185.365C174.647 185.847 173.634 186.04 172.572 186.185C170.593 186.427 168.517 186.427 166.779 185.558C165.186 184.785 163.931 183.241 163.448 181.551C162.966 179.765 163.303 177.834 163.979 176.145C165.331 172.959 167.841 169.918 170.013 167.214C172.427 164.222 174.889 161.277 177.302 158.284C178.992 156.208 181.695 153.795 182.419 151.092C182.854 149.45 181.84 147.616 181.695 145.975C181.55 144.14 181.888 142.161 182.516 140.472C182.998 139.217 183.674 138.058 184.109 136.803C184.833 134.631 184.736 132.266 185.605 130.19C185.846 129.611 186.329 128.935 186.957 128.935C187.729 128.935 188.163 129.852 188.357 130.624C188.791 132.217 189.081 133.81 189.274 135.451C191.88 131.3 194.004 127.004 196.804 122.949C197.19 122.37 197.673 121.742 198.397 121.549C199.363 121.308 200.328 122.08 200.811 122.949C200.618 122.611 202.211 121.356 202.404 121.211C202.742 121.018 203.176 121.066 203.514 121.26C203.852 121.453 204.045 121.791 204.238 122.177C204.576 122.901 205.01 124.011 204.866 124.832C205.107 124.783 205.493 124.639 205.734 124.687C205.879 124.735 205.976 124.832 206.072 124.928C208.486 127.68 205.928 131.638 205.348 134.534C205.59 134.631 205.879 134.341 206.121 134.341C206.41 134.341 206.603 134.631 206.7 134.872C207.376 136.465 206.893 138.348 206.072 139.893C205.107 141.775 204.238 143.465 203.562 145.444C203.031 147.423 201.68 149.643 200.231 151.333Z" fill="#FAAE7A"/>
<path d="M165.331 171.221C160.311 173.152 155.58 173.152 150.367 173.441C150.125 173.441 149.932 173.441 149.739 173.297C149.594 173.152 149.546 172.959 149.498 172.766C147.76 165.477 146.022 158.236 144.333 150.995C142.402 142.789 141.099 134.389 141.05 125.894C141.05 124.735 141.05 123.528 141.726 122.611C144.767 118.025 155.049 124.252 157.559 126.666C161.083 130.045 163.545 134.341 165.814 138.637C170.448 147.375 173.199 156.45 176.53 165.814C176.675 166.297 166.393 170.835 165.524 171.173C165.428 171.173 165.379 171.173 165.331 171.221Z" fill="#80CEFF"/>
<path d="M167.503 165.573C165.283 160.118 162.917 154.712 160.987 149.112C159.152 143.851 158.911 138.348 156.449 133.279C156.111 132.603 155.725 131.927 155.049 131.686C154.711 131.541 154.325 131.541 153.939 131.638C152.491 131.879 151.332 133.086 150.656 134.389C149.981 135.693 149.691 137.189 149.256 138.589C148.098 142.692 146.746 146.023 147.229 150.271C147.615 154.036 147.277 157.946 146.988 161.808C147.857 165.476 148.725 169.097 149.594 172.765C149.643 172.959 149.691 173.152 149.836 173.296C149.981 173.441 150.222 173.441 150.463 173.441C155.677 173.2 160.456 173.152 165.428 171.221C165.476 171.221 165.524 171.172 165.621 171.172C165.91 171.076 167.407 170.4 169.193 169.628C168.565 168.228 168.034 166.925 167.503 165.573Z" fill="#358EC7"/>
<path d="M102.819 210.176C102.867 211.528 116.19 213.121 117.638 213.314C122.466 213.845 127.245 213.555 132.023 213.748C141.726 214.086 151.574 212.493 161.083 210.321C161.131 199.991 162.145 181.551 161.131 171.269C160.069 160.456 159.056 149.595 157.994 138.782C157.704 135.886 157.414 132.941 156.401 130.19C153.408 122.08 143.802 120.777 136.223 119.86C127.679 118.798 118.99 119.667 111.074 123.19C108.322 124.397 105.474 126.038 104.026 128.838C102.819 131.107 102.722 133.81 102.626 136.417C101.95 158.332 101.757 188.213 102.819 210.176Z" fill="#EE243D"/>
<path d="M102.819 210.176C102.867 211.528 116.19 213.121 117.638 213.314C122.466 213.845 127.245 213.555 132.023 213.748C141.726 214.086 151.574 212.493 161.083 210.321C161.131 199.991 162.145 181.551 161.131 171.269C160.069 160.456 159.056 149.595 157.994 138.782C157.704 135.886 157.414 132.941 156.401 130.19C153.408 122.08 143.802 120.777 136.223 119.86C127.679 118.798 118.99 119.667 111.074 123.19C108.322 124.397 105.474 126.038 104.026 128.838C102.819 131.107 102.722 133.81 102.626 136.417C101.95 158.332 101.757 188.213 102.819 210.176Z" fill="#80CEFF"/>
<path d="M83.0275 183.096C83.6067 186.137 85.2963 188.502 88.6753 189.661C91.5716 190.674 94.9506 190.095 97.4125 188.261C99.7295 186.475 101.081 183.723 102.336 181.068C107.887 168.952 112.522 156.45 116.19 143.609C116.963 140.954 117.638 138.058 116.528 135.548C115.949 134.245 114.887 133.134 113.584 132.507C108.66 130.19 102.819 133.617 99.9709 137.575C97.7987 140.617 96.4953 144.189 95.0954 147.616C92.3439 154.084 81.0966 172.669 83.0275 183.096Z" fill="#F68F77"/>
<path d="M130.43 213.7C137.285 210.321 143.512 197.433 149.305 192.461C138.54 191.109 127.776 189.806 116.963 188.454C114.549 188.164 111.991 187.778 110.301 186.04C108.081 183.723 108.419 180.103 108.853 176.917C110.398 166.152 111.991 155.436 113.535 144.671C114.694 136.851 117.107 128.935 117.204 120.922C115.128 121.501 113.101 122.225 111.073 123.094C108.322 124.301 105.474 125.942 104.026 128.742C102.819 131.01 102.722 133.714 102.626 136.32C101.902 158.284 101.709 188.164 102.771 210.128C102.819 211.48 116.142 213.073 117.59 213.266C121.935 213.797 126.183 213.604 130.43 213.7Z" fill="#358EC7"/>
<path d="M108.563 174.407C109.046 174.359 109.529 174.31 109.963 174.214C111.122 167.214 114.356 160.311 116.432 153.505C118.99 145.009 121.935 135.596 121.5 126.618C121.404 124.542 120.68 122.563 120.004 120.584C113.197 121.694 106.826 122.901 101.95 128.066C97.9436 132.266 95.1921 137.527 92.4888 142.644C88.8202 149.692 85.4894 157.029 81.5794 163.884C88.1927 171.414 98.5711 175.469 108.563 174.407Z" fill="#80CEFF"/>
<path d="M191.446 140.134C193.184 143.03 192.508 146.651 192.749 150.03C192.798 150.464 192.894 151.043 193.329 151.14C193.473 151.188 193.667 151.188 193.811 151.14C195.211 150.802 195.887 149.161 196.177 147.761C196.418 146.506 196.611 145.202 196.611 143.947C196.611 143.561 196.611 143.175 196.515 142.789C196.37 142.258 196.032 141.823 195.742 141.437C195.018 140.472 191.446 134.148 189.95 134.776C189.757 134.872 189.708 135.162 189.708 135.355C189.757 137.286 190.432 138.493 191.446 140.134Z" fill="#F37765"/>
<path d="M86.5996 188.647C82.6896 185.654 80.9035 178.848 85.7307 175.71C88.1926 174.069 91.4751 174.889 94.2266 175.131C111.025 176.627 127.727 179.041 144.284 182.42C143.56 184.978 142.885 187.488 142.16 190.047C141.967 190.771 141.726 191.543 141.147 191.978C140.616 192.412 139.94 192.509 139.264 192.605C124.831 194.391 110.156 193.715 95.723 191.688C92.4888 191.205 89.158 190.626 86.5996 188.647Z" fill="#FAAE7A"/>
<path d="M140.036 193.136C135.692 193.184 128.548 191.35 130.913 185.316C132.603 181.116 138.299 181.406 141.822 179.765C143.898 178.799 145.877 177.593 148.05 176.917C150.222 176.241 152.684 176.048 154.759 177.062C156.642 178.027 157.945 179.861 159.152 181.599C160.842 184.061 162.483 186.475 164.172 188.936C164.414 189.323 164.703 189.709 164.8 190.143C165.09 191.447 163.834 192.653 162.483 192.798C161.131 192.943 159.924 192.219 158.862 191.447C158.621 191.253 158.331 191.06 158.042 191.06C157.559 191.06 157.173 191.495 156.835 191.833C155.049 193.764 151.766 194.15 149.594 192.653C149.112 192.315 148.629 191.929 148.05 192.074C147.712 192.171 147.47 192.46 147.181 192.653C146.553 193.088 145.781 193.088 145.057 193.088C143.415 193.088 141.726 193.088 140.036 193.136Z" fill="#FAAE7A"/>
<path d="M136.609 130.962C137.913 130.914 139.313 130.817 140.471 130.19C142.209 129.321 143.367 127.535 143.947 125.701C144.381 124.204 144.526 122.611 144.574 121.018C144.429 121.018 144.236 121.018 144.091 121.066C141.485 120.439 138.782 120.101 136.32 119.811C130.189 119.039 123.962 119.28 118.025 120.777C120.052 128.645 129.175 131.155 136.609 130.962Z" fill="#FAAE7A"/>
<path d="M120.1 121.742C126.472 125.7 134.534 126.811 141.726 124.783C142.402 124.59 143.126 124.301 143.464 123.673C143.705 123.19 143.609 122.659 143.512 122.128C142.209 113.633 141.726 104.992 142.064 96.3995C142.112 95.5789 142.112 94.6617 141.485 94.1307C141.099 93.7928 140.616 93.648 140.133 93.5514C137.044 92.8274 133.906 92.1516 130.769 91.6206C128.162 91.1861 125.121 90.0276 122.562 90.0276C121.597 90.0276 121.742 103.785 121.693 104.847C121.404 110.495 120.873 116.143 120.1 121.742Z" fill="#FAAE7A"/>
<path d="M142.064 106.102C137.044 103.64 131.782 101.902 126.231 102.047L125.845 102.578C125.989 106.923 127.003 111.267 128.741 115.274C129.61 117.301 130.817 119.329 132.747 120.391C134.389 121.308 136.368 121.404 138.25 121.453C139.988 121.501 141.774 121.549 143.416 121.066C142.691 116.143 142.257 111.122 142.064 106.102Z" fill="#F68F77"/>
<path d="M150.898 71.4912C152.828 71.4429 158.042 70.574 159.635 72.1187C162 74.4358 161.421 79.6492 159.297 81.8214C158.09 83.0765 156.401 83.704 154.711 83.8488C153.022 83.9936 151.284 83.6557 149.643 83.173C147.422 82.4972 145.057 81.2904 144.477 79.0216C143.995 77.2356 144.864 75.3047 145.974 73.8083C146.505 73.0842 147.084 72.4084 147.856 72.0222C148.774 71.5395 149.836 71.5395 150.898 71.4912Z" fill="#2B2D42"/>
<path d="M120.438 99.5853C118.7 95.3857 118.314 89.9792 118.266 85.8761C118.169 80.4697 119.038 74.0978 123.335 70.2843C129.851 64.4434 142.402 66.133 150.029 68.8844C151.863 69.5603 153.601 70.4291 154.953 71.829C160.6 77.5251 158.09 87.0347 156.304 93.7927C155.146 98.2337 153.891 102.626 152.539 106.971C152.008 108.757 151.429 110.495 150.463 112.088C149.498 113.681 148.146 115.081 146.457 115.756C144.574 116.48 142.836 116.287 140.954 115.901C137.623 115.274 134.823 113.874 131.879 112.233C130.865 111.653 129.851 111.122 128.982 110.398C127.679 109.385 126.665 108.081 125.603 106.778C124.541 105.475 123.528 104.171 122.466 102.868C121.597 101.999 120.969 100.84 120.438 99.5853Z" fill="#FAAE7A"/>
<path d="M127.631 78.4907C128.21 78.3459 128.837 78.4424 129.465 78.4907C131.637 78.6355 133.858 77.5735 135.064 75.7392C135.692 74.7737 136.319 73.5187 137.478 73.5187C137.961 73.5187 138.347 73.76 138.781 74.0014C141.34 75.353 144.236 75.4495 146.988 76.2219C153.601 78.0562 159.442 78.4907 163.786 72.5532C164.896 71.0085 165.91 69.1742 165.427 67.3399C164.752 64.8297 161.759 63.8643 159.249 63.285C150.077 61.2093 139.892 58.5544 130.479 60.5818C126.906 61.3542 124.203 63.0437 122.224 66.0848C121.017 67.9674 121.21 67.7743 119.279 68.5949C117.349 69.4156 115.997 69.85 115.176 72.0705C114.452 73.9531 114.501 76.0288 114.597 78.0079C115.032 87.1796 115.997 96.3995 118.362 105.33C118.604 106.15 118.845 107.019 119.424 107.599C120.052 108.178 121.114 108.419 121.741 107.84C122.176 107.406 122.272 106.778 122.321 106.199C122.465 104.847 123.093 92.2964 121.886 92.0068C122.61 92.1999 123.045 93.0205 123.769 93.0205C124.541 92.9722 124.879 92.0551 125.024 91.2827C125.651 87.952 125.651 84.7177 126.038 81.3387C126.182 80.325 126.375 79.1182 127.341 78.6838C127.389 78.5872 127.534 78.5389 127.631 78.4907Z" fill="#2B2D42"/>
<path d="M124.107 93.1171C122.417 91.3793 120.342 89.9794 118.121 89.1105C115.949 88.2416 112.908 88.0485 111.701 90.0759C111.073 91.0896 111.122 92.393 111.315 93.5515C111.508 94.71 111.798 95.9168 112.473 96.9305C113.584 98.5718 115.514 99.4407 117.445 99.7303C119.376 100.02 121.355 99.7303 123.286 99.4407C123.769 97.5098 124.203 95.5307 124.686 93.5998" fill="#FAAE7A"/>
<path d="M115.901 93.6962C115.852 93.1169 117.397 93.4065 117.638 93.4548C118.604 93.6479 119.569 93.9858 120.438 94.4203C120.873 94.6133 122.417 95.2409 121.886 95.965C121.645 96.2546 121.21 96.3994 120.824 96.3994C120.293 96.4477 119.762 96.4477 119.28 96.5925C118.7 96.7373 118.942 97.6545 119.521 97.5097C120.486 97.2683 121.5 97.5097 122.369 96.7856C123.093 96.158 123.093 95.1443 122.417 94.5168C121.693 93.841 120.679 93.4066 119.762 93.0687C118.797 92.6825 117.783 92.4411 116.769 92.3446C115.997 92.2963 114.839 92.6825 114.935 93.6479C114.983 94.3237 115.949 94.3237 115.901 93.6962Z" fill="#F37765"/>
<path d="M230.643 205.155H65.1668V223.016H230.643V205.155Z" fill="#D3DCE0"/>
<path d="M230.16 205.107H64.684V214.037H230.16V205.107Z" fill="white"/>
<path opacity="0.5" d="M70.6217 202.259V13.3713L11.6335 7.96484V207.714L70.6217 202.259Z" fill="#93C7EC"/>
<path d="M4.39256 0V215.63L76.9934 208.486V7.14424L4.39256 0ZM70.6215 202.259L11.6333 207.665V7.96486L70.6215 13.3713V202.259Z" fill="white"/>
<path d="M66.2288 202.742L70.6216 202.307V13.3229L66.2288 12.9368V202.742Z" fill="#D3DCE0"/>
<path d="M35.1418 205.542L39.5345 205.155V10.5234L35.1418 10.1372V205.542Z" fill="#D3DCE0"/>
<path d="M75.0625 42.9621V47.7411L6.61303 43.7345V38.6177L75.0625 42.9621Z" fill="white"/>
<path d="M75.0625 74.1938V78.9727L6.61303 77.0419V71.925L75.0625 74.1938Z" fill="white"/>
<path d="M75.0625 105.426V110.205L6.61303 110.398V105.281L75.0625 105.426Z" fill="white"/>
<path d="M75.0625 136.658V141.485L6.61303 143.705V138.589L75.0625 136.658Z" fill="white"/>
<path d="M75.0625 167.938V172.717L6.61303 177.061V171.945L75.0625 167.938Z" fill="white"/>
<path d="M39.5345 7.67529L44.3134 8.15801V208.003L39.5345 208.438V7.67529Z" fill="white"/>
<path d="M0 2.89631V212.734L4.39274 215.63V0L0 2.89631Z" fill="#D3DCE0"/>
<path opacity="0.5" d="M220.168 202.307V13.4196L279.156 8.01318V207.762L220.168 202.307Z" fill="#93C7EC"/>
<path d="M213.796 7.19257V208.534L286.397 215.679V0.0483398L213.796 7.19257ZM279.156 207.762L220.168 202.356V13.4196L279.156 8.0132V207.762Z" fill="white"/>
<path d="M224.56 13.0334L220.168 13.4196V202.307L224.56 202.742V13.0334Z" fill="#D3DCE0"/>
<path d="M251.062 205.155L255.503 205.59V10.1853L251.062 10.5715V205.155Z" fill="#D3DCE0"/>
<path d="M215.727 43.0102V47.7891L284.176 43.7826V38.6658L215.727 43.0102Z" fill="white"/>
<path d="M215.727 74.2422V79.0211L284.176 77.0902V71.9734L215.727 74.2422Z" fill="white"/>
<path d="M215.727 105.474V110.253L284.176 110.446V105.329L215.727 105.474Z" fill="white"/>
<path d="M215.727 136.706V141.533L284.176 143.754V138.637L215.727 136.706Z" fill="white"/>
<path d="M215.727 167.986V172.765L284.176 177.109V171.993L215.727 167.986Z" fill="white"/>
<path d="M251.255 7.72363L246.476 8.20635V208.052L251.255 208.486V7.72363Z" fill="white"/>
<path d="M286.397 0.0483398V215.679L290.79 212.782V2.94465L286.397 0.0483398Z" fill="#D3DCE0"/>
<path d="M171.413 161.18L164.124 201.921C163.98 202.79 164.655 203.611 165.524 203.611H228.712C230.112 203.611 231.319 202.597 231.56 201.245L238.849 160.504C238.994 159.635 238.318 158.814 237.449 158.814H174.261C172.862 158.814 171.655 159.828 171.413 161.18Z" fill="#343A40"/>
<path d="M173.73 158.863C172.572 159.104 171.655 159.973 171.462 161.18L164.173 201.921C164.028 202.694 164.51 203.369 165.235 203.563C166.393 203.321 167.31 202.452 167.503 201.245L174.792 160.504C174.889 159.78 174.406 159.056 173.73 158.863Z" fill="#495057"/>
<path d="M131.299 203.611C131.299 205.783 133.085 207.569 135.258 207.569H221.182C223.354 207.569 225.14 205.783 225.14 203.611H131.299Z" fill="#343A40"/>
<path d="M165.331 203.611H131.299C131.299 205.783 133.085 207.569 135.258 207.569H161.421C163.593 207.569 165.331 205.783 165.331 203.611Z" fill="#495057"/>
<path d="M204.48 178.316C202.066 178.316 199.749 180.296 199.314 182.709C198.88 185.123 200.521 187.102 202.935 187.102C205.348 187.102 207.665 185.123 208.1 182.709C208.486 180.296 206.893 178.316 204.48 178.316Z" fill="#495057"/>
</svg>
