<svg width="334" height="179" viewBox="0 0 334 179" fill="none" xmlns="http://www.w3.org/2000/svg">
<path d="M167 178.978C259.232 178.978 334 174.541 334 169.069C334 163.596 259.232 159.159 167 159.159C74.7684 159.159 0 163.596 0 169.069C0 174.541 74.7684 178.978 167 178.978Z" fill="#52796F"/>
<path d="M49.2098 74.512V103.736C49.2098 106.983 50.8893 109.614 53.0167 109.614H280.983C283.111 109.614 284.79 106.983 284.79 103.736V74.512C284.79 53.7419 273.985 37.7865 260.661 38.6263C198.239 42.2652 135.761 42.2652 73.3389 38.6263C60.0147 37.7305 49.2098 53.6859 49.2098 74.512Z" fill="#FFD167"/>
<path d="M53.0168 109.614H280.983C283.111 109.614 284.79 106.983 284.79 103.736V90.3554C283.447 90.2434 282.103 90.1874 280.703 90.2434C204.957 93.0986 129.099 93.0986 53.3527 90.2434C51.9531 90.1874 50.6095 90.2434 49.2658 90.3554V103.736C49.2099 106.983 50.9454 109.614 53.0168 109.614Z" fill="#EAAE34"/>
<path d="M278.296 82.4058V128.313H309.927V70.2013C309.927 63.8191 304.273 58.8926 297.947 59.7883C286.694 61.4118 278.296 71.0411 278.296 82.4058Z" fill="#FFD167"/>
<path d="M55.704 82.4058V128.313H24.0731V70.2013C24.0731 63.8191 29.7275 58.8926 36.0537 59.7883C47.3064 61.4118 55.704 71.0411 55.704 82.4058Z" fill="#FFD167"/>
<path d="M42.5478 152.386H30.3993V174.611H42.5478V152.386Z" fill="#063B4C"/>
<path d="M303.601 152.386H291.453V174.611H303.601V152.386Z" fill="#063B4C"/>
<path d="M44.3953 101.496C48.1462 101.664 51.8971 101.776 55.704 101.888V82.4058C55.704 71.0411 47.3064 61.3558 36.0537 59.7883C29.7275 58.8926 24.0731 63.8191 24.0731 70.2013V107.99C29.5595 103.624 36.6695 101.16 44.3953 101.496Z" fill="#FFD167"/>
<path d="M309.927 128.313V107.99C304.441 103.624 297.331 101.104 289.605 101.44C285.854 101.608 282.103 101.72 278.296 101.832V128.257H309.927V128.313Z" fill="#EAAE34"/>
<path d="M55.7039 128.313V101.888C51.953 101.776 48.2021 101.608 44.3952 101.496C36.6694 101.16 29.5594 103.68 24.073 108.047V128.369H55.7039V128.313Z" fill="#EAAE34"/>
<path d="M24.0731 131.671V154.513C24.0731 157.088 26.1445 159.104 28.6638 159.104H305.28C307.856 159.104 309.871 157.032 309.871 154.513V131.671C309.871 115.436 296.771 102.952 280.591 103.624C204.845 106.479 128.987 106.479 53.2407 103.624C37.1734 102.952 24.0731 115.436 24.0731 131.671Z" fill="#FFD167"/>
<path d="M305.336 148.187H28.6638C26.0885 148.187 24.0731 146.115 24.0731 143.596V154.513C24.0731 157.088 26.1445 159.104 28.6638 159.104H305.28C307.856 159.104 309.871 157.032 309.871 154.513V143.596C309.927 146.171 307.856 148.187 305.336 148.187Z" fill="#EAAE34"/>
<path d="M237.54 30.7324C237.54 30.7324 236.588 38.7941 234.069 43.3288C231.549 47.8635 223.992 50.0469 222.032 54.3016C220.856 56.8769 220.856 59.7881 222.032 62.3633L253.943 45.2323L249.632 33.5876L237.54 30.7324Z" fill="#1D1D1D"/>
<path d="M218.561 71.3207L225.615 76.5832L213.579 89.1236L181.22 88.2279L178.365 76.0234L189.617 81.1739L209.212 81.8457L217.441 69.9211L218.561 71.3207Z" fill="#F2AC91"/>
<path d="M81.6802 74.4L82.9118 86.9404H164.48C164.48 86.9404 146.733 66.7302 136.376 67.0662C125.963 67.458 81.6802 74.4 81.6802 74.4Z" fill="#1068A4"/>
<path d="M246.609 46.1838C246.609 46.1838 233.957 49.263 229.59 51.6703C225.279 54.0776 215.874 68.1295 215.874 68.1295C215.874 68.1295 218.057 70.7608 218.561 71.3766C219.065 71.9364 221.976 74.2318 221.976 74.2318C221.528 75.5754 221.248 76.975 221.081 78.3746C221.025 79.9421 221.081 81.0058 221.081 81.0058L213.467 88.1158L181.052 87.388V88.5077L220.465 98.5288L232.333 121.37C232.333 121.37 246.721 116.556 249.352 113.477C250.248 112.413 257.078 106.59 259.429 102.224C263.74 94.218 259.429 85.9884 259.429 85.9884C259.429 85.9884 266.204 86.0444 268.275 86.8282C270.346 87.6119 274.769 93.0984 274.769 93.0984C274.769 93.0984 280.759 94.0501 281.599 92.7625C282.439 91.4188 282.383 81.7896 284.23 71.4326C286.078 61.0756 281.431 51.6143 277.12 49.7668C272.81 47.9194 266.931 48.0313 264.804 47.6394C263.46 47.4155 262.173 46.9116 261.053 46.2398L246.609 46.1838Z" fill="#EF69A8"/>
<path d="M73.507 87.1641C73.507 87.1641 130.778 81.0059 139.848 81.0059C148.917 81.0059 220.073 96.4574 220.073 96.4574C220.073 96.4574 226.791 103.567 230.318 108.102C232.501 111.069 233.901 114.484 234.293 118.123C234.293 118.123 231.102 128.648 208.372 129.32C185.643 129.992 141.527 103.064 141.527 103.064L75.8023 101.552C75.8023 101.552 74.1228 96.0655 73.7869 92.3706C73.6189 88.6756 73.507 87.1641 73.507 87.1641Z" fill="#3884C1"/>
<path d="M267.715 86.6604C267.715 86.6604 274.657 88.4519 276.728 89.6835C278.24 90.6912 279.695 91.8109 280.983 93.0986C280.087 93.3785 279.192 93.4904 278.296 93.4904C277.064 93.4904 275.776 93.3225 274.545 93.0426C274.545 93.0426 272.417 90.0754 270.738 88.8438C269.17 87.5561 267.715 86.6604 267.715 86.6604Z" fill="#A92865"/>
<path d="M259.597 85.9885H256.35C256.35 85.9885 256.126 88.6758 255.343 89.6835C254.559 90.6912 252.375 90.9151 252.375 90.9151L256.966 91.475L259.597 85.9885Z" fill="#A92865"/>
<path d="M247.169 41.5374L246.217 46.464C246.217 46.464 243.306 47.8076 242.858 48.7593C242.41 49.7111 232.893 61.0198 243.698 61.2997C254.503 61.5796 266.203 49.3752 266.203 49.3752L263.068 47.4157L258.869 32.468L247.169 41.5374Z" fill="#F3B896"/>
<path d="M148.581 46.184H169.239C169.239 46.184 170.415 46.1281 170.751 47.0238C171.087 47.9195 181.668 88.3959 181.668 88.3959L162.353 84.533L157.539 79.7744L148.133 47.2477C148.077 47.0238 148.077 46.7439 148.133 46.5199C148.189 46.24 148.581 46.184 148.581 46.184Z" fill="white"/>
<path d="M154.347 68.8015C154.347 68.8015 151.828 70.537 151.604 70.9849C151.38 71.7127 151.436 72.4405 151.716 73.1123C151.996 73.5042 152.668 74.2879 152.668 74.2879L152.444 75.3516L157.65 79.9423L157.371 78.8226C157.371 78.8226 158.658 79.4944 159.386 78.8226C160.17 78.1508 159.666 76.5833 158.714 76.0794C157.818 75.5196 154.795 74.12 154.795 74.12C155.075 73.7281 155.131 73.2802 155.019 72.8323C154.795 72.2165 154.739 72.3285 154.739 72.3285L155.243 71.7127L154.347 68.8015Z" fill="#F3B896"/>
<path d="M153.228 74.5678C153.564 74.6238 153.843 74.6238 154.179 74.6238C154.403 74.5678 154.571 74.3999 154.739 74.2319C154.739 74.2319 154.459 74.8478 154.123 74.9037C153.843 74.9597 153.228 74.5678 153.228 74.5678Z" fill="#F2AC91"/>
<path d="M247.169 41.5374L257.022 33.9236C258.142 36.7228 258.925 38.6822 258.925 38.6822C258.31 39.8579 257.526 40.9216 256.686 41.8733C255.51 43.049 251.032 45.6802 246.385 45.6802L247.169 41.5374Z" fill="#EF8D84"/>
<path d="M157.651 79.8864C157.651 79.8304 157.315 78.7667 157.315 78.7667L155.523 77.9829L157.651 79.8864Z" fill="#F2AC91"/>
<path d="M235.86 12.0899C235.86 12.0899 233.901 21.999 234.516 25.9179C235.132 29.8368 238.043 43.3289 242.858 43.5528C247.729 43.7768 252.431 40.9776 253.663 39.7459C254.559 38.7942 255.286 37.7305 255.958 36.5548C255.958 36.5548 248.624 16.9605 244.538 14.3852C241.906 12.7617 238.939 11.9779 235.86 12.0899Z" fill="#F3B896"/>
<path d="M237.652 12.0898C241.515 15.3368 244.818 19.2557 247.337 23.6785C251.48 30.9004 256.966 46.072 261.165 47.9195C265.308 49.8229 273.201 49.543 276.448 51.3905C279.64 53.2939 283.446 59.2282 283.894 60.5718C284.23 62.0274 284.454 63.539 284.622 64.9946C284.622 64.9946 289.549 55.3094 282.439 46.128C275.329 36.9466 272.754 28.4931 272.138 21.719C271.522 14.889 269.45 2.12465 258.142 0.27718C246.777 -1.57029 234.964 6.26746 233.621 10.4662C232.277 14.665 235.076 17.9681 235.076 17.9681C235.076 17.9681 235.972 14.0492 236.42 13.1535C236.532 12.5936 237.036 12.2017 237.652 12.0898Z" fill="#1D1D1D"/>
<path d="M76.1938 99.5927C76.1938 99.5927 65.6689 99.8166 63.4295 100.6C61.1342 101.44 55.4798 107.598 50.0493 105.527C44.5629 103.456 45.1228 89.7395 43.7791 81.006C42.4355 72.2166 39.0205 57.1009 39.0205 57.1009C39.0205 57.1009 39.9722 54.6376 43.7791 55.8693C47.586 57.1009 52.3447 60.18 53.9682 69.3614C55.5918 78.5428 67.9642 87.6121 67.9642 87.6121L74.2344 88.004L76.1938 99.5927Z" fill="#F2AC91"/>
<path d="M81.7923 75.1835L65.389 73.7839C65.389 73.7839 37.1732 55.8131 32.9744 58.2764C28.7756 60.7397 25.4725 71.1527 35.6056 78.1506C45.7387 85.1486 51.1131 84.7567 53.9123 86.4922C56.7115 88.2277 61.5821 93.0984 66.9566 89.9633C72.3311 86.8282 73.6187 87.276 73.6187 87.276L82.8 86.1564L81.7923 75.1835Z" fill="#F3B896"/>
<path d="M209.604 92.0907C209.604 92.0907 215.258 94.2181 218.897 95.2818C222.536 96.2895 252.991 109.782 252.991 109.782L258.31 104.239L216.938 91.4189L209.604 92.0907Z" fill="#A92865"/>
<path d="M184.971 88.5079C184.635 87.7801 184.803 86.8843 185.363 86.3245C186.37 85.2608 195.104 81.7898 197.231 81.6778C199.359 81.5659 213.858 86.7164 213.858 86.7164L256.854 91.419L259.653 85.9886C259.653 85.9886 265.028 86.0446 267.715 86.7164C270.458 87.3882 274.545 92.9866 274.545 92.9866C274.545 92.9866 265.252 106.143 262.173 106.423C259.093 106.703 218.281 93.3225 218.281 93.3225C218.281 93.3225 212.851 92.7067 209.156 92.5387C205.461 92.3707 201.71 89.2916 198.799 89.4036C196.503 89.5715 194.208 89.9074 191.969 90.4673L184.971 88.5079Z" fill="#F3B896"/>
<path d="M181.668 88.3959L211.675 94.6661C211.675 94.6661 212.011 93.2105 211.675 93.0985C211.339 92.9866 181.164 86.4924 181.164 86.4924L181.668 88.3959Z" fill="#E1E2E1"/>
<path d="M161.793 59.6201C163.305 59.2282 165.264 61.6915 166.16 65.1065C167.056 68.5215 166.608 71.6566 165.096 72.0485C163.585 72.4404 161.625 69.9771 160.73 66.5621C159.834 63.0911 160.338 60.012 161.793 59.6201Z" fill="#E1E2E1"/>
</svg>
