<svg width="968" height="758" viewBox="0 0 968 758" fill="none" xmlns="http://www.w3.org/2000/svg">
<g clip-path="url(#clip0)">
<g clip-path="url(#clip1)">
<path d="M484 752.396C680.723 752.396 840.198 592.921 840.198 396.198C840.198 199.475 680.723 40 484 40C287.277 40 127.802 199.475 127.802 396.198C127.802 592.921 287.277 752.396 484 752.396Z" fill="#FF52A4"/>
<path d="M676.871 308.521C676.871 301.89 682.247 296.514 688.878 296.514H718.68C731.984 296.514 742.769 285.729 742.769 272.425C742.769 259.121 731.984 248.336 718.68 248.336H566.012C559.38 248.336 554.005 242.96 554.005 236.329C554.005 229.698 559.381 224.322 566.012 224.322H630.157C639.176 224.322 646.487 217.011 646.487 207.992C646.487 198.973 639.176 191.662 630.157 191.662H434.252C425.233 191.662 417.922 198.973 417.922 207.992C417.922 217.011 425.233 224.322 434.252 224.322H471.353C477.984 224.322 483.36 229.698 483.36 236.329C483.36 242.96 477.984 248.336 471.353 248.336H276.483C263.179 248.336 252.395 259.121 252.395 272.425C252.395 285.729 263.18 296.514 276.483 296.514H345.961C355.364 296.514 362.987 304.137 362.987 313.54C362.987 322.943 355.364 330.566 345.961 330.566H203.82C192.731 330.566 183.741 339.556 183.741 350.645C183.741 361.734 192.731 370.723 203.82 370.723H457.606C468.695 370.723 477.685 361.733 477.685 350.645C477.685 339.556 468.695 330.566 457.606 330.566H450.66C441.257 330.566 433.634 322.943 433.634 313.54C433.634 304.137 441.257 296.514 450.66 296.514H594.219C600.85 296.514 606.226 301.89 606.226 308.521C606.226 315.153 600.85 320.528 594.219 320.528H589.242C575.381 320.528 564.144 331.765 564.144 345.626C564.144 359.487 575.381 370.724 589.242 370.724H832.429C846.29 370.724 857.527 359.487 857.527 345.626C857.527 331.765 846.29 320.528 832.429 320.528H688.879C682.247 320.528 676.871 315.152 676.871 308.521Z" fill="#79CBC4"/>
<path d="M808.748 157.734C820.327 157.734 829.714 148.347 829.714 136.768C829.714 125.189 820.327 115.802 808.748 115.802C797.169 115.802 787.782 125.189 787.782 136.768C787.782 148.347 797.169 157.734 808.748 157.734Z" fill="#6CC1F7"/>
<path d="M920.726 280.785C942.907 280.785 960.888 262.804 960.888 240.623C960.888 218.442 942.907 200.461 920.726 200.461C898.545 200.461 880.564 218.442 880.564 240.623C880.564 262.804 898.545 280.785 920.726 280.785Z" fill="#6CC1F7"/>
<path d="M911.614 135.698C917.108 135.698 921.562 131.244 921.562 125.75C921.562 120.256 917.108 115.802 911.614 115.802C906.12 115.802 901.666 120.256 901.666 125.75C901.666 131.244 906.12 135.698 911.614 135.698Z" fill="#6CC1F7"/>
<path d="M105.178 445.542C110.649 445.542 115.084 441.107 115.084 435.636C115.084 430.165 110.649 425.73 105.178 425.73C99.7071 425.73 95.272 430.165 95.272 435.636C95.272 441.107 99.7071 445.542 105.178 445.542Z" fill="#6CC1F7"/>
<path d="M108.731 388.284C129.343 388.284 146.052 371.575 146.052 350.963C146.052 330.351 129.343 313.642 108.731 313.642C88.1192 313.642 71.41 330.351 71.41 350.963C71.41 371.575 88.1192 388.284 108.731 388.284Z" fill="#6CC1F7"/>
<path d="M22.5 439.908C32.165 439.908 40 432.073 40 422.408C40 412.743 32.165 404.908 22.5 404.908C12.835 404.908 5 412.743 5 422.408C5 432.073 12.835 439.908 22.5 439.908Z" fill="#6CC1F7"/>
<path d="M799.745 696.136C816.296 696.136 829.714 682.718 829.714 666.167C829.714 649.616 816.296 636.198 799.745 636.198C783.194 636.198 769.776 649.616 769.776 666.167C769.776 682.718 783.194 696.136 799.745 696.136Z" fill="#6CC1F7"/>
<path d="M870.186 644.954C875.918 644.954 880.564 640.308 880.564 634.576C880.564 628.844 875.918 624.198 870.186 624.198C864.454 624.198 859.808 628.844 859.808 634.576C859.808 640.308 864.454 644.954 870.186 644.954Z" fill="#6CC1F7"/>
<path d="M870.219 473.138C879.775 473.138 887.522 465.391 887.522 455.835C887.522 446.279 879.775 438.532 870.219 438.532C860.663 438.532 852.916 446.279 852.916 455.835C852.916 465.391 860.663 473.138 870.219 473.138Z" fill="#6CC1F7"/>
<path d="M127.433 128.326C137.716 128.326 146.052 119.99 146.052 109.707C146.052 99.424 137.716 91.088 127.433 91.088C117.15 91.088 108.814 99.424 108.814 109.707C108.814 119.99 117.15 128.326 127.433 128.326Z" fill="#6CC1F7"/>
<path d="M141.977 677.61C153.52 677.61 162.877 668.253 162.877 656.71C162.877 645.167 153.52 635.81 141.977 635.81C130.434 635.81 121.077 645.167 121.077 656.71C121.077 668.253 130.434 677.61 141.977 677.61Z" fill="#6CC1F7"/>
<path d="M95.75 618.538C102.471 618.538 107.92 613.089 107.92 606.368C107.92 599.647 102.471 594.198 95.75 594.198C89.0287 594.198 83.58 599.647 83.58 606.368C83.58 613.089 89.0287 618.538 95.75 618.538Z" fill="#6CC1F7"/>
<path d="M229.755 324.035L212.575 341.693L263.357 367.114C256.912 337.891 238.322 327.386 229.755 324.035Z" fill="#74FF51"/>
<path d="M421.297 480.928L267.251 386.957L208.333 357.463V643.513L421.297 480.928ZM290 440C296.445 440 296.435 450 290 450C283.555 450 283.565 440 290 440ZM215.333 412C215.333 409.238 217.572 407 220.333 407C223.094 407 225.333 409.238 225.333 412V543.333C225.333 546.095 223.094 548.333 220.333 548.333C217.572 548.333 215.333 546.095 215.333 543.333V412ZM220.333 561C223.094 561 225.333 563.238 225.333 566V582.667C225.333 585.429 223.094 587.667 220.333 587.667C217.572 587.667 215.333 585.429 215.333 582.667V566C215.333 563.238 217.572 561 220.333 561Z" fill="#4CB431"/>
<path d="M211.134 320.23L221.896 309.169L168.278 216.787L162.474 239.439L211.134 320.23Z" fill="#EFAF3F"/>
<path d="M124.438 234.27C124.72 232.865 125.591 231.648 126.831 230.929C127.486 230.549 128.211 230.338 128.949 230.28C127.595 203.748 113.469 182.259 108.814 175.86L105.323 173.906C104.899 177.702 102.757 181.257 99.2 183.321C95.644 185.385 91.498 185.482 87.992 183.969L87.437 247.73L119.946 256.665L124.438 234.27ZM95.75 231.25C93.816 231.25 93.82 228.25 95.75 228.25C97.684 228.25 97.68 231.25 95.75 231.25ZM92.49 222.25C92.344 217.749 92.198 213.249 92.053 208.748C91.928 204.88 97.928 204.897 98.053 208.748C98.199 213.249 98.345 217.749 98.49 222.25C98.616 226.119 92.615 226.102 92.49 222.25Z" fill="#F9E3B2"/>
<path d="M704.643 367.114L755.425 341.693L738.245 324.035C729.678 327.386 711.088 337.891 704.643 367.114Z" fill="#74FF51"/>
<path d="M805.526 239.438L799.722 216.786L746.104 309.168L756.866 320.23L805.526 239.438Z" fill="#EFAF3F"/>
<path d="M337.733 220.959C317.508 211.735 298.321 200.377 280.511 187.164V261.5C317.341 261.5 354.171 261.5 391 261.5C396.801 261.5 396.791 270.5 391 270.5C354.17 270.5 317.34 270.5 280.511 270.5V309.29C289.393 314.175 306.139 322.397 330.605 330.401C335.811 327.98 341.018 325.559 346.224 323.139C352.029 320.44 357.101 329.063 351.271 331.774C349.129 332.77 346.987 333.766 344.845 334.762C359.113 338.841 375.489 342.679 393.95 345.775C394.199 345.045 394.442 344.319 394.711 343.576C397.673 335.927 400.639 328.278 403.604 320.627C396.813 302.46 391.029 289.168 386.249 280.752C385.962 280.274 385.819 279.797 385.819 279.317C385.819 278.266 386.415 277.287 387.612 276.377C388.806 275.469 389.979 275.014 391.126 275.014C391.316 275.014 393.134 275.541 396.576 276.592C398.965 280.227 401.453 284.911 404.035 290.648C406.233 295.525 408.385 300.402 410.489 305.278C412.401 299.541 414.313 293.853 416.227 288.21C418.425 281.612 420.864 276.161 423.542 271.858C424.306 270.52 425.644 269.85 427.558 269.85C430.234 269.85 432.482 270.76 434.299 272.576C431.621 283.383 426.697 297.439 419.526 314.745C413.686 328.747 409.3 339.725 406.362 347.694C429.325 350.947 455.209 353 484 353C488.254 353 492.443 352.954 496.571 352.867C494.365 345.321 493.248 336.83 493.248 327.367C493.248 320.388 493.916 311.399 495.256 300.402C495.16 301.359 495.113 298.394 495.113 291.509C495.113 285.581 497.408 282.616 501.998 282.616C502.953 282.616 503.981 282.881 505.081 283.405C506.179 283.932 507.255 284.481 508.309 285.054C508.403 289.931 508.26 297.102 507.879 306.569C507.399 316.706 507.162 324.021 507.162 328.514C507.162 333.297 507.306 337.647 507.592 341.567C507.775 343.499 508.586 347.132 510.01 352.428C510.246 352.418 510.479 352.405 510.715 352.394C514.47 347.977 517.451 342.227 519.64 335.112C520.404 332.626 521.935 325.838 524.23 314.744C526.045 306.33 528.103 299.733 530.398 294.95C531.066 293.612 531.639 291.077 532.12 287.348C532.597 283.619 533.171 281.037 533.841 279.603C534.892 277.308 536.71 276.16 539.291 276.16C542.638 276.16 545.028 277.214 546.463 279.316C545.793 286.01 543.881 294.95 540.726 306.138C536.423 321.151 533.935 330.235 533.268 333.39C531.873 339.793 529.619 345.808 526.544 351.453C538.724 350.554 550.255 349.296 561.13 347.767C559.008 346.493 557.837 344.624 557.651 342.14C557.554 340.132 557.507 338.123 557.507 336.116C557.507 327.129 558.942 316.132 561.81 303.126C566.207 283.906 568.598 273.005 568.982 270.423C569.172 269.276 569.889 268.465 571.133 267.985C572.374 267.507 573.571 267.461 574.719 267.841C576.344 268.32 577.968 268.798 579.596 269.275C581.41 270.042 582.272 271.236 582.177 272.861C581.604 279.555 579.165 291.604 574.863 309.007C571.134 324.117 569.412 336.499 569.699 346.156C569.699 346.27 569.667 346.38 569.649 346.492C632.464 336.548 671.972 317.825 687.492 309.289V263.5C679.329 263.5 671.166 263.5 663.003 263.5C657.202 263.5 657.212 254.5 663.003 254.5C671.166 254.5 679.329 254.5 687.492 254.5V186.418C676.549 192.789 665.506 198.989 654.352 204.993C648.68 208.046 643.636 199.41 649.305 196.358C662.174 189.431 674.904 182.256 687.492 174.839V93.889H280.511V174.547C299.662 189.488 320.544 202.182 342.781 212.323C348.634 214.994 343.546 223.61 337.733 220.959ZM641 143.5C646.801 143.5 646.791 152.5 641 152.5C635.199 152.5 635.209 143.5 641 143.5ZM615 130.5C620.801 130.5 620.791 139.5 615 139.5C609.199 139.5 609.209 130.5 615 130.5ZM616 162.5C610.199 162.5 610.209 153.5 616 153.5C621.801 153.5 621.791 162.5 616 162.5ZM584.258 164.313C585.405 164.123 586.6 163.932 587.844 163.739C589.085 164.122 590.376 164.577 591.717 165.102C593.055 165.629 593.772 166.465 593.868 167.612C595.302 180.617 595.923 190.945 595.732 198.593C599.652 195.056 604.145 190.37 609.214 184.536C613.518 179.66 617.772 174.736 621.98 169.763C623.127 169.285 624.37 169.046 625.709 169.046C629.438 169.046 631.397 170.337 631.59 172.919C628.912 178.849 623.652 185.877 615.813 194.004C606.633 203.471 600.752 210.212 598.17 214.228C604.098 217.767 610.075 221.306 616.1 224.842C622.791 229.05 628.435 233.114 633.025 237.034C633.598 237.513 633.885 238.181 633.885 239.042C633.885 239.616 633.502 241.05 632.738 243.345C632.355 243.251 632.021 243.201 631.734 243.201C631.161 243.201 630.419 243.441 629.51 243.918C628.601 244.397 627.908 244.635 627.431 244.635C626.952 244.635 626.427 244.445 625.853 244.061C619.446 240.045 609.501 234.021 596.019 225.989C596.306 229.528 596.543 234.595 596.736 241.193C596.736 241.96 596.831 243.107 597.023 244.635C597.213 246.164 597.31 247.264 597.31 247.934C597.31 250.229 596.306 251.807 594.297 252.667C593.724 253.048 592.91 253.241 591.859 253.241C590.712 253.241 589.995 252.905 589.708 252.237C587.221 251.377 585.786 249.702 585.405 247.217C584.258 240.332 583.684 232.253 583.684 222.977C583.684 219.631 583.778 214.635 583.97 207.988C584.16 201.343 584.257 196.347 584.257 192.999C584.257 182.864 583.587 174.065 582.249 166.607C582.057 165.46 582.728 164.696 584.258 164.313ZM519.285 196.442C521.099 173.302 522.104 160.489 522.297 158.002C522.391 155.9 524.161 154.847 527.604 154.847C529.229 154.656 531.621 155.851 534.776 158.432C537.836 164.266 541.611 173.733 546.107 186.832C550.41 199.36 554.33 208.874 557.869 215.375C559.304 202.659 561.549 183.438 564.61 157.715C564.897 155.803 566.282 154.846 568.77 154.846C569.63 154.846 570.634 154.989 571.782 155.276C573.31 155.659 574.22 155.899 574.508 155.993C575.462 156.376 576.085 157.046 576.372 158.001C575.032 170.816 573.741 183.676 572.499 196.585C570.872 211.885 570.061 224.651 570.061 234.881C570.061 238.23 570.156 241.528 570.348 244.778C570.443 246.307 569.893 247.647 568.699 248.794C567.503 249.941 566.139 250.515 564.611 250.515C561.646 250.515 559.161 248.507 557.153 244.491C551.032 232.539 543.43 213.796 534.346 188.265C534.154 187.691 533.916 187.404 533.629 187.404C532.959 187.404 532.528 188.074 532.338 189.412C530.711 203.087 529.9 217.478 529.9 232.585C529.9 239.853 530.09 247.262 530.474 254.817C530.568 257.589 529.756 259.501 528.036 260.554C527.366 261.222 526.648 261.558 525.885 261.558C525.215 261.558 524.354 261.271 523.303 260.698C521.868 260.028 520.959 259.597 520.577 259.407C519.334 259.024 518.569 257.876 518.282 255.965C518.186 254.434 518.09 252.857 517.996 251.232C517.709 245.876 517.565 240.284 517.565 234.45C517.563 224.318 518.137 211.646 519.285 196.442ZM465.067 213.511C466.788 208.731 469.513 199.838 473.243 186.832C476.399 175.55 479.218 166.895 481.705 160.871C482.279 159.533 483.474 158.863 485.291 158.863C486.629 158.863 487.823 159.293 488.877 160.154C491.553 162.449 493.273 165.892 494.04 170.482C494.614 174.404 495.139 178.324 495.618 182.243C500.398 204.811 505.372 223.409 510.535 238.039C511.109 239.57 511.395 240.908 511.395 242.055C511.395 243.969 510.582 245.641 508.957 247.075C507.33 248.51 506.232 249.178 505.658 249.083C500.972 248.222 498.007 244.446 496.765 237.751C495.425 230.485 493.847 224.412 492.032 219.535C488.78 219.822 485.528 220.109 482.278 220.395C478.549 220.875 475.631 222.022 473.529 223.837C472.475 226.802 471.091 232.062 469.369 239.615C467.742 246.594 466.164 251.901 464.636 255.536C463.869 257.257 462.245 257.734 459.759 256.97C456.604 255.917 454.929 254.482 454.739 252.667C454.452 249.032 455.503 244.157 457.895 238.037C460.764 231.058 462.341 226.085 462.628 223.12C462.722 222.259 462.102 221.305 460.764 220.251C459.424 219.2 458.756 218.386 458.756 217.813C458.756 217.335 458.971 216.834 459.402 216.307C459.832 215.783 460.836 215.352 462.414 215.016C463.991 214.683 464.874 214.181 465.067 213.511ZM458 122.5C463.801 122.5 463.791 131.5 458 131.5C452.199 131.5 452.209 122.5 458 122.5ZM460.116 288.926C461.644 288.926 463.079 289.5 464.419 290.647C465.757 291.795 469.343 293.325 475.177 295.237C479.767 296.767 483.016 299.349 484.93 302.982C488.276 309.39 489.95 314.887 489.95 319.477C489.95 322.059 489.471 324.403 488.516 326.505C482.872 339.223 474.89 346.778 464.562 349.167C463.318 349.454 462.074 349.598 460.833 349.598C455.382 349.598 449.882 346.635 444.338 340.705C440.609 336.689 438.744 331.478 438.744 325.071C438.744 317.996 440.846 310.394 445.055 302.265C446.87 298.823 449.071 295.86 451.653 293.372C454.616 290.41 457.438 288.926 460.116 288.926ZM441.115 161.588C446.182 161.11 449.051 162.162 449.721 164.744C449.528 173.256 448.143 186.739 445.561 205.192C443.17 222.691 441.975 236.127 441.975 245.497C441.975 248.46 442.069 251.281 442.262 253.959C442.262 254.627 441.975 255.272 441.401 255.896C440.827 256.517 440.157 256.828 439.393 256.828C436.715 256.828 434.947 256.588 434.086 256.111C430.451 254.007 428.635 250.037 428.635 244.206C428.635 243.059 428.707 241.266 428.85 238.828C428.994 236.39 429.065 234.597 429.065 233.449C429.065 231.537 429.302 228.621 429.782 224.699C430.259 220.779 430.499 217.767 430.499 215.663C429.159 215.759 427.319 215.569 424.977 215.089C422.633 214.611 420.936 214.372 419.885 214.372C418.641 214.372 417.447 214.565 416.299 214.946C414.004 222.501 412.664 233.642 412.283 248.366C409.031 249.704 405.875 249.56 402.816 247.936C400.615 246.789 399.517 244.494 399.517 241.051C399.517 240.287 399.589 239.258 399.732 237.967C399.876 236.676 399.947 235.887 399.947 235.6C400.234 230.436 401.332 220.205 403.246 204.905C404.871 192.092 405.635 181.908 405.541 174.354C405.541 173.303 406.281 172.633 407.765 172.346C409.246 172.059 410.082 171.772 410.275 171.486C410.849 172.156 412.234 172.73 414.435 173.207C416.25 173.59 417.351 174.451 417.734 175.789C418.498 178.181 418.881 180.859 418.881 183.822C418.881 185.926 418.569 189.25 417.949 193.79C417.326 198.333 417.017 201.8 417.017 204.189C418.164 205.05 419.599 205.577 421.32 205.767C422.467 205.959 424.092 206.007 426.197 205.91C428.969 205.72 430.643 205.623 431.217 205.623C433.606 195.582 435.711 182.58 437.528 166.609C437.91 163.262 439.106 161.588 441.115 161.588ZM311 121.5C350.333 121.5 389.667 121.5 429 121.5C434.801 121.5 434.791 130.5 429 130.5C389.667 130.5 350.333 130.5 311 130.5C305.199 130.5 305.209 121.5 311 121.5ZM335.835 167.15C334.688 164.645 334.114 163.342 334.114 163.246C334.114 162.572 334.45 161.848 335.118 161.077C338.18 160.017 344.441 159.054 353.908 158.184C362.227 157.317 368.442 155.775 372.554 153.556C375.9 154.703 379.725 155.277 384.029 155.277C388.332 155.277 392.442 154.753 396.364 153.699C397.511 153.605 400.427 152.934 405.113 151.691C408.556 150.831 411.425 150.544 413.719 150.831C415.44 150.831 416.157 151.548 415.87 152.982C418.452 152.982 419.743 153.842 419.743 155.564C418.883 159.006 417.255 161.015 414.867 161.588C408.65 163.119 397.845 165.127 382.451 167.612C380.537 191.422 379.582 211.265 379.582 227.137C379.582 233.161 379.676 239.091 379.869 244.923C379.963 246.738 379.869 248.126 379.582 249.083C379.102 250.611 378.147 251.329 376.713 251.234C373.938 251.138 371.643 249.965 369.828 247.72C368.011 245.472 367.007 242.964 366.816 240.19C366.623 236.653 366.529 232.924 366.529 229.002C366.529 222.69 366.959 212.7 367.82 199.024C368.68 185.924 369.062 175.931 368.967 169.046C366.385 168.856 362.8 169.095 358.209 169.763C352.949 170.53 349.316 170.91 347.308 170.91C342.625 170.911 338.8 169.658 335.835 167.15Z" fill="#F2F2F2"/>
<path d="M459.973 339.415C464.18 339.415 468.243 336.786 472.165 331.526C475.894 326.555 477.519 321.916 477.042 317.613C476.372 310.634 474.507 306.474 471.448 305.134C470.969 304.944 470.538 304.847 470.157 304.847C469.01 304.847 467.575 305.804 465.854 307.716C463.94 309.917 462.458 311.208 461.408 311.589C460.738 311.876 459.781 311.589 458.539 310.729C457.295 309.868 456.481 309.438 456.101 309.438C455.814 309.438 455.574 309.534 455.384 309.725C452.036 312.594 450.364 317.04 450.364 323.064C450.364 327.177 451.319 330.666 453.233 333.535C455.907 337.456 458.155 339.415 459.973 339.415Z" fill="#F2F2F2"/>
<path d="M487.73 198.737C486.773 194.913 485.865 191.088 485.004 187.262C482.135 195.2 479.648 203.136 477.546 211.072C479.074 210.785 483.09 210.642 489.594 210.642C489.307 207.105 488.684 203.137 487.73 198.737Z" fill="#F2F2F2"/>
<path d="M700.748 386.957L685.164 396.463C695.75 401.243 706.766 405.135 718.11 408.045C724.349 409.646 721.689 419.288 715.452 417.688C701.439 414.093 687.863 409.042 674.933 402.704L546.703 480.927L759.667 643.512V357.462L700.748 386.957ZM742 420C735.555 420 735.565 410 742 410C748.445 410 748.435 420 742 420Z" fill="#4CB431"/>
<path d="M115.084 265.7L93.996 259.904L182.576 412.531V378.307L115.084 265.7Z" fill="#EFAF3F"/>
<path d="M189.375 342.594L200.702 330.952L152.728 248.3L133.129 241.782L130.692 253.928L186.223 345.632C187.13 344.518 188.173 343.488 189.375 342.594ZM158.333 278.167C156.399 278.167 156.403 275.167 158.333 275.167C160.267 275.167 160.264 278.167 158.333 278.167ZM169.18 299.412C168.01 295.987 166.294 292.814 164.036 289.982C162.843 288.487 164.954 286.352 166.157 287.861C168.753 291.116 170.726 294.673 172.073 298.615C172.7 300.448 169.801 301.228 169.18 299.412ZM181.667 324.167C179.733 324.167 179.737 321.167 181.667 321.167C183.6 321.167 183.597 324.167 181.667 324.167Z" fill="#FDF14D"/>
<path d="M868.801 183.321C865.244 181.256 863.102 177.702 862.678 173.906L859.187 175.86C854.532 182.259 840.406 203.748 839.052 230.28C839.79 230.338 840.515 230.549 841.17 230.929C842.409 231.648 843.28 232.865 843.563 234.27L848.056 256.665L880.564 247.73L880.009 183.969C876.504 185.482 872.357 185.385 868.801 183.321ZM872.25 231.25C870.316 231.25 870.32 228.25 872.25 228.25C874.184 228.25 874.18 231.25 872.25 231.25ZM875.51 222.25C875.385 226.108 869.385 226.112 869.51 222.25C869.656 217.749 869.802 213.249 869.947 208.748C870.072 204.89 876.072 204.886 875.947 208.748C875.801 213.249 875.656 217.75 875.51 222.25Z" fill="#F9E3B2"/>
<path d="M785.424 378.307V412.531L874.004 259.904L852.916 265.7L785.424 378.307Z" fill="#EFAF3F"/>
<path d="M484 453.187L428.935 495.226L222.928 672.11H745.072L539.065 495.225L484 453.187ZM484 489.029C500.749 489.029 514.375 502.655 514.375 519.404C514.375 536.153 500.749 549.779 484 549.779C467.251 549.779 453.625 536.153 453.625 519.404C453.625 502.655 467.251 489.029 484 489.029ZM652.876 655.333C652.876 658.095 650.638 660.333 647.876 660.333H320.125C317.364 660.333 315.125 658.095 315.125 655.333C315.125 652.571 317.364 650.333 320.125 650.333H647.876C650.638 650.333 652.876 652.571 652.876 655.333ZM590 569C596.445 569 596.435 579 590 579C583.555 579 583.565 569 590 569ZM577 550C583.445 550 583.435 560 577 560C570.555 560 570.565 550 577 550ZM567 571C573.445 571 573.435 581 567 581C560.555 581 560.565 571 567 571Z" fill="#5ADB3A"/>
<path d="M815.273 248.3L767.298 330.952L778.625 342.594C779.826 343.488 780.869 344.518 781.776 345.633L837.307 253.929L834.87 241.782L815.273 248.3ZM786.333 324.167C784.399 324.167 784.403 321.167 786.333 321.167C788.267 321.167 788.264 324.167 786.333 324.167ZM803.964 289.982C801.706 292.814 799.99 295.987 798.82 299.412C798.198 301.231 795.301 300.445 795.927 298.615C797.274 294.674 799.247 291.116 801.843 287.861C803.047 286.351 805.156 288.487 803.964 289.982ZM809.667 278.167C807.733 278.167 807.737 275.167 809.667 275.167C811.6 275.167 811.597 278.167 809.667 278.167Z" fill="#FDF14D"/>
<path d="M484 536.779C493.581 536.779 501.375 528.985 501.375 519.404C501.375 509.823 493.581 502.029 484 502.029C474.419 502.029 466.625 509.823 466.625 519.404C466.625 528.985 474.419 536.779 484 536.779ZM477.667 515.667C481.534 515.667 481.528 521.667 477.667 521.667C473.8 521.667 473.806 515.667 477.667 515.667Z" fill="#5ADB3A"/>
<path d="M510.714 352.394C510.478 352.405 510.246 352.418 510.009 352.428C510.065 352.636 510.115 352.828 510.173 353.041C510.358 352.834 510.532 352.608 510.714 352.394Z" fill="#C9BB9D"/>
<path d="M568.191 348.523C567.187 349.24 566.254 349.505 565.394 349.312C563.684 348.977 562.273 348.455 561.128 347.768C550.253 349.297 538.723 350.555 526.542 351.454C524.978 354.325 523.215 357.107 521.217 359.783C517.488 364.85 513.185 367.336 508.308 367.241C504.005 367.145 500.8 364.419 498.698 359.065C497.895 357.08 497.197 355.005 496.571 352.867C492.443 352.954 488.255 353 484 353C455.209 353 429.325 350.947 406.36 347.693C405.064 351.208 404.047 354.142 403.316 356.483C402.837 358.011 402.599 359.925 402.599 362.22C402.693 365.375 402.693 367.384 402.599 368.244C402.312 371.59 400.542 373.265 397.292 373.265C395.665 373.455 393.921 372.906 392.057 371.616C390.192 370.325 389.307 368.962 389.404 367.528C389.667 361.124 391.192 353.867 393.95 345.773C375.489 342.678 359.113 338.839 344.845 334.76C339.683 337.16 334.521 339.561 329.358 341.961C323.553 344.66 318.481 336.037 324.311 333.326C326.409 332.351 328.506 331.375 330.604 330.4C306.139 322.396 289.392 314.174 280.51 309.289V375.701L448.787 459.94L479.145 436.763C482.012 434.573 485.988 434.575 488.854 436.763L519.212 459.94L655.327 391.801C639.043 381.569 624.14 369.132 611.161 354.807C606.847 350.045 613.902 342.956 618.232 347.736C632.129 363.075 648.231 376.123 665.907 386.505L687.488 375.702V309.29C671.968 317.826 632.461 336.548 569.645 346.493C569.531 347.222 569.061 347.901 568.191 348.523ZM305 353C298.555 353 298.565 343 305 343C311.445 343 311.435 353 305 353ZM428.605 398.482C422.365 400.122 419.728 390.474 425.947 388.839C454.959 381.214 485.063 378.493 514.965 380.913C521.346 381.429 521.38 391.432 514.965 390.913C485.898 388.56 456.813 391.068 428.605 398.482ZM526.997 408.534C510.665 406.931 494.295 407.054 477.989 408.902C471.594 409.627 471.667 399.618 477.989 398.902C494.295 397.054 510.665 396.931 526.997 398.534C533.353 399.158 533.397 409.162 526.997 408.534ZM567.689 364.301C567.115 365.592 566.42 366.26 565.609 366.309C564.796 366.356 564.198 366.571 563.816 366.955C563.433 367.336 563.05 367.479 562.669 367.385C557.6 365.471 554.731 362.986 554.064 359.927C553.777 358.587 554.685 357.226 556.789 355.839C558.892 354.454 560.375 353.808 561.236 353.902C562.764 354.095 564.27 354.763 565.754 355.91C567.235 357.057 568.071 358.539 568.264 360.356C568.453 361.694 568.262 363.01 567.689 364.301Z" fill="#F2F2F2"/>
<path d="M263.357 367.114L264.511 367.692V288.313L229.755 324.036C238.322 327.386 256.912 337.891 263.357 367.114Z" fill="#42AD27"/>
<path d="M130.693 253.929L129.066 262.04L182.637 354.335C182.905 351.153 184.176 348.153 186.225 345.634L130.693 253.929Z" fill="#FDF14D"/>
<path d="M182.576 374.15L120.491 267.186L115.084 265.7L182.576 378.307V374.15Z" fill="#EFAF3F"/>
<path d="M161.455 243.416L207.944 323.509L211.134 320.23L162.474 239.439L161.455 243.416Z" fill="#FDF14D"/>
<path d="M158.333 275.167C156.403 275.167 156.399 278.167 158.333 278.167C160.264 278.167 160.267 275.167 158.333 275.167Z" fill="#FDF14D"/>
<path d="M166.157 287.861C164.953 286.352 162.843 288.487 164.036 289.982C166.294 292.814 168.01 295.987 169.18 299.412C169.801 301.229 172.7 300.448 172.073 298.615C170.726 294.673 168.753 291.115 166.157 287.861Z" fill="#FDF14D"/>
<path d="M181.667 321.167C179.737 321.167 179.733 324.167 181.667 324.167C183.597 324.167 183.6 321.167 181.667 321.167Z" fill="#FDF14D"/>
<path d="M130.917 230.509L152.592 237.717L160.961 205.052L108.813 175.861C113.468 182.261 127.594 203.749 128.948 230.281C129.607 230.229 130.276 230.296 130.917 230.509Z" fill="#BBAA85"/>
<path d="M92.053 208.748C92.199 213.249 92.345 217.749 92.49 222.25C92.615 226.101 98.615 226.118 98.49 222.25C98.344 217.749 98.198 213.249 98.053 208.748C97.928 204.897 91.928 204.88 92.053 208.748Z" fill="#F9E3B2"/>
<path d="M95.75 228.25C93.82 228.25 93.816 231.25 95.75 231.25C97.68 231.25 97.684 228.25 95.75 228.25Z" fill="#F9E3B2"/>
<path d="M208.333 357.463L203.694 355.141C201.936 354.26 200.076 354.723 199.131 355.283C199.058 355.333 198.983 355.377 198.908 355.425C198.763 355.53 198.644 355.635 198.575 355.731V442.003C198.576 442.043 198.574 442.082 198.575 442.122V650.962L208.332 643.513V357.463H208.333Z" fill="#4CB431"/>
<path d="M434.633 470.746L267.251 386.957L421.297 480.928L434.633 470.746Z" fill="#388D22"/>
<path d="M198.293 671.307C198.269 671.327 198.245 671.344 198.224 671.362C198.584 671.678 199.37 672.111 200.766 672.111H222.928L428.935 495.226L198.293 671.307Z" fill="#4CB431"/>
<path d="M738.245 324.035L703.489 288.312V367.692L704.643 367.114C711.088 337.891 729.678 327.386 738.245 324.035Z" fill="#42AD27"/>
<path d="M785.364 354.335L838.935 262.04L837.308 253.93L781.777 345.634C783.824 348.152 785.096 351.152 785.364 354.335Z" fill="#FDF14D"/>
<path d="M847.509 267.186L785.424 374.15V378.307L852.916 265.7L847.509 267.186Z" fill="#EFAF3F"/>
<path d="M760.056 323.509L806.545 243.416L805.526 239.438L756.866 320.23L760.056 323.509Z" fill="#FDF14D"/>
<path d="M809.667 275.167C807.737 275.167 807.733 278.167 809.667 278.167C811.597 278.167 811.6 275.167 809.667 275.167Z" fill="#FDF14D"/>
<path d="M801.843 287.861C799.247 291.116 797.274 294.674 795.927 298.615C795.301 300.446 798.198 301.232 798.82 299.412C799.99 295.987 801.706 292.814 803.964 289.982C805.156 288.487 803.047 286.351 801.843 287.861Z" fill="#FDF14D"/>
<path d="M786.333 321.167C784.403 321.167 784.399 324.167 786.333 324.167C788.264 324.167 788.267 321.167 786.333 321.167Z" fill="#FDF14D"/>
<path d="M807.039 205.051L815.408 237.717L837.082 230.509C837.724 230.296 838.393 230.229 839.052 230.28C840.406 203.748 854.532 182.259 859.187 175.86L807.039 205.051Z" fill="#BBAA85"/>
<path d="M869.947 208.748C869.801 213.249 869.655 217.749 869.51 222.25C869.385 226.112 875.385 226.108 875.51 222.25C875.656 217.749 875.802 213.249 875.947 208.748C876.072 204.886 870.072 204.891 869.947 208.748Z" fill="#F9E3B2"/>
<path d="M872.25 228.25C870.32 228.25 870.316 231.25 872.25 231.25C874.18 231.25 874.184 228.25 872.25 228.25Z" fill="#F9E3B2"/>
<path d="M769.084 355.42C769.014 355.375 768.942 355.333 768.873 355.286C767.93 354.725 766.066 354.26 764.306 355.141L759.667 357.463V643.513L769.424 650.962V442.122C769.425 442.082 769.423 442.043 769.424 442.003V355.73C769.355 355.632 769.232 355.526 769.084 355.42Z" fill="#4CB431"/>
<path d="M683.37 395.656C683.965 395.932 684.567 396.193 685.165 396.463L700.749 386.957L683.37 395.656Z" fill="#388D22"/>
<path d="M672.087 401.305L533.368 470.747L546.704 480.928L674.934 402.705C673.984 402.239 673.029 401.784 672.087 401.305Z" fill="#388D22"/>
<path d="M539.065 495.225L745.072 672.11H767.234C768.63 672.11 769.416 671.677 769.776 671.361C769.755 671.343 769.731 671.326 769.707 671.306L539.065 495.225Z" fill="#4CB431"/>
<path d="M477.667 521.667C481.528 521.667 481.534 515.667 477.667 515.667C473.806 515.667 473.8 521.667 477.667 521.667Z" fill="#5ADB3A"/>
<path d="M615 139.5C620.791 139.5 620.801 130.5 615 130.5C609.209 130.5 609.199 139.5 615 139.5Z" fill="#F2F2F2"/>
<path d="M616 153.5C610.209 153.5 610.199 162.5 616 162.5C621.791 162.5 621.801 153.5 616 153.5Z" fill="#F2F2F2"/>
<path d="M641 152.5C646.791 152.5 646.801 143.5 641 143.5C635.209 143.5 635.199 152.5 641 152.5Z" fill="#F2F2F2"/>
<path d="M429 121.5C389.667 121.5 350.333 121.5 311 121.5C305.209 121.5 305.199 130.5 311 130.5C350.333 130.5 389.667 130.5 429 130.5C434.791 130.5 434.801 121.5 429 121.5Z" fill="#F2F2F2"/>
<path d="M458 131.5C463.791 131.5 463.801 122.5 458 122.5C452.209 122.5 452.199 131.5 458 131.5Z" fill="#F2F2F2"/>
<path d="M663 263.5C671.163 263.5 679.326 263.5 687.489 263.5V254.5C679.326 254.5 671.163 254.5 663 254.5C657.209 254.5 657.199 263.5 663 263.5Z" fill="#F2F2F2"/>
<path d="M391 261.5C354.17 261.5 317.34 261.5 280.511 261.5V270.5C317.341 270.5 354.171 270.5 391 270.5C396.791 270.5 396.801 261.5 391 261.5Z" fill="#F2F2F2"/>
<path d="M484 549.779C500.749 549.779 514.375 536.153 514.375 519.404C514.375 502.655 500.749 489.029 484 489.029C467.251 489.029 453.625 502.655 453.625 519.404C453.625 536.153 467.251 549.779 484 549.779ZM484 502.029C493.581 502.029 501.375 509.823 501.375 519.404C501.375 528.985 493.581 536.779 484 536.779C474.419 536.779 466.625 528.985 466.625 519.404C466.625 509.823 474.419 502.029 484 502.029Z" fill="#5ADB3A"/>
<path d="M895.72 150.65C895.696 147.823 894.181 145.22 891.736 143.801C889.29 142.382 886.278 142.359 883.813 143.739L796.563 192.579C795.311 193.28 794.271 194.304 793.551 195.544L734.517 297.259L703.489 265.368V176.936C712.695 171.372 721.824 165.681 730.87 159.855C736.263 156.382 731.255 147.722 725.823 151.22C718.434 155.978 710.984 160.639 703.489 165.223V85.89C703.489 81.472 699.907 77.89 695.489 77.89H272.511C268.093 77.89 264.511 81.472 264.511 85.89V161.159C255.104 152.744 267.853 178.549 259.5 169C255.255 164.147 258.777 169.627 263 174.454C256 160 252.47 164.259 264.511 174.454V265.369L233.483 297.26L174.449 195.545C173.729 194.304 172.689 193.28 171.438 192.58L84.188 143.74C81.721 142.36 78.709 142.383 76.264 143.802C73.82 145.221 72.305 147.825 72.281 150.651L71.411 250.641C71.398 252.075 71.771 253.486 72.492 254.726L182.577 444.406V667.165C182.577 672.111 182.833 676.211 182.833 676.211C185.239 683.328 192.446 688.11 200.767 688.11H767.235C775.555 688.11 782.762 683.329 785.169 676.212C785.169 676.212 785.425 670 785.425 667.165V444.406L895.51 254.726C896.23 253.486 896.603 252.075 896.591 250.641L895.72 150.65ZM767.234 672.11H745.072H222.928H200.766C199.37 672.11 198.584 671.677 198.224 671.361C198.245 671.343 198.269 671.326 198.293 671.306L428.935 495.225L484 453.187L539.065 495.226L769.707 671.307C769.731 671.327 769.755 671.344 769.776 671.362C769.416 671.678 768.631 672.11 767.234 672.11ZM838.934 262.04L785.363 354.335C785.095 351.153 783.824 348.153 781.775 345.634C780.869 344.519 779.826 343.489 778.624 342.595L767.297 330.953L815.272 248.301L834.869 241.784L837.306 253.931L838.934 262.04ZM755.425 341.693L704.643 367.114L703.489 367.692V288.312L738.245 324.035L755.425 341.693ZM129.066 262.04L130.693 253.929L133.13 241.783L152.729 248.301L200.703 330.953L189.376 342.595C188.175 343.489 187.132 344.519 186.225 345.634C184.177 348.153 182.905 351.153 182.637 354.335L129.066 262.04ZM198.576 442.121C198.575 442.081 198.577 442.042 198.576 442.002V355.73C198.644 355.633 198.764 355.529 198.909 355.424C198.983 355.377 199.059 355.332 199.132 355.282C200.077 354.722 201.937 354.259 203.695 355.14L208.334 357.462L267.252 386.956L434.634 470.746L421.298 480.927L208.333 643.512L198.576 650.961V442.121ZM264.511 367.692L263.357 367.114L212.575 341.693L229.755 324.035L264.511 288.312V367.692ZM769.424 442.002C769.423 442.042 769.425 442.081 769.424 442.121V650.961L759.667 643.512L546.703 480.928L533.367 470.747L672.086 401.305C673.028 401.784 673.983 402.239 674.933 402.705C687.863 409.043 701.439 414.094 715.452 417.689C721.689 419.289 724.35 409.647 718.11 408.046C706.766 405.136 695.75 401.244 685.164 396.464C684.566 396.194 683.964 395.933 683.369 395.657L700.748 386.957L759.666 357.463L764.305 355.141C766.065 354.26 767.929 354.725 768.872 355.286C768.941 355.333 769.013 355.375 769.083 355.42C769.231 355.527 769.354 355.633 769.423 355.731V442.002H769.424ZM799.722 216.786L805.526 239.439L806.545 243.417L760.056 323.51L756.866 320.231L746.104 309.17L799.722 216.786ZM342.78 212.324C320.544 202.183 299.661 189.489 280.51 174.548V93.89H687.489V174.84C674.901 182.256 662.171 189.432 649.302 196.359C643.633 199.41 648.677 208.047 654.349 204.994C665.503 198.991 676.546 192.791 687.489 186.419V254.5V263.5V309.29V375.702L665.908 386.505C648.231 376.124 632.129 363.075 618.233 347.736C613.903 342.956 606.848 350.046 611.162 354.807C624.141 369.133 639.044 381.57 655.328 391.801L519.213 459.94L488.855 436.763C485.989 434.575 482.013 434.573 479.146 436.763L448.788 459.94L280.511 375.701V309.29V270.5V261.5V187.163C298.321 200.377 317.509 211.734 337.733 220.958C343.546 223.61 348.634 214.994 342.78 212.324ZM221.896 309.169L211.134 320.23L207.944 323.509L161.455 243.416L162.474 239.438L168.278 216.786L221.896 309.169ZM87.991 183.97C91.496 185.483 95.643 185.385 99.199 183.322C102.756 181.257 104.898 177.703 105.322 173.907L108.813 175.861L160.961 205.052L152.592 237.717L130.917 230.509C130.276 230.296 129.607 230.229 128.948 230.281C128.21 230.339 127.485 230.55 126.83 230.93C125.59 231.649 124.719 232.866 124.437 234.271L119.944 256.666L87.435 247.731L87.991 183.97ZM93.996 259.904L115.084 265.7L120.491 267.186L182.576 374.15V378.306V412.531L93.996 259.904ZM785.424 412.531V378.306V374.15L847.509 267.186L852.916 265.7L874.005 259.904L785.424 412.531ZM848.056 256.665L843.563 234.27C843.281 232.865 842.41 231.648 841.17 230.929C840.515 230.548 839.79 230.338 839.052 230.28C838.393 230.228 837.724 230.296 837.082 230.509L815.408 237.717L807.039 205.051L859.187 175.86L862.678 173.906C863.102 177.702 865.244 181.257 868.801 183.321C872.357 185.385 876.504 185.482 880.009 183.969L880.564 247.73L848.056 256.665Z" fill="#1D1D1D"/>
<path d="M220.333 548.333C223.094 548.333 225.333 546.095 225.333 543.333V412C225.333 409.238 223.094 407 220.333 407C217.572 407 215.333 409.238 215.333 412V543.333C215.333 546.095 217.572 548.333 220.333 548.333Z" fill="#4CB431"/>
<path d="M220.333 587.667C223.094 587.667 225.333 585.429 225.333 582.667V566C225.333 563.238 223.094 561 220.333 561C217.572 561 215.333 563.238 215.333 566V582.667C215.333 585.429 217.572 587.667 220.333 587.667Z" fill="#4CB431"/>
<path d="M315.125 655.333C315.125 658.095 317.364 660.333 320.125 660.333H647.876C650.638 660.333 652.876 658.095 652.876 655.333C652.876 652.571 650.638 650.333 647.876 650.333H320.125C317.363 650.333 315.125 652.571 315.125 655.333Z" fill="#0E1235"/>
<path d="M358.21 169.764C362.8 169.096 366.386 168.856 368.968 169.047C369.062 175.932 368.681 185.925 367.821 199.025C366.96 212.701 366.53 222.692 366.53 229.003C366.53 232.925 366.624 236.654 366.817 240.191C367.007 242.965 368.011 245.474 369.829 247.721C371.644 249.967 373.939 251.139 376.714 251.235C378.148 251.329 379.103 250.612 379.583 249.084C379.87 248.127 379.964 246.74 379.87 244.924C379.677 239.092 379.583 233.162 379.583 227.138C379.583 211.266 380.538 191.423 382.452 167.613C397.846 165.127 408.651 163.119 414.868 161.589C417.257 161.015 418.884 159.007 419.744 155.565C419.744 153.844 418.453 152.983 415.871 152.983C416.158 151.548 415.441 150.832 413.72 150.832C411.425 150.545 408.556 150.832 405.114 151.692C400.428 152.936 397.512 153.606 396.365 153.7C392.443 154.753 388.332 155.278 384.03 155.278C379.727 155.278 375.901 154.704 372.555 153.557C368.442 155.776 362.228 157.318 353.909 158.185C344.442 159.055 338.18 160.018 335.119 161.078C334.452 161.849 334.115 162.573 334.115 163.247C334.115 163.344 334.689 164.646 335.836 167.151C338.801 169.659 342.627 170.912 347.311 170.912C349.318 170.911 352.951 170.53 358.21 169.764Z" fill="#F2F2F2"/>
<path d="M426.198 205.909C424.094 206.006 422.469 205.958 421.321 205.766C419.6 205.576 418.166 205.049 417.018 204.188C417.018 201.799 417.327 198.332 417.95 193.789C418.571 189.248 418.882 185.925 418.882 183.821C418.882 180.858 418.499 178.18 417.735 175.788C417.352 174.45 416.252 173.59 414.436 173.206C412.235 172.728 410.85 172.155 410.276 171.485C410.083 171.772 409.247 172.059 407.766 172.345C406.282 172.632 405.542 173.302 405.542 174.353C405.636 181.908 404.872 192.092 403.247 204.904C401.333 220.204 400.235 230.435 399.948 235.599C399.948 235.886 399.876 236.675 399.733 237.966C399.59 239.257 399.518 240.286 399.518 241.05C399.518 244.492 400.616 246.787 402.817 247.935C405.876 249.56 409.032 249.703 412.284 248.365C412.665 233.641 414.005 222.5 416.3 214.945C417.447 214.564 418.642 214.371 419.886 214.371C420.937 214.371 422.634 214.611 424.978 215.088C427.32 215.567 429.16 215.758 430.5 215.662C430.5 217.766 430.26 220.778 429.783 224.698C429.303 228.62 429.066 231.536 429.066 233.448C429.066 234.595 428.994 236.388 428.851 238.827C428.707 241.265 428.636 243.058 428.636 244.205C428.636 250.037 430.451 254.006 434.087 256.11C434.948 256.587 436.716 256.827 439.394 256.827C440.158 256.827 440.828 256.515 441.402 255.895C441.976 255.272 442.263 254.626 442.263 253.958C442.07 251.28 441.976 248.458 441.976 245.496C441.976 236.126 443.171 222.69 445.562 205.191C448.144 186.737 449.529 173.254 449.722 164.743C449.052 162.161 446.183 161.11 441.116 161.587C439.108 161.587 437.911 163.261 437.53 166.607C435.713 182.578 433.608 195.581 431.219 205.621C430.644 205.622 428.97 205.718 426.198 205.909Z" fill="#F2F2F2"/>
<path d="M458.756 217.814C458.756 218.388 459.424 219.201 460.764 220.252C462.102 221.305 462.722 222.26 462.628 223.121C462.341 226.086 460.764 231.059 457.895 238.038C455.503 244.159 454.452 249.033 454.739 252.668C454.929 254.483 456.604 255.918 459.759 256.971C462.245 257.735 463.869 257.258 464.636 255.537C466.164 251.902 467.742 246.595 469.369 239.616C471.09 232.063 472.475 226.803 473.529 223.838C475.631 222.023 478.549 220.876 482.278 220.396C485.528 220.109 488.78 219.822 492.032 219.536C493.847 224.412 495.426 230.486 496.765 237.752C498.006 244.446 500.972 248.223 505.658 249.084C506.232 249.178 507.33 248.51 508.957 247.076C510.582 245.642 511.395 243.97 511.395 242.056C511.395 240.909 511.109 239.571 510.535 238.04C505.372 223.41 500.398 204.812 495.618 182.244C495.139 178.325 494.614 174.405 494.04 170.483C493.273 165.893 491.553 162.45 488.877 160.155C487.823 159.295 486.629 158.864 485.291 158.864C483.473 158.864 482.278 159.534 481.705 160.872C479.218 166.896 476.398 175.552 473.243 186.833C469.514 199.838 466.788 208.731 465.067 213.512C464.874 214.182 463.991 214.684 462.414 215.018C460.836 215.354 459.832 215.784 459.402 216.309C458.971 216.834 458.756 217.336 458.756 217.814ZM485.004 187.263C485.864 191.089 486.773 194.914 487.73 198.738C488.684 203.137 489.307 207.106 489.594 210.643C483.09 210.643 479.074 210.787 477.546 211.073C479.648 203.137 482.136 195.201 485.004 187.263Z" fill="#F2F2F2"/>
<path d="M518.28 255.967C518.567 257.879 519.332 259.026 520.575 259.409C520.957 259.599 521.866 260.03 523.301 260.7C524.352 261.274 525.213 261.56 525.883 261.56C526.647 261.56 527.364 261.224 528.034 260.556C529.755 259.503 530.566 257.591 530.472 254.819C530.088 247.264 529.898 239.855 529.898 232.587C529.898 217.48 530.71 203.089 532.336 189.414C532.526 188.076 532.957 187.406 533.627 187.406C533.914 187.406 534.151 187.693 534.344 188.267C543.428 213.798 551.03 232.541 557.151 244.493C559.159 248.509 561.644 250.517 564.609 250.517C566.137 250.517 567.501 249.943 568.697 248.796C569.891 247.649 570.441 246.309 570.346 244.78C570.154 241.53 570.059 238.232 570.059 234.883C570.059 224.653 570.871 211.887 572.497 196.587C573.739 183.678 575.03 170.818 576.37 158.003C576.083 157.048 575.46 156.378 574.506 155.995C574.219 155.901 573.309 155.661 571.78 155.278C570.633 154.991 569.629 154.848 568.768 154.848C566.28 154.848 564.895 155.805 564.608 157.717C561.546 183.441 559.301 202.661 557.867 215.377C554.328 208.876 550.408 199.362 546.105 186.834C541.609 173.735 537.834 164.268 534.774 158.434C531.619 155.852 529.227 154.658 527.602 154.849C524.16 154.849 522.389 155.902 522.295 158.004C522.103 160.492 521.098 173.304 519.283 196.444C518.136 211.648 517.561 224.319 517.561 234.454C517.561 240.288 517.705 245.879 517.992 251.236C518.087 252.859 518.184 254.437 518.28 255.967Z" fill="#F2F2F2"/>
<path d="M584.258 193C584.258 196.348 584.161 201.344 583.971 207.989C583.779 214.636 583.685 219.632 583.685 222.978C583.685 232.254 584.258 240.333 585.406 247.218C585.787 249.703 587.221 251.378 589.709 252.238C589.996 252.906 590.713 253.242 591.86 253.242C592.912 253.242 593.725 253.049 594.298 252.668C596.307 251.807 597.311 250.23 597.311 247.935C597.311 247.265 597.214 246.164 597.024 244.636C596.832 243.108 596.737 241.96 596.737 241.194C596.545 234.596 596.307 229.529 596.02 225.99C609.502 234.022 619.447 240.046 625.854 244.062C626.428 244.445 626.953 244.636 627.432 244.636C627.91 244.636 628.602 244.399 629.511 243.919C630.419 243.441 631.161 243.202 631.735 243.202C632.022 243.202 632.356 243.251 632.739 243.346C633.504 241.051 633.886 239.617 633.886 239.043C633.886 238.183 633.599 237.515 633.026 237.035C628.436 233.115 622.793 229.052 616.101 224.843C610.077 221.306 604.099 217.767 598.171 214.229C600.753 210.213 606.634 203.472 615.814 194.005C623.653 185.879 628.914 178.85 631.591 172.92C631.399 170.338 629.44 169.047 625.71 169.047C624.37 169.047 623.128 169.287 621.981 169.764C617.773 174.737 613.519 179.661 609.215 184.537C604.146 190.371 599.652 195.057 595.733 198.594C595.923 190.945 595.302 180.618 593.869 167.613C593.772 166.466 593.056 165.63 591.718 165.103C590.377 164.579 589.086 164.124 587.845 163.74C586.601 163.933 585.407 164.123 584.259 164.314C582.729 164.697 582.058 165.461 582.251 166.609C583.588 174.066 584.258 182.865 584.258 193Z" fill="#F2F2F2"/>
<path d="M392.057 371.616C393.922 372.907 395.665 373.456 397.292 373.265C400.542 373.265 402.313 371.591 402.599 368.244C402.693 367.384 402.693 365.375 402.599 362.22C402.599 359.925 402.837 358.011 403.316 356.483C404.047 354.142 405.064 351.207 406.36 347.693C409.298 339.724 413.684 328.746 419.524 314.744C426.695 297.438 431.619 283.381 434.297 272.575C432.48 270.76 430.232 269.849 427.556 269.849C425.642 269.849 424.304 270.519 423.54 271.857C420.862 276.16 418.423 281.61 416.225 288.209C414.311 293.852 412.399 299.54 410.487 305.277C408.383 300.401 406.231 295.524 404.033 290.647C401.451 284.91 398.963 280.226 396.574 276.591C393.132 275.54 391.314 275.013 391.124 275.013C389.977 275.013 388.804 275.468 387.61 276.376C386.413 277.286 385.817 278.265 385.817 279.316C385.817 279.795 385.961 280.273 386.247 280.751C391.028 289.167 396.812 302.459 403.602 320.626C400.637 328.277 397.672 335.926 394.709 343.575C394.44 344.318 394.197 345.044 393.948 345.774C391.19 353.867 389.665 361.125 389.402 367.529C389.307 368.962 390.192 370.325 392.057 371.616Z" fill="#F2F2F2"/>
<path d="M438.745 325.072C438.745 331.479 440.61 336.69 444.339 340.706C449.883 346.636 455.383 349.599 460.834 349.599C462.075 349.599 463.319 349.455 464.563 349.168C474.89 346.779 482.873 339.224 488.517 326.506C489.472 324.403 489.951 322.059 489.951 319.478C489.951 314.888 488.277 309.391 484.931 302.983C483.017 299.35 479.767 296.768 475.178 295.238C469.344 293.326 465.759 291.796 464.42 290.648C463.08 289.501 461.646 288.927 460.117 288.927C457.439 288.927 454.617 290.411 451.654 293.374C449.072 295.862 446.872 298.824 445.056 302.267C440.847 310.394 438.745 317.997 438.745 325.072ZM455.383 309.725C455.573 309.534 455.813 309.438 456.1 309.438C456.481 309.438 457.294 309.868 458.538 310.729C459.779 311.589 460.736 311.876 461.407 311.589C462.458 311.208 463.939 309.917 465.853 307.716C467.574 305.804 469.009 304.847 470.156 304.847C470.537 304.847 470.967 304.943 471.447 305.134C474.506 306.474 476.371 310.634 477.041 317.613C477.518 321.916 475.894 326.555 472.164 331.526C468.242 336.786 464.179 339.415 459.972 339.415C458.155 339.415 455.907 337.457 453.231 333.534C451.317 330.665 450.362 327.176 450.362 323.063C450.363 317.039 452.035 312.593 455.383 309.725Z" fill="#F2F2F2"/>
<path d="M508.308 367.241C513.184 367.335 517.488 364.85 521.217 359.783C523.216 357.107 524.978 354.325 526.542 351.454C529.617 345.809 531.871 339.794 533.266 333.391C533.933 330.235 536.421 321.152 540.724 306.139C543.879 294.951 545.791 286.011 546.461 279.317C545.026 277.215 542.636 276.161 539.289 276.161C536.708 276.161 534.89 277.309 533.839 279.604C533.169 281.038 532.595 283.62 532.118 287.349C531.638 291.078 531.064 293.613 530.396 294.951C528.101 299.734 526.043 306.331 524.228 314.745C521.933 325.839 520.402 332.627 519.638 335.113C517.449 342.228 514.468 347.978 510.713 352.395C510.531 352.609 510.357 352.835 510.172 353.042C510.114 352.829 510.064 352.636 510.008 352.429C508.584 347.133 507.773 343.5 507.59 341.568C507.303 337.648 507.16 333.298 507.16 328.515C507.16 324.021 507.397 316.706 507.877 306.57C508.258 297.103 508.401 289.932 508.307 285.055C507.254 284.481 506.178 283.932 505.079 283.406C503.979 282.882 502.95 282.617 501.996 282.617C497.406 282.617 495.111 285.582 495.111 291.51C495.111 298.395 495.158 301.36 495.254 300.403C493.914 311.4 493.246 320.389 493.246 327.368C493.246 336.831 494.363 345.322 496.569 352.868C497.194 355.007 497.893 357.082 498.696 359.066C500.8 364.419 504.005 367.145 508.308 367.241Z" fill="#F2F2F2"/>
<path d="M565.752 355.91C564.269 354.763 562.763 354.095 561.234 353.902C560.373 353.808 558.889 354.453 556.787 355.839C554.683 357.226 553.775 358.587 554.062 359.927C554.73 362.986 557.598 365.471 562.667 367.385C563.049 367.479 563.432 367.336 563.814 366.955C564.196 366.572 564.793 366.356 565.607 366.309C566.419 366.26 567.113 365.592 567.687 364.301C568.26 363.01 568.451 361.695 568.26 360.357C568.07 358.539 567.234 357.058 565.752 355.91Z" fill="#F2F2F2"/>
<path d="M568.191 348.523C569.062 347.901 569.531 347.222 569.647 346.492C569.665 346.38 569.697 346.271 569.697 346.156C569.41 336.499 571.132 324.116 574.861 309.007C579.164 291.604 581.602 279.556 582.175 272.861C582.27 271.236 581.408 270.042 579.594 269.275C577.966 268.798 576.342 268.32 574.717 267.841C573.57 267.46 572.372 267.507 571.131 267.985C569.887 268.464 569.17 269.276 568.98 270.423C568.596 273.005 566.206 283.906 561.808 303.126C558.94 316.131 557.505 327.129 557.505 336.116C557.505 338.124 557.552 340.132 557.649 342.14C557.835 344.624 559.006 346.493 561.128 347.767C562.274 348.455 563.685 348.977 565.394 349.311C566.254 349.505 567.187 349.24 568.191 348.523Z" fill="#F2F2F2"/>
<path d="M742 410C735.565 410 735.555 420 742 420C748.435 420 748.445 410 742 410Z" fill="#4CB431"/>
<path d="M329.358 341.962C334.52 339.562 339.682 337.161 344.845 334.761C346.987 333.765 349.129 332.769 351.271 331.773C357.101 329.062 352.028 320.439 346.224 323.138C341.018 325.559 335.811 327.98 330.605 330.4C328.507 331.375 326.41 332.351 324.312 333.326C318.481 336.038 323.554 344.661 329.358 341.962Z" fill="#F2F2F2"/>
<path d="M305 343C298.565 343 298.555 353 305 353C311.435 353 311.445 343 305 343Z" fill="#F2F2F2"/>
<path d="M577 560C583.435 560 583.445 550 577 550C570.565 550 570.555 560 577 560Z" fill="#5ADB3A"/>
<path d="M567 581C573.435 581 573.445 571 567 571C560.565 571 560.555 581 567 581Z" fill="#5ADB3A"/>
<path d="M590 579C596.435 579 596.445 569 590 569C583.565 569 583.555 579 590 579Z" fill="#5ADB3A"/>
<path d="M290 450C296.435 450 296.445 440 290 440C283.565 440 283.555 450 290 450Z" fill="#4CB431"/>
<path d="M514.965 390.913C521.38 391.432 521.346 381.429 514.965 380.913C485.063 378.493 454.959 381.214 425.947 388.839C419.728 390.473 422.365 400.122 428.605 398.482C456.813 391.068 485.898 388.56 514.965 390.913Z" fill="#F2F2F2"/>
<path d="M526.997 398.534C510.665 396.931 494.295 397.054 477.989 398.902C471.667 399.618 471.594 409.627 477.989 408.902C494.295 407.054 510.665 406.932 526.997 408.534C533.397 409.162 533.353 399.158 526.997 398.534Z" fill="#F2F2F2"/>
<rect x="283" y="96" width="402" height="275" fill="#F2F2F2"/>
<path d="M370.9 227.153C356.458 228.101 335.885 235.906 321.602 245.829C317.367 248.768 313.29 252.181 308.835 256.479C298.785 266.212 293.445 274.524 290.853 284.257C290.095 287.133 290.032 288.017 290 293.295C290 299.963 290.221 301.322 292.117 305.303C293.16 307.516 293.887 308.495 296.131 310.707C300.049 314.594 303.905 316.585 310.351 318.007C312.943 318.576 314.46 318.671 320.654 318.703C328.965 318.703 331.935 318.292 339.456 316.08C348.937 313.299 360.63 307.579 368.688 301.732C370.268 300.626 371.564 299.71 371.627 299.773C371.658 299.805 369.889 303.155 367.708 307.231C362.02 317.754 359.808 322.242 358.733 325.528C357.88 327.993 357.785 328.752 357.849 331.154C357.943 333.776 357.975 333.903 358.67 333.998C359.713 334.156 360.408 333.429 362.083 330.458C371.943 313.235 384.299 293.579 392.452 282.171L395.77 277.557L397.256 277.368C398.046 277.273 400.858 277.052 403.45 276.862C406.073 276.641 409.612 276.293 411.35 276.072C413.057 275.819 414.542 275.693 414.605 275.756C414.826 275.977 409.58 283.088 405.883 287.607C400.289 294.369 400.226 294.464 400.226 296.739C400.195 298.414 400.258 298.667 400.795 298.667C402.122 298.667 407.431 292.442 419.124 277.178L419.914 276.135L420.767 277.589C421.621 279.011 423.295 280.338 424.275 280.338C424.559 280.338 424.781 280.401 424.781 280.465C424.781 280.528 423.801 282.487 422.6 284.794C418.776 292.157 417.228 298.067 417.67 303.881C418.05 309.222 419.25 311.687 422.284 313.362C423.896 314.247 424.18 314.31 427.467 314.278C430.406 314.278 431.259 314.152 432.997 313.457C438.527 311.308 444.437 307.389 449.651 302.428C450.536 301.574 451.326 300.879 451.389 300.879C451.421 300.879 451.484 302.396 451.484 304.292C451.484 308.116 451.895 309.254 454.044 311.403C455.971 313.33 458.31 314.278 461.122 314.31C463.145 314.31 463.745 314.183 465.073 313.425C467.759 311.94 470.887 309.412 475.659 304.893L480.241 300.532L480.431 303.945C480.621 307.737 481.126 309.127 482.991 310.897C487.794 315.511 494.02 313.33 503.374 303.723L505.681 301.353V304.387C505.681 309.222 506.976 311.782 510.358 313.615C518.005 317.786 526.159 314.816 540.79 302.491L541.928 301.543L541.833 304.482C541.517 313.046 544.203 316.143 551.092 315.132C556.433 314.373 562.153 310.865 569.295 303.976L572.676 300.69V303.85C572.676 305.556 572.834 307.516 573.055 308.211C573.94 311.181 577.922 314.025 581.651 314.373C583.452 314.531 583.895 314.468 585.696 313.615C588.54 312.287 592.269 309.348 597.167 304.608L601.433 300.5V303.186C601.433 307.926 602.95 310.771 606.363 312.445C609.966 314.215 614.201 312.856 619.826 308.148C621.532 306.757 624.155 304.197 625.672 302.491C627.189 300.753 628.611 299.331 628.769 299.331C628.958 299.331 629.432 300.405 629.812 301.764C630.791 304.924 632.782 309.001 634.173 310.613C636.606 313.457 641.188 314.721 646.118 313.836C649.057 313.33 650.732 312.635 653.766 310.739C655.63 309.57 657.147 308.938 659.77 308.211C664.068 307.01 666.248 306.062 669.156 304.134C671.589 302.523 677.625 296.866 680.153 293.864C681.638 292.094 681.638 292.031 681.638 289.85C681.638 288.017 681.543 287.607 681.133 287.607C680.88 287.607 678.794 289.566 676.519 291.936C671.968 296.645 668.682 299.299 665.174 301.006C662.804 302.175 659.77 303.091 658.253 303.091C657.495 303.091 657.368 302.997 657.526 302.364C657.969 300.468 659.707 292.062 660.37 288.555C661.54 282.266 662.361 278.853 663.594 275.156C664.605 272.122 665.047 271.269 667.133 268.519L669.535 265.391V262.768C669.535 260.461 669.44 260.082 668.776 259.355C667.955 258.47 666.375 258.027 665.142 258.344C663.625 258.723 658.19 263.589 638.755 282.045C634.362 286.184 627.6 293.453 625.451 296.297C624.819 297.15 622.986 299.11 621.437 300.626C613.916 307.832 608.923 309.759 607.501 305.935C606.743 303.881 609.397 298.667 617.266 286.785L623.207 277.778L623.144 275.756C623.049 273.481 622.67 272.88 620.837 272.09C619.857 271.648 619.288 271.585 618.562 271.774C617.424 272.122 617.171 271.901 616.634 270.162C615.907 267.95 613.41 266.434 610.377 266.434C608.449 266.434 604.941 267.224 602.097 268.33C595.492 270.889 586.739 278.126 579.534 286.975C571.317 297.055 565.408 302.491 557.444 307.231C552.261 310.328 549.67 310.897 548.09 309.285C546.289 307.484 547.395 303.945 551.819 297.245C554.158 293.706 560.162 285.679 564.365 280.465C566.703 277.557 566.956 276.957 566.293 276.293C566.04 276.04 566.04 275.819 566.356 275.44C567.019 274.65 566.293 273.575 564.428 272.627C562.342 271.616 561.837 271.616 559.783 272.627C556.559 274.239 551.566 280.591 546.921 289.092C545.119 292.378 544.424 293.326 542.086 295.57C530.14 307.073 519.965 312.287 514.624 309.696C512.917 308.874 511.685 307.136 511.685 305.619C511.685 304.134 512.475 301.195 513.297 299.584C514.814 296.581 520.154 289.345 522.272 287.354C526.633 283.309 533.206 278.821 535.955 277.968C536.682 277.747 536.682 277.747 535.765 279.611C535.133 280.875 534.786 282.108 534.659 283.625C534.533 285.616 534.565 285.868 535.26 286.532C535.86 287.164 536.303 287.291 537.914 287.291C540.948 287.291 542.275 286.311 543.824 283.024C544.519 281.476 544.709 280.559 544.803 278.094C545.056 272.027 543.223 269.91 537.598 269.91C534.375 269.941 531.973 270.668 528.339 272.754C523.472 275.503 517.026 281.539 510.579 289.313C500.34 301.638 493.167 307.8 489.027 307.832C487.952 307.832 487.573 307.674 486.909 306.852C485.898 305.651 485.898 305.209 486.878 302.554C488.142 299.236 490.101 295.855 495.884 287.164C502.299 277.494 502.363 277.336 501.92 276.356C501.731 275.882 501.699 275.566 501.889 275.44C502.489 275.061 502.205 274.144 501.193 273.165C499.803 271.806 498.634 271.395 497.243 271.774C496.358 272.027 496.137 271.995 495.979 271.553C494.873 268.361 494.115 267.54 491.808 266.844C487.162 265.517 479.451 268.045 472.341 273.291C469.086 275.693 460.712 283.941 458.436 286.975C456.066 290.135 449.588 296.929 446.428 299.552C442.983 302.459 438.18 305.619 435.367 306.915C426.614 310.865 420.704 307.958 423.169 300.848C424.749 296.171 427.277 292.284 434.672 282.93C439.76 276.546 439.981 276.167 439.697 275.314C439.475 274.682 439.475 274.302 439.728 274.049C440.613 273.165 437.99 270.226 436.347 270.226C436.031 270.226 434.83 270.826 433.692 271.521C430.406 273.607 428.604 274.334 426.74 274.334C424.844 274.334 422.979 273.575 423.453 272.975C428.225 266.939 428.952 265.549 429.079 262.294C429.205 259.513 428.668 258.438 426.993 258.059C423.959 257.395 421.147 260.682 419.124 267.192C418.271 270.004 416.28 273.702 415.616 273.702C415.363 273.702 414.921 273.544 414.668 273.386C414.257 273.133 414.257 273.07 414.7 273.07C414.984 273.07 415.553 272.817 415.964 272.469L416.691 271.901L415.964 271.49C413.436 270.162 402.502 269.436 384.173 269.467C363.094 269.467 354.594 270.131 347.041 272.343C343.754 273.323 341.605 274.366 340.784 275.408C340.31 276.04 340.183 276.704 340.183 278.316C340.183 280.307 340.215 280.433 341.163 281.002C341.985 281.539 342.553 281.602 344.829 281.476C346.314 281.413 348.305 281.191 349.253 281.002C350.201 280.812 354.056 280.37 357.785 280.022C364.074 279.453 366.444 279.264 376.43 278.442C383.225 277.905 385.911 277.747 385.911 277.968C385.911 278.411 383.098 282.139 381.139 284.257C371.342 294.938 350.201 307.294 335.19 311.15C329.344 312.635 326.247 313.014 320.654 312.793C312.248 312.477 307.539 310.676 302.767 305.935C300.144 303.344 298.69 300.816 297.9 297.529C297.3 295.001 297.332 293.01 298.027 289.819C300.144 280.307 306.401 270.921 317.967 259.987C331.461 247.188 348.115 238.972 366.95 235.812C372.354 234.895 381.171 234.895 385.121 235.812C390.777 237.107 395.676 241.563 395.707 245.418C395.707 249.937 387.27 256.827 378.769 259.197C375.229 260.208 370.584 260.176 368.309 259.197C366.349 258.344 365.623 257.585 364.706 255.531C364.106 254.204 363.979 253.224 363.853 249.527C363.726 244.723 363.41 243.68 362.083 243.68C360.313 243.68 359.492 246.556 359.776 252.055C360.155 259.07 362.178 262.705 366.792 264.759C368.846 265.643 375.83 265.549 378.958 264.569C384.457 262.863 390.145 259.386 394.285 255.215C398.457 251.044 400.037 247.251 399.752 242.1C399.531 238.466 398.615 236.412 395.928 233.757C392.326 230.123 386.543 227.943 378.8 227.279C375.103 226.932 374.187 226.932 370.9 227.153ZM657.558 271.869C657.463 272.28 657.305 274.144 657.21 276.072C656.768 284.194 654.208 295.665 651.743 300.563C650.7 302.681 650.384 303.028 648.867 303.85C647.382 304.64 646.782 304.766 644.443 304.798C642.231 304.829 641.473 304.703 640.272 304.103C636.827 302.428 634.615 299.362 634.615 296.297C634.615 294.464 635.532 292.916 639.071 288.713C643.053 284.004 656.42 271.237 657.463 271.174C657.589 271.174 657.621 271.49 657.558 271.869ZM492.756 274.018C493.103 274.018 493.451 274.207 493.546 274.46C493.704 274.871 482.991 289.945 479.009 294.875C476.228 298.351 469.465 304.987 467.285 306.409C460.206 311.023 455.624 309.506 457.646 303.186C459.037 298.825 462.292 294.274 468.201 288.397C474.332 282.297 479.957 277.936 484.634 275.724C486.846 274.65 490.86 273.639 491.713 273.891C491.966 273.955 492.408 274.018 492.756 274.018ZM613.853 274.018C615.37 274.049 614.991 274.682 608.354 283.814C600.801 294.243 598.305 297.34 593.912 301.701C589.109 306.441 584.653 309.096 581.398 309.096C580.229 309.096 579.881 308.938 579.186 308.116C576.879 305.398 579.66 298.92 586.36 291.399C592.553 284.478 601.939 277.115 607.09 275.124C609.239 274.334 612.336 273.67 613.063 273.891C613.316 273.955 613.663 274.018 613.853 274.018Z" fill="#1D1D1D"/>
<path d="M569.358 258.186C567.778 258.912 567.304 259.86 567.304 262.515C567.304 265.075 567.904 266.434 569.516 267.54C571.823 269.12 574.541 268.898 576.626 266.908C577.732 265.896 577.732 265.865 577.732 263.21C577.732 260.777 577.669 260.429 576.942 259.671C575.141 257.712 571.791 257.079 569.358 258.186Z" fill="#1D1D1D"/>
<path d="M704 164.5V177" stroke="#FF52A4"/>
<path d="M732 154C731.633 154.29 731.235 154.558 730.821 154.765C730.488 154.931 730.088 155.053 729.797 155.301C729.535 155.523 729.226 155.68 728.942 155.874C728.501 156.175 728.071 156.499 727.661 156.846C727.134 157.292 726.617 157.748 726.084 158.184C725.506 158.657 724.938 159.153 724.353 159.614C723.715 160.118 723.079 160.585 722.419 161.056C721.657 161.599 720.955 162.257 720.183 162.781C719.547 163.214 718.776 163.446 718.09 163.774C717.566 164.025 717.036 164.289 716.501 164.512C716.121 164.671 715.72 164.758 715.337 164.905C715.01 165.031 714.698 165.217 714.383 165.372C713.814 165.651 713.233 165.898 712.666 166.182C712.336 166.347 712.025 166.47 711.787 166.779C711.642 166.967 711.612 167.216 711.475 167.403C711.332 167.598 711.214 167.886 711 168" stroke="#FF52A4" stroke-width="15" stroke-linecap="round"/>
<path d="M707 173C707 173.357 707 173.724 707 174.088C707 174.376 707 174.78 707 175" stroke="#FF52A4" stroke-width="6" stroke-linecap="round"/>
<path d="M264 160V175" stroke="#FF52A4"/>
<path d="M261.717 158.104C261.773 158.301 261.807 158.462 261.84 158.655C261.886 158.92 262.061 159.152 262.061 159.421C262.061 159.846 262.077 160.282 262.061 160.709C262.056 160.847 262.024 160.969 261.993 161.104C261.933 161.366 261.958 161.679 261.925 161.948C261.9 162.156 261.812 162.451 261.887 162.657C261.904 162.702 262.097 162.937 261.995 162.947C261.69 162.979 261.97 162.765 262.078 162.712C262.229 162.638 262.176 162.609 262.176 162.445C262.176 162.293 262.191 162.176 262.261 162.037C262.265 162.028 262.319 161.915 262.269 161.929C262.171 161.957 262.169 162.485 262.159 162.57C262.044 163.488 261.987 164.401 262.091 165.321C262.128 165.655 262.074 165.991 262.129 166.323C262.189 166.685 262.214 167.076 262.214 167.443C262.214 168.058 262.151 168.707 262.271 169.31C262.363 169.769 262.496 170.233 262.519 170.706C262.537 171.053 262.634 171.405 262.634 171.756C262.634 172.031 262.596 172.297 262.596 172.577C262.596 172.727 262.599 172.877 262.596 173.027C262.59 173.273 262.554 173.346 262.439 173.084C262.293 172.753 262.139 172.406 261.942 172.102C261.711 171.744 261.378 171.442 261.206 171.047C261.096 170.795 261.03 170.536 260.894 170.294C260.834 170.187 260.75 170.09 260.695 169.98C260.569 169.728 260.411 169.489 260.266 169.246C260.067 168.912 259.843 168.516 259.581 168.228C259.088 167.686 258.649 167.029 258.255 166.412C258.064 166.113 257.804 165.876 257.574 165.61C257.471 165.49 257.333 165.402 257.22 165.292C257.157 165.23 257.095 165.129 257.02 165.092" stroke="#FF52A4" stroke-width="3" stroke-linecap="round"/>
<path d="M675.67 403.667C676.304 403.051 677.06 402.584 677.86 402.222C679.103 401.66 680.492 401.364 681.654 400.623C682.233 400.254 682.904 400.012 683.506 399.677C684.035 399.383 684.572 399.094 685.111 398.817C685.821 398.453 686.226 397.821 686.544 397.115C686.578 397.039 686.653 396.714 686.555 396.662C686.449 396.606 686.115 396.628 685.999 396.662C685.709 396.748 685.236 396.861 685.008 397.063C684.906 397.154 684.735 397.168 684.635 397.258C684.518 397.363 684.236 397.514 684.09 397.568C683.71 397.709 683.403 397.998 683.047 398.175C682.932 398.233 682.645 398.428 682.583 398.537C682.496 398.688 682.137 398.792 681.99 398.895C681.806 399.022 681.576 399.102 681.422 399.256C681.306 399.372 681.161 399.472 681.01 399.54C680.777 399.643 680.423 399.879 680.262 400.081C680.032 400.368 679.56 400.471 679.284 400.7C678.992 400.944 678.574 401.059 678.25 401.268C677.81 401.55 677.279 401.774 676.782 401.916C676.495 401.998 676.282 402.254 676.006 402.377C675.871 402.437 675.73 402.558 675.596 402.635C675.488 402.696 675.473 402.837 675.361 402.893" stroke="#4CB431" stroke-linecap="round"/>
<path d="M677.115 403.099C676.717 403.234 676.311 403.343 675.914 403.477C675.574 403.593 675.808 403.563 675.985 403.563C676.534 403.563 677.177 403.34 677.576 402.942C677.713 402.805 677.762 402.603 677.903 402.474C678.125 402.271 678.393 402.099 678.634 401.916C678.893 401.718 679.181 401.548 679.41 401.319C679.477 401.252 679.556 401.188 679.614 401.113C679.703 400.999 679.233 401.036 679.181 401.036C678.913 401.036 678.631 401.062 678.364 401.033C678.22 401.017 678.427 400.89 678.482 400.878C678.751 400.818 679.103 400.56 679.362 400.442C679.518 400.371 679.688 400.331 679.849 400.25C680.026 400.162 680.138 400.024 680.313 399.941C681.243 399.5 682.279 399.453 683.254 399.167C683.861 398.989 684.514 398.658 685.151 398.611C685.198 398.608 685.328 398.547 685.283 398.559C684.763 398.708 684.242 399.007 683.741 399.213C682.499 399.723 681.295 400.303 680.107 400.927C680.048 400.958 679.25 401.504 679.602 401.242C680.017 400.933 680.543 400.764 681.007 400.548C682.023 400.076 683.006 399.54 684.027 399.075" stroke="#4CB431" stroke-linecap="round"/>
<path d="M717.611 413.24C719.38 413.353 719.661 411.411 720.207 410.152C720.326 409.879 720.814 409.004 720.759 409.843C720.669 411.199 720.343 412.528 719.965 413.829C719.41 415.732 718.842 417.616 718.464 419.565C718.364 420.083 718.116 420.963 718.501 419.925C719.243 417.927 719.757 415.86 720.369 413.821C720.431 413.615 719.989 414.606 719.935 414.696C719.485 415.456 718.867 416.077 718.097 416.513C716.407 417.469 716.809 413.837 716.898 412.99C716.975 412.254 717.098 411.475 717.45 410.813C717.766 410.216 717.405 411.191 717.383 411.247C716.719 412.965 715.82 414.596 714.817 416.138C714.283 416.959 714.29 416.731 714.626 415.91C715.264 414.35 715.95 412.786 716.685 411.269C717.033 410.551 717.459 409.521 718.104 408.997C718.799 408.432 717.248 410.574 716.744 411.314C716.142 412.195 715.411 413.042 714.993 414.035C714.757 414.595 715.648 413.009 716.008 412.52C716.882 411.333 717.8 410.184 718.486 408.872C718.496 408.854 718.947 407.895 718.788 408.063C717.233 409.711 715.448 411.206 713.692 412.63C712.123 413.901 710.352 414.965 708.875 416.344C708.786 416.427 708.529 416.674 708.639 416.623C708.979 416.466 709.594 415.695 709.779 415.505C711.354 413.9 712.865 412.247 714.287 410.505C714.817 409.856 715.463 409.188 715.868 408.445C716.307 407.642 714.876 409.984 714.361 410.74C712.981 412.765 711.483 414.723 710.14 416.77C708.482 419.296 714.065 411.944 714.846 409.026C714.876 408.913 715.133 408.041 714.706 408.151C714.423 408.224 714.071 408.541 713.89 408.688C712.816 409.564 711.775 410.504 710.787 411.475C710.71 411.551 707.895 414.607 709.316 413.88C711.265 412.883 713.08 411.346 714.626 409.813C715.181 409.262 716.461 408.139 716.383 407.203C716.355 406.86 712.171 409.958 712.037 410.063C709.559 412.016 707.164 414.072 704.675 416.013C703.668 416.799 703.801 416.676 704.565 415.902C706.103 414.347 707.607 412.744 709 411.056C709.067 410.975 710.537 408.779 710.507 408.784C710.231 408.826 710.059 409.118 709.845 409.298C708.809 410.174 707.752 411.007 706.639 411.784C705.649 412.475 704.893 412.96 703.874 413.586C703.342 413.913 701.902 415.03 702.241 414.505C702.402 414.256 702.701 414.131 702.933 413.946C704.046 413.059 705.172 412.19 706.293 411.314C707.906 410.054 709.581 408.788 710.919 407.225C711.288 406.794 711.338 406.571 710.706 406.93C708.716 408.064 706.776 409.415 704.977 410.828C704.874 410.909 703.679 411.864 703.491 412.181C703.13 412.794 704.83 411.678 705.44 411.314C707.098 410.325 708.989 409.215 710.228 407.695C710.99 406.76 709.806 407.013 709.228 407.173C706.579 407.909 704.071 409.205 701.609 410.402C700.452 410.964 696.973 412.593 698.204 412.218C700.116 411.636 701.951 410.347 703.668 409.357C704.825 408.69 706.09 408.035 707.139 407.195C707.993 406.512 705.03 407.79 704.021 408.21C700.933 409.496 697.885 410.891 694.814 412.218C681.445 417.995 699.479 410.207 693.446 412.821C692.944 413.039 694.425 412.333 694.917 412.093C698.375 410.407 701.853 408.757 705.256 406.96C705.261 406.958 709.295 404.667 709.066 404.533C708.89 404.43 708.148 404.537 708.095 404.548C706.588 404.841 705.148 405.489 703.749 406.092C700.803 407.363 697.85 408.667 694.975 410.093C694.639 410.259 694.195 410.323 693.99 410.637C693.954 410.693 694.124 410.633 694.189 410.615C694.817 410.438 695.848 410.031 696.351 409.828C698.815 408.833 701.397 407.733 703.565 406.166C704.336 405.608 703.916 405.396 703.138 405.386C700.403 405.35 697.62 406.282 695.034 407.063C694.049 407.361 693.226 407.621 692.269 407.953C691.867 408.092 690.677 408.353 691.092 408.445C691.371 408.507 691.647 408.306 691.916 408.21C693.146 407.773 694.355 407.27 695.534 406.71C696.425 406.287 699.079 405.182 698.094 405.224C696.236 405.304 694.193 406.467 692.504 407.129C691.111 407.675 686.912 409.26 688.298 408.695C690.214 407.915 692.058 406.959 693.872 405.967C694.79 405.466 695.517 405.053 696.402 404.518C696.833 404.258 698.09 403.755 697.608 403.606C697.3 403.511 696.965 403.675 696.652 403.753C695.113 404.142 693.607 404.688 692.107 405.202C689.359 406.145 686.59 407.064 683.9 408.166C682.654 408.676 683.868 408.262 684.349 408.07C686.52 407.206 688.65 406.224 690.695 405.092C690.918 404.969 692 404.355 692.299 404.106C692.683 403.786 691.31 404.289 690.842 404.467C687.28 405.826 676.561 409.707 680.275 408.843C683.828 408.015 687.288 406.537 690.71 405.298C691.941 404.852 694.369 403.967 695.637 403.489C696.779 403.058 698.146 402.661 699.197 401.996C700.781 400.994 695.668 403.274 693.961 404.048C691.841 405.008 688.762 406.051 687.29 407.982C686.259 409.336 689.702 408.927 690.078 408.887C693.155 408.557 696.272 407.751 699.153 406.622C699.616 406.44 699.792 406.366 700.153 406.107C700.407 405.924 700.561 405.749 700.094 405.783C699.063 405.858 698.081 406.214 697.196 406.732C696.951 406.876 696.364 407.433 696.461 407.166C696.647 406.653 697.05 406.115 696.961 405.541C696.802 404.521 694.041 404.51 693.46 404.459C691.07 404.251 688.259 404.013 685.93 404.761C684.325 405.276 688.138 405.111 688.21 405.107C691.331 404.919 694.488 404.26 697.491 403.408C698.023 403.257 698.859 403.023 699.388 402.702C699.886 402.399 699.224 402.384 699.05 402.386C696.444 402.406 693.725 403.277 691.232 403.908C688.986 404.476 686.764 405.131 684.525 405.724C684.178 405.817 683.172 406.182 683.481 405.996C684.19 405.571 685.092 405.301 685.827 404.915C687.582 403.995 689.342 402.998 690.96 401.849C691.6 401.394 691.622 401.15 690.813 401.385C688.053 402.188 685.359 403.326 682.643 404.261C681.293 404.725 679.94 405.178 678.59 405.643C678.126 405.804 676.747 406.07 677.223 406.195C677.464 406.259 677.711 406.08 677.943 405.989C679.187 405.503 680.395 404.911 681.598 404.334C683.977 403.195 686.318 401.994 688.621 400.709C688.967 400.516 689.366 400.395 689.651 400.121C690.3 399.495 687.949 400.717 687.107 401.04C683.873 402.279 680.581 403.323 677.296 404.415C676.736 404.602 676.19 404.837 675.619 404.989C674.801 405.207 677.183 404.333 677.943 403.959C680.487 402.709 682.917 401.23 685.268 399.65C685.967 399.18 686.509 398.714 685.481 399.363C684.521 399.969 683.55 400.543 682.547 401.077C682.527 401.087 680.623 402.179 681.584 401.716C682.684 401.186 683.746 400.536 684.797 399.915C684.956 399.821 686.998 398.662 686.856 398.407C686.694 398.114 683.553 399.61 683.371 399.694C682.582 400.055 681.075 400.51 680.503 401.246C680.427 401.343 680.505 401.305 680.635 401.275C681.379 401.102 682.126 400.855 682.841 400.591C684.625 399.933 686.28 398.945 688.026 398.194C688.085 398.168 690.786 397.151 690.784 397.179C690.749 397.581 689.639 398.39 689.416 398.628C688.592 399.503 687.495 400.404 686.856 401.43C686.594 401.851 687.855 401.227 688.268 400.952C689.501 400.13 690.97 399.165 691.901 397.988C692.379 397.385 691.773 397.672 691.482 397.973C690.78 398.702 690.122 399.545 689.577 400.4C688.991 401.322 689.328 400.711 689.651 400.165C689.886 399.766 690.076 399.871 689.813 400.003" stroke="#4CB431" stroke-width="5" stroke-linecap="round"/>
<path d="M281 174V188" stroke="#F2F2F2"/>
<path d="M693.77 400.264C694.685 399.87 697.328 399.262 697.829 398.188C697.861 398.12 695.283 399.882 694.854 400.218C692.67 401.927 696.484 398.826 696.676 399.019" stroke="#4CB431" stroke-width="5" stroke-linecap="round"/>
<path d="M665.002 404.718C666.282 405.314 667.576 405.877 668.862 406.46L702.422 386.049L665.002 404.718Z" fill="#388D22"/>
<path d="M344.833 213.165C344.833 215.76 344.333 217.792 343.1 220.069C342.678 220.848 341.565 221.51 340.689 221.151C340.194 220.949 339.665 220.858 339.726 220.252C339.847 219.045 341.078 217.712 341.624 216.667C342.199 215.567 344.548 210.598 342.192 209.992C341.343 209.774 341.13 210.203 340.634 210.891C339.369 212.643 338.827 214.441 338.479 216.557C338.237 218.027 338.414 220.948 336.498 221.243C334.039 221.621 336.06 215.563 336.654 214.65C337.459 213.415 338.509 212.349 338.8 210.854C339.082 209.404 338.327 207.419 337.314 206.38C336.98 206.037 336.847 207.184 336.838 207.223C336.443 208.821 336.029 210.414 335.627 212.01C335.005 214.482 334.567 217.474 332.959 219.565C332.513 220.145 330.137 221.883 329.466 220.839C328.328 219.069 328.178 216.001 328.687 214.018C329.204 211.999 330.393 210.149 331.226 208.25C331.518 207.586 331.63 206.957 331.63 206.242C331.63 205.698 331.63 206.735 331.63 206.893C331.63 208.971 331.051 211.001 330.979 213.092C330.938 214.276 331.275 214.964 331.593 216.062C331.63 216.19 331.719 216.735 331.538 216.787C330.968 216.949 330.326 216.943 329.732 217.117C328.77 217.398 328.015 217.57 327.999 216.466C327.983 215.385 327.603 214.34 327.678 213.257C327.756 212.123 328.007 210.994 328.127 209.864C328.176 209.402 328.996 205.202 328.393 204.867C327.788 204.531 326.509 207.701 326.385 208.049C325.723 209.903 325.284 211.931 325.028 213.88C325.007 214.04 324.835 215.863 324.451 215.778C323.822 215.638 323.61 212.604 323.579 212.138C323.425 209.752 323.695 207.689 324.515 205.454C324.842 204.56 325.599 203.696 325.817 202.804C325.863 202.613 325.962 201.574 325.945 201.594C325.427 202.186 325.112 203.12 324.79 203.813C323.8 205.941 322.823 208.078 321.847 210.213C320.998 212.068 320.159 213.905 319.582 215.861C319.524 216.056 319.424 216.385 319.417 215.952C319.401 214.95 319.456 213.966 319.591 212.972C320.028 209.765 320.566 206.571 321.058 203.373C321.295 201.829 322.621 197.347 322.021 198.788C320.068 203.475 318.384 208.285 316.336 212.945C315.636 214.538 316.155 212.745 316.217 212.431C316.69 210.014 316.913 207.536 317.033 205.078C317.123 203.239 317.106 201.398 317.106 199.558C317.106 199.057 317.244 197.573 317.106 198.055C316.859 198.919 316.835 199.945 316.666 200.824C316.115 203.693 315.298 206.493 314.585 209.323C314.375 210.157 314.059 212.619 313.833 211.79C313.714 211.353 313.807 210.885 313.815 210.433C313.841 208.861 313.905 207.29 313.971 205.72C314.096 202.698 314.466 193.637 314.466 196.661C314.466 197.77 313.957 199.128 313.659 200.145C313.061 202.181 312.347 204.174 311.532 206.132C311.231 206.855 311.237 206.831 310.954 207.471C310.879 207.641 310.818 208.107 310.697 207.966C310.48 207.713 310.676 207.3 310.688 206.967C310.75 205.224 310.867 203.484 310.926 201.74C311.026 198.796 311.252 189.969 310.972 192.902C310.518 197.675 309.741 202.404 308.231 206.967C308.131 207.268 307.864 208.201 307.864 207.242C307.864 205.12 308.052 203.002 308.047 200.879C308.041 197.637 307.782 187.919 307.69 191.16C307.554 195.902 307.224 200.726 306.122 205.353C306.012 205.816 305.89 206.737 305.884 205.536C305.865 201.914 305.881 198.293 305.792 194.671C305.733 192.292 305.873 189.711 305.462 187.355C305.447 187.271 305.397 187.054 305.352 187.125C305.224 187.325 305.219 187.581 305.168 187.813C305.006 188.549 304.516 191.195 304.435 191.627C303.755 195.247 303.073 198.867 302.473 202.502C302.27 203.73 301.909 207.442 301.923 206.197C301.984 200.62 302.253 195.053 302.253 189.473C302.253 189.196 302.319 186.649 302.06 188.895C301.566 193.188 301.36 197.518 301.134 201.832C301.062 203.202 301.148 207.288 300.896 205.94C300.525 203.964 300.464 201.928 300.089 199.943C299.217 195.331 297.467 190.847 297.467 186.108C297.467 182.454 297.464 193.422 297.173 197.064C297.088 198.127 296.969 199.827 296.806 197.578C296.578 194.42 296.288 191.266 296.082 188.106C295.979 186.525 295.966 184.926 295.816 183.348C295.692 182.041 295.454 185.949 295.312 187.254C295.064 189.53 294.815 191.806 294.588 194.084C294.568 194.283 294.341 196.961 294.331 195.304C294.303 190.765 294.166 186.226 294.166 181.688C294.166 181.547 294.209 180.087 294.047 181.321C293.389 186.331 293.046 191.431 292.864 196.478C292.766 199.18 292.803 201.881 292.845 204.583C292.849 204.831 292.889 205.328 293.047 204.748C293.407 203.429 293.344 201.953 293.341 200.604C293.331 197.259 293.021 193.924 292.671 190.6C292.46 188.595 292.255 186.554 291.8 184.586C291.651 183.938 291.614 184.22 291.489 184.54C291.339 184.923 291.34 185.325 291.287 185.732C291.03 187.709 290.563 189.651 290.15 191.6C289.976 192.421 289.821 193.247 289.636 194.066C289.635 194.071 289.5 194.673 289.462 194.598C289.192 194.058 289.381 192.967 289.371 192.407C289.33 190.317 288.959 188.303 288.628 186.245C288.234 183.796 287.704 181.198 287.573 178.718C287.558 178.421 287.571 178.141 287.482 177.856C287.314 177.319 287.328 178.724 287.326 178.745C286.982 181.516 286.75 184.262 286.574 187.052C286.481 188.518 286.079 190.074 286.079 191.526C286.079 192.263 286.079 190.053 286.07 189.317C286.041 187.13 285.781 185.019 285.529 182.853C285.346 181.281 285.089 179.604 285.089 178.021C285.089 176.922 285.213 175.668 284.098 175.077C283.688 174.86 284.017 175.953 284.108 176.269C284.231 176.701 284.263 177.097 284.263 177.599C284.263 178.26 284.365 179.7 283.97 180.194C283.626 180.624 283.933 182.477 283.933 183.045C283.933 184.002 283.877 184.978 283.933 185.933C283.955 186.299 284.098 186.728 284.098 187.171C284.098 188.482 283.933 186.846 283.933 186.346C283.933 185.218 283.933 184.09 283.933 182.963C283.933 181.9 283.603 180.875 283.603 179.909C283.603 179.573 283.551 178.971 283.402 178.672C283.119 178.106 283.946 179.829 284.062 180.45C284.527 182.954 284.263 185.246 284.263 187.749" stroke="#F2F2F2" stroke-width="5" stroke-linecap="round"/>
<path d="M281.7 176.079C281.703 176.262 281.725 176.443 281.744 176.625C281.754 176.72 281.759 176.814 281.759 176.909C281.759 176.939 281.734 177.011 281.761 176.998C281.799 176.978 281.833 176.503 281.788 176.638" stroke="#F2F2F2" stroke-linecap="round"/>
<path d="M281.759 187.231C281.759 187.422 281.775 187.617 281.73 187.803C281.699 187.929 281.671 188.043 281.671 188.173" stroke="#F2F2F2" stroke-linecap="round"/>
<path d="M687 187.5V175C687 174.6 687 174.167 687 174" stroke="#F2F2F2"/>
<path d="M640.693 206.829C642.708 205.985 644.124 203.926 646.404 203.611C647.243 203.496 648.124 203.014 648.933 202.74C649.365 202.593 649.746 202.334 650.106 202.064C651.409 201.087 652.933 200.319 654.017 199.068C654.867 198.087 655.944 197.522 657.185 197.079C657.247 197.056 658.114 196.756 658.106 196.796C658.076 196.946 657.856 197.228 657.799 197.336C657.506 197.896 657.26 198.48 657.001 199.056C656.34 200.527 655.416 202.043 655.294 203.685C655.28 203.874 655.374 204.391 655.214 204.551C654.884 204.881 654.164 204.162 653.968 204.017C652.406 202.856 650.781 201.839 650.1 199.94C649.202 197.439 653.718 196.147 655.515 196.679C657.765 197.346 659.213 199.928 659.371 202.175C659.441 203.174 658.235 201.733 658.125 201.469C656.654 197.951 662.102 195.297 660.98 191.798C660.973 191.778 660.733 191.349 660.673 191.43C660.402 191.79 660.817 192.382 660.974 192.695C661.437 193.622 661.733 194.605 662.367 195.445C662.899 196.15 663.552 196.685 664.258 197.201C664.613 197.461 665.15 197.714 665.339 198.147C665.441 198.38 665.437 198.643 665.671 198.785C665.834 198.885 665.979 199.059 666.063 199.228C666.095 199.291 666.411 199.985 666.438 199.78C666.539 199.021 666.344 198.213 666.174 197.484C665.533 194.729 664.785 191.998 664.191 189.232C664.033 188.498 663.902 187.768 663.902 187.015C663.902 186.698 664.11 187.681 664.148 187.77C665.004 189.814 666.336 191.693 667.328 193.677C667.484 193.989 667.717 194.893 668.077 195.04C668.277 195.121 668.765 194.09 668.814 193.984C669.263 193.014 669.42 191.854 669.588 190.81C669.893 188.903 669.9 186.99 669.76 185.069C669.71 184.387 669.662 183.699 669.545 183.024C669.452 182.488 669.437 182.765 669.477 182.994C669.783 184.728 670.623 186.249 670.742 188.041C670.848 189.635 671.012 191.234 671.074 192.83C671.08 192.983 670.907 194.182 671.307 194.119C671.553 194.08 671.842 193.586 671.97 193.407C672.619 192.501 672.987 191.333 673.235 190.263C673.666 188.403 673.863 186.53 673.769 184.621C673.701 183.254 673.407 181.906 673.407 180.538C673.407 180.478 673.406 180.846 673.407 180.906C673.432 182.369 674.132 183.72 674.665 185.05C675.514 187.165 675.982 189.463 676.164 191.737C676.169 191.8 676.126 192.326 676.231 192.326C676.426 192.326 676.809 190.965 676.857 190.84C677.882 188.211 677.86 185.307 677.932 182.521C677.973 180.916 677.938 179.306 677.938 177.701C677.938 177.138 678.764 178.684 678.822 178.88C679.599 181.477 679.319 184.253 680.044 186.837C680.098 187.031 680.706 188.79 680.867 188.79C681.127 188.79 681.254 181.196 681.254 180.108C681.254 179.609 681.143 179.2 681.143 178.702C681.143 178.464 681.128 178.221 681.143 177.983C681.148 177.907 681.566 178.348 681.64 178.481C682.064 179.244 681.806 180.595 681.806 181.465C681.806 183.442 681.475 185.406 681.475 187.378" stroke="#F2F2F2" stroke-width="10" stroke-linecap="round"/>
<path d="M684.249 176.992C684.559 176.951 684.905 176.949 685.193 176.812C685.255 176.782 685.321 176.777 685.389 176.761C685.529 176.728 685.675 176.672 685.82 176.663C685.893 176.659 686.023 176.601 686.062 176.54C686.103 176.478 686.037 176.398 686.004 176.347C685.97 176.292 685.972 176.152 685.972 176.09C685.972 175.985 685.887 175.729 685.993 175.658" stroke="#F2F2F2" stroke-width="2" stroke-linecap="round"/>
<path d="M686.26 185.565C686.168 185.875 686.117 186.273 686.214 186.586C686.265 186.752 686.254 186.948 686.321 187.104" stroke="#F2F2F2" stroke-width="2" stroke-linecap="round"/>
<path d="M653.731 391.903L669.122 384.247" stroke="#F2F2F2" stroke-width="1.1643"/>
<path d="M642.179 388.063C643.877 388.063 645.148 386.823 646.925 386.823C649.334 386.823 652.276 385.419 654.105 383.99C654.816 383.436 655.246 382.626 655.966 382.077C656.458 381.701 657.2 381.445 657.604 380.974C657.841 380.698 658.032 380.382 658.232 380.071C658.405 379.801 658.501 379.51 658.683 379.244C659.277 378.377 657.398 379.652 657.275 379.719C653.93 381.526 650.373 382.775 646.94 384.388C645.282 385.168 643.848 385.904 642.011 386.134C641.205 386.234 639.574 386.725 638.795 386.379C638.168 386.1 641.743 382.71 641.903 382.566C644.524 380.231 647.406 378.317 650.148 376.144C650.546 375.828 650.735 375.623 650.033 375.876C648.454 376.446 647.002 377.373 645.54 378.18C643.789 379.147 642.025 380.084 640.204 380.913C639.075 381.427 637.122 382.611 635.795 382.566C635.602 382.56 636.004 382.237 636.147 382.107C636.426 381.854 637.579 380.871 637.785 380.699C639.29 379.441 640.852 378.251 642.332 376.963C642.979 376.4 644.372 375.462 644.613 374.544C644.788 373.879 643.05 374.341 642.975 374.36C640.927 374.878 638.932 375.743 636.974 376.519C635.663 377.038 633.714 377.503 632.58 378.402C632.008 378.856 633.921 377.825 634.57 377.491C637.147 376.166 639.719 374.825 642.233 373.38C643.157 372.849 644.346 372.15 645.272 371.543C645.306 371.521 645.978 371.133 646.068 370.885C646.117 370.751 645.805 370.739 645.662 370.747C645.054 370.782 644.304 370.935 643.741 371.053C640.87 371.658 638.043 372.455 635.175 373.074C633.261 373.488 631.216 374.098 629.257 374.276C628.823 374.316 631.247 372.924 631.278 372.906C633.332 371.741 635.391 370.59 637.456 369.446C637.655 369.336 640.022 368.286 640.081 367.777C640.102 367.601 635.624 369.052 635.55 369.078C633.017 369.966 630.47 370.814 627.941 371.712C627.098 372.011 626.717 372.157 625.935 372.447C625.767 372.509 625.295 372.748 625.43 372.63C626.199 371.957 627.469 371.523 628.339 370.992C630.065 369.938 631.686 368.732 633.177 367.364C633.654 366.925 635.599 365.425 635.642 364.593C635.65 364.435 635.322 364.56 635.167 364.593C634.603 364.712 633.741 364.97 633.238 365.128C630.298 366.053 627.251 366.883 624.373 367.984C622.397 368.74 628.234 366.244 630.122 365.289C631.124 364.783 632.224 364.321 633.177 363.72C633.645 363.424 632.078 363.872 631.539 363.995C628.798 364.622 625.886 365.45 623.049 365.45C622.772 365.45 623.521 365.159 623.761 365.021C625.634 363.949 627.503 362.872 629.38 361.806C630.324 361.27 632.343 360.514 632.962 359.494C633.234 359.048 631.908 359.577 631.416 359.755C629.039 360.613 626.701 361.556 624.297 362.342C623.151 362.716 621.644 363.17 620.469 363.521C620.097 363.632 619.725 363.742 619.352 363.85C619.194 363.895 619.025 364.05 618.877 363.98C618.761 363.925 619.095 363.845 619.206 363.781C619.524 363.6 619.846 363.428 620.163 363.245C621.455 362.502 622.37 361.95 623.669 361.163C625.838 359.85 628.052 358.57 630.115 357.091C630.338 356.93 630.916 356.392 630.651 356.463C629.082 356.881 627.528 357.896 626.08 358.591C624.209 359.49 622.328 360.369 620.446 361.247C620.038 361.438 619.3 361.753 620.362 361.454C622.557 360.837 624.697 359.955 626.792 359.066C628.368 358.397 630.124 357.719 631.493 356.654C632.06 356.213 630.046 356.642 629.342 356.784C626.592 357.339 623.886 358.082 621.143 358.668C619.782 358.958 618.412 359.217 617.04 359.448C616.143 359.6 616.798 359.377 617.193 359.157C618.656 358.346 620.108 357.523 621.602 356.769C622.432 356.35 625.012 355.366 624.098 355.529C622.009 355.9 619.881 356.935 617.851 357.535C615.366 358.269 612.83 358.947 610.273 359.387C610.061 359.424 609.453 359.478 609.63 359.356C609.92 359.158 611.359 358.596 611.452 358.56C614.2 357.498 617.001 356.552 619.811 355.667C621.246 355.214 622.701 354.826 624.136 354.373C625.183 354.042 622.008 354.917 620.952 355.215C618.562 355.889 616.211 356.441 613.748 356.761C613.498 356.794 611.982 356.999 611.505 356.999C611.327 356.999 611.77 356.748 611.934 356.677C616.675 354.627 621.605 353.093 626.371 351.135C627.019 350.869 624.975 351.264 624.289 351.403C621.43 351.983 618.582 352.62 615.716 353.164C614.39 353.415 612.798 353.877 611.421 353.845C611.243 353.841 611.604 353.521 611.758 353.432C612.034 353.271 613.624 352.439 613.81 352.345C615.175 351.651 616.572 351.044 617.974 350.431C618.085 350.382 618.414 350.239 618.295 350.262C617.958 350.33 617.634 350.453 617.3 350.538C615.341 351.038 613.349 351.431 611.345 351.701C610.417 351.827 609.12 352.117 608.16 351.962C608.047 351.943 608.349 351.831 608.451 351.778C608.946 351.522 609.439 351.263 609.936 351.013C611.685 350.132 613.468 349.336 615.31 348.67C616.042 348.405 616.802 348.206 617.53 347.928C617.792 347.827 616.966 347.889 616.688 347.928C613.472 348.372 610.221 349.175 606.958 349.175C606.202 349.175 607.676 348.56 607.686 348.555C608.776 348.035 609.908 347.563 611.077 347.246C612.697 346.807 614.999 346.556 616.604 347.208C617.126 347.42 616.472 348.109 616.305 348.349C616.23 348.457 615.838 348.899 616.244 348.808C617.287 348.575 618.275 348.187 619.336 347.996C621.958 347.526 629.936 346.944 627.282 347.17C626.643 347.224 626.009 347.415 625.369 347.415" stroke="#F2F2F2" stroke-width="10" stroke-linecap="round"/>
<path d="M662.56 382.884C662.396 383.154 662.186 383.403 661.984 383.646C661.905 383.741 661.806 383.816 661.705 383.886C661.619 383.946 661.495 383.987 661.423 384.064C661.347 384.144 661.302 384.223 661.198 384.281C661.081 384.345 660.983 384.399 660.884 384.498C660.726 384.653 660.586 384.823 660.417 384.967C660.162 385.185 659.889 385.379 659.627 385.587C659.369 385.791 659.125 386.002 658.875 386.213C658.536 386.499 658.201 386.794 657.854 387.069C657.492 387.356 657.162 387.667 656.818 387.973C656.573 388.19 656.319 388.4 656.049 388.584C655.722 388.808 655.466 389.1 655.072 389.217C654.738 389.317 654.323 389.419 654.038 389.625C653.902 389.724 653.723 389.831 653.623 389.965C653.584 390.017 653.589 390.09 653.544 390.143C653.48 390.217 653.511 390.236 653.579 390.267C653.682 390.314 653.872 390.157 653.986 390.132C654.13 390.1 654.209 390.022 654.33 389.954C654.415 389.907 654.496 389.858 654.592 389.826C654.727 389.781 654.891 389.778 655.018 389.709C655.424 389.485 655.886 389.316 656.335 389.186C656.934 389.012 657.437 388.675 657.919 388.289C658.106 388.14 658.33 388.044 658.52 387.896C658.682 387.771 658.854 387.651 659.022 387.533C659.302 387.336 659.598 387.173 659.912 387.036C660.56 386.755 661.152 386.356 661.812 386.095C662.563 385.797 663.355 385.634 664.109 385.341C664.143 385.328 664.421 385.237 664.345 385.206C664.082 385.098 663.743 385.072 663.463 385.027C663.214 384.987 662.97 384.985 662.719 384.96C662.635 384.952 662.511 384.925 662.426 384.949C662.374 384.964 662.305 385.254 662.295 385.297C662.256 385.469 662.265 385.646 662.265 385.82C662.265 385.993 662.148 386.205 662.074 386.354C661.92 386.662 661.601 386.851 661.344 387.061C661.232 387.152 661.148 387.269 661.037 387.361C660.929 387.45 660.822 387.539 660.715 387.627C660.217 388.037 659.632 388.367 659.047 388.633" stroke="#F2F2F2" stroke-width="2" stroke-linecap="round"/>
</g>
</g>
<defs>
<clipPath id="clip0">
<rect width="968" height="758" fill="white"/>
</clipPath>
<clipPath id="clip1">
<rect width="1400" height="980" fill="white" transform="translate(-216 -107)"/>
</clipPath>
</defs>
</svg>
