<svg width="82" height="55" viewBox="0 0 82 55" fill="none" xmlns="http://www.w3.org/2000/svg">
<path d="M4.07038 47.897C4.07038 47.897 53.7725 44.321 77.4829 48.7034C77.4829 48.7034 58.6483 5.39443 44.6948 6.74734C30.7412 8.10024 8.55885 31.7151 4.07038 47.897Z" fill="#061503"/>
<path opacity="0.18" d="M8.38907 47.2339C6.56928 47.6106 4.72296 48.0774 3.21088 49.0165C2.66972 49.3561 2.12856 49.8442 2.21875 50.4066C2.32486 51.0804 3.22149 51.4146 3.9961 51.595C9.69954 52.9585 15.7107 53.0381 21.637 53.0965C32.7149 53.2079 43.8034 53.2928 54.8549 52.7039C61.0411 52.3749 67.2539 51.8284 73.2173 50.396C74.3261 50.1307 75.7003 49.425 75.3183 48.5019C75.1644 48.1252 74.7453 47.8811 74.3367 47.6742C72.639 46.8253 70.7396 46.2736 68.7819 46.0666C66.4156 45.812 64.0228 46.0613 61.6459 46.1568C54.5577 46.4486 47.5279 45.4512 40.4663 45.1541C36.9752 45.0055 33.4471 45.0215 29.9879 45.4777C28.4493 45.6793 27.3722 45.9871 25.7912 45.9075C24.0138 45.8173 22.2312 45.7961 20.4538 45.8438C16.3898 45.9552 12.3364 46.4168 8.38907 47.2339Z" fill="#000203"/>
<path d="M31.4628 41.09C31.4628 41.09 22.4063 39.5248 20.2788 44.4908C18.1512 49.4515 38.5669 51.2978 39.697 51.1811C40.827 51.0643 41.1401 46.5334 41.1401 46.5334C41.1401 46.5334 32.7467 41.2438 31.4628 41.09Z" fill="#369926"/>
<path d="M26.9743 43.138C28.7941 44.6395 31.0224 45.6422 33.3516 46.0136C33.4311 46.0242 33.3038 44.0294 33.0969 43.78C32.7255 43.3397 31.9244 43.0585 31.362 42.9948C29.9773 42.825 28.3538 43.0372 26.9743 43.138Z" fill="#29791C"/>
<path d="M39.4688 47.1544C37.7392 47.2605 35.9778 47.3666 34.3702 48.0086C33.1553 48.4914 32.0729 49.2607 31.0065 50.0247C30.4919 50.3907 29.9348 50.8311 29.8711 51.4571C29.7491 51.5473 30.0356 51.6906 30.1789 51.7277C30.3274 51.7649 30.476 51.68 30.598 51.5898C30.407 51.7543 30.4919 51.9453 30.5025 52.1999C30.5025 52.2424 30.5131 52.2901 30.5396 52.3219C30.5768 52.3697 30.6457 52.3803 30.7041 52.3803C30.9216 52.3803 31.1339 52.3007 31.293 52.1575C31.1604 52.3379 31.0596 52.6562 31.1975 52.8313C31.2824 52.9374 31.4416 52.9639 31.5742 52.9268C31.7069 52.8896 31.8183 52.7994 31.9244 52.7146C31.9615 52.9056 31.988 53.07 31.9987 53.2663C32.0093 53.4308 32.195 53.5422 32.3594 53.5316C32.5239 53.521 32.6725 53.4255 32.8104 53.3353C32.9483 53.4732 32.7361 53.7067 32.7733 53.8977C32.8051 54.0887 33.0332 54.1789 33.2295 54.1789C33.9829 54.1895 34.5188 53.4945 35.044 52.948C36.1847 51.7649 37.8082 51.0592 39.4529 51.038C39.8561 51.0327 40.3018 51.0539 40.6095 50.794C40.7846 50.6454 40.8854 50.4279 40.9597 50.2157C41.2037 49.51 41.2303 48.7142 40.9438 48.0298C40.652 47.3348 40.2116 47.1119 39.4688 47.1544Z" fill="#965544"/>
<path d="M35.5534 48.295C35.9247 48.1624 36.2961 48.035 36.6887 48.0085C37.145 47.982 37.596 48.0987 38.0363 48.2207C38.5351 48.3587 39.9304 48.5603 41.1188 48.7513C41.0923 48.5019 41.0286 48.2526 40.9331 48.0191C40.6467 47.3294 40.2063 47.1119 39.4635 47.1543C37.7339 47.2604 35.9725 47.3665 34.3649 48.0085C33.1499 48.4913 32.0676 49.2606 31.0012 50.0246C30.529 50.3588 30.025 50.7621 29.8924 51.3085C31.3991 49.7912 33.5213 49.0112 35.5534 48.295Z" fill="#7A3E32"/>
<path d="M47.5279 41.0901C47.5279 41.0901 56.5845 39.5249 58.712 44.4909C60.8395 49.4516 40.4238 51.2979 39.2937 51.1812C38.1637 51.0645 37.8506 46.5335 37.8506 46.5335C37.8506 46.5335 46.244 41.2439 47.5279 41.0901Z" fill="#369926"/>
<path d="M52.0217 43.138C50.2019 44.6395 47.9736 45.6422 45.6445 46.0136C45.5649 46.0242 45.6922 44.0294 45.8991 43.78C46.2705 43.3397 47.0716 43.0585 47.634 42.9948C49.0135 42.825 50.6369 43.0372 52.0217 43.138Z" fill="#36365B"/>
<path d="M49.4167 17.443C49.4167 17.443 51.2471 15.6975 51.576 16.9019C51.9103 18.1062 49.5812 22.5151 48.085 21.3904C46.5888 20.2709 49.4167 17.443 49.4167 17.443Z" fill="#965544"/>
<path d="M36.6038 16.2388C36.6038 16.2388 35.8611 13.8194 34.9803 14.7108C34.0996 15.6021 33.9829 20.584 35.8345 20.3346C37.6915 20.0853 36.6038 16.2388 36.6038 16.2388Z" fill="#965544"/>
<path d="M40.5618 25.5871L36.1953 26.9453C35.564 27.1416 34.8902 26.8021 34.6673 26.1813L32.1843 19.1356L28.4599 20.7856L32.1684 32.166L35.6223 31.9537L38.3441 42.3632H47.7401L50.9341 31.2959C50.9394 31.2906 49.4432 25.5341 40.5618 25.5871Z" fill="#369926"/>
<path d="M41.1984 25.5871C41.1984 25.5871 40.3071 35.7737 40.7687 42.0236H42.2701C42.2701 42.0236 41.8563 28.8235 43.1137 25.672L41.1984 25.5871Z" fill="#29791C"/>
<path d="M46.1644 23.884L44.3711 27.3591C44.3711 27.3591 41.5115 28.5741 40.132 26.7224L39.8508 23.6293C39.8508 23.624 44.8911 22.2021 46.1644 23.884Z" fill="#965544"/>
<path d="M43.6018 8.39722C42.042 8.32825 40.4026 8.77391 38.8269 10.095C37.3466 11.3418 36.4553 13.151 36.3333 15.0822L36.0892 18.9075C35.9035 21.7512 37.7923 24.3191 40.5671 24.9929L41.7502 25.2794C44.6629 25.985 47.6393 24.3881 48.658 21.5708L49.9525 17.9949C51.576 13.4799 48.398 8.60414 43.6018 8.39722Z" fill="#B56F59"/>
<path d="M37.1821 18.1276L36.2378 16.4988L36.0733 16.7587L36.9911 18.812L37.1821 18.1276Z" fill="#B7A970"/>
<path d="M39.4476 22.1969C40.9918 22.1969 42.2436 20.8905 42.2436 19.2789C42.2436 17.6673 40.9918 16.3608 39.4476 16.3608C37.9034 16.3608 36.6516 17.6673 36.6516 19.2789C36.6516 20.8905 37.9034 22.1969 39.4476 22.1969Z" fill="#B7A970"/>
<path d="M47.7454 19.4803L50.3133 17.1937L50.4141 17.5014L47.8569 19.7987L47.7454 19.4803Z" fill="#B7A970"/>
<path d="M45.5596 23.2314C47.1038 23.2314 48.3556 21.9249 48.3556 20.3133C48.3556 18.7018 47.1038 17.3953 45.5596 17.3953C44.0154 17.3953 42.7636 18.7018 42.7636 20.3133C42.7636 21.9249 44.0154 23.2314 45.5596 23.2314Z" fill="#B7A970"/>
<path d="M43.6018 8.39722C42.042 8.32825 40.4026 8.77391 38.8269 10.095C37.3466 11.3418 36.4553 13.151 36.3333 15.0822L36.2006 17.1248C36.6198 16.7959 36.9646 16.3767 37.1928 15.8939C37.2511 16.3714 37.1291 16.8701 36.8532 17.2681C37.6278 16.8436 38.2698 16.1857 38.673 15.4058C38.7526 16.0106 39.1346 16.5677 39.6757 16.8489C39.6492 16.5359 39.8827 16.2653 40.1055 16.0425C40.4185 15.7241 40.7368 15.4005 41.0499 15.0822C41.0446 15.6976 40.8695 16.3131 40.5458 16.8436C41.4955 16.4988 42.3709 15.9576 43.1031 15.2679C43.0394 16.26 43.8883 17.215 44.8805 17.2734C44.4772 16.711 44.6364 15.9364 44.8168 15.2679C45.1245 16.451 46.2811 17.3636 47.5067 17.3795C47.3369 17.1301 47.2043 16.8595 47.1088 16.573C47.8462 17.0877 48.0744 18.2071 47.5863 18.9658C48.0638 18.7642 48.4511 18.3716 48.6474 17.8941C48.8702 18.3239 49.2151 18.6581 49.6077 18.9393L49.9472 18.0002C51.576 13.4799 48.398 8.60414 43.6018 8.39722Z" fill="#91594A"/>
<path d="M36.2802 15.6393C36.2431 16.2176 35.9884 16.7747 35.5746 17.1886C36.0468 17.0931 36.381 16.6845 36.6357 16.276C36.8585 15.9205 37.0495 15.5492 37.214 15.1618C37.3944 15.5067 37.7551 15.7348 38.1212 15.8728C38.0629 15.2733 38.2592 14.5995 38.6624 14.1538C38.551 14.557 38.7101 14.9868 39.0019 15.2839C39.2937 15.581 39.6863 15.7614 40.079 15.8993C40.3124 15.2733 40.7262 14.7003 41.3417 14.435C41.5061 15.1512 41.2143 15.9046 40.6413 16.3662C41.7608 16.2176 42.7954 15.5226 43.3472 14.5358C43.3419 14.4987 43.2729 14.7533 43.2888 14.7852C43.4798 15.2892 43.6124 15.8516 44.0104 16.2123C44.3499 16.5201 44.8592 16.6315 45.2996 16.4882C45.1139 16.2283 44.9653 15.9258 45.0396 15.6181C45.1457 15.1618 45.3208 14.7268 45.5596 14.3236C45.4641 14.6366 45.5012 15.1672 45.6657 15.4483C45.8301 15.7295 46.0795 15.9524 46.3342 16.1434C46.5199 16.2813 46.7162 16.414 46.9284 16.5148C47.0822 16.589 47.2414 16.6527 47.4059 16.7058C47.4059 16.3927 47.4643 16.0426 47.4643 15.7295C47.6924 16.0373 47.8728 16.3768 47.9789 16.7482C48.0372 16.9604 48.0797 17.1779 48.0479 17.3955C48.0001 17.7244 47.7932 18.0109 47.7348 18.3399C48.2017 18.0215 48.6421 17.5971 48.9074 17.0984C48.8278 17.4485 48.8543 17.9579 49.0559 18.2497C49.2575 18.5415 49.5865 18.7484 49.9366 18.7961C49.666 18.3929 49.6077 17.8836 49.8146 17.4432C49.8677 17.7191 50.1223 18.0852 50.3929 18.1648C50.6635 18.2444 50.95 18.2231 51.2259 18.2019C50.8704 17.804 50.6051 17.3212 50.4353 16.8172C50.6263 16.9233 50.828 17.0294 51.0508 17.0347C51.1887 17.04 51.3267 16.9976 51.4593 16.9604C51.767 16.8702 52.0748 16.78 52.3825 16.6951C52.1596 16.6845 51.9368 16.4511 51.8042 16.2654C51.6026 15.9789 51.454 15.6553 51.3638 15.321C51.3161 15.1459 51.2842 14.9549 51.1569 14.8223C50.8333 14.4774 50.9659 14.0105 50.8757 13.5437C50.7749 13.0184 50.7112 12.4348 50.3133 12.0846C50.5733 12.2863 51.0614 12.5568 51.3797 12.6258C51.2312 12.3552 51.0879 12.0793 50.9394 11.8088C50.6423 11.257 50.3345 10.6893 49.8783 10.2542C49.3371 9.7396 48.6368 9.44249 48.0001 9.04988C48.4139 8.965 48.6527 8.85889 49.0294 8.6785C48.5837 8.69972 48.1381 8.64666 47.7083 8.52994C46.8435 8.28589 46.1697 7.97286 45.2731 7.97286C44.9441 7.66514 44.594 7.30967 44.2703 7.00195C44.3022 7.22479 44.3711 7.44231 44.4772 7.64392C43.8194 7.5325 43.1562 7.56434 42.4877 7.58556C41.8245 7.60678 41.1507 7.74472 40.5724 8.08428C40.9809 8.07897 41.3894 8.15856 41.7608 8.32303C41.6706 8.25405 41.4 8.30181 41.2992 8.34425C40.254 8.7793 39.124 9.02336 37.9939 9.04988C38.2592 9.31516 38.5669 9.52738 38.9064 9.68124C37.7923 10.0898 36.7577 10.7264 36.0574 11.6867C36.4447 11.5912 36.7206 11.5382 37.092 11.3896C36.9646 11.5223 36.8956 11.6018 36.7683 11.7345C36.5243 11.9891 36.2802 12.2491 35.9937 12.456C35.6223 12.7319 35.1873 12.9176 34.7363 13.0025C35.1979 13.2784 35.7178 13.4535 36.2484 13.5171C35.7709 13.9787 35.2775 14.2705 34.6196 14.3183C35.1554 14.5199 35.7178 14.6578 36.2855 14.7321C36.3014 14.695 36.312 14.6631 36.328 14.626C36.0308 15.0982 35.5056 15.3688 35.0122 15.6287C35.3889 15.6393 35.9035 15.6393 36.2802 15.6393Z" fill="#663C2F"/>
<path opacity="0.63" d="M51.2789 16.6313C50.8545 16.5305 50.446 16.3024 50.2019 15.9416C50.1542 16.2228 50.2231 16.5252 50.3929 16.7534C50.4247 16.7958 50.4566 16.833 50.4937 16.8648C50.6635 16.955 50.8439 17.0399 51.0402 17.0452C51.1781 17.0505 51.3161 17.008 51.4487 16.9709C51.7564 16.8807 52.0641 16.7905 52.3719 16.7056C52.3453 16.7056 52.3188 16.7003 52.2923 16.695C51.9527 16.7162 51.6132 16.7109 51.2789 16.6313Z" fill="#B7A970"/>
<path opacity="0.63" d="M46.8753 15.931C46.6631 15.5861 46.4456 15.2413 46.2705 14.8752C46.053 14.4242 45.8938 13.8937 46.0848 13.4321C45.8195 13.761 45.5383 14.1271 45.4482 14.5303C45.4853 14.4667 45.5171 14.3977 45.5596 14.334C45.4641 14.647 45.5012 15.1776 45.6657 15.4588C45.8302 15.74 46.0795 15.9628 46.3342 16.1538C46.5199 16.2918 46.7162 16.4244 46.9284 16.5252C47.0823 16.5995 47.2414 16.6631 47.4059 16.7162C47.4059 16.6897 47.4059 16.6631 47.4059 16.6366C47.1937 16.4403 47.0292 16.1803 46.8753 15.931Z" fill="#B7A970"/>
<path opacity="0.63" d="M35.6276 17.1726C36.0733 17.0612 36.3969 16.6686 36.641 16.2706C36.8479 15.9417 37.0283 15.5915 37.1821 15.2361C37.1185 14.9496 37.0336 14.6578 37.023 14.3713C37.0071 15.4536 36.4765 16.5147 35.6276 17.1726Z" fill="#B7A970"/>
<path opacity="0.63" d="M40.9756 16.3077C41.9147 16.0902 42.7582 15.4854 43.2676 14.6683C43.3578 13.9521 43.3684 13.2146 43.3843 12.4931C43.0182 13.9786 42.1587 15.3315 40.9756 16.3077Z" fill="#B7A970"/>
<path opacity="0.63" d="M39.4954 10.8006C39.5325 11.0499 39.6704 11.2727 39.8667 11.4319C40.063 11.5858 40.3071 11.676 40.5565 11.6919C40.8642 11.7131 41.1825 11.6282 41.4425 11.4637C41.8404 11.2091 41.5486 11.1401 41.2409 11.2091C40.6307 11.3417 39.9675 11.2091 39.4954 10.8006Z" fill="#B7A970"/>
<path opacity="0.63" d="M37.1344 12.0368C37.2723 12.058 37.5111 12.4029 37.6915 12.4613C37.8506 12.5143 38.2379 12.5727 38.3228 12.3764C38.5032 11.9625 37.3466 12.0686 37.1344 12.0368Z" fill="#B7A970"/>
<path opacity="0.63" d="M45.5383 11.6388C45.5383 11.6388 45.74 13.6496 47.7401 13.5064C47.7454 13.5064 44.8964 14.4667 45.5383 11.6388Z" fill="#B7A970"/>
<path d="M43.7269 19.1385L41.2705 18.8139L41.2295 19.1243L43.6858 19.4489L43.7269 19.1385Z" fill="#B7A970"/>
<path opacity="0.63" d="M25.9822 20.6106L29.6218 41.769L54.2872 32.6595L33.9193 18.5945C33.9193 18.5945 28.7676 16.0585 25.9822 20.6106Z" fill="#B7A970"/>
<path d="M28.1734 33.381L26.2846 31.9486C26.2846 31.9486 38.5191 29.5505 40.5565 36.8084L31.2028 35.4873L28.1734 33.381Z" fill="#DEDEDE"/>
<path d="M53.9688 33.381L55.8576 31.9486C55.8576 31.9486 43.6231 29.5505 41.5857 36.8084L50.9394 35.4873L53.9688 33.381Z" fill="#DEDEDE"/>
<path d="M25.6426 34.0019L26.0777 33.2326C26.0777 33.2326 35.6701 30.7443 39.6068 36.5326H42.6415C42.6415 36.5326 45.5277 31.0414 57.5235 32.0866V32.8028L42.9333 37.3868H39.3415L25.6426 34.0019Z" fill="#80CEFF"/>
<path d="M25.6426 34.0019C25.6426 34.0019 30.598 41.8222 30.7359 46.2629L40.1161 48.417H42.6574C42.6574 48.417 49.5812 46.6927 54.701 45.4034L57.5288 32.8028C57.5288 32.8028 47.7985 31.5932 43.3737 36.3045H38.9224C38.9171 36.2992 33.8556 31.3067 25.6426 34.0019Z" fill="#165780"/>
<path d="M38.9171 36.2991L40.1108 48.4169H42.6521L43.3684 36.2991H38.9171Z" fill="#0E3F5E"/>
<path d="M25.4463 20.6742L25.8496 18.9765L28.3219 14.8222C28.3219 14.8222 29.4361 13.5701 31.049 14.5994L34.5294 18.5945L25.4463 20.6742Z" fill="#3F3D36"/>
<path d="M30.5461 23.4697C33.145 23.1646 35.0759 21.4192 34.8589 19.5712C34.642 17.7232 32.3593 16.4724 29.7605 16.7775C27.1616 17.0826 25.2307 18.8281 25.4477 20.6761C25.6646 22.5241 27.9473 23.7748 30.5461 23.4697Z" fill="#4F4D43"/>
<path d="M30.5017 23.0902C32.8066 22.8196 34.5192 21.272 34.3268 19.6336C34.1344 17.9951 32.11 16.8862 29.8051 17.1568C27.5002 17.4274 25.7876 18.975 25.98 20.6135C26.1724 22.2519 28.1968 23.3608 30.5017 23.0902Z" fill="#B7A970"/>
<path d="M30.0197 21.5019C32.1101 21.2578 33.707 19.9633 33.845 18.5043C33.081 17.5227 31.5212 16.955 29.8022 17.1567C27.7118 17.4007 26.1148 18.6953 25.9769 20.1543C26.7356 21.1358 28.3007 21.7035 30.0197 21.5019Z" fill="#938755"/>
<path d="M54.6586 37.7103C54.5047 37.774 54.3402 37.8536 54.25 37.9968C54.1598 38.1401 54.1651 38.3576 54.3084 38.4478C54.3668 38.4849 54.4357 38.4902 54.5047 38.5008C55.3589 38.6016 56.2608 38.6971 57.046 38.347C57.6615 38.0711 57.7198 37.3867 57.0195 37.2646C56.2767 37.1267 55.3271 37.4291 54.6586 37.7103Z" fill="#965544"/>
<path d="M54.6586 39.0739C54.5047 39.1375 54.3402 39.2171 54.25 39.3604C54.1598 39.5036 54.1651 39.7211 54.3084 39.8113C54.3668 39.8485 54.4357 39.8538 54.5047 39.8644C55.3589 39.9652 56.2608 40.0607 57.046 39.7105C57.6615 39.4346 57.7198 38.7502 57.0195 38.6282C56.2767 38.4903 55.3271 38.7927 54.6586 39.0739Z" fill="#965544"/>
<path d="M54.4729 40.4374C54.3402 40.501 54.2023 40.5806 54.1227 40.7239C54.0431 40.8671 54.0484 41.0846 54.1758 41.1748C54.2235 41.212 54.2872 41.2173 54.3455 41.2279C55.0777 41.3287 55.8523 41.4242 56.5261 41.074C57.0566 40.7981 57.1097 40.1137 56.5049 39.9917C55.8682 39.8538 55.0512 40.1509 54.4729 40.4374Z" fill="#965544"/>
<path d="M54.5896 41.5728C54.4888 41.6365 54.3827 41.716 54.3243 41.8593C54.2659 42.0025 54.2713 42.2201 54.3614 42.3103C54.3986 42.3474 54.4463 42.3527 54.4888 42.3633C55.0405 42.4641 55.6295 42.5596 56.1388 42.2095C56.5367 41.9336 56.5792 41.2492 56.1229 41.1271C55.6401 40.9892 55.0246 41.2916 54.5896 41.5728Z" fill="#965544"/>
<path d="M81.3294 45.5997C75.2705 34.039 55.8258 -0.818292 41.92 0.0146754C27.9612 0.847643 6.97781 34.6279 0.542205 45.552C-0.57726 47.4567 0.107152 50.0723 1.94817 50.8893C2.05958 50.9371 2.1657 50.9848 2.27181 51.0273C3.30108 51.4305 4.43646 51.0061 5.07312 49.9768C9.78443 42.3793 29.3035 11.8354 40.6254 8.19049C52.669 4.31215 68.9835 39.5567 74.4322 49.4993C75.0211 50.571 76.1141 51.0963 77.1858 50.8204L79.6529 50.1837C81.4037 49.7327 82.2632 47.3877 81.3294 45.5997Z" fill="#153310"/>
<path d="M81.3301 45.5997C75.2712 34.039 55.8265 -0.818292 41.9207 0.0146755C27.9619 0.847643 6.9785 34.6279 0.542902 45.552C0.0919327 46.3213 -0.0672321 47.202 0.0282673 48.0403C2.54309 43.7322 5.5354 39.7 8.5118 35.689C10.7348 32.6967 12.9578 29.7044 15.1808 26.7121C16.1889 25.3592 17.1916 24.0009 18.3376 22.7595C19.1388 21.884 20.0089 21.0723 20.8737 20.2606C21.3193 19.8414 20.8684 20.2287 21.1018 19.661C21.2981 19.1941 21.2663 18.6689 21.3459 18.1702C21.6005 16.5202 22.9587 15.2946 24.2374 14.2176C26.4498 12.35 28.2324 10.4825 30.4448 8.61493C31.5431 7.69177 32.7633 6.92247 33.9783 6.15317C35.2623 5.34142 36.5515 4.52968 37.8354 3.71793C38.175 3.50571 38.5251 3.28818 38.9125 3.20329C39.5014 3.07596 40.1062 3.26696 40.7057 3.36777C42.1488 3.60652 43.6768 3.28288 44.8971 2.48174C45.6823 1.96711 48.1706 3.37838 48.6534 4.18482C49.1415 4.99126 49.4386 5.91972 50.0859 6.59883C50.9242 7.47955 52.2134 7.79257 53.0941 8.62554C53.8263 9.32056 54.2189 10.3127 54.9351 11.0236C55.975 12.0529 57.5667 12.3606 58.6066 13.3952C59.5881 14.3767 59.9489 15.9047 61.063 16.7377C63.3285 18.4408 64.1933 21.4384 65.7425 23.81C66.0927 24.3458 66.4428 24.8764 66.7187 25.4494C67.3607 26.7651 67.6313 28.2719 68.4748 29.4656C69.2707 30.5904 70.4962 31.3226 71.4778 32.2829C72.4858 33.2697 73.2286 34.4847 73.9607 35.689C76.3801 39.6576 78.7994 43.6261 81.2134 47.5946C81.3248 47.7803 81.4415 47.966 81.5583 48.1517C81.8076 47.3453 81.7546 46.4168 81.3301 45.5997Z" fill="#2D5F25"/>
<path opacity="0.63" d="M72.6973 43.2971C72.2464 42.0874 71.9068 40.8406 71.4612 39.6362C70.416 36.819 68.9516 34.405 66.8241 32.2828C66.336 29.4019 63.6408 27.529 61.7998 25.2636C60.7493 23.969 59.9482 22.4941 59.1576 21.0245C58.1337 19.1304 57.4811 17.0559 55.9319 15.5598C54.6267 14.2971 53.693 12.6364 52.1703 11.6443C51.4381 11.1668 50.6264 10.5991 49.7987 10.302C49.2363 8.94379 47.9312 7.98879 46.5305 7.54313C45.1298 7.09216 43.6231 7.08685 42.1534 7.16113C40.705 7.23541 39.2354 7.38927 37.909 7.96757C35.7125 8.91726 34.1633 10.8856 32.4656 12.5622C31.4893 13.5278 30.4388 14.4138 29.4202 15.3316C25.3615 18.9871 20.2416 21.555 19.016 26.8765C18.7826 27.8792 18.1672 28.744 17.5623 29.5823C12.7714 36.2089 7.98056 42.8302 3.19498 49.4568C2.82889 49.9608 2.46281 50.4701 2.0649 50.9476C2.13387 50.9795 2.20815 51.006 2.27712 51.0378C3.30639 51.441 4.44178 51.0166 5.07844 49.9873C9.78444 42.3792 29.3035 11.8353 40.6255 8.1904C52.669 4.31206 68.9835 39.5567 74.4322 49.4992C75.0212 50.5709 76.1141 51.0962 77.1858 50.8203L77.5784 50.7195C75.435 48.6397 73.7478 46.0931 72.6973 43.2971Z" fill="#092305"/>
</svg>
