<svg width="256" height="250" viewBox="0 0 256 250" fill="none" xmlns="http://www.w3.org/2000/svg">
<g clip-path="url(#clip0)">
<path d="M232.046 196.558C232.181 199.255 230.147 201.56 227.465 201.786L57.1348 215.859L48.1098 216.612L31.8526 217.953C28.9447 218.194 26.4436 215.889 26.4436 212.966V163.968C26.4436 161.332 28.4777 159.162 31.1144 158.981L46.2565 157.957L55.824 157.309L224.527 145.933C227.315 145.737 229.725 147.892 229.861 150.679L232.046 196.558Z" fill="url(#paint0_linear)"/>
<path d="M246.028 59.7058C246.615 62.2069 245.184 64.7532 242.758 65.5668L63.8847 125.849L47.733 131.288L27.0161 138.264C24.3644 139.153 21.4866 137.692 20.6428 135.025L0.799818 72.0305C-0.16446 68.9569 1.97503 65.7778 5.19934 65.5367L23.8672 64.1204L42.8363 62.6891L238.946 47.8633C241.402 47.6825 243.632 49.3097 244.19 51.7204L246.028 59.7058Z" fill="url(#paint1_linear)"/>
<path d="M241.417 140.705C241.538 143.417 239.459 145.738 236.732 145.903L219.555 146.988L213.77 147.35L207.201 147.772L193.158 148.661L47.3112 157.897C45.0511 158.047 42.9719 156.646 42.2487 154.491L37.3972 140.012C36.5233 137.391 37.9245 134.558 40.5462 133.684L189.316 83.5567L203.916 78.6299L209.717 76.6712L216.632 74.3358L232.031 69.1528C235.195 68.0831 238.479 70.3582 238.63 73.6879L241.417 140.705Z" fill="url(#paint2_linear)"/>
<path d="M255.806 41.49C256.108 44.2924 254.028 46.7935 251.211 47.0044L236.355 48.1194L216.015 49.6562L64.6531 61.0618L60.0879 61.4083L55.7336 61.7398L51.1683 62.0863L38.8587 63.0054C36.0713 63.2164 33.6606 61.107 33.4949 58.3196L31.0239 17.8953C30.8582 15.1381 32.9525 12.7575 35.7097 12.5918L48.4563 11.8234L53.2023 11.5371L57.3909 11.281L62.137 10.9947L212.158 2.02993L232.769 0.794446L246.555 -0.0342297C249.222 -0.199965 251.542 1.77379 251.829 4.42556L255.806 41.49Z" fill="url(#paint3_linear)"/>
<path d="M232.784 0.824463L212.158 2.05994L216.03 49.6561L236.355 48.1343L232.784 0.824463Z" fill="url(#paint4_linear)"/>
<path d="M48.4562 11.8383L51.1532 62.0711L55.7335 61.7246L53.2023 11.552L48.4562 11.8383Z" fill="url(#paint5_linear)"/>
<path d="M57.3909 11.2958L60.0878 61.3931L64.6531 61.0616L62.1369 11.0095L57.3909 11.2958Z" fill="url(#paint6_linear)"/>
<path d="M23.8671 64.1206L47.7179 131.289L63.8847 125.849L42.8212 62.6892L23.8671 64.1206Z" fill="url(#paint7_linear)"/>
<path d="M230.871 58.6814C230.871 59.1523 230.778 59.6186 230.598 60.0536C230.417 60.4887 230.153 60.884 229.82 61.217C229.487 61.55 229.092 61.8141 228.657 61.9943C228.222 62.1745 227.756 62.2673 227.285 62.2673C226.814 62.2673 226.347 62.1745 225.912 61.9943C225.477 61.8141 225.082 61.55 224.749 61.217C224.416 60.884 224.152 60.4887 223.972 60.0536C223.791 59.6186 223.699 59.1523 223.699 58.6814C223.699 58.2105 223.791 57.7442 223.972 57.3091C224.152 56.874 224.416 56.4787 224.749 56.1457C225.082 55.8128 225.477 55.5486 225.912 55.3684C226.347 55.1882 226.814 55.0955 227.285 55.0955C227.756 55.0955 228.222 55.1882 228.657 55.3684C229.092 55.5486 229.487 55.8128 229.82 56.1457C230.153 56.4787 230.417 56.874 230.598 57.3091C230.778 57.7442 230.871 58.2105 230.871 58.6814V58.6814Z" fill="url(#paint8_linear)"/>
<path d="M189.331 83.5717L193.188 148.66L207.216 147.772L203.931 78.6599L189.331 83.5717Z" fill="url(#paint9_linear)"/>
<path d="M216.632 74.3809L209.732 76.7011L213.785 147.35L219.57 146.988L216.632 74.3809Z" fill="url(#paint10_linear)"/>
<path d="M57.1347 215.859L48.1097 216.597L46.2565 157.957L55.8239 157.309L57.1347 215.859Z" fill="url(#paint11_linear)"/>
<path d="M185.278 169.106C185.278 169.106 184.811 173.43 183.561 174.063C182.31 174.696 175.214 176.519 172.923 176.308C170.633 176.097 167.861 171.743 167.861 171.743L185.278 169.106Z" fill="url(#paint12_linear)"/>
<path d="M134.925 69.8457C131.866 81.628 115.895 83.4963 115.895 83.4963C113.289 79.6844 110.441 78.4338 107.759 78.5393C101.823 78.7503 96.6551 85.4851 96.6551 85.4851C96.6551 85.4851 92.0898 85.681 87.0575 85.2591C82.2662 84.8523 77.0531 83.888 74.9739 81.6582C70.6949 77.0778 74.6123 30.4008 91.5474 19.5225C110.215 7.52929 123.037 20.5621 123.037 20.5621C134.503 32.6759 137.983 58.0785 134.925 69.8457Z" fill="url(#paint13_linear)"/>
<path d="M148.862 175.374L196.066 168.278C196.774 168.172 197.256 167.509 197.151 166.816L196.006 159.237C195.9 158.529 195.237 158.047 194.544 158.153L147.34 165.249C146.632 165.355 146.15 166.018 146.255 166.711L147.4 174.289C147.506 174.997 148.169 175.48 148.862 175.374Z" fill="url(#paint14_linear)"/>
<path d="M142.006 166.047L189.211 158.951C189.919 158.845 190.401 158.183 190.296 157.489L189.15 149.911C189.045 149.203 188.382 148.721 187.689 148.826L140.485 155.922C139.776 156.028 139.294 156.691 139.4 157.384L140.545 164.963C140.65 165.656 141.298 166.153 142.006 166.047Z" fill="url(#paint15_linear)"/>
<path d="M145.818 155.109L193.023 148.012C193.731 147.907 194.213 147.244 194.107 146.551L192.962 138.972C192.857 138.264 192.194 137.782 191.501 137.888L144.296 144.984C143.588 145.089 143.106 145.752 143.212 146.445L144.357 154.024C144.462 154.732 145.11 155.214 145.818 155.109Z" fill="url(#paint16_linear)"/>
<path d="M141.63 145.376L188.834 138.279C189.542 138.174 190.024 137.511 189.919 136.818L188.774 129.239C188.668 128.531 188.005 128.049 187.312 128.154L140.108 135.251C139.4 135.356 138.918 136.019 139.023 136.712L140.168 144.291C140.259 144.999 140.922 145.481 141.63 145.376Z" fill="url(#paint17_linear)"/>
<path d="M134.759 136.049L181.964 128.953C182.672 128.847 183.154 128.184 183.048 127.491L181.903 119.913C181.798 119.205 181.135 118.722 180.442 118.828L133.237 125.924C132.529 126.03 132.047 126.693 132.153 127.386L133.298 134.965C133.403 135.673 134.066 136.155 134.759 136.049Z" fill="url(#paint18_linear)"/>
<path d="M138.586 125.111L185.791 118.014C186.499 117.909 186.981 117.246 186.875 116.553L185.73 108.974C185.625 108.266 184.962 107.784 184.269 107.889L137.064 114.986C136.356 115.091 135.874 115.754 135.98 116.447L137.125 124.026C137.215 124.734 137.878 125.216 138.586 125.111Z" fill="url(#paint19_linear)"/>
<path d="M135.723 115.182L182.928 108.085C183.636 107.98 184.118 107.317 184.013 106.624L182.868 99.0453C182.762 98.3372 182.099 97.855 181.406 97.9605L134.202 105.057C133.494 105.162 133.011 105.825 133.117 106.518L134.262 114.097C134.367 114.805 135.015 115.287 135.723 115.182Z" fill="url(#paint20_linear)"/>
<path d="M131.535 105.449L178.739 98.3523C179.447 98.2468 179.93 97.5839 179.824 96.8908L178.679 89.3122C178.574 88.604 177.911 88.1219 177.218 88.2274L130.013 95.3238C129.305 95.4293 128.823 96.0922 128.928 96.7853L130.073 104.364C130.164 105.072 130.827 105.554 131.535 105.449Z" fill="url(#paint21_linear)"/>
<path d="M124.664 96.1223L171.869 89.0259C172.577 88.9204 173.059 88.2575 172.954 87.5644L171.809 79.9858C171.703 79.2776 171.04 78.7955 170.347 78.9009L123.143 85.9974C122.434 86.1029 121.952 86.7658 122.058 87.4589L123.203 95.0375C123.308 95.7457 123.971 96.2278 124.664 96.1223Z" fill="url(#paint22_linear)"/>
<path d="M128.476 85.1839L175.681 78.0874C176.389 77.9819 176.871 77.319 176.765 76.6259L175.62 69.0473C175.515 68.3391 174.852 67.857 174.159 67.9625L126.955 75.059C126.246 75.1644 125.764 75.8274 125.87 76.5204L127.015 84.0991C127.12 84.8072 127.783 85.3044 128.476 85.1839Z" fill="url(#paint23_linear)"/>
<path d="M86.0933 206.698C86.0933 206.698 82.0553 221.704 79.8405 250H111.119L99.1713 206.698H86.0933Z" fill="url(#paint24_linear)"/>
<path d="M148.229 202.253C148.229 202.253 155.732 224.778 158.233 250H102.365C102.365 250 99.2316 222.473 92.1501 207.888L148.229 202.253Z" fill="url(#paint25_linear)"/>
<path d="M181.738 105.991C181.738 105.991 189.376 95.3539 188.683 91.1201C187.99 86.8863 184.856 78.5393 182.295 78.4639C179.719 78.3886 175.349 78.8858 174.023 81.1006C172.697 83.3305 172.426 89.7189 173.195 90.8338C173.963 91.9487 175.696 94.1033 175.485 95.0073C175.274 95.9113 173.677 100.567 173.677 100.567L181.738 105.991Z" fill="url(#paint26_linear)"/>
<path d="M115.896 60.9713C115.896 60.9713 115.835 61.1973 115.73 61.5891C115.202 63.5779 113.605 70.0114 113.349 75.1492L107.081 74.637C108.181 73.9288 108.588 72.3167 107.443 69.5745C106.147 66.4557 105.077 62.0561 104.234 57.7169C104.219 57.6717 104.219 57.6265 104.204 57.5813L115.896 60.9713Z" fill="url(#paint27_linear)"/>
<path d="M118.336 61.8301C117.809 61.9507 116.875 61.8452 115.73 61.5891C112.204 60.8056 106.629 58.6661 104.219 57.7169C104.204 57.6717 104.204 57.6265 104.189 57.5813C103.028 51.5546 102.32 45.6484 102.064 43.3431C101.989 42.6953 101.959 42.3337 101.959 42.3337C102.004 41.731 102.079 41.1735 102.185 40.6612C102.938 36.8795 112.325 24.4192 120.355 25.0972C120.355 25.0972 123.64 26.9052 126.156 32.7662C127.181 35.1317 128.069 38.1601 128.567 42.0022C129.139 46.477 120.988 61.2124 118.336 61.8301Z" fill="url(#paint28_linear)"/>
<path d="M181.527 112.937C180.457 113.298 179.493 112.726 179.447 112.711C178.905 113.976 178.348 115.212 177.79 116.417C165.887 142.182 150.67 155.034 150.67 155.034C150.67 155.034 151.212 161.799 151.815 168.85C152.342 174.952 152.93 181.28 153.276 183.6C154 188.603 158.279 186.629 155.16 197.778C154.723 199.345 153.367 200.792 151.318 202.102C142.308 207.858 119.918 211.127 103.42 211.745C96.9716 211.986 91.4119 211.821 87.9164 211.233C73.4221 208.837 76.8724 199.767 79.1626 189.13C80.6241 182.35 74.8685 156.058 72.8345 132.042C72.4428 127.431 72.1866 122.926 72.1414 118.647C72.0661 110.27 72.7893 102.797 74.9288 97.3879C83.8182 74.8027 98.5536 64.2408 114.404 68.8212C116.498 69.4238 118.532 70.7497 120.521 72.6029C133.599 84.7769 144.327 119.717 150.956 121.646C155.054 122.836 160.282 118.06 164.23 113.374C167.665 109.321 170.136 105.328 170.136 105.328C170.136 105.328 169.428 104.394 169.488 103.264C169.518 102.752 171.206 98.8192 172.035 98.7288C174.792 98.4124 183.079 105.931 183.455 106.805C183.817 107.694 182.611 112.575 181.527 112.937Z" fill="url(#paint29_linear)"/>
<path d="M155.145 197.763C154.708 199.33 153.352 200.777 151.303 202.087C128.341 179.638 110.788 136.2 110.637 135.808C110.893 136.034 134.367 156.872 140.59 158.107C146.843 159.358 150.67 155.019 150.67 155.019C150.67 155.019 152.553 178.583 153.276 183.585C153.999 188.603 158.278 186.614 155.145 197.763Z" fill="url(#paint30_linear)"/>
<path d="M179.432 112.696C178.89 113.961 178.333 115.197 177.775 116.402C171.748 116.041 167.183 114.624 164.215 113.359C167.65 109.306 170.121 105.313 170.121 105.313C170.121 105.313 174.581 109.743 179.432 112.696Z" fill="url(#paint31_linear)"/>
<path d="M126.156 32.7813C121.32 31.7266 110.276 30.9883 102.064 43.3431C101.989 42.6953 101.959 42.3337 101.959 42.3337C102.004 41.731 102.079 41.1735 102.185 40.6612C102.938 36.8795 112.325 24.4192 120.355 25.0972C120.355 25.1123 123.64 26.9203 126.156 32.7813Z" fill="url(#paint32_linear)"/>
</g>
<defs>
<linearGradient id="paint0_linear" x1="26.44" y1="181.943" x2="232.058" y2="181.943" gradientUnits="userSpaceOnUse">
<stop stop-color="#FF6AB0"/>
<stop offset="1" stop-color="#9155FF"/>
</linearGradient>
<linearGradient id="paint1_linear" x1="0.5713" y1="93.1906" x2="246.162" y2="93.1906" gradientUnits="userSpaceOnUse">
<stop stop-color="#5573FF"/>
<stop offset="1" stop-color="#AACEFF"/>
</linearGradient>
<linearGradient id="paint2_linear" x1="298.424" y1="67.6819" x2="27.6459" y2="190.188" gradientUnits="userSpaceOnUse">
<stop stop-color="#FFC42A"/>
<stop offset="1" stop-color="#F7FFAA"/>
</linearGradient>
<linearGradient id="paint3_linear" x1="31.0013" y1="31.4997" x2="255.839" y2="31.4997" gradientUnits="userSpaceOnUse">
<stop stop-color="#FFC42A"/>
<stop offset="1" stop-color="#F7FFAA"/>
</linearGradient>
<linearGradient id="paint4_linear" x1="247.103" y1="10.8512" x2="27.4063" y2="147.823" gradientUnits="userSpaceOnUse">
<stop stop-color="#FFC42A"/>
<stop offset="1" stop-color="#F7FFAA"/>
</linearGradient>
<linearGradient id="paint5_linear" x1="204.16" y1="-58.0279" x2="-15.5369" y2="78.9435" gradientUnits="userSpaceOnUse">
<stop stop-color="#FFC42A"/>
<stop offset="1" stop-color="#F7FFAA"/>
</linearGradient>
<linearGradient id="paint6_linear" x1="206.389" y1="-54.4523" x2="-13.3075" y2="82.5193" gradientUnits="userSpaceOnUse">
<stop stop-color="#FFC42A"/>
<stop offset="1" stop-color="#F7FFAA"/>
</linearGradient>
<linearGradient id="paint7_linear" x1="53.6498" y1="131.395" x2="85.2901" y2="249.218" gradientUnits="userSpaceOnUse">
<stop stop-color="#5573FF"/>
<stop offset="1" stop-color="#AACEFF"/>
</linearGradient>
<linearGradient id="paint8_linear" x1="233.816" y1="83.0125" x2="265.456" y2="200.835" gradientUnits="userSpaceOnUse">
<stop stop-color="#5573FF"/>
<stop offset="1" stop-color="#AACEFF"/>
</linearGradient>
<linearGradient id="paint9_linear" x1="188.741" y1="121.732" x2="96.2303" y2="180.492" gradientUnits="userSpaceOnUse">
<stop stop-color="#FFC42A"/>
<stop offset="1" stop-color="#F7FFAA"/>
</linearGradient>
<linearGradient id="paint10_linear" x1="191.715" y1="126.414" x2="99.2046" y2="185.175" gradientUnits="userSpaceOnUse">
<stop stop-color="#FFC42A"/>
<stop offset="1" stop-color="#F7FFAA"/>
</linearGradient>
<linearGradient id="paint11_linear" x1="82.2325" y1="111.246" x2="22.2665" y2="259.806" gradientUnits="userSpaceOnUse">
<stop stop-color="#FF6AB0"/>
<stop offset="1" stop-color="#9155FF"/>
</linearGradient>
<linearGradient id="paint12_linear" x1="162.107" y1="177.152" x2="192.165" y2="167.811" gradientUnits="userSpaceOnUse">
<stop stop-color="#FFCFAA"/>
<stop offset="1" stop-color="#EB8A4F"/>
</linearGradient>
<linearGradient id="paint13_linear" x1="64.9822" y1="-1.70107" x2="122.384" y2="86.662" gradientUnits="userSpaceOnUse">
<stop stop-color="#FF6AAC"/>
<stop offset="1" stop-color="#2D00AA"/>
</linearGradient>
<linearGradient id="paint14_linear" x1="146.244" y1="166.756" x2="197.165" y2="166.756" gradientUnits="userSpaceOnUse">
<stop stop-color="#EC632A"/>
<stop offset="1" stop-color="#005382"/>
</linearGradient>
<linearGradient id="paint15_linear" x1="139.383" y1="157.427" x2="190.305" y2="157.427" gradientUnits="userSpaceOnUse">
<stop stop-color="#FFC42A"/>
<stop offset="1" stop-color="#009482"/>
</linearGradient>
<linearGradient id="paint16_linear" x1="143.197" y1="146.493" x2="194.118" y2="146.493" gradientUnits="userSpaceOnUse">
<stop stop-color="#FF6AAC"/>
<stop offset="1" stop-color="#2D00AA"/>
</linearGradient>
<linearGradient id="paint17_linear" x1="206.307" y1="110.916" x2="117.04" y2="166.058" gradientUnits="userSpaceOnUse">
<stop stop-color="#FF9FFF"/>
<stop offset="1" stop-color="#473BE9"/>
</linearGradient>
<linearGradient id="paint18_linear" x1="132.144" y1="127.434" x2="183.065" y2="127.434" gradientUnits="userSpaceOnUse">
<stop stop-color="#EC632A"/>
<stop offset="1" stop-color="#005382"/>
</linearGradient>
<linearGradient id="paint19_linear" x1="135.958" y1="116.5" x2="186.879" y2="116.5" gradientUnits="userSpaceOnUse">
<stop stop-color="#AA1F2A"/>
<stop offset="1" stop-color="#FF803D"/>
</linearGradient>
<linearGradient id="paint20_linear" x1="133.1" y1="106.569" x2="184.021" y2="106.569" gradientUnits="userSpaceOnUse">
<stop stop-color="#FF6AAC"/>
<stop offset="1" stop-color="#2D00AA"/>
</linearGradient>
<linearGradient id="paint21_linear" x1="128.908" y1="96.8392" x2="179.829" y2="96.8392" gradientUnits="userSpaceOnUse">
<stop stop-color="#FF9FFF"/>
<stop offset="1" stop-color="#473BE9"/>
</linearGradient>
<linearGradient id="paint22_linear" x1="122.047" y1="87.5103" x2="172.968" y2="87.5103" gradientUnits="userSpaceOnUse">
<stop stop-color="#AA1F2A"/>
<stop offset="1" stop-color="#FF803D"/>
</linearGradient>
<linearGradient id="paint23_linear" x1="184.993" y1="60.2658" x2="93.2362" y2="104.713" gradientUnits="userSpaceOnUse">
<stop stop-color="#EC632A"/>
<stop offset="1" stop-color="#005382"/>
</linearGradient>
<linearGradient id="paint24_linear" x1="68.4213" y1="219.781" x2="115.128" y2="238.766" gradientUnits="userSpaceOnUse">
<stop stop-color="#FF6AAC"/>
<stop offset="1" stop-color="#2D00AA"/>
</linearGradient>
<linearGradient id="paint25_linear" x1="96.1441" y1="171.906" x2="158.521" y2="287.921" gradientUnits="userSpaceOnUse">
<stop stop-color="#FF6AAC"/>
<stop offset="1" stop-color="#2D00AA"/>
</linearGradient>
<linearGradient id="paint26_linear" x1="190.076" y1="73.6055" x2="169.886" y2="106.903" gradientUnits="userSpaceOnUse">
<stop stop-color="#FFCFAA"/>
<stop offset="1" stop-color="#EB8A4F"/>
</linearGradient>
<linearGradient id="paint27_linear" x1="100.897" y1="78.4065" x2="117.972" y2="52.2907" gradientUnits="userSpaceOnUse">
<stop stop-color="#FFCFAA"/>
<stop offset="1" stop-color="#EB8A4F"/>
</linearGradient>
<linearGradient id="paint28_linear" x1="93.7661" y1="58.7966" x2="160.864" y2="15.605" gradientUnits="userSpaceOnUse">
<stop stop-color="#FFCFAA"/>
<stop offset="1" stop-color="#EB8A4F"/>
</linearGradient>
<linearGradient id="paint29_linear" x1="178.837" y1="52.3134" x2="52.5766" y2="237.937" gradientUnits="userSpaceOnUse">
<stop stop-color="#FFC42A"/>
<stop offset="1" stop-color="#009482"/>
</linearGradient>
<linearGradient id="paint30_linear" x1="193.352" y1="68.895" x2="105.663" y2="211.126" gradientUnits="userSpaceOnUse">
<stop stop-color="#FFC42A"/>
<stop offset="1" stop-color="#009482"/>
</linearGradient>
<linearGradient id="paint31_linear" x1="199.568" y1="77.06" x2="126.644" y2="173.337" gradientUnits="userSpaceOnUse">
<stop stop-color="#FFC42A"/>
<stop offset="1" stop-color="#009482"/>
</linearGradient>
<linearGradient id="paint32_linear" x1="87.6471" y1="50.6838" x2="142.343" y2="15.475" gradientUnits="userSpaceOnUse">
<stop stop-color="#FFCFAA"/>
<stop offset="1" stop-color="#EB8A4F"/>
</linearGradient>
<clipPath id="clip0">
<rect width="255.495" height="250" fill="white"/>
</clipPath>
</defs>
</svg>
