<svg width="343" height="306" viewBox="0 0 343 306" fill="none" xmlns="http://www.w3.org/2000/svg">
<path d="M286.394 249.641C286.542 252.586 284.321 255.104 281.392 255.35L95.3912 270.718L85.5359 271.54L67.7831 273.005C64.6077 273.268 61.8765 270.75 61.8765 267.559V214.053C61.8765 211.174 64.0976 208.805 66.9769 208.607L83.5121 207.489L93.9598 206.781L278.184 194.359C281.228 194.145 283.86 196.498 284.008 199.542L286.394 249.641Z" fill="url(#paint0_linear)"/>
<path d="M301.662 100.199C302.304 102.93 300.741 105.71 298.092 106.599L102.762 172.427L85.1245 178.367L62.5017 185.985C59.6059 186.955 56.4634 185.359 55.5421 182.447L33.8735 113.657C32.8205 110.301 35.1568 106.829 38.6777 106.566L59.063 105.019L79.7773 103.456L293.929 87.2667C296.611 87.0692 299.046 88.8461 299.655 91.4786L301.662 100.199Z" fill="url(#paint1_linear)"/>
<path d="M296.628 188.65C296.759 191.612 294.489 194.145 291.511 194.326L272.755 195.511L266.437 195.906L259.263 196.366L243.929 197.337L84.6639 207.423C82.196 207.587 79.9255 206.057 79.1357 203.705L73.8379 187.893C72.8836 185.03 74.4137 181.937 77.2765 180.983L239.733 126.244L255.676 120.864L262.011 118.725L269.563 116.175L286.378 110.515C289.833 109.347 293.419 111.831 293.584 115.467L296.628 188.65Z" fill="url(#paint2_linear)"/>
<path d="M312.34 80.307C312.669 83.3672 310.399 86.0984 307.322 86.3288L291.1 87.5463L268.888 89.2245L103.601 101.679L98.616 102.058L93.8611 102.42L88.8759 102.798L75.4338 103.802C72.39 104.032 69.7575 101.729 69.5765 98.6849L66.8782 54.5416C66.6972 51.5307 68.9842 48.9311 71.9951 48.7501L85.9143 47.911L91.097 47.5984L95.6709 47.3187L100.854 47.0061L264.676 37.2166L287.184 35.8674L302.238 34.9625C305.15 34.7815 307.684 36.9369 307.997 39.8326L312.34 80.307Z" fill="url(#paint3_linear)"/>
<path d="M287.2 35.9004L264.676 37.2495L268.904 89.2245L291.1 87.5628L287.2 35.9004Z" fill="url(#paint4_linear)"/>
<path d="M85.9142 47.9276L88.8593 102.782L93.861 102.403L91.0969 47.615L85.9142 47.9276Z" fill="url(#paint5_linear)"/>
<path d="M95.6708 47.3353L98.6159 102.042L103.601 101.68L100.853 47.0227L95.6708 47.3353Z" fill="url(#paint6_linear)"/>
<path d="M59.063 105.019L85.1081 178.367L102.762 172.427L79.7609 103.456L59.063 105.019Z" fill="url(#paint7_linear)"/>
<path d="M285.111 99.0799C285.111 99.5941 285.009 100.103 284.813 100.578C284.616 101.053 284.327 101.485 283.964 101.849C283.6 102.212 283.169 102.501 282.693 102.698C282.218 102.894 281.709 102.996 281.195 102.996C280.681 102.996 280.171 102.894 279.696 102.698C279.221 102.501 278.79 102.212 278.426 101.849C278.062 101.485 277.774 101.053 277.577 100.578C277.38 100.103 277.279 99.5941 277.279 99.0799C277.279 98.5656 277.38 98.0564 277.577 97.5814C277.774 97.1063 278.062 96.6746 278.426 96.311C278.79 95.9474 279.221 95.6589 279.696 95.4621C280.171 95.2653 280.681 95.1641 281.195 95.1641C281.709 95.1641 282.218 95.2653 282.693 95.4621C283.169 95.6589 283.6 95.9474 283.964 96.311C284.327 96.6746 284.616 97.1063 284.813 97.5814C285.009 98.0564 285.111 98.5656 285.111 99.0799V99.0799Z" fill="url(#paint8_linear)"/>
<path d="M239.75 126.26L243.962 197.337L259.279 196.366L255.693 120.896L239.75 126.26Z" fill="url(#paint9_linear)"/>
<path d="M269.563 116.224L262.027 118.758L266.453 195.906L272.771 195.511L269.563 116.224Z" fill="url(#paint10_linear)"/>
<path d="M95.3912 270.718L85.5358 271.524L83.5121 207.489L93.9597 206.781L95.3912 270.718Z" fill="url(#paint11_linear)"/>
<path d="M235.324 219.664C235.324 219.664 234.814 224.386 233.448 225.077C232.083 225.768 224.333 227.759 221.832 227.528C219.332 227.298 216.304 222.543 216.304 222.543L235.324 219.664Z" fill="url(#paint12_linear)"/>
<path d="M180.338 111.272C176.998 124.138 159.558 126.178 159.558 126.178C156.711 122.015 153.602 120.65 150.673 120.765C144.191 120.995 138.547 128.35 138.547 128.35C138.547 128.35 133.562 128.564 128.067 128.103C122.835 127.659 117.142 126.606 114.872 124.171C110.199 119.169 114.477 68.1977 132.97 56.3186C153.355 43.222 167.357 57.4539 167.357 57.4539C179.877 70.6821 183.678 98.4218 180.338 111.272Z" fill="url(#paint13_linear)"/>
<path d="M195.557 226.508L247.104 218.759C247.878 218.644 248.404 217.92 248.289 217.163L247.038 208.887C246.923 208.114 246.199 207.587 245.442 207.703L193.895 215.452C193.122 215.567 192.595 216.291 192.711 217.048L193.961 225.324C194.076 226.097 194.8 226.623 195.557 226.508Z" fill="url(#paint14_linear)"/>
<path d="M188.071 216.324L239.618 208.575C240.391 208.459 240.918 207.736 240.803 206.979L239.552 198.703C239.437 197.93 238.713 197.403 237.956 197.518L186.409 205.268C185.636 205.383 185.109 206.107 185.225 206.864L186.475 215.139C186.59 215.896 187.298 216.439 188.071 216.324Z" fill="url(#paint15_linear)"/>
<path d="M192.234 204.379L243.781 196.63C244.554 196.515 245.081 195.791 244.965 195.034L243.715 186.758C243.6 185.985 242.876 185.458 242.119 185.573L190.572 193.323C189.798 193.438 189.272 194.162 189.387 194.919L190.638 203.195C190.753 203.968 191.46 204.494 192.234 204.379Z" fill="url(#paint16_linear)"/>
<path d="M187.66 193.751L239.207 186.001C239.98 185.886 240.507 185.162 240.391 184.405L239.141 176.129C239.026 175.356 238.302 174.83 237.545 174.945L185.998 182.694C185.225 182.809 184.698 183.533 184.813 184.29L186.064 192.566C186.162 193.339 186.886 193.866 187.66 193.751Z" fill="url(#paint17_linear)"/>
<path d="M180.157 183.566L231.704 175.817C232.478 175.701 233.004 174.978 232.889 174.221L231.639 165.945C231.523 165.172 230.799 164.645 230.043 164.76L178.495 172.51C177.722 172.625 177.196 173.349 177.311 174.105L178.561 182.381C178.676 183.155 179.4 183.681 180.157 183.566Z" fill="url(#paint18_linear)"/>
<path d="M184.336 171.621L235.883 163.872C236.657 163.757 237.183 163.033 237.068 162.276L235.818 154C235.702 153.227 234.978 152.7 234.222 152.815L182.674 160.565C181.901 160.68 181.375 161.404 181.49 162.161L182.74 170.437C182.839 171.21 183.563 171.736 184.336 171.621Z" fill="url(#paint19_linear)"/>
<path d="M181.21 160.779L232.757 153.029C233.531 152.914 234.057 152.19 233.942 151.433L232.691 143.157C232.576 142.384 231.852 141.858 231.096 141.973L179.548 149.722C178.775 149.837 178.249 150.561 178.364 151.318L179.614 159.594C179.729 160.367 180.437 160.894 181.21 160.779Z" fill="url(#paint20_linear)"/>
<path d="M176.636 150.15L228.183 142.401C228.957 142.285 229.483 141.561 229.368 140.805L228.117 132.529C228.002 131.755 227.278 131.229 226.522 131.344L174.974 139.094C174.201 139.209 173.675 139.933 173.79 140.689L175.04 148.965C175.139 149.739 175.863 150.265 176.636 150.15Z" fill="url(#paint21_linear)"/>
<path d="M169.134 139.966L220.681 132.216C221.454 132.101 221.981 131.377 221.865 130.62L220.615 122.344C220.5 121.571 219.776 121.045 219.019 121.16L167.472 128.909C166.699 129.024 166.172 129.748 166.287 130.505L167.538 138.781C167.653 139.554 168.377 140.081 169.134 139.966Z" fill="url(#paint22_linear)"/>
<path d="M173.296 128.021L224.843 120.271C225.617 120.156 226.143 119.432 226.028 118.675L224.777 110.4C224.662 109.626 223.938 109.1 223.181 109.215L171.634 116.964C170.861 117.08 170.334 117.803 170.45 118.56L171.7 126.836C171.815 127.609 172.539 128.152 173.296 128.021Z" fill="url(#paint23_linear)"/>
<path d="M127.014 260.714C127.014 260.714 122.604 277.101 120.186 308H154.342L141.295 260.714H127.014Z" fill="url(#paint24_linear)"/>
<path d="M194.866 255.861C194.866 255.861 203.06 280.458 205.791 308H144.783C144.783 308 141.361 277.941 133.628 262.014L194.866 255.861Z" fill="url(#paint25_linear)"/>
<path d="M231.457 150.742C231.457 150.742 239.799 139.126 239.042 134.503C238.285 129.88 234.863 120.765 232.066 120.683C229.253 120.6 224.481 121.143 223.033 123.562C221.586 125.997 221.289 132.973 222.129 134.191C222.968 135.408 224.86 137.761 224.629 138.748C224.399 139.735 222.655 144.819 222.655 144.819L231.457 150.742Z" fill="url(#paint26_linear)"/>
<path d="M159.558 101.581C159.558 101.581 159.492 101.828 159.377 102.255C158.801 104.427 157.057 111.453 156.777 117.063L149.933 116.504C151.134 115.73 151.578 113.97 150.328 110.975C148.913 107.57 147.745 102.765 146.823 98.027C146.807 97.9776 146.807 97.9283 146.79 97.8789L159.558 101.581Z" fill="url(#paint27_linear)"/>
<path d="M162.223 102.519C161.647 102.65 160.627 102.535 159.377 102.255C155.527 101.4 149.439 99.0635 146.807 98.027C146.79 97.9776 146.79 97.9283 146.774 97.8789C145.507 91.2977 144.734 84.8482 144.454 82.3309C144.372 81.6234 144.339 81.2285 144.339 81.2285C144.388 80.5704 144.47 79.9616 144.586 79.4022C145.408 75.2725 155.659 61.6659 164.428 62.4063C164.428 62.4063 168.015 64.3806 170.762 70.7809C171.881 73.364 172.852 76.671 173.395 80.8665C174.02 85.7531 165.119 101.844 162.223 102.519Z" fill="url(#paint28_linear)"/>
<path d="M231.227 158.327C230.059 158.722 229.006 158.097 228.957 158.08C228.364 159.463 227.756 160.812 227.147 162.128C214.149 190.263 197.531 204.297 197.531 204.297C197.531 204.297 198.124 211.684 198.782 219.384C199.358 226.048 199.999 232.958 200.378 235.492C201.168 240.954 205.84 238.799 202.434 250.974C201.957 252.685 200.477 254.265 198.239 255.696C188.4 261.981 163.951 265.551 145.935 266.226C138.893 266.489 132.822 266.308 129.005 265.667C113.177 263.051 116.945 253.146 119.446 241.53C121.041 234.126 114.756 205.416 112.535 179.19C112.108 174.155 111.828 169.236 111.778 164.563C111.696 155.415 112.486 147.254 114.822 141.348C124.53 116.685 140.621 105.151 157.929 110.153C160.216 110.811 162.437 112.259 164.609 114.283C178.89 127.577 190.605 165.731 197.844 167.837C202.319 169.137 208.028 163.921 212.339 158.804C216.09 154.379 218.789 150.018 218.789 150.018C218.789 150.018 218.015 148.998 218.081 147.764C218.114 147.205 219.957 142.911 220.862 142.812C223.873 142.467 232.922 150.677 233.333 151.631C233.728 152.602 232.412 157.932 231.227 158.327Z" fill="url(#paint29_linear)"/>
<path d="M202.418 250.957C201.941 252.669 200.46 254.248 198.222 255.679C173.148 231.164 153.98 183.731 153.816 183.303C154.095 183.55 179.729 206.304 186.524 207.653C193.352 209.019 197.531 204.28 197.531 204.28C197.531 204.28 199.588 230.013 200.378 235.475C201.167 240.954 205.84 238.782 202.418 250.957Z" fill="url(#paint30_linear)"/>
<path d="M228.94 158.064C228.348 159.446 227.739 160.795 227.13 162.111C220.549 161.716 215.564 160.17 212.323 158.788C216.074 154.362 218.772 150.002 218.772 150.002C218.772 150.002 223.642 154.839 228.94 158.064Z" fill="url(#paint31_linear)"/>
<path d="M170.762 70.7973C165.481 69.6456 153.421 68.8394 144.454 82.3309C144.372 81.6234 144.339 81.2285 144.339 81.2285C144.388 80.5704 144.47 79.9616 144.586 79.4022C145.408 75.2725 155.659 61.6659 164.428 62.4063C164.428 62.4227 168.015 64.3971 170.762 70.7973Z" fill="url(#paint32_linear)"/>
<defs>
<linearGradient id="paint0_linear" x1="61.8725" y1="233.682" x2="286.407" y2="233.682" gradientUnits="userSpaceOnUse">
<stop stop-color="#FF6AB0"/>
<stop offset="1" stop-color="#9155FF"/>
</linearGradient>
<linearGradient id="paint1_linear" x1="33.6239" y1="136.764" x2="301.809" y2="136.764" gradientUnits="userSpaceOnUse">
<stop stop-color="#5573FF"/>
<stop offset="1" stop-color="#AACEFF"/>
</linearGradient>
<linearGradient id="paint2_linear" x1="358.879" y1="108.909" x2="63.1894" y2="242.685" gradientUnits="userSpaceOnUse">
<stop stop-color="#FFC42A"/>
<stop offset="1" stop-color="#F7FFAA"/>
</linearGradient>
<linearGradient id="paint3_linear" x1="66.8535" y1="69.3976" x2="312.376" y2="69.3976" gradientUnits="userSpaceOnUse">
<stop stop-color="#FFC42A"/>
<stop offset="1" stop-color="#F7FFAA"/>
</linearGradient>
<linearGradient id="paint4_linear" x1="302.836" y1="46.8496" x2="62.9277" y2="196.423" gradientUnits="userSpaceOnUse">
<stop stop-color="#FFC42A"/>
<stop offset="1" stop-color="#F7FFAA"/>
</linearGradient>
<linearGradient id="paint5_linear" x1="255.942" y1="-28.3663" x2="16.0337" y2="121.206" gradientUnits="userSpaceOnUse">
<stop stop-color="#FFC42A"/>
<stop offset="1" stop-color="#F7FFAA"/>
</linearGradient>
<linearGradient id="paint6_linear" x1="258.377" y1="-24.4616" x2="18.4682" y2="125.111" gradientUnits="userSpaceOnUse">
<stop stop-color="#FFC42A"/>
<stop offset="1" stop-color="#F7FFAA"/>
</linearGradient>
<linearGradient id="paint7_linear" x1="91.5856" y1="178.483" x2="126.137" y2="307.145" gradientUnits="userSpaceOnUse">
<stop stop-color="#5573FF"/>
<stop offset="1" stop-color="#AACEFF"/>
</linearGradient>
<linearGradient id="paint8_linear" x1="288.328" y1="125.649" x2="322.879" y2="254.312" gradientUnits="userSpaceOnUse">
<stop stop-color="#5573FF"/>
<stop offset="1" stop-color="#AACEFF"/>
</linearGradient>
<linearGradient id="paint9_linear" x1="239.105" y1="167.931" x2="138.084" y2="232.098" gradientUnits="userSpaceOnUse">
<stop stop-color="#FFC42A"/>
<stop offset="1" stop-color="#F7FFAA"/>
</linearGradient>
<linearGradient id="paint10_linear" x1="242.353" y1="173.044" x2="141.332" y2="237.211" gradientUnits="userSpaceOnUse">
<stop stop-color="#FFC42A"/>
<stop offset="1" stop-color="#F7FFAA"/>
</linearGradient>
<linearGradient id="paint11_linear" x1="122.798" y1="156.481" x2="57.315" y2="318.708" gradientUnits="userSpaceOnUse">
<stop stop-color="#FF6AB0"/>
<stop offset="1" stop-color="#9155FF"/>
</linearGradient>
<linearGradient id="paint12_linear" x1="210.021" y1="228.45" x2="242.844" y2="218.249" gradientUnits="userSpaceOnUse">
<stop stop-color="#FFCFAA"/>
<stop offset="1" stop-color="#EB8A4F"/>
</linearGradient>
<linearGradient id="paint13_linear" x1="103.961" y1="33.1425" x2="166.644" y2="129.635" gradientUnits="userSpaceOnUse">
<stop stop-color="#FF6AAC"/>
<stop offset="1" stop-color="#2D00AA"/>
</linearGradient>
<linearGradient id="paint14_linear" x1="192.698" y1="217.097" x2="248.304" y2="217.097" gradientUnits="userSpaceOnUse">
<stop stop-color="#EC632A"/>
<stop offset="1" stop-color="#005382"/>
</linearGradient>
<linearGradient id="paint15_linear" x1="185.207" y1="206.91" x2="240.813" y2="206.91" gradientUnits="userSpaceOnUse">
<stop stop-color="#FFC42A"/>
<stop offset="1" stop-color="#009482"/>
</linearGradient>
<linearGradient id="paint16_linear" x1="189.371" y1="194.97" x2="244.977" y2="194.97" gradientUnits="userSpaceOnUse">
<stop stop-color="#FF6AAC"/>
<stop offset="1" stop-color="#2D00AA"/>
</linearGradient>
<linearGradient id="paint17_linear" x1="258.287" y1="156.121" x2="160.808" y2="216.336" gradientUnits="userSpaceOnUse">
<stop stop-color="#FF9FFF"/>
<stop offset="1" stop-color="#473BE9"/>
</linearGradient>
<linearGradient id="paint18_linear" x1="177.302" y1="174.158" x2="232.908" y2="174.158" gradientUnits="userSpaceOnUse">
<stop stop-color="#EC632A"/>
<stop offset="1" stop-color="#005382"/>
</linearGradient>
<linearGradient id="paint19_linear" x1="181.466" y1="162.218" x2="237.072" y2="162.218" gradientUnits="userSpaceOnUse">
<stop stop-color="#AA1F2A"/>
<stop offset="1" stop-color="#FF803D"/>
</linearGradient>
<linearGradient id="paint20_linear" x1="178.345" y1="151.374" x2="233.951" y2="151.374" gradientUnits="userSpaceOnUse">
<stop stop-color="#FF6AAC"/>
<stop offset="1" stop-color="#2D00AA"/>
</linearGradient>
<linearGradient id="paint21_linear" x1="173.767" y1="140.748" x2="229.373" y2="140.748" gradientUnits="userSpaceOnUse">
<stop stop-color="#FF9FFF"/>
<stop offset="1" stop-color="#473BE9"/>
</linearGradient>
<linearGradient id="paint22_linear" x1="166.276" y1="130.561" x2="221.882" y2="130.561" gradientUnits="userSpaceOnUse">
<stop stop-color="#AA1F2A"/>
<stop offset="1" stop-color="#FF803D"/>
</linearGradient>
<linearGradient id="paint23_linear" x1="235.013" y1="100.81" x2="134.814" y2="149.347" gradientUnits="userSpaceOnUse">
<stop stop-color="#EC632A"/>
<stop offset="1" stop-color="#005382"/>
</linearGradient>
<linearGradient id="paint24_linear" x1="107.716" y1="275.001" x2="158.72" y2="295.732" gradientUnits="userSpaceOnUse">
<stop stop-color="#FF6AAC"/>
<stop offset="1" stop-color="#2D00AA"/>
</linearGradient>
<linearGradient id="paint25_linear" x1="137.989" y1="222.721" x2="206.105" y2="349.41" gradientUnits="userSpaceOnUse">
<stop stop-color="#FF6AAC"/>
<stop offset="1" stop-color="#2D00AA"/>
</linearGradient>
<linearGradient id="paint26_linear" x1="240.563" y1="115.377" x2="218.516" y2="151.738" gradientUnits="userSpaceOnUse">
<stop stop-color="#FFCFAA"/>
<stop offset="1" stop-color="#EB8A4F"/>
</linearGradient>
<linearGradient id="paint27_linear" x1="143.179" y1="120.62" x2="161.826" y2="92.1016" gradientUnits="userSpaceOnUse">
<stop stop-color="#FFCFAA"/>
<stop offset="1" stop-color="#EB8A4F"/>
</linearGradient>
<linearGradient id="paint28_linear" x1="135.393" y1="99.206" x2="208.663" y2="52.0408" gradientUnits="userSpaceOnUse">
<stop stop-color="#FFCFAA"/>
<stop offset="1" stop-color="#EB8A4F"/>
</linearGradient>
<linearGradient id="paint29_linear" x1="228.29" y1="92.1264" x2="90.4137" y2="294.827" gradientUnits="userSpaceOnUse">
<stop stop-color="#FFC42A"/>
<stop offset="1" stop-color="#009482"/>
</linearGradient>
<linearGradient id="paint30_linear" x1="244.14" y1="110.233" x2="148.384" y2="265.55" gradientUnits="userSpaceOnUse">
<stop stop-color="#FFC42A"/>
<stop offset="1" stop-color="#009482"/>
</linearGradient>
<linearGradient id="paint31_linear" x1="250.928" y1="119.15" x2="171.295" y2="224.284" gradientUnits="userSpaceOnUse">
<stop stop-color="#FFC42A"/>
<stop offset="1" stop-color="#009482"/>
</linearGradient>
<linearGradient id="paint32_linear" x1="128.711" y1="90.3468" x2="188.439" y2="51.8989" gradientUnits="userSpaceOnUse">
<stop stop-color="#FFCFAA"/>
<stop offset="1" stop-color="#EB8A4F"/>
</linearGradient>
</defs>
</svg>
