<svg width="212" height="252" viewBox="0 0 212 252" fill="none" xmlns="http://www.w3.org/2000/svg">
<g filter="url(#filter0_d)">
<path d="M60.3791 154.451C60.3791 154.451 2.42177 169.881 8.59368 187.766C14.7656 205.651 84.4585 229.167 91.2611 229.731C98.0637 230.294 109.552 214.368 105.114 205.426C100.677 196.483 81.1923 192.429 81.1923 192.429C81.1923 192.429 126.378 197.001 141.492 193.307C141.492 193.307 124.914 206.102 126.175 209.683C127.437 213.287 140.929 230.924 157.102 224.865C173.275 218.806 210.239 202.655 208.798 181.189C207.356 159.722 156.021 157.019 156.021 157.019C156.021 157.019 65.5373 156.907 60.3791 154.451Z" fill="#202B35"/>
<path d="M95.2031 76.4468C95.2031 76.4468 67.4746 78.2713 59.8611 89.624C52.2476 100.977 48.2156 111.541 35.0158 116.249C21.816 120.957 -0.596519 123.479 4.83205 140.621C10.2606 157.763 23.1676 158.123 48.3057 147.694L62.6542 136.454L53.554 165.601C53.554 165.601 118.584 189.433 162.351 160.759L148.408 135.328C148.408 135.328 187.286 152.537 194.291 130.102C201.297 107.667 177.015 115.798 167.329 108.207C157.643 100.616 152.868 84.4432 146.673 79.713C140.524 74.9827 109.281 72.6851 95.2031 76.4468Z" fill="#EC5946"/>
<path d="M104.033 115.236C110.385 115.641 116.692 114.042 122.616 111.722C126.423 110.235 130.117 108.433 133.338 105.933C137.122 103.004 140.118 99.1976 143.069 95.4359C145.772 91.9896 148.475 88.5657 151.178 85.1194C149.714 82.8218 148.25 80.9072 146.696 79.7359C140.501 75.0056 109.281 72.708 95.2031 76.4472C95.2031 76.4472 78.9174 77.5284 67.8801 83.1372C70.7858 90.5254 74.7052 97.5758 80.1788 103.297C86.4633 109.875 94.9553 114.65 104.033 115.236Z" fill="#A32B23"/>
<path d="M15.8468 97.5758L22.9197 92.3275L97.906 107.915H109.394L189.291 87.9351C189.291 87.9351 190.124 96.4045 192.399 98.8598L108.831 119.223H100.294L15.8468 97.5758Z" fill="#EEEEEE"/>
<path d="M109.326 112.87H97.9061V199.434H109.326V112.87Z" fill="#D6766D"/>
<path d="M13.707 96.0215L97.9062 112.87V199.435L17.8066 179.793L13.707 96.0215Z" fill="#F3776B"/>
<path d="M193.525 96.0212L109.326 112.87V199.434L189.426 179.792L193.525 96.0212Z" fill="#DD665A"/>
<path d="M11.4543 123.953C9.71989 125.192 8.3909 127.287 8.68373 129.404C8.79636 130.147 9.08918 130.891 9.08918 131.634C9.08918 132.963 8.18817 134.202 8.36837 135.508C8.59362 137.017 10.1929 138.076 10.2605 139.608C10.3055 140.689 9.53968 141.635 9.22433 142.694C8.48099 145.239 10.5758 147.672 12.468 149.519C14.2474 151.231 16.0269 152.965 17.8064 154.677C18.2569 155.128 18.7525 155.578 19.3607 155.781C19.9688 155.984 20.7347 155.826 21.05 155.263C21.2753 154.857 21.2077 154.362 21.1402 153.889C20.532 150.623 19.0904 147.514 16.9955 144.924C18.1443 146.298 19.5409 147.447 21.0951 148.302C21.8384 148.708 22.7169 149.046 23.4828 148.708C24.2937 148.348 24.6316 147.356 24.5189 146.478C24.3838 145.599 23.9107 144.834 23.4152 144.09C21.3429 140.892 19.1579 137.581 15.9594 135.508C17.5136 136.702 19.4282 137.445 21.3879 137.626C21.8835 137.671 22.4241 137.671 22.807 137.355C23.2125 137.017 23.3026 136.454 23.28 135.936C23.1449 133.999 21.5681 132.512 20.104 131.228C18.4596 129.787 16.7928 128.345 15.1484 126.904C17.5136 128.142 20.0364 129.111 22.6493 129.742C23.28 127.85 22.9196 125.642 21.7033 124.043C18.9777 120.506 14.6304 121.7 11.4543 123.953Z" fill="#FFEECB"/>
<path d="M194.562 123.953C196.296 125.192 197.625 127.287 197.332 129.404C197.22 130.147 196.927 130.891 196.927 131.634C196.927 132.963 197.828 134.202 197.648 135.508C197.422 137.017 195.823 138.076 195.756 139.608C195.711 140.689 196.476 141.635 196.792 142.694C197.535 145.239 195.44 147.672 193.548 149.519C191.769 151.231 189.989 152.965 188.21 154.677C187.759 155.128 187.264 155.578 186.655 155.781C186.047 155.984 185.281 155.826 184.966 155.263C184.741 154.857 184.808 154.362 184.876 153.889C185.484 150.623 186.926 147.514 189.021 144.924C187.872 146.298 186.475 147.447 184.921 148.302C184.178 148.708 183.299 149.046 182.533 148.708C181.722 148.348 181.385 147.356 181.497 146.478C181.632 145.599 182.105 144.834 182.601 144.09C184.673 140.892 186.858 137.581 190.057 135.508C188.502 136.702 186.588 137.445 184.628 137.626C184.133 137.671 183.592 137.671 183.209 137.355C182.804 137.017 182.714 136.454 182.736 135.936C182.871 133.999 184.448 132.512 185.912 131.228C187.556 129.787 189.223 128.345 190.868 126.904C188.502 128.142 185.98 129.111 183.367 129.742C182.736 127.85 183.096 125.642 184.313 124.043C187.038 120.506 191.386 121.7 194.562 123.953Z" fill="#FFEECB"/>
<path d="M62.1812 47.142C58.5997 48.7863 56.4823 52.8859 56.685 56.8278C56.8878 60.7697 59.1853 64.4188 62.3163 66.8064C65.4699 69.1941 69.3892 70.3654 73.3086 70.7484C74.4349 70.861 75.7414 70.861 76.5523 70.0501C77.0703 69.532 77.2731 68.8112 77.4533 68.1129C78.6246 63.2925 79.9761 54.7555 76.8451 50.318C73.9844 46.286 66.3934 45.1823 62.1812 47.142Z" fill="#F5D5C8"/>
<path d="M156.359 52.8859C159.941 54.5302 162.058 58.6298 161.855 62.5717C161.653 66.5136 159.355 70.1627 156.224 72.5504C153.07 74.938 149.151 76.1093 145.232 76.4923C144.105 76.6049 142.799 76.6049 141.988 75.794C141.47 75.2759 141.267 74.5551 141.087 73.8568C139.916 69.0364 138.564 60.4994 141.695 56.0619C144.556 52.0299 152.147 50.9487 156.359 52.8859Z" fill="#F5D5C8"/>
<path d="M75.9215 49.1238C75.9215 49.1238 64.6589 96.7195 95.2256 103.139C125.792 109.559 143.722 96.4943 151.426 56.8274C159.152 17.1831 101.307 -14.217 75.9215 49.1238Z" fill="#FFEECB"/>
<path d="M139.983 78.812C135.929 75.4332 129.87 76.8523 124.644 75.9738C121.963 75.5233 119.373 74.4196 117.21 72.7752C114.53 70.7255 112.187 67.7521 108.831 67.3692C105.61 66.9863 102.727 69.1712 99.6633 70.2299C97.163 71.0858 94.4825 71.221 91.8921 71.6715C85.5625 72.7527 79.5933 75.7486 74.9531 80.186C76.2821 86.9886 79.0302 93.4759 84.256 97.9584C86.5311 97.9809 88.8061 97.6881 91.0136 97.0799C97.5008 95.3004 103.245 90.5251 105.632 84.2406C106.556 81.8078 106.984 79.2174 107.592 76.6946C107.772 75.9738 107.975 75.253 108.471 74.6899C108.966 74.1493 109.822 73.8565 110.453 74.2619C111.219 74.7349 111.196 75.8161 111.151 76.6946C110.858 82.6638 112.976 88.7231 116.963 93.2056C119.868 96.4717 123.72 98.8594 127.91 100.053C133.879 96.5618 138.835 91.0882 142.822 83.4297C142.326 81.6051 141.38 79.9833 139.983 78.812Z" fill="#F5D5C8"/>
<path d="M75.9216 49.1239C75.9216 49.1239 74.7277 54.147 74.1646 61.1524C90.0899 60.4991 105.767 53.8542 117.053 42.5691C120.521 51.917 127.279 60.0261 135.861 65.1168C139.69 67.3919 143.858 69.0587 148.16 70.0949C149.399 66.0629 150.48 61.6479 151.426 56.8501C159.152 17.1832 101.307 -14.2169 75.9216 49.1239Z" fill="#F5D5C8"/>
<path d="M70.3801 55.7688C70.3801 55.7688 102.681 56.5121 118.111 34.6627C118.111 34.6627 135.478 64.3959 151.268 64.2382C151.268 64.2382 161.855 21.2151 150.119 10.4706C138.384 -0.273888 71.7316 -19.7356 70.3801 55.7688Z" fill="#202B35"/>
<path d="M150.119 10.4705C146.178 6.84397 135.996 2.24883 124.17 0.604492C120.566 11.6869 118.584 23.3324 118.314 34.9779C120.296 38.2441 136.469 64.3508 151.268 64.2156C151.268 64.2382 161.855 21.215 150.119 10.4705Z" fill="#141B21"/>
<path d="M83.6026 93.7011C96.6401 93.7011 107.209 83.1321 107.209 70.0947C107.209 57.0572 96.6401 46.4883 83.6026 46.4883C70.5652 46.4883 59.9962 57.0572 59.9962 70.0947C59.9962 83.1321 70.5652 93.7011 83.6026 93.7011Z" fill="#D5D3EA"/>
<path d="M135.343 96.2467C148.38 96.2467 158.949 85.6778 158.949 72.6403C158.949 59.6029 148.38 49.0339 135.343 49.0339C122.305 49.0339 111.737 59.6029 111.737 72.6403C111.737 85.6778 122.305 96.2467 135.343 96.2467Z" fill="#D5D3EA"/>
<path d="M116.489 69.802C115.115 67.7973 112.3 66.7611 109.98 66.5809C107.795 66.4233 104.844 66.9864 103.38 68.7434C102.772 69.4642 103.335 70.6355 104.326 70.3877C106.128 69.9147 107.66 69.3065 109.574 69.5768C110.385 69.6894 111.241 69.9147 112.007 70.2525C112.93 70.6805 113.584 71.3563 114.417 71.8744C115.656 72.6853 117.345 71.0635 116.489 69.802Z" fill="#454C52"/>
<path d="M70.7189 240.633C70.7189 240.633 68.7592 220.451 78.8505 212.882C78.8505 212.882 100.925 199.84 111.737 206.598C111.737 206.598 90.2032 236.556 70.7189 240.633Z" fill="#8889C2"/>
<path d="M105.092 205.426C105.092 205.426 66.5736 226.217 70.7183 240.633C74.8629 255.049 114.462 229.754 118.314 222.658C122.166 215.563 116.152 203.241 105.092 205.426Z" fill="#3E426D"/>
<path d="M165.684 240.633C165.684 240.633 167.644 220.45 157.553 212.882C157.553 212.882 135.478 199.84 124.666 206.597C124.666 206.597 146.2 236.556 165.684 240.633Z" fill="#8889C2"/>
<path d="M131.311 205.426C131.311 205.426 169.829 226.217 165.684 240.633C161.54 255.049 121.94 229.754 118.089 222.658C114.237 215.563 120.229 203.241 131.311 205.426Z" fill="#3E426D"/>
</g>
<defs>
<filter id="filter0_d" x="0.947041" y="0" width="210.944" height="251.106" filterUnits="userSpaceOnUse" color-interpolation-filters="sRGB">
<feFlood flood-opacity="0" result="BackgroundImageFix"/>
<feColorMatrix in="SourceAlpha" type="matrix" values="0 0 0 0 0 0 0 0 0 0 0 0 0 0 0 0 0 0 127 0"/>
<feOffset dy="3.05296"/>
<feGaussianBlur stdDeviation="1.52648"/>
<feColorMatrix type="matrix" values="0 0 0 0 0 0 0 0 0 0 0 0 0 0 0 0 0 0 0.25 0"/>
<feBlend mode="normal" in2="BackgroundImageFix" result="effect1_dropShadow"/>
<feBlend mode="normal" in="SourceGraphic" in2="effect1_dropShadow" result="shape"/>
</filter>
</defs>
</svg>
