<svg width="314" height="178" viewBox="0 0 314 178" fill="none" xmlns="http://www.w3.org/2000/svg">
<path d="M166.314 153.952C164.562 153.952 163.146 155.368 163.146 157.12V161.996C163.146 163.748 164.562 165.164 166.314 165.164H202.185V153.952H166.314Z" fill="#328DC7"/>
<path d="M163.657 163.848C164.197 164.651 165.117 165.162 166.154 165.162H184.432V163.848H163.657Z" fill="#3088BF"/>
<path d="M174.899 153.95C173.234 153.95 171.891 155.293 171.891 156.957V162.14C171.891 163.804 173.234 165.147 174.899 165.147H210.915V153.935H174.899V153.95Z" fill="#4AA7E2"/>
<path d="M172.402 163.848C172.942 164.651 173.862 165.162 174.899 165.162H184.446V163.848H172.402Z" fill="#328DC7"/>
<path d="M215.339 154.928H176.3V164.169H215.339V154.928Z" fill="#A3A3A3"/>
<path d="M215.324 155.643H177.278V156.826H215.324V155.643Z" fill="#A3A3A3"/>
<path d="M215.324 162.228H177.278V163.41H215.324V162.228Z" fill="#A3A3A3"/>
<path d="M215.324 160.899H177.278V161.541H215.324V160.899Z" fill="#C6C6C6"/>
<path d="M215.324 159.556H177.278V160.198H215.324V159.556Z" fill="#C6C6C6"/>
<path d="M215.324 158.213H177.278V158.855H215.324V158.213Z" fill="#C6C6C6"/>
<path d="M215.324 157.205H177.278V157.848H215.324V157.205Z" fill="#C6C6C6"/>
<path d="M216.828 165.162H178.651C176.811 165.162 175.307 163.658 175.307 161.819V157.278C175.307 155.439 176.811 153.935 178.651 153.935H216.842V155.906H178.651C177.891 155.906 177.278 156.519 177.278 157.278V161.819C177.278 162.578 177.891 163.191 178.651 163.191H216.842V165.162H216.828Z" fill="#3088BF"/>
<path d="M173.731 162.811C174.416 162.811 174.972 161.471 174.972 159.819C174.972 158.166 174.416 156.826 173.731 156.826C173.045 156.826 172.49 158.166 172.49 159.819C172.49 161.471 173.045 162.811 173.731 162.811Z" fill="#328DC7"/>
<path d="M101.961 153.952C100.209 153.952 98.7929 155.368 98.7929 157.12V161.996C98.7929 163.748 100.209 165.164 101.961 165.164H137.831V153.952H101.961Z" fill="#328DC7"/>
<path d="M99.3039 163.848C99.844 164.651 100.764 165.162 101.8 165.162H120.079V163.848H99.3039Z" fill="#3088BF"/>
<path d="M110.545 153.95C108.881 153.95 107.538 155.293 107.538 156.957V162.14C107.538 163.804 108.881 165.148 110.545 165.148H146.561V153.935H110.545V153.95Z" fill="#4AA7E2"/>
<path d="M108.049 163.848C108.589 164.651 109.509 165.162 110.545 165.162H120.093V163.848H108.049Z" fill="#328DC7"/>
<path d="M150.985 154.928H111.947V164.169H150.985V154.928Z" fill="#A3A3A3"/>
<path d="M150.971 155.644H112.925V156.826H150.971V155.644Z" fill="#A3A3A3"/>
<path d="M150.971 162.228H112.925V163.41H150.971V162.228Z" fill="#A3A3A3"/>
<path d="M150.971 160.899H112.925V161.542H150.971V160.899Z" fill="#C6C6C6"/>
<path d="M150.971 159.556H112.925V160.199H150.971V159.556Z" fill="#C6C6C6"/>
<path d="M150.971 158.213H112.925V158.855H150.971V158.213Z" fill="#C6C6C6"/>
<path d="M150.971 157.206H112.925V157.848H150.971V157.206Z" fill="#C6C6C6"/>
<path d="M152.474 165.162H114.297C112.458 165.162 110.954 163.658 110.954 161.819V157.279C110.954 155.439 112.458 153.935 114.297 153.935H152.489V155.906H114.297C113.538 155.906 112.925 156.519 112.925 157.279V161.819C112.925 162.578 113.538 163.191 114.297 163.191H152.489V165.162H152.474Z" fill="#3088BF"/>
<path d="M109.377 162.812C110.063 162.812 110.618 161.472 110.618 159.819C110.618 158.166 110.063 156.826 109.377 156.826C108.692 156.826 108.136 158.166 108.136 159.819C108.136 161.472 108.692 162.812 109.377 162.812Z" fill="#328DC7"/>
<path d="M88.2669 142.754C86.515 142.754 85.0988 144.17 85.0988 145.922V150.798C85.0988 152.55 86.515 153.966 88.2669 153.966H124.137V142.754H88.2669Z" fill="#328DC7"/>
<path d="M85.6242 152.65C86.1644 153.453 87.0842 153.964 88.1207 153.964H106.384V152.65H85.6242Z" fill="#3088BF"/>
<path d="M96.8511 142.752C95.1868 142.752 93.8436 144.095 93.8436 145.76V150.942C93.8436 152.607 95.1868 153.95 96.8511 153.95H132.867V142.738H96.8511V142.752Z" fill="#4AA7E2"/>
<path d="M94.3547 152.65C94.8949 153.453 95.8146 153.964 96.8512 153.964H106.384V152.65H94.3547Z" fill="#328DC7"/>
<path d="M137.291 143.745H98.2527V152.986H137.291V143.745Z" fill="#A3A3A3"/>
<path d="M137.291 144.446H99.2454V145.628H137.291V144.446Z" fill="#A3A3A3"/>
<path d="M137.291 151.044H99.2454V152.227H137.291V151.044Z" fill="#A3A3A3"/>
<path d="M137.291 149.701H99.2454V150.344H137.291V149.701Z" fill="#C6C6C6"/>
<path d="M137.291 148.358H99.2454V149.001H137.291V148.358Z" fill="#C6C6C6"/>
<path d="M137.291 147.03H99.2454V147.672H137.291V147.03Z" fill="#C6C6C6"/>
<path d="M137.291 146.008H99.2454V146.65H137.291V146.008Z" fill="#C6C6C6"/>
<path d="M138.795 153.964H100.603C98.7635 153.964 97.2598 152.461 97.2598 150.621V146.095C97.2598 144.256 98.7635 142.752 100.603 142.752H138.795V144.723H100.603C99.8439 144.723 99.2307 145.336 99.2307 146.095V150.636C99.2307 151.395 99.8439 152.008 100.603 152.008H138.795V153.964Z" fill="#3088BF"/>
<path d="M95.6979 151.629C96.3832 151.629 96.9388 150.289 96.9388 148.636C96.9388 146.983 96.3832 145.643 95.6979 145.643C95.0125 145.643 94.4569 146.983 94.4569 148.636C94.4569 150.289 95.0125 151.629 95.6979 151.629Z" fill="#328DC7"/>
<path d="M79.4344 131.775C77.6825 131.775 76.2664 133.192 76.2664 134.943V139.82C76.2664 141.571 77.6825 142.988 79.4344 142.988H115.29V131.775H79.4344Z" fill="#328DC7"/>
<path d="M76.7772 141.672C77.3173 142.475 78.2371 142.986 79.2736 142.986H97.5518V141.672H76.7772Z" fill="#3088BF"/>
<path d="M88.0186 131.774C86.3543 131.774 85.0112 133.117 85.0112 134.781V139.964C85.0112 141.628 86.3543 142.971 88.0186 142.971H124.035V131.759H88.0186V131.774Z" fill="#4AA7E2"/>
<path d="M85.5221 141.672C86.0622 142.475 86.982 142.986 88.0185 142.986H97.5664V141.672H85.5221Z" fill="#328DC7"/>
<path d="M128.459 132.766H89.4202V142.008H128.459V132.766Z" fill="#A3A3A3"/>
<path d="M128.444 133.467H90.3983V134.65H128.444V133.467Z" fill="#A3A3A3"/>
<path d="M128.444 140.066H90.3983V141.248H128.444V140.066Z" fill="#A3A3A3"/>
<path d="M128.444 138.723H90.3983V139.365H128.444V138.723Z" fill="#C6C6C6"/>
<path d="M128.444 137.38H90.3983V138.022H128.444V137.38Z" fill="#C6C6C6"/>
<path d="M128.444 136.037H90.3983V136.679H128.444V136.037Z" fill="#C6C6C6"/>
<path d="M128.444 135.029H90.3983V135.672H128.444V135.029Z" fill="#C6C6C6"/>
<path d="M129.948 142.986H91.7708C89.9313 142.986 88.4276 141.482 88.4276 139.643V135.102C88.4276 133.263 89.9313 131.759 91.7708 131.759H129.962V133.73H91.7708C91.0116 133.73 90.3984 134.343 90.3984 135.102V139.643C90.3984 140.402 91.0116 141.015 91.7708 141.015H129.962V142.986H129.948Z" fill="#3088BF"/>
<path d="M86.8508 140.65C87.5361 140.65 88.0917 139.31 88.0917 137.657C88.0917 136.004 87.5361 134.664 86.8508 134.664C86.1654 134.664 85.6098 136.004 85.6098 137.657C85.6098 139.31 86.1654 140.65 86.8508 140.65Z" fill="#328DC7"/>
<path d="M10.9496 153.952C9.19765 153.952 7.78152 155.368 7.78152 157.12V161.996C7.78152 163.748 9.19765 165.164 10.9496 165.164H46.8198V153.952H10.9496Z" fill="#328DC7"/>
<path d="M8.307 163.848C8.84717 164.651 9.76692 165.162 10.8035 165.162H29.0817V163.848H8.307Z" fill="#3088BF"/>
<path d="M59.9738 154.928H20.9354V164.169H59.9738V154.928Z" fill="#A3A3A3"/>
<path d="M59.9737 155.644H21.9281V156.826H59.9737V155.644Z" fill="#A3A3A3"/>
<path d="M59.9737 162.228H21.9281V163.41H59.9737V162.228Z" fill="#A3A3A3"/>
<path d="M59.9737 160.899H21.9281V161.542H59.9737V160.899Z" fill="#C6C6C6"/>
<path d="M59.9737 159.556H21.9281V160.199H59.9737V159.556Z" fill="#C6C6C6"/>
<path d="M59.9737 158.213H21.9281V158.855H59.9737V158.213Z" fill="#C6C6C6"/>
<path d="M59.9737 157.206H21.9281V157.848H59.9737V157.206Z" fill="#C6C6C6"/>
<path d="M61.4773 165.162H23.2858C21.4463 165.162 19.9426 163.658 19.9426 161.819V157.279C19.9426 155.439 21.4463 153.935 23.2858 153.935H61.4773V155.906H23.2858C22.5266 155.906 21.9135 156.519 21.9135 157.279V161.819C21.9135 162.578 22.5266 163.191 23.2858 163.191H61.4773V165.162Z" fill="#3088BF"/>
<path d="M3.16803 142.754C1.41612 142.754 0 144.17 0 145.922V150.798C0 152.55 1.41612 153.966 3.16803 153.966H39.0383V142.754H3.16803Z" fill="#328DC7"/>
<path d="M0.510872 152.65C1.05104 153.453 1.97079 153.964 3.00734 153.964H21.2856V152.65H0.510872Z" fill="#3088BF"/>
<path d="M52.1921 143.745H13.1538V152.986H52.1921V143.745Z" fill="#A3A3A3"/>
<path d="M52.1776 144.446H14.132V145.628H52.1776V144.446Z" fill="#A3A3A3"/>
<path d="M52.1776 151.045H14.132V152.227H52.1776V151.045Z" fill="#A3A3A3"/>
<path d="M52.1776 149.701H14.132V150.344H52.1776V149.701Z" fill="#C6C6C6"/>
<path d="M52.1776 148.358H14.132V149.001H52.1776V148.358Z" fill="#C6C6C6"/>
<path d="M52.1776 147.03H14.132V147.672H52.1776V147.03Z" fill="#C6C6C6"/>
<path d="M52.1776 146.008H14.132V146.65H52.1776V146.008Z" fill="#C6C6C6"/>
<path d="M53.6813 153.964H15.5043C13.6648 153.964 12.1611 152.461 12.1611 150.621V146.095C12.1611 144.256 13.6648 142.752 15.5043 142.752H53.6813V144.723H15.5043C14.7451 144.723 14.132 145.336 14.132 146.095V150.636C14.132 151.395 14.7451 152.008 15.5043 152.008H53.6813V153.964Z" fill="#3088BF"/>
<path d="M10.4969 131.775C8.74497 131.775 7.32884 133.192 7.32884 134.943V139.82C7.32884 141.571 8.74497 142.988 10.4969 142.988H46.3672V131.775H10.4969Z" fill="#328DC7"/>
<path d="M7.83971 141.672C8.37988 142.475 9.29963 142.986 10.3362 142.986H28.6144V141.672H7.83971Z" fill="#3088BF"/>
<path d="M59.5209 132.766H20.4826V142.008H59.5209V132.766Z" fill="#A3A3A3"/>
<path d="M59.5064 133.467H21.4608V134.65H59.5064V133.467Z" fill="#A3A3A3"/>
<path d="M59.5064 140.066H21.4608V141.248H59.5064V140.066Z" fill="#A3A3A3"/>
<path d="M59.5064 138.723H21.4608V139.365H59.5064V138.723Z" fill="#C6C6C6"/>
<path d="M59.5064 137.38H21.4608V138.022H59.5064V137.38Z" fill="#C6C6C6"/>
<path d="M59.5064 136.037H21.4608V136.679H59.5064V136.037Z" fill="#C6C6C6"/>
<path d="M59.5064 135.029H21.4608V135.672H59.5064V135.029Z" fill="#C6C6C6"/>
<path d="M61.0099 142.986H22.8329C20.9934 142.986 19.4897 141.482 19.4897 139.643V135.102C19.4897 133.263 20.9934 131.759 22.8329 131.759H61.0245V133.73H22.8329C22.0738 133.73 21.4606 134.343 21.4606 135.102V139.643C21.4606 140.402 22.0738 141.015 22.8329 141.015H61.0245V142.986H61.0099Z" fill="#3088BF"/>
<path d="M19.928 121.833C18.1761 121.833 16.76 123.249 16.76 125.001V129.877C16.76 131.629 18.1761 133.045 19.928 133.045H55.7983V121.833H19.928Z" fill="#328DC7"/>
<path d="M17.2854 131.73C17.8256 132.533 18.7453 133.044 19.7819 133.044H38.0601V131.73H17.2854Z" fill="#3088BF"/>
<path d="M28.5122 121.832C26.8479 121.832 25.5048 123.175 25.5048 124.839V130.022C25.5048 131.686 26.8479 133.029 28.5122 133.029H64.5285V121.817H28.5122V121.832Z" fill="#4AA7E2"/>
<path d="M26.0157 131.73C26.5558 132.533 27.4756 133.044 28.5121 133.044H38.06V131.73H26.0157Z" fill="#328DC7"/>
<path d="M68.9521 122.81H29.9138V132.051H68.9521V122.81Z" fill="#A3A3A3"/>
<path d="M68.9521 123.525H30.9065V124.708H68.9521V123.525Z" fill="#A3A3A3"/>
<path d="M68.9521 130.109H30.9065V131.292H68.9521V130.109Z" fill="#A3A3A3"/>
<path d="M68.9521 128.781H30.9065V129.423H68.9521V128.781Z" fill="#C6C6C6"/>
<path d="M68.9521 127.438H30.9065V128.08H68.9521V127.438Z" fill="#C6C6C6"/>
<path d="M68.9521 126.094H30.9065V126.737H68.9521V126.094Z" fill="#C6C6C6"/>
<path d="M68.9521 125.087H30.9065V125.73H68.9521V125.087Z" fill="#C6C6C6"/>
<path d="M70.4559 133.044H32.2644C30.4249 133.044 28.9212 131.54 28.9212 129.7V125.16C28.9212 123.321 30.4249 121.817 32.2644 121.817H70.4559V123.788H32.2644C31.5052 123.788 30.8921 124.401 30.8921 125.16V129.7C30.8921 130.46 31.5052 131.073 32.2644 131.073H70.4559V133.044Z" fill="#3088BF"/>
<path d="M27.359 130.693C28.0444 130.693 28.6 129.353 28.6 127.7C28.6 126.047 28.0444 124.708 27.359 124.708C26.6737 124.708 26.1181 126.047 26.1181 127.7C26.1181 129.353 26.6737 130.693 27.359 130.693Z" fill="#328DC7"/>
<path d="M12.1321 110.65C10.3802 110.65 8.96412 112.066 8.96412 113.818V118.694C8.96412 120.446 10.3802 121.862 12.1321 121.862H48.0024V110.65H12.1321Z" fill="#328DC7"/>
<path d="M9.48968 120.532C10.0299 121.335 10.9496 121.846 11.9861 121.846H30.2644V120.532H9.48968Z" fill="#3088BF"/>
<path d="M61.1562 111.626H22.1179V120.868H61.1562V111.626Z" fill="#A3A3A3"/>
<path d="M61.1564 112.342H23.1108V113.524H61.1564V112.342Z" fill="#A3A3A3"/>
<path d="M61.1564 118.926H23.1108V120.109H61.1564V118.926Z" fill="#A3A3A3"/>
<path d="M61.1564 117.583H23.1108V118.225H61.1564V117.583Z" fill="#C6C6C6"/>
<path d="M61.1564 116.254H23.1108V116.897H61.1564V116.254Z" fill="#C6C6C6"/>
<path d="M61.1564 114.911H23.1108V115.554H61.1564V114.911Z" fill="#C6C6C6"/>
<path d="M61.1564 113.889H23.1108V114.532H61.1564V113.889Z" fill="#C6C6C6"/>
<path d="M62.66 121.861H24.4831C22.6436 121.861 21.1399 120.357 21.1399 118.517V113.977C21.1399 112.138 22.6436 110.634 24.4831 110.634H62.6747V112.605H24.4831C23.7239 112.605 23.1108 113.218 23.1108 113.977V118.517C23.1108 119.277 23.7239 119.89 24.4831 119.89H62.6747V121.861H62.66Z" fill="#3088BF"/>
<path d="M19.4609 99.657C17.7089 99.657 16.2928 101.073 16.2928 102.825V107.701C16.2928 109.453 17.7089 110.869 19.4609 110.869H55.3311V99.657H19.4609Z" fill="#328DC7"/>
<path d="M16.8183 109.553C17.3585 110.356 18.2782 110.867 19.3148 110.867H37.593V109.553H16.8183Z" fill="#3088BF"/>
<path d="M68.4851 100.648H29.4468V109.889H68.4851V100.648Z" fill="#A3A3A3"/>
<path d="M68.485 101.349H30.4394V102.531H68.485V101.349Z" fill="#A3A3A3"/>
<path d="M68.485 107.948H30.4394V109.13H68.485V107.948Z" fill="#A3A3A3"/>
<path d="M68.485 106.604H30.4394V107.247H68.485V106.604Z" fill="#C6C6C6"/>
<path d="M68.485 105.261H30.4394V105.904H68.485V105.261Z" fill="#C6C6C6"/>
<path d="M68.485 103.918H30.4394V104.561H68.485V103.918Z" fill="#C6C6C6"/>
<path d="M68.485 102.911H30.4394V103.553H68.485V102.911Z" fill="#C6C6C6"/>
<path d="M69.9889 110.867H31.8119C29.9724 110.867 28.4687 109.364 28.4687 107.524V102.984C28.4687 101.144 29.9724 99.6406 31.8119 99.6406H70.0035V101.612H31.8119C31.0528 101.612 30.4396 102.225 30.4396 102.984V107.524C30.4396 108.283 31.0528 108.897 31.8119 108.897H70.0035V110.867H69.9889Z" fill="#3088BF"/>
<path d="M40.1916 89.2332C38.4396 89.2332 37.0235 90.6493 37.0235 92.4012V97.2773C37.0235 99.0292 38.4396 100.445 40.1916 100.445H76.0618V89.2332H40.1916Z" fill="#328DC7"/>
<path d="M37.5492 99.1296C38.0894 99.9326 39.0091 100.444 40.0457 100.444H58.3239V99.1296H37.5492Z" fill="#3088BF"/>
<path d="M46.2797 99.1296C46.8199 99.9326 47.7396 100.444 48.7762 100.444H58.324V99.1296H46.2797Z" fill="#328DC7"/>
<path d="M89.216 90.2241H50.1777V99.4654H89.216V90.2241Z" fill="#A3A3A3"/>
<path d="M89.2159 90.9248H51.1703V92.1073H89.2159V90.9248Z" fill="#A3A3A3"/>
<path d="M89.2159 97.5237H51.1703V98.7062H89.2159V97.5237Z" fill="#A3A3A3"/>
<path d="M89.2159 96.1807H51.1703V96.823H89.2159V96.1807Z" fill="#C6C6C6"/>
<path d="M89.2159 94.8374H51.1703V95.4798H89.2159V94.8374Z" fill="#C6C6C6"/>
<path d="M89.2159 93.509H51.1703V94.1514H89.2159V93.509Z" fill="#C6C6C6"/>
<path d="M89.2159 92.4871H51.1703V93.1294H89.2159V92.4871Z" fill="#C6C6C6"/>
<path d="M90.7196 100.444H52.528C50.6885 100.444 49.1848 98.9399 49.1848 97.1004V92.56C49.1848 90.7205 50.6885 89.2168 52.528 89.2168H90.7196V91.1877H52.528C51.7688 91.1877 51.1557 91.8009 51.1557 92.56V97.1004C51.1557 97.8595 51.7688 98.4727 52.528 98.4727H90.7196V100.444Z" fill="#3088BF"/>
<path d="M32.3957 78.05C30.6438 78.05 29.2277 79.4662 29.2277 81.2181V86.0942C29.2277 87.8461 30.6438 89.2622 32.3957 89.2622H68.266V78.05H32.3957Z" fill="#328DC7"/>
<path d="M29.7533 87.9465C30.2934 88.7495 31.2132 89.2605 32.2497 89.2605H50.5279V87.9465H29.7533Z" fill="#3088BF"/>
<path d="M81.42 79.0264H42.3817V88.2677H81.42V79.0264Z" fill="#A3A3A3"/>
<path d="M81.4199 79.7419H43.3744V80.9245H81.4199V79.7419Z" fill="#A3A3A3"/>
<path d="M81.4199 86.3262H43.3744V87.5087H81.4199V86.3262Z" fill="#A3A3A3"/>
<path d="M81.4199 84.9976H43.3744V85.6399H81.4199V84.9976Z" fill="#C6C6C6"/>
<path d="M81.4199 83.6543H43.3744V84.2966H81.4199V83.6543Z" fill="#C6C6C6"/>
<path d="M81.4199 82.3113H43.3744V82.9536H81.4199V82.3113Z" fill="#C6C6C6"/>
<path d="M81.4199 81.304H43.3744V81.9463H81.4199V81.304Z" fill="#C6C6C6"/>
<path d="M82.9236 89.2605H44.732C42.8925 89.2605 41.3888 87.7568 41.3888 85.9173V81.3769C41.3888 79.5374 42.8925 78.0337 44.732 78.0337H82.9236V80.0046H44.732C43.9729 80.0046 43.3597 80.6177 43.3597 81.3769V85.9173C43.3597 86.6764 43.9729 87.2896 44.732 87.2896H82.9236V89.2605Z" fill="#3088BF"/>
<path d="M39.7246 67.0713C37.9726 67.0713 36.5565 68.4874 36.5565 70.2393V75.1155C36.5565 76.8674 37.9726 78.2835 39.7246 78.2835H75.5948V67.0713H39.7246Z" fill="#328DC7"/>
<path d="M37.0819 76.9534C37.6221 77.7563 38.5418 78.2673 39.5784 78.2673H57.8566V76.9534H37.0819Z" fill="#3088BF"/>
<path d="M88.7487 68.0479H49.7103V77.2891H88.7487V68.0479Z" fill="#A3A3A3"/>
<path d="M88.7486 68.7632H50.703V69.9457H88.7486V68.7632Z" fill="#A3A3A3"/>
<path d="M88.7486 75.3474H50.703V76.5299H88.7486V75.3474Z" fill="#A3A3A3"/>
<path d="M88.7486 74.0044H50.703V74.6468H88.7486V74.0044Z" fill="#C6C6C6"/>
<path d="M88.7486 72.6758H50.703V73.3182H88.7486V72.6758Z" fill="#C6C6C6"/>
<path d="M88.7486 71.3328H50.703V71.9751H88.7486V71.3328Z" fill="#C6C6C6"/>
<path d="M88.7486 70.3108H50.703V70.9532H88.7486V70.3108Z" fill="#C6C6C6"/>
<path d="M90.2524 78.282H52.0609C50.2214 78.282 48.7177 76.7783 48.7177 74.9388V70.3984C48.7177 68.5589 50.2214 67.0552 52.0609 67.0552H90.2524V69.0261H52.0609C51.3017 69.0261 50.6886 69.6392 50.6886 70.3984V74.9388C50.6886 75.6979 51.3017 76.3111 52.0609 76.3111H90.2524V78.282Z" fill="#3088BF"/>
<path d="M34.6439 56.0054C32.892 56.0054 31.4758 57.4215 31.4758 59.1734V64.0495C31.4758 65.8014 32.892 67.2176 34.6439 67.2176H70.5141V56.0054H34.6439Z" fill="#328DC7"/>
<path d="M31.987 65.8872C32.5271 66.6902 33.4469 67.2011 34.4834 67.2011H52.7616V65.8872H31.987Z" fill="#3088BF"/>
<path d="M83.6681 56.9817H44.6298V66.223H83.6681V56.9817Z" fill="#A3A3A3"/>
<path d="M83.6681 57.697H45.6225V58.8796H83.6681V57.697Z" fill="#A3A3A3"/>
<path d="M83.6681 64.2812H45.6225V65.4638H83.6681V64.2812Z" fill="#A3A3A3"/>
<path d="M83.6681 62.9382H45.6225V63.5806H83.6681V62.9382Z" fill="#C6C6C6"/>
<path d="M83.6681 61.6096H45.6225V62.252H83.6681V61.6096Z" fill="#C6C6C6"/>
<path d="M83.6681 60.2666H45.6225V60.909H83.6681V60.2666Z" fill="#C6C6C6"/>
<path d="M83.6681 59.2446H45.6225V59.887H83.6681V59.2446Z" fill="#C6C6C6"/>
<path d="M85.1571 67.2158H46.9802C45.1407 67.2158 43.637 65.7121 43.637 63.8726V59.3322C43.637 57.4927 45.1407 55.989 46.9802 55.989H85.1717V57.9599H46.9802C46.221 57.9599 45.6078 58.5731 45.6078 59.3322V63.8726C45.6078 64.6318 46.221 65.2449 46.9802 65.2449H85.1717V67.2158H85.1571Z" fill="#3088BF"/>
<path d="M183.322 119.059C181.57 119.059 180.154 120.475 180.154 122.227V127.103C180.154 128.855 181.57 130.272 183.322 130.272H219.192V119.059H183.322Z" fill="#328DC7"/>
<path d="M180.68 128.956C181.22 129.759 182.14 130.27 183.176 130.27H201.455V128.956H180.68Z" fill="#3088BF"/>
<path d="M191.907 119.058C190.242 119.058 188.899 120.401 188.899 122.065V127.248C188.899 128.912 190.242 130.255 191.907 130.255H227.923V119.043H191.907V119.058Z" fill="#4AA7E2"/>
<path d="M189.41 128.956C189.95 129.759 190.87 130.27 191.907 130.27H201.455V128.956H189.41Z" fill="#328DC7"/>
<path d="M232.347 120.036H193.308V129.277H232.347V120.036Z" fill="#A3A3A3"/>
<path d="M232.346 120.751H194.301V121.934H232.346V120.751Z" fill="#A3A3A3"/>
<path d="M232.346 127.35H194.301V128.532H232.346V127.35Z" fill="#A3A3A3"/>
<path d="M232.346 126.007H194.301V126.649H232.346V126.007Z" fill="#C6C6C6"/>
<path d="M232.346 124.664H194.301V125.306H232.346V124.664Z" fill="#C6C6C6"/>
<path d="M232.346 123.321H194.301V123.963H232.346V123.321Z" fill="#C6C6C6"/>
<path d="M232.346 122.313H194.301V122.956H232.346V122.313Z" fill="#C6C6C6"/>
<path d="M233.85 130.27H195.659C193.819 130.27 192.315 128.766 192.315 126.927V122.386C192.315 120.547 193.819 119.043 195.659 119.043H233.85V121.014H195.659C194.899 121.014 194.286 121.627 194.286 122.386V126.927C194.286 127.686 194.899 128.299 195.659 128.299H233.85V130.27Z" fill="#3088BF"/>
<path d="M190.753 127.934C191.439 127.934 191.994 126.594 191.994 124.941C191.994 123.288 191.439 121.948 190.753 121.948C190.068 121.948 189.512 123.288 189.512 124.941C189.512 126.594 190.068 127.934 190.753 127.934Z" fill="#328DC7"/>
<path d="M175.526 107.876C173.774 107.876 172.358 109.292 172.358 111.044V115.92C172.358 117.672 173.774 119.088 175.526 119.088H211.397V107.876H175.526Z" fill="#328DC7"/>
<path d="M172.884 117.758C173.424 118.561 174.344 119.072 175.38 119.072H193.659V117.758H172.884Z" fill="#3088BF"/>
<path d="M184.111 107.874C182.447 107.874 181.103 109.218 181.103 110.882V116.065C181.103 117.729 182.447 119.072 184.111 119.072H220.127V107.86H184.111V107.874Z" fill="#4AA7E2"/>
<path d="M181.629 117.758C182.169 118.561 183.089 119.072 184.125 119.072H193.673V117.758H181.629Z" fill="#328DC7"/>
<path d="M224.551 108.853H185.512V118.094H224.551V108.853Z" fill="#A3A3A3"/>
<path d="M224.551 109.568H186.505V110.75H224.551V109.568Z" fill="#A3A3A3"/>
<path d="M224.551 116.152H186.505V117.335H224.551V116.152Z" fill="#A3A3A3"/>
<path d="M224.551 114.809H186.505V115.451H224.551V114.809Z" fill="#C6C6C6"/>
<path d="M224.551 113.48H186.505V114.123H224.551V113.48Z" fill="#C6C6C6"/>
<path d="M224.551 112.137H186.505V112.78H224.551V112.137Z" fill="#C6C6C6"/>
<path d="M224.551 111.115H186.505V111.758H224.551V111.115Z" fill="#C6C6C6"/>
<path d="M226.054 119.087H187.863C186.023 119.087 184.52 117.583 184.52 115.743V111.203C184.52 109.364 186.023 107.86 187.863 107.86H226.054V109.831H187.863C187.104 109.831 186.49 110.444 186.49 111.203V115.743C186.49 116.503 187.104 117.116 187.863 117.116H226.054V119.087Z" fill="#3088BF"/>
<path d="M182.957 116.736C183.643 116.736 184.198 115.396 184.198 113.743C184.198 112.09 183.643 110.75 182.957 110.75C182.272 110.75 181.716 112.09 181.716 113.743C181.716 115.396 182.272 116.736 182.957 116.736Z" fill="#328DC7"/>
<path d="M182.855 96.8831C181.103 96.8831 179.687 98.2992 179.687 100.051V104.927C179.687 106.679 181.103 108.095 182.855 108.095H218.725V96.8831H182.855Z" fill="#328DC7"/>
<path d="M180.213 106.78C180.753 107.582 181.673 108.093 182.709 108.093H200.988V106.78H180.213Z" fill="#3088BF"/>
<path d="M191.44 96.8813C189.775 96.8813 188.432 98.2244 188.432 99.8887V105.071C188.432 106.736 189.775 108.079 191.44 108.079H227.456V96.8667H191.44V96.8813Z" fill="#4AA7E2"/>
<path d="M188.958 106.78C189.498 107.582 190.418 108.093 191.454 108.093H201.002V106.78H188.958Z" fill="#328DC7"/>
<path d="M231.879 97.874H192.841V107.115H231.879V97.874Z" fill="#A3A3A3"/>
<path d="M231.879 98.5747H193.834V99.7572H231.879V98.5747Z" fill="#A3A3A3"/>
<path d="M231.879 105.174H193.834V106.356H231.879V105.174Z" fill="#A3A3A3"/>
<path d="M231.879 103.831H193.834V104.473H231.879V103.831Z" fill="#C6C6C6"/>
<path d="M231.879 102.487H193.834V103.13H231.879V102.487Z" fill="#C6C6C6"/>
<path d="M231.879 101.159H193.834V101.801H231.879V101.159Z" fill="#C6C6C6"/>
<path d="M231.879 100.137H193.834V100.779H231.879V100.137Z" fill="#C6C6C6"/>
<path d="M233.383 108.093H195.192C193.352 108.093 191.848 106.59 191.848 104.75V100.21C191.848 98.3704 193.352 96.8667 195.192 96.8667H233.383V98.8376H195.192C194.433 98.8376 193.819 99.4507 193.819 100.21V104.75C193.819 105.509 194.433 106.123 195.192 106.123H233.383V108.093Z" fill="#3088BF"/>
<path d="M190.286 105.758C190.972 105.758 191.527 104.418 191.527 102.765C191.527 101.112 190.972 99.772 190.286 99.772C189.601 99.772 189.045 101.112 189.045 102.765C189.045 104.418 189.601 105.758 190.286 105.758Z" fill="#328DC7"/>
<path d="M177.775 85.8167C176.023 85.8167 174.607 87.2328 174.607 88.9847V93.8608C174.607 95.6127 176.023 97.0289 177.775 97.0289H213.645V85.8167H177.775Z" fill="#328DC7"/>
<path d="M175.132 95.7134C175.672 96.5163 176.592 97.0273 177.629 97.0273H195.907V95.7134H175.132Z" fill="#3088BF"/>
<path d="M186.359 85.8151C184.695 85.8151 183.352 87.1583 183.352 88.8226V94.0053C183.352 95.6696 184.695 97.0127 186.359 97.0127H222.375V85.8005H186.359V85.8151Z" fill="#4AA7E2"/>
<path d="M183.863 95.7134C184.403 96.5163 185.323 97.0273 186.359 97.0273H195.907V95.7134H183.863Z" fill="#328DC7"/>
<path d="M226.799 86.8079H187.76V96.0492H226.799V86.8079Z" fill="#A3A3A3"/>
<path d="M226.799 87.5085H188.753V88.6911H226.799V87.5085Z" fill="#A3A3A3"/>
<path d="M226.799 94.1074H188.753V95.29H226.799V94.1074Z" fill="#A3A3A3"/>
<path d="M226.799 92.7644H188.753V93.4068H226.799V92.7644Z" fill="#C6C6C6"/>
<path d="M226.799 91.4211H188.753V92.0635H226.799V91.4211Z" fill="#C6C6C6"/>
<path d="M226.799 90.0928H188.753V90.7351H226.799V90.0928Z" fill="#C6C6C6"/>
<path d="M226.799 89.0708H188.753V89.7132H226.799V89.0708Z" fill="#C6C6C6"/>
<path d="M228.302 97.0274H190.111C188.271 97.0274 186.768 95.5237 186.768 93.6842V89.1584C186.768 87.3189 188.271 85.8152 190.111 85.8152H228.302V87.7861H190.111C189.352 87.7861 188.739 88.3993 188.739 89.1584V93.6988C188.739 94.4579 189.352 95.0711 190.111 95.0711H228.302V97.0274Z" fill="#3088BF"/>
<path d="M185.206 94.6915C185.891 94.6915 186.446 93.3515 186.446 91.6986C186.446 90.0458 185.891 88.7058 185.206 88.7058C184.52 88.7058 183.965 90.0458 183.965 91.6986C183.965 93.3515 184.52 94.6915 185.206 94.6915Z" fill="#328DC7"/>
<path d="M235.033 99.7153C233.281 99.7153 231.865 101.131 231.865 102.883V107.759C231.865 109.511 233.281 110.928 235.033 110.928H270.903V99.7153H235.033Z" fill="#328DC7"/>
<path d="M232.39 109.597C232.931 110.4 233.85 110.911 234.887 110.911H253.165V109.597H232.39Z" fill="#3088BF"/>
<path d="M243.617 99.7136C241.953 99.7136 240.61 101.057 240.61 102.721V107.904C240.61 109.568 241.953 110.911 243.617 110.911H279.633V99.699H243.617V99.7136Z" fill="#4AA7E2"/>
<path d="M241.121 109.597C241.661 110.4 242.581 110.911 243.617 110.911H253.165V109.597H241.121Z" fill="#328DC7"/>
<path d="M284.057 100.692H245.019V109.933H284.057V100.692Z" fill="#A3A3A3"/>
<path d="M284.057 101.407H246.011V102.59H284.057V101.407Z" fill="#A3A3A3"/>
<path d="M284.057 107.991H246.011V109.174H284.057V107.991Z" fill="#A3A3A3"/>
<path d="M284.057 106.648H246.011V107.291H284.057V106.648Z" fill="#C6C6C6"/>
<path d="M284.057 105.32H246.011V105.962H284.057V105.32Z" fill="#C6C6C6"/>
<path d="M284.057 103.977H246.011V104.619H284.057V103.977Z" fill="#C6C6C6"/>
<path d="M284.057 102.955H246.011V103.597H284.057V102.955Z" fill="#C6C6C6"/>
<path d="M285.561 110.926H247.369C245.53 110.926 244.026 109.422 244.026 107.583V103.042C244.026 101.203 245.53 99.699 247.369 99.699H285.561V101.67H247.369C246.61 101.67 245.997 102.283 245.997 103.042V107.583C245.997 108.342 246.61 108.955 247.369 108.955H285.561V110.926Z" fill="#3088BF"/>
<path d="M242.464 108.575C243.149 108.575 243.705 107.235 243.705 105.582C243.705 103.93 243.149 102.59 242.464 102.59C241.779 102.59 241.223 103.93 241.223 105.582C241.223 107.235 241.779 108.575 242.464 108.575Z" fill="#328DC7"/>
<path d="M227.237 88.5176C225.485 88.5176 224.069 89.9337 224.069 91.6856V96.5617C224.069 98.3137 225.485 99.7298 227.237 99.7298H263.107V88.5176H227.237Z" fill="#328DC7"/>
<path d="M224.594 98.4141C225.135 99.217 226.054 99.728 227.091 99.728H245.369V98.4141H224.594Z" fill="#3088BF"/>
<path d="M233.339 98.4141C233.879 99.217 234.799 99.728 235.836 99.728H245.384V98.4141H233.339Z" fill="#328DC7"/>
<path d="M276.261 89.5085H237.223V98.7498H276.261V89.5085Z" fill="#A3A3A3"/>
<path d="M276.261 90.2095H238.216V91.392H276.261V90.2095Z" fill="#A3A3A3"/>
<path d="M276.261 96.8081H238.216V97.9906H276.261V96.8081Z" fill="#A3A3A3"/>
<path d="M276.261 95.4651H238.216V96.1075H276.261V95.4651Z" fill="#C6C6C6"/>
<path d="M276.261 94.1221H238.216V94.7644H276.261V94.1221Z" fill="#C6C6C6"/>
<path d="M276.261 92.7788H238.216V93.4212H276.261V92.7788Z" fill="#C6C6C6"/>
<path d="M276.261 91.7715H238.216V92.4139H276.261V91.7715Z" fill="#C6C6C6"/>
<path d="M277.765 99.728H239.573C237.734 99.728 236.23 98.2243 236.23 96.3848V91.8444C236.23 90.0049 237.734 88.5012 239.573 88.5012H277.765V90.4721H239.573C238.814 90.4721 238.201 91.0853 238.201 91.8444V96.3848C238.201 97.144 238.814 97.7571 239.573 97.7571H277.765V99.728Z" fill="#3088BF"/>
<path d="M234.566 77.5391C232.814 77.5391 231.398 78.9552 231.398 80.7071V85.5832C231.398 87.3351 232.814 88.7513 234.566 88.7513H270.436V77.5391H234.566Z" fill="#328DC7"/>
<path d="M231.923 87.4355C232.463 88.2385 233.383 88.7495 234.419 88.7495H252.698V87.4355H231.923Z" fill="#3088BF"/>
<path d="M283.604 78.5154H244.566V87.7567H283.604V78.5154Z" fill="#A3A3A3"/>
<path d="M283.59 79.2307H245.544V80.4132H283.59V79.2307Z" fill="#A3A3A3"/>
<path d="M283.59 85.8149H245.544V86.9975H283.59V85.8149Z" fill="#A3A3A3"/>
<path d="M283.59 84.4866H245.544V85.1289H283.59V84.4866Z" fill="#C6C6C6"/>
<path d="M283.59 83.1433H245.544V83.7857H283.59V83.1433Z" fill="#C6C6C6"/>
<path d="M283.59 81.8003H245.544V82.4427H283.59V81.8003Z" fill="#C6C6C6"/>
<path d="M283.59 80.793H245.544V81.4353H283.59V80.793Z" fill="#C6C6C6"/>
<path d="M285.093 88.7495H246.902C245.062 88.7495 243.559 87.2458 243.559 85.4063V80.8659C243.559 79.0264 245.062 77.5227 246.902 77.5227H285.093V79.4936H246.902C246.143 79.4936 245.529 80.1068 245.529 80.8659V85.4063C245.529 86.1654 246.143 86.7786 246.902 86.7786H285.093V88.7495Z" fill="#3088BF"/>
<path d="M229.485 66.4727C227.733 66.4727 226.317 67.8888 226.317 69.6407V74.5168C226.317 76.2687 227.733 77.6849 229.485 77.6849H265.355V66.4727H229.485Z" fill="#328DC7"/>
<path d="M226.843 76.3694C227.383 77.1723 228.303 77.6833 229.339 77.6833H247.617V76.3694H226.843Z" fill="#3088BF"/>
<path d="M278.509 67.4492H239.471V76.6905H278.509V67.4492Z" fill="#A3A3A3"/>
<path d="M278.509 68.1646H240.464V69.3471H278.509V68.1646Z" fill="#A3A3A3"/>
<path d="M278.509 74.7488H240.464V75.9313H278.509V74.7488Z" fill="#A3A3A3"/>
<path d="M278.509 73.4204H240.464V74.0628H278.509V73.4204Z" fill="#C6C6C6"/>
<path d="M278.509 72.0771H240.464V72.7195H278.509V72.0771Z" fill="#C6C6C6"/>
<path d="M278.509 70.7341H240.464V71.3765H278.509V70.7341Z" fill="#C6C6C6"/>
<path d="M278.509 69.7268H240.464V70.3692H278.509V69.7268Z" fill="#C6C6C6"/>
<path d="M280.013 77.6833H241.822C239.982 77.6833 238.478 76.1796 238.478 74.3401V69.7998C238.478 67.9603 239.982 66.4565 241.822 66.4565H280.013V68.4274H241.822C241.062 68.4274 240.449 69.0406 240.449 69.7998V74.3401C240.449 75.0993 241.062 75.7125 241.822 75.7125H280.013V77.6833Z" fill="#3088BF"/>
<path d="M263.472 153.952C261.72 153.952 260.304 155.368 260.304 157.12V161.996C260.304 163.748 261.72 165.164 263.472 165.164H299.342V153.952H263.472Z" fill="#328DC7"/>
<path d="M260.83 163.848C261.37 164.651 262.289 165.162 263.326 165.162H281.604V163.848H260.83Z" fill="#3088BF"/>
<path d="M272.056 153.95C270.392 153.95 269.049 155.293 269.049 156.957V162.14C269.049 163.804 270.392 165.148 272.056 165.148H308.072V153.935H272.056V153.95Z" fill="#4AA7E2"/>
<path d="M269.56 163.848C270.1 164.651 271.02 165.162 272.057 165.162H281.604V163.848H269.56Z" fill="#328DC7"/>
<path d="M312.496 154.928H273.458V164.169H312.496V154.928Z" fill="#A3A3A3"/>
<path d="M312.496 155.644H274.451V156.826H312.496V155.644Z" fill="#A3A3A3"/>
<path d="M312.496 162.228H274.451V163.41H312.496V162.228Z" fill="#A3A3A3"/>
<path d="M312.496 160.899H274.451V161.542H312.496V160.899Z" fill="#C6C6C6"/>
<path d="M312.496 159.556H274.451V160.199H312.496V159.556Z" fill="#C6C6C6"/>
<path d="M312.496 158.213H274.451V158.855H312.496V158.213Z" fill="#C6C6C6"/>
<path d="M312.496 157.206H274.451V157.848H312.496V157.206Z" fill="#C6C6C6"/>
<path d="M314 165.162H275.808C273.969 165.162 272.465 163.658 272.465 161.819V157.279C272.465 155.439 273.969 153.935 275.808 153.935H314V155.906H275.808C275.049 155.906 274.436 156.519 274.436 157.279V161.819C274.436 162.578 275.049 163.191 275.808 163.191H314V165.162Z" fill="#3088BF"/>
<path d="M270.903 162.812C271.588 162.812 272.144 161.472 272.144 159.819C272.144 158.166 271.588 156.826 270.903 156.826C270.218 156.826 269.662 158.166 269.662 159.819C269.662 161.472 270.218 162.812 270.903 162.812Z" fill="#328DC7"/>
<path d="M255.676 142.754C253.924 142.754 252.508 144.17 252.508 145.922V150.798C252.508 152.55 253.924 153.966 255.676 153.966H291.546V142.754H255.676Z" fill="#328DC7"/>
<path d="M253.034 152.65C253.574 153.453 254.494 153.964 255.53 153.964H273.808V152.65H253.034Z" fill="#3088BF"/>
<path d="M264.26 142.752C262.596 142.752 261.253 144.095 261.253 145.76V150.942C261.253 152.607 262.596 153.95 264.26 153.95H300.277V142.738H264.26V142.752Z" fill="#4AA7E2"/>
<path d="M261.764 152.65C262.304 153.453 263.224 153.964 264.26 153.964H273.808V152.65H261.764Z" fill="#328DC7"/>
<path d="M304.7 143.745H265.662V152.986H304.7V143.745Z" fill="#A3A3A3"/>
<path d="M304.7 144.446H266.655V145.628H304.7V144.446Z" fill="#A3A3A3"/>
<path d="M304.7 151.044H266.655V152.227H304.7V151.044Z" fill="#A3A3A3"/>
<path d="M304.7 149.701H266.655V150.344H304.7V149.701Z" fill="#C6C6C6"/>
<path d="M304.7 148.358H266.655V149.001H304.7V148.358Z" fill="#C6C6C6"/>
<path d="M304.7 147.03H266.655V147.672H304.7V147.03Z" fill="#C6C6C6"/>
<path d="M304.7 146.008H266.655V146.65H304.7V146.008Z" fill="#C6C6C6"/>
<path d="M306.204 153.964H268.012C266.173 153.964 264.669 152.461 264.669 150.621V146.095C264.669 144.256 266.173 142.752 268.012 142.752H306.204V144.723H268.012C267.253 144.723 266.64 145.336 266.64 146.095V150.636C266.64 151.395 267.253 152.008 268.012 152.008H306.204V153.964Z" fill="#3088BF"/>
<path d="M263.107 151.629C263.792 151.629 264.348 150.289 264.348 148.636C264.348 146.983 263.792 145.643 263.107 145.643C262.422 145.643 261.866 146.983 261.866 148.636C261.866 150.289 262.422 151.629 263.107 151.629Z" fill="#328DC7"/>
<path d="M263.005 131.775C261.253 131.775 259.837 133.192 259.837 134.943V139.82C259.837 141.571 261.253 142.988 263.005 142.988H298.875V131.775H263.005Z" fill="#328DC7"/>
<path d="M260.362 141.672C260.903 142.475 261.822 142.986 262.859 142.986H281.137V141.672H260.362Z" fill="#3088BF"/>
<path d="M271.589 131.774C269.925 131.774 268.582 133.117 268.582 134.781V139.964C268.582 141.628 269.925 142.971 271.589 142.971H307.606V131.759H271.589V131.774Z" fill="#4AA7E2"/>
<path d="M269.093 141.672C269.633 142.475 270.553 142.986 271.589 142.986H281.137V141.672H269.093Z" fill="#328DC7"/>
<path d="M312.029 132.766H272.991V142.008H312.029V132.766Z" fill="#A3A3A3"/>
<path d="M312.029 133.467H273.984V134.65H312.029V133.467Z" fill="#A3A3A3"/>
<path d="M312.029 140.066H273.984V141.248H312.029V140.066Z" fill="#A3A3A3"/>
<path d="M312.029 138.723H273.984V139.365H312.029V138.723Z" fill="#C6C6C6"/>
<path d="M312.029 137.38H273.984V138.022H312.029V137.38Z" fill="#C6C6C6"/>
<path d="M312.029 136.037H273.984V136.679H312.029V136.037Z" fill="#C6C6C6"/>
<path d="M312.029 135.029H273.984V135.672H312.029V135.029Z" fill="#C6C6C6"/>
<path d="M313.533 142.986H275.341C273.502 142.986 271.998 141.482 271.998 139.643V135.102C271.998 133.263 273.502 131.759 275.341 131.759H313.533V133.73H275.341C274.582 133.73 273.969 134.343 273.969 135.102V139.643C273.969 140.402 274.582 141.015 275.341 141.015H313.533V142.986Z" fill="#3088BF"/>
<path d="M172.139 142.126C170.387 142.126 168.971 143.542 168.971 145.294V150.17C168.971 151.922 170.387 153.338 172.139 153.338H207.995V142.126H172.139Z" fill="#328DC7"/>
<path d="M169.482 152.008C170.023 152.811 170.942 153.322 171.979 153.322H190.257V152.008H169.482Z" fill="#3088BF"/>
<path d="M180.724 142.124C179.06 142.124 177.716 143.468 177.716 145.132V150.315C177.716 151.979 179.06 153.322 180.724 153.322H216.74V142.11H180.724V142.124Z" fill="#4AA7E2"/>
<path d="M178.227 152.008C178.767 152.811 179.687 153.322 180.724 153.322H190.272V152.008H178.227Z" fill="#328DC7"/>
<path d="M221.164 143.103H182.125V152.344H221.164V143.103Z" fill="#A3A3A3"/>
<path d="M221.149 143.818H183.104V145.001H221.149V143.818Z" fill="#A3A3A3"/>
<path d="M221.149 150.402H183.104V151.585H221.149V150.402Z" fill="#A3A3A3"/>
<path d="M221.149 149.059H183.104V149.701H221.149V149.059Z" fill="#C6C6C6"/>
<path d="M221.149 147.731H183.104V148.373H221.149V147.731Z" fill="#C6C6C6"/>
<path d="M221.149 146.387H183.104V147.03H221.149V146.387Z" fill="#C6C6C6"/>
<path d="M221.149 145.365H183.104V146.008H221.149V145.365Z" fill="#C6C6C6"/>
<path d="M222.653 153.337H184.461C182.622 153.337 181.118 151.833 181.118 149.993V145.453C181.118 143.614 182.622 142.11 184.461 142.11H222.653V144.081H184.461C183.702 144.081 183.089 144.694 183.089 145.453V149.993C183.089 150.753 183.702 151.366 184.461 151.366H222.653V153.337Z" fill="#3088BF"/>
<path d="M167.716 130.87C165.964 130.87 164.548 132.286 164.548 134.038V138.914C164.548 140.666 165.964 142.082 167.716 142.082H203.586V130.87H167.716Z" fill="#328DC7"/>
<path d="M165.073 140.767C165.613 141.57 166.533 142.081 167.57 142.081H185.848V140.767H165.073Z" fill="#3088BF"/>
<path d="M176.3 130.868C174.636 130.868 173.293 132.211 173.293 133.876V139.059C173.293 140.723 174.636 142.066 176.3 142.066H212.316V130.854H176.3V130.868Z" fill="#4AA7E2"/>
<path d="M173.804 140.767C174.344 141.57 175.263 142.081 176.3 142.081H185.848V140.767H173.804Z" fill="#328DC7"/>
<path d="M216.74 131.861H177.702V141.102H216.74V131.861Z" fill="#A3A3A3"/>
<path d="M216.74 132.562H178.694V133.744H216.74V132.562Z" fill="#A3A3A3"/>
<path d="M216.74 139.161H178.694V140.343H216.74V139.161Z" fill="#A3A3A3"/>
<path d="M216.74 137.818H178.694V138.46H216.74V137.818Z" fill="#C6C6C6"/>
<path d="M216.74 136.474H178.694V137.117H216.74V136.474Z" fill="#C6C6C6"/>
<path d="M216.74 135.131H178.694V135.774H216.74V135.131Z" fill="#C6C6C6"/>
<path d="M216.74 134.124H178.694V134.766H216.74V134.124Z" fill="#C6C6C6"/>
<path d="M218.244 142.081H180.052C178.213 142.081 176.709 140.577 176.709 138.737V134.197C176.709 132.357 178.213 130.854 180.052 130.854H218.244V132.825H180.052C179.293 132.825 178.68 133.438 178.68 134.197V138.737C178.68 139.496 179.293 140.11 180.052 140.11H218.244V142.081Z" fill="#3088BF"/>
<path d="M156.241 79.8149C155.321 79.6543 149.569 101.261 149.569 101.261C149.569 101.261 112.764 87.3772 111.728 87.5086C110.691 87.64 109.436 90.9249 109.436 90.9249L157.642 119.291C157.642 119.291 169.482 93.1731 169.482 93.8155C169.482 94.4579 164.358 81.2456 156.241 79.8149Z" fill="#ECAA7E"/>
<path d="M158.372 54.3831C158.372 54.3831 148.591 56.6751 146.459 75.1577L144.416 83.9173L158.372 92.5016V54.3831Z" fill="#00796A"/>
<path d="M198.491 53.1567H164.314C156.051 53.1567 152.168 57.0401 152.168 65.3033L160.723 140.007L213.441 141.102V68.1063C213.441 59.8578 206.74 53.1567 198.491 53.1567Z" fill="#23887C"/>
<path d="M198.228 83.231C193.659 86.4866 190.184 91.0123 186.768 95.4651C183.366 99.9179 179.892 104.444 175.337 107.728C173.366 109.145 171.22 110.313 169.132 111.539C167.147 112.707 165.059 114.167 164.519 116.415C163.395 121.014 169.76 125.612 173.585 122.707C178.33 119.101 182.914 115.116 187.191 110.984C188.476 109.743 189.863 108.415 191.615 108.123C192.549 107.962 193.498 108.108 194.447 108.035C196.141 107.918 197.703 107.115 199.133 106.225C203.878 103.305 207.864 99.3047 211.703 95.2607C212.287 94.6476 212.871 94.0198 213.426 93.392V79.406C208.214 78.238 202.608 80.0921 198.228 83.231Z" fill="#00796A"/>
<path d="M84.9676 163.074L63.8571 170.169C63.8571 170.169 57.9298 169.98 57.2436 171.994C56.5575 174.009 56.8057 176.243 62.0468 176.52C67.2879 176.797 69.7844 175.206 74.9525 175.206C80.1206 175.206 95.5082 176.52 98.8806 174.608C102.253 172.695 98.0776 164.198 98.0776 164.198L84.9676 163.074Z" fill="#F48E69"/>
<path d="M186.432 154.563L184.958 141.102L137.043 110.561C134.094 108.444 130.561 107.291 126.94 107.291H123.772C116.487 107.291 109.991 111.845 107.523 118.693L80.836 162.038C80.836 162.038 88.1794 173.615 102.136 166.52L128.225 134.489L161.949 165.06C165.468 167.396 169.599 168.636 173.818 168.636C181.366 168.666 187.25 162.096 186.432 154.563Z" fill="#263643"/>
<path d="M173.789 168.666H201.382L186.432 154.577C186.432 154.563 176.169 163.731 173.789 168.666Z" fill="#263643"/>
<path d="M214.025 154.563L212.55 141.102L164.635 110.561C161.686 108.444 158.153 107.291 154.533 107.291H151.365C144.08 107.291 137.583 111.845 135.116 118.693L107.348 165.585C107.348 165.585 114.078 175.688 128.035 168.593L155.803 134.503L189.527 165.074C193.045 167.41 197.177 168.651 201.396 168.651C208.944 168.666 214.842 162.096 214.025 154.563Z" fill="#374F67"/>
<path d="M181.191 35.6667L166.913 48.4411L171.263 60.281C172.475 63.5805 176.607 64.6316 179.249 62.3249C182.607 59.3759 186.607 55.6677 188.49 53.1566L181.191 35.6667Z" fill="#ECAA7E"/>
<path d="M143.569 34.28L147.861 32.5281V33.1704L143.934 35.2143L143.569 34.28Z" fill="#2C3E50"/>
<path d="M185.089 28.5862L175.395 9.57807C172.49 3.88438 165.526 1.62149 159.832 4.52674L148.138 10.4832C142.445 13.3885 140.182 20.3523 143.087 26.046L152.781 45.0542C157.073 53.4633 167.366 56.8065 175.775 52.5144L177.629 51.5654C186.038 47.2878 189.381 36.9954 185.089 28.5862Z" fill="#FFC39A"/>
<path d="M151.788 24.8927C154.752 21.7976 156.197 17.5347 156.781 13.3009C157.117 10.8482 157.19 8.36634 157.219 5.86987L148.153 10.4978C142.459 13.4031 140.196 20.3669 143.102 26.0606L144.416 28.6447C147.175 28.3235 149.861 26.9073 151.788 24.8927Z" fill="#ECAA7E"/>
<path d="M185.089 28.5862L175.395 9.57807C172.49 3.88438 165.526 1.62149 159.832 4.52674L148.138 10.4832C147.058 11.038 146.094 11.7388 145.277 12.5417L147.598 11.3592C153.292 8.45392 160.256 10.7168 163.161 16.4105L172.855 35.4187C176.067 41.711 175.001 49.069 170.738 54.1641C172.446 53.8867 174.154 53.3465 175.775 52.5144L177.629 51.5654C186.038 47.2878 189.381 36.9954 185.089 28.5862Z" fill="#FFC39A"/>
<path d="M134.561 53.1275L133.554 52.5581L102.793 59.5803L98.1071 59.1715L83.7414 55.04L82.8947 55.3612L85.6685 57.843L102.107 65.3032L119.845 60.5439L134.561 53.1275Z" fill="#E2E2E2"/>
<path d="M82.8947 55.3611L98.2677 60.2664L102.253 60.427L134.532 53.4778C134.532 53.4778 140.197 101.684 140.649 102.049C141.087 102.414 108.589 111.743 108.589 111.743L103.392 111.291L90.6031 98.0054L82.8947 55.3611Z" fill="#3B94CC"/>
<path d="M140.678 101.699C140.24 101.334 134.561 53.1274 134.561 53.1274L102.341 60.0621L108.633 111.145L108.604 111.393C108.604 111.393 141.116 102.064 140.678 101.699Z" fill="#6BBDF1"/>
<path d="M98.2823 60.0037L103.392 111.028L108.589 111.495L102.268 60.1643L98.2823 60.0037Z" fill="#3283B6"/>
<path d="M197.63 63.1717L171.366 100.852L136.313 83.4208L131.685 89.2605C131.685 89.2605 161 117.101 165.657 119.174C169.716 120.985 202.257 91.1292 210.55 83.4354C211.864 82.2091 212.696 80.5593 212.9 78.7782C213.543 73.1867 213.835 61.2446 204.783 60.0036C201.995 59.6241 199.235 60.865 197.63 63.1717Z" fill="#FFC39A"/>
<path d="M204.783 60.0036C202.009 59.6241 199.25 60.865 197.644 63.1717L181.133 86.8662C185.454 88.0195 192.053 91.0708 193.089 99.2025C200.506 92.7059 207.338 86.4136 210.55 83.4354C211.864 82.2091 212.696 80.5593 212.901 78.7782C213.543 73.1867 213.835 61.2446 204.783 60.0036Z" fill="#ECAA7E"/>
<path d="M170.884 111.641L133.86 86.5305L131.685 89.2752C131.685 89.2752 161 117.116 165.657 119.189C171.658 114.43 170.884 111.641 170.884 111.641Z" fill="#FFC39A"/>
<path d="M208.594 60.3394C205.411 58.2663 201.25 58.5291 198.433 61.0694C194.885 64.2812 189.41 70.7048 181.41 83.5814C181.41 83.5814 197.411 88.2093 195.25 101.582C195.235 101.582 229.573 74.0043 208.594 60.3394Z" fill="#23887C"/>
<path d="M137.612 72.1502C136.693 71.0407 136.313 69.2012 136.313 69.2012C136.313 69.2012 133.787 72.7488 134.561 76.311H133.671C133.671 76.311 131.933 74.2817 130.108 73.4495L121.831 72.6174L114.21 71.1429C114.21 71.1429 113.421 73.4058 115.684 74.3255L121.831 75.2306L114.823 74.7343L111.217 77.1578C111.217 77.1578 111.524 79.552 114.589 77.9607L116.254 77.2891L122.108 77.8293V77.8731L116.064 77.9607L112.21 79.7856C112.21 79.7856 112.516 82.1799 115.582 80.5886L117.524 80.4718L122.385 80.5156L122.444 81.0703L117.962 81.4645L113.786 82.8222C113.786 82.8222 114.093 85.2165 117.159 83.6252L119.247 83.6106L124.4 83.5668L129.977 86.4429L131.656 89.2897C131.656 89.2897 135.904 85.9757 136.284 83.45C136.284 83.45 137.904 81.2455 137.539 78.2089C137.189 75.1285 138.532 73.2598 137.612 72.1502Z" fill="#FFC39A"/>
<path d="M185.089 28.5863L180.563 6.20567C179.585 4.27858 170.285 2.0741 168.972 1.40254C167.409 0.599579 165.482 1.13975 164.052 2.17629C162.606 0.54118 160.373 0.147 158.197 0.0302059C150.445 -0.393171 142.62 3.66541 138.488 10.2351C135.364 15.1988 134.094 21.5786 129.408 25.1117C133.758 26.3672 138.415 26.484 142.824 25.4912C142.883 25.6372 142.956 25.7832 143.029 25.9146C143.686 25.6226 144.328 25.2869 144.941 24.9073C145.073 24.8635 145.219 24.8197 145.35 24.7759C145.408 24.7029 145.467 24.6153 145.525 24.5423C146.416 23.9729 147.248 23.3306 148.022 22.6298C151.598 19.4034 154.066 15.1696 156.489 10.9942C156.591 12.6877 156.548 14.2206 156.65 15.8996C158.796 17.1697 160.957 18.4398 163.103 19.7246C164.46 22.9218 166.081 25.973 167.03 29.3162C168.431 29.3016 169.877 29.0534 171.278 29.0388C170.3 27.6957 169.731 26.0606 169.658 24.3963C169.556 22.1188 171.03 20.8195 173.278 20.4837C175.512 20.1479 177.614 21.7392 178.943 23.5641C180.14 25.2139 180.972 27.2285 180.768 29.2578C180.563 31.2871 179.103 33.258 177.089 33.6084C180.709 34.8347 183.717 36.2509 186.885 37.9444C187.177 34.8201 186.622 31.5791 185.089 28.5863Z" fill="#1D1D1D"/>
<path d="M148.531 32.6597C148.137 32.3823 150.37 45.8866 151.29 46.4998C152.21 47.113 157.933 46.1786 158.239 43.4194C158.546 40.6747 154.852 37.1125 148.531 32.6597Z" fill="#FFC39A"/>
<path opacity="0.47" d="M147.306 31.7689C147.102 31.2579 146.518 30.9951 146.007 31.2141L143.773 32.1047C143.262 32.3091 142.999 32.893 143.218 33.404L145.073 38.0466C145.277 38.5575 145.861 38.8203 146.372 38.6013L148.606 37.7108C149.117 37.5064 149.379 36.9224 149.16 36.4115L147.306 31.7689Z" fill="#FFE5D4"/>
<path opacity="0.47" d="M162.65 31.3309L160.796 26.6883C160.592 26.1774 160.008 25.9146 159.497 26.1336L148.839 30.3819C148.328 30.5863 148.065 31.1703 148.284 31.6813L150.139 36.3238C150.343 36.8348 150.927 37.0976 151.438 36.8786L162.095 32.6302C162.606 32.4258 162.855 31.8419 162.65 31.3309Z" fill="#FFE5D4"/>
<path d="M147.949 33.5646C147.788 33.5646 147.642 33.5354 147.496 33.4624C147.233 33.3456 147.029 33.1266 146.927 32.8492L146.474 31.8564L142.722 33.3602C142.489 33.4478 142.226 33.3456 142.124 33.112C142.036 32.8784 142.138 32.6156 142.372 32.5134L146.533 30.8345C146.766 30.7469 147.014 30.8491 147.116 31.0681L147.759 32.4842C147.759 32.4988 147.773 32.5134 147.773 32.528C147.788 32.5864 147.832 32.6156 147.861 32.6302C147.89 32.6448 147.934 32.6594 147.992 32.6302C148.08 32.601 148.109 32.5134 148.08 32.4258L147.598 31.0389C147.511 30.8053 147.627 30.5571 147.861 30.4549L160.212 25.608C160.431 25.5204 160.679 25.6226 160.781 25.827L161.205 26.6445L168.957 23.6663C169.19 23.5787 169.453 23.6955 169.555 23.9291C169.643 24.1627 169.526 24.4254 169.293 24.5276L161.161 27.6519C160.942 27.7395 160.694 27.6373 160.592 27.4329L160.168 26.6153L148.606 31.1557L148.941 32.1192C149.131 32.674 148.854 33.2726 148.314 33.477C148.226 33.55 148.095 33.5646 147.949 33.5646Z" fill="#2C3E50"/>
<path d="M192.286 157.789C189.293 157.789 186.87 160.213 186.87 163.206V172.52C186.87 175.513 189.293 177.936 192.286 177.936H256.946V157.804H192.286V157.789Z" fill="#4AA7E2"/>
<path d="M187.819 175.542C188.797 176.973 190.432 177.907 192.286 177.907H225.105V175.542H187.819Z" fill="#2F8DCA"/>
<path d="M207.966 157.789C204.973 157.789 202.55 160.213 202.55 163.206V172.52C202.55 175.513 204.973 177.936 207.966 177.936H272.626V157.804H207.966V157.789Z" fill="#FFCC66"/>
<path d="M207.966 157.789H192.286C190.155 157.789 188.301 159.03 187.425 160.826H203.104C203.98 159.03 205.834 157.789 207.966 157.789Z" fill="#80CEFF"/>
<path d="M203.104 160.826H209.499C210.535 159.016 212.477 157.789 214.711 157.789H207.966C205.834 157.789 203.98 159.03 203.104 160.826Z" fill="#FFE4B3"/>
<path d="M203.499 175.542C204.477 176.973 206.112 177.907 207.966 177.907H225.091V175.542H203.499Z" fill="#CC9A40"/>
<path d="M280.553 159.556H210.492V176.155H280.553V159.556Z" fill="#F4F4F1"/>
<path d="M280.553 160.826H212.273V162.943H280.553V160.826Z" fill="#A3A3A3"/>
<path d="M280.553 172.651H212.273V174.768H280.553V172.651Z" fill="#A3A3A3"/>
<path d="M280.553 170.257H212.273V171.41H280.553V170.257Z" fill="#C6C6C6"/>
<path d="M280.553 167.848H212.273V169.001H280.553V167.848Z" fill="#C6C6C6"/>
<path d="M280.553 165.439H212.273V166.593H280.553V165.439Z" fill="#C6C6C6"/>
<path d="M280.553 163.629H212.273V164.782H280.553V163.629Z" fill="#C6C6C6"/>
<path d="M283.254 177.907H214.711C211.411 177.907 208.725 175.221 208.725 171.921V163.775C208.725 160.476 211.411 157.789 214.711 157.789H283.254V161.322H214.711C213.353 161.322 212.258 162.417 212.258 163.775V171.921C212.258 173.279 213.353 174.374 214.711 174.374H283.254V177.907Z" fill="#3A9EE0"/>
<path d="M217.178 157.789C214.244 157.789 211.879 160.169 211.879 163.089V172.607C211.879 175.542 214.258 177.907 217.178 177.907H281.94V157.775H217.178V157.789Z" fill="#4AA7E2"/>
<path d="M212.813 175.542C213.791 176.973 215.426 177.907 217.28 177.907H250.099V175.542H212.813Z" fill="#2F8DCA"/>
<path d="M232.974 157.789C229.982 157.789 227.558 160.213 227.558 163.206V172.52C227.558 175.513 229.982 177.936 232.974 177.936H297.634V157.804H232.974V157.789Z" fill="#FFCC66"/>
<path d="M232.975 157.789H217.295C215.164 157.789 213.309 159.03 212.433 160.826H228.113C228.989 159.03 230.828 157.789 232.975 157.789Z" fill="#80CEFF"/>
<path d="M228.113 160.826H234.508C235.544 159.016 237.486 157.789 239.719 157.789H232.975C230.829 157.789 228.989 159.03 228.113 160.826Z" fill="#FFE4B3"/>
<path d="M228.492 175.542C229.471 176.973 231.106 177.907 232.96 177.907H250.085V175.542H228.492Z" fill="#CC9A40"/>
<path d="M305.547 159.556H235.486V176.155H305.547V159.556Z" fill="#F4F4F1"/>
<path d="M305.547 160.826H237.267V162.943H305.547V160.826Z" fill="#A3A3A3"/>
<path d="M305.547 172.651H237.267V174.768H305.547V172.651Z" fill="#A3A3A3"/>
<path d="M305.547 170.257H237.267V171.41H305.547V170.257Z" fill="#C6C6C6"/>
<path d="M305.547 167.848H237.267V169.001H305.547V167.848Z" fill="#C6C6C6"/>
<path d="M305.547 165.439H237.267V166.593H305.547V165.439Z" fill="#C6C6C6"/>
<path d="M305.547 163.629H237.267V164.782H305.547V163.629Z" fill="#C6C6C6"/>
<path d="M308.248 177.907H239.705C236.405 177.907 233.719 175.221 233.719 171.921V163.775C233.719 160.476 236.405 157.789 239.705 157.789H308.248V161.322H239.705C238.347 161.322 237.252 162.417 237.252 163.775V171.921C237.252 173.279 238.347 174.374 239.705 174.374H308.248V177.907Z" fill="#3A9EE0"/>
<path d="M205.44 137.657C202.447 137.657 200.024 140.08 200.024 143.073V152.388C200.024 155.38 202.447 157.804 205.44 157.804H270.1V137.672H205.44V137.657Z" fill="#4AA7E2"/>
<path d="M200.973 155.424C201.951 156.855 203.586 157.789 205.44 157.789H238.259V155.424H200.973Z" fill="#2F8DCA"/>
<path d="M221.12 137.657C218.127 137.657 215.704 140.08 215.704 143.073V152.388C215.704 155.38 218.127 157.804 221.12 157.804H285.78V137.672H221.12V137.657Z" fill="#FFCC66"/>
<path d="M221.12 137.657H205.44C203.309 137.657 201.455 138.898 200.579 140.694H216.258C217.134 138.898 218.988 137.657 221.12 137.657Z" fill="#80CEFF"/>
<path d="M216.258 140.708H222.653C223.689 138.898 225.631 137.672 227.865 137.672H221.12C218.988 137.657 217.134 138.898 216.258 140.708Z" fill="#FFE4B3"/>
<path d="M216.652 155.424C217.631 156.855 219.266 157.789 221.12 157.789H238.245V155.424H216.652Z" fill="#CC9A40"/>
<path d="M293.707 139.424H223.645V156.023H293.707V139.424Z" fill="#F4F4F1"/>
<path d="M293.707 140.708H225.427V142.825H293.707V140.708Z" fill="#A3A3A3"/>
<path d="M293.707 152.534H225.427V154.651H293.707V152.534Z" fill="#A3A3A3"/>
<path d="M293.707 150.125H225.427V151.278H293.707V150.125Z" fill="#C6C6C6"/>
<path d="M293.707 147.73H225.427V148.884H293.707V147.73Z" fill="#C6C6C6"/>
<path d="M293.707 145.322H225.427V146.475H293.707V145.322Z" fill="#C6C6C6"/>
<path d="M293.707 143.497H225.427V144.65H293.707V143.497Z" fill="#C6C6C6"/>
<path d="M296.408 157.789H227.865C224.565 157.789 221.879 155.103 221.879 151.804V143.657C221.879 140.358 224.565 137.672 227.865 137.672H296.408V141.205H227.865C226.507 141.205 225.412 142.3 225.412 143.657V151.804C225.412 153.161 226.507 154.256 227.865 154.256H296.408V157.789Z" fill="#3A9EE0"/>
<path d="M192.71 117.539C189.717 117.539 187.293 119.963 187.293 122.956V132.27C187.293 135.263 189.717 137.686 192.71 137.686H257.37V117.554H192.71V117.539Z" fill="#4AA7E2"/>
<path d="M188.242 135.292C189.22 136.723 190.856 137.657 192.71 137.657H225.529V135.292H188.242Z" fill="#2F8DCA"/>
<path d="M208.389 117.539C205.396 117.539 202.973 119.963 202.973 122.956V132.27C202.973 135.263 205.396 137.686 208.389 137.686H273.049V117.554H208.389V117.539Z" fill="#FFCC66"/>
<path d="M208.389 117.539H192.71C190.578 117.539 188.724 118.78 187.848 120.576H203.528C204.404 118.78 206.258 117.539 208.389 117.539Z" fill="#80CEFF"/>
<path d="M203.528 120.576H209.922C210.959 118.766 212.9 117.539 215.134 117.539H208.389C206.258 117.539 204.404 118.78 203.528 120.576Z" fill="#FFE4B3"/>
<path d="M203.922 135.292C204.9 136.723 206.535 137.657 208.389 137.657H225.514V135.292H203.922Z" fill="#CC9A40"/>
<path d="M280.977 119.306H210.915V135.905H280.977V119.306Z" fill="#F4F4F1"/>
<path d="M280.977 120.576H212.696V122.693H280.977V120.576Z" fill="#A3A3A3"/>
<path d="M280.977 132.401H212.696V134.518H280.977V132.401Z" fill="#A3A3A3"/>
<path d="M280.977 130.007H212.696V131.16H280.977V130.007Z" fill="#C6C6C6"/>
<path d="M280.977 127.598H212.696V128.751H280.977V127.598Z" fill="#C6C6C6"/>
<path d="M280.977 125.189H212.696V126.343H280.977V125.189Z" fill="#C6C6C6"/>
<path d="M280.977 123.365H212.696V124.518H280.977V123.365Z" fill="#C6C6C6"/>
<path d="M283.678 137.657H215.134C211.835 137.657 209.149 134.971 209.149 131.671V123.525C209.149 120.226 211.835 117.539 215.134 117.539H283.678V121.072H215.134C213.776 121.072 212.682 122.167 212.682 123.525V131.671C212.682 133.029 213.776 134.124 215.134 134.124H283.678V137.657Z" fill="#3A9EE0"/>
<path d="M209.513 97.407C206.521 97.407 204.097 99.8304 204.097 102.823V112.138C204.097 115.13 206.521 117.554 209.513 117.554H274.173V97.4216H209.513V97.407Z" fill="#4AA7E2"/>
<path d="M205.032 115.174C206.01 116.605 207.645 117.539 209.499 117.539H242.318V115.174H205.032Z" fill="#2F8DCA"/>
<path d="M225.193 97.407C222.2 97.407 219.777 99.8304 219.777 102.823V112.138C219.777 115.13 222.2 117.554 225.193 117.554H289.853V97.4216H225.193V97.407Z" fill="#FFCC66"/>
<path d="M225.193 97.407H209.514C207.382 97.407 205.528 98.6479 204.652 100.444H220.332C221.207 98.6479 223.062 97.407 225.193 97.407Z" fill="#80CEFF"/>
<path d="M220.332 100.444H226.726C227.763 98.6333 229.704 97.407 231.938 97.407H225.193C223.062 97.407 221.208 98.6479 220.332 100.444Z" fill="#FFE4B3"/>
<path d="M220.726 115.174C221.704 116.605 223.339 117.539 225.193 117.539H242.318V115.174H220.726Z" fill="#CC9A40"/>
<path d="M297.78 99.1733H227.719V115.773H297.78V99.1733Z" fill="#F4F4F1"/>
<path d="M297.766 100.444H229.485V102.56H297.766V100.444Z" fill="#A3A3A3"/>
<path d="M297.766 112.284H229.485V114.401H297.766V112.284Z" fill="#A3A3A3"/>
<path d="M297.766 109.875H229.485V111.028H297.766V109.875Z" fill="#C6C6C6"/>
<path d="M297.766 107.466H229.485V108.619H297.766V107.466Z" fill="#C6C6C6"/>
<path d="M297.766 105.072H229.485V106.225H297.766V105.072Z" fill="#C6C6C6"/>
<path d="M297.766 103.247H229.485V104.4H297.766V103.247Z" fill="#C6C6C6"/>
<path d="M300.481 117.539H231.938C228.638 117.539 225.952 114.853 225.952 111.554V103.407C225.952 100.108 228.638 97.4216 231.938 97.4216H300.481V100.955H231.938C230.58 100.955 229.485 102.05 229.485 103.407V111.554C229.485 112.911 230.58 114.006 231.938 114.006H300.481V117.539Z" fill="#3A9EE0"/>
<path d="M26.1035 157.789C23.1107 157.789 20.6872 160.213 20.6872 163.206V172.52C20.6872 175.513 23.1107 177.936 26.1035 177.936H90.7635V157.804H26.1035V157.789Z" fill="#4AA7E2"/>
<path d="M21.6363 175.542C22.6145 176.973 24.2496 177.907 26.1037 177.907H58.9227V175.542H21.6363Z" fill="#2F8DCA"/>
<path d="M41.7831 157.789C38.7903 157.789 36.3668 160.213 36.3668 163.206V172.52C36.3668 175.513 38.7903 177.936 41.7831 177.936H106.443V157.804H41.7831V157.789Z" fill="#FFCC66"/>
<path d="M41.7832 157.789H26.1037C23.9722 157.789 22.1181 159.03 21.2421 160.826H36.9217C37.7976 159.03 39.6517 157.789 41.7832 157.789Z" fill="#80CEFF"/>
<path d="M36.9217 160.826H43.3162C44.3527 159.016 46.2944 157.789 48.5281 157.789H41.7833C39.6518 157.789 37.7977 159.03 36.9217 160.826Z" fill="#FFE4B3"/>
<path d="M37.3158 175.542C38.2939 176.973 39.929 177.907 41.7831 177.907H58.908V175.542H37.3158Z" fill="#CC9A40"/>
<path d="M114.37 159.556H44.3088V176.155H114.37V159.556Z" fill="#F4F4F1"/>
<path d="M114.37 160.826H46.09V162.943H114.37V160.826Z" fill="#A3A3A3"/>
<path d="M114.37 172.651H46.09V174.768H114.37V172.651Z" fill="#A3A3A3"/>
<path d="M114.37 170.257H46.09V171.41H114.37V170.257Z" fill="#C6C6C6"/>
<path d="M114.37 167.848H46.09V169.001H114.37V167.848Z" fill="#C6C6C6"/>
<path d="M114.37 165.439H46.09V166.593H114.37V165.439Z" fill="#C6C6C6"/>
<path d="M114.37 163.629H46.09V164.782H114.37V163.629Z" fill="#C6C6C6"/>
<path d="M117.071 177.907H48.528C45.2286 177.907 42.5423 175.221 42.5423 171.921V163.775C42.5423 160.476 45.2286 157.789 48.528 157.789H117.071V161.322H48.528C47.1703 161.322 46.0753 162.417 46.0753 163.775V171.921C46.0753 173.279 47.1703 174.374 48.528 174.374H117.071V177.907Z" fill="#3A9EE0"/>
<path d="M51.3747 157.789C48.2359 157.789 45.6956 160.33 45.6956 163.468V172.228C45.6956 175.367 48.2359 177.907 51.3747 177.907H115.757V157.775H51.3747V157.789Z" fill="#4AA7E2"/>
<path d="M46.6299 175.542C47.6081 176.973 49.2432 177.907 51.0973 177.907H83.9163V175.542H46.6299Z" fill="#2F8DCA"/>
<path d="M66.7913 157.789C63.7985 157.789 61.375 160.213 61.375 163.206V172.52C61.375 175.513 63.7985 177.936 66.7913 177.936H131.451V157.804H66.7913V157.789Z" fill="#FFCC66"/>
<path d="M66.7914 157.789H51.1119C48.9804 157.789 47.1263 159.03 46.2503 160.826H61.9299C62.8058 159.03 64.6453 157.789 66.7914 157.789Z" fill="#80CEFF"/>
<path d="M61.9299 160.826H68.3244C69.3609 159.016 71.3026 157.789 73.5363 157.789H66.7915C64.6454 157.789 62.8059 159.03 61.9299 160.826Z" fill="#FFE4B3"/>
<path d="M62.3095 175.542C63.2877 176.973 64.9228 177.907 66.7769 177.907H83.9018V175.542H62.3095Z" fill="#CC9A40"/>
<path d="M139.364 159.556H69.3026V176.155H139.364V159.556Z" fill="#F4F4F1"/>
<path d="M139.364 160.826H71.0835V162.943H139.364V160.826Z" fill="#A3A3A3"/>
<path d="M139.364 172.651H71.0835V174.768H139.364V172.651Z" fill="#A3A3A3"/>
<path d="M139.364 170.257H71.0835V171.41H139.364V170.257Z" fill="#C6C6C6"/>
<path d="M139.364 167.848H71.0835V169.001H139.364V167.848Z" fill="#C6C6C6"/>
<path d="M139.364 165.439H71.0835V166.593H139.364V165.439Z" fill="#C6C6C6"/>
<path d="M139.364 163.629H71.0835V164.782H139.364V163.629Z" fill="#C6C6C6"/>
<path d="M142.065 177.907H73.5218C70.2223 177.907 67.5361 175.221 67.5361 171.921V163.775C67.5361 160.476 70.2223 157.789 73.5218 157.789H142.065V161.322H73.5218C72.164 161.322 71.0691 162.417 71.0691 163.775V171.921C71.0691 173.279 72.164 174.374 73.5218 174.374H142.065V177.907Z" fill="#3A9EE0"/>
<path d="M39.2575 137.657C36.2647 137.657 33.8412 140.08 33.8412 143.073V152.388C33.8412 155.38 36.2647 157.804 39.2575 157.804H103.917V137.672H39.2575V137.657Z" fill="#4AA7E2"/>
<path d="M34.79 155.424C35.7681 156.855 37.4032 157.789 39.2573 157.789H72.0764V155.424H34.79Z" fill="#2F8DCA"/>
<path d="M54.9516 137.657C51.9587 137.657 49.5353 140.08 49.5353 143.073V152.388C49.5353 155.38 51.9587 157.804 54.9516 157.804H119.612V137.672H54.9516V137.657Z" fill="#FFCC66"/>
<path d="M54.9517 137.657H39.2575C37.126 137.657 35.2719 138.898 34.396 140.694H50.0755C50.9661 138.898 52.8056 137.657 54.9517 137.657Z" fill="#80CEFF"/>
<path d="M50.0756 140.708H56.4701C57.5066 138.898 59.4483 137.672 61.682 137.672H54.9371C52.8056 137.657 50.9661 138.898 50.0756 140.708Z" fill="#FFE4B3"/>
<path d="M50.4696 155.424C51.4478 156.855 53.0829 157.789 54.937 157.789H72.0765V155.424H50.4696Z" fill="#CC9A40"/>
<path d="M127.524 139.424H57.4629V156.023H127.524V139.424Z" fill="#F4F4F1"/>
<path d="M127.524 140.708H59.2438V142.825H127.524V140.708Z" fill="#A3A3A3"/>
<path d="M127.524 152.534H59.2438V154.651H127.524V152.534Z" fill="#A3A3A3"/>
<path d="M127.524 150.125H59.2438V151.278H127.524V150.125Z" fill="#C6C6C6"/>
<path d="M127.524 147.73H59.2438V148.884H127.524V147.73Z" fill="#C6C6C6"/>
<path d="M127.524 145.322H59.2438V146.475H127.524V145.322Z" fill="#C6C6C6"/>
<path d="M127.524 143.497H59.2438V144.65H127.524V143.497Z" fill="#C6C6C6"/>
<path d="M130.225 157.789H61.6818C58.3824 157.789 55.6962 155.103 55.6962 151.804V143.657C55.6962 140.358 58.3824 137.672 61.6818 137.672H130.225V141.205H61.6818C60.3241 141.205 59.2292 142.3 59.2292 143.657V151.804C59.2292 153.161 60.3241 154.256 61.6818 154.256H130.225V157.789Z" fill="#3A9EE0"/>
<path d="M26.5268 117.539C23.534 117.539 21.1105 119.963 21.1105 122.956V132.27C21.1105 135.263 23.534 137.686 26.5268 137.686H91.1868V117.554H26.5268V117.539Z" fill="#4AA7E2"/>
<path d="M22.0596 135.292C23.0377 136.723 24.6728 137.657 26.5269 137.657H59.346V135.292H22.0596Z" fill="#2F8DCA"/>
<path d="M42.2063 117.539C39.2135 117.539 36.79 119.963 36.79 122.956V132.27C36.79 135.263 39.2135 137.686 42.2063 137.686H106.866V117.554H42.2063V117.539Z" fill="#FFCC66"/>
<path d="M42.2064 117.539H26.5269C24.3954 117.539 22.5413 118.78 21.6654 120.576H37.3449C38.2209 118.78 40.075 117.539 42.2064 117.539Z" fill="#80CEFF"/>
<path d="M37.3448 120.576H43.7392C44.7758 118.766 46.7175 117.539 48.9512 117.539H42.2063C40.0748 117.539 38.2207 118.78 37.3448 120.576Z" fill="#FFE4B3"/>
<path d="M37.739 135.292C38.7172 136.723 40.3523 137.657 42.2064 137.657H59.3313V135.292H37.739Z" fill="#CC9A40"/>
<path d="M114.794 119.306H44.7321V135.905H114.794V119.306Z" fill="#F4F4F1"/>
<path d="M114.794 120.576H46.5132V122.693H114.794V120.576Z" fill="#A3A3A3"/>
<path d="M114.794 132.401H46.5132V134.518H114.794V132.401Z" fill="#A3A3A3"/>
<path d="M114.794 130.007H46.5132V131.16H114.794V130.007Z" fill="#C6C6C6"/>
<path d="M114.794 127.598H46.5132V128.751H114.794V127.598Z" fill="#C6C6C6"/>
<path d="M114.794 125.189H46.5132V126.343H114.794V125.189Z" fill="#C6C6C6"/>
<path d="M114.794 123.365H46.5132V124.518H114.794V123.365Z" fill="#C6C6C6"/>
<path d="M117.495 137.657H48.9512C45.6518 137.657 42.9656 134.971 42.9656 131.671V123.525C42.9656 120.226 45.6518 117.539 48.9512 117.539H117.495V121.072H48.9512C47.5935 121.072 46.4986 122.167 46.4986 123.525V131.671C46.4986 133.029 47.5935 134.124 48.9512 134.124H117.495V137.657Z" fill="#3A9EE0"/>
<path d="M43.3304 97.407C40.3376 97.407 37.9141 99.8304 37.9141 102.823V112.138C37.9141 115.13 40.3376 117.554 43.3304 117.554H107.99V97.4216H43.3304V97.407Z" fill="#4AA7E2"/>
<path d="M38.8631 115.174C39.8412 116.605 41.4763 117.539 43.3304 117.539H76.1495V115.174H38.8631Z" fill="#2F8DCA"/>
<path d="M59.01 97.407C56.0172 97.407 53.5937 99.8304 53.5937 102.823V112.138C53.5937 115.13 56.0172 117.554 59.01 117.554H123.67V97.4216H59.01V97.407Z" fill="#FFCC66"/>
<path d="M59.0099 97.407H43.3304C41.1989 97.407 39.3448 98.6479 38.4688 100.444H54.1484C55.0243 98.6479 56.8784 97.407 59.0099 97.407Z" fill="#80CEFF"/>
<path d="M54.1487 100.444H60.5431C61.5797 98.6333 63.5214 97.407 65.755 97.407H59.0102C56.8787 97.407 55.0246 98.6479 54.1487 100.444Z" fill="#FFE4B3"/>
<path d="M54.5427 115.174C55.5208 116.605 57.156 117.539 59.0101 117.539H76.1349V115.174H54.5427Z" fill="#CC9A40"/>
<path d="M131.597 99.1733H61.5357V115.773H131.597V99.1733Z" fill="#F4F4F1"/>
<path d="M131.583 100.444H63.3022V102.56H131.583V100.444Z" fill="#A3A3A3"/>
<path d="M131.583 112.284H63.3022V114.401H131.583V112.284Z" fill="#A3A3A3"/>
<path d="M131.583 109.875H63.3022V111.028H131.583V109.875Z" fill="#C6C6C6"/>
<path d="M131.583 107.466H63.3022V108.619H131.583V107.466Z" fill="#C6C6C6"/>
<path d="M131.583 105.072H63.3022V106.225H131.583V105.072Z" fill="#C6C6C6"/>
<path d="M131.583 103.247H63.3022V104.4H131.583V103.247Z" fill="#C6C6C6"/>
<path d="M134.298 117.539H65.7549C62.4555 117.539 59.7692 114.853 59.7692 111.554V103.407C59.7692 100.108 62.4555 97.4216 65.7549 97.4216H134.298V100.955H65.7549C64.3972 100.955 63.3022 102.05 63.3022 103.407V111.554C63.3022 112.911 64.3972 114.006 65.7549 114.006H134.298V117.539Z" fill="#3A9EE0"/>
</svg>
