<svg width="130" height="418" viewBox="0 0 130 418" fill="none" xmlns="http://www.w3.org/2000/svg">
<path d="M2.44781 271.225V294.39C2.44781 300.462 7.39079 305.386 13.4871 305.386H115.406C121.503 305.386 126.446 300.462 126.446 294.39V271.225H2.44781Z" fill="#5B9CC6"/>
<path d="M124.939 288.763H5.27252V209.702C5.27252 202.715 10.9452 197.065 17.9595 197.065H112.252C119.267 197.065 124.939 202.715 124.939 209.702V288.763Z" fill="#538FB6"/>
<path d="M66.8949 92.9408C56.6323 94.4648 48.1351 103.89 47.7114 114.207C47.5467 118.099 48.4176 121.967 49.1472 125.789C50.0652 130.478 50.7949 135.285 50.1358 140.021C49.5003 144.476 47.6644 148.649 45.8519 152.752C34.2948 178.824 16.4531 198.027 15.1349 226.514C14.8289 233.336 15.8175 240.488 19.6071 246.185C21.6314 249.233 24.3618 251.742 27.304 253.899C42.5802 265.012 62.7992 266.091 81.7237 265.856C94.599 265.692 108.792 264.567 117.807 255.423C127.929 245.153 127.623 228.53 123.574 214.72C116.866 191.86 102.037 171.884 96.435 148.743C93.5869 136.996 93.2338 124.804 91.3978 112.87C90.3151 105.789 87.9378 97.7942 81.3472 94.9338C76.7337 92.9174 71.8378 92.214 66.8949 92.9408Z" fill="#C96D98"/>
<path d="M123.551 214.72C116.842 191.86 102.013 171.884 96.4114 148.743C93.5633 136.996 93.2102 124.804 91.3743 112.87C90.4798 107.102 88.738 100.748 84.5718 97.0205C81.7708 99.9044 78.8521 102.671 75.5568 104.992C71.1081 108.111 65.9062 110.385 60.469 110.572C61.5046 108.486 62.5168 106.376 63.5524 104.289C59.0567 108.486 53.643 112.518 47.7349 113.48C47.7114 113.738 47.6879 113.972 47.6879 114.23C47.5231 118.122 48.394 121.991 49.1237 125.812C50.0417 130.502 50.7713 135.308 50.1123 140.044C49.4767 144.499 47.6408 148.672 45.8284 152.775C34.2712 178.848 16.4295 198.05 15.1114 226.537C14.8054 233.36 15.794 240.511 19.5836 246.208C21.6078 249.256 24.3382 251.765 27.2805 253.922C42.5566 265.036 62.7757 266.114 81.7002 265.88C94.5754 265.716 108.769 264.59 117.784 255.446C127.905 245.153 127.599 228.507 123.551 214.72Z" fill="#A8527A"/>
<path d="M82.3828 117.512C82.1475 137.301 80.1703 144.71 67.2244 144.687C54.4198 144.663 53.2194 117.512 53.2194 117.512C54.1844 119.834 55.1024 122.061 56.8206 123.89C61.7872 123.421 65.1531 119.74 69.7665 117.841C68.4484 120.865 66.636 123.186 64.1645 125.39C70.4727 124.101 77.6046 121.78 82.3828 117.512Z" fill="#EDC7B1"/>
<path d="M58.7271 134.769C62.861 134.769 66.2122 131.431 66.2122 127.313C66.2122 123.195 62.861 119.857 58.7271 119.857C54.5932 119.857 51.2421 123.195 51.2421 127.313C51.2421 131.431 54.5932 134.769 58.7271 134.769Z" fill="#ECECED"/>
<path d="M76.2157 134.769C80.3496 134.769 83.7008 131.431 83.7008 127.313C83.7008 123.195 80.3496 119.857 76.2157 119.857C72.0818 119.857 68.7307 123.195 68.7307 127.313C68.7307 131.431 72.0818 134.769 76.2157 134.769Z" fill="#ECECED"/>
<path d="M92.7631 223.02C89.303 214.791 109.31 154.253 109.31 154.253L73.9798 141.662L70.4962 140.982V140.138L68.3307 140.56L66.1653 140.138V140.982L62.6816 141.662L27.3512 154.253C27.3512 154.253 47.3584 214.814 43.8984 223.02C40.4383 231.25 15.0644 255.493 26.4332 270.827C36.0367 283.793 60.8457 281.307 68.3072 280.229C75.7687 281.307 100.578 283.793 110.181 270.827C121.597 255.493 96.2467 231.25 92.7631 223.02Z" fill="#F9D181"/>
<path d="M30.1992 243.348C24.5501 252.586 18.289 269.373 24.1735 277.298C33.777 290.264 60.8927 281.307 68.3542 280.229C75.8157 281.307 100.625 283.793 110.228 270.827C116.301 262.621 111.876 251.859 105.921 242.387C81.1588 248.272 55.0788 248.623 30.1992 243.348Z" fill="#202B35"/>
<path d="M49.6183 241.496C50.6775 241.238 51.7838 240.909 52.6547 240.229C53.7845 239.362 54.4436 238.049 55.0085 236.759C62.5641 219.62 61.9992 200.113 66.7539 182.013C67.1776 180.371 67.2482 179.105 67.5542 177.441C67.8602 175.753 68.1897 173.994 67.7425 172.353C67.2953 170.712 65.8359 169.188 64.1176 169.234C61.858 169.328 60.5869 171.837 59.8573 173.971C57.8565 179.809 56.2089 185.787 54.9143 191.837C54.3729 194.369 53.8551 196.995 52.537 199.222C51.2189 201.45 48.8415 203.278 46.2288 203.161C45.8993 189.961 43.4513 176.808 39.0027 164.381C38.273 162.318 37.3315 160.114 35.3778 159.082C34.248 158.496 32.9534 158.402 31.6824 158.402C30.7173 158.402 29.7522 158.426 28.8107 158.52C33.2829 172.423 46.8879 216.15 43.9692 223.043C42.4392 226.678 36.6724 233.383 31.6588 241.097C37.4492 242.785 43.7102 242.949 49.6183 241.496Z" fill="#E1BF7B"/>
<path d="M61.4811 171.767H57.5032C56.3263 171.767 55.2436 172.47 54.7728 173.572L41.2621 205.435L33.6358 154.042L27.3982 154.253C27.3982 154.253 8.49726 161.685 8.7091 166.515C8.92095 171.345 18.7833 228.858 27.3982 231.789C36.0366 234.72 48.9354 237.463 50.7008 234.321C52.372 231.39 60.3513 194.392 64.3528 175.307C64.7529 173.478 63.3406 171.767 61.4811 171.767Z" fill="#F9D181"/>
<path d="M61.4811 171.767H57.5032C56.3263 171.767 55.2436 172.47 54.7728 173.572L43.0744 201.121C42.9803 202.88 43.7335 204.685 44.9339 205.998C46.4404 207.639 48.5588 208.624 50.7007 209.257C52.6779 209.843 54.7493 210.171 56.7971 210.242C59.4569 198.378 62.3991 184.709 64.3527 175.33C64.7529 173.478 63.3406 171.767 61.4811 171.767Z" fill="#EDC7B1"/>
<path d="M87.0903 241.496C86.0311 241.238 84.9248 240.909 84.0539 240.229C82.9241 239.362 82.265 238.049 81.7001 236.759C74.1444 219.62 74.7093 200.113 69.9547 182.013C69.531 180.371 69.4604 179.105 69.1544 177.441C68.8484 175.753 68.5188 173.994 68.9661 172.353C69.4133 170.712 70.8726 169.188 72.5909 169.234C74.8505 169.328 76.1216 171.837 76.8513 173.971C78.852 179.809 80.4996 185.787 81.7942 191.837C82.3356 194.369 82.8535 196.995 84.1716 199.222C85.4897 201.45 87.867 203.278 90.4797 203.161C90.8093 189.961 93.2572 176.808 97.7059 164.381C98.4356 162.318 99.3771 160.114 101.331 159.082C102.461 158.496 103.755 158.402 105.026 158.402C105.991 158.402 106.956 158.426 107.898 158.52C103.426 172.423 89.8207 216.15 92.7394 223.043C94.2693 226.678 100.036 233.383 105.05 241.097C99.2594 242.785 92.9747 242.949 87.0903 241.496Z" fill="#E1BF7B"/>
<path d="M75.2273 171.767H79.2052C80.3821 171.767 81.4649 172.47 81.9356 173.572L95.4464 205.435L103.073 154.042L109.31 154.253C109.31 154.253 128.211 161.685 127.999 166.515C127.788 171.345 117.925 228.858 109.31 231.789C100.672 234.72 87.773 237.463 86.0077 234.321C84.3365 231.39 76.3571 194.392 72.3557 175.307C71.9555 173.478 73.3678 171.767 75.2273 171.767Z" fill="#F9D181"/>
<path d="M75.2273 171.767H79.2052C80.3821 171.767 81.4649 172.47 81.9357 173.572L93.634 201.121C93.7281 202.88 92.9749 204.685 91.7745 205.998C90.2681 207.639 88.1496 208.624 86.0077 209.257C84.0305 209.843 81.9592 210.171 79.9114 210.242C77.2516 198.378 74.3093 184.709 72.3557 175.33C71.9555 173.478 73.3678 171.767 75.2273 171.767Z" fill="#EDC7B1"/>
<path d="M66.2123 133.738V177.441L33.8711 171.087C32.5059 170.83 31.5409 169.634 31.5409 168.25V131.768C31.5409 130.01 33.1179 128.65 34.8833 128.931L66.2123 133.738Z" fill="#CFB1A1"/>
<path d="M71.6731 133.737V177.441L104.014 171.087C105.379 170.829 106.344 169.633 106.344 168.25V131.768C106.344 130.009 104.767 128.649 103.002 128.931L71.6731 133.737Z" fill="#CFB1A1"/>
<path d="M71.6731 133.737H66.2123V177.441H71.6731V133.737Z" fill="#B5A299"/>
<path d="M59.8806 287.779C59.8806 287.779 67.4598 267.592 53.2429 259.901C46.8876 256.455 39.0966 257.181 33.3063 261.472C27.4688 265.81 21.349 273.383 26.1978 284.59C34.4361 303.605 67.5304 372.279 67.5304 372.279C67.5304 372.279 71.626 373.123 74.3329 366.792C77.0397 360.462 59.8806 287.779 59.8806 287.779Z" fill="#EDC7B1"/>
<path d="M68.4012 326.277C63.2228 337.18 62.8462 349.747 62.5873 361.845C62.5873 361.892 62.5873 361.939 62.5873 362.009C65.6001 368.316 67.5302 372.278 67.5302 372.278C67.5302 372.278 71.6259 373.123 74.3327 366.792C75.6508 363.697 72.2379 344.8 68.4012 326.277Z" fill="#D9B9A7"/>
<path d="M75.2745 344.284C75.2745 344.284 79.982 355.796 79.4407 359.594C78.8993 363.392 78.9699 381.493 73.1796 387.847C67.3657 394.201 68.0012 396.381 66.2359 369.23C66.2359 369.23 73.6033 370.919 73.9328 362.243C74.2624 353.568 75.2745 344.284 75.2745 344.284Z" fill="#063C64"/>
<path d="M56.0438 269.678C53.5959 271.835 50.1829 273.172 47.0288 272.351C44.5338 271.718 41.4032 270.053 39.8497 272.07C46.2991 275.657 52.725 279.854 56.6087 286.114C58.8213 289.701 60.0924 293.757 61.3399 297.79C62.3991 301.213 63.4583 304.636 64.5175 308.06C61.9519 296.454 59.904 287.779 59.904 287.779C59.904 287.779 64.7293 274.907 59.4333 265.786C58.4211 267.216 57.3384 268.553 56.0438 269.678Z" fill="#D9B9A7"/>
<path d="M100.836 261.472C95.0461 257.181 87.2551 256.455 80.8998 259.901C66.6829 267.615 74.2621 287.779 74.2621 287.779C74.2621 287.779 68.7072 386.487 71.414 392.817C74.1209 399.148 78.2165 398.304 78.2165 398.304C78.2165 398.304 99.7067 303.605 107.945 284.59C112.794 273.383 106.674 265.81 100.836 261.472Z" fill="#EDC7B1"/>
<path d="M70.4255 369.535C70.4255 369.535 65.7179 381.047 66.2593 384.846C66.8007 388.644 66.7301 406.744 72.5204 413.098C78.3343 419.452 77.6988 421.633 79.4641 394.482C79.4641 394.482 72.0967 396.17 71.7672 387.495C71.4376 378.82 70.4255 369.535 70.4255 369.535Z" fill="#0F5385"/>
<path d="M50.4417 155.964C50.7242 155.284 51.5951 154.534 52.0659 155.12C52.2542 155.331 52.2306 155.659 52.2071 155.941C52.0423 157.887 51.9011 159.856 51.7363 161.802C51.6892 162.248 51.6657 162.717 51.9011 163.115C52.1365 163.514 52.7249 163.701 53.0309 163.373C53.1957 163.209 53.2428 162.998 53.2663 162.764C53.4781 161.286 53.2427 159.762 53.3134 158.262C53.384 156.761 53.8547 155.143 55.0787 154.276C55.3141 154.112 55.573 153.971 55.8555 153.971C56.797 153.971 57.0559 155.284 56.9617 156.222C56.797 158.238 56.6557 160.255 56.491 162.271C56.4439 162.787 56.4204 163.326 56.6793 163.772C56.9382 164.217 57.6208 164.428 57.9739 164.053C58.1151 163.912 58.1857 163.701 58.2328 163.49C58.6329 161.708 58.3269 159.856 58.5623 158.027C58.7977 156.222 59.904 154.253 61.7399 154.065C61.5752 156.902 61.4104 159.762 61.2457 162.599C61.1986 163.49 61.481 164.756 62.3755 164.686C63.2228 163.068 62.9168 161.122 62.9639 159.317C63.011 157.512 63.8348 155.355 65.6237 155.003C66.8712 157.512 65.9768 160.489 65.5295 163.232C65.2 165.132 65.1059 167.054 65.2236 168.977C65.3883 171.954 65.9532 175.354 63.976 177.581C59.7392 182.341 54.3255 175.917 52.0894 172.587C48.8176 167.804 48.135 161.31 50.4417 155.964Z" fill="#EDC7B1"/>
<path d="M86.502 155.823C86.2195 155.144 85.3487 154.393 84.8779 154.979C84.6896 155.19 84.7131 155.519 84.7366 155.8C84.9014 157.746 85.0426 159.716 85.2074 161.662C85.2545 162.107 85.278 162.576 85.0426 162.975C84.8073 163.35 84.2188 163.561 83.9128 163.232C83.748 163.068 83.701 162.857 83.6774 162.623C83.4656 161.146 83.701 159.622 83.6304 158.121C83.5598 156.621 83.089 155.003 81.865 154.135C81.6296 153.971 81.3707 153.831 81.0883 153.831C80.1467 153.831 79.8878 155.144 79.982 156.081C80.1468 158.098 80.288 160.114 80.4528 162.131C80.4998 162.646 80.5234 163.186 80.2644 163.631C80.0055 164.077 79.3229 164.288 78.9698 163.912C78.8286 163.772 78.758 163.561 78.7109 163.35C78.3108 161.568 78.6168 159.716 78.3814 157.887C78.146 156.058 77.0397 154.112 75.2038 153.924C75.3685 156.761 75.5333 159.622 75.6981 162.459C75.7452 163.35 75.4627 164.616 74.5683 164.545C73.7209 162.928 74.0269 160.982 73.9798 159.176C73.9327 157.371 73.1089 155.214 71.32 154.862C70.0725 157.371 70.967 160.349 71.4142 163.092C71.7437 164.991 71.8379 166.914 71.7202 168.836C71.5554 171.814 70.9905 175.213 72.9677 177.441C77.2045 182.2 82.6182 175.776 84.8543 172.447C88.1261 167.687 88.7852 161.193 86.502 155.823Z" fill="#EDC7B1"/>
<path d="M5.83748 0H0.941589V287.942H5.83748V0Z" fill="#D5D3EA"/>
<path d="M128.635 0H123.739V287.942H128.635V0Z" fill="#D5D3EA"/>
<path d="M0 223.138V291.624H13.9109C17.4416 291.624 20.2897 288.787 20.2897 285.27V243.348C20.2897 232.188 11.2041 223.138 0 223.138Z" fill="#6FB8E7"/>
<path d="M130 223.137C118.796 223.137 109.71 232.187 109.71 243.348V284.379C109.71 288.388 112.958 291.623 116.983 291.623H130V223.137Z" fill="#6FB8E7"/>
<path d="M70.9905 127.313H64.1645V128.157H70.9905V127.313Z" fill="#201E51"/>
</svg>
