<svg width="343" height="635" viewBox="0 0 343 635" fill="none" xmlns="http://www.w3.org/2000/svg">
<g clip-path="url(#clip0)">
<rect width="343" height="635" fill="#FBFBFB"/>
<path d="M454.417 0H-551V635H454.417V0Z" fill="url(#paint0_linear)"/>
<g opacity="0.3">
<path opacity="0.3" d="M445 149.519C425.096 144.645 407.487 157.396 400.275 176.577C384.989 171.829 366.811 179.755 359.887 194.187C353.087 189.431 342.435 191.746 338.222 198.896C325.333 181.677 298.568 176.895 280.514 188.585C277.2 176.291 267.423 166.341 255.853 161.025C244.284 155.708 231.106 154.655 218.452 156.069C204.366 157.643 189.805 162.758 181.174 174.001C169.862 167.834 154.273 171.168 146.471 181.421C124.547 174.566 98.4112 186.383 89.0748 207.37C79.435 192.893 64.0467 182.359 47.0618 178.612C30.0768 174.864 11.6848 177.945 -3.15179 187.023C-12.3177 176.397 -30.416 174.777 -40.8568 184.154C-51.9985 179.488 -64.8836 179.134 -76.2644 183.183C-87.6453 187.232 -97.4118 195.644 -103.103 206.299C-115.183 196.553 -132.013 193.005 -147 197.044V297.336H445V149.519Z" fill="white"/>
</g>
<g opacity="0.3">
<path opacity="0.3" d="M78.8838 145.589C82.7385 143.325 81.905 136.929 78.3037 134.281C74.7025 131.633 69.7716 131.817 65.3831 132.667C69.9968 125.628 69.2102 115.512 63.5639 109.271C57.4377 102.499 47.1763 100.951 38.2088 102.675C28.1602 104.607 18.8514 110.177 12.3979 118.118C9.68364 114.439 4.78178 112.516 0.289856 113.367C-4.20207 114.218 -8.0603 117.802 -9.2402 122.219C-19.1677 116.656 -33.0996 120.739 -38.9896 130.476C-44.8793 140.213 -42.3782 153.97 -33.8523 161.507C-25.6295 168.776 -12.8254 169.934 -3.06807 164.932C-1.81544 171.063 5.45226 174.848 11.7503 173.874C18.3249 172.857 23.699 168.064 27.7696 162.802C30.1271 167.143 35.6797 169.088 40.5404 168.205C45.4011 167.323 49.5635 164.093 52.6817 160.261C53.4448 166.973 61.3044 170.575 68.0577 170.448C74.6306 170.324 81.5908 167.485 84.7032 161.694C87.8153 155.903 85.2519 147.222 78.8838 145.589Z" fill="white"/>
</g>
<g opacity="0.3">
<path opacity="0.3" d="M233.427 128.164C233.246 122.588 225.805 118.797 221.188 121.929C223.218 119.381 222.912 115.282 220.526 113.063C218.139 110.845 214.029 110.838 211.635 113.049C215.824 105.48 211.165 95.1849 203.414 91.3445C195.663 87.5041 186.153 89.0142 178.459 92.9669C171.362 96.6128 164.816 103.361 165.261 111.327C162.804 105.798 154.53 104.608 149.82 108.404C145.109 112.201 144.057 119.351 146.258 124.987C143.033 121.261 135.962 123.949 134.957 128.773C133.953 133.597 137.799 138.454 142.488 139.97C147.176 141.486 152.329 140.36 156.885 138.482L159.158 137.802C159.942 143.223 165.775 146.992 171.235 146.565C176.696 146.139 181.46 142.299 184.225 137.571C184.307 141.079 188.498 143.383 191.921 142.617C195.345 141.85 197.901 138.974 199.672 135.946C207.32 144.952 223.356 144.647 230.655 135.355C232.275 133.292 233.512 130.785 233.427 128.164Z" fill="white"/>
</g>
<g opacity="0.3">
<path opacity="0.3" d="M437.549 118.935C438.519 116.017 437.184 112.507 434.521 110.971C431.857 109.435 428.15 110.038 426.111 112.339C427.44 103.93 421.711 94.9827 413.517 92.6721C407.073 90.8548 400.182 92.8358 394.023 95.4641C387.17 98.3888 380.581 102.2 375.401 107.556C370.221 112.912 366.534 119.943 366.173 127.386C365.968 124.153 362.317 122.045 359.088 122.295C355.859 122.546 353.028 124.452 350.366 126.296C350.835 123.577 349.012 120.652 346.365 119.875C343.717 119.099 340.603 120.576 339.53 123.118C337.431 113.515 325.527 108.325 316.15 111.274C306.774 114.223 300.321 123.267 297.859 132.782C295.983 130.168 292.235 129.09 289.257 130.309C286.279 131.528 284.362 134.925 284.858 138.104C281.607 135.581 276.593 135.157 273.45 137.813C270.465 140.337 269.995 145.317 272.455 148.355C274.915 151.393 279.884 151.968 282.973 149.572L282.206 151.04C284.277 154.938 288.563 157.559 292.977 157.624C297.391 157.69 301.753 155.199 303.939 151.364C308.799 155.044 316.673 153.67 320 148.561C323.959 152.142 327.972 155.76 332.688 158.26C337.405 160.759 342.977 162.062 348.141 160.708C353.817 159.22 358.358 154.628 360.733 149.262C361.339 151.311 364.329 151.713 366.085 150.495C367.84 149.277 368.641 147.124 369.342 145.106C374.941 151.222 382.858 155.535 391.15 155.502C399.441 155.468 407.855 150.502 410.719 142.721C415.469 146.133 423.305 143.155 424.589 137.448C428.532 139.622 433.63 139.525 437.489 137.204C441.347 134.882 443.82 130.423 443.746 125.92C443.688 122.37 441.038 118.277 437.549 118.935Z" fill="white"/>
</g>
<path d="M351.323 280.073L401.205 224.175L429.272 248.791L458.271 259.185L543.223 201.2L615.675 230.192V382.534H328.241L351.323 280.073Z" fill="#80CEFF"/>
<path d="M345.947 273.659L393.656 241.575L407.869 254.976L417.21 244.011L449.698 261.879L526.044 252.133V229.798H541.476L536.603 211.117L546.349 213.96L543.1 201.371L596.299 222.082L610.299 234.672L595.081 287.87L605.233 285.839L591.02 317.531L610.299 311.423V376.12H322.866L345.947 273.659Z" fill="#55A5D7"/>
<path d="M-271 361.302L-32.4757 263.41H9.42062L59.0572 230.083H105.592L128.444 250.079L238.898 181.522L276.986 172L323.643 219.609L366.491 229.131L452.188 299.593L590.464 359.388L519.234 388.147H-201.965L-271 361.302Z" fill="#80CEFF"/>
<path d="M-271 361.302L-39.1957 284.485L-1.22836 328.781L11.4272 287.649L54.1401 308.215L68.3779 257.592L91.3166 246.518L114.255 264.711L74.7057 292.395L188.607 255.219L226.574 269.457V233.072L258.214 256.01L262.168 205.133L281.943 221.207L285.107 205.133L316.746 229.117L363.414 244.146L433.811 307.424L413.246 327.199L466.242 323.244L569.238 367.958L519.234 388.147H-201.965L-271 361.302Z" fill="#55A5D7"/>
<path d="M-239.297 383.208C-181.378 361.833 -107.317 343.376 -46.0936 351.317C-16.7795 355.12 13.4356 363.018 35.1992 383.022" fill="#347EAC"/>
<path d="M90.2293 382.192C120.403 350.543 177.621 325.829 266.094 323.495C328.908 321.839 414.226 349.935 441.959 380.702" fill="#3D7FA8"/>
<path d="M269.461 381.034C302.546 359.178 342.424 345.492 383.537 340.656C410.701 337.461 438.712 338.094 465.03 344.78C491.348 351.467 515.915 364.455 532.95 383.207" fill="#4490C0"/>
<path d="M-79.0842 381.603C-67.8133 372.758 -54.0204 367.792 -40.2596 363.806C36.2751 341.636 121.216 346.498 192.664 381.773" fill="#4490C0"/>
<path d="M651.417 382H-354V636.354H651.417V382Z" fill="url(#paint1_linear)"/>
<g opacity="0.4">
<path opacity="0.4" d="M185.568 388H265.077" stroke="white" stroke-width="6.1614" stroke-miterlimit="10" stroke-linecap="round" stroke-linejoin="round"/>
<path opacity="0.4" d="M75.8398 388H115.18" stroke="white" stroke-width="6.1614" stroke-miterlimit="10" stroke-linecap="round" stroke-linejoin="round"/>
<path opacity="0.4" d="M145.194 388H160.525" stroke="white" stroke-width="6.1614" stroke-miterlimit="10" stroke-linecap="round" stroke-linejoin="round"/>
<path opacity="0.4" d="M95.5101 550.324H115.18" stroke="white" stroke-width="6.1614" stroke-miterlimit="10" stroke-linecap="round" stroke-linejoin="round"/>
<path opacity="0.4" d="M142.139 550.324H201.565" stroke="white" stroke-width="6.1614" stroke-miterlimit="10" stroke-linecap="round" stroke-linejoin="round"/>
<path opacity="0.4" d="M155.477 405.088H247.653" stroke="white" stroke-width="6.1614" stroke-miterlimit="10" stroke-linecap="round" stroke-linejoin="round"/>
<path opacity="0.4" d="M271.893 405.088H291.607" stroke="white" stroke-width="6.1614" stroke-miterlimit="10" stroke-linecap="round" stroke-linejoin="round"/>
<path opacity="0.4" d="M275.409 598.378H195.9" stroke="white" stroke-width="6.1614" stroke-miterlimit="10" stroke-linecap="round" stroke-linejoin="round"/>
<path opacity="0.4" d="M157.967 482.702H137.118" stroke="white" stroke-width="6.1614" stroke-miterlimit="10" stroke-linecap="round" stroke-linejoin="round"/>
<path opacity="0.4" d="M184.34 504.03H173.915" stroke="white" stroke-width="6.1614" stroke-miterlimit="10" stroke-linecap="round" stroke-linejoin="round"/>
<path opacity="0.4" d="M134.306 529.068H123.881" stroke="white" stroke-width="6.1614" stroke-miterlimit="10" stroke-linecap="round" stroke-linejoin="round"/>
<path opacity="0.4" d="M235.102 575.243H211.982" stroke="white" stroke-width="6.1614" stroke-miterlimit="10" stroke-linecap="round" stroke-linejoin="round"/>
<path opacity="0.4" d="M161.195 504.03H115.18" stroke="white" stroke-width="6.1614" stroke-miterlimit="10" stroke-linecap="round" stroke-linejoin="round"/>
<path opacity="0.4" d="M196.726 442.651H157.385" stroke="white" stroke-width="6.1614" stroke-miterlimit="10" stroke-linecap="round" stroke-linejoin="round"/>
<path opacity="0.4" d="M183.602 458.664H133.324" stroke="white" stroke-width="6.1614" stroke-miterlimit="10" stroke-linecap="round" stroke-linejoin="round"/>
<path opacity="0.4" d="M175.147 575.243H135.806" stroke="white" stroke-width="6.1614" stroke-miterlimit="10" stroke-linecap="round" stroke-linejoin="round"/>
<path opacity="0.4" d="M248.443 422.376H208.161" stroke="white" stroke-width="6.1614" stroke-miterlimit="10" stroke-linecap="round" stroke-linejoin="round"/>
<path opacity="0.4" d="M131.944 442.651H115.18" stroke="white" stroke-width="6.1614" stroke-miterlimit="10" stroke-linecap="round" stroke-linejoin="round"/>
<path opacity="0.4" d="M192.357 529.068H165.897" stroke="white" stroke-width="6.1614" stroke-miterlimit="10" stroke-linecap="round" stroke-linejoin="round"/>
<path opacity="0.4" d="M175.182 422.376H83.0055" stroke="white" stroke-width="6.1614" stroke-miterlimit="10" stroke-linecap="round" stroke-linejoin="round"/>
<path opacity="0.4" d="M102.198 406.659H53" stroke="white" stroke-width="6.1614" stroke-miterlimit="10" stroke-linecap="round" stroke-linejoin="round"/>
</g>
</g>
<defs>
<linearGradient id="paint0_linear" x1="-48.2917" y1="5.15701" x2="-48.2917" y2="258.649" gradientUnits="userSpaceOnUse">
<stop stop-color="#215C82"/>
<stop offset="1" stop-color="#479DD3"/>
</linearGradient>
<linearGradient id="paint1_linear" x1="148.708" y1="631.387" x2="148.708" y2="383.173" gradientUnits="userSpaceOnUse">
<stop stop-color="#4490C0"/>
<stop offset="0.2564" stop-color="#57A4D5"/>
<stop offset="0.4735" stop-color="#57A4D4"/>
<stop offset="0.6764" stop-color="#57A4D4"/>
<stop offset="0.8695" stop-color="#78C8FA"/>
<stop offset="1" stop-color="#B3E2FF"/>
</linearGradient>
<clipPath id="clip0">
<rect width="343" height="635" fill="white"/>
</clipPath>
</defs>
</svg>
