<svg width="343" height="635" viewBox="0 0 343 635" fill="none" xmlns="http://www.w3.org/2000/svg">
<g clip-path="url(#clip0)">
<rect width="343" height="635" fill="#FBFBFB"/>
<path d="M599 0H-387V564.429H599V0Z" fill="url(#paint0_linear)"/>
<path opacity="0.26" d="M599 156.544V211.294C533.572 152.311 415.041 150.689 337.71 214.187C253.759 283.188 287.635 306.824 93.3229 238.88C-198.815 136.719 -334.531 247.629 -387 316.066V169.738C-311.078 122.044 -234.24 102.289 -56.6196 160.637C55.6436 197.536 111.705 117.599 220.094 207.131C269.606 248.052 419.407 14.5201 599 156.544Z" fill="#80CEFF"/>
<path opacity="0.26" d="M599 279.996V349.491C494.484 255.584 385.813 318.447 346.936 344.411C305.735 371.927 287.776 420.609 42.6847 342.294C-142.12 283.241 -313.754 335.451 -387 364.73V298.41C-221.141 235.335 81.4908 315.131 143.045 333.828C257.914 368.681 241.505 372.068 372.431 290.579C464.763 233.148 553.785 252.762 599 279.996Z" fill="#80CEFF"/>
<path d="M131.425 43.1083L133.045 58.4184L148.328 60.0411L133.045 61.7344L131.425 76.974L129.734 61.7344L114.522 60.0411L129.734 58.4184L131.425 43.1083Z" fill="white"/>
<path d="M261.436 29.2797L262.211 36.4056L269.394 37.1817L262.211 37.9578L261.436 45.1542L260.661 37.9578L253.548 37.1817L260.661 36.4056L261.436 29.2797Z" fill="white"/>
<path d="M314.609 121.423L315.595 130.524L324.751 131.512L315.595 132.57L314.609 141.671L313.623 132.57L304.538 131.512L313.623 130.524L314.609 121.423Z" fill="white"/>
<path d="M38.6703 186.261L39.1633 191.13L44.0229 191.624L39.1633 192.117L38.6703 196.986L38.1773 192.117L33.3177 191.624L38.1773 191.13L38.6703 186.261Z" fill="white"/>
<path d="M250.801 241.999L251.576 249.266L258.83 250.042L251.576 250.818L250.801 258.085L250.026 250.818L242.772 250.042L250.026 249.266L250.801 241.999Z" fill="white"/>
<path d="M333.062 197.762L334.259 208.768L345.246 209.967L334.259 211.167L333.062 222.173L331.864 211.167L320.878 209.967L331.864 208.768L333.062 197.762Z" fill="white"/>
<path d="M223.897 158.322L224.813 167L233.476 167.917L224.813 168.905L223.897 177.583L222.911 168.905L214.249 167.917L222.911 167L223.897 158.322Z" fill="white"/>
<path d="M137.693 182.24L138.679 191.412L147.764 192.399L138.679 193.387L137.693 202.489L136.707 193.387L127.551 192.399L136.707 191.412L137.693 182.24Z" fill="white"/>
<path d="M213.404 214.483C215.154 214.483 216.573 213.061 216.573 211.308C216.573 209.554 215.154 208.133 213.404 208.133C211.653 208.133 210.234 209.554 210.234 211.308C210.234 213.061 211.653 214.483 213.404 214.483Z" fill="white"/>
<path d="M267.634 218.011C268.995 218.011 270.099 216.905 270.099 215.541C270.099 214.177 268.995 213.072 267.634 213.072C266.272 213.072 265.169 214.177 265.169 215.541C265.169 216.905 266.272 218.011 267.634 218.011Z" fill="white"/>
<path d="M256.365 170.74C258.115 170.74 259.534 169.318 259.534 167.565C259.534 165.811 258.115 164.39 256.365 164.39C254.615 164.39 253.196 165.811 253.196 167.565C253.196 169.318 254.615 170.74 256.365 170.74Z" fill="white"/>
<path d="M170.442 249.054C171.026 249.054 171.499 248.58 171.499 247.996C171.499 247.411 171.026 246.938 170.442 246.938C169.859 246.938 169.386 247.411 169.386 247.996C169.386 248.58 169.859 249.054 170.442 249.054Z" fill="white"/>
<path d="M182.063 206.016C183.23 206.016 184.176 205.069 184.176 203.9C184.176 202.731 183.23 201.783 182.063 201.783C180.896 201.783 179.95 202.731 179.95 203.9C179.95 205.069 180.896 206.016 182.063 206.016Z" fill="white"/>
<path d="M181.359 154.512C182.137 154.512 182.767 153.881 182.767 153.101C182.767 152.322 182.137 151.69 181.359 151.69C180.581 151.69 179.95 152.322 179.95 153.101C179.95 153.881 180.581 154.512 181.359 154.512Z" fill="white"/>
<path d="M147.694 133.699C148.666 133.699 149.454 132.909 149.454 131.935C149.454 130.961 148.666 130.171 147.694 130.171C146.721 130.171 145.933 130.961 145.933 131.935C145.933 132.909 146.721 133.699 147.694 133.699Z" fill="white"/>
<path d="M120.086 142.518C121.253 142.518 122.199 141.571 122.199 140.402C122.199 139.233 121.253 138.285 120.086 138.285C118.919 138.285 117.973 139.233 117.973 140.402C117.973 141.571 118.919 142.518 120.086 142.518Z" fill="white"/>
<path d="M82.7586 160.862C83.9255 160.862 84.8714 159.914 84.8714 158.746C84.8714 157.577 83.9255 156.629 82.7586 156.629C81.5917 156.629 80.6457 157.577 80.6457 158.746C80.6457 159.914 81.5917 160.862 82.7586 160.862Z" fill="white"/>
<path d="M311.651 179.912C313.207 179.912 314.469 178.648 314.469 177.089C314.469 175.531 313.207 174.267 311.651 174.267C310.096 174.267 308.834 175.531 308.834 177.089C308.834 178.648 310.096 179.912 311.651 179.912Z" fill="white"/>
<path d="M299.326 222.949C300.299 222.949 301.087 222.159 301.087 221.185C301.087 220.211 300.299 219.421 299.326 219.421C298.354 219.421 297.566 220.211 297.566 221.185C297.566 222.159 298.354 222.949 299.326 222.949Z" fill="white"/>
<path d="M228.194 100.186C229.944 100.186 231.363 98.7645 231.363 97.0111C231.363 95.2576 229.944 93.8362 228.194 93.8362C226.443 93.8362 225.024 95.2576 225.024 97.0111C225.024 98.7645 226.443 100.186 228.194 100.186Z" fill="white"/>
<path d="M216.714 269.515C218.736 269.515 220.376 267.872 220.376 265.846C220.376 263.82 218.736 262.177 216.714 262.177C214.691 262.177 213.051 263.82 213.051 265.846C213.051 267.872 214.691 269.515 216.714 269.515Z" fill="white"/>
<path d="M221.362 243.692C222.49 243.692 223.404 242.776 223.404 241.646C223.404 240.516 222.49 239.6 221.362 239.6C220.234 239.6 219.32 240.516 219.32 241.646C219.32 242.776 220.234 243.692 221.362 243.692Z" fill="white"/>
<path d="M53.249 64.2743C53.8324 64.2743 54.3054 63.8005 54.3054 63.216C54.3054 62.6315 53.8324 62.1577 53.249 62.1577C52.6655 62.1577 52.1926 62.6315 52.1926 63.216C52.1926 63.8005 52.6655 64.2743 53.249 64.2743Z" fill="white"/>
<path d="M80.7161 209.262C81.2996 209.262 81.7726 208.788 81.7726 208.204C81.7726 207.619 81.2996 207.145 80.7161 207.145C80.1327 207.145 79.6597 207.619 79.6597 208.204C79.6597 208.788 80.1327 209.262 80.7161 209.262Z" fill="white"/>
<path d="M215.376 135.181C216.231 135.181 216.925 134.486 216.925 133.628C216.925 132.771 216.231 132.076 215.376 132.076C214.52 132.076 213.826 132.771 213.826 133.628C213.826 134.486 214.52 135.181 215.376 135.181Z" fill="white"/>
<path d="M325.737 59.9705C326.515 59.9705 327.146 59.3387 327.146 58.5594C327.146 57.7801 326.515 57.1483 325.737 57.1483C324.959 57.1483 324.329 57.7801 324.329 58.5594C324.329 59.3387 324.959 59.9705 325.737 59.9705Z" stroke="#E6E6E6" stroke-width="0.704286" stroke-miterlimit="10"/>
<path d="M175.02 25.3993C175.798 25.3993 176.429 24.7675 176.429 23.9882C176.429 23.2089 175.798 22.5771 175.02 22.5771C174.242 22.5771 173.611 23.2089 173.611 23.9882C173.611 24.7675 174.242 25.3993 175.02 25.3993Z" stroke="#E6E6E6" stroke-width="0.704286" stroke-miterlimit="10"/>
<path d="M92.2664 98.0694C93.2388 98.0694 94.0271 97.2797 94.0271 96.3056C94.0271 95.3314 93.2388 94.5417 92.2664 94.5417C91.294 94.5417 90.5057 95.3314 90.5057 96.3056C90.5057 97.2797 91.294 98.0694 92.2664 98.0694Z" stroke="#E6E6E6" stroke-width="0.704286" stroke-miterlimit="10"/>
<path d="M-0.347134 35.2768C0.819764 35.2768 1.76572 34.3292 1.76572 33.1602C1.76572 31.9912 0.819764 31.0436 -0.347134 31.0436C-1.51403 31.0436 -2.45999 31.9912 -2.45999 33.1602C-2.45999 34.3292 -1.51403 35.2768 -0.347134 35.2768Z" stroke="#E6E6E6" stroke-width="0.704286" stroke-miterlimit="10"/>
<path d="M119.241 236.707C120.096 236.707 120.79 236.012 120.79 235.155C120.79 234.298 120.096 233.603 119.241 233.603C118.385 233.603 117.691 234.298 117.691 235.155C117.691 236.012 118.385 236.707 119.241 236.707Z" stroke="#E6E6E6" stroke-width="0.704286" stroke-miterlimit="10"/>
<path d="M277.705 126.996C278.172 126.996 278.55 126.617 278.55 126.15C278.55 125.682 278.172 125.303 277.705 125.303C277.238 125.303 276.86 125.682 276.86 126.15C276.86 126.617 277.238 126.996 277.705 126.996Z" stroke="#E6E6E6" stroke-width="0.704286" stroke-miterlimit="10"/>
<path d="M295.312 105.125C295.779 105.125 296.157 104.746 296.157 104.278C296.157 103.811 295.779 103.432 295.312 103.432C294.845 103.432 294.467 103.811 294.467 104.278C294.467 104.746 294.845 105.125 295.312 105.125Z" stroke="#E6E6E6" stroke-width="0.704286" stroke-miterlimit="10"/>
<path d="M427 556.579V406.493C412.793 411.884 398.258 417.494 392.611 419.971C380.116 425.436 355.09 440.736 351.666 442.921C348.241 445.107 289.118 453.85 266.386 468.057C258.846 472.756 242.671 475.124 224.348 476.217C206.753 475.124 191.161 472.756 183.949 468.057C162.091 453.85 105.263 445.107 101.984 442.921C98.7057 440.736 74.6629 425.436 62.6414 419.971C50.62 414.507 -2.93 393.743 -2.93 393.743C-2.93 393.743 3.62714 393.743 -19.3229 391.557C-42.2729 389.371 -77.2443 385 -77.2443 385L-83 389.262V556.579H427Z" fill="url(#paint1_linear)"/>
<path d="M66 563.178C92.7548 568.915 120.489 578.465 148.714 593.036C249.063 644.712 323.788 621.799 388 597.226V560.649C361.207 551.627 330.534 534.528 312.973 534.075C270.015 532.942 293.416 533.773 322.809 516.787C350.204 500.933 327.029 488.929 218.05 490.364C164.729 491.081 118.492 511.427 179.538 512.559C227.057 513.465 117.098 547.928 66 563.178Z" fill="#92BEDA"/>
<path d="M464.445 428.284C462.38 426.052 459.444 420.008 459.281 419.572C459.444 420.389 464.391 444.293 461.401 444.728C458.357 445.164 449.443 443.04 449.443 443.04C449.443 443.04 459.825 460.083 457.324 458.831C454.824 457.578 448.899 455.509 448.899 455.509C448.899 455.509 458.575 464.221 455.857 464.221C453.193 464.221 443.681 464.82 443.681 464.82C443.681 464.82 457.433 476.908 453.356 475.438C449.225 473.968 437.43 471.899 437.43 471.899C437.43 471.899 459.444 494.169 453.356 492.481C447.486 490.847 442.757 489.05 442.485 488.941C442.92 489.323 455.476 500.594 451.78 499.94C449.443 499.559 445.148 499.341 442.213 499.232C439.332 496.891 433.788 492.59 432.103 491.501C429.711 489.976 441.67 483.769 438.191 484.422C434.712 485.075 426.776 486.763 427.7 485.511C428.624 484.204 433.57 469.666 431.94 470.537C430.309 471.409 428.08 471.844 425.852 473.532C423.623 475.22 424.167 458.123 422.699 459.157C421.231 460.246 417.535 461.063 417.535 461.063C417.535 461.063 414.382 440.917 412.915 438.466C412.915 438.466 411.556 463.35 409.871 461.608C408.186 459.865 405.848 454.856 405.848 454.856C405.848 454.856 409.871 473.968 407.533 474.294C405.196 474.621 398.293 472.988 398.293 472.988C398.293 472.988 406.283 486.164 404.381 485.184C402.424 484.204 397.912 482.625 397.912 482.625C397.912 482.625 405.359 489.377 403.293 489.377C401.228 489.377 393.89 489.867 393.89 489.867C393.89 489.867 404.544 499.178 401.337 498.035C398.184 496.891 389.052 495.312 389.052 495.312C389.052 495.312 406.066 512.518 401.337 511.211C396.662 509.905 392.911 508.489 392.911 508.489C392.911 508.489 403.022 517.473 400.086 516.983C397.205 516.493 390.411 516.33 390.411 516.33C390.411 516.33 398.782 524.933 398.999 525.804C399.054 525.913 398.89 525.913 398.564 525.641C396.607 524.279 387.258 521.448 383.018 521.176V524.17C384.323 525.314 385.953 526.621 387.693 527.982C386.66 528.418 385.356 528.744 384.051 529.67C382.583 530.759 382.964 520.087 381.985 520.74C381.007 521.394 378.561 521.938 378.561 521.938C378.561 521.938 376.495 509.415 375.463 507.89C375.463 507.89 374.539 523.408 373.451 522.319C372.364 521.23 370.788 518.127 370.788 518.127C370.788 518.127 373.451 530.051 371.875 530.214C370.299 530.432 365.678 529.398 365.678 529.398C365.678 529.398 371.005 537.62 369.755 537.021C368.505 536.422 365.406 535.442 365.406 535.442C365.406 535.442 370.407 539.634 368.994 539.634C367.581 539.634 362.743 539.961 362.743 539.961C362.743 539.961 369.864 545.787 367.744 545.079C365.624 544.371 359.536 543.391 359.536 543.391C359.536 543.391 370.897 554.118 367.744 553.301C364.591 552.484 362.091 551.613 362.091 551.613C362.091 551.613 368.831 557.222 366.874 556.895C364.917 556.568 360.406 556.514 360.406 556.514C360.406 556.514 366.004 561.85 366.167 562.394C366.167 562.449 366.113 562.449 365.896 562.285C364.754 561.523 359.59 560.053 356.492 559.617C356.655 558.692 356.764 557.875 356.709 557.276C358.286 557.439 360.677 557.439 360.677 557.439C360.677 557.439 354.209 552.267 352.633 551.232C351.002 550.252 359.101 546.059 356.709 546.495C354.372 546.931 349.045 548.074 349.643 547.203C350.241 546.332 353.611 536.531 352.469 537.13C351.328 537.729 349.86 538.001 348.393 539.144C346.925 540.288 347.306 528.744 346.273 529.507C345.294 530.214 342.794 530.813 342.794 530.813C342.794 530.813 340.674 517.255 339.696 515.622C339.696 515.622 338.771 532.392 337.63 531.195C336.543 530.051 335.021 526.839 334.966 526.675C335.075 527.111 337.63 539.525 336.054 539.743C334.477 539.961 329.803 538.872 329.803 538.872C329.803 538.872 335.184 547.747 333.879 547.094C332.575 546.44 329.531 545.351 329.531 545.351C329.531 545.351 334.532 549.871 333.173 549.871C331.814 549.871 326.867 550.198 326.867 550.198C326.867 550.198 334.042 556.459 331.868 555.697C329.803 554.935 323.823 553.9 323.606 553.846C323.932 554.172 335.021 565.389 331.868 564.572C328.878 563.756 326.432 562.83 326.215 562.721C326.541 563.048 332.955 568.765 331.053 568.438C329.096 568.112 324.53 568.003 324.53 568.003C324.53 568.003 330.129 573.774 330.292 574.373C330.292 574.482 330.237 574.428 329.966 574.264C328.661 573.339 322.356 571.433 319.475 571.27V573.284C322.79 576.225 330.074 581.288 327.574 580.635C326.759 580.417 320.236 578.893 320.236 578.893C320.236 578.893 320.888 579.655 321.758 580.744C321.758 580.744 329.368 591.198 327.574 590.872C326.922 590.763 325.617 590.273 324.149 589.783C324.204 589.728 320.236 588.421 319.42 588.204C319.42 588.204 325.78 595.5 324.91 595.5C323.986 595.5 321.16 595.554 319.42 595.609V596.698C319.529 596.807 319.692 596.861 319.801 596.97C305.342 598.059 290.448 598.331 275.065 597.46C275.065 595.935 275.119 594.629 275.119 594.193C275.174 593.05 275.88 584.828 276.152 582.051C277.294 580.907 278.326 579.764 278.381 579.001C278.544 577.259 277.728 575.244 278.87 573.883C279.74 572.903 280.283 566.478 280.501 562.285C281.207 561.142 281.425 559.563 281.533 559.345C281.697 558.964 282.892 558.855 282.947 558.528C283.001 558.202 283.545 557.929 283.545 557.929C286.426 558.038 286.534 555.806 286.752 555.261C286.969 554.717 286.48 553.955 286.48 553.955C283.327 553.846 282.566 555.86 282.349 556.187C282.131 556.568 281.425 556.35 281.425 556.35C281.479 555.098 284.904 553.628 285.936 553.356C286.643 553.138 286.643 552.376 286.534 551.831L288.926 551.885L292.677 547.747L292.459 547.312C292.459 547.312 290.828 548.618 289.578 549.599L289.687 548.074H289.143L288.709 550.252C288.545 550.415 288.382 550.524 288.328 550.579C287.948 550.905 286.969 550.851 286.317 550.851C285.882 548.401 288.219 547.529 289.198 546.876L289.252 546.822L290.502 546.658L290.557 546.059L289.687 546.114C289.796 545.515 289.415 544.916 289.47 545.297C289.524 545.678 288.872 546.005 288.382 546.223L288.056 545.188H287.513V546.604C286.697 546.985 286.099 547.475 285.719 548.02C285.23 547.693 284.523 547.094 284.523 546.44C284.523 546.059 284.577 545.188 284.686 544.317L285.882 542.901L285.665 542.629L284.849 543.119C284.958 542.193 285.012 541.486 285.012 541.486L284.469 541.594C284.469 541.594 284.034 543.282 283.762 544.861L282.729 544.154L282.131 544.48L283.599 545.733C283.49 546.549 283.436 547.203 283.545 547.421C283.762 547.856 284.523 548.618 285.121 549.217C284.686 550.579 285.012 551.777 285.012 551.777C281.696 552.43 279.305 555.207 278.761 555.86C278.544 555.751 278.326 555.751 278.055 555.751C277.783 555.751 277.511 555.806 277.294 555.915C276.804 555.316 274.413 552.484 271.042 551.831C271.042 551.831 271.314 550.796 271.042 549.653C271.64 549.054 272.456 548.292 272.673 547.856C272.782 547.638 272.728 546.985 272.619 546.168L274.086 544.916L273.489 544.589L272.456 545.297C272.184 543.718 271.749 542.03 271.749 542.03L271.206 541.921C271.206 541.921 271.314 542.683 271.369 543.555L270.553 543.065L270.336 543.337L271.532 544.753C271.64 545.624 271.695 546.44 271.695 546.876C271.695 547.475 271.097 548.02 270.608 548.401C270.227 547.802 269.629 547.203 268.76 546.767V545.678H268.216L267.944 546.44C267.509 546.277 266.585 545.624 266.042 543.5L265.552 543.609C265.389 544.262 265.552 545.733 266.368 546.658L265.661 546.604L265.715 547.203L267.564 547.421C268.705 548.074 270.336 549.109 269.684 551.341C269.031 551.341 268.216 551.341 267.89 551.069C267.835 551.014 267.672 550.905 267.509 550.742L267.074 548.564H266.531L266.64 550.089C265.389 549.109 263.759 547.802 263.759 547.802L263.541 548.237L267.292 552.376L269.52 552.321C269.52 552.757 269.629 553.301 270.173 553.465C271.26 553.737 274.63 555.207 274.684 556.459C274.684 556.459 273.978 556.677 273.76 556.296C273.543 555.915 272.782 553.9 269.629 554.063C269.629 554.063 269.14 554.826 269.357 555.37C269.575 555.915 269.684 558.147 272.565 558.038C272.565 558.038 273.108 558.311 273.162 558.637C273.217 558.964 274.413 559.073 274.576 559.454C274.63 559.617 274.739 560.216 274.956 560.87C274.63 562.667 274.141 565.171 273.923 566.533C273.923 566.533 273.543 568.602 272.13 568.329C270.716 568.003 264.574 564.028 257.29 568.438C252.072 571.651 245.712 566.859 241.472 573.774C237.287 580.635 240.385 586.461 239.787 587.115C239.189 587.768 241.309 586.298 241.364 585.372C241.472 584.446 241.798 581.234 241.798 581.234C241.798 581.234 243.918 584.065 241.907 590.98C241.798 591.089 241.69 593.757 241.69 593.757V594.03C220.382 590.654 198.204 585.045 175.048 576.66V575.19C173.906 574.918 172.819 574.591 171.949 574.21C169.449 573.121 166.514 571.76 164.72 570.671C166.785 569.963 169.177 568.547 169.993 567.785C170.156 567.785 170.373 567.785 170.536 567.73V566.641C170.047 566.859 169.558 567.077 169.177 567.24C166.242 567.513 158.632 568.547 160.915 567.458C162.437 566.696 164.285 563.048 165.209 560.38L165.318 560.107C165.916 558.311 166.133 557.004 165.481 557.494C163.85 558.637 160.806 561.686 161.295 560.543C161.785 559.4 167.601 546.713 166.459 547.475C165.263 548.237 159.339 555.969 159.665 553.41C159.991 550.851 163.633 544.535 162.328 545.406C161.024 546.277 158.143 550.579 157.871 549.217C157.708 548.128 160.1 541.976 159.828 539.961C161.35 540.124 163.578 540.124 163.578 540.124C163.578 540.124 157.49 535.551 155.968 534.679C154.446 533.808 162.056 530.106 159.828 530.487C157.599 530.868 152.598 531.902 153.142 531.14C153.74 530.378 156.892 521.775 155.805 522.265C154.773 522.755 153.359 523.027 151.946 524.062C150.533 525.096 150.913 514.914 149.935 515.567C149.011 516.221 146.673 516.711 146.673 516.711C146.673 516.711 144.662 504.786 143.738 503.316C143.738 503.316 142.868 518.072 141.781 517.038C140.748 516.003 139.226 513.063 139.226 513.063C139.226 513.063 141.781 524.388 140.259 524.552C138.792 524.715 134.389 523.789 134.389 523.789C134.389 523.789 139.498 531.576 138.248 531.031C136.998 530.487 134.117 529.507 134.117 529.507C134.117 529.507 138.846 533.481 137.541 533.481C136.237 533.481 131.562 533.754 131.562 533.754C131.562 533.754 138.302 539.253 136.291 538.6C134.28 537.946 128.464 536.966 128.464 536.966C128.464 536.966 139.281 547.148 136.291 546.386C133.301 545.624 130.964 544.753 130.964 544.753C130.964 544.753 137.378 550.089 135.53 549.816C133.682 549.544 129.388 549.435 129.388 549.435C129.388 549.435 134.715 554.554 134.823 555.044C134.823 555.098 134.769 555.098 134.552 554.935C133.302 554.118 127.377 552.484 124.659 552.321V554.118C125.474 554.826 126.561 555.588 127.703 556.405C125.691 555.37 123.626 554.39 121.56 553.301C113.787 549.272 106.014 545.569 98.2955 542.03V539.471C97.6976 539.308 97.0453 539.199 96.2843 538.981C97.5345 539.144 98.2955 538.654 97.7519 538.382C96.9366 537.946 90.5224 533.318 92.2075 533.917C93.8925 534.516 96.0668 534.026 96.0668 534.026C96.0668 534.026 95.5233 533.645 94.6536 533.046C96.1212 532.882 97.5888 532.774 98.2411 532.828V531.086C97.2627 530.813 96.3386 530.541 95.632 530.214C93.5121 529.234 91.066 527.982 89.544 527.002C91.2834 526.403 93.2946 525.096 94.0013 524.388C94.1643 524.388 94.3274 524.388 94.4905 524.334V523.354C94.11 523.572 93.6751 523.735 93.349 523.898C90.9029 524.116 84.4888 525.096 86.3913 524.062C87.6415 523.408 89.2178 520.087 90.0332 517.636L90.1419 517.364C90.6855 515.731 90.7942 514.587 90.2506 514.968C88.8917 516.003 86.2826 518.78 86.7174 517.745C87.0979 516.711 92.0444 505.222 91.066 505.93C90.0876 506.638 85.0323 513.607 85.3585 511.32C85.6303 509.033 88.7286 503.262 87.6415 504.078C86.5543 504.895 84.1083 508.761 83.8908 507.509C83.7278 506.474 85.7933 500.975 85.5759 499.124C86.8261 499.232 88.7286 499.232 88.7286 499.232C88.7286 499.232 83.619 495.094 82.3145 494.278C81.0099 493.461 87.424 490.139 85.5759 490.466C83.6734 490.793 79.4336 491.718 79.9228 491.065C80.412 490.357 83.0755 482.571 82.2057 483.006C81.3361 483.442 80.1402 483.714 78.9443 484.64C77.7485 485.566 78.0746 476.364 77.2593 476.962C76.4439 477.561 74.4871 477.997 74.4871 477.997C74.4871 477.997 72.802 467.216 72.041 465.855C72.041 465.855 71.28 479.195 70.4103 478.269C69.5406 477.344 68.236 474.676 68.236 474.676C68.236 474.676 70.4103 484.912 69.1057 485.075C67.8555 485.239 64.1592 484.368 64.1592 484.368C64.1592 484.368 68.4534 491.446 67.4207 490.902C66.3878 490.412 63.9418 489.54 63.9418 489.54C63.9418 489.54 67.9642 493.134 66.8227 493.134C65.6812 493.134 61.7675 493.406 61.7675 493.406C61.7675 493.406 67.475 498.416 65.7899 497.817C64.1049 497.218 59.2127 496.347 59.2127 496.347C59.2127 496.347 68.3447 505.549 65.7899 504.895C63.2895 504.187 61.2783 503.425 61.2783 503.425C61.2783 503.425 66.6596 508.271 65.1376 507.999C63.6156 507.727 59.9737 507.672 59.9737 507.672C59.9737 507.672 64.431 512.3 64.5941 512.736C64.5941 512.79 64.5397 512.79 64.3766 512.627C63.3438 511.919 58.343 510.395 56.06 510.231V511.865C58.7235 514.206 64.4854 518.235 62.5285 517.745C61.8762 517.582 61.1152 517.419 60.4086 517.201C61.2783 516.765 61.8218 516.547 61.8218 516.547L60.028 517.146C58.2886 516.711 56.7123 516.384 56.7123 516.384C56.7123 516.384 57.2015 516.983 57.9081 517.854L56.06 518.453V519.324C56.7666 518.943 57.5276 518.617 58.2343 518.235C59.9193 520.359 62.3111 523.408 61.9305 523.354C61.8762 523.354 61.8218 523.354 61.8762 523.463C61.2783 523.789 60.3542 524.279 59.104 524.769C58.0168 524.388 56.8753 524.007 56.1143 523.789V524.769C56.3318 524.933 56.5492 525.151 56.7666 525.368C44.5906 521.176 32.5777 517.582 20.6191 514.478V513.444C19.9668 513.281 19.2058 513.117 18.3905 512.899C19.7494 513.063 20.6191 512.573 20.0212 512.191C19.1515 511.701 12.0307 506.583 13.8789 507.237C15.727 507.89 18.1187 507.345 18.1187 507.345C18.1187 507.345 17.5208 506.91 16.5967 506.256C18.2274 506.093 19.8582 505.93 20.5648 506.039V504.078C19.4776 503.806 18.4449 503.48 17.6839 503.098C15.3465 502.009 12.6286 500.648 10.9436 499.559C12.9004 498.851 15.1291 497.436 15.8357 496.673C15.9988 496.673 16.1618 496.673 16.3793 496.619V495.53C15.9444 495.748 15.5096 495.965 15.0747 496.129C12.3568 496.401 5.23608 497.436 7.35602 496.347C8.76929 495.584 10.5087 491.936 11.3784 489.268L11.4871 488.996C12.0851 487.199 12.2481 485.892 11.6502 486.382C10.1282 487.526 7.30164 490.575 7.73648 489.431C8.17133 488.288 13.6614 475.601 12.5199 476.363C11.4328 477.126 5.83398 484.858 6.16013 482.353C6.4863 479.794 9.85641 473.478 8.66055 474.349C7.46469 475.22 4.74686 479.576 4.52942 478.16C4.36636 477.071 6.59497 470.919 6.37756 468.849C7.79083 469.013 9.91077 469.013 9.91077 469.013C9.91077 469.013 4.20328 464.439 2.78998 463.568C1.37671 462.697 8.49747 458.994 6.37756 459.375C4.31198 459.756 -0.417084 460.791 0.126465 460.029C0.670044 459.266 3.60535 450.609 2.62692 451.153C1.6485 451.643 0.343903 451.916 -0.960663 452.95C-2.26523 453.985 -1.93909 443.802 -2.80878 444.456C-3.6785 445.109 -5.85281 445.599 -5.85281 445.599C-5.85281 445.599 -7.70096 433.675 -8.57068 432.205C-8.57068 432.205 -9.38602 446.961 -10.3644 445.926C-11.3429 444.891 -12.7561 441.897 -12.7561 441.897C-12.7561 441.897 -10.3644 453.222 -11.7777 453.44C-13.191 453.658 -17.2678 452.678 -17.2678 452.678C-17.2678 452.678 -12.5387 460.519 -13.6802 459.92C-14.8217 459.321 -17.5396 458.395 -17.5396 458.395C-17.5396 458.395 -13.1367 462.424 -14.3325 462.424C-15.5284 462.424 -19.9313 462.697 -19.9313 462.697C-19.9313 462.697 -13.6259 468.25 -15.5284 467.543C-17.4309 466.889 -22.8122 465.909 -22.8122 465.909C-22.8122 465.909 -12.7562 476.091 -15.5284 475.329C-18.3006 474.567 -20.5292 473.695 -20.5292 473.695C-20.5292 473.695 -14.5499 479.032 -16.2894 478.759C-18.0288 478.487 -22.0512 478.378 -22.0512 478.378C-22.0512 478.378 -20.7466 479.685 -19.4964 481.046C-20.7466 481.155 -22.5404 481.373 -24.2798 481.591C-25.0952 481.427 -25.8562 481.318 -26.4541 481.264V481.808C-28.6828 481.972 -30.0961 481.972 -28.7915 481.264C-27.0521 480.393 -24.9322 475.982 -23.7906 472.661L-23.6819 472.28C-22.9753 470.102 -22.7579 468.523 -23.5189 469.122C-25.4214 470.483 -28.9546 474.186 -28.411 472.824C-27.8674 471.463 -21.0728 456.108 -22.4317 457.034C-23.7906 457.959 -30.694 467.325 -30.3135 464.221C-29.933 461.172 -25.6931 453.495 -27.2151 454.529C-28.6828 455.618 -32.1073 460.845 -32.3791 459.157C-32.5965 457.796 -29.7699 450.391 -30.0961 447.941C-28.3567 448.104 -25.7475 448.104 -25.7475 448.104C-25.7475 448.104 -32.8139 442.605 -34.5534 441.516C-36.2928 440.427 -27.4869 436.016 -30.0961 436.452C-32.6509 436.887 -38.4671 438.14 -37.8148 437.214C-37.1625 436.288 -33.4662 425.834 -34.7164 426.487C-35.9123 427.086 -37.543 427.413 -39.1737 428.611C-40.8044 429.863 -40.3696 417.558 -41.4567 418.32C-42.5439 419.082 -45.2617 419.681 -45.2617 419.681C-45.2617 419.681 -47.2186 405.306 -48.3057 403.51C-48.3057 403.51 -49.3385 421.369 -50.5344 420.062C-51.7302 418.81 -53.4697 415.216 -53.4697 415.216C-53.4697 415.216 -50.5344 428.938 -52.2738 429.155C-54.0132 429.373 -59.0684 428.23 -59.0684 428.23C-59.0684 428.23 -53.1979 437.65 -54.6112 436.996C-56.0244 436.288 -59.3946 435.145 -59.3946 435.145C-59.3946 435.145 -53.9045 439.991 -55.4265 439.991C-56.9485 439.991 -62.3299 440.318 -62.3299 440.318C-62.3299 440.318 -54.5024 447.015 -56.8398 446.198C-58.6336 445.599 -62.8734 444.783 -64.8303 444.401C-64.6672 443.802 -64.7216 443.53 -64.939 443.694C-65.1021 443.802 -65.3195 444.02 -65.5913 444.293C-65.7544 444.238 -65.8631 444.238 -65.8631 444.238C-65.8631 444.238 -65.8087 444.293 -65.7 444.401C-68.2548 447.069 -74.6689 455.509 -74.2341 452.242C-73.7449 448.594 -68.7984 439.501 -70.5378 440.808C-72.2772 442.06 -76.2997 448.267 -76.6258 446.253C-76.8976 444.674 -73.5818 435.907 -73.9079 432.967C-71.8424 433.185 -68.744 433.185 -68.744 433.185C-68.744 433.185 -77.115 426.651 -79.1806 425.344C-81.2461 424.092 -70.8096 418.81 -73.9079 419.354C-76.9519 419.899 -83.8553 421.369 -83.0399 420.28C-82.2246 419.191 -77.876 406.831 -79.3437 407.539C-80.8113 408.247 -82.7138 408.628 -84.6163 410.098C-86.5188 411.568 -86.0839 397.03 -87.3341 397.901C-88.6387 398.827 -91.8458 399.535 -91.8458 399.535C-91.8458 399.535 -94.5636 382.437 -95.8682 380.368C-95.8682 380.368 -97.0641 401.495 -98.5317 400.025C-99.9994 398.5 -102.011 394.308 -102.011 394.308C-102.011 394.308 -98.5317 410.534 -100.543 410.806C-102.609 411.078 -108.588 409.717 -108.588 409.717C-108.588 409.717 -101.63 420.879 -103.315 420.062C-105 419.246 -108.968 417.884 -108.968 417.884C-108.968 417.884 -102.445 423.602 -104.294 423.602C-106.142 423.602 -112.502 424.037 -112.502 424.037C-112.502 424.037 -103.206 431.932 -105.979 431.007C-108.751 430.027 -116.687 428.665 -116.687 428.665C-116.687 428.665 -101.902 443.258 -105.979 442.169C-110.055 441.08 -113.317 439.828 -113.317 439.828C-113.317 439.828 -112.719 440.318 -111.904 441.08C-115.872 441.679 -123.101 442.822 -122.231 441.842C-121.253 440.808 -116.035 428.829 -117.774 429.537C-119.514 430.244 -121.851 430.571 -124.188 431.987C-126.526 433.403 -125.928 419.354 -127.504 420.226C-129.08 421.097 -132.94 421.805 -132.94 421.805C-132.94 421.805 -136.256 405.306 -137.778 403.292C-137.778 403.292 -139.245 423.71 -140.985 422.24C-142.724 420.77 -145.225 416.686 -145.225 416.686C-145.225 416.686 -140.985 432.368 -143.485 432.64C-145.931 432.913 -153.215 431.606 -153.215 431.606C-153.215 431.606 -144.79 442.387 -146.801 441.624C-148.812 440.808 -153.65 439.501 -153.65 439.501C-153.65 439.501 -145.822 445.055 -147.997 445.055C-148.975 445.055 -150.986 445.109 -152.998 445.218C-154.954 442.986 -158.107 439.501 -159.14 438.575C-160.716 437.16 -152.835 431.388 -155.172 431.987C-157.455 432.586 -162.673 434.165 -162.075 432.967C-161.477 431.769 -158.216 418.157 -159.303 418.973C-160.39 419.79 -161.858 420.171 -163.271 421.75C-164.739 423.329 -164.358 407.376 -165.337 408.356C-166.315 409.336 -168.707 410.152 -168.707 410.152C-168.707 410.152 -170.772 391.367 -171.751 389.08C-171.751 389.08 -172.675 412.33 -173.762 410.697C-174.849 409.063 -176.371 404.381 -176.371 404.381C-176.371 404.381 -173.762 422.24 -175.284 422.513C-176.806 422.839 -181.372 421.315 -181.372 421.315C-181.372 421.315 -181.1 421.914 -180.774 422.785C-183.601 420.389 -186.862 417.721 -188.167 416.85C-190.558 415.216 -178.545 408.573 -182.079 409.281C-185.612 409.989 -193.548 411.786 -192.624 410.425C-191.7 409.063 -186.699 393.436 -188.384 394.362C-190.069 395.288 -192.243 395.723 -194.472 397.575C-196.701 399.426 -196.157 381.022 -197.625 382.165C-199.092 383.309 -202.789 384.234 -202.789 384.234C-202.789 384.234 -205.941 362.618 -207.409 360.004C-207.409 360.004 -208.822 386.739 -210.453 384.833C-212.138 382.928 -214.476 377.591 -214.476 377.591C-214.476 377.591 -210.453 398.119 -212.79 398.446C-215.128 398.772 -222.086 397.084 -222.086 397.084C-222.086 397.084 -214.041 411.241 -215.998 410.207C-217.954 409.172 -222.52 407.43 -222.52 407.43C-222.52 407.43 -215.019 414.672 -217.085 414.672C-219.15 414.672 -226.488 415.162 -226.488 415.162C-226.488 415.162 -215.834 425.181 -218.987 423.928C-221.053 423.166 -225.619 422.131 -228.554 421.532C-228.88 417.884 -229.043 413.583 -229.696 414.127C-230.891 415.053 -233.827 415.761 -233.827 415.761C-233.827 415.761 -236.327 398.446 -237.523 396.377C-237.523 396.377 -238.61 417.775 -239.969 416.251C-241.328 414.726 -243.176 410.479 -243.176 410.479C-243.176 410.479 -239.969 426.923 -241.817 427.195C-243.72 427.468 -249.264 426.106 -249.264 426.106C-249.264 426.106 -245.731 432.368 -244.535 435.254C-247.035 433.13 -256.385 425.126 -258.994 423.384C-262.038 421.369 -246.927 412.984 -251.33 413.855C-255.733 414.726 -265.734 417.013 -264.538 415.325C-263.397 413.583 -257.091 393.981 -259.211 395.124C-261.277 396.268 -264.104 396.867 -266.876 399.154C-269.648 401.44 -268.941 378.408 -270.79 379.824C-272.638 381.294 -277.312 382.437 -277.312 382.437C-277.312 382.437 -281.28 355.321 -283.129 352C-283.129 352 -284.868 385.541 -286.934 383.145C-288.999 380.858 -291.826 374.379 -291.989 374.052C-291.88 374.651 -286.988 399.807 -289.923 400.188C-290.847 400.297 -292.369 400.188 -294 399.97V413.093C-293.456 414.454 -293.348 415.216 -293.891 414.944C-293.946 414.944 -293.946 414.89 -294 414.89V541.976V570.671V642H467V608.677V559.236V416.578C466.293 423.438 465.424 429.319 464.445 428.284ZM95.9581 540.07C95.9038 540.07 95.7407 540.179 95.5233 540.288C95.4689 540.233 95.4689 540.179 95.4146 540.124C95.8494 540.07 96.0669 540.015 95.9581 540.07ZM94.5992 538.219C94.9254 538.436 95.3058 538.6 95.632 538.709C95.1971 538.6 94.7079 538.491 94.2187 538.382C94.0556 538.055 94.11 537.946 94.5992 538.219ZM87.4784 527.22C87.9133 527.437 88.5656 527.383 89.2722 527.22C90.1963 528.635 92.0444 530.977 93.349 531.467C93.8925 531.685 94.0013 531.902 93.7838 532.175C90.6311 529.888 86.0651 526.566 87.4784 527.22ZM62.0393 523.572C62.3111 524.17 64.1049 526.24 62.6916 525.967C62.148 525.858 61.1152 525.477 59.9737 525.096C60.7891 524.443 61.55 523.898 62.0393 523.572ZM98.2411 541.594C98.2411 541.594 98.1868 541.649 98.0237 541.758C97.9694 541.758 97.9694 541.758 97.915 541.703C98.1324 541.649 98.2411 541.594 98.2411 541.594ZM-67.2764 477.017C-66.5697 476.799 -65.8631 476.472 -65.1564 476.146C-64.0693 477.561 -63.0365 478.868 -62.4929 479.63C-64.3411 478.705 -66.0262 477.834 -67.2764 477.017ZM-63.0909 483.224C-63.5257 483.061 -63.9606 482.952 -64.4498 482.789C-64.6129 482.68 -64.7759 482.516 -64.9934 482.407C-64.8303 482.299 -64.6672 482.19 -64.4498 482.026C-64.0149 482.462 -63.5257 482.897 -63.0909 483.224ZM-64.8303 481.645C-65.0477 481.754 -65.3195 481.863 -65.5913 481.972C-69.505 479.195 -72.8208 476.69 -71.1901 477.398C-70.4834 477.725 -69.4506 477.67 -68.3091 477.344C-67.4938 478.542 -66.1892 480.229 -64.8303 481.645ZM16.2706 512.083C16.6511 512.355 17.0316 512.518 17.4121 512.627C16.9229 512.518 16.3793 512.355 15.8357 512.246C15.727 511.865 15.7813 511.756 16.2706 512.083ZM8.44315 499.886C8.93237 500.104 9.63898 500.049 10.4 499.831C11.3784 501.356 13.4984 503.97 14.9116 504.514C15.5096 504.732 15.6183 505.004 15.4008 505.331C11.922 502.881 6.86679 499.232 8.44315 499.886ZM-18.3549 481.917C-17.4308 482.897 -16.7242 483.769 -16.6699 483.932C-16.6699 483.986 -16.7242 483.986 -16.9417 483.823C-17.3765 483.551 -18.3549 483.115 -19.5508 482.734C-19.0616 482.462 -18.6811 482.19 -18.3549 481.917ZM-20.5292 494.278C-20.5292 494.278 -20.4749 494.278 -20.5292 494.278C-20.0944 494.822 -19.8226 495.203 -19.7139 495.475C-20.801 494.55 -21.3446 494.005 -20.5292 494.278ZM-23.7906 484.967C-23.3014 485.402 -22.7579 485.783 -22.2143 486.219C-22.9209 485.838 -23.5732 485.457 -24.1168 485.13C-24.0081 485.021 -23.8994 485.021 -23.7906 484.967ZM-27.4326 485.402C-26.8347 485.674 -25.9649 485.62 -24.9865 485.348C-24.3342 486.273 -23.3558 487.58 -22.323 488.669C-22.9209 488.506 -23.5189 488.397 -24.0081 488.288C-26.6716 486.382 -28.6284 484.858 -27.4326 485.402ZM-72.0054 462.479C-71.5162 461.172 -66.2436 449.302 -64.9934 445.109C-62.2212 447.886 -53.9045 456.435 -56.7854 455.673C-60.2643 454.747 -62.9821 453.712 -62.9821 453.712C-62.9821 453.712 -55.5896 460.137 -57.7095 459.811C-59.8294 459.484 -64.8303 459.375 -64.8303 459.375C-64.8303 459.375 -58.6879 465.528 -58.5249 466.181C-58.5249 466.29 -58.5792 466.236 -58.851 466.072C-59.8838 465.365 -63.7431 464.112 -66.9502 463.404C-66.8415 463.023 -66.6784 462.697 -66.5697 462.315L-66.4066 461.88C-65.5369 459.321 -65.3195 457.469 -66.1892 458.123C-68.4722 459.702 -72.6577 464.112 -72.0054 462.479ZM-72.4946 472.443C-71.1357 471.735 -69.6137 469.285 -68.3091 466.563C-65.6456 468.632 -62.3842 471.027 -61.2427 472.171C-61.7863 472.225 -62.4386 472.28 -63.1452 472.389C-63.5257 472.28 -63.9606 472.225 -64.3411 472.116C-63.1452 471.572 -62.3842 471.191 -62.3842 471.191L-64.8303 471.953C-67.222 471.409 -69.3963 470.919 -69.3963 470.919C-69.3963 470.919 -68.744 471.735 -67.7656 472.879C-71.3531 473.26 -74.3972 473.423 -72.4946 472.443ZM-111.36 441.624C-108.914 443.857 -105.435 447.287 -107.12 447.015C-109.675 446.579 -115.546 446.471 -115.546 446.471C-115.546 446.471 -113.969 448.05 -112.284 449.792C-114.513 448.431 -116.633 447.178 -117.611 446.688C-119.459 445.872 -113.534 442.986 -111.36 441.624ZM-108.099 454.529C-108.044 454.638 -108.207 454.584 -108.479 454.42C-108.588 454.366 -108.697 454.311 -108.805 454.257C-108.642 454.257 -108.479 454.257 -108.316 454.257C-108.153 454.366 -108.099 454.475 -108.099 454.529ZM-111.523 462.479C-112.067 462.37 -112.665 462.207 -113.263 462.043C-113.099 461.553 -112.936 461.063 -112.773 460.627C-112.719 460.627 -112.719 460.573 -112.719 460.573H-112.773C-112.773 460.519 -112.773 460.519 -112.719 460.464C-110.98 461.88 -110.219 462.751 -111.523 462.479ZM-111.414 473.423C-111.577 473.423 -111.686 473.26 -111.686 472.988C-111.577 473.151 -111.469 473.26 -111.414 473.423ZM-155.118 447.342C-152.074 449.52 -147.779 452.732 -150.008 452.133C-151.258 451.807 -153.324 451.425 -155.444 451.044C-155.226 449.574 -155.118 448.267 -155.118 447.342ZM-153.976 462.043C-153.596 460.736 -153.215 459.484 -152.943 458.395C-151.747 459.484 -150.715 460.519 -150.008 461.335C-150.28 461.771 -150.552 462.261 -150.878 462.805C-151.965 462.479 -152.998 462.261 -153.976 462.043ZM-152.508 465.528C-152.943 466.236 -153.378 466.889 -153.759 467.434C-154.248 467.379 -154.737 467.379 -155.281 467.325C-155.118 466.345 -154.846 465.147 -154.52 463.894C-153.759 464.439 -153.106 465.038 -152.508 465.528ZM-156.259 455.4C-155.444 456.108 -154.683 456.762 -153.867 457.469C-154.683 458.831 -155.607 460.573 -156.259 461.39C-156.585 461.281 -156.911 461.226 -157.183 461.118C-157.129 460.137 -156.694 457.851 -156.259 455.4ZM-182.024 426.487C-181.155 426.596 -180.122 426.651 -179.143 426.651C-177.893 429.863 -176.643 433.185 -177.35 432.695C-178.6 431.769 -181.589 430.299 -181.589 430.299C-181.589 430.299 -178.056 434.873 -177.839 436.234C-177.893 436.234 -178.002 436.288 -178.111 436.397C-178.219 436.452 -178.274 436.561 -178.382 436.615C-179.796 436.67 -182.894 436.942 -183.927 437.051C-182.894 433.13 -181.753 428.611 -182.024 426.487ZM-179.306 444.728C-179.578 444.565 -179.959 444.456 -180.339 444.293C-180.176 443.857 -180.013 443.367 -179.796 442.931C-178.98 444.184 -178.545 445.109 -179.306 444.728ZM-183.981 437.377C-183.546 437.922 -182.568 439.174 -181.535 440.535C-182.35 441.57 -183.111 442.55 -183.764 443.149C-184.253 442.986 -184.688 442.877 -185.123 442.768C-185.068 441.679 -184.579 439.664 -183.981 437.377ZM-181.318 451.425C-182.024 451.97 -182.459 451.916 -182.296 450.827C-182.242 450.554 -182.242 450.282 -182.133 450.01C-181.916 450.5 -181.589 450.99 -181.318 451.425ZM-218.226 437.268C-218.009 437.922 -218.172 438.249 -218.933 438.031C-218.987 438.031 -219.042 437.976 -219.096 437.976C-218.824 437.759 -218.498 437.486 -218.226 437.268ZM-223.336 430.081C-221.433 432.368 -219.694 434.6 -218.824 436.125C-220.02 436.397 -221.433 436.67 -222.683 436.887C-223.716 436.561 -224.586 436.234 -225.293 435.962C-224.803 434.709 -223.988 432.368 -223.336 430.081ZM-219.748 443.694C-220.781 442.877 -221.596 442.223 -222.086 441.897C-222.466 441.624 -222.357 441.189 -221.977 440.644C-220.89 441.897 -220.02 443.04 -219.748 443.694ZM-225.673 436.778C-225.564 436.887 -225.456 436.996 -225.347 437.105C-225.619 437.051 -225.782 436.942 -225.673 436.778ZM-226.706 426.106C-226.869 426.215 -226.978 426.324 -227.141 426.433C-227.63 426.869 -228.01 425.943 -228.228 424.418C-227.739 424.908 -227.249 425.507 -226.706 426.106ZM-244.318 435.635C-244.1 436.288 -244.046 436.615 -244.372 436.452C-244.861 436.179 -245.513 435.907 -246.22 435.581C-245.405 435.635 -244.752 435.635 -244.318 435.635ZM-251.384 435.363C-250.46 435.472 -249.373 435.526 -248.34 435.581C-246.655 437.268 -244.1 440.1 -245.296 440.1C-246.546 440.1 -250.134 440.318 -251.873 440.427C-251.438 438.357 -251.221 436.561 -251.384 435.363ZM-249.481 458.014C-249.101 456.979 -248.721 455.945 -248.34 454.965C-246.492 457.415 -245.459 459.212 -246.872 458.831C-247.742 458.558 -248.666 458.286 -249.481 458.014ZM-247.416 463.459C-247.525 463.568 -247.633 463.677 -247.742 463.84C-247.796 463.84 -247.796 463.84 -247.851 463.84C-248.721 463.677 -250.025 463.568 -251.275 463.513C-251.004 462.424 -250.569 461.226 -250.188 460.029C-248.829 461.39 -247.633 462.805 -247.416 463.459ZM-252.036 441.243C-249.971 443.204 -244.807 448.267 -246.872 447.505C-248.231 447.015 -250.895 446.362 -253.123 445.872C-252.689 444.347 -252.308 442.768 -252.036 441.243ZM-253.721 448.485C-252.689 449.683 -251.493 451.044 -250.351 452.406C-252.689 455.455 -254.972 458.395 -255.243 456.435C-255.406 455.346 -254.645 452.133 -253.721 448.485ZM272.238 593.104L272.51 589.51L273.271 593.158L273.162 597.406C272.728 597.351 272.238 597.351 271.803 597.297L272.238 593.104ZM251.691 585.862C254.409 586.134 265.498 586.243 268.379 585.154C268.379 585.154 268.705 592.396 269.357 593.376C269.629 593.757 269.684 595.391 269.684 597.242C262.291 596.698 254.79 595.881 247.18 594.792L247.125 594.465L251.691 585.862ZM244.081 593.866C244.027 593.757 244.19 593.376 244.462 592.777L244.299 593.54L244.516 594.411C244.353 594.411 244.244 594.356 244.081 594.356C244.136 594.084 244.081 593.921 244.081 593.866ZM161.948 570.888C162.491 571.106 163.198 571.052 164.068 570.834C164.503 571.487 165.155 572.304 165.916 573.121C164.992 572.74 164.068 572.413 163.144 572.032C161.839 571.161 161.187 570.616 161.948 570.888ZM438.136 500.539C438.897 500.594 439.821 500.648 440.691 500.703C443.626 503.806 450.149 510.612 450.367 511.484C450.421 511.647 450.258 511.593 449.769 511.266C448.138 510.122 442.431 508.162 437.158 506.855C437.81 504.351 438.299 501.9 438.136 500.539ZM445.257 543.228C444.768 543.119 444.116 542.956 443.3 542.683C443.844 541.649 444.387 540.56 444.877 539.416C446.181 541.377 447.703 543.718 445.257 543.228ZM445.203 523.517C445.366 523.19 445.475 522.809 445.638 522.483C446.507 523.408 446.562 523.844 445.311 523.517C445.257 523.517 445.203 523.517 445.203 523.517ZM440.365 535.278C440.474 534.952 440.8 534.135 441.289 532.991C441.615 533.427 441.941 533.917 442.267 534.298C440.909 535.496 440.039 536.204 440.365 535.278ZM440.093 522.319C440.311 522.21 440.528 522.101 440.745 521.992C440.637 522.101 440.474 522.265 440.365 522.374C440.311 522.319 440.202 522.319 440.093 522.319ZM441.289 521.394L439.224 522.047C438.843 521.938 438.463 521.884 438.082 521.775C438.408 520.468 439.006 518.943 439.604 517.419C440.691 518.29 441.724 519.107 442.648 519.814C442.159 520.413 441.724 520.903 441.289 521.394ZM435.31 514.043C435.908 514.478 436.451 514.968 437.049 515.404C436.016 516.548 435.147 517.146 435.038 516.221C434.984 515.84 435.092 515.023 435.31 514.043ZM388.182 541.05C387.584 540.723 388.345 539.961 389.378 539.144C391.117 541.377 392.857 543.664 393.618 544.861C391.661 543.446 389.106 541.594 388.182 541.05ZM391.063 556.35C390.574 556.786 390.248 556.895 390.139 556.459C390.085 556.241 390.139 555.86 390.248 555.425C390.628 555.751 390.846 556.078 391.063 556.35ZM392.422 546.658C392.368 546.713 392.313 546.713 392.205 546.767C392.205 546.713 392.205 546.658 392.205 546.658C392.313 546.658 392.368 546.658 392.422 546.658ZM392.259 547.203C392.476 547.039 392.748 546.876 392.966 546.713C393.4 546.713 393.835 546.767 394.27 546.767C395.249 548.292 397.26 550.96 395.085 550.47C394.433 550.306 393.237 549.98 391.878 549.49C392.096 548.618 392.205 547.856 392.259 547.203ZM388.236 528.635C392.966 532.338 397.64 535.932 395.031 535.278C393.835 534.952 392.422 534.625 391.063 534.298C392.694 533.536 393.727 533.046 393.727 533.046L390.411 534.135C389.161 533.863 387.91 533.536 386.932 533.318C387.53 531.521 388.128 529.615 388.236 528.635ZM386.225 535.224C386.28 535.333 386.334 535.387 386.443 535.496L386.062 535.605C386.117 535.442 386.171 535.333 386.225 535.224ZM385.247 537.347C385.301 537.293 385.356 537.184 385.41 537.021C385.953 536.748 386.497 536.476 387.041 536.258C387.367 536.639 387.639 537.021 387.965 537.456C386.28 537.674 384.921 537.783 385.247 537.347ZM356.383 572.685C356.492 571.814 356.927 570.507 357.47 569.146C357.688 569.037 357.905 568.928 358.123 568.874C358.557 569.418 359.047 569.963 359.536 570.562C357.797 572.576 356.22 574.155 356.383 572.685ZM359.482 580.036C358.557 580.907 357.851 581.397 358.123 580.798C358.177 580.581 358.394 580.091 358.721 579.328C358.992 579.546 359.264 579.818 359.482 580.036ZM357.742 588.694C358.394 588.312 359.155 587.387 359.862 586.189C361.112 587.115 362.199 587.931 362.471 588.312C360.84 588.53 359.264 588.639 357.742 588.694ZM362.362 577.477C361.71 577.259 360.895 577.041 360.08 576.715C361.112 576.007 362.036 575.408 362.634 574.972C362.96 575.68 365.189 578.076 363.45 577.749C363.341 577.749 363.178 577.695 363.015 577.64C363.015 577.205 362.906 577.041 362.58 577.314C362.526 577.368 362.471 577.422 362.362 577.477ZM363.395 567.513C364.102 568.112 364.211 568.438 363.504 568.275C363.395 568.275 363.287 568.22 363.178 568.22C363.232 567.948 363.287 567.73 363.395 567.513ZM362.743 574.809C362.634 574.809 362.634 574.809 362.634 574.918C362.036 575.244 361.167 575.68 360.08 576.061C360.514 575.027 360.949 573.883 361.384 572.794C362.362 573.992 362.96 574.863 362.743 574.809ZM362.634 566.914C362.362 567.186 362.091 567.567 361.765 567.894C361.438 567.839 361.112 567.73 360.786 567.676C361.873 567.186 362.58 566.914 362.634 566.914L360.351 567.567C359.645 567.404 358.938 567.24 358.286 567.131C358.721 566.097 359.101 565.117 359.318 564.463C360.569 565.335 361.765 566.206 362.634 566.914ZM355.894 561.904C356.709 562.558 357.742 563.32 358.775 564.082C358.123 564.736 357.253 565.879 356.492 566.805C356.329 566.75 356.22 566.75 356.22 566.75C356.22 566.75 356.274 566.805 356.383 566.914C355.459 568.003 354.698 568.765 354.535 568.003C354.426 567.186 355.242 564.463 355.894 561.904Z" fill="#0C334B"/>
</g>
<defs>
<linearGradient id="paint0_linear" x1="106" y1="263.043" x2="106" y2="-23.5746" gradientUnits="userSpaceOnUse">
<stop stop-color="#1E5E87"/>
<stop offset="0.1741" stop-color="#255C7E"/>
<stop offset="0.3014" stop-color="#265370"/>
<stop offset="0.4249" stop-color="#164D6F"/>
<stop offset="0.5363" stop-color="#154868"/>
<stop offset="1" stop-color="#0C334B"/>
</linearGradient>
<linearGradient id="paint1_linear" x1="172" y1="541.202" x2="172" y2="408.042" gradientUnits="userSpaceOnUse">
<stop stop-color="#1C4D6C"/>
<stop offset="1" stop-color="#134463"/>
</linearGradient>
<clipPath id="clip0">
<rect width="343" height="635" fill="white"/>
</clipPath>
</defs>
</svg>
