<svg width="343" height="635" viewBox="0 0 343 635" fill="none" xmlns="http://www.w3.org/2000/svg">
<g clip-path="url(#clip0)">
<rect width="343" height="635" fill="#FBFBFB"/>
<path d="M520 358C520 358 492.05 360.044 486.85 371.935C481.65 383.827 491.4 385.313 491.4 385.313C491.4 385.313 482.3 390.268 477.1 385.313C471.9 380.358 464.555 392.25 464.555 392.25C464.555 392.25 457.6 387.295 451.425 387.79C445.25 388.286 444.6 401.106 444.6 401.106C444.6 401.106 443.625 393.674 434.98 401.106C426.335 408.538 426.335 412.502 418.535 410.52C410.735 408.538 408.135 402.593 399.685 404.574C391.235 406.556 388.83 414.979 388.83 414.979C388.83 414.979 382.135 413.493 370.435 414.979C358.735 416.466 356.785 429.844 356.785 429.844C356.785 429.844 354.835 429.348 347.685 429.844C340.535 430.339 341.185 438.824 337.285 442.478C333.385 446.132 319.085 453.378 311.935 451.706C304.785 450.034 300.885 438.824 296.335 442.478C296.335 442.478 275.08 430.091 268.385 440.187C268.385 440.187 250.185 437.338 246.285 442.478C242.385 447.619 242.385 451.397 232.635 451.706C222.885 452.078 222.625 435.356 207.155 442.478C207.155 442.478 187.135 429.348 172.185 435.727C172.185 435.727 177.385 428.791 172.185 424.827C166.985 420.863 162.175 426.313 156.455 425.322C150.735 424.331 145.405 411.449 137.02 413.431C128.635 415.413 118.235 418.014 118.235 418.014C118.235 418.014 114.335 410.458 104.585 410.458C94.835 410.458 87.685 418.014 87.685 418.014C87.685 418.014 87.685 402.035 82.485 398.567C77.285 395.099 73.515 400.053 73.515 400.053C73.515 400.053 71.89 386.18 59.67 387.666C47.45 389.153 46.995 395.594 39.715 395.099C32.5 394.665 24.7 362.521 0 377.385V493.016H520V358Z" fill="#ECF8FF"/>
<path d="M0 443C0 443 21.981 444.461 26.0705 453.082C30.16 461.704 22.4922 462.775 22.4922 462.775C22.4922 462.775 29.6488 466.38 33.7383 462.775C37.8278 459.171 43.6042 467.792 43.6042 467.792C43.6042 467.792 49.0739 464.188 53.9301 464.577C58.7864 464.918 59.2976 474.221 59.2976 474.221C59.2976 474.221 60.0644 468.864 66.8631 474.221C73.6619 479.579 73.6619 482.453 79.7962 481.041C85.9304 479.628 87.9751 475.293 94.6206 476.754C101.266 478.167 103.157 484.304 103.157 484.304C103.157 484.304 108.423 483.232 117.624 484.304C126.825 485.375 128.359 495.068 128.359 495.068C128.359 495.068 129.892 494.727 135.515 495.068C141.138 495.409 140.627 501.595 143.694 504.274C146.762 506.904 158.008 512.165 163.631 510.996C169.254 509.827 172.321 501.644 175.899 504.274C175.899 504.274 192.615 495.312 197.88 502.618C197.88 502.618 212.193 500.524 215.26 504.274C218.328 507.976 218.328 510.703 225.995 510.996C233.663 511.288 233.868 499.111 246.034 504.274C246.034 504.274 261.778 494.727 273.536 499.403C273.536 499.403 269.446 494.386 273.536 491.513C277.625 488.639 281.408 492.584 285.906 491.854C290.405 491.123 294.597 481.82 301.191 483.232C307.785 484.645 315.964 486.593 315.964 486.593C315.964 486.593 319.031 481.089 326.699 481.089C334.367 481.089 339.99 486.593 339.99 486.593C339.99 486.593 339.99 475.001 344.079 472.517C348.169 469.984 351.134 473.588 351.134 473.588C351.134 473.588 352.412 463.555 362.022 464.626C371.632 465.698 371.99 470.374 377.715 469.984C383.441 469.643 389.575 446.312 409 457.076V540.902H0V443Z" fill="#BFE6FF"/>
<path d="M-32 528.955C-13.25 528.955 25.1875 481.599 29.875 480.923C34.5625 480.246 41.125 486.335 41.125 486.335C41.125 486.335 55.6562 483.629 67.375 473.481C79.0938 463.333 88 458.598 99.7188 460.627C99.7188 460.627 111.906 447.097 118.938 430.184C125.969 413.271 130.188 424.772 130.188 424.772C130.188 424.772 136.281 411.918 139.562 409.212C142.844 406.506 147.531 413.948 151.75 413.948C155.969 413.948 171.438 380.122 178.469 378.093C185.5 376.063 199.562 407.859 211.75 416.654C223.938 425.449 228.156 448.45 235.188 461.98C242.219 475.51 266.125 476.863 271.75 487.011C277.375 497.159 284.406 512.042 289.094 504.6C293.781 497.159 296.594 509.336 301.75 515.425C306.906 521.513 343 528.955 343 528.955V627.725H-32V528.955Z" fill="#5386A7"/>
<path d="M74.4062 577.664C90.3438 560.075 120.344 550.604 121.75 539.78C123.156 528.956 114.719 535.044 118 526.25C121.281 517.455 160.188 507.307 160.656 495.807C161.125 484.306 145.188 486.335 147.062 478.217C148.938 470.099 159.25 457.922 160.656 452.51C162.062 447.098 155.969 445.068 155.5 440.333C155.031 435.597 176.125 416.655 176.125 403.801C176.125 390.947 170.172 387.091 178.469 378.094C171.438 380.123 155.969 413.949 151.75 413.949C147.531 413.949 142.844 406.507 139.562 409.213C136.281 411.919 130.188 424.773 130.188 424.773C130.188 424.773 125.969 413.272 118.938 430.185C111.906 447.098 99.7188 460.628 99.7188 460.628C88 458.599 79.0938 463.334 67.375 473.482C55.6562 483.629 41.125 486.335 41.125 486.335C41.125 486.335 34.5625 480.247 29.875 480.923C25.1875 481.6 -13.25 528.956 -32 528.956V627.726H66.4375C66.4375 627.726 58.4688 595.254 74.4062 577.664Z" fill="#3A7295"/>
<path d="M241.75 486.403C251.594 494.588 244.094 507.307 235.656 515.425C227.219 523.543 228.625 538.426 226.281 547.221C223.937 556.015 207.062 566.163 223.937 561.428C240.812 556.692 228.625 547.221 240.344 535.72C252.062 524.219 258.156 526.925 258.625 516.101C259.094 505.277 261.437 505.954 265.187 502.909C268.937 499.865 268.047 482.952 271.75 487.011C266.125 476.864 242.219 475.511 235.187 461.98C242.922 481.058 231.906 478.217 241.75 486.403Z" fill="#3A7295"/>
<path d="M80.4063 464.01C79.8907 470.437 82.3751 474.496 82.3751 477.54C82.3751 482.276 71.1251 485.658 70.0001 495.129C68.8751 504.6 72.5782 511.839 55.7969 512.313C47.5001 512.516 29.4063 547.018 33.6251 548.371C37.8438 549.724 50.9688 533.014 63.1563 524.219C75.3438 515.425 81.9063 522.19 79.5626 512.313C77.2188 502.436 73.4688 501.894 87.0626 491.07C100.656 480.246 90.8126 471.451 99.7188 460.627C92.6876 459.41 86.6407 460.627 80.4063 464.01Z" fill="#5386A7"/>
<path d="M25.1875 500.541C29.1719 497.159 30.1094 500.88 34.0938 495.806C38.0781 490.732 36.6719 488.026 41.125 486.335C41.125 486.335 34.5625 480.246 29.875 480.923C29.8281 480.923 29.7812 480.923 29.7344 480.99C28.4219 483.223 27.9062 486.402 26.5938 489.041C24.25 493.776 17.4531 501.556 17.4531 504.939C17.4531 508.321 21.2031 503.924 25.1875 500.541Z" fill="#5386A7"/>
<path d="M332.21 592.042C305.159 589.925 290.327 567.574 271.639 567.013C252.952 566.453 236.812 583.512 216.884 587.061C196.889 590.61 198.849 600.571 175 605.489C151.151 610.408 124.753 591.294 107.307 591.294C89.9261 591.294 71.892 614.704 63.4631 616.136C55.0994 617.568 50.5909 619 42.8153 621.801C35.1051 624.665 26.6761 614.019 17.0057 613.272C7.33523 612.587 -12.6591 626.035 -32 635.312H359V602.688C349.46 597.022 340.509 592.726 332.21 592.042Z" fill="#376887"/>
<path d="M249.227 604.68C250.991 593.474 264.452 589.302 264.06 582.267C263.602 575.294 255.108 577.224 266.347 567.387C249.815 569.691 234.918 583.886 216.884 587.123C196.889 590.672 198.849 600.633 175 605.552C151.151 610.47 124.753 591.357 107.307 591.357C89.9261 591.357 71.892 614.766 63.4631 616.198C55.0994 617.63 50.5909 619.062 42.8153 621.864C35.0398 624.665 26.6761 614.081 17.0057 613.334C7.33523 612.649 -12.6591 626.097 -32 635.374H221.131C198.784 621.677 247.463 615.887 249.227 604.68Z" fill="#234961"/>
<path d="M144.682 613.396C149.06 608.416 166.44 606.361 166.44 606.361C145.008 606.299 122.597 591.357 107.241 591.357C106.653 591.357 106.065 591.419 105.412 591.419C99.3352 593.474 92.8011 607.108 102.798 605.054C112.795 602.999 96.7216 617.07 101.491 617.941C106.261 618.751 92.4091 627.903 97.571 630.393C102.733 632.883 103.648 635.374 103.648 635.374H115.409C115.409 635.374 127.17 627.903 138.082 622.922C148.994 617.941 140.304 618.439 144.682 613.396Z" fill="#376887"/>
<path d="M114.926 477.925C116.379 477.868 117.926 478.35 119.229 477.74C120.002 477.381 120.614 476.659 121.446 476.447C121.802 476.368 122.62 476.452 122.812 476.116C122.713 476.032 122.603 475.896 122.473 475.792C122.245 475.603 121.985 475.394 121.793 475.25C120.966 474.768 119.968 475.79 119.045 475.596C118.599 475.508 118.26 475.184 117.927 474.885C116.132 473.285 113.778 472.29 111.377 472.158C111.58 472.353 111.809 472.542 112.018 472.762C111.563 472.756 111.109 472.751 110.68 472.74C110.934 472.923 111.149 473.169 111.338 473.42C111.011 473.386 110.655 473.465 110.379 473.66C110.57 473.804 110.813 473.936 111.064 473.987C110.898 474.077 110.7 474.148 110.534 474.238C111.764 474.737 112.981 475.293 114.158 475.91C114.519 476.097 114.945 476.455 114.784 476.81C114.711 476.96 114.545 477.05 114.404 477.135C113.746 477.415 113.004 477.313 112.307 477.415C111.661 477.506 111.043 477.723 110.479 478.062C110.736 478.138 110.992 478.214 111.244 478.265C111.08 478.488 110.916 478.711 110.758 478.959C111.001 478.852 111.224 478.775 111.478 478.719C111.517 478.897 111.481 479.091 111.413 479.266C112.375 478.439 113.625 477.948 114.926 477.925Z" fill="#1D1D1D"/>
<path d="M81.4417 492.734C82.8949 492.677 84.4414 493.159 85.7449 492.549C86.518 492.19 87.1301 491.467 87.9624 491.256C88.3179 491.176 89.1363 491.261 89.3281 490.925C89.2293 490.84 89.1192 490.705 88.9893 490.601C88.7607 490.412 88.501 490.203 88.3091 490.059C87.4822 489.577 86.4836 490.599 85.5608 490.404C85.1149 490.317 84.7762 489.992 84.4431 489.693C82.648 488.094 80.2943 487.099 77.8929 486.967C78.0961 487.162 78.3247 487.351 78.5336 487.571C78.0793 487.565 77.625 487.56 77.1961 487.548C77.4501 487.732 77.6646 487.977 77.8538 488.228C77.5264 488.195 77.1709 488.274 76.8945 488.468C77.0864 488.612 77.3291 488.745 77.5803 488.796C77.4138 488.886 77.2163 488.957 77.0498 489.047C78.2803 489.546 79.4967 490.101 80.6736 490.719C81.0348 490.905 81.461 491.263 81.3003 491.619C81.227 491.769 81.0605 491.859 80.9195 491.944C80.2621 492.223 79.5199 492.122 78.823 492.224C78.1768 492.314 77.5589 492.532 76.9947 492.87C77.2515 492.947 77.5083 493.023 77.7594 493.073C77.5958 493.296 77.4322 493.519 77.2743 493.768C77.5169 493.66 77.7398 493.584 77.9938 493.528C78.0334 493.705 77.9967 493.9 77.9291 494.075C78.8967 493.273 80.172 492.776 81.4417 492.734Z" fill="#1D1D1D"/>
<path d="M175.863 461.324C177.316 461.267 178.862 461.749 180.166 461.139C180.939 460.781 181.551 460.058 182.383 459.846C182.739 459.767 183.557 459.852 183.749 459.516C183.65 459.431 183.54 459.296 183.41 459.191C183.182 459.002 182.922 458.794 182.73 458.65C181.903 458.167 180.904 459.189 179.982 458.995C179.536 458.908 179.197 458.583 178.864 458.284C177.865 457.387 176.727 456.707 175.477 456.239L171.465 457.132C171.62 457.231 171.826 457.319 172.021 457.355C171.854 457.446 171.657 457.516 171.49 457.606C172.721 458.106 173.937 458.661 175.114 459.279C175.475 459.465 175.902 459.823 175.741 460.179C175.668 460.328 175.501 460.418 175.36 460.503C174.703 460.783 173.96 460.681 173.264 460.783C172.617 460.874 171.999 461.091 171.435 461.43C171.692 461.506 171.949 461.582 172.2 461.633C172.036 461.856 171.873 462.079 171.715 462.327C171.958 462.22 172.18 462.144 172.434 462.087C172.474 462.265 172.437 462.46 172.37 462.635C173.317 461.864 174.593 461.367 175.863 461.324Z" fill="#1D1D1D"/>
<path d="M99.3296 537.899C100.783 537.842 102.329 538.324 103.633 537.714C104.406 537.355 105.018 536.633 105.85 536.421C106.206 536.342 107.024 536.426 107.216 536.09C107.117 536.006 107.007 535.87 106.877 535.766C106.649 535.577 106.389 535.368 106.197 535.224C105.37 534.742 104.371 535.764 103.449 535.569C103.003 535.482 102.664 535.158 102.331 534.859C100.536 533.259 98.1821 532.264 95.7808 532.132C95.984 532.327 96.2126 532.516 96.4215 532.736C95.9672 532.73 95.5129 532.725 95.084 532.714C95.338 532.897 95.5525 533.142 95.7417 533.394C95.4143 533.36 95.0588 533.439 94.7823 533.634C94.9743 533.778 95.217 533.91 95.4681 533.961C95.3017 534.051 95.1042 534.122 94.9377 534.212C96.1682 534.711 97.3846 535.267 98.5614 535.884C98.9227 536.07 99.3489 536.429 99.1882 536.784C99.1148 536.934 98.9484 537.024 98.8073 537.109C98.15 537.388 97.4078 537.287 96.7108 537.389C96.0647 537.479 95.4468 537.697 94.8825 538.036C95.1393 538.112 95.3961 538.188 95.6473 538.239C95.4837 538.462 95.3201 538.685 95.1622 538.933C95.4048 538.826 95.6277 538.749 95.8817 538.693C95.9212 538.871 95.8846 539.065 95.8169 539.24C96.7789 538.413 98.0598 537.942 99.3296 537.899Z" fill="#1D1D1D"/>
<path d="M28.1994 558.874C29.4438 558.837 30.7843 559.231 31.9213 558.712C32.5984 558.401 33.1259 557.777 33.8312 557.594C34.136 557.526 34.8471 557.608 35.0191 557.303C34.9457 557.212 34.8215 557.133 34.7171 557.023C34.5195 556.854 34.2909 556.665 34.1103 556.572C33.4075 556.169 32.533 557.03 31.7231 556.864C31.3337 556.79 31.0571 556.505 30.7607 556.252C29.1998 554.867 27.1706 554.012 25.0909 553.889C25.2885 554.058 25.4607 554.233 25.6583 554.402C25.2604 554.411 24.8823 554.388 24.4844 554.397C24.7074 554.56 24.8852 554.761 25.0687 554.986C24.7724 554.972 24.4931 555.035 24.2364 555.198C24.4227 555.317 24.6089 555.435 24.8347 555.492C24.688 555.551 24.5215 555.641 24.3748 555.701C25.4303 556.132 26.4971 556.614 27.5188 557.133C27.8236 557.305 28.2074 557.593 28.0664 557.917C28.0185 558.061 27.8718 558.121 27.7251 558.18C27.1636 558.411 26.5089 558.344 25.9136 558.423C25.3436 558.497 24.8019 558.697 24.3336 558.988C24.5593 559.044 24.7597 559.106 24.9854 559.163C24.8416 559.355 24.6978 559.547 24.5596 559.764C24.7514 559.668 24.9743 559.592 25.1831 559.572C25.217 559.724 25.2001 559.888 25.1325 560.063C26.0098 559.335 27.0876 558.908 28.1994 558.874Z" fill="#1D1D1D"/>
<path d="M135.56 525.49C136.647 525.462 137.787 525.794 138.777 525.334C139.358 525.072 139.795 524.521 140.43 524.38C140.684 524.323 141.308 524.371 141.466 524.123C141.398 524.058 141.299 523.973 141.2 523.889C141.034 523.739 140.842 523.595 140.687 523.497C140.071 523.127 139.332 523.878 138.641 523.765C138.308 523.706 138.062 523.441 137.803 523.232C136.465 522.011 134.704 521.283 132.895 521.18C133.062 521.329 133.228 521.479 133.369 521.634C133.022 521.631 132.7 521.623 132.353 521.62C132.545 521.764 132.717 521.939 132.839 522.125C132.593 522.1 132.339 522.156 132.128 522.283C132.289 522.407 132.464 522.475 132.633 522.517C132.512 522.571 132.365 522.63 132.249 522.709C133.161 523.093 134.078 523.502 134.95 523.947C135.224 524.099 135.546 524.348 135.424 524.641C135.371 524.76 135.255 524.839 135.128 524.867C134.637 525.056 134.096 525.017 133.576 525.079C133.083 525.136 132.617 525.319 132.219 525.568C132.42 525.63 132.589 525.672 132.789 525.734C132.665 525.895 132.547 526.081 132.423 526.242C132.589 526.152 132.792 526.106 132.97 526.067C132.998 526.194 132.981 526.358 132.928 526.476C133.65 525.889 134.606 525.516 135.56 525.49Z" fill="#1D1D1D"/>
<path d="M309.664 447.349C310.751 447.321 311.891 447.653 312.881 447.193C313.462 446.93 313.9 446.38 314.534 446.239C314.788 446.182 315.412 446.23 315.57 445.982C315.502 445.917 315.403 445.832 315.305 445.748C315.138 445.598 314.946 445.454 314.791 445.355C314.176 444.986 313.437 445.737 312.745 445.624C312.412 445.565 312.167 445.3 311.907 445.091C310.569 443.87 308.808 443.142 306.999 443.039C307.166 443.188 307.332 443.338 307.473 443.493C307.126 443.49 306.805 443.482 306.458 443.479C306.65 443.623 306.822 443.798 306.943 443.984C306.698 443.959 306.444 444.015 306.232 444.142C306.393 444.266 306.568 444.334 306.737 444.376C306.616 444.43 306.469 444.489 306.354 444.568C307.265 444.952 308.182 445.36 309.054 445.806C309.328 445.958 309.65 446.207 309.529 446.5C309.475 446.619 309.359 446.698 309.232 446.726C308.742 446.915 308.2 446.876 307.681 446.938C307.187 446.995 306.721 447.178 306.323 447.427C306.524 447.489 306.693 447.531 306.894 447.593C306.769 447.754 306.651 447.94 306.527 448.101C306.693 448.011 306.896 447.965 307.074 447.926C307.102 448.053 307.086 448.216 307.032 448.335C307.754 447.748 308.685 447.381 309.664 447.349Z" fill="#1D1D1D"/>
<path d="M147.582 510.049C149.605 509.439 151.913 509.512 153.532 508.165C154.474 507.369 155.055 506.147 156.144 505.531C156.593 505.272 157.784 505.113 157.95 504.543C157.769 504.45 157.558 504.337 157.346 504.225C156.954 504.019 156.516 503.85 156.172 503.74C154.837 503.37 153.825 505.168 152.459 505.259C151.802 505.299 151.223 504.974 150.65 504.675C147.529 503.105 143.874 502.612 140.435 503.324C140.802 503.536 141.188 503.716 141.555 503.928C140.926 504.094 140.297 504.261 139.662 504.402C140.074 504.577 140.472 504.809 140.856 505.096C140.368 505.178 139.939 505.407 139.595 505.777C139.945 505.912 140.309 505.991 140.675 505.963C140.45 506.146 140.25 506.324 140.024 506.507C141.943 506.747 143.828 507.073 145.73 507.476C146.314 507.586 147.031 507.933 146.946 508.511C146.896 508.763 146.726 508.96 146.52 509.113C145.697 509.722 144.644 509.903 143.688 510.276C142.807 510.632 142.023 511.18 141.38 511.882C141.753 511.879 142.131 511.902 142.529 511.893C142.373 512.274 142.244 512.65 142.089 513.031C142.379 512.779 142.681 512.579 143.02 512.424C143.127 512.666 143.164 512.951 143.144 513.222C144.199 511.735 145.782 510.583 147.582 510.049Z" fill="#1D1D1D"/>
<path d="M202.002 499.136C204.025 498.526 206.333 498.599 207.952 497.252C208.895 496.456 209.476 495.234 210.565 494.619C211.013 494.359 212.204 494.2 212.37 493.63C212.19 493.537 211.978 493.424 211.766 493.312C211.374 493.106 210.937 492.937 210.592 492.827C209.257 492.458 208.245 494.255 206.879 494.346C206.222 494.386 205.643 494.061 205.07 493.763C201.949 492.192 198.294 491.699 194.855 492.411C195.222 492.623 195.609 492.803 195.975 493.015C195.346 493.182 194.717 493.348 194.082 493.49C194.494 493.664 194.892 493.896 195.276 494.183C194.788 494.265 194.359 494.494 194.015 494.864C194.365 494.999 194.729 495.078 195.096 495.05C194.87 495.233 194.67 495.411 194.444 495.595C196.363 495.834 198.248 496.16 200.15 496.563C200.734 496.673 201.451 497.02 201.367 497.599C201.316 497.85 201.147 498.047 200.941 498.2C200.117 498.81 199.064 498.99 198.108 499.363C197.228 499.719 196.443 500.267 195.8 500.97C196.173 500.967 196.551 500.989 196.949 500.981C196.794 501.362 196.664 501.737 196.509 502.118C196.799 501.867 197.101 501.666 197.44 501.511C197.547 501.753 197.584 502.038 197.564 502.309C198.619 500.822 200.207 499.696 202.002 499.136Z" fill="#1D1D1D"/>
<path d="M52.4549 514.457C54.0915 514.386 55.8384 514.93 57.3083 514.229C58.1773 513.823 58.8796 513.027 59.8136 512.792C60.2199 512.702 61.1201 512.795 61.357 512.422C61.2525 512.312 61.117 512.182 60.9561 512.058C60.6908 511.824 60.4001 511.596 60.1828 511.457C59.2627 510.916 58.1287 512.048 57.0733 511.856C56.571 511.755 56.1956 511.385 55.8315 511.067C53.8077 509.278 51.1407 508.193 48.443 508.047C48.6773 508.261 48.9172 508.501 49.1769 508.71C48.6718 508.716 48.1611 508.696 47.656 508.702C47.941 508.905 48.1866 509.17 48.4068 509.441C48.0287 509.418 47.6478 509.503 47.3205 509.709C47.5435 509.873 47.8116 510 48.0938 510.07C47.9019 510.166 47.6847 510.268 47.4928 510.364C48.8729 510.936 50.2586 511.534 51.585 512.225C52.0027 512.425 52.4656 512.828 52.2908 513.241C52.2232 513.415 52.0313 513.511 51.8395 513.607C51.1059 513.904 50.2622 513.825 49.4834 513.919C48.7554 514.001 48.0415 514.266 47.4068 514.647C47.689 514.718 47.9768 514.814 48.259 514.884C48.0757 515.138 47.8924 515.392 47.709 515.646C47.9714 515.508 48.2451 515.42 48.5301 515.383C48.5499 515.592 48.5443 515.807 48.4569 516.013C49.574 515.045 51.0017 514.514 52.4549 514.457Z" fill="#1D1D1D"/>
<path d="M259.836 477.336C261.105 477.053 262.528 477.217 263.583 476.449C264.206 476.017 264.629 475.283 265.332 474.967C265.62 474.823 266.359 474.791 266.494 474.441C266.401 474.382 266.277 474.303 266.127 474.23C265.885 474.097 265.642 473.965 265.436 473.877C264.629 473.604 263.926 474.64 263.074 474.643C262.676 474.651 262.329 474.409 261.988 474.192C260.142 473.083 257.932 472.616 255.785 472.907C256.002 473.045 256.22 473.183 256.437 473.322C256.05 473.381 255.644 473.471 255.258 473.531C255.5 473.663 255.749 473.821 255.952 474.016C255.667 474.053 255.373 474.171 255.153 474.38C255.359 474.468 255.585 474.524 255.805 474.555C255.67 474.665 255.529 474.75 255.368 474.865C256.542 475.111 257.696 475.387 258.836 475.719C259.181 475.829 259.629 476.049 259.525 476.419C259.477 476.563 259.367 476.667 259.226 476.752C258.687 477.085 258.035 477.15 257.437 477.337C256.89 477.512 256.371 477.814 255.925 478.206C256.17 478.232 256.385 478.237 256.63 478.262C256.523 478.5 256.411 478.711 256.303 478.948C256.484 478.801 256.701 478.7 256.899 478.629C256.958 478.776 256.972 478.959 256.93 479.129C257.686 478.214 258.718 477.585 259.836 477.336Z" fill="#1D1D1D"/>
<path d="M303.51 429.876C304.78 429.593 306.202 429.757 307.257 428.989C307.881 428.557 308.304 427.823 309.006 427.507C309.294 427.363 310.033 427.331 310.169 426.981C310.075 426.922 309.951 426.843 309.802 426.77C309.559 426.637 309.316 426.505 309.11 426.417C308.303 426.144 307.601 427.18 306.749 427.183C306.351 427.191 306.004 426.949 305.662 426.732C303.816 425.623 301.607 425.156 299.459 425.447C299.677 425.585 299.894 425.723 300.111 425.862C299.725 425.921 299.318 426.011 298.932 426.071C299.175 426.203 299.423 426.361 299.626 426.556C299.341 426.593 299.048 426.711 298.828 426.92C299.034 427.008 299.26 427.064 299.48 427.095C299.344 427.205 299.203 427.29 299.042 427.406C300.216 427.651 301.371 427.927 302.511 428.259C302.855 428.369 303.304 428.589 303.199 428.959C303.151 429.103 303.041 429.207 302.9 429.292C302.362 429.625 301.71 429.69 301.112 429.877C300.564 430.052 300.045 430.354 299.599 430.746C299.845 430.772 300.059 430.777 300.305 430.803C300.198 431.04 300.085 431.251 299.978 431.488C300.158 431.342 300.376 431.24 300.573 431.169C300.632 431.316 300.646 431.499 300.604 431.669C301.36 430.754 302.393 430.125 303.51 429.876Z" fill="#1D1D1D"/>
<path d="M71.4298 552.291C71.8078 552.073 72.2649 551.971 72.6909 551.85C74.8974 551.226 76.9428 549.997 78.5196 548.341C77.6336 548.431 76.6827 548.589 75.9436 549.1L75.6418 549.541C75.6756 549.453 75.6841 549.371 75.7122 549.259C75.6925 549.29 75.6417 549.301 75.622 549.332C75.7094 549.126 75.7968 548.92 75.9152 548.734C76.1493 548.228 76.4652 547.732 76.8798 547.32C76.8544 547.325 76.8234 547.306 76.8177 547.28C76.7754 547.21 76.8346 547.116 76.8684 547.029C76.9023 546.941 76.9305 546.829 76.843 546.795C76.6511 546.891 76.4593 546.987 76.2928 547.077C76.3915 546.922 76.4648 546.772 76.5579 546.592C75.8752 547.117 75.1869 547.616 74.5042 548.142C74.2531 548.331 73.9766 548.525 73.6606 548.542C73.2627 548.551 72.9099 548.283 72.5938 548.06C71.795 547.465 70.8722 547.031 69.9127 546.791C69.828 546.89 69.8112 547.054 69.8592 547.15C69.5883 547.13 69.3174 547.11 69.0465 547.091C69.1679 547.277 69.2385 547.474 69.264 547.709C68.979 547.745 68.6883 547.757 68.4033 547.794C68.7505 548.036 69.0976 548.279 69.4645 548.49C69.3686 548.538 69.2981 548.581 69.2022 548.629C69.6539 549.221 70.2804 549.641 70.9888 549.83C71.4149 549.948 72.0047 550.084 72.0556 550.552C72.0811 550.786 71.9486 551.029 71.7737 551.201C71.3449 551.67 70.7863 552.034 70.1825 552.195C70.0047 552.235 69.8072 552.305 69.7396 552.48C69.7114 552.593 69.734 552.695 69.7623 552.822C69.8414 553.177 69.7879 553.535 69.6215 553.866C70.3014 553.448 70.7498 552.708 71.4298 552.291Z" fill="#1D1D1D"/>
<path d="M45.4903 539.087C44.912 539.482 44.2123 539.692 43.4984 539.717C43.2839 539.712 43.0497 539.737 42.951 539.892C42.8918 539.985 42.9003 540.143 42.8975 540.251C42.9061 540.649 42.751 541.03 42.4718 541.332C43.3239 541.089 43.9924 540.38 44.8445 540.137C45.3213 540.004 45.801 540.004 46.3061 539.998C48.8514 539.938 51.3456 539.17 53.4953 537.812C52.502 537.66 51.4438 537.576 50.5381 537.937L50.0924 538.329C50.1516 538.236 50.2109 538.143 50.2447 538.056C50.1939 538.067 50.1742 538.098 50.1234 538.109C50.2672 537.917 50.4365 537.72 50.6114 537.548C51.0091 537.059 51.4745 536.636 52.0134 536.303C51.9824 536.283 51.957 536.289 51.9457 536.238C51.923 536.136 52.0133 536.063 52.0782 535.995C52.1431 535.927 52.1967 535.809 52.1289 535.744C51.9004 535.795 51.6718 535.846 51.4433 535.897C51.573 535.761 51.7225 535.595 51.8523 535.459C50.9776 535.84 50.0974 536.196 49.2227 536.577C48.9039 536.702 48.5654 536.857 48.2267 536.772C47.7809 536.685 47.507 536.293 47.2191 535.957C46.5218 535.1 45.644 534.389 44.6731 533.859C44.5631 533.963 44.5152 534.107 44.5181 534.24C44.2302 534.144 43.9423 534.048 43.6545 533.952C43.7308 534.175 43.7619 534.435 43.7309 534.655C43.429 534.615 43.096 534.556 42.794 534.517C43.113 534.872 43.4263 535.202 43.7199 535.563C43.6183 535.586 43.4914 535.614 43.3898 535.637C43.7174 536.39 44.2819 537.011 44.9847 537.414C45.4137 537.665 45.9866 537.964 45.9416 538.48C45.9417 538.72 45.7217 538.929 45.4903 539.087Z" fill="#1D1D1D"/>
<path d="M257.606 451.153C257.028 451.549 256.328 451.758 255.614 451.783C255.4 451.778 255.166 451.803 255.067 451.958C255.008 452.052 255.016 452.21 255.014 452.317C255.022 452.715 254.867 453.096 254.588 453.398C255.44 453.155 256.108 452.446 256.961 452.203C257.437 452.071 257.917 452.07 258.422 452.065C260.967 452.004 263.462 451.236 265.611 449.878C264.618 449.726 263.56 449.642 262.654 450.003L262.209 450.396C262.268 450.303 262.327 450.209 262.361 450.122C262.31 450.133 262.29 450.164 262.239 450.176C262.383 449.984 262.553 449.786 262.727 449.614C263.125 449.126 263.591 448.702 264.129 448.369C264.098 448.349 264.073 448.355 264.062 448.304C264.039 448.203 264.129 448.129 264.194 448.061C264.259 447.994 264.313 447.875 264.245 447.81C264.016 447.861 263.788 447.912 263.559 447.963C263.689 447.827 263.839 447.661 263.968 447.525C263.094 447.907 262.213 448.262 261.339 448.644C261.02 448.768 260.681 448.923 260.343 448.839C259.897 448.751 259.623 448.359 259.335 448.023C258.638 447.166 257.76 446.455 256.789 445.925C256.679 446.029 256.631 446.173 256.634 446.306C256.346 446.21 256.058 446.114 255.771 446.018C255.847 446.241 255.878 446.501 255.847 446.721C255.545 446.682 255.212 446.622 254.91 446.583C255.229 446.938 255.542 447.268 255.836 447.63C255.734 447.652 255.607 447.68 255.506 447.703C255.833 448.456 256.398 449.077 257.101 449.48C257.53 449.731 258.103 450.03 258.058 450.547C258.058 450.786 257.838 450.995 257.606 451.153Z" fill="#1D1D1D"/>
<path d="M118.987 504.313C118.408 504.708 117.709 504.917 116.995 504.943C116.78 504.937 116.546 504.963 116.447 505.118C116.388 505.211 116.397 505.369 116.394 505.476C116.402 505.874 116.247 506.255 115.968 506.557C116.82 506.314 117.489 505.606 118.341 505.363C118.818 505.23 119.297 505.23 119.802 505.224C122.348 505.164 124.842 504.396 126.992 503.038C125.998 502.886 124.94 502.801 124.034 503.163L123.589 503.555C123.648 503.462 123.707 503.369 123.741 503.281C123.69 503.293 123.67 503.324 123.62 503.335C123.764 503.143 123.933 502.945 124.108 502.773C124.505 502.285 124.971 501.862 125.51 501.528C125.479 501.509 125.453 501.514 125.442 501.464C125.419 501.362 125.51 501.289 125.574 501.221C125.639 501.153 125.693 501.035 125.625 500.97C125.397 501.021 125.168 501.071 124.94 501.122C125.069 500.987 125.219 500.82 125.349 500.685C124.474 501.066 123.594 501.422 122.719 501.803C122.4 501.927 122.062 502.083 121.723 501.998C121.277 501.911 121.003 501.519 120.715 501.183C120.018 500.325 119.14 499.614 118.169 499.084C118.059 499.189 118.011 499.333 118.014 499.465C117.726 499.369 117.439 499.274 117.151 499.178C117.227 499.401 117.258 499.66 117.227 499.88C116.925 499.841 116.592 499.782 116.29 499.742C116.609 500.098 116.923 500.428 117.216 500.789C117.115 500.812 116.988 500.84 116.886 500.862C117.214 501.616 117.778 502.236 118.481 502.64C118.91 502.891 119.483 503.19 119.438 503.706C119.438 503.946 119.218 504.155 118.987 504.313Z" fill="#1D1D1D"/>
<path d="M224.433 466.159C224.249 466.173 224.072 466.213 223.919 466.247C223.544 466.357 223.18 466.518 222.788 466.552C222.446 466.575 222.102 466.465 221.775 466.431C220.92 466.301 220.07 466.437 219.221 466.573C218.53 466.7 217.858 466.796 217.167 466.923C216.628 467.017 216.064 467.116 215.694 467.491C215.962 467.618 216.225 467.719 216.493 467.846C216.233 467.877 215.954 467.94 215.694 467.971C215.951 468.047 216.202 468.098 216.459 468.174C214.766 468.71 213.099 469.241 211.406 469.778C211.691 469.981 212.03 470.066 212.396 470.037C212.298 470.193 212.199 470.348 212.1 470.503C212.374 470.415 212.622 470.334 212.902 470.271C212.882 470.542 212.811 470.824 212.704 471.062C214.928 470.993 216.959 469.102 219.143 469.575C220.179 469.798 221.011 470.545 221.672 471.358C222.333 472.17 222.883 473.087 223.563 473.868C223.705 474.024 223.902 474.193 224.117 474.198C224.105 473.908 224.063 473.597 224.051 473.307C224.328 473.592 224.624 473.846 224.926 474.125C225.099 474.3 225.251 474.506 225.423 474.681C225.44 474.037 225.412 473.431 225.377 472.798C225.524 472.979 225.702 473.179 225.849 473.36C225.843 473.095 225.812 472.835 225.806 472.57C225.863 472.584 225.894 472.604 225.956 472.643L225.419 470.231C225.306 469.963 225.213 469.663 225.1 469.395C224.964 469.026 224.837 468.574 224.967 468.199L224.509 466.142L224.433 466.159Z" fill="#1D1D1D"/>
<path d="M101.414 508.224C101.781 507.956 102.068 507.572 102.181 507.121C101.464 506.774 100.589 506.675 99.8135 506.901C99.4382 507.011 99.0742 507.172 98.682 507.206C98.3406 507.229 97.9963 507.119 97.669 507.085C96.8139 506.956 95.9646 507.092 95.1153 507.227C94.424 507.355 93.7524 507.451 93.0611 507.578C92.5222 507.671 91.9579 507.77 91.5884 508.146C91.8565 508.272 92.1189 508.374 92.387 508.501C92.1274 508.532 91.8481 508.594 91.5885 508.625C91.8453 508.701 92.0965 508.752 92.3533 508.828C90.6604 509.365 88.9929 509.896 87.3 510.433C87.585 510.636 87.9237 510.72 88.2905 510.692C88.1918 510.847 88.0931 511.002 87.9944 511.158C88.2681 511.07 88.5164 510.988 88.7957 510.926C88.776 511.197 88.7056 511.479 88.5984 511.716C90.822 511.648 92.853 509.756 95.0373 510.23C96.0729 510.452 96.9056 511.2 97.5662 512.012C98.2267 512.825 98.7773 513.742 99.4576 514.523C99.5987 514.678 99.7963 514.847 100.011 514.853C99.9994 514.562 99.9569 514.252 99.9456 513.961C100.222 514.246 100.519 514.5 100.821 514.779C100.993 514.954 101.145 515.16 101.317 515.335C101.334 514.692 101.306 514.085 101.272 513.453C101.418 513.634 101.596 513.834 101.743 514.014C101.737 513.749 101.706 513.49 101.7 513.224C101.906 513.312 102.118 513.424 102.31 513.568C101.861 512.389 101.437 511.204 100.988 510.025C100.805 509.559 100.655 509.006 100.974 508.642C101.061 508.436 101.253 508.34 101.414 508.224Z" fill="#1D1D1D"/>
<path d="M56.5 144.274C78.3153 144.274 96 127.423 96 106.637C96 85.8506 78.3153 69 56.5 69C34.6848 69 17 85.8506 17 106.637C17 127.423 34.6848 144.274 56.5 144.274Z" fill="#ECF8FF"/>
</g>
<defs>
<clipPath id="clip0">
<rect width="343" height="635" fill="white"/>
</clipPath>
</defs>
</svg>
