<svg width="343" height="635" viewBox="0 0 343 635" fill="none" xmlns="http://www.w3.org/2000/svg">
<g clip-path="url(#clip0)">
<rect width="343" height="635" fill="#FBFBFB"/>
<path d="M521.992 0H-180V667H521.992V0Z" fill="url(#paint0_linear)"/>
<path d="M-24.0535 259.391C-21.7872 257.25 -16.751 255.047 -13.6034 256.432C-12.4073 256.999 -11.0224 258.635 -10.3299 259.643C-9.63741 260.587 -9.63741 261.342 -9.44856 262.412C-8.37837 262.287 -7.49703 261.468 -6.42684 262.098C-5.10484 262.916 -4.22351 265.938 -4.28646 267.386C-4.34941 269.526 -6.17503 270.219 -6.86751 271.918C-7.18227 272.737 -7.05637 274.562 -6.86751 275.381C-5.60846 275.318 -4.28646 274.373 -2.96446 274.122C-1.20179 273.744 1.00154 273.555 2.3865 275.003C2.82716 275.444 3.26783 276.262 3.39374 276.892C3.45669 277.269 3.26783 277.962 3.45669 278.277C3.96031 279.032 5.78593 277.962 6.54136 277.962C9.68898 277.899 11.0739 281.424 10.4444 284.005C10.0667 285.516 10.6962 287.782 9.31126 288.978C10.8221 288.727 14.5363 288.915 14.8511 290.93C14.5363 288.852 15.5435 285.957 16.9285 284.446C17.8098 283.439 19.2577 281.991 20.6427 281.739C22.2165 281.487 23.7903 282.746 25.3012 282.054C27.7563 280.921 28.7636 277.395 32.0371 278.025C33.0443 278.214 33.9886 278.906 34.6811 279.598C34.9958 279.913 36.066 281.487 36.6326 281.676C37.1992 281.865 37.7658 281.361 38.2064 281.172C39.9061 280.48 41.6059 280.48 43.3685 280.92C46.3902 281.739 47.0198 284.572 46.4532 287.405C46.2014 288.538 45.6978 289.356 46.0125 290.552C48.3418 289.797 49.6638 286.334 51.3005 284.824C53.0632 283.187 55.7701 283.753 57.9105 284.194C58.9807 284.383 58.603 284.383 59.4843 283.753C60.6804 282.872 61.6877 281.991 63.0726 281.361C64.9612 280.48 67.857 280.228 69.7456 281.235C70.6899 281.739 71.2564 283.124 72.2007 283.502C73.145 283.942 72.9562 283.627 74.1523 282.809C75.789 281.676 77.5517 280.543 79.5032 279.913C80.5734 279.536 81.4547 279.221 82.5879 279.787C83.4692 280.228 83.4063 281.046 84.5394 281.109C86.1762 281.235 88.3795 279.41 89.8904 279.158C92.2825 278.843 94.36 279.221 96.1227 280.983C98.4519 283.25 98.7666 286.271 99.0185 289.356C102.418 289.734 103.992 293.133 103.677 296.155C103.551 297.54 103.11 298.736 102.103 299.68C101.411 300.31 100.466 300.688 99.9627 301.569C99.2073 302.891 99.5221 304.15 98.263 305.283C97.1299 306.29 95.7449 307.423 94.9266 308.808C95.4931 309.942 97.8224 309.438 98.7666 310.886C99.585 312.208 99.4591 316.174 98.1371 317.181C99.8368 315.985 102.796 318.062 102.984 319.762C103.362 323.162 101.096 326.246 101.725 329.709C103.173 329.646 104.621 328.701 106.132 328.513C107.832 328.261 109.594 328.701 111.231 328.387C112.49 328.135 113.309 327.568 114.631 328.009C115.764 328.135 116.582 328.827 117.023 330.023C117.023 331.094 117.401 331.786 118.219 332.101C119.226 331.157 121.87 328.072 123.255 328.009C125.081 327.883 125.396 330.023 125.899 331.345C126.78 329.142 128.669 325.994 131.628 326.813C133.579 327.379 135.405 329.205 136.475 330.842C138.049 333.234 136.664 334.241 137.608 336.319C141.134 335.878 143.966 334.178 145.54 338.774C146.233 341.795 145.729 344.565 144.092 347.084C143.274 347.902 142.456 348.594 141.511 349.287C141.134 350.294 141.322 351.49 140.819 352.623C139.875 354.386 138.616 355.771 137.042 356.904C136.16 357.219 135.468 357.66 134.838 358.352C137.545 360.052 140.315 359.737 143.4 360.178C144.533 360.304 145.163 360.366 145.918 361.311C146.485 362.003 146.296 363.262 147.177 363.703C149.632 360.681 155.046 352.497 159.264 356.652C160.712 354.386 161.152 351.301 164.489 350.924C167.762 350.546 169.147 353.442 170.595 355.645C174.121 354.638 178.59 350.798 181.927 354.512C184.256 357.093 183.564 364.27 180.416 366.032C181.297 366.788 182.43 365.843 183.375 367.228C184.634 369.054 183.815 371.005 182.682 372.579C184.319 372.957 188.663 370.88 189.796 370.754C192.188 370.502 194.58 370.124 195.147 372.957C196.532 372.768 197.539 371.32 198.861 370.628C200.435 369.872 201.82 369.809 203.331 370.754C204.149 371.257 204.967 372.264 205.849 372.579C206.982 373.02 208.493 372.453 209.689 372.39C211.451 372.327 213.088 373.083 214.662 373.775C215.606 374.216 216.802 374.468 217.495 375.223C218.628 375.223 220.517 376.482 221.272 376.923C222.09 377.427 222.846 377.49 223.538 378.308C224.294 379.315 224.105 379.945 223.098 380.574C221.965 381.267 222.027 380.826 221.02 380.259C219.761 379.567 216.677 379.567 215.166 380.008C213.151 380.574 211.074 380.385 208.933 380.385C207.926 380.385 206.856 380.385 205.849 380.385C204.653 380.385 204.338 380.385 203.394 379.882C202.638 379.441 203.142 379.126 201.883 379.441C201.379 379.567 200.687 380.071 200.309 380.259C198.924 380.889 197.602 381.015 196.091 380.889C194.454 380.763 192.943 380.071 191.37 379.693C189.922 379.315 188.6 379.315 187.089 379.315C185.83 379.315 184.382 379.567 183.186 379.315C181.234 379 179.598 378.56 177.583 378.812C175.254 379.063 173.05 379.945 170.658 380.196C168.896 380.385 167.133 380.511 165.37 380.7C164.426 380.826 163.419 380.952 162.412 380.763C159.956 380.259 158.194 379.252 155.55 379.252C151.71 379.315 147.87 379.819 144.029 379.819C140.063 379.819 136.097 379.819 132.131 379.819C128.543 379.819 124.955 379.252 121.367 379.252C112.994 379.315 104.684 379.315 96.3115 379.252C92.5973 379.252 89.009 379.693 85.3578 379.819C82.0213 379.945 78.6848 379.756 75.3483 379.819C74.2152 379.819 73.0821 380.071 71.9489 379.63C71.0676 379.315 70.3751 378.56 69.4308 378.308C67.1016 377.741 64.5205 378.308 62.4431 379.315C60.9322 380.008 59.2325 381.078 57.9105 379.756C56.4626 378.245 55.3924 378.182 53.2521 377.867C50.9858 377.49 48.5306 377.427 46.2014 377.238C43.0538 376.986 40.032 376.734 36.8844 376.734C34.0516 376.734 30.841 376.293 28.0081 376.86C25.8048 377.301 23.7903 377.049 21.524 377.238C19.1948 377.427 17.1174 378.371 14.6622 378.308C11.8294 378.245 9.50012 378.686 6.73021 379.378C3.51964 380.134 0.309067 379.819 -2.96446 379.819C-5.4196 379.819 -7.49703 380.574 -9.88923 380.826C-12.0926 381.078 -14.2959 380.826 -16.4992 380.511C-22.2909 379.819 -28.2084 378.434 -34 379.819L-24.0535 259.391Z" fill="#285D7E"/>
<path d="M164.489 352.183C165.874 352.56 167.385 354.386 167.637 355.771C167.7 356.149 168.14 357.408 167.951 357.596C167.637 357.974 166.378 357.534 165.937 357.722C164.993 358.037 163.608 359.296 163.104 360.178C162.789 360.681 162.223 362.381 162.474 362.884C162.915 362.759 163.482 361.94 163.922 361.688C164.804 361.122 165.685 360.618 166.692 360.303C167.196 360.178 169.022 359.485 169.399 359.8C169.777 360.115 169.651 360.681 169.714 361.122C170.218 361.185 170.281 360.681 170.658 360.429C171.162 360.052 171.728 359.989 172.358 360.052C173.113 360.115 174.121 360.996 174.813 360.744C174.813 360.24 174.121 359.8 173.869 359.422C173.554 358.981 173.365 358.352 172.925 358.037C172.673 357.848 172.484 357.785 172.295 357.848C172.106 357.911 171.917 357.974 171.666 358.037C171.54 358.1 171.351 358.1 171.099 358.1C171.288 358.1 171.477 358.1 171.666 358.037C171.854 357.974 172.043 357.911 172.295 357.848C172.799 357.659 173.239 357.471 173.68 357.345C175.191 356.967 177.268 356.526 178.653 357.596C179.598 358.289 180.038 359.359 180.038 360.492C180.038 360.87 180.164 361.562 179.975 361.877C179.723 362.318 179.031 362.696 178.653 363.01C177.331 364.081 175.569 364.71 174.624 366.284C175.128 367.291 176.576 366.221 177.331 366.095C178.464 365.843 179.66 365.654 180.857 365.654C183.564 363.388 184.067 356.904 181.864 354.449C178.527 350.735 174.058 354.575 170.532 355.582C169.084 353.316 167.7 350.483 164.426 350.861C163.167 350.986 162.349 351.49 161.719 352.183C162.726 351.994 163.734 351.994 164.489 352.183Z" fill="#457FA4"/>
<path d="M171.791 357.974C171.603 358.037 171.414 358.037 171.225 358.037C171.477 358.037 171.666 358.037 171.791 357.974Z" fill="#FAAB41"/>
<path d="M172.421 357.785C172.232 357.785 172.043 357.911 171.791 357.974C172.043 357.911 172.232 357.848 172.421 357.785Z" fill="#FAAB41"/>
<path d="M132.005 329.96C132.194 330.653 131.754 331.723 132.131 332.289C132.761 333.423 134.838 333.234 135.72 334.241C136.286 334.808 136.475 336.255 136.223 337.011C135.909 338.207 134.775 337.137 134.146 336.633C132.95 335.626 131.754 335.626 130.306 336.13C129.676 336.318 127.095 337.955 126.717 337.829C124.325 339.025 122.751 340.158 121.681 342.677C121.429 343.243 121.492 345.006 120.674 345.069C120.611 344.88 120.611 344.691 120.548 344.502C119.667 344.187 118.408 344.439 117.463 344.439C116.016 344.439 114.442 344.313 113.623 345.698C113.372 346.076 113.309 346.391 112.931 346.831C112.553 347.272 112.113 347.65 111.798 348.216C112.931 346.768 115.071 346.076 116.708 346.894C117.275 347.209 117.841 347.65 118.408 347.965C118.974 348.279 119.478 348.846 120.045 348.972C120.926 346.454 124.829 348.909 126.025 349.979C125.962 349.035 124.955 348.153 124.325 347.524C123.759 346.894 123.381 346.831 122.5 347.209C122.374 346.58 123.381 345.635 123.759 345.195C124.703 343.999 125.521 343.495 127.032 343.306C128.858 343.117 129.613 343.369 130.998 344.25C131.88 344.817 132.509 345.446 133.076 346.391C133.327 346.894 134.02 347.965 133.957 348.468C133.453 348.846 132.509 348.531 131.88 348.846C131.061 349.224 130.054 350.042 130.18 351.049C131.376 350.986 132.509 350.294 133.768 350.483C134.712 350.672 134.649 350.923 135.279 351.49C136.097 352.245 137.293 351.742 137.923 352.686C138.741 353.819 137.545 353.882 136.727 354.134C135.783 354.386 135.027 355.204 134.272 355.771C133.768 356.085 132.131 356.589 131.88 357.156C133.013 357.407 134.524 357.282 135.657 357.156C135.846 357.156 136.034 357.093 136.16 357.093C136.412 356.967 136.664 356.841 136.916 356.778C138.553 355.645 139.812 354.197 140.693 352.497C141.197 351.364 141.008 350.231 141.385 349.161C142.33 348.531 143.148 347.776 143.966 346.957C145.603 344.439 146.107 341.669 145.414 338.648C143.778 334.052 141.008 335.689 137.482 336.193C136.538 334.178 137.923 333.108 136.349 330.716C135.279 329.079 133.453 327.253 131.502 326.687C130.432 326.372 129.487 326.624 128.669 327.127C128.858 327.253 128.984 327.316 129.173 327.442C130.306 328.072 131.628 328.764 132.005 329.96Z" fill="#457FA4"/>
<path d="M33.0443 306.731C33.0443 306.857 33.0443 306.92 33.0443 307.046C33.1072 306.92 33.1072 306.794 33.0443 306.731Z" fill="#FAAB41"/>
<path d="M19.1318 287.153C19.3207 287.782 19.3207 289.23 19.8872 289.482C20.9574 289.986 21.524 288.726 21.9017 290.426C22.0276 291.056 21.524 294.077 22.2794 294.329C23.2867 294.707 23.2237 293.07 23.3496 292.567C23.6014 291.496 24.6716 290.615 25.8677 290.804C27.0009 290.993 27.1268 292.315 27.1897 293.259C27.6933 293.385 28.134 292.504 28.6376 292.315C29.519 292 30.5262 292.126 31.0928 292.818C31.5334 293.322 31.9112 294.707 31.9741 295.336C32.0371 295.84 31.8482 296.218 32.163 296.721C31.2816 297.099 30.1485 296.596 29.2042 297.036C28.2599 297.477 27.1897 298.421 26.4972 299.303C26.1195 299.743 25.8677 301.128 25.3641 301.443C24.7346 301.821 23.9792 301.443 23.2867 301.821C22.0906 302.513 21.587 305.22 21.587 306.479C22.9719 306.353 24.231 304.716 25.49 304.276C27.0009 303.709 26.6232 304.465 27.3786 305.472C29.0153 305.535 30.0855 303.331 31.4075 305.283C31.5334 305.535 31.5334 305.787 31.7853 305.975C31.9741 306.164 32.2259 306.101 32.4148 306.227C32.6666 306.416 32.8554 306.542 32.9813 306.794C32.8554 305.724 31.7223 304.591 30.9039 304.024C30.2114 303.583 29.3301 303.394 28.5117 303.331C28.5747 302.513 27.7563 301.695 27.0009 302.576C27.4415 301.821 28.4488 301.065 29.2672 300.75C29.6449 300.624 30.2114 300.499 30.5892 300.687C30.778 300.813 30.9669 301.254 31.2187 301.317C31.5964 301.38 32.0371 300.939 32.2889 300.75C32.9184 300.373 33.6738 300.058 34.4293 299.995C35.1217 299.932 35.8772 299.995 36.5067 300.373C36.9473 300.687 37.1992 301.254 37.6398 301.569C38.2064 301.884 38.8989 301.632 39.5284 301.38C40.4097 301.065 40.4727 300.436 39.8432 299.68C39.2136 298.925 38.2064 298.61 37.2621 298.61C36.6326 298.61 35.5624 298.862 35.0588 298.547C34.744 297.162 36.3808 296.281 37.1992 295.462C37.8916 294.77 39.7173 292.944 39.0248 291.874C38.5841 291.182 37.5139 291.182 38.3323 289.986C38.8359 289.23 39.4654 289.86 40.2209 289.545C40.1579 287.593 33.6738 288.726 32.6666 289.167C32.2259 288.852 32.163 287.908 31.8482 287.405C31.3446 286.586 30.778 286.46 29.8337 286.46C28.3858 286.46 27.1268 287.027 25.6159 286.838C25.9307 285.453 28.197 284.131 29.519 284.005C31.5964 283.753 31.8482 285.453 33.3591 286.145C34.4293 286.649 36.4437 286.02 37.5769 286.082C38.2064 286.145 40.3468 286.334 40.2209 287.405C40.2838 285.894 43.3055 285.768 44.1239 286.712C44.5016 287.153 44.3757 287.404 43.998 287.782C43.8092 287.971 43.4944 287.908 43.3685 288.16C43.2426 288.412 43.3685 288.789 43.3055 289.041C43.1796 289.545 42.6131 290.3 42.676 290.804C42.739 291.308 43.0537 291.371 43.3685 291.811C43.8721 292.504 43.6203 292.692 43.0537 293.196C42.0465 294.077 41.5429 295.085 41.354 296.47C42.9908 296.533 44.3128 294.707 46.2014 295.085C47.1456 295.274 47.4604 296.155 48.2788 296.47C49.349 296.847 50.4192 296.155 51.4894 296.721C52.1818 297.099 53.0632 298.043 53.3779 298.799C52.3707 299.24 51.3005 298.925 50.2303 299.428C48.9713 299.995 48.9713 300.436 48.2158 301.317C46.8938 302.828 45.4459 303.646 45.4459 305.913C46.0755 305.535 46.5161 304.968 46.8309 304.213C47.5863 303.08 48.6565 302.45 49.9785 302.324C51.1746 302.198 52.3077 302.387 53.3779 302.765C54.0704 303.08 54.637 303.52 55.0776 304.024C55.7701 304.024 56.3367 303.835 56.9033 303.394C58.2253 302.954 59.3584 303.206 60.4286 304.087C60.9952 304.465 63.2615 306.038 63.5762 306.794C61.6877 307.046 60.1138 306.668 58.2882 307.423C57.281 307.675 56.5256 308.242 55.896 309.123C55.6442 309.627 55.7072 309.879 56.0849 309.941C55.3924 309.816 53.9445 311.075 53.6297 311.263C52.1818 312.271 52.6855 311.326 50.8598 311.075C45.7607 310.445 43.1796 314.852 42.4872 319.133C43.4944 317.811 44.4387 315.796 46.0125 315.229C47.3975 314.726 48.5935 314.6 49.349 316.111C49.6008 316.048 49.7896 315.859 49.9156 315.607C50.3562 314.978 50.9857 314.6 51.7412 314.411C52.6225 314.096 53.5038 314.096 54.2593 314.474C54.7629 314.537 55.1406 314.789 55.4554 315.104C56.2108 315.104 56.1478 314.537 57.1551 314.852C58.6659 315.292 59.6732 316.677 60.7434 317.685C61.4988 317.433 61.0581 314.852 60.7434 314.285C60.0509 313.152 59.1066 313.089 57.8475 313.026C59.4214 312.208 61.8136 311.389 63.5762 312.019C64.3317 312.46 65.0871 312.837 65.8425 313.278C66.472 313.97 67.1016 314.663 67.7311 315.355C68.9901 316.363 68.8013 315.733 70.501 315.985C72.0118 316.237 72.8302 316.992 73.3968 318.44C74.0263 317.999 74.5929 317.496 75.0965 316.929C76.2926 316.048 77.5517 315.985 78.7478 316.551C81.014 317.181 83.2174 318.44 85.1689 319.699C83.4062 319.762 82.0842 319.384 80.3845 320.266C78.9996 321.021 77.8664 322.091 76.9851 323.413C77.048 323.917 76.8592 324.169 76.5444 324.232C76.1667 324.358 75.789 324.358 75.4113 324.169C74.1522 324.043 72.9561 324.169 71.76 324.546C70.501 325.176 69.7456 326.12 69.3678 327.505C69.0531 327.883 68.9272 328.324 68.9901 328.701C69.9974 327.946 71.0676 327.379 72.2007 326.939C73.5857 326.372 76.4815 325.176 77.8035 325.931C78.5589 326.372 78.9366 326.939 79.818 326.183C79.818 325.05 79.755 324.169 80.4475 323.224C81.6436 321.714 84.5394 321.336 86.302 321.462C87.4352 321.525 88.6313 321.651 89.5126 322.343C89.8903 322.658 90.331 323.35 90.8976 323.287C90.9605 321.084 90.2681 318.692 88.0018 317.936C87.2463 317.685 86.9316 317.748 86.428 317.181C85.3578 316.048 85.4837 314.222 83.9728 313.341C82.9026 312.711 82.0213 312.774 80.8252 312.648C79.3773 312.46 78.1812 311.704 76.7962 311.452C75.6631 311.201 74.8447 311.075 74.0893 312.019C73.8375 312.334 73.7116 312.711 73.3968 312.963C73.0191 311.012 70.3121 310.634 68.7383 311.263C68.4865 310.697 68.1717 310.13 67.794 309.627C69.6197 310.193 71.4453 309.123 73.2709 308.808C74.2781 308.619 75.2854 308.494 76.3556 308.557C76.7333 308.557 77.111 308.682 77.4887 308.494C77.2369 306.29 74.8447 305.283 72.9561 304.779C71.1935 304.276 69.8085 304.528 68.0458 304.779C67.6681 303.646 67.2275 302.702 65.9684 302.324C65.3389 302.198 64.6464 302.135 64.0169 302.009C63.3244 302.135 62.6319 302.135 61.9395 301.946C61.4988 302.009 61.247 301.758 61.184 301.317C60.8063 300.562 60.4286 299.743 59.9879 298.988C58.54 297.729 57.0292 297.981 55.2665 298.358C57.9735 294.833 62.9467 292.881 67.2275 294.329C66.6609 293.07 65.9684 292.126 64.7723 291.433C64.3316 291.182 63.6392 290.93 63.0726 290.993C62.8208 291.119 62.6319 291.245 62.3801 291.433C62.569 291.182 62.7578 291.056 63.0726 290.993C63.4503 290.741 63.891 290.552 64.3316 290.426C65.6537 290.363 66.9757 290.363 68.3606 290.426C68.6754 290.237 69.0531 290.048 69.3678 289.86C70.438 288.978 71.6971 288.664 73.082 288.978C74.1522 289.293 75.2224 289.482 76.3556 289.482C77.174 289.671 77.8664 289.482 78.5589 288.978C81.077 288.16 82.5879 289.797 84.8541 290.552C86.1132 288.852 83.3433 286.712 82.0842 286.082C79.8809 284.949 77.6776 285.075 75.2224 285.516C75.5372 283.501 77.4258 282.116 79.3773 281.991C81.6436 281.865 82.7767 283.061 84.1617 284.572C85.1059 284.446 85.9243 283.942 86.5539 283.124C88.5683 281.739 90.8346 280.983 93.2898 280.794C94.1711 280.732 95.0524 280.794 95.8708 280.92C94.1081 279.158 92.0307 278.78 89.6385 279.095C88.1277 279.284 85.8614 281.109 84.2876 281.046C83.1544 280.983 83.2174 280.165 82.336 279.724C81.2029 279.158 80.3845 279.535 79.2514 279.85C77.3628 280.48 75.6001 281.613 73.9004 282.746C72.6414 283.564 72.8932 283.816 71.9489 283.438C71.0676 283.061 70.501 281.676 69.4937 281.172C67.6052 280.165 64.6464 280.417 62.8208 281.298C61.4358 281.928 60.4286 282.872 59.2325 283.69C58.3512 284.32 58.7289 284.32 57.6587 284.131C55.5813 283.753 52.8743 283.124 51.0487 284.76C49.4119 286.271 48.0899 289.734 45.7607 290.489C45.4459 289.293 46.0125 288.475 46.2014 287.342C46.7679 284.509 46.1384 281.676 43.1167 280.857C41.354 280.417 39.6543 280.417 37.9546 281.109C37.5139 281.298 36.9474 281.739 36.3808 281.613C35.8142 281.424 34.744 279.85 34.4293 279.535C33.6738 278.843 32.7925 278.15 31.7853 277.962C28.5117 277.332 27.5045 280.857 25.0493 281.991C23.6014 282.683 21.9647 281.424 20.3909 281.676C19.0059 281.865 17.558 283.376 16.6767 284.383C16.4878 284.635 16.236 284.949 16.0471 285.201C17.6839 285.264 18.6911 285.768 19.1318 287.153Z" fill="#457FA4"/>
<path d="M62.6949 291.433C62.8837 291.244 63.1356 291.119 63.3874 290.993C63.0726 291.056 62.8837 291.182 62.6949 291.433Z" fill="#FAAB41"/>
<path d="M-29.9711 290.048C-29.2156 289.23 -27.5159 289.167 -26.5087 288.915C-25.6903 288.727 -24.9349 288.727 -24.1165 288.664C-23.0463 288.601 -21.9761 288.349 -20.9059 288.286C-16.3104 288.097 -10.8335 289.545 -7.43409 292.818C-4.41237 295.651 -3.09037 299.554 -2.96447 303.646C-2.90151 305.724 -2.96447 307.801 -2.96447 309.879C-2.96447 310.823 -3.09037 311.452 -3.21628 312.334C-3.27923 312.774 -3.53104 313.341 -3.09037 313.593C-2.83856 313.719 -2.33494 313.593 -2.08313 313.656C-1.70542 313.719 -1.3277 313.97 -1.07589 314.159C-0.257513 314.789 0.0572491 315.229 0.120201 316.237C0.183153 317.433 0.938583 317.873 1.50515 319.007C2.26058 320.58 2.44944 320.455 3.77144 319.447C4.40097 318.944 5.09344 318.377 5.84887 318.251C6.41544 318.125 6.98202 318.251 7.54859 318.251C8.87059 318.125 9.37421 317.685 10.7592 318.251C12.27 318.881 13.7809 319.51 14.8511 320.832C15.2917 321.399 15.5435 322.847 16.3619 323.099C17.9357 320.769 17.1174 317.307 19.4466 315.481C21.524 313.845 25.3012 313.404 27.6934 314.285C29.0783 314.789 30.3374 315.229 31.1557 316.551C31.7223 317.496 31.9741 318.629 32.4777 319.636C32.9814 320.643 33.8627 320.832 34.0516 321.965C34.2404 322.847 34.1145 323.98 33.9886 324.924C33.9257 325.428 33.5479 326.12 33.7368 326.561C34.3034 326.498 34.807 325.994 35.4365 326.246C36.129 326.498 36.5067 327.883 36.8215 328.512C37.1992 329.331 37.388 329.583 38.2064 329.834C39.2137 330.086 40.095 330.149 40.9134 330.905C42.2354 332.227 42.0465 334.178 42.0465 335.878C42.0465 337.074 42.2983 338.585 41.7318 339.592C42.8019 339.97 45.6978 339.025 45.5719 340.977C46.705 341.355 46.8309 340.662 47.7122 341.669C48.2159 342.299 49.1601 342.866 49.349 343.621C49.5379 344.439 49.2231 344.628 50.0415 345.132C50.9858 345.698 51.5523 345.321 52.4966 344.691C54.0075 343.684 56.0849 342.614 57.9735 342.677C60.0509 342.74 59.925 344.817 60.8063 346.139C62.1283 344.817 62.6949 342.299 64.9612 342.803C65.4019 343.054 65.8425 343.243 66.2832 343.369C66.598 343.495 66.9757 343.495 67.2904 343.432C68.1088 343.558 68.1718 343.999 68.8013 344.565C69.7456 345.384 70.9417 344.88 71.6342 345.887C72.0748 346.58 72.3266 347.839 72.4525 348.657C72.5155 349.287 72.0748 349.727 72.2007 350.294C73.145 350.609 73.9004 349.853 74.7188 349.601C76.4815 348.972 78.1183 350.546 79.3143 351.805C80.8252 353.442 80.8882 355.078 80.8882 357.282C80.8882 358.981 80.9511 360.744 79.8809 362.192C80.6364 362.003 81.0141 361.688 81.7065 362.192C82.1472 362.507 82.399 363.073 82.6508 363.514C82.9656 363.388 83.3433 363.199 83.721 363.136C84.3505 363.073 84.9801 363.514 85.6096 363.514C86.365 361.311 91.0235 362.003 92.7232 362.318C95.3043 362.822 97.6965 364.584 97.4446 367.543C97.5706 365.969 93.1639 365.34 92.2196 365.78C90.9605 366.347 91.1494 366.913 89.8904 366.284C88.6943 365.717 87.75 365.906 86.6168 366.536C86.1762 366.787 86.2391 366.662 85.9244 367.039C85.6096 367.48 85.8614 368.11 85.106 368.235C84.4764 367.48 83.1544 367.606 82.2102 367.606C81.2029 367.606 80.4475 367.543 80.0698 368.613C78.0553 366.284 75.4743 365.528 72.4525 366.284C71.9489 366.41 68.4865 367.228 68.2977 367.921C70.6899 367.165 72.2637 364.899 74.9077 364.521C75.9779 364.395 76.7963 364.521 77.6776 364.962C76.1667 364.395 74.6559 363.892 73.145 363.451C74.467 361.688 75.852 361.5 77.9294 361.94C77.174 360.555 78.6219 359.8 79.1884 358.793C80.0698 357.345 78.9996 356.086 77.7405 355.393C76.7333 354.89 75.3483 354.575 74.2152 354.889C72.8932 355.204 72.1378 356.778 71.7601 357.974C71.2564 357.03 70.6899 355.96 69.9344 355.267C68.9272 354.323 68.2977 354.638 67.2904 355.393C66.8498 355.708 66.4091 356.023 65.9684 356.337C65.5907 356.652 65.1501 356.904 64.6464 357.093C64.3317 357.408 64.3317 357.911 64.2058 358.289C64.2058 357.156 64.0169 355.393 64.5205 354.386C65.0871 353.379 66.2202 353.001 67.2275 352.875C68.4236 352.686 69.3049 352.183 70.501 352.183C70.0603 350.986 68.9902 349.539 67.7941 348.972C66.4721 348.405 64.9612 348.72 63.5762 348.909C61.6877 349.161 60.0509 348.72 59.5473 351.112C57.7846 351.112 56.9033 349.916 55.1406 350.735C53.8186 351.364 52.4966 352.434 51.0487 352.812C54.4481 353.567 58.54 353.379 60.4286 356.904C59.2325 357.03 57.7217 356.211 56.5885 355.897C55.3924 355.456 54.1963 355.33 52.9373 355.456C52.5596 355.645 52.1819 355.834 51.8041 355.96C51.6782 356.086 51.5523 356.149 51.4264 356.274C51.0487 356.212 50.671 356.211 50.2933 356.211C48.8454 356.274 47.964 356.841 46.705 357.534C45.8866 357.974 45.6348 357.848 44.6905 357.534C42.739 356.778 41.354 356.212 39.2766 356.589C36.4437 357.156 33.8627 358.289 32.9814 361.122C31.4076 357.471 34.8699 354.764 38.0805 354.512C39.2766 354.449 39.4025 353.756 40.6616 353.19C43.0538 352.183 45.0682 352.686 46.8939 354.323C46.9568 352.686 47.0198 351.49 48.6565 350.798C49.4749 350.42 50.8598 349.727 51.7412 349.979C50.3562 349.601 49.1601 349.224 47.7752 349.224C46.0755 349.224 44.8164 349.664 43.4315 350.609C42.8019 350.168 42.4242 349.161 41.9206 348.531C41.1022 347.524 40.2209 347.02 38.9618 347.083C37.8287 347.146 37.0733 347.335 35.8772 346.895C34.3663 346.328 32.5407 345.887 31.0298 346.832C30.4003 347.209 30.0226 348.028 29.3931 348.342C28.2599 348.342 27.1897 348.279 26.0566 348.028C25.1123 347.839 24.1051 347.713 23.0978 347.776C21.524 347.776 20.265 348.091 18.943 348.783C18.6282 348.972 17.621 349.35 17.8728 349.853C19.1318 349.664 20.0132 349.664 21.2722 350.042C23.2237 350.735 24.7976 351.994 26.4343 353.253C26.5602 353.064 21.0204 352.371 20.6427 352.308C18.0616 352.183 15.4806 352.183 12.8995 352.308C12.27 352.308 11.6405 352.434 11.0739 352.749C9.2483 353.001 7.29678 352.371 5.40821 352.308C4.02325 352.12 2.70125 352.245 1.37925 352.686C0.812677 353.127 0.246107 353.379 -0.446369 353.505C-0.509321 352.371 -0.635229 351.049 -0.194561 350.042C0.749725 347.839 3.01601 347.461 5.15639 347.083C6.85611 346.832 8.49287 346.643 10.1926 346.957C11.7034 347.272 13.0884 347.776 14.5363 348.091C14.914 347.398 15.1658 346.706 15.4176 345.95C15.9213 345.698 16.4249 345.384 16.9285 345.132C18.2505 345.132 19.6355 345.195 20.9575 345.321C21.524 344.88 21.9647 344.313 22.3424 343.747C24.0421 341.544 26.812 341.858 29.3301 341.984C31.2817 342.11 32.9184 342.425 34.744 343.117C36.0031 341.229 38.4582 340.41 40.5357 341.418C37.6398 339.97 34.8699 338.27 31.5335 338.144C30.0856 338.081 29.456 338.459 28.197 337.703C28.9524 336.444 31.1557 336.948 32.4148 336.948C33.6109 336.948 35.0588 337.389 36.2549 337.2C36.2549 335.5 35.5624 334.367 34.9958 332.856C33.9886 330.086 31.3446 329.583 29.1413 331.408C28.6376 331.849 28.5117 332.038 27.8822 332.101C26.9379 332.227 26.4343 332.164 25.6789 332.793C25.1123 333.234 24.7976 333.863 24.3569 334.367C24.168 334.43 23.9162 334.493 23.7274 334.556C23.2867 335.248 23.1608 336.004 23.2867 336.759C22.4054 336.948 21.524 336.759 20.7056 336.13C19.4466 335.941 18.1875 335.752 16.9285 335.689C14.5993 335.185 12.4589 334.367 10.1926 335.941C9.75192 336.696 9.1224 337.137 8.36697 337.137C7.35973 337.326 6.35249 337.326 5.34525 337.2C3.64554 337.452 2.07172 338.018 0.623819 339.025C0.120201 339.655 -0.446371 339.907 -1.13885 339.718C-1.39066 336.885 -0.383417 334.808 2.57535 334.241C4.40097 333.926 6.22659 334.493 8.05221 334.241C8.61878 332.164 10.1926 332.101 12.1441 331.975C13.4032 332.101 14.6622 331.975 15.8583 331.471C16.6137 331.282 17.3062 331.408 17.9357 331.849C19.0689 332.415 20.6427 333.8 21.2722 331.912C21.3981 331.031 21.3352 330.212 21.0834 329.331C21.0834 328.638 21.0834 327.946 20.9575 327.253C19.4466 326.624 17.9357 326.561 16.4249 327.316C15.6694 327.694 14.977 328.764 14.0327 328.701C13.9068 328.135 13.9068 327.065 14.2845 326.624C14.5993 326.309 15.7324 326.309 16.1731 326.246C14.4734 325.805 11.9553 325.428 10.3185 325.805C9.43716 326.057 8.49287 326.309 7.61154 326.561C7.10792 327.002 6.6043 327.379 5.97478 327.568C4.71573 327.568 4.84163 326.876 2.89011 327.19C1.3163 327.442 -0.00570488 328.449 -1.57952 328.701C-2.46085 327.568 -0.068655 326.12 0.560869 325.868C1.69401 325.428 2.95306 325.113 4.14916 324.924C4.58982 324.987 5.03049 324.924 5.47116 324.798C6.03773 323.224 3.01601 322.91 2.00877 322.784C0.686773 322.658 -0.572275 322.91 -1.83132 323.413C-2.14609 323.665 -2.3979 323.602 -2.58675 323.287C-3.09037 322.721 -3.78285 322.406 -4.66418 322.343C-5.86028 322.028 -7.05638 322.028 -8.25247 322.28C-9.63742 322.469 -10.8965 322.91 -12.1555 323.539C-11.5889 320.832 -8.50428 318.755 -5.92323 318.629C-4.34942 318.566 -3.27923 318.818 -1.95723 319.699C-2.02018 319.133 -2.14609 318.314 -2.46085 317.811C-3.02742 316.929 -4.16056 316.803 -5.0419 316.489C-6.04914 316.111 -7.81181 315.418 -8.81904 315.544C-10.9594 315.859 -13.1628 317.055 -15.1772 317.748C-16.0586 318.062 -17.1917 318.251 -18.0101 318.629C-19.5839 319.447 -19.7728 321.965 -19.8987 323.476C-20.0246 325.176 -19.8987 326.561 -18.7655 327.883C-20.5282 327.19 -23.424 326.183 -24.4312 324.546C-25.9421 322.154 -24.5571 318.755 -22.4797 317.244C-21.9131 316.866 -21.4095 316.551 -20.843 316.174C-19.5839 314.915 -18.136 314.033 -16.4363 313.593C-14.4218 313.152 -12.4073 313.53 -10.5188 312.774C-12.1555 309.879 -16.877 309.06 -19.8357 309.879C-21.4725 310.382 -23.0463 310.886 -24.5571 311.578C-25.4385 312.019 -26.2569 312.774 -27.1382 313.089C-27.7048 311.326 -28.5861 310.067 -28.0195 307.99C-27.39 306.794 -26.8234 305.598 -26.1939 304.402C-24.746 303.08 -23.1092 302.387 -21.2207 302.324C-19.7728 302.135 -17.9471 301.632 -16.4992 301.758C-14.6736 301.947 -13.1628 303.017 -11.2742 302.513C-11.4001 300.562 -12.3444 298.484 -13.4775 296.91C-14.5477 295.462 -16.4992 295.399 -18.2619 295.336C-21.0318 295.274 -22.8574 296.155 -25.1867 297.729C-25.9421 298.295 -26.7605 298.862 -27.5159 299.428C-28.0195 300.247 -28.712 300.625 -29.5304 300.562C-29.8452 298.862 -29.9081 297.162 -29.8452 295.399C-29.8452 294.644 -29.7192 293.7 -29.9081 292.944C-30.2858 291.811 -31.2301 291.182 -29.9711 290.048Z" fill="#457FA4"/>
<path d="M-29.6563 346.769C-29.5304 346.139 -28.1454 345.069 -27.5789 344.754C-25.9421 343.81 -23.2352 344.313 -21.4725 344.313C-20.6541 344.313 -19.7098 344.187 -18.9544 344.502C-18.136 344.817 -17.3806 345.761 -16.814 346.454C-16.2474 347.146 -15.9327 348.028 -15.8068 348.909C-15.6809 349.538 -15.9327 350.231 -15.7438 350.86C-14.6107 350.923 -14.233 352.371 -13.8552 353.253C-13.4146 354.323 -13.5405 354.701 -12.3444 354.701C-12.0296 354.701 -11.589 354.826 -11.2742 354.701C-10.8965 354.575 -10.8965 354.26 -10.6447 354.071C-10.0152 353.63 -9.07086 353.441 -8.37839 353.819C-6.99343 354.638 -6.1121 356.4 -4.34943 356.4C-3.53105 356.4 -2.39791 356.211 -1.64248 356.463C-1.01295 356.652 -0.824095 357.156 -0.320475 357.533C0.686764 358.226 2.26057 357.47 3.33076 357.407C4.65277 357.345 6.54134 357.156 7.73743 357.785C9.31124 358.667 10.4444 360.555 10.5703 362.318C10.6332 363.325 11.1998 364.08 11.2628 365.025C11.2628 365.402 11.1998 366.473 11.9552 366.473C12.3959 366.473 12.6477 365.654 12.8995 365.465C13.4661 364.962 13.7809 365.088 14.4733 365.025C15.4806 365.025 15.9213 364.773 16.3619 365.717C16.6767 366.41 16.7396 367.165 17.1173 367.795C16.6137 367.795 16.3619 367.354 15.8583 367.228C15.2917 367.039 14.7252 367.165 14.2215 367.354C13.4032 367.669 12.5848 368.298 12.5848 369.18C11.3257 369.243 8.11515 367.291 8.11515 369.872C7.23382 370.061 2.95305 369.18 2.95305 370.879C3.51962 370.187 3.51962 369.18 4.02324 368.424C4.77867 367.228 6.22657 366.599 7.61153 366.473C8.55582 366.41 8.74467 366.536 9.18534 365.591C9.3742 365.214 9.62601 364.08 10.1926 364.521C9.56306 363.514 8.87058 362.57 7.98925 361.751C7.23381 361.059 7.10791 361.311 6.16362 361.499C4.71572 361.751 3.07896 360.492 1.75695 361.059C1.00153 361.373 1.12743 361.625 0.812668 362.381C0.497906 363.073 0.560858 363.199 -0.257524 363.325C-1.13886 363.451 -1.01295 363.325 -1.64248 363.955C-2.20905 364.521 -2.58676 364.899 -3.27924 364.395C-3.90876 363.955 -3.84581 363.073 -4.41238 362.57C-4.97895 362.066 -6.1121 362.129 -6.74162 362.192C-9.25972 362.507 -11.4631 364.08 -13.9812 364.521C-14.2959 363.199 -12.9739 361.688 -11.9037 361.122C-10.8965 360.618 -9.82629 360.429 -8.69315 360.492C-8.25248 360.618 -7.87477 360.618 -7.4341 360.492C-7.18229 358.415 -4.47534 360.051 -3.27924 360.303C-4.34943 359.296 -6.1121 358.352 -7.37115 357.848C-8.31543 357.533 -10.7706 356.715 -11.9037 357.345C-12.4073 357.596 -12.5332 358.226 -13.0998 358.415C-13.7923 358.604 -14.4848 358.1 -15.2402 358.1C-15.6179 357.974 -15.9956 358.037 -16.3104 358.226C-16.3733 358.415 -16.4363 358.541 -16.5622 358.729C-16.9399 359.044 -16.877 359.296 -17.5065 359.17C-18.9544 358.918 -17.8842 356.526 -16.814 356.274C-17.3176 353.504 -21.7243 353.945 -23.6758 353.882C-24.4313 353.882 -25.0608 353.882 -25.7533 354.071C-26.8864 354.449 -27.7048 355.708 -28.8379 355.96C-29.6563 356.085 -29.6563 355.582 -29.9711 354.952C-30.7265 353.379 -31.6078 352.434 -30.9783 350.672C-30.7894 350.231 -30.4747 349.727 -30.3488 349.224C-30.1599 348.72 -30.4117 348.153 -29.6563 346.769Z" fill="#457FA4"/>
<path d="M360.484 275.943C358.48 274.106 354.138 272.158 351.467 273.383C350.465 273.828 349.24 275.275 348.628 276.166C348.015 277.001 348.015 277.613 347.848 278.559C346.958 278.448 346.179 277.724 345.232 278.336C344.063 279.06 343.34 281.676 343.396 282.901C343.451 284.738 345.065 285.35 345.622 286.797C345.9 287.521 345.789 289.079 345.622 289.803C344.564 289.747 343.396 288.912 342.282 288.69C340.779 288.356 338.831 288.189 337.662 289.469C337.273 289.858 336.883 290.582 336.772 291.139C336.716 291.473 336.883 292.085 336.716 292.308C336.271 292.976 334.712 292.085 334.044 292.029C331.317 291.974 330.148 295.035 330.705 297.261C331.039 298.597 330.482 300.546 331.651 301.547C330.315 301.325 327.142 301.492 326.864 303.217C327.087 301.436 326.252 298.876 325.083 297.595C324.304 296.705 323.079 295.48 321.854 295.258C320.519 295.035 319.127 296.148 317.847 295.536C315.732 294.59 314.841 291.528 312.058 292.029C311.167 292.196 310.388 292.753 309.776 293.365C309.497 293.588 308.551 294.979 308.05 295.146C307.605 295.313 307.104 294.868 306.714 294.701C305.212 294.089 303.764 294.089 302.261 294.478C299.645 295.146 299.089 297.595 299.59 300.045C299.757 300.991 300.258 301.714 299.979 302.772C297.975 302.16 296.807 299.154 295.415 297.818C293.856 296.371 291.519 296.928 289.738 297.261C288.847 297.428 289.181 297.428 288.402 296.872C287.344 296.148 286.509 295.313 285.285 294.812C283.67 294.089 281.166 293.81 279.496 294.701C278.661 295.146 278.16 296.371 277.381 296.705C276.546 297.039 276.768 296.816 275.711 296.093C274.264 295.146 272.761 294.144 271.091 293.588C270.145 293.31 269.421 292.976 268.419 293.476C267.64 293.866 267.695 294.534 266.749 294.59C265.358 294.701 263.409 293.087 262.129 292.92C260.07 292.642 258.289 292.976 256.73 294.478C254.726 296.427 254.448 299.043 254.225 301.714C251.275 301.993 249.884 304.943 250.162 307.615C250.273 308.839 250.663 309.841 251.553 310.62C252.166 311.177 252.945 311.511 253.39 312.235C254.058 313.348 253.78 314.461 254.838 315.407C255.839 316.298 257.008 317.244 257.732 318.469C257.231 319.471 255.227 319.025 254.448 320.306C253.78 321.474 253.836 324.87 255.005 325.76C253.557 324.758 250.941 326.484 250.83 327.987C250.496 330.937 252.444 333.609 251.887 336.614C250.607 336.559 249.383 335.78 248.047 335.557C246.6 335.334 245.097 335.724 243.649 335.446C242.536 335.223 241.868 334.778 240.699 335.112C239.697 335.223 239.03 335.835 238.64 336.837C238.64 337.728 238.306 338.34 237.582 338.674C236.747 337.895 234.41 335.223 233.241 335.112C231.627 335 231.404 336.837 230.959 338.006C230.179 336.113 228.565 333.386 226.005 334.11C224.335 334.555 222.721 336.169 221.83 337.616C220.494 339.676 221.663 340.566 220.828 342.348C217.767 341.958 215.373 340.511 213.926 344.518C213.314 347.135 213.759 349.528 215.151 351.699C215.819 352.422 216.542 353.035 217.377 353.591C217.711 354.482 217.544 355.484 217.989 356.43C218.769 357.933 219.882 359.157 221.273 360.159C221.997 360.438 222.665 360.827 223.166 361.384C220.828 362.887 218.435 362.609 215.763 362.943C214.761 363.054 214.204 363.054 213.592 363.889C213.091 364.501 213.258 365.614 212.479 365.948C210.364 363.332 205.688 356.263 202.014 359.881C200.79 357.933 200.4 355.261 197.506 354.927C194.667 354.593 193.498 357.098 192.218 359.046C189.157 358.211 185.316 354.872 182.421 358.044C180.418 360.271 181.03 366.449 183.757 368.008C182.978 368.62 182.032 367.841 181.197 369.065C180.139 370.624 180.807 372.349 181.809 373.685C180.418 374.019 176.633 372.182 175.631 372.071C173.571 371.848 171.512 371.514 171.011 373.964C169.786 373.797 168.951 372.516 167.782 371.96C166.446 371.292 165.222 371.292 163.886 372.071C163.162 372.516 162.494 373.351 161.715 373.63C160.713 374.019 159.433 373.518 158.375 373.463C156.873 373.407 155.481 374.075 154.09 374.687C153.255 375.021 152.253 375.299 151.64 375.912C150.694 375.912 149.024 376.969 148.356 377.415C147.633 377.804 146.965 377.916 146.408 378.639C145.74 379.474 145.907 380.031 146.798 380.587C147.744 381.144 147.744 380.81 148.579 380.309C149.692 379.697 152.308 379.752 153.644 380.086C155.37 380.532 157.207 380.42 159.043 380.42C159.934 380.42 160.825 380.42 161.715 380.42C162.717 380.42 163.051 380.42 163.83 379.975C164.498 379.585 164.053 379.363 165.166 379.585C165.612 379.697 166.168 380.142 166.558 380.309C167.727 380.866 168.896 380.977 170.231 380.866C171.623 380.754 172.959 380.198 174.295 379.808C175.575 379.474 176.688 379.474 177.968 379.474C179.026 379.474 180.306 379.697 181.364 379.474C183.034 379.196 184.425 378.862 186.206 379.029C188.21 379.251 190.158 380.031 192.218 380.253C193.721 380.42 195.224 380.476 196.782 380.699C197.617 380.81 198.508 380.921 199.343 380.754C201.513 380.309 203.016 379.418 205.243 379.474C208.582 379.53 211.867 379.975 215.206 379.919C218.602 379.919 222.053 379.919 225.448 379.919C228.565 379.919 231.627 379.418 234.744 379.474C241.98 379.53 249.16 379.53 256.396 379.474C259.569 379.474 262.686 379.864 265.859 379.975C268.753 380.086 271.647 379.919 274.542 379.975C275.544 379.975 276.49 380.142 277.436 379.808C278.215 379.53 278.828 378.862 279.663 378.695C281.667 378.194 283.893 378.695 285.674 379.53C286.954 380.142 288.457 381.033 289.571 379.919C290.851 378.639 291.741 378.583 293.634 378.305C295.582 378.027 297.753 377.916 299.701 377.749C302.428 377.526 305.045 377.303 307.772 377.303C310.221 377.303 313.004 376.914 315.398 377.415C317.346 377.804 319.071 377.582 321.019 377.749C323.023 377.916 324.86 378.695 326.92 378.695C329.369 378.639 331.373 379.029 333.766 379.585C336.549 380.253 339.332 379.975 342.171 379.975C344.286 379.975 346.123 380.587 348.127 380.866C350.075 381.088 351.912 380.866 353.86 380.587C358.87 379.975 363.99 378.806 369 380.031L360.484 275.943Z" fill="#285D7E"/>
<path d="M197.506 356.152C196.281 356.486 195.001 358.044 194.778 359.269C194.723 359.603 194.333 360.66 194.5 360.883C194.778 361.161 195.836 360.827 196.226 360.994C197.061 361.272 198.229 362.386 198.675 363.109C198.897 363.555 199.398 365.002 199.231 365.447C198.842 365.336 198.341 364.668 197.951 364.39C197.172 363.889 196.448 363.443 195.558 363.221C195.168 363.109 193.554 362.497 193.22 362.775C192.886 363.054 192.997 363.555 192.942 363.944C192.496 364 192.441 363.555 192.107 363.332C191.661 362.998 191.216 362.998 190.659 363.054C190.047 363.109 189.101 363.889 188.489 363.666C188.489 363.221 189.045 362.831 189.324 362.497C189.602 362.107 189.769 361.606 190.158 361.272C190.381 361.105 190.548 361.05 190.715 361.105C190.882 361.161 191.049 361.217 191.216 361.272C191.327 361.328 191.494 361.328 191.661 361.328C191.494 361.328 191.327 361.328 191.216 361.272C191.049 361.217 190.882 361.161 190.715 361.105C190.325 360.939 189.88 360.772 189.546 360.716C188.21 360.382 186.429 359.992 185.26 360.939C184.481 361.551 184.036 362.441 184.036 363.443C184.036 363.777 183.924 364.334 184.091 364.668C184.314 365.002 184.926 365.391 185.26 365.614C186.429 366.56 187.932 367.117 188.767 368.453C188.322 369.288 187.097 368.397 186.429 368.286C185.427 368.063 184.425 367.952 183.368 367.896C181.03 365.948 180.585 360.326 182.477 358.211C185.372 355.038 189.212 358.322 192.274 359.213C193.498 357.265 194.723 354.816 197.561 355.094C198.619 355.205 199.343 355.651 199.899 356.263C199.064 355.985 198.174 355.985 197.506 356.152Z" fill="#457FA4"/>
<path d="M191.216 361.161C191.383 361.217 191.55 361.217 191.661 361.217C191.494 361.217 191.327 361.217 191.216 361.161Z" fill="#FAAB41"/>
<path d="M190.659 360.994C190.826 360.994 190.993 361.105 191.16 361.161C191.049 361.105 190.826 361.05 190.659 360.994Z" fill="#FAAB41"/>
<path d="M225.615 336.948C225.448 337.561 225.782 338.451 225.504 339.008C224.947 339.954 223.166 339.843 222.387 340.678C221.941 341.179 221.774 342.403 221.941 343.071C222.22 344.129 223.166 343.182 223.723 342.737C224.78 341.902 225.782 341.902 227.062 342.292C227.619 342.459 229.845 343.906 230.179 343.739C232.239 344.797 233.63 345.743 234.521 347.914C234.688 348.415 234.688 349.918 235.356 349.973C235.412 349.806 235.412 349.639 235.467 349.472C236.191 349.194 237.304 349.417 238.139 349.417C239.364 349.417 240.755 349.305 241.423 350.474C241.646 350.808 241.701 351.086 242.035 351.42C242.369 351.81 242.703 352.144 242.982 352.589C241.98 351.365 240.143 350.752 238.696 351.476C238.195 351.754 237.694 352.088 237.193 352.367C236.747 352.645 236.246 353.146 235.801 353.257C235.022 351.086 231.682 353.202 230.625 354.092C230.68 353.257 231.571 352.478 232.072 351.921C232.573 351.365 232.907 351.309 233.63 351.643C233.742 351.142 232.851 350.307 232.573 349.918C231.738 348.916 231.014 348.47 229.734 348.303C228.175 348.136 227.508 348.359 226.283 349.138C225.504 349.639 224.947 350.196 224.502 350.975C224.279 351.42 223.667 352.311 223.778 352.812C224.224 353.146 225.058 352.868 225.615 353.146C226.339 353.424 227.174 354.204 227.118 355.038C226.06 354.983 225.114 354.37 224.001 354.593C223.222 354.76 223.222 354.983 222.721 355.484C222.053 356.152 220.995 355.706 220.383 356.541C219.715 357.488 220.717 357.543 221.385 357.766C222.22 357.989 222.832 358.712 223.5 359.157C223.945 359.436 225.337 359.881 225.559 360.382C224.557 360.605 223.277 360.493 222.275 360.382C222.108 360.382 221.997 360.326 221.83 360.326C221.607 360.215 221.44 360.104 221.218 360.048C219.826 359.046 218.713 357.822 217.934 356.319C217.488 355.372 217.655 354.37 217.321 353.48C216.542 352.923 215.763 352.311 215.095 351.587C213.648 349.417 213.258 346.967 213.87 344.407C215.262 340.455 217.711 341.847 220.772 342.236C221.552 340.511 220.383 339.564 221.774 337.505C222.721 336.113 224.279 334.499 225.949 333.998C226.895 333.72 227.73 333.943 228.398 334.388C228.231 334.499 228.12 334.555 227.953 334.611C227.062 335.334 225.893 335.946 225.615 336.948Z" fill="#457FA4"/>
<path d="M323.135 299.933C322.968 300.434 322.968 301.77 322.522 301.993C321.576 302.438 321.075 301.325 320.741 302.828C320.63 303.384 321.075 305.945 320.407 306.223C319.572 306.501 319.628 305.11 319.517 304.72C319.294 303.774 318.348 302.995 317.346 303.217C316.4 303.384 316.288 304.498 316.177 305.332C315.732 305.444 315.342 304.664 314.897 304.498C314.117 304.219 313.283 304.331 312.726 304.943C312.392 305.388 312.002 306.557 312.002 307.114C311.947 307.559 312.114 307.893 311.835 308.338C312.615 308.617 313.561 308.227 314.396 308.617C315.231 309.006 316.177 309.785 316.734 310.565C317.012 310.954 317.29 312.123 317.735 312.457C318.236 312.791 318.96 312.457 319.517 312.791C320.574 313.403 320.964 315.741 321.02 316.799C319.795 316.687 318.737 315.296 317.624 314.851C316.288 314.35 316.622 315.018 315.954 315.853C314.563 315.908 313.616 314.016 312.448 315.686C312.336 315.908 312.336 316.131 312.114 316.242C311.947 316.409 311.724 316.353 311.557 316.465C311.334 316.576 311.167 316.743 311.112 316.966C311.223 316.075 312.169 315.073 312.893 314.572C313.505 314.183 314.229 314.016 314.952 313.96C314.897 313.236 315.62 312.568 316.233 313.292C315.843 312.624 315.008 311.956 314.284 311.678C313.95 311.567 313.505 311.455 313.116 311.622C312.949 311.734 312.782 312.123 312.559 312.179C312.225 312.235 311.891 311.845 311.613 311.678C311.056 311.344 310.388 311.066 309.776 311.01C309.164 310.954 308.496 311.01 307.995 311.344C307.605 311.622 307.382 312.123 306.993 312.346C306.492 312.624 305.879 312.402 305.379 312.235C304.599 311.956 304.544 311.455 305.1 310.732C305.657 310.064 306.492 309.841 307.327 309.785C307.883 309.785 308.774 310.008 309.275 309.73C309.553 308.505 308.106 307.782 307.382 307.058C306.77 306.446 305.212 304.887 305.824 303.997C306.213 303.384 307.104 303.44 306.436 302.382C305.991 301.714 305.434 302.271 304.822 301.993C304.878 300.267 310.499 301.269 311.334 301.659C311.724 301.38 311.78 300.546 312.058 300.156C312.503 299.432 313.004 299.321 313.783 299.321C315.008 299.321 316.177 299.822 317.457 299.655C317.179 298.43 315.231 297.317 314.117 297.206C312.336 297.039 312.114 298.43 310.778 299.043C309.887 299.488 308.106 298.931 307.16 298.987C306.603 299.043 304.766 299.21 304.878 300.156C304.822 298.876 302.206 298.709 301.482 299.544C301.148 299.878 301.26 300.1 301.594 300.434C301.761 300.601 302.039 300.546 302.15 300.768C302.261 300.991 302.15 301.269 302.206 301.547C302.317 301.993 302.818 302.605 302.762 303.05C302.707 303.496 302.428 303.551 302.15 303.941C301.705 304.553 301.927 304.72 302.428 305.165C303.319 305.945 303.709 306.835 303.931 307.949C302.484 308.004 301.371 306.446 299.757 306.78C298.977 306.947 298.699 307.726 297.92 307.949C296.974 308.283 296.083 307.67 295.137 308.171C294.524 308.505 293.745 309.34 293.523 309.952C294.357 310.342 295.304 310.064 296.25 310.453C297.308 310.954 297.363 311.344 297.976 312.068C299.089 313.403 300.369 314.071 300.369 316.075C299.812 315.741 299.423 315.24 299.144 314.628C298.476 313.682 297.586 313.125 296.417 312.958C295.415 312.847 294.413 313.014 293.467 313.348C292.91 313.626 292.409 313.96 292.02 314.461C291.463 314.461 290.906 314.294 290.461 313.904C289.348 313.515 288.346 313.737 287.4 314.517C286.899 314.851 284.951 316.187 284.672 316.854C286.287 317.077 287.678 316.743 289.237 317.411C290.127 317.634 290.795 318.135 291.296 318.914C291.519 319.359 291.463 319.582 291.129 319.638C291.686 319.526 292.966 320.639 293.244 320.806C294.524 321.697 294.079 320.862 295.638 320.639C300.035 320.083 302.261 323.924 302.874 327.597C302.039 326.484 301.204 324.703 299.812 324.202C298.643 323.757 297.586 323.645 296.974 324.925C296.751 324.87 296.584 324.758 296.473 324.48C296.083 323.979 295.526 323.59 294.858 323.423C294.079 323.144 293.356 323.144 292.632 323.478C292.242 323.534 291.853 323.701 291.574 324.035C290.962 324.035 290.962 323.534 290.127 323.812C288.847 324.202 287.956 325.371 287.066 326.261C286.398 326.039 286.787 323.812 287.066 323.311C287.678 322.309 288.457 322.254 289.571 322.254C288.179 321.586 286.175 320.806 284.617 321.363C283.949 321.697 283.336 322.087 282.668 322.421C282.112 323.033 281.555 323.59 281.054 324.202C279.997 325.037 280.108 324.536 278.661 324.758C277.325 324.981 276.657 325.649 276.156 326.874C275.599 326.484 275.098 326.039 274.653 325.538C273.596 324.814 272.538 324.703 271.48 325.259C269.532 325.816 267.64 326.874 265.914 327.987C267.417 328.042 268.586 327.764 270.033 328.488C271.202 329.156 272.204 330.046 272.928 331.215C272.872 331.661 272.983 331.883 273.317 331.939C273.651 332.05 273.985 332.05 274.319 331.883C275.377 331.772 276.434 331.883 277.492 332.217C278.55 332.774 279.273 333.609 279.551 334.778C279.83 335.112 279.885 335.446 279.885 335.835C279.05 335.167 278.104 334.722 277.102 334.277C275.878 333.776 273.429 332.718 272.26 333.442C271.592 333.831 271.258 334.332 270.479 333.664C270.479 332.662 270.534 331.883 269.922 331.104C268.92 329.824 266.36 329.434 264.857 329.601C263.91 329.657 262.853 329.768 262.074 330.38C261.74 330.603 261.35 331.271 260.849 331.215C260.793 329.323 261.406 327.208 263.354 326.595C264.022 326.373 264.244 326.428 264.745 325.927C265.692 324.981 265.58 323.367 266.861 322.643C267.807 322.087 268.586 322.142 269.588 322.031C270.813 321.864 271.87 321.252 273.095 320.973C274.041 320.751 274.765 320.639 275.432 321.419C275.655 321.697 275.766 322.031 276.045 322.254C276.323 320.584 278.716 320.25 280.052 320.806C280.275 320.305 280.553 319.805 280.887 319.415C279.273 319.86 277.715 318.97 276.156 318.691C275.265 318.524 274.375 318.413 273.484 318.469C273.15 318.469 272.816 318.58 272.538 318.413C272.761 316.52 274.82 315.686 276.49 315.185C278.049 314.739 279.217 314.962 280.72 315.185C281.054 314.238 281.444 313.403 282.557 313.069C283.114 312.958 283.67 312.902 284.227 312.791C284.839 312.902 285.452 312.902 286.008 312.735C286.398 312.791 286.62 312.568 286.62 312.179C286.954 311.511 287.288 310.843 287.622 310.175C288.903 309.062 290.127 309.284 291.686 309.618C289.348 306.613 285.062 304.887 281.333 306.167C281.778 305.11 282.446 304.275 283.448 303.663C283.837 303.44 284.45 303.217 284.951 303.329C285.173 303.44 285.34 303.551 285.507 303.718C285.34 303.496 285.173 303.384 284.951 303.329C284.617 303.106 284.283 302.939 283.893 302.883C282.724 302.828 281.611 302.828 280.442 302.883C280.164 302.716 279.885 302.549 279.551 302.382C278.605 301.603 277.548 301.325 276.323 301.603C275.377 301.881 274.431 302.048 273.484 302.048C272.816 302.215 272.204 302.048 271.592 301.603C269.421 300.88 268.085 302.271 266.193 302.939C265.079 301.492 267.528 299.599 268.586 299.043C270.479 298.041 272.427 298.152 274.486 298.542C274.264 296.816 272.594 295.592 270.924 295.536C268.976 295.425 267.974 296.482 266.805 297.762C265.97 297.651 265.246 297.261 264.745 296.538C263.02 295.369 261.072 294.645 258.957 294.534C258.233 294.478 257.454 294.534 256.73 294.645C258.289 293.143 260.014 292.809 262.129 293.087C263.465 293.254 265.413 294.868 266.749 294.757C267.695 294.701 267.695 293.977 268.419 293.643C269.365 293.198 270.145 293.476 271.091 293.755C272.761 294.256 274.264 295.258 275.711 296.26C276.768 296.983 276.601 297.206 277.381 296.872C278.16 296.538 278.661 295.313 279.496 294.868C281.166 293.977 283.67 294.2 285.285 294.979C286.509 295.536 287.344 296.315 288.402 297.039C289.181 297.595 288.847 297.595 289.738 297.428C291.574 297.094 293.912 296.538 295.415 297.985C296.807 299.321 297.975 302.271 299.979 302.939C300.258 301.881 299.812 301.213 299.59 300.212C299.089 297.762 299.645 295.313 302.261 294.645C303.764 294.256 305.267 294.256 306.714 294.868C307.104 295.035 307.605 295.425 308.05 295.313C308.551 295.146 309.498 293.81 309.776 293.532C310.388 292.92 311.167 292.363 312.058 292.196C314.897 291.695 315.732 294.701 317.847 295.703C319.127 296.26 320.519 295.202 321.854 295.425C323.079 295.592 324.304 296.872 325.083 297.762C325.25 297.985 325.472 298.208 325.639 298.486C324.415 298.319 323.524 298.764 323.135 299.933Z" fill="#457FA4"/>
<path d="M285.507 303.663C285.34 303.496 285.118 303.384 284.951 303.273C285.173 303.329 285.34 303.44 285.507 303.663Z" fill="#FAAB41"/>
<path d="M365.605 302.438C364.937 301.714 363.489 301.659 362.599 301.436C361.875 301.269 361.263 301.269 360.539 301.213C359.593 301.213 358.703 300.935 357.756 300.879C353.749 300.712 349.073 301.993 346.123 304.776C343.507 307.225 342.338 310.62 342.227 314.127C342.171 315.908 342.227 317.689 342.227 319.526C342.227 320.305 342.338 320.918 342.449 321.641C342.505 322.031 342.672 322.476 342.338 322.755C342.115 322.866 341.67 322.755 341.447 322.81C341.113 322.866 340.779 323.089 340.557 323.256C339.833 323.812 339.555 324.146 339.499 325.037C339.444 326.094 338.776 326.428 338.33 327.43C337.662 328.766 337.495 328.71 336.382 327.82C335.881 327.43 335.269 326.929 334.601 326.762C334.1 326.651 333.599 326.762 333.098 326.762C331.929 326.651 331.484 326.261 330.315 326.762C329.035 327.319 327.699 327.82 326.808 328.989C326.419 329.49 326.196 330.714 325.528 330.937C324.192 328.933 324.86 325.927 322.856 324.369C321.075 322.977 317.791 322.588 315.732 323.311C314.507 323.756 313.449 324.146 312.726 325.259C312.225 326.094 312.002 327.096 311.613 327.931C311.167 328.766 310.444 328.933 310.221 329.935C310.054 330.714 310.165 331.66 310.277 332.495C310.332 332.885 310.666 333.497 310.499 333.887C309.998 333.831 309.553 333.442 308.997 333.609C308.384 333.831 308.05 335 307.828 335.557C307.549 336.225 307.327 336.503 306.603 336.726C305.768 336.948 304.933 337.004 304.265 337.672C303.096 338.785 303.319 340.511 303.319 341.958C303.319 343.015 303.096 344.296 303.597 345.186C302.651 345.52 300.146 344.685 300.258 346.411C299.311 346.689 299.144 346.133 298.421 347.023C297.975 347.58 297.141 348.081 297.029 348.693C296.862 349.417 297.141 349.584 296.417 350.029C295.582 350.53 295.137 350.196 294.302 349.639C293.022 348.749 291.185 347.858 289.571 347.858C287.789 347.914 287.845 349.695 287.121 350.864C286.008 349.695 285.507 347.524 283.503 347.969C283.114 348.192 282.78 348.359 282.334 348.47C282.056 348.582 281.722 348.582 281.444 348.526C280.776 348.637 280.665 349.027 280.164 349.472C279.329 350.196 278.271 349.695 277.715 350.641C277.325 351.253 277.102 352.367 277.047 353.035C276.991 353.591 277.381 353.925 277.269 354.482C276.49 354.76 275.766 354.148 275.098 353.87C273.54 353.313 272.148 354.704 271.146 355.762C269.811 357.154 269.811 358.601 269.811 360.493C269.811 361.941 269.755 363.499 270.645 364.724C269.978 364.557 269.644 364.278 269.087 364.724C268.753 365.002 268.475 365.503 268.252 365.893C267.974 365.781 267.64 365.614 267.306 365.614C266.749 365.559 266.248 365.893 265.692 365.948C265.024 364.056 261.016 364.612 259.513 364.946C257.231 365.392 255.227 366.894 255.394 369.455C255.283 368.063 259.068 367.507 259.903 367.952C260.96 368.453 260.849 368.954 261.962 368.397C263.02 367.896 263.799 368.119 264.745 368.62C265.079 368.843 265.079 368.731 265.358 369.01C265.636 369.399 265.413 369.9 266.081 370.067C266.638 369.399 267.807 369.566 268.586 369.566C269.421 369.566 270.145 369.511 270.423 370.401C272.148 368.397 274.375 367.729 276.991 368.397C277.436 368.509 280.442 369.232 280.553 369.844C278.494 369.177 277.158 367.228 274.876 366.894C273.985 366.783 273.262 366.894 272.482 367.284C273.763 366.783 275.098 366.338 276.434 365.948C275.265 364.445 274.097 364.278 272.315 364.668C272.983 363.499 271.703 362.831 271.202 361.941C270.478 360.716 271.313 359.603 272.482 358.99C273.373 358.545 274.542 358.267 275.544 358.545C276.657 358.823 277.325 360.215 277.659 361.217C278.104 360.438 278.549 359.491 279.217 358.879C280.052 358.1 280.609 358.322 281.555 358.99C281.945 359.269 282.279 359.547 282.724 359.77C283.058 360.048 283.448 360.271 283.893 360.382C284.171 360.66 284.171 361.106 284.283 361.44C284.283 360.438 284.45 358.935 284.004 358.044C283.559 357.154 282.557 356.875 281.667 356.764C280.665 356.597 279.885 356.152 278.828 356.152C279.217 355.094 280.108 353.87 281.166 353.369C282.334 352.868 283.615 353.146 284.784 353.313C286.398 353.536 287.845 353.146 288.235 355.205C289.738 355.205 290.517 354.204 292.075 354.927C293.244 355.484 294.357 356.374 295.582 356.708C292.632 357.376 289.125 357.209 287.455 360.271C288.457 360.382 289.793 359.658 290.795 359.436C291.797 359.102 292.855 358.935 293.968 359.046C294.302 359.213 294.636 359.324 294.97 359.491C295.081 359.603 295.192 359.658 295.304 359.77C295.638 359.714 295.972 359.714 296.25 359.714C297.474 359.77 298.254 360.271 299.367 360.827C300.091 361.217 300.313 361.106 301.093 360.827C302.762 360.159 303.987 359.658 305.768 360.048C308.217 360.549 310.444 361.495 311.223 363.944C312.559 360.827 309.609 358.489 306.826 358.267C305.824 358.211 305.657 357.599 304.599 357.154C302.54 356.263 300.814 356.708 299.2 358.156C299.144 356.764 299.089 355.706 297.641 355.094C296.918 354.76 295.749 354.148 294.97 354.426C296.139 354.092 297.196 353.814 298.421 353.814C299.868 353.814 300.981 354.204 302.15 355.038C302.707 354.649 303.041 353.814 303.43 353.257C304.098 352.367 304.878 351.921 305.991 351.977C306.993 352.033 307.661 352.2 308.663 351.81C309.998 351.309 311.557 350.919 312.837 351.754C313.338 352.088 313.728 352.756 314.284 353.035C315.231 353.035 316.177 352.979 317.123 352.812C317.958 352.645 318.793 352.589 319.684 352.589C321.019 352.589 322.133 352.868 323.302 353.48C323.58 353.647 324.471 353.925 324.248 354.426C323.19 354.259 322.355 354.259 321.353 354.593C319.684 355.15 318.292 356.263 316.901 357.376C316.789 357.209 321.576 356.597 321.91 356.541C324.137 356.43 326.363 356.43 328.59 356.541C329.146 356.541 329.647 356.653 330.148 356.931C331.707 357.154 333.432 356.597 335.046 356.541C336.215 356.374 337.384 356.486 338.553 356.82C338.998 357.209 339.555 357.432 340.112 357.488C340.167 356.541 340.278 355.372 339.889 354.482C339.054 352.589 337.106 352.255 335.269 351.921C333.822 351.699 332.375 351.532 330.927 351.81C329.647 352.088 328.422 352.534 327.142 352.756C326.864 352.144 326.586 351.532 326.363 350.919C325.918 350.697 325.472 350.418 325.027 350.196C323.858 350.196 322.689 350.252 321.576 350.363C321.131 349.973 320.686 349.472 320.352 348.971C318.904 347.079 316.455 347.301 314.284 347.413C312.559 347.468 311.167 347.802 309.609 348.359C308.551 346.745 306.38 346.021 304.599 346.856C307.104 345.576 309.497 344.129 312.392 344.017C313.672 343.962 314.173 344.296 315.286 343.628C314.674 342.515 312.726 342.96 311.613 342.96C310.611 342.96 309.33 343.349 308.329 343.182C308.329 341.735 308.941 340.733 309.442 339.397C310.277 337.004 312.559 336.559 314.507 338.117C314.952 338.451 315.008 338.674 315.565 338.729C316.4 338.841 316.845 338.785 317.513 339.342C318.014 339.731 318.292 340.232 318.682 340.733C318.849 340.789 319.071 340.845 319.238 340.9C319.572 341.513 319.739 342.125 319.628 342.848C320.407 343.015 321.131 342.848 321.854 342.292C322.912 342.125 324.025 341.958 325.083 341.902C327.142 341.457 328.979 340.789 330.927 342.125C331.317 342.793 331.818 343.127 332.541 343.127C333.376 343.294 334.267 343.294 335.158 343.182C336.66 343.405 337.996 343.906 339.277 344.741C339.722 345.298 340.223 345.465 340.835 345.353C341.058 342.904 340.223 341.123 337.607 340.622C336.048 340.344 334.434 340.845 332.875 340.622C332.375 338.841 331.039 338.785 329.313 338.674C328.2 338.785 327.142 338.674 326.14 338.284C325.472 338.117 324.916 338.229 324.359 338.618C323.413 339.119 322.021 340.288 321.465 338.674C321.353 337.95 321.409 337.171 321.632 336.447C321.632 335.835 321.632 335.278 321.743 334.666C323.079 334.11 324.359 334.054 325.639 334.722C326.307 335.056 326.864 335.946 327.699 335.891C327.81 335.445 327.81 334.444 327.476 334.054C327.198 333.776 326.252 333.776 325.862 333.776C327.365 333.386 329.48 333.108 330.927 333.386C331.707 333.609 332.486 333.831 333.265 334.054C333.655 334.444 334.156 334.722 334.657 334.889C335.77 334.889 335.603 334.277 337.328 334.555C338.664 334.778 339.833 335.668 341.169 335.835C341.948 334.889 339.833 333.609 339.332 333.386C338.33 332.996 337.273 332.718 336.215 332.551C335.826 332.607 335.436 332.551 335.046 332.44C334.545 331.048 337.161 330.826 337.996 330.714C339.165 330.603 340.223 330.826 341.28 331.215C341.559 331.438 341.781 331.382 341.948 331.104C342.394 330.603 343.006 330.325 343.73 330.269C344.787 330.046 345.789 329.991 346.847 330.213C348.015 330.38 349.129 330.77 350.242 331.271C349.797 328.933 347.069 327.152 344.898 327.041C343.563 326.985 342.616 327.208 341.503 327.987C341.559 327.486 341.67 326.762 341.948 326.317C342.449 325.593 343.451 325.426 344.175 325.148C345.065 324.814 346.568 324.202 347.459 324.313C349.296 324.591 351.244 325.593 352.969 326.206C353.749 326.484 354.695 326.651 355.419 326.985C356.81 327.708 356.977 329.824 357.088 331.16C357.2 332.607 357.088 333.831 356.086 335C357.589 334.388 360.094 333.553 360.985 332.106C362.321 330.046 361.096 327.096 359.315 325.816C358.87 325.538 358.369 325.204 357.923 324.925C356.866 323.868 355.585 323.089 354.138 322.699C352.413 322.365 350.632 322.643 349.017 321.975C350.465 319.471 354.528 318.747 357.033 319.471C358.424 319.86 359.816 320.305 361.152 320.973C361.875 321.307 362.599 322.031 363.378 322.309C363.879 320.806 364.658 319.693 364.157 317.912C363.656 316.91 363.1 315.852 362.599 314.851C361.374 313.682 359.927 313.069 358.313 313.069C357.088 312.902 355.474 312.457 354.25 312.624C352.635 312.791 351.355 313.682 349.741 313.292C349.852 311.622 350.687 309.785 351.633 308.449C352.58 307.169 354.25 307.114 355.752 307.058C358.146 307.002 359.76 307.726 361.764 309.173C362.432 309.674 363.1 310.175 363.823 310.676C364.269 311.4 364.825 311.734 365.549 311.678C365.827 310.175 365.883 308.728 365.827 307.225C365.827 306.557 365.716 305.778 365.883 305.11C365.883 303.996 366.718 303.44 365.605 302.438Z" fill="#457FA4"/>
<path d="M365.326 351.532C365.215 351.031 363.99 350.085 363.545 349.806C362.154 348.971 359.816 349.472 358.257 349.472C357.534 349.472 356.754 349.361 356.086 349.639C355.419 349.918 354.695 350.753 354.25 351.309C353.749 351.921 353.526 352.645 353.415 353.424C353.303 353.981 353.526 354.593 353.359 355.15C352.357 355.205 352.079 356.486 351.745 357.265C351.355 358.211 351.467 358.545 350.409 358.489C350.131 358.489 349.741 358.601 349.518 358.489C349.184 358.378 349.24 358.156 348.962 357.933C348.405 357.543 347.626 357.376 347.014 357.71C345.789 358.378 345.065 359.937 343.563 359.937C342.839 359.937 341.893 359.77 341.225 359.992C340.668 360.159 340.501 360.605 340.056 360.939C339.165 361.551 337.829 360.883 336.883 360.827C335.77 360.772 334.1 360.605 333.098 361.161C331.762 361.941 330.76 363.555 330.649 365.058C330.593 365.893 330.092 366.616 330.037 367.395C330.037 367.729 330.092 368.676 329.424 368.62C329.09 368.62 328.812 367.896 328.645 367.729C328.144 367.284 327.866 367.395 327.254 367.395C326.419 367.395 326.029 367.173 325.639 368.008C325.361 368.564 325.305 369.232 324.972 369.789C325.417 369.789 325.639 369.399 326.029 369.288C326.53 369.121 326.975 369.232 327.421 369.399C328.144 369.678 328.812 370.178 328.812 371.013C329.87 371.069 332.709 369.399 332.653 371.626C333.432 371.793 337.161 371.013 337.106 372.516C336.66 371.96 336.605 371.013 336.215 370.401C335.547 369.344 334.323 368.787 333.098 368.731C332.263 368.676 332.096 368.787 331.762 367.952C331.595 367.618 331.373 366.672 330.872 367.006C331.428 366.115 332.041 365.336 332.764 364.612C333.376 364 333.543 364.223 334.323 364.39C335.547 364.612 336.994 363.499 338.108 364.056C338.776 364.334 338.664 364.557 338.943 365.225C339.165 365.837 339.165 365.948 339.889 366.004C340.612 366.115 340.557 366.004 341.058 366.56C341.559 367.061 341.893 367.395 342.505 366.95C343.062 366.56 343.006 365.781 343.507 365.336C344.008 364.891 344.954 364.946 345.566 365.002C347.737 365.28 349.63 366.616 351.801 367.006C352.079 365.837 350.91 364.557 350.019 364.056C349.129 363.666 348.183 363.443 347.236 363.499C346.847 363.61 346.513 363.61 346.179 363.499C345.956 361.718 343.618 363.109 342.616 363.332C343.507 362.441 345.065 361.607 346.179 361.217C346.958 360.939 349.129 360.271 350.075 360.772C350.465 360.994 350.576 361.551 351.077 361.718C351.689 361.885 352.301 361.44 352.914 361.44C353.248 361.328 353.526 361.384 353.86 361.551C353.916 361.718 353.971 361.829 354.027 361.996C354.361 362.275 354.305 362.497 354.862 362.386C356.142 362.163 355.196 360.104 354.25 359.881C354.639 357.488 358.48 357.877 360.205 357.822C360.818 357.822 361.374 357.822 362.042 357.989C363.044 358.323 363.768 359.436 364.714 359.603C365.382 359.714 365.438 359.269 365.716 358.712C366.384 357.376 367.108 356.486 366.551 354.983C366.384 354.593 366.106 354.148 365.994 353.758C365.772 353.146 365.994 352.701 365.326 351.532Z" fill="#457FA4"/>
<path d="M233.852 373.23C223.881 371.685 213.701 372.528 204.011 372.177C200.711 371.334 197.412 370.632 194.112 370.14C191.444 369.719 188.705 370.14 185.967 370.632C185.195 370.562 184.493 370.492 183.72 370.421C178.033 369.86 172.767 366.84 167.852 366.56C163.499 366.279 159.286 369.087 155.003 370.421C154.301 370.351 153.529 370.281 152.827 370.211C149.316 369.86 145.946 370.772 142.506 371.545C140.329 371.545 138.153 371.474 136.046 371.474C134.221 371.474 132.395 371.615 130.64 371.755C129.446 371.474 128.182 371.053 126.989 370.632C123.548 369.509 121.231 369.017 117.51 369.86C112.315 371.053 105.153 372.387 100.659 375.055C100.659 375.547 100.098 375.968 99.6062 376.319C99.3955 376.319 99.1849 376.319 98.9743 376.319C91.4616 382.287 82.6149 387.764 74.8915 388.957C113.157 386.149 152.897 390.151 191.444 388.676C232.026 387.132 272.047 384.042 312.7 384.042C286.37 382.357 259.479 377.232 233.852 373.23Z" fill="#356683"/>
<path d="M224.373 384.815C228.235 386.078 238.134 380.813 243.33 379.268C252.949 376.53 262.568 374.213 272.258 372.528C283.702 370.491 295.568 370.211 306.732 366.981C315.157 364.594 324.285 364.734 332.64 362.557C342.048 360.1 344.716 358.275 354.335 361.926C358.759 363.611 362.831 365.506 367.325 366.981C370.414 367.964 437.817 372.176 435.922 370.913C435.922 373.791 379.401 375.196 379.401 378.074V383.902L224.373 384.815Z" fill="#0D344B"/>
<path d="M174.733 384.955C200.641 381.164 231.886 379.198 258.917 379.198C271.204 379.198 283.491 379.408 295.357 379.198C307.644 378.917 314.946 375.336 327.023 373.932C334.746 370.281 341.206 370.983 347.735 371.474C360.584 372.528 368.588 369.789 380.244 368.876C388.669 363.189 397.726 363.751 411.488 363.751C425.32 363.751 432.692 362.698 445.19 360.521C458.39 358.204 471.098 358.345 485 357.292V391.344L174.733 384.955Z" fill="#0D2432"/>
<path d="M130.78 384.815C126.919 386.078 117.019 380.813 111.823 379.268C102.204 376.53 92.585 374.213 82.8957 372.528C71.4511 370.491 59.5853 370.211 48.4216 366.981C39.9962 364.594 30.8686 364.734 22.5134 362.557C13.105 360.1 10.4369 358.275 0.817852 361.926C-3.60551 363.611 -7.6778 365.506 -12.1714 366.981C-15.2607 367.964 -26.1436 370.702 -24.2478 369.438C-24.2478 372.317 -24.2478 375.196 -24.2478 378.074V383.902L130.78 384.815Z" fill="#0D344B"/>
<path d="M-121 385.868H79.2447C82.0532 385.868 84.8616 385.938 87.6701 385.727C78.4021 382.006 71.8724 376.108 61.4108 375.055C53.9683 374.283 46.245 374.283 38.8728 373.23C31.7112 372.247 24.3389 372.036 17.0368 370.983C11.139 370.14 5.59228 367.753 -0.305534 367.191C-6.83525 366.56 -13.0139 368.315 -19.5436 367.964C-30.9882 367.332 -41.3796 361.434 -53.105 361.223C-63.8474 361.013 -73.326 364.804 -84.2791 364.243C-96.0747 363.611 -106.887 355.466 -118.683 356.028C-118.683 364.945 -121 376.951 -121 385.868Z" fill="#0D2432"/>
<path d="M790.343 381H-567V639.632H790.343V381Z" fill="url(#paint1_linear)"/>
<path d="M242.43 498.845C248.735 499.195 253.988 499.336 255.319 499.336C255.389 499.336 255.389 499.266 255.389 499.266L255.809 499.406C255.669 499.476 255.599 499.546 255.459 499.616C254.338 503.468 263.655 507.951 263.655 507.951L263.865 508.022C264.075 513.415 278.015 521.12 278.155 521.19H278.015H277.874L269.749 520.7L285.51 529.666C285.79 529.806 285.93 529.806 286 529.806L285.79 529.876C285.65 529.806 271.78 524.413 251.607 521.821C251.887 522.031 251.957 522.171 251.957 522.171C250.976 522.591 249.785 522.942 248.665 523.222L252.867 525.533C255.389 524.763 255.179 523.922 255.179 523.922C260.292 526.444 262.744 528.545 262.744 528.545L259.732 529.316L269.469 534.71C269.889 534.92 270.169 534.99 270.169 534.99H270.029H269.889C269.889 534.99 269.399 534.78 268.558 534.43L268.418 534.359L268.348 534.43C268.068 534.359 241.94 526.234 219.875 522.521L221.136 523.362L214.621 522.872L217.563 524.483C220.856 524.623 222.116 524.343 222.116 524.343L227.3 527.775C225.689 527.705 224.288 527.635 223.097 527.495L231.083 531.838C231.223 531.908 231.363 531.908 231.433 531.978L231.363 532.048L231.293 532.118C184.781 516.637 126.501 503.959 125.871 503.819L125.661 503.749V503.679C125.661 503.609 123.069 495.623 134.207 492.051C133.296 490.72 132.806 489.249 133.366 488.198H229.962L231.993 489.319H230.102L231.503 490.089C231.503 490.089 233.394 489.809 238.298 491.35C243.201 492.891 249.715 495.973 249.715 495.973C249.715 495.973 245.022 495.763 238.438 495.483C239.488 496.674 240.889 497.724 242.43 498.845ZM238.087 495.693C234.165 495.553 229.542 495.413 224.918 495.273L229.401 497.865C233.534 498.285 238.017 498.635 242.01 498.845C240.539 497.724 239.138 496.604 238.087 495.693ZM239.558 505.71C238.928 505.43 238.298 505.22 237.667 504.939C233.394 503.538 223.798 500.526 212.59 497.724C217.633 500.246 221.836 502.628 224.498 504.169C232.624 506.761 238.227 508.932 239.979 509.633L249.715 510.053L242.22 505.92L239.558 505.71ZM206.566 520.14C203.904 519.369 200.472 518.459 196.619 517.268L192.907 517.058L186.953 514.396C176.515 511.314 164.817 507.741 155.501 504.939C174.414 512.785 198.931 518.879 199.071 518.949C201.943 519.649 204.464 520 206.566 520.14ZM203.554 517.618L200.402 517.478C203.484 518.669 205.935 519.579 207.687 520.21C207.967 520.21 208.247 520.21 208.527 520.21L203.554 517.618ZM220.926 509.072L216.303 506.55L203.624 507.181C200.402 505.43 197.109 503.819 194.027 502.418C188.634 500.807 179.387 498.215 169.581 496.113L170.982 497.164H170.772C184.361 504.799 191.856 506.06 191.856 506.06L183.03 505.92L188.424 508.862C192.276 508.162 192.977 506.691 192.977 506.691L203.974 513.205C215.742 514.676 227.44 517.478 234.305 519.299C220.435 512.294 203.554 507.181 203.554 507.181C211.89 508.792 217.353 509.212 220.926 509.072ZM227.58 506.06C228 506.34 228.421 506.551 228.911 506.831C247.684 512.224 263.865 518.669 267.928 520.28H268.208L250.626 510.613L240.259 510.053L239.418 509.563H239.558C237.737 508.862 232.414 506.831 224.988 504.449C226.67 505.43 227.58 506.06 227.58 506.06L226.459 506.13C226.81 506.2 227.23 506.34 227.58 506.41C227.65 506.2 227.58 506.06 227.58 506.06ZM260.783 519.86L267.577 520.21C263.305 518.459 247.544 512.294 229.401 507.041C233.604 509.493 237.247 511.734 240.189 513.625C250.766 516.427 258.261 518.949 260.783 519.86ZM268.418 520C267.017 519.089 262.324 515.797 258.471 512.014C258.121 511.664 257.771 511.314 257.421 510.964L252.027 510.683L268.418 520ZM187.093 509.072L180.998 505.92L172.593 505.78C174.974 506.901 177.286 507.951 179.598 509.002C182.75 509.212 185.201 509.212 187.093 509.072ZM169.09 496.043C168.6 495.973 168.18 495.833 167.689 495.763C166.499 495.763 165.448 495.763 164.397 495.833L168.18 497.865C169.861 497.514 170.772 497.164 170.772 497.164H170.561L169.09 496.043ZM168.81 495.833L168.67 495.693C168.53 495.693 168.39 495.693 168.25 495.693C168.46 495.763 168.67 495.763 168.81 495.833ZM161.735 495.833C159.494 495.903 158.093 495.903 158.093 495.903L157.042 495.343C150.528 495.483 150.458 495.903 150.458 495.903L151.298 496.394C150.528 496.534 149.757 496.674 148.917 496.814C150.177 497.444 151.088 497.865 151.088 497.865H150.948C157.533 498.985 162.786 498.705 166.218 498.215L161.735 495.833ZM151.018 497.865H150.878C150.878 497.865 149.967 497.444 148.706 496.814C145.274 497.514 141.632 498.635 138.409 499.756C147.516 500.947 154.1 501.507 158.373 501.717C153.4 499.476 151.018 497.865 151.018 497.865ZM188.073 495.693C184.431 495.623 180.228 495.623 176.095 495.623C179.317 496.324 180.578 496.744 180.718 496.744L180.648 496.884C180.648 496.884 179.177 496.464 175.535 495.623C173.293 495.623 171.052 495.623 168.95 495.693L169.301 495.903C178.757 497.935 187.653 500.456 193.187 502.067C186.112 498.845 180.648 496.814 180.648 496.814C189.334 498.075 195.779 498.285 200.402 498.075L199.001 497.304C195.078 496.394 190.945 495.553 186.742 494.853L188.073 495.693ZM138.409 499.756C135.467 500.737 132.876 501.717 131.125 502.418H147.165C141.772 500.807 138.409 499.756 138.409 499.756ZM143.873 496.814L142.052 495.833C140.581 496.113 139.32 496.464 138.48 496.814C138.48 496.814 137.359 495.903 136.098 494.572C123.629 496.814 130.354 501.297 131.125 501.787L143.873 496.814ZM186.462 494.642C190.665 495.413 194.728 496.183 198.58 497.094L191.856 493.522C189.684 493.522 187.233 493.522 184.641 493.522L186.462 494.642ZM202.713 497.935C205.725 497.654 207.687 497.164 208.807 496.884C204.605 495.903 200.332 494.993 195.989 494.222L202.713 497.935ZM251.046 510.123L256.93 510.403C255.95 509.352 255.109 508.232 254.408 507.111L244.041 506.13L251.046 510.123ZM254.829 507.181C255.459 508.302 256.37 509.422 257.28 510.473L261.623 510.683C260.853 510.263 258.541 509.002 255.529 507.251L254.829 507.181ZM276.964 520.7C273.882 518.879 263.725 512.645 263.445 507.951L255.95 507.251C258.962 509.002 261.343 510.263 262.044 510.613H262.534L263.655 511.174L257.841 510.893C258.191 511.244 258.541 511.664 258.962 512.014C263.445 516.427 269.189 520.21 269.259 520.21H268.978L276.964 520.7ZM285.44 529.736L269.048 520.7H268.768H268.698C268.698 520.7 268.698 520.7 268.628 520.7L261.483 520.28H261.063L260.363 519.86C257.701 518.879 250.556 516.497 240.469 513.905C246.563 517.898 250.066 520.7 251.396 521.821C269.609 524.132 282.778 528.756 285.44 529.736ZM227.58 506.55C227.09 506.41 226.6 506.27 226.109 506.13L218.264 506.48L222.677 508.932C226.459 508.512 227.37 507.251 227.58 506.55ZM247.824 523.572C245.442 524.132 243.341 524.553 243.341 524.553C240.819 522.872 237.947 521.19 234.865 519.649C228.141 517.828 216.233 514.956 204.324 513.415L211.96 517.898C226.529 520.56 239.769 524.343 249.085 527.425C249.715 527.635 250.346 527.845 250.976 528.055C249.155 527.074 247.964 526.584 247.964 526.584C249.785 526.444 251.116 526.164 252.167 525.954L247.824 523.572ZM259.102 529.596L257.07 530.087C261.483 531.628 264.916 533.029 267.227 533.939L259.102 529.596ZM215.042 519.579L219.595 522.521C239.979 525.954 263.795 533.099 267.858 534.359C265.686 533.449 261.904 531.978 256.86 530.157L255.389 530.507C254.058 529.666 252.797 528.896 251.677 528.335C250.836 528.055 249.925 527.775 249.015 527.425C239.839 524.413 226.67 520.63 212.31 518.038L204.815 517.688L209.508 520.21C213.15 520.21 215.042 519.579 215.042 519.579ZM213.711 522.942L206.566 522.381L198.02 518.669C198.37 518.739 198.721 518.809 199.071 518.949L130.494 502.628C129.654 502.978 129.023 503.188 128.813 503.328C131.335 503.889 168.88 511.804 210.348 523.782C213.08 524.203 215.182 524.483 216.863 524.553L213.711 522.942ZM231.013 531.978L222.677 527.635C217.774 527.215 215.882 526.654 215.882 526.654L208.597 523.572C208.807 523.642 209.088 523.642 209.298 523.712C167.059 511.524 129.163 503.608 128.743 503.538L128.673 503.468L126.011 503.889C130.144 504.729 185.972 517.058 231.013 531.978ZM126.011 503.819L129.443 502.488L131.054 501.857H130.844C130.774 501.787 128.463 500.456 128.112 498.845C127.832 497.444 129.093 495.623 135.888 494.432C135.327 493.802 134.767 493.171 134.277 492.471C124.26 495.763 125.731 502.768 126.011 503.819ZM202.783 493.522C202.783 493.522 199.701 493.452 194.868 493.452L195.708 493.942C200.192 494.712 204.745 495.693 209.088 496.744C209.648 496.534 209.928 496.464 209.928 496.464H209.718C209.718 496.464 208.948 495.903 207.477 495.063C206.846 495.063 206.216 495.063 205.585 495.063L202.783 493.522ZM207.827 495.063C209.298 495.903 210.138 496.464 210.138 496.464H209.928C210.629 496.814 211.329 497.164 212.03 497.514C222.257 500.036 231.223 502.768 236.196 504.379C226.6 500.316 221.976 496.884 221.976 496.884C223.447 497.164 225.129 497.374 226.81 497.584L222.607 495.273C217.283 495.063 212.1 494.993 207.827 495.063Z" fill="url(#paint2_linear)"/>
<path d="M225.87 466.377C231.856 465.638 237.103 465.416 238.433 465.342C238.507 465.416 238.581 465.416 238.654 465.49L238.802 465.194C238.581 465.047 238.285 464.899 238.063 464.751C229.491 456.77 230.526 447.459 230.526 447.459L230.673 447.311C220.402 436.078 220.18 420.19 220.18 420.042H220.032H219.884L212.199 421.003L211.46 402.454C211.534 402.233 211.608 402.085 211.608 402.085L211.238 401.937C211.164 402.085 207.026 413.17 190.768 418.49C190.62 418.047 190.546 417.825 190.546 417.825C188.699 417.012 186.778 416.273 184.93 415.608L184.856 410.731C188.995 412.283 190.472 414.13 190.472 414.13C190.916 408.883 189.438 404.523 189.438 404.523L184.782 402.972L184.561 391.813C184.634 391.443 184.708 391.222 184.708 391.148L184.561 391.074L184.413 391C184.413 391 184.339 391.443 184.117 392.182L184.043 392.256L183.896 392.182C183.748 392.33 171.924 409.179 155.888 416.865L155.592 415.165L149.68 416.199V412.874C152.858 412.505 154.779 413.17 154.779 413.17L153.597 406.075C152.045 406.223 150.789 406.445 149.68 406.667V397.725C149.754 397.651 149.754 397.577 149.828 397.503L149.68 397.429L149.533 397.355C130.393 429.353 93.5173 455.588 93.1478 455.809L93 455.883L93.1478 456.031C93.2956 456.253 106.006 472.658 124.776 480.122C126.476 482.93 128.693 485.886 131.353 488.103H233.26V485.812H231.265V484.186C231.265 484.186 233.777 484.704 235.92 481.526C238.063 478.348 238.95 471.919 238.95 471.919C238.95 471.919 234.368 472.363 227.939 472.88C226.978 470.885 226.387 468.668 225.87 466.377ZM227.422 472.88C223.505 473.175 218.997 473.471 214.342 473.693L214.12 468.372C217.667 467.485 221.732 466.82 225.574 466.377C226.018 468.668 226.609 470.885 227.422 472.88ZM209.464 452.114C209.243 452.632 209.095 453.149 208.947 453.666C207.174 456.548 202.887 462.83 196.458 468.594C196.902 463.421 196.754 458.47 196.532 455.292C200.005 449.897 201.779 445.463 202.296 444.059L211.681 443.173L211.755 451.671L209.464 452.114ZM146.651 422.259C145.246 423.811 143.547 425.806 141.699 428.097L138.078 428.467L136.97 434.009C131.945 440.438 126.476 447.754 122.116 453.592C126.92 437.408 140.813 424.698 140.96 424.624C142.734 423.294 144.729 422.555 146.651 422.259ZM148.35 427.432L145.32 427.728C146.281 425.289 147.094 423.368 147.685 422.111C147.981 422.111 148.276 422.037 148.572 422.037L148.35 427.432ZM183.23 445.168L183.157 450.341L168.598 449.084C168.598 452.705 168.229 456.031 167.712 458.913C165.125 462.165 160.396 467.559 154.188 471.993L153.671 469.85L153.523 469.924C153.08 454.11 158.548 451.523 158.548 451.523L149.533 451.819V445.685C154.927 447.089 158.548 450.193 158.548 450.193L157.514 436.743C167.12 433.713 173.919 427.875 177.614 424.107C176.58 438.591 168.598 449.158 168.598 449.158C174.289 445.759 179.24 444.872 183.23 445.168ZM196.163 451.449C196.163 450.932 196.089 450.415 196.089 449.897C205.4 438.739 210.13 425.511 211.238 422.111H211.534L211.681 442.138L201.779 443.246V444.207H201.927C201.41 445.685 199.71 449.897 196.532 454.849C196.384 452.632 196.163 451.449 196.163 451.449L194.906 451.301C195.128 451.08 195.276 450.858 195.498 450.636C195.941 451.154 196.163 451.449 196.163 451.449ZM204.439 422.85L210.869 422.111C209.686 425.659 205.031 438.443 196.089 449.38C195.793 444.355 195.276 439.773 194.685 435.709C200.597 430.019 203.479 424.698 204.439 422.85ZM212.199 422.555C212.568 424.476 213.898 431.275 217.224 439.108C217.519 439.847 217.889 440.586 218.185 441.325L213.012 441.916L212.199 422.555ZM147.685 445.242L147.463 451.819L138.817 452.114C139.187 449.823 139.556 447.606 140 445.537C142.734 444.798 145.32 444.872 147.685 445.242ZM153.893 472.141C153.597 472.363 153.301 472.584 153.006 472.732C151.75 472.732 150.567 472.658 149.459 472.658V468.446C151.897 469.185 153.523 469.85 153.523 469.85L153.375 469.924L153.893 472.141ZM153.967 472.51L154.04 472.806C153.893 472.806 153.745 472.806 153.597 472.806C153.745 472.732 153.893 472.658 153.967 472.51ZM146.577 472.584C144.138 472.51 142.586 472.436 142.586 472.436V473.619C135.492 473.397 134.531 472.436 134.531 472.436V471.476C133.497 471.254 132.388 470.885 131.206 470.589C131.353 469.333 131.501 468.446 131.501 468.446H131.353C136.157 466.155 142.217 466.746 146.798 467.781L146.577 472.584ZM131.28 468.446H131.132C131.132 468.446 130.984 469.333 130.836 470.515C125.811 468.963 119.825 466.672 114.209 464.455C121.451 461.943 127.363 460.908 131.501 460.465C130.614 464.973 131.28 468.446 131.28 468.446ZM174.584 472.806C170.889 472.954 166.455 472.954 162.095 472.954C164.091 471.476 164.682 470.663 164.756 470.589L164.46 470.367C164.46 470.367 163.721 471.254 161.504 472.954C159.065 472.954 156.701 472.88 154.484 472.806L154.336 472.289C160.322 468.003 164.904 462.904 167.638 459.578C166.455 466.229 164.608 470.441 164.608 470.441C171.259 467.781 177.688 467.411 183.009 467.855V469.407C180.57 471.254 177.91 473.028 174.88 474.58L174.584 472.806ZM114.209 464.381C109.184 462.312 104.528 460.317 101.351 458.839H118.273C115.835 462.238 114.209 464.381 114.209 464.381ZM125.737 470.515V472.51C123.594 471.919 121.673 471.254 120.121 470.515C120.121 470.515 120.712 472.436 121.968 475.171C104.38 470.515 102.902 461.278 102.755 460.317L125.737 470.515ZM174.88 475.023C177.91 473.471 180.57 471.771 182.935 469.998L182.861 477.462C180.57 477.462 177.984 477.462 175.249 477.388L174.88 475.023ZM185.817 468.298C189.512 468.889 192.542 469.85 194.315 470.515C191.803 472.51 188.995 474.432 185.965 476.058L185.817 468.298ZM213.012 443.025L218.702 442.434C219.736 444.651 220.993 446.941 222.471 449.232L213.455 451.228L213.012 443.025ZM222.766 449.158C221.288 446.867 220.106 444.577 219.071 442.434L223.284 441.99C223.284 442.803 223.284 445.463 223.431 449.011L222.766 449.158ZM219.81 421.077C220.032 424.772 221.51 437.778 230.304 447.459L223.727 448.937C223.579 445.389 223.579 442.729 223.579 441.99L224.023 441.916V440.66L218.48 441.251C218.111 440.438 217.741 439.699 217.446 438.886C213.603 429.723 212.42 421.964 212.347 421.89L212.051 421.964V421.89L219.81 421.077ZM211.312 402.528L211.46 421.151H211.164H211.09L204.365 422.037L203.922 422.111V422.924C202.961 424.92 200.079 429.871 194.537 435.265C193.207 426.989 191.433 421.151 190.694 418.934C205.474 414.056 210.425 404.523 211.312 402.528ZM195.202 450.415C194.98 450.71 194.685 451.006 194.463 451.301L185.447 450.562L185.373 445.537C190.251 446.35 193.65 448.937 195.202 450.415ZM183.6 415.239C179.979 413.983 177.023 413.244 177.023 413.244C177.688 416.791 177.836 420.19 177.614 423.442C174.067 427.21 167.12 433.196 157.44 436.3L156.701 426.989C166.973 421.52 173.55 413.613 177.466 407.332C177.762 406.888 177.984 406.445 178.279 406.001C178.205 407.997 177.984 409.105 177.984 409.105C180.201 409.475 182.122 409.918 183.674 410.435L183.6 415.239ZM183.748 402.75L180.644 401.715C182.27 398.464 183.23 395.656 183.896 393.734L183.748 402.75ZM156.775 423.515L155.814 417.382C170.668 410.361 181.9 395.508 183.822 392.921C183.23 394.769 182.196 397.873 180.348 401.568L178.057 400.829C178.279 402.602 178.353 404.08 178.353 405.336C177.984 405.928 177.614 406.593 177.245 407.184C173.402 413.391 166.899 421.225 156.775 426.619L149.533 427.358V422.111C153.523 422.111 156.775 423.515 156.775 423.515ZM148.794 416.421L142.29 417.53L140.369 425.141C140.591 424.92 140.813 424.772 141.034 424.624L100.316 458.396C98.7641 457.657 97.6556 457.139 97.2122 456.992C98.838 455.883 123.077 439.478 143.547 414.722C145.542 413.835 147.389 413.317 148.941 413.096L148.794 416.421ZM149.459 397.799L149.089 406.814C144.729 407.701 143.842 408.883 143.842 408.883L142.143 415.313C142.291 415.239 142.512 415.165 142.66 415.017C121.747 440.217 97.0644 456.548 96.7688 456.696L96.8427 456.844L93.2217 455.957C95.956 454.11 130.91 428.688 149.459 397.799ZM93.3695 456.105L99.6509 458.913L102.533 460.169H102.385C102.385 460.317 102.533 463.051 105.415 466.451C107.78 469.333 112.657 473.102 122.19 475.54C122.781 476.796 123.52 478.201 124.333 479.679C107.041 472.658 95.0692 458.248 93.3695 456.105ZM194.241 477.24C194.241 477.24 191.064 477.314 185.965 477.388V476.427C189.142 474.801 192.098 472.806 194.685 470.663C195.645 471.032 196.163 471.328 196.237 471.328L196.089 471.402C196.089 471.402 196.31 472.584 196.384 474.21C195.645 474.21 194.98 474.136 194.315 474.136V477.24H194.241ZM196.68 474.136C196.68 472.436 196.384 471.254 196.384 471.254L196.237 471.328C196.31 470.589 196.384 469.924 196.458 469.185C202.37 463.938 206.509 458.248 208.652 454.996C206.435 463.347 208.282 470.515 208.282 470.515C209.391 469.998 210.647 469.481 212.051 469.037L212.125 473.841C206.582 474.062 201.188 474.21 196.68 474.136Z" fill="#081C28"/>
</g>
<defs>
<linearGradient id="paint0_linear" x1="170.992" y1="0.030252" x2="170.992" y2="379.369" gradientUnits="userSpaceOnUse">
<stop stop-color="#2C5976"/>
<stop offset="1" stop-color="#61A5D1"/>
</linearGradient>
<linearGradient id="paint1_linear" x1="111.579" y1="379.92" x2="111.579" y2="634.042" gradientUnits="userSpaceOnUse">
<stop stop-color="#407799"/>
<stop offset="1" stop-color="#0D4C74"/>
</linearGradient>
<linearGradient id="paint2_linear" x1="163.688" y1="471.248" x2="163.688" y2="536.338" gradientUnits="userSpaceOnUse">
<stop stop-color="#162E3E"/>
<stop offset="1" stop-color="#1D4157" stop-opacity="0"/>
</linearGradient>
<clipPath id="clip0">
<rect width="343" height="635" fill="white"/>
</clipPath>
</defs>
</svg>
