<svg width="720" height="976" viewBox="0 0 720 976" fill="none" xmlns="http://www.w3.org/2000/svg">
<g clip-path="url(#clip0)">
<rect width="720" height="976" fill="#FBFBFB"/>
<path d="M887.355 -5.52502H-458.535V764.92H887.355V-5.52502Z" fill="url(#paint0_linear)"/>
<path opacity="0.26" d="M887.355 208.158V282.892C798.046 202.38 636.25 200.165 530.694 286.84C416.101 381.027 462.342 413.289 197.106 320.547C-201.662 181.096 -386.914 332.489 -458.535 425.905V226.168C-354.901 161.065 -250.018 134.099 -7.56567 213.744C145.674 264.112 222.197 154.998 370.149 277.209C437.732 333.067 642.211 14.2951 887.355 208.158Z" fill="#80CEFF"/>
<path opacity="0.26" d="M887.355 376.669V471.53C744.691 343.347 596.354 429.156 543.288 464.596C487.049 502.155 462.534 568.606 127.985 461.707C-124.274 381.099 -358.555 452.365 -458.535 492.332V401.805C-232.137 315.708 180.955 424.629 264.977 450.15C421.773 497.725 399.374 502.348 578.089 391.115C704.122 312.722 825.636 339.495 887.355 376.669Z" fill="#80CEFF"/>
<path d="M249.115 53.3177L251.326 74.2161L272.187 76.4311L251.326 78.7424L249.115 99.5444L246.807 78.7424L226.042 76.4311L246.807 74.2161L249.115 53.3177Z" fill="white"/>
<path d="M726.04 143.556L727.867 160.217L744.498 162.047L727.867 163.877L726.04 180.441L724.214 163.877L707.583 162.047L724.214 160.217L726.04 143.556Z" fill="white"/>
<path d="M660.669 89.4324L661.918 100.604L673.07 101.856L661.918 103.011L660.669 114.183L659.515 103.011L648.363 101.856L659.515 100.604L660.669 89.4324Z" fill="white"/>
<path d="M426.58 34.4418L427.637 44.1686L437.443 45.228L427.637 46.2874L426.58 56.1105L425.522 46.2874L415.813 45.228L425.522 44.1686L426.58 34.4418Z" fill="white"/>
<path d="M573.186 259.701L573.955 266.538L580.684 267.213L573.955 267.983L573.186 274.724L572.513 267.983L565.687 267.213L572.513 266.538L573.186 259.701Z" fill="white"/>
<path d="M499.162 160.217L500.508 172.64L513.005 173.988L500.508 175.433L499.162 187.857L497.816 175.433L485.415 173.988L497.816 172.64L499.162 160.217Z" fill="white"/>
<path d="M122.505 248.722L123.178 255.367L129.811 256.041L123.178 256.715L122.505 263.36L121.832 256.715L115.199 256.041L121.832 255.367L122.505 248.722Z" fill="white"/>
<path d="M412.063 324.803L413.121 334.722L423.023 335.782L413.121 336.841L412.063 346.761L411.006 336.841L401.104 335.782L411.006 334.722L412.063 324.803Z" fill="white"/>
<path d="M524.349 264.42L525.984 279.443L540.981 281.081L525.984 282.718L524.349 297.741L522.715 282.718L507.718 281.081L522.715 279.443L524.349 264.42Z" fill="white"/>
<path d="M375.34 210.584L376.59 222.43L388.414 223.682L376.59 225.03L375.34 236.876L373.994 225.03L362.17 223.682L373.994 222.43L375.34 210.584Z" fill="white"/>
<path d="M257.671 243.232L259.017 255.752L271.418 257.1L259.017 258.448L257.671 270.872L256.325 258.448L243.827 257.1L256.325 255.752L257.671 243.232Z" fill="white"/>
<path d="M28.3888 145.771L29.5424 156.268L40.0211 157.424L29.5424 158.58L28.3888 169.077L27.2352 158.58L16.7565 157.424L27.2352 156.268L28.3888 145.771Z" fill="white"/>
<path d="M361.016 287.244C363.405 287.244 365.342 285.303 365.342 282.91C365.342 280.516 363.405 278.576 361.016 278.576C358.627 278.576 356.69 280.516 356.69 282.91C356.69 285.303 358.627 287.244 361.016 287.244Z" fill="white"/>
<path d="M435.04 292.059C436.898 292.059 438.404 290.55 438.404 288.689C438.404 286.827 436.898 285.318 435.04 285.318C433.181 285.318 431.675 286.827 431.675 288.689C431.675 290.55 433.181 292.059 435.04 292.059Z" fill="white"/>
<path d="M419.658 227.535C422.048 227.535 423.984 225.594 423.984 223.201C423.984 220.807 422.048 218.867 419.658 218.867C417.269 218.867 415.332 220.807 415.332 223.201C415.332 225.594 417.269 227.535 419.658 227.535Z" fill="white"/>
<path d="M302.374 334.434C303.17 334.434 303.816 333.787 303.816 332.989C303.816 332.191 303.17 331.545 302.374 331.545C301.577 331.545 300.932 332.191 300.932 332.989C300.932 333.787 301.577 334.434 302.374 334.434Z" fill="white"/>
<path d="M318.236 275.688C319.829 275.688 321.12 274.394 321.12 272.798C321.12 271.203 319.829 269.909 318.236 269.909C316.643 269.909 315.352 271.203 315.352 272.798C315.352 274.394 316.643 275.688 318.236 275.688Z" fill="white"/>
<path d="M317.274 205.384C318.336 205.384 319.197 204.522 319.197 203.458C319.197 202.395 318.336 201.532 317.274 201.532C316.213 201.532 315.352 202.395 315.352 203.458C315.352 204.522 316.213 205.384 317.274 205.384Z" fill="white"/>
<path d="M271.322 176.974C272.649 176.974 273.725 175.896 273.725 174.567C273.725 173.237 272.649 172.159 271.322 172.159C269.994 172.159 268.918 173.237 268.918 174.567C268.918 175.896 269.994 176.974 271.322 176.974Z" fill="white"/>
<path d="M233.637 189.012C235.23 189.012 236.521 187.719 236.521 186.123C236.521 184.528 235.23 183.234 233.637 183.234C232.044 183.234 230.753 184.528 230.753 186.123C230.753 187.719 232.044 189.012 233.637 189.012Z" fill="white"/>
<path d="M182.686 214.052C184.278 214.052 185.57 212.758 185.57 211.163C185.57 209.567 184.278 208.273 182.686 208.273C181.093 208.273 179.802 209.567 179.802 211.163C179.802 212.758 181.093 214.052 182.686 214.052Z" fill="white"/>
<path d="M60.594 222.719C62.1868 222.719 63.4781 221.426 63.4781 219.83C63.4781 218.234 62.1868 216.941 60.594 216.941C59.0012 216.941 57.71 218.234 57.71 219.83C57.71 221.426 59.0012 222.719 60.594 222.719Z" fill="white"/>
<path d="M495.124 240.054C497.248 240.054 498.97 238.33 498.97 236.202C498.97 234.075 497.248 232.35 495.124 232.35C493 232.35 491.279 234.075 491.279 236.202C491.279 238.33 493 240.054 495.124 240.054Z" fill="white"/>
<path d="M478.301 298.8C479.628 298.8 480.704 297.722 480.704 296.393C480.704 295.063 479.628 293.985 478.301 293.985C476.973 293.985 475.897 295.063 475.897 296.393C475.897 297.722 476.973 298.8 478.301 298.8Z" fill="white"/>
<path d="M381.204 131.229C383.593 131.229 385.53 129.288 385.53 126.895C385.53 124.502 383.593 122.561 381.204 122.561C378.815 122.561 376.878 124.502 376.878 126.895C376.878 129.288 378.815 131.229 381.204 131.229Z" fill="white"/>
<path d="M596.643 86.5432C598.236 86.5432 599.527 85.2497 599.527 83.6541C599.527 82.0584 598.236 80.7649 596.643 80.7649C595.05 80.7649 593.759 82.0584 593.759 83.6541C593.759 85.2497 595.05 86.5432 596.643 86.5432Z" fill="white"/>
<path d="M651.44 43.2057C653.033 43.2057 654.324 41.9122 654.324 40.3165C654.324 38.7209 653.033 37.4274 651.44 37.4274C649.847 37.4274 648.556 38.7209 648.556 40.3165C648.556 41.9122 649.847 43.2057 651.44 43.2057Z" fill="white"/>
<path d="M598.085 134.215C599.678 134.215 600.969 132.921 600.969 131.325C600.969 129.73 599.678 128.436 598.085 128.436C596.492 128.436 595.201 129.73 595.201 131.325C595.201 132.921 596.492 134.215 598.085 134.215Z" fill="white"/>
<path d="M365.534 362.363C368.295 362.363 370.533 360.121 370.533 357.355C370.533 354.589 368.295 352.347 365.534 352.347C362.774 352.347 360.535 354.589 360.535 357.355C360.535 360.121 362.774 362.363 365.534 362.363Z" fill="white"/>
<path d="M371.879 327.115C373.419 327.115 374.667 325.864 374.667 324.322C374.667 322.779 373.419 321.529 371.879 321.529C370.339 321.529 369.091 322.779 369.091 324.322C369.091 325.864 370.339 327.115 371.879 327.115Z" fill="white"/>
<path d="M658.65 189.109C660.243 189.109 661.534 187.815 661.534 186.219C661.534 184.624 660.243 183.33 658.65 183.33C657.057 183.33 655.766 184.624 655.766 186.219C655.766 187.815 657.057 189.109 658.65 189.109Z" fill="white"/>
<path d="M598.085 215.111C598.881 215.111 599.527 214.465 599.527 213.667C599.527 212.869 598.881 212.222 598.085 212.222C597.288 212.222 596.643 212.869 596.643 213.667C596.643 214.465 597.288 215.111 598.085 215.111Z" fill="white"/>
<path d="M21.6592 84.1355C24.9511 84.1355 27.6196 81.4622 27.6196 78.1646C27.6196 74.8669 24.9511 72.1936 21.6592 72.1936C18.3674 72.1936 15.6989 74.8669 15.6989 78.1646C15.6989 81.4622 18.3674 84.1355 21.6592 84.1355Z" fill="white"/>
<path d="M142.405 82.2095C143.201 82.2095 143.847 81.5627 143.847 80.7649C143.847 79.9671 143.201 79.3203 142.405 79.3203C141.609 79.3203 140.963 79.9671 140.963 80.7649C140.963 81.5627 141.609 82.2095 142.405 82.2095Z" fill="white"/>
<path d="M179.897 280.117C180.694 280.117 181.339 279.471 181.339 278.673C181.339 277.875 180.694 277.228 179.897 277.228C179.101 277.228 178.455 277.875 178.455 278.673C178.455 279.471 179.101 280.117 179.897 280.117Z" fill="white"/>
<path d="M363.708 178.996C364.876 178.996 365.823 178.048 365.823 176.878C365.823 175.708 364.876 174.759 363.708 174.759C362.54 174.759 361.593 175.708 361.593 176.878C361.593 178.048 362.54 178.996 363.708 178.996Z" fill="white"/>
<path d="M514.351 76.3346C515.413 76.3346 516.274 75.4723 516.274 74.4085C516.274 73.3448 515.413 72.4824 514.351 72.4824C513.289 72.4824 512.428 73.3448 512.428 74.4085C512.428 75.4723 513.289 76.3346 514.351 76.3346Z" stroke="#E6E6E6" stroke-width="0.96135" stroke-miterlimit="10"/>
<path d="M308.622 29.1451C309.684 29.1451 310.545 28.2827 310.545 27.219C310.545 26.1552 309.684 25.2928 308.622 25.2928C307.561 25.2928 306.7 26.1552 306.7 27.219C306.7 28.2827 307.561 29.1451 308.622 29.1451Z" stroke="#E6E6E6" stroke-width="0.96135" stroke-miterlimit="10"/>
<path d="M195.664 128.34C196.991 128.34 198.067 127.262 198.067 125.932C198.067 124.602 196.991 123.524 195.664 123.524C194.336 123.524 193.26 124.602 193.26 125.932C193.26 127.262 194.336 128.34 195.664 128.34Z" stroke="#E6E6E6" stroke-width="0.96135" stroke-miterlimit="10"/>
<path d="M69.2462 42.6278C70.839 42.6278 72.1303 41.3343 72.1303 39.7387C72.1303 38.143 70.839 36.8495 69.2462 36.8495C67.6534 36.8495 66.3622 38.143 66.3622 39.7387C66.3622 41.3343 67.6534 42.6278 69.2462 42.6278Z" stroke="#E6E6E6" stroke-width="0.96135" stroke-miterlimit="10"/>
<path d="M626.156 281.466C627.324 281.466 628.271 280.517 628.271 279.347C628.271 278.177 627.324 277.228 626.156 277.228C624.988 277.228 624.041 278.177 624.041 279.347C624.041 280.517 624.988 281.466 626.156 281.466Z" stroke="#E6E6E6" stroke-width="0.96135" stroke-miterlimit="10"/>
<path d="M232.483 317.58C233.651 317.58 234.598 316.632 234.598 315.461C234.598 314.291 233.651 313.343 232.483 313.343C231.315 313.343 230.368 314.291 230.368 315.461C230.368 316.632 231.315 317.58 232.483 317.58Z" stroke="#E6E6E6" stroke-width="0.96135" stroke-miterlimit="10"/>
<path d="M448.787 167.825C449.424 167.825 449.941 167.308 449.941 166.669C449.941 166.031 449.424 165.514 448.787 165.514C448.15 165.514 447.633 166.031 447.633 166.669C447.633 167.308 448.15 167.825 448.787 167.825Z" stroke="#E6E6E6" stroke-width="0.96135" stroke-miterlimit="10"/>
<path d="M472.821 137.971C473.458 137.971 473.974 137.453 473.974 136.815C473.974 136.177 473.458 135.659 472.821 135.659C472.184 135.659 471.667 136.177 471.667 136.815C471.667 137.453 472.184 137.971 472.821 137.971Z" stroke="#E6E6E6" stroke-width="0.96135" stroke-miterlimit="10"/>
<path d="M745 893V591.217C720.792 602.057 696.026 613.338 686.405 618.318C665.114 629.306 622.471 660.07 616.636 664.465C610.802 668.86 510.06 686.439 471.327 715.006C458.478 724.455 430.919 729.217 399.697 731.414C369.716 729.217 343.15 724.455 330.859 715.006C293.617 686.439 196.785 668.86 191.199 664.465C185.612 660.07 144.645 629.306 124.162 618.318C103.678 607.331 12.433 565.58 12.433 565.58C12.433 565.58 23.6059 565.58 -15.4991 561.185C-54.6041 556.79 -114.193 548 -114.193 548L-124 556.57V893H745Z" fill="url(#paint1_linear)"/>
<path d="M132 907.481C174.957 921.365 219.488 944.475 264.805 979.733C425.925 1104.78 545.903 1049.34 649 989.872V901.361C605.982 879.53 556.733 838.152 528.538 837.056C459.564 834.316 497.137 836.325 544.329 795.221C588.315 756.857 551.106 727.81 376.13 731.282C290.518 733.017 216.281 782.251 314.296 784.991C390.591 787.183 214.042 870.579 132 907.481Z" fill="#92BEDA"/>
<path d="M740.952 654.792C738.487 651.228 734.985 641.578 734.79 640.883C734.985 642.187 740.887 680.35 737.32 681.045C733.688 681.741 723.051 678.35 723.051 678.35C723.051 678.35 735.439 705.56 732.455 703.561C729.472 701.561 722.403 698.258 722.403 698.258C722.403 698.258 733.947 712.167 730.704 712.167C727.526 712.167 716.176 713.123 716.176 713.123C716.176 713.123 732.585 732.422 727.721 730.075C722.792 727.728 708.718 724.424 708.718 724.424C708.718 724.424 734.985 759.98 727.721 757.285C720.716 754.677 715.074 751.808 714.749 751.634C715.268 752.243 730.25 770.238 725.84 769.194C723.051 768.586 717.927 768.238 714.425 768.064C710.988 764.326 704.372 757.458 702.362 755.72C699.508 753.286 713.777 743.376 709.626 744.419C705.475 745.462 696.006 748.157 697.108 746.157C698.211 744.071 704.113 720.86 702.167 722.251C700.221 723.642 697.562 724.337 694.903 727.032C692.244 729.727 692.893 702.431 691.141 704.082C689.39 705.821 684.98 707.125 684.98 707.125C684.98 707.125 681.218 674.96 679.467 671.048C679.467 671.048 677.846 710.776 675.835 707.994C673.825 705.212 671.036 697.215 671.036 697.215C671.036 697.215 675.835 727.728 673.046 728.249C670.257 728.771 662.021 726.163 662.021 726.163C662.021 726.163 671.555 747.201 669.285 745.636C666.95 744.071 661.567 741.55 661.567 741.55C661.567 741.55 670.452 752.33 667.987 752.33C665.523 752.33 656.767 753.112 656.767 753.112C656.767 753.112 669.479 767.977 665.653 766.152C661.891 764.326 650.995 761.805 650.995 761.805C650.995 761.805 671.295 789.276 665.653 787.189C660.075 785.103 655.6 782.843 655.6 782.843C655.6 782.843 667.663 797.186 664.161 796.404C660.723 795.622 652.616 795.361 652.616 795.361C652.616 795.361 662.604 809.096 662.864 810.487C662.929 810.661 662.734 810.661 662.345 810.226C660.01 808.053 648.855 803.532 643.796 803.098V807.879C645.352 809.705 647.298 811.791 649.373 813.964C648.141 814.66 646.585 815.181 645.028 816.659C643.277 818.398 643.731 801.359 642.563 802.402C641.396 803.446 638.477 804.315 638.477 804.315C638.477 804.315 636.013 784.321 634.781 781.886C634.781 781.886 633.678 806.662 632.381 804.923C631.084 803.185 629.203 798.23 629.203 798.23C629.203 798.23 632.381 817.268 630.5 817.529C628.619 817.876 623.106 816.225 623.106 816.225C623.106 816.225 629.462 829.351 627.971 828.395C626.479 827.439 622.782 825.874 622.782 825.874C622.782 825.874 628.749 832.568 627.063 832.568C625.376 832.568 619.604 833.089 619.604 833.089C619.604 833.089 628.1 842.391 625.571 841.261C623.041 840.131 615.777 838.566 615.777 838.566C615.777 838.566 629.333 855.692 625.571 854.388C621.809 853.084 618.826 851.693 618.826 851.693C618.826 851.693 626.868 860.647 624.533 860.125C622.198 859.604 616.815 859.517 616.815 859.517C616.815 859.517 623.495 868.036 623.69 868.905C623.69 868.992 623.625 868.992 623.366 868.731C622.004 867.514 615.842 865.167 612.145 864.472C612.34 862.994 612.47 861.69 612.405 860.734C614.286 860.995 617.139 860.995 617.139 860.995C617.139 860.995 609.421 852.736 607.541 851.084C605.595 849.52 615.259 842.826 612.405 843.521C609.616 844.217 603.26 846.042 603.973 844.651C604.687 843.26 608.708 827.613 607.346 828.569C605.984 829.525 604.233 829.96 602.482 831.785C600.731 833.611 601.185 815.181 599.952 816.398C598.785 817.529 595.801 818.485 595.801 818.485C595.801 818.485 593.272 796.839 592.105 794.231C592.105 794.231 591.002 821.006 589.64 819.093C588.343 817.268 586.527 812.139 586.462 811.878C586.592 812.573 589.64 832.394 587.759 832.742C585.878 833.089 580.301 831.351 580.301 831.351C580.301 831.351 586.721 845.521 585.165 844.477C583.608 843.434 579.976 841.696 579.976 841.696C579.976 841.696 585.943 848.911 584.322 848.911C582.7 848.911 576.798 849.433 576.798 849.433C576.798 849.433 585.359 859.43 582.765 858.213C580.301 856.996 573.166 855.344 572.907 855.257C573.296 855.779 586.527 873.687 582.765 872.383C579.198 871.079 576.279 869.601 576.02 869.427C576.409 869.949 584.062 879.076 581.792 878.555C579.457 878.033 574.009 877.859 574.009 877.859C574.009 877.859 580.69 887.074 580.884 888.03C580.884 888.204 580.819 888.117 580.495 887.857C578.939 886.379 571.415 883.336 567.978 883.075V886.292C571.934 890.986 580.625 899.071 577.641 898.028C576.669 897.68 568.886 895.246 568.886 895.246C568.886 895.246 569.664 896.463 570.702 898.201C570.702 898.201 579.782 914.892 577.641 914.371C576.863 914.197 575.307 913.415 573.555 912.632C573.62 912.545 568.886 910.459 567.913 910.111C567.913 910.111 575.501 921.76 574.463 921.76C573.361 921.76 569.988 921.847 567.913 921.934V923.673C568.043 923.846 568.237 923.933 568.367 924.107C551.115 925.846 533.344 926.281 514.989 924.89C514.989 922.456 515.054 920.369 515.054 919.674C515.119 917.848 515.962 904.721 516.287 900.288C517.649 898.462 518.881 896.637 518.946 895.42C519.14 892.638 518.167 889.421 519.529 887.248C520.567 885.683 521.216 875.425 521.475 868.731C522.318 866.906 522.578 864.385 522.707 864.037C522.902 863.429 524.329 863.255 524.394 862.733C524.459 862.212 525.107 861.777 525.107 861.777C528.545 861.951 528.674 858.387 528.934 857.517C529.193 856.648 528.609 855.431 528.609 855.431C524.848 855.257 523.94 858.474 523.68 858.995C523.421 859.604 522.578 859.256 522.578 859.256C522.643 857.257 526.729 854.909 527.961 854.475C528.804 854.127 528.804 852.91 528.674 852.041L531.528 852.127L536.003 845.521L535.744 844.825C535.744 844.825 533.798 846.912 532.306 848.476L532.436 846.042H531.787L531.269 849.52C531.074 849.78 530.879 849.954 530.815 850.041C530.361 850.563 529.193 850.476 528.415 850.476C527.896 846.564 530.685 845.173 531.852 844.13L531.917 844.043L533.409 843.782L533.474 842.826L532.436 842.913C532.566 841.956 532.112 841 532.177 841.609C532.241 842.217 531.463 842.739 530.879 843.087L530.49 841.435H529.842V843.695C528.869 844.304 528.155 845.086 527.701 845.955C527.118 845.434 526.275 844.477 526.275 843.434C526.275 842.826 526.339 841.435 526.469 840.044L527.896 837.784L527.637 837.349L526.664 838.131C526.793 836.654 526.858 835.524 526.858 835.524L526.21 835.697C526.21 835.697 525.691 838.392 525.367 840.913L524.134 839.783L523.421 840.305L525.172 842.304C525.042 843.608 524.977 844.651 525.107 844.999C525.367 845.695 526.275 846.912 526.988 847.868C526.469 850.041 526.858 851.954 526.858 851.954C522.902 852.997 520.048 857.43 519.4 858.474C519.14 858.3 518.881 858.3 518.557 858.3C518.232 858.3 517.908 858.387 517.649 858.56C517.065 857.604 514.211 853.084 510.19 852.041C510.19 852.041 510.514 850.389 510.19 848.563C510.903 847.607 511.876 846.39 512.136 845.695C512.265 845.347 512.201 844.304 512.071 843L513.822 841L513.109 840.479L511.876 841.609C511.552 839.088 511.033 836.393 511.033 836.393L510.385 836.219C510.385 836.219 510.514 837.436 510.579 838.827L509.606 838.044L509.347 838.479L510.774 840.739C510.903 842.13 510.968 843.434 510.968 844.13C510.968 845.086 510.255 845.955 509.671 846.564C509.217 845.608 508.504 844.651 507.466 843.956V842.217H506.817L506.493 843.434C505.974 843.174 504.872 842.13 504.223 838.74L503.639 838.914C503.445 839.957 503.639 842.304 504.612 843.782L503.769 843.695L503.834 844.651L506.039 844.999C507.401 846.042 509.347 847.694 508.569 851.258C507.79 851.258 506.817 851.258 506.428 850.824C506.363 850.737 506.169 850.563 505.974 850.302L505.455 846.825H504.807L504.937 849.259C503.445 847.694 501.499 845.608 501.499 845.608L501.24 846.303L505.715 852.91L508.374 852.823C508.374 853.518 508.504 854.388 509.152 854.649C510.449 855.083 514.471 857.43 514.535 859.43C514.535 859.43 513.692 859.777 513.433 859.169C513.173 858.56 512.265 855.344 508.504 855.605C508.504 855.605 507.92 856.822 508.179 857.691C508.439 858.56 508.569 862.125 512.006 861.951C512.006 861.951 512.655 862.386 512.719 862.907C512.784 863.429 514.211 863.603 514.406 864.211C514.471 864.472 514.6 865.428 514.86 866.471C514.471 869.34 513.887 873.339 513.627 875.512C513.627 875.512 513.173 878.816 511.487 878.381C509.801 877.859 502.472 871.513 493.781 878.555C487.555 883.684 479.967 876.034 474.908 887.074C469.914 898.028 473.611 907.329 472.897 908.373C472.184 909.416 474.713 907.069 474.778 905.591C474.908 904.113 475.297 898.984 475.297 898.984C475.297 898.984 477.826 903.504 475.427 914.545C475.297 914.719 475.167 918.978 475.167 918.978V919.413C449.743 914.023 423.281 905.069 395.652 891.682V889.334C394.29 888.9 392.993 888.378 391.955 887.77C388.972 886.031 385.47 883.858 383.329 882.119C385.794 880.989 388.648 878.729 389.621 877.512C389.815 877.512 390.075 877.512 390.269 877.425V875.686C389.685 876.034 389.102 876.382 388.648 876.642C385.145 877.077 376.065 878.729 378.789 876.99C380.605 875.773 382.811 869.949 383.913 865.689L384.043 865.254C384.756 862.385 385.016 860.299 384.237 861.081C382.292 862.907 378.66 867.775 379.243 865.95C379.827 864.124 386.767 843.869 385.405 845.086C383.978 846.303 376.909 858.647 377.298 854.562C377.687 850.476 382.032 840.392 380.476 841.783C378.919 843.173 375.482 850.041 375.157 847.868C374.963 846.129 377.817 836.306 377.492 833.089C379.308 833.35 381.967 833.35 381.967 833.35C381.967 833.35 374.703 826.048 372.887 824.657C371.071 823.266 380.151 817.355 377.492 817.963C374.833 818.572 368.866 820.223 369.515 819.006C370.228 817.789 373.99 804.054 372.693 804.836C371.461 805.619 369.774 806.054 368.088 807.705C366.402 809.357 366.856 793.101 365.688 794.144C364.586 795.187 361.797 795.969 361.797 795.969C361.797 795.969 359.397 776.931 358.295 774.584C358.295 774.584 357.257 798.143 355.96 796.491C354.727 794.839 352.911 790.145 352.911 790.145C352.911 790.145 355.96 808.227 354.144 808.488C352.393 808.748 347.139 807.271 347.139 807.271C347.139 807.271 353.236 819.702 351.744 818.833C350.252 817.963 346.815 816.398 346.815 816.398C346.815 816.398 352.457 822.744 350.901 822.744C349.344 822.744 343.767 823.179 343.767 823.179C343.767 823.179 351.809 831.959 349.409 830.916C347.009 829.873 340.07 828.308 340.07 828.308C340.07 828.308 352.976 844.564 349.409 843.347C345.842 842.13 343.053 840.739 343.053 840.739C343.053 840.739 350.706 849.259 348.501 848.824C346.296 848.389 341.172 848.216 341.172 848.216C341.172 848.216 347.528 856.387 347.658 857.17C347.658 857.256 347.593 857.256 347.334 856.996C345.842 855.692 338.773 853.084 335.53 852.823V855.692C336.503 856.822 337.8 858.039 339.162 859.343C336.762 857.691 334.297 856.126 331.833 854.388C322.558 847.955 313.284 842.043 304.074 836.393V832.307C303.361 832.046 302.582 831.872 301.674 831.525C303.166 831.785 304.074 831.003 303.425 830.568C302.453 829.873 294.799 822.484 296.81 823.44C298.821 824.396 301.415 823.614 301.415 823.614C301.415 823.614 300.766 823.005 299.729 822.049C301.48 821.788 303.231 821.614 304.009 821.701V818.919C302.842 818.485 301.739 818.05 300.896 817.529C298.367 815.964 295.448 813.964 293.632 812.4C295.707 811.443 298.107 809.357 298.95 808.227C299.145 808.227 299.339 808.227 299.534 808.14V806.575C299.08 806.923 298.561 807.184 298.172 807.444C295.253 807.792 287.6 809.357 289.87 807.705C291.362 806.662 293.243 801.359 294.216 797.447L294.345 797.013C294.994 794.405 295.124 792.579 294.475 793.188C292.854 794.839 289.741 799.273 290.259 797.621C290.713 795.969 296.615 777.627 295.448 778.757C294.281 779.887 288.249 791.014 288.638 787.363C288.962 783.712 292.659 774.497 291.362 775.801C290.065 777.105 287.146 783.277 286.887 781.278C286.692 779.626 289.157 770.846 288.897 767.89C290.389 768.064 292.659 768.064 292.659 768.064C292.659 768.064 286.563 761.457 285.006 760.153C283.449 758.849 291.103 753.547 288.897 754.068C286.627 754.59 281.569 756.068 282.152 755.024C282.736 753.894 285.914 741.463 284.876 742.158C283.839 742.854 282.412 743.289 280.985 744.766C279.558 746.244 279.947 731.553 278.974 732.509C278.001 733.465 275.667 734.161 275.667 734.161C275.667 734.161 273.656 716.948 272.748 714.775C272.748 714.775 271.84 736.073 270.802 734.595C269.765 733.118 268.208 728.858 268.208 728.858C268.208 728.858 270.802 745.201 269.246 745.462C267.754 745.723 263.344 744.332 263.344 744.332C263.344 744.332 268.467 755.633 267.235 754.764C266.003 753.981 263.084 752.59 263.084 752.59C263.084 752.59 267.884 758.328 266.522 758.328C265.16 758.328 260.49 758.762 260.49 758.762C260.49 758.762 267.3 766.76 265.289 765.804C263.279 764.848 257.442 763.457 257.442 763.457C257.442 763.457 268.338 778.148 265.289 777.105C262.306 775.975 259.906 774.758 259.906 774.758C259.906 774.758 266.327 782.495 264.511 782.06C262.695 781.626 258.35 781.539 258.35 781.539C258.35 781.539 263.668 788.928 263.863 789.623C263.863 789.71 263.798 789.71 263.603 789.45C262.371 788.319 256.404 785.885 253.68 785.624V788.232C256.858 791.971 263.733 798.403 261.398 797.621C260.62 797.36 259.712 797.1 258.869 796.752C259.906 796.056 260.555 795.709 260.555 795.709L258.415 796.665C256.339 795.969 254.458 795.448 254.458 795.448C254.458 795.448 255.042 796.404 255.885 797.795L253.68 798.751V800.142C254.523 799.534 255.431 799.012 256.274 798.404C258.285 801.794 261.139 806.662 260.685 806.575C260.62 806.575 260.555 806.575 260.62 806.749C259.906 807.271 258.804 808.053 257.312 808.835C256.015 808.227 254.653 807.618 253.745 807.271V808.835C254.004 809.096 254.264 809.444 254.523 809.792C239.995 803.098 225.662 797.36 211.393 792.405V790.754C210.615 790.493 209.707 790.232 208.734 789.884C210.355 790.145 211.393 789.363 210.68 788.754C209.642 787.972 201.146 779.8 203.351 780.843C205.556 781.886 208.41 781.017 208.41 781.017C208.41 781.017 207.696 780.322 206.594 779.278C208.539 779.018 210.485 778.757 211.328 778.931V775.801C210.031 775.367 208.799 774.845 207.891 774.236C205.102 772.498 201.859 770.324 199.849 768.586C202.183 767.456 204.843 765.195 205.686 763.978C205.88 763.978 206.075 763.978 206.334 763.891V762.153C205.815 762.501 205.297 762.848 204.778 763.109C201.535 763.544 193.039 765.195 195.568 763.457C197.254 762.24 199.33 756.415 200.367 752.156L200.497 751.721C201.211 748.852 201.405 746.766 200.692 747.548C198.876 749.374 195.503 754.242 196.022 752.416C196.541 750.591 203.091 730.336 201.729 731.553C200.432 732.77 193.752 745.114 194.141 741.115C194.53 737.029 198.551 726.945 197.125 728.336C195.698 729.727 192.455 736.682 192.195 734.422C192.001 732.683 194.66 722.86 194.401 719.556C196.087 719.817 198.616 719.817 198.616 719.817C198.616 719.817 191.806 712.515 190.12 711.124C188.434 709.733 196.93 703.821 194.401 704.43C191.936 705.039 186.293 706.69 186.942 705.473C187.591 704.256 191.093 690.434 189.925 691.303C188.758 692.086 187.201 692.52 185.645 694.172C184.088 695.824 184.477 679.567 183.44 680.611C182.402 681.654 179.808 682.436 179.808 682.436C179.808 682.436 177.603 663.398 176.565 661.051C176.565 661.051 175.592 684.609 174.425 682.958C173.257 681.306 171.571 676.525 171.571 676.525C171.571 676.525 174.425 694.607 172.738 694.954C171.052 695.302 166.188 693.737 166.188 693.737C166.188 693.737 171.83 706.256 170.468 705.299C169.106 704.343 165.863 702.865 165.863 702.865C165.863 702.865 171.117 709.298 169.69 709.298C168.263 709.298 163.01 709.733 163.01 709.733C163.01 709.733 170.533 718.6 168.263 717.47C165.993 716.427 159.572 714.862 159.572 714.862C159.572 714.862 171.571 731.118 168.263 729.901C164.955 728.684 162.296 727.293 162.296 727.293C162.296 727.293 169.431 735.812 167.355 735.378C165.28 734.943 160.48 734.769 160.48 734.769C160.48 734.769 162.037 736.856 163.529 739.029C162.037 739.203 159.897 739.551 157.821 739.898C156.848 739.637 155.94 739.464 155.227 739.377V740.246C152.568 740.507 150.881 740.507 152.438 739.377C154.513 737.986 157.043 730.944 158.405 725.641L158.535 725.033C159.378 721.556 159.637 719.035 158.729 719.991C156.459 722.164 152.243 728.075 152.892 725.902C153.541 723.729 161.648 699.214 160.026 700.692C158.405 702.17 150.168 717.122 150.622 712.167C151.076 707.299 156.135 695.041 154.319 696.693C152.568 698.432 148.482 706.777 148.157 704.082C147.898 701.909 151.271 690.086 150.881 686.174C152.957 686.435 156.07 686.435 156.07 686.435C156.07 686.435 147.639 677.655 145.563 675.916C143.488 674.178 153.995 667.136 150.881 667.832C147.833 668.527 140.893 670.526 141.672 669.049C142.45 667.571 146.86 650.88 145.369 651.923C143.942 652.879 141.996 653.401 140.05 655.313C138.105 657.313 138.623 637.666 137.326 638.883C136.029 640.1 132.786 641.057 132.786 641.057C132.786 641.057 130.451 618.106 129.154 615.238C129.154 615.238 127.922 643.751 126.495 641.665C125.068 639.666 122.993 633.928 122.993 633.928C122.993 633.928 126.495 655.835 124.42 656.183C122.344 656.53 116.313 654.705 116.313 654.705C116.313 654.705 123.317 669.744 121.631 668.701C119.945 667.571 115.923 665.745 115.923 665.745C115.923 665.745 122.474 673.482 120.658 673.482C118.842 673.482 112.421 674.004 112.421 674.004C112.421 674.004 121.761 684.696 118.972 683.392C116.831 682.436 111.773 681.132 109.438 680.524C109.632 679.567 109.567 679.133 109.308 679.394C109.113 679.567 108.854 679.915 108.53 680.35C108.335 680.263 108.205 680.263 108.205 680.263C108.205 680.263 108.27 680.35 108.4 680.524C105.352 684.783 97.6986 698.258 98.2174 693.042C98.8011 687.217 104.703 672.7 102.628 674.786C100.552 676.786 95.7529 686.696 95.3637 683.479C95.0394 680.958 98.9957 666.962 98.6066 662.268C101.071 662.616 104.768 662.616 104.768 662.616C104.768 662.616 94.78 652.184 92.3154 650.097C89.8509 648.098 102.303 639.666 98.6066 640.535C94.9746 641.404 86.7377 643.751 87.7106 642.013C88.6834 640.274 93.872 620.541 92.1209 621.671C90.3697 622.801 88.0997 623.409 85.8297 625.756C83.5597 628.104 84.0786 604.893 82.5869 606.284C81.0303 607.762 77.2037 608.892 77.2037 608.892C77.2037 608.892 73.9609 581.595 72.4043 578.292C72.4043 578.292 70.9774 612.021 69.2263 609.674C67.4751 607.24 65.0754 600.546 65.0754 600.546C65.0754 600.546 69.2263 626.452 66.8266 626.887C64.362 627.321 57.2277 625.148 57.2277 625.148C57.2277 625.148 65.5294 642.969 63.5189 641.665C61.5083 640.361 56.7737 638.188 56.7737 638.188C56.7737 638.188 64.5566 647.316 62.3514 647.316C60.1463 647.316 52.558 648.011 52.558 648.011C52.558 648.011 63.6486 660.616 60.3409 659.138C57.0331 657.574 47.564 655.4 47.564 655.4C47.564 655.4 65.2051 678.698 60.3409 676.959C55.4766 675.221 51.5851 673.221 51.5851 673.221C51.5851 673.221 52.2986 674.004 53.2714 675.221C48.5369 676.177 39.9109 678.003 40.9486 676.438C42.116 674.786 48.3423 655.661 46.2669 656.791C44.1914 657.921 41.4026 658.443 38.6137 660.703C35.8249 662.963 36.5383 640.535 34.6574 641.926C32.7766 643.317 28.1717 644.447 28.1717 644.447C28.1717 644.447 24.2154 618.106 22.3994 614.89C22.3994 614.89 20.6483 647.489 18.5729 645.142C16.4974 642.795 13.514 636.275 13.514 636.275C13.514 636.275 18.5729 661.312 15.5894 661.746C12.6709 662.181 3.98 660.095 3.98 660.095C3.98 660.095 14.0329 677.307 11.6331 676.09C9.23342 674.786 3.46115 672.7 3.46115 672.7C3.46115 672.7 12.8006 681.567 10.2063 681.567C9.03886 681.567 6.63914 681.654 4.23943 681.828C1.90457 678.263 -1.85714 672.7 -3.08942 671.222C-4.97028 668.962 4.434 659.747 1.64514 660.703C-1.07886 661.659 -7.30514 664.18 -6.59172 662.268C-5.87829 660.355 -1.98685 638.622 -3.284 639.926C-4.58114 641.23 -6.33229 641.839 -8.01857 644.36C-9.76971 646.881 -9.31572 621.41 -10.4831 622.975C-11.6506 624.539 -14.5043 625.843 -14.5043 625.843C-14.5043 625.843 -16.9689 595.852 -18.1363 592.201C-18.1363 592.201 -19.2389 629.321 -20.536 626.713C-21.8331 624.105 -23.6491 616.629 -23.6491 616.629C-23.6491 616.629 -20.536 645.142 -22.352 645.577C-24.168 646.099 -29.616 643.664 -29.616 643.664C-29.616 643.664 -29.2917 644.621 -28.9026 646.012C-32.2751 642.187 -36.1666 637.927 -37.7231 636.536C-40.5769 633.928 -26.2434 623.322 -30.4591 624.453C-34.6749 625.583 -44.144 628.451 -43.0414 626.278C-41.9389 624.105 -35.972 599.155 -37.9826 600.633C-39.9931 602.111 -42.5874 602.806 -45.2466 605.762C-47.9057 608.718 -47.2571 579.335 -49.0083 581.16C-50.7594 582.986 -55.1697 584.464 -55.1697 584.464C-55.1697 584.464 -58.9314 549.952 -60.6826 545.779C-60.6826 545.779 -62.3689 588.463 -64.3146 585.42C-66.3251 582.377 -69.114 573.858 -69.114 573.858C-69.114 573.858 -64.3146 606.631 -67.1034 607.153C-69.8923 607.675 -78.194 604.98 -78.194 604.98C-78.194 604.98 -68.5951 627.582 -70.93 625.93C-73.2649 624.279 -78.7129 621.497 -78.7129 621.497C-78.7129 621.497 -69.7626 633.059 -72.2271 633.059C-74.6917 633.059 -83.4474 633.841 -83.4474 633.841C-83.4474 633.841 -70.7354 649.837 -74.4971 647.837C-76.9617 646.62 -82.4097 644.968 -85.912 644.012C-86.3011 638.188 -86.4957 631.32 -87.274 632.189C-88.7009 633.667 -92.2031 634.797 -92.2031 634.797C-92.2031 634.797 -95.1866 607.153 -96.6134 603.85C-96.6134 603.85 -97.9106 638.014 -99.532 635.58C-101.153 633.146 -103.359 626.365 -103.359 626.365C-103.359 626.365 -99.532 652.618 -101.737 653.053C-104.007 653.488 -110.623 651.315 -110.623 651.315C-110.623 651.315 -106.407 661.312 -104.98 665.919C-107.963 662.529 -119.119 649.75 -122.232 646.968C-125.864 643.751 -107.834 630.364 -113.087 631.755C-118.341 633.146 -130.274 636.797 -128.847 634.102C-127.485 631.32 -119.962 600.025 -122.491 601.85C-124.956 603.676 -128.329 604.632 -131.636 608.283C-134.944 611.934 -134.101 575.162 -136.306 577.422C-138.511 579.769 -144.089 581.595 -144.089 581.595C-144.089 581.595 -148.823 538.303 -151.029 533C-151.029 533 -153.104 586.55 -155.569 582.725C-158.033 579.074 -161.406 568.729 -161.6 568.207C-161.471 569.164 -155.633 609.326 -159.136 609.935C-160.238 610.109 -162.054 609.935 -164 609.587V630.538C-163.351 632.711 -163.222 633.928 -163.87 633.493C-163.935 633.493 -163.935 633.406 -164 633.406V836.306V882.119V996H744V942.798V863.863V636.101C743.157 647.055 742.119 656.443 740.952 654.792ZM301.285 833.263C301.22 833.263 301.026 833.437 300.766 833.611C300.701 833.524 300.701 833.437 300.637 833.35C301.155 833.263 301.415 833.176 301.285 833.263ZM299.664 830.308C300.053 830.655 300.507 830.916 300.896 831.09C300.377 830.916 299.793 830.742 299.21 830.568C299.015 830.047 299.08 829.873 299.664 830.308ZM291.167 812.747C291.686 813.095 292.465 813.008 293.308 812.747C294.41 815.008 296.615 818.746 298.172 819.528C298.821 819.876 298.95 820.223 298.691 820.658C294.929 817.007 289.481 811.704 291.167 812.747ZM260.814 806.923C261.139 807.879 263.279 811.183 261.593 810.748C260.944 810.574 259.712 809.965 258.35 809.357C259.323 808.314 260.231 807.444 260.814 806.923ZM304.009 835.697C304.009 835.697 303.944 835.784 303.75 835.958C303.685 835.958 303.685 835.958 303.62 835.871C303.879 835.784 304.009 835.697 304.009 835.697ZM106.519 732.596C107.362 732.248 108.205 731.727 109.049 731.205C110.346 733.465 111.578 735.552 112.227 736.769C110.021 735.291 108.011 733.9 106.519 732.596ZM111.513 742.506C110.994 742.245 110.475 742.072 109.892 741.811C109.697 741.637 109.503 741.376 109.243 741.202C109.438 741.028 109.632 740.855 109.892 740.594C110.411 741.289 110.994 741.985 111.513 742.506ZM109.438 739.985C109.178 740.159 108.854 740.333 108.53 740.507C103.86 736.073 99.9037 732.074 101.849 733.204C102.693 733.726 103.925 733.639 105.287 733.118C106.26 735.03 107.816 737.725 109.438 739.985ZM206.205 788.58C206.659 789.015 207.113 789.276 207.567 789.45C206.983 789.276 206.334 789.015 205.686 788.841C205.556 788.232 205.621 788.059 206.205 788.58ZM196.865 769.107C197.449 769.455 198.292 769.368 199.2 769.02C200.367 771.455 202.897 775.627 204.583 776.497C205.297 776.844 205.426 777.279 205.167 777.801C201.016 773.889 194.984 768.064 196.865 769.107ZM164.891 740.42C165.993 741.985 166.836 743.376 166.901 743.636C166.901 743.723 166.836 743.723 166.577 743.462C166.058 743.028 164.891 742.332 163.464 741.724C164.047 741.289 164.501 740.854 164.891 740.42ZM162.296 760.153C162.296 760.153 162.361 760.153 162.296 760.153C162.815 761.023 163.139 761.631 163.269 762.066C161.972 760.588 161.323 759.719 162.296 760.153ZM158.405 745.288C158.989 745.983 159.637 746.592 160.286 747.287C159.443 746.679 158.664 746.07 158.016 745.549C158.145 745.375 158.275 745.375 158.405 745.288ZM154.059 745.984C154.773 746.418 155.811 746.331 156.978 745.897C157.756 747.374 158.924 749.461 160.156 751.199C159.443 750.939 158.729 750.765 158.145 750.591C154.967 747.548 152.633 745.114 154.059 745.984ZM100.877 709.385C101.46 707.299 107.751 688.348 109.243 681.654C112.551 686.087 122.474 699.736 119.037 698.519C114.886 697.041 111.643 695.389 111.643 695.389C111.643 695.389 120.463 705.647 117.934 705.125C115.405 704.604 109.438 704.43 109.438 704.43C109.438 704.43 116.767 714.253 116.961 715.296C116.961 715.47 116.896 715.383 116.572 715.123C115.34 713.992 110.735 711.993 106.908 710.863C107.038 710.254 107.233 709.733 107.362 709.124L107.557 708.429C108.595 704.343 108.854 701.387 107.816 702.431C105.092 704.952 100.098 711.993 100.877 709.385ZM100.293 725.294C101.914 724.164 103.73 720.252 105.287 715.905C108.465 719.208 112.356 723.033 113.718 724.859C113.07 724.946 112.291 725.033 111.448 725.207C110.994 725.033 110.475 724.946 110.021 724.772C111.448 723.903 112.356 723.294 112.356 723.294L109.438 724.511C106.584 723.642 103.99 722.86 103.99 722.86C103.99 722.86 104.768 724.164 105.935 725.989C101.655 726.598 98.0229 726.858 100.293 725.294ZM53.92 676.09C56.8386 679.654 60.9894 685.131 58.9789 684.696C55.9306 684.001 48.926 683.827 48.926 683.827C48.926 683.827 50.8069 686.348 52.8174 689.13C50.1583 686.957 47.6289 684.957 46.4614 684.175C44.2563 682.871 51.3257 678.263 53.92 676.09ZM57.8114 696.693C57.8763 696.867 57.6817 696.78 57.3574 696.519C57.2277 696.432 57.098 696.345 56.9683 696.258C57.1629 696.258 57.3574 696.258 57.552 696.258C57.7466 696.432 57.8114 696.606 57.8114 696.693ZM53.7254 709.385C53.0769 709.211 52.3634 708.95 51.65 708.69C51.8446 707.907 52.0391 707.125 52.2337 706.429C52.2986 706.429 52.2986 706.342 52.2986 706.342H52.2337C52.2337 706.256 52.2337 706.256 52.2986 706.169C54.374 708.429 55.282 709.82 53.7254 709.385ZM53.8551 726.858C53.6606 726.858 53.5309 726.598 53.5309 726.163C53.6606 726.424 53.7903 726.598 53.8551 726.858ZM1.71 685.218C5.342 688.695 10.4657 693.824 7.80657 692.868C6.31485 692.346 3.85028 691.738 1.32085 691.129C1.58028 688.782 1.71 686.696 1.71 685.218ZM3.072 708.69C3.526 706.603 3.98 704.604 4.30429 702.865C5.73114 704.604 6.96343 706.256 7.80657 707.56C7.48228 708.255 7.15799 709.037 6.76885 709.907C5.47171 709.385 4.23943 709.037 3.072 708.69ZM4.82314 714.253C4.30428 715.383 3.78543 716.427 3.33143 717.296C2.74772 717.209 2.164 717.209 1.51543 717.122C1.71 715.557 2.03429 713.645 2.42343 711.645C3.33143 712.515 4.10971 713.471 4.82314 714.253ZM0.347997 698.084C1.32085 699.214 2.22885 700.257 3.20171 701.387C2.22885 703.561 1.12628 706.342 0.347997 707.646C-0.0411461 707.473 -0.430287 707.386 -0.754573 707.212C-0.689715 705.647 -0.17086 701.996 0.347997 698.084ZM-30.3943 651.923C-29.3566 652.097 -28.1243 652.184 -26.9569 652.184C-25.4651 657.313 -23.9734 662.616 -24.8166 661.833C-26.3083 660.355 -29.8754 658.008 -29.8754 658.008C-29.8754 658.008 -25.6597 665.311 -25.4003 667.484C-25.4651 667.484 -25.5949 667.571 -25.7246 667.745C-25.8543 667.832 -25.9191 668.005 -26.0489 668.092C-27.7351 668.179 -31.432 668.614 -32.6643 668.788C-31.432 662.529 -30.07 655.313 -30.3943 651.923ZM-27.1514 681.045C-27.4757 680.784 -27.9297 680.611 -28.3837 680.35C-28.1891 679.654 -27.9946 678.872 -27.7351 678.176C-26.7623 680.176 -26.2434 681.654 -27.1514 681.045ZM-32.7291 669.309C-32.2103 670.179 -31.0429 672.178 -29.8106 674.351C-30.7834 676.003 -31.6914 677.568 -32.4697 678.524C-33.0534 678.263 -33.5723 678.09 -34.0911 677.916C-34.0263 676.177 -33.4426 672.961 -32.7291 669.309ZM-29.5511 691.738C-30.3943 692.607 -30.9131 692.52 -30.7186 690.782C-30.6537 690.347 -30.6537 689.912 -30.524 689.478C-30.2646 690.26 -29.8754 691.042 -29.5511 691.738ZM-73.5891 669.136C-73.3297 670.179 -73.5243 670.7 -74.4323 670.353C-74.4971 670.353 -74.562 670.266 -74.6269 670.266C-74.3026 669.918 -73.9134 669.483 -73.5891 669.136ZM-79.6857 657.661C-77.4157 661.312 -75.3403 664.876 -74.3026 667.31C-75.7294 667.745 -77.4157 668.179 -78.9074 668.527C-80.1397 668.005 -81.1774 667.484 -82.0206 667.049C-81.4369 665.05 -80.464 661.312 -79.6857 657.661ZM-75.4051 679.394C-76.6374 678.09 -77.6103 677.046 -78.194 676.525C-78.648 676.09 -78.5183 675.395 -78.0643 674.525C-76.7671 676.525 -75.7294 678.35 -75.4051 679.394ZM-82.4746 668.353C-82.3449 668.527 -82.2151 668.701 -82.0854 668.875C-82.4097 668.788 -82.6043 668.614 -82.4746 668.353ZM-83.7069 651.315C-83.9014 651.488 -84.0311 651.662 -84.2257 651.836C-84.8094 652.532 -85.2634 651.054 -85.5229 648.62C-84.9391 649.402 -84.3554 650.358 -83.7069 651.315ZM-104.721 666.528C-104.461 667.571 -104.396 668.092 -104.785 667.832C-105.369 667.397 -106.147 666.962 -106.991 666.441C-106.018 666.528 -105.239 666.528 -104.721 666.528ZM-113.152 666.093C-112.049 666.267 -110.752 666.354 -109.52 666.441C-107.509 669.136 -104.461 673.656 -105.888 673.656C-107.38 673.656 -111.66 674.004 -113.736 674.178C-113.217 670.874 -112.957 668.005 -113.152 666.093ZM-110.882 702.257C-110.428 700.605 -109.974 698.953 -109.52 697.388C-107.315 701.3 -106.083 704.169 -107.769 703.561C-108.807 703.126 -109.909 702.691 -110.882 702.257ZM-108.417 710.95C-108.547 711.124 -108.677 711.298 -108.807 711.558C-108.871 711.558 -108.871 711.558 -108.936 711.558C-109.974 711.298 -111.531 711.124 -113.022 711.037C-112.698 709.298 -112.179 707.386 -111.725 705.473C-110.104 707.646 -108.677 709.907 -108.417 710.95ZM-113.93 675.482C-111.466 678.611 -105.304 686.696 -107.769 685.479C-109.39 684.696 -112.568 683.653 -115.227 682.871C-114.709 680.437 -114.255 677.916 -113.93 675.482ZM-115.941 687.044C-114.709 688.956 -113.282 691.129 -111.92 693.303C-114.709 698.171 -117.433 702.865 -117.757 699.736C-117.951 697.997 -117.043 692.868 -115.941 687.044ZM511.617 917.935L511.941 912.198L512.849 918.022L512.719 924.803C512.201 924.716 511.617 924.716 511.098 924.629L511.617 917.935ZM487.101 906.373C490.344 906.808 503.575 906.982 507.012 905.243C507.012 905.243 507.401 916.805 508.179 918.37C508.504 918.978 508.569 921.586 508.569 924.542C499.748 923.673 490.798 922.369 481.718 920.63L481.653 920.108L487.101 906.373ZM478.021 919.152C477.956 918.978 478.151 918.37 478.475 917.413L478.28 918.631L478.54 920.021C478.345 920.021 478.215 919.934 478.021 919.934C478.086 919.5 478.021 919.239 478.021 919.152ZM380.022 882.467C380.67 882.815 381.513 882.728 382.551 882.38C383.07 883.423 383.848 884.727 384.756 886.031C383.654 885.422 382.551 884.901 381.449 884.292C379.892 882.901 379.114 882.032 380.022 882.467ZM709.561 770.151C710.469 770.238 711.571 770.324 712.609 770.411C716.111 775.367 723.894 786.233 724.154 787.624C724.219 787.885 724.024 787.798 723.44 787.276C721.495 785.451 714.685 782.321 708.393 780.235C709.172 776.236 709.755 772.324 709.561 770.151ZM718.057 838.305C717.473 838.131 716.695 837.871 715.722 837.436C716.371 835.784 717.019 834.046 717.603 832.22C719.16 835.35 720.976 839.088 718.057 838.305ZM717.992 806.836C718.187 806.314 718.317 805.706 718.511 805.184C719.549 806.662 719.614 807.358 718.122 806.836C718.057 806.836 717.992 806.836 717.992 806.836ZM712.22 825.613C712.35 825.092 712.739 823.788 713.323 821.962C713.712 822.658 714.101 823.44 714.49 824.048C712.869 825.961 711.831 827.091 712.22 825.613ZM711.896 804.923C712.155 804.75 712.415 804.576 712.674 804.402C712.544 804.576 712.35 804.836 712.22 805.01C712.155 804.923 712.025 804.923 711.896 804.923ZM713.323 803.446L710.858 804.489C710.404 804.315 709.95 804.228 709.496 804.054C709.885 801.968 710.599 799.534 711.312 797.1C712.609 798.49 713.841 799.794 714.944 800.925C714.36 801.881 713.841 802.663 713.323 803.446ZM706.188 791.71C706.902 792.405 707.55 793.188 708.264 793.883C707.031 795.709 705.994 796.665 705.864 795.187C705.799 794.578 705.929 793.275 706.188 791.71ZM649.957 834.828C649.244 834.306 650.152 833.089 651.384 831.785C653.459 835.35 655.535 839.001 656.443 840.913C654.108 838.653 651.06 835.697 649.957 834.828ZM653.395 859.256C652.811 859.951 652.422 860.125 652.292 859.43C652.227 859.082 652.292 858.474 652.422 857.778C652.876 858.3 653.135 858.821 653.395 859.256ZM655.016 843.782C654.951 843.869 654.886 843.869 654.757 843.956C654.757 843.869 654.757 843.782 654.757 843.782C654.886 843.782 654.951 843.782 655.016 843.782ZM654.821 844.651C655.081 844.391 655.405 844.13 655.665 843.869C656.183 843.869 656.702 843.956 657.221 843.956C658.389 846.39 660.788 850.65 658.194 849.867C657.416 849.606 655.989 849.085 654.367 848.302C654.627 846.912 654.757 845.695 654.821 844.651ZM650.022 815.008C655.665 820.919 661.242 826.656 658.129 825.613C656.702 825.092 655.016 824.57 653.395 824.048C655.34 822.831 656.573 822.049 656.573 822.049L652.616 823.788C651.125 823.353 649.633 822.831 648.465 822.484C649.179 819.615 649.892 816.572 650.022 815.008ZM647.622 825.526C647.687 825.7 647.752 825.787 647.882 825.961L647.428 826.135C647.493 825.874 647.557 825.7 647.622 825.526ZM646.455 828.917C646.52 828.83 646.585 828.656 646.649 828.395C647.298 827.96 647.947 827.526 648.595 827.178C648.984 827.787 649.309 828.395 649.698 829.091C647.687 829.438 646.066 829.612 646.455 828.917ZM612.016 885.336C612.145 883.945 612.664 881.858 613.313 879.685C613.572 879.511 613.832 879.337 614.091 879.25C614.61 880.12 615.194 880.989 615.777 881.945C613.702 885.162 611.821 887.683 612.016 885.336ZM615.713 897.071C614.61 898.462 613.767 899.245 614.091 898.288C614.156 897.941 614.415 897.158 614.805 895.941C615.129 896.289 615.453 896.724 615.713 897.071ZM613.637 910.894C614.415 910.285 615.323 908.807 616.167 906.895C617.658 908.373 618.955 909.677 619.28 910.285C617.334 910.633 615.453 910.807 613.637 910.894ZM619.15 892.986C618.372 892.638 617.399 892.29 616.426 891.768C617.658 890.638 618.761 889.682 619.474 888.987C619.863 890.117 622.523 893.942 620.447 893.42C620.317 893.42 620.123 893.333 619.928 893.246C619.928 892.551 619.799 892.29 619.409 892.725C619.345 892.812 619.28 892.899 619.15 892.986ZM620.382 877.077C621.225 878.033 621.355 878.555 620.512 878.294C620.382 878.294 620.253 878.207 620.123 878.207C620.188 877.772 620.253 877.425 620.382 877.077ZM619.604 888.726C619.474 888.726 619.474 888.726 619.474 888.9C618.761 889.421 617.723 890.117 616.426 890.725C616.945 889.074 617.464 887.248 617.983 885.509C619.15 887.422 619.863 888.813 619.604 888.726ZM619.474 876.121C619.15 876.555 618.826 877.164 618.437 877.686C618.047 877.599 617.658 877.425 617.269 877.338C618.566 876.555 619.409 876.121 619.474 876.121L616.75 877.164C615.907 876.903 615.064 876.642 614.286 876.468C614.805 874.817 615.259 873.252 615.518 872.209C617.01 873.6 618.437 874.991 619.474 876.121ZM611.432 868.123C612.405 869.166 613.637 870.383 614.869 871.6C614.091 872.643 613.053 874.469 612.145 875.947C611.951 875.86 611.821 875.86 611.821 875.86C611.821 875.86 611.886 875.947 612.016 876.121C610.913 877.859 610.005 879.076 609.811 877.859C609.681 876.555 610.654 872.209 611.432 868.123Z" fill="#0C334B"/>
</g>
<defs>
<linearGradient id="paint0_linear" x1="214.41" y1="353.528" x2="214.41" y2="-37.7044" gradientUnits="userSpaceOnUse">
<stop stop-color="#1E5E87"/>
<stop offset="0.1741" stop-color="#255C7E"/>
<stop offset="0.3014" stop-color="#265370"/>
<stop offset="0.4249" stop-color="#164D6F"/>
<stop offset="0.5363" stop-color="#154868"/>
<stop offset="1" stop-color="#0C334B"/>
</linearGradient>
<linearGradient id="paint1_linear" x1="310.5" y1="862.081" x2="310.5" y2="594.331" gradientUnits="userSpaceOnUse">
<stop stop-color="#1C4D6C"/>
<stop offset="1" stop-color="#134463"/>
</linearGradient>
<clipPath id="clip0">
<rect width="720" height="976" fill="white"/>
</clipPath>
</defs>
</svg>
