<svg width="720" height="976" viewBox="0 0 720 976" fill="none" xmlns="http://www.w3.org/2000/svg">
<g clip-path="url(#clip0)">
<rect width="720" height="976" fill="#FBFBFB"/>
<path d="M821 0H-162V934H821V0Z" fill="url(#paint0_linear)"/>
<path d="M773.169 506.175C769.645 502.945 762.011 499.519 757.312 501.673C755.55 502.456 753.397 505.001 752.32 506.567C751.244 508.035 751.244 509.112 750.95 510.776C749.384 510.58 748.014 509.307 746.35 510.384C744.294 511.657 743.022 516.257 743.12 518.41C743.217 521.64 746.056 522.717 747.035 525.262C747.524 526.535 747.328 529.275 747.035 530.548C745.175 530.45 743.12 528.982 741.162 528.59C738.519 528.003 735.093 527.709 733.038 529.96C732.353 530.646 731.667 531.918 731.472 532.897C731.374 533.484 731.667 534.561 731.374 534.952C730.591 536.127 727.85 534.561 726.675 534.463C721.879 534.365 719.824 539.749 720.803 543.664C721.39 546.013 720.411 549.439 722.467 551.201C720.117 550.809 714.538 551.103 714.049 554.137C714.44 551.005 712.972 546.502 710.917 544.251C709.546 542.685 707.393 540.532 705.239 540.14C702.89 539.749 700.443 541.706 698.192 540.629C694.473 538.965 692.906 533.582 688.012 534.463C686.446 534.757 685.076 535.735 683.999 536.812C683.51 537.204 681.846 539.651 680.965 539.944C680.182 540.238 679.301 539.455 678.616 539.161C675.973 538.085 673.428 538.085 670.785 538.77C666.185 539.944 665.206 544.251 666.087 548.558C666.381 550.222 667.262 551.494 666.772 553.354C663.248 552.277 661.193 546.992 658.746 544.643C656.005 542.098 651.894 543.076 648.762 543.664C647.196 543.957 647.783 543.957 646.413 542.979C644.553 541.706 643.085 540.238 640.932 539.357C638.093 538.085 633.688 537.595 630.752 539.161C629.284 539.944 628.403 542.098 627.032 542.685C625.564 543.272 625.956 542.881 624.096 541.608C621.551 539.944 618.908 538.182 615.972 537.204C614.308 536.714 613.035 536.127 611.273 537.008C609.903 537.693 610.001 538.868 608.337 538.965C605.89 539.161 602.464 536.323 600.213 536.029C596.591 535.54 593.459 536.127 590.718 538.77C587.195 542.196 586.705 546.796 586.314 551.494C581.126 551.984 578.679 557.171 579.168 561.87C579.364 564.023 580.049 565.785 581.615 567.155C582.692 568.134 584.062 568.721 584.846 569.994C586.02 571.951 585.531 573.909 587.39 575.573C589.152 577.139 591.208 578.803 592.48 580.957C591.599 582.718 588.076 581.935 586.705 584.187C585.531 586.242 585.629 592.213 587.684 593.779C585.139 592.017 580.539 595.051 580.343 597.694C579.756 602.882 583.182 607.58 582.203 612.866C579.952 612.768 577.798 611.398 575.449 611.006C572.904 610.615 570.261 611.3 567.716 610.81C565.759 610.419 564.584 609.636 562.529 610.223C560.767 610.419 559.592 611.495 558.907 613.257C558.907 614.823 558.32 615.9 557.047 616.487C555.579 615.117 551.468 610.419 549.413 610.223C546.574 610.027 546.182 613.257 545.399 615.313C544.029 611.985 541.191 607.189 536.688 608.461C533.752 609.244 530.913 612.083 529.347 614.628C526.998 618.249 529.053 619.815 527.585 622.948C522.202 622.262 517.993 619.718 515.448 626.765C514.371 631.365 515.154 635.574 517.601 639.392C518.776 640.664 520.048 641.741 521.516 642.72C522.104 644.286 521.81 646.048 522.593 647.712C523.963 650.354 525.921 652.508 528.368 654.27C529.641 654.759 530.815 655.444 531.696 656.423C527.585 659.066 523.376 658.576 518.678 659.164C516.916 659.359 515.937 659.359 514.86 660.828C513.98 661.904 514.273 663.862 512.903 664.449C509.183 659.849 500.961 647.418 494.501 653.78C492.348 650.354 491.663 645.656 486.573 645.069C481.581 644.481 479.525 648.886 477.274 652.312C471.891 650.844 465.137 644.971 460.047 650.55C456.523 654.465 457.6 665.33 462.396 668.071C461.026 669.148 459.362 667.777 457.894 669.931C456.034 672.671 457.208 675.706 458.97 678.055C456.523 678.642 449.867 675.412 448.105 675.216C444.484 674.825 440.862 674.237 439.981 678.544C437.828 678.251 436.36 675.999 434.304 675.02C431.955 673.846 429.802 673.846 427.453 675.216C426.18 675.999 425.006 677.467 423.635 677.957C421.873 678.642 419.622 677.761 417.762 677.663C415.119 677.565 412.672 678.74 410.225 679.817C408.757 680.404 406.995 680.893 405.919 681.97C404.255 681.97 401.318 683.83 400.144 684.613C398.871 685.298 397.697 685.494 396.718 686.766C395.543 688.234 395.837 689.213 397.403 690.192C399.067 691.171 399.067 690.584 400.535 689.703C402.493 688.626 407.093 688.724 409.442 689.311C412.477 690.094 415.707 689.898 418.937 689.898C420.503 689.898 422.069 689.898 423.635 689.898C425.397 689.898 425.984 689.898 427.355 689.115C428.529 688.43 427.746 688.039 429.704 688.43C430.487 688.626 431.466 689.409 432.151 689.703C434.206 690.681 436.262 690.877 438.611 690.681C441.058 690.486 443.407 689.507 445.756 688.822C448.008 688.234 449.965 688.234 452.216 688.234C454.076 688.234 456.327 688.626 458.187 688.234C461.124 687.745 463.571 687.158 466.703 687.451C470.227 687.843 473.652 689.213 477.274 689.605C479.917 689.898 482.56 689.996 485.3 690.388C486.769 690.584 488.335 690.779 489.803 690.486C493.62 689.703 496.263 688.137 500.178 688.234C506.051 688.332 511.826 689.115 517.699 689.017C523.67 689.017 529.738 689.017 535.709 689.017C541.191 689.017 546.574 688.137 552.055 688.234C564.78 688.332 577.407 688.332 590.131 688.234C595.71 688.234 601.192 688.92 606.771 689.115C611.861 689.311 616.951 689.017 622.04 689.115C623.802 689.115 625.466 689.409 627.13 688.822C628.501 688.332 629.577 687.158 631.045 686.864C634.569 685.983 638.484 686.864 641.617 688.332C643.868 689.409 646.511 690.975 648.468 689.017C650.72 686.766 652.286 686.668 655.614 686.179C659.04 685.689 662.857 685.494 666.283 685.2C671.079 684.809 675.679 684.417 680.475 684.417C684.782 684.417 689.676 683.732 693.885 684.613C697.311 685.298 700.345 684.906 703.771 685.2C707.295 685.494 710.525 686.864 714.147 686.864C718.453 686.766 721.977 687.451 726.186 688.43C731.08 689.605 735.974 689.115 740.966 689.115C744.686 689.115 747.916 690.192 751.439 690.681C754.865 691.073 758.095 690.681 761.521 690.192C770.33 689.115 779.336 687.06 788.145 689.213L773.169 506.175Z" fill="#285D7E"/>
<path d="M486.573 647.222C484.419 647.809 482.168 650.55 481.777 652.703C481.679 653.291 480.994 655.15 481.287 655.542C481.777 656.031 483.636 655.444 484.322 655.738C485.79 656.227 487.845 658.185 488.628 659.457C489.02 660.24 489.901 662.785 489.607 663.568C488.922 663.372 488.041 662.198 487.356 661.708C485.986 660.828 484.713 660.045 483.147 659.653C482.462 659.457 479.623 658.381 479.036 658.87C478.449 659.359 478.644 660.24 478.547 660.925C477.764 661.023 477.666 660.24 477.078 659.849C476.295 659.261 475.512 659.261 474.533 659.359C473.457 659.457 471.793 660.828 470.716 660.436C470.716 659.653 471.695 658.968 472.184 658.381C472.674 657.695 472.967 656.814 473.652 656.227C474.044 655.933 474.338 655.836 474.631 655.934C474.925 656.031 475.219 656.129 475.512 656.227C475.708 656.325 476.002 656.325 476.295 656.325C476.002 656.325 475.708 656.325 475.512 656.227C475.219 656.129 474.925 656.031 474.631 655.934C473.946 655.64 473.163 655.346 472.576 655.248C470.227 654.661 467.094 653.976 465.039 655.64C463.669 656.717 462.886 658.283 462.886 660.045C462.886 660.632 462.69 661.611 462.983 662.198C463.375 662.785 464.452 663.47 465.039 663.862C467.094 665.526 469.737 666.505 471.205 668.854C470.422 670.322 468.269 668.756 467.094 668.56C465.333 668.169 463.571 667.973 461.711 667.875C457.6 664.449 456.817 654.563 460.145 650.844C465.235 645.264 471.988 651.039 477.372 652.606C479.525 649.18 481.679 644.873 486.671 645.362C488.53 645.558 489.803 646.341 490.782 647.418C489.313 646.928 487.747 646.928 486.573 647.222Z" fill="#457FA4"/>
<path d="M475.512 656.031C475.806 656.129 476.1 656.129 476.295 656.129C476.002 656.129 475.708 656.129 475.512 656.031Z" fill="#FAAB41"/>
<path d="M474.533 655.738C474.827 655.738 475.121 655.933 475.414 656.031C475.219 655.933 474.827 655.835 474.533 655.738Z" fill="#FAAB41"/>
<path d="M536.003 613.453C535.709 614.53 536.296 616.096 535.807 617.075C534.828 618.739 531.696 618.543 530.326 620.011C529.543 620.892 529.249 623.045 529.543 624.22C530.032 626.08 531.696 624.416 532.675 623.633C534.535 622.164 536.296 622.164 538.548 622.85C539.527 623.143 543.442 625.688 544.029 625.395C547.651 627.254 550.098 628.918 551.664 632.736C551.958 633.617 551.958 636.259 553.132 636.357C553.23 636.064 553.23 635.77 553.328 635.476C554.6 634.987 556.558 635.378 558.026 635.378C560.18 635.378 562.627 635.183 563.801 637.238C564.193 637.825 564.291 638.315 564.878 638.902C565.465 639.587 566.052 640.175 566.542 640.958C564.78 638.804 561.55 637.728 559.005 639C558.124 639.489 557.243 640.077 556.362 640.566C555.579 641.056 554.698 641.936 553.915 642.132C552.545 638.315 546.672 642.034 544.812 643.6C544.91 642.132 546.476 640.762 547.357 639.783C548.238 638.804 548.825 638.706 550.098 639.294C550.293 638.413 548.727 636.944 548.238 636.259C546.77 634.497 545.497 633.714 543.246 633.421C540.505 633.127 539.331 633.519 537.177 634.889C535.807 635.77 534.828 636.749 534.045 638.119C533.654 638.902 532.577 640.468 532.773 641.349C533.556 641.936 535.024 641.447 536.003 641.936C537.275 642.426 538.744 643.796 538.646 645.264C536.786 645.167 535.122 644.09 533.164 644.481C531.794 644.775 531.794 645.167 530.913 646.047C529.738 647.222 527.879 646.439 526.802 647.907C525.627 649.571 527.389 649.669 528.564 650.061C530.032 650.452 531.109 651.725 532.283 652.508C533.066 652.997 535.513 653.78 535.905 654.661C534.143 655.053 531.892 654.857 530.13 654.661C529.836 654.661 529.641 654.563 529.347 654.563C528.955 654.367 528.662 654.172 528.27 654.074C525.823 652.312 523.866 650.158 522.495 647.516C521.712 645.852 522.006 644.09 521.419 642.524C520.048 641.545 518.678 640.468 517.503 639.196C514.958 635.378 514.273 631.072 515.35 626.569C517.797 619.62 522.104 622.067 527.487 622.752C528.858 619.717 526.802 618.053 529.249 614.432C530.913 611.985 533.654 609.146 536.59 608.265C538.254 607.776 539.722 608.167 540.897 608.95C540.603 609.146 540.408 609.244 540.114 609.342C538.548 610.614 536.492 611.691 536.003 613.453Z" fill="#457FA4"/>
<path d="M707.491 548.362C707.197 549.243 707.197 551.592 706.414 551.984C704.75 552.767 703.869 550.809 703.282 553.452C703.086 554.431 703.869 558.933 702.695 559.423C701.226 559.912 701.324 557.465 701.129 556.78C700.737 555.116 699.073 553.745 697.311 554.137C695.647 554.431 695.451 556.388 695.256 557.856C694.473 558.052 693.787 556.682 693.004 556.388C691.634 555.899 690.166 556.095 689.187 557.171C688.6 557.954 687.915 560.01 687.915 560.989C687.817 561.772 688.11 562.359 687.621 563.142C688.991 563.631 690.655 562.946 692.124 563.631C693.592 564.317 695.256 565.687 696.235 567.057C696.724 567.742 697.213 569.798 697.996 570.385C698.877 570.973 700.15 570.385 701.129 570.973C702.988 572.049 703.673 576.16 703.771 578.02C701.618 577.824 699.758 575.377 697.801 574.594C695.451 573.713 696.039 574.888 694.864 576.356C692.417 576.454 690.753 573.126 688.698 576.062C688.502 576.454 688.502 576.845 688.11 577.041C687.817 577.335 687.425 577.237 687.132 577.433C686.74 577.628 686.446 577.922 686.348 578.314C686.544 576.748 688.208 574.986 689.481 574.105C690.557 573.42 691.83 573.126 693.102 573.028C693.004 571.756 694.277 570.581 695.354 571.853C694.668 570.679 693.2 569.504 691.928 569.015C691.34 568.819 690.557 568.623 689.872 568.917C689.579 569.113 689.285 569.798 688.893 569.896C688.306 569.994 687.719 569.309 687.229 569.015C686.251 568.428 685.076 567.938 683.999 567.84C682.923 567.742 681.748 567.84 680.867 568.428C680.182 568.917 679.79 569.798 679.105 570.189C678.224 570.679 677.148 570.287 676.267 569.994C674.896 569.504 674.799 568.623 675.777 567.351C676.756 566.176 678.224 565.785 679.693 565.687C680.671 565.687 682.237 566.078 683.118 565.589C683.608 563.436 681.063 562.163 679.79 560.891C678.714 559.814 675.973 557.073 677.05 555.507C677.735 554.431 679.301 554.528 678.127 552.669C677.343 551.494 676.365 552.473 675.288 551.984C675.386 548.949 685.272 550.711 686.74 551.396C687.425 550.907 687.523 549.439 688.012 548.753C688.796 547.481 689.676 547.285 691.047 547.285C693.2 547.285 695.256 548.166 697.507 547.873C697.018 545.719 693.592 543.762 691.634 543.566C688.502 543.272 688.11 545.719 685.761 546.796C684.195 547.579 681.063 546.6 679.399 546.698C678.42 546.796 675.19 547.089 675.386 548.753C675.288 546.502 670.688 546.209 669.415 547.677C668.828 548.264 669.024 548.656 669.611 549.243C669.904 549.537 670.394 549.439 670.59 549.83C670.785 550.222 670.59 550.711 670.687 551.2C670.883 551.984 671.764 553.06 671.666 553.843C671.568 554.626 671.079 554.724 670.59 555.409C669.807 556.486 670.198 556.78 671.079 557.563C672.645 558.933 673.33 560.499 673.722 562.457C671.177 562.555 669.219 559.814 666.381 560.401C665.01 560.695 664.521 562.065 663.151 562.457C661.487 563.044 659.921 561.967 658.257 562.848C657.18 563.436 655.81 564.904 655.418 565.981C656.886 566.666 658.55 566.176 660.214 566.861C662.074 567.742 662.172 568.428 663.249 569.7C665.206 572.049 667.457 573.224 667.457 576.748C666.479 576.16 665.793 575.279 665.304 574.203C664.129 572.539 662.563 571.56 660.508 571.266C658.746 571.07 656.984 571.364 655.32 571.951C654.341 572.441 653.46 573.028 652.775 573.909C651.796 573.909 650.818 573.615 650.035 572.93C648.077 572.245 646.315 572.636 644.651 574.007C643.77 574.594 640.344 576.943 639.855 578.118C642.693 578.509 645.141 577.922 647.881 579.097C649.447 579.488 650.622 580.369 651.503 581.739C651.894 582.522 651.796 582.914 651.209 583.012C652.188 582.816 654.439 584.774 654.929 585.067C657.18 586.634 656.397 585.165 659.138 584.774C666.87 583.795 670.785 590.549 671.862 597.009C670.394 595.051 668.926 591.919 666.479 591.038C664.423 590.255 662.563 590.059 661.487 592.311C661.095 592.213 660.801 592.017 660.606 591.528C659.921 590.647 658.942 589.961 657.767 589.668C656.397 589.178 655.124 589.178 653.852 589.766C653.167 589.864 652.482 590.157 651.992 590.745C650.916 590.745 650.915 589.864 649.447 590.353C647.196 591.038 645.63 593.094 644.064 594.66C642.889 594.268 643.574 590.353 644.064 589.472C645.14 587.71 646.511 587.612 648.468 587.612C646.021 586.438 642.498 585.067 639.757 586.046C638.582 586.634 637.506 587.319 636.331 587.906C635.352 588.983 634.374 589.961 633.493 591.038C631.633 592.506 631.829 591.625 629.284 592.017C626.935 592.409 625.76 593.583 624.879 595.736C623.9 595.051 623.019 594.268 622.236 593.387C620.377 592.115 618.517 591.919 616.657 592.898C613.231 593.877 609.903 595.736 606.869 597.694C609.512 597.792 611.567 597.303 614.112 598.575C616.168 599.75 617.93 601.316 619.202 603.371C619.104 604.154 619.3 604.546 619.887 604.644C620.474 604.839 621.062 604.839 621.649 604.546C623.509 604.35 625.369 604.546 627.228 605.133C629.088 606.112 630.36 607.58 630.85 609.636C631.339 610.223 631.437 610.81 631.437 611.495C629.969 610.321 628.305 609.538 626.543 608.755C624.39 607.874 620.083 606.014 618.027 607.286C616.853 607.972 616.266 608.853 614.895 607.678C614.895 605.916 614.993 604.546 613.916 603.175C612.155 600.924 607.652 600.239 605.009 600.533C603.345 600.631 601.485 600.826 600.115 601.903C599.528 602.294 598.843 603.469 597.962 603.371C597.864 600.043 598.941 596.324 602.366 595.247C603.541 594.856 603.932 594.953 604.813 594.072C606.477 592.408 606.282 589.57 608.533 588.297C610.197 587.319 611.567 587.417 613.329 587.221C615.482 586.927 617.342 585.85 619.496 585.361C621.16 584.97 622.432 584.774 623.607 586.144C623.998 586.634 624.194 587.221 624.683 587.612C625.173 584.676 629.382 584.089 631.731 585.067C632.122 584.186 632.612 583.306 633.199 582.62C630.36 583.403 627.62 581.837 624.879 581.348C623.313 581.054 621.747 580.858 620.181 580.956C619.594 580.956 619.006 581.152 618.517 580.858C618.908 577.531 622.53 576.062 625.466 575.181C628.207 574.398 630.263 574.79 632.905 575.181C633.493 573.517 634.178 572.049 636.135 571.462C637.114 571.266 638.093 571.168 639.072 570.973C640.149 571.168 641.225 571.168 642.204 570.875C642.889 570.973 643.281 570.581 643.281 569.896C643.868 568.721 644.455 567.547 645.043 566.372C647.294 564.414 649.447 564.806 652.188 565.393C648.077 560.108 640.54 557.073 633.982 559.325C634.765 557.465 635.94 555.997 637.702 554.92C638.387 554.528 639.463 554.137 640.344 554.333C640.736 554.528 641.029 554.724 641.323 555.018C641.029 554.626 640.736 554.431 640.344 554.333C639.757 553.941 639.17 553.648 638.485 553.55C636.429 553.452 634.471 553.452 632.416 553.55C631.927 553.256 631.437 552.962 630.85 552.669C629.186 551.298 627.326 550.809 625.173 551.298C623.509 551.788 621.845 552.081 620.181 552.081C619.006 552.375 617.93 552.081 616.853 551.298C613.035 550.026 610.686 552.473 607.358 553.648C605.401 551.103 609.708 547.775 611.567 546.796C614.895 545.034 618.321 545.23 621.943 545.915C621.551 542.881 618.615 540.727 615.678 540.629C612.252 540.434 610.491 542.293 608.435 544.545C606.967 544.349 605.694 543.664 604.813 542.391C601.779 540.336 598.353 539.063 594.634 538.867C593.361 538.77 591.991 538.867 590.719 539.063C593.459 536.42 596.494 535.833 600.213 536.323C602.562 536.616 605.988 539.455 608.337 539.259C610.001 539.161 610.001 537.889 611.274 537.301C612.938 536.518 614.308 537.008 615.972 537.497C618.908 538.378 621.551 540.14 624.096 541.902C625.956 543.174 625.662 543.566 627.032 542.978C628.403 542.391 629.284 540.238 630.752 539.455C633.688 537.889 638.093 538.28 640.932 539.651C643.085 540.629 644.553 542 646.413 543.272C647.783 544.251 647.196 544.251 648.762 543.957C651.992 543.37 656.103 542.391 658.746 544.936C661.193 547.285 663.249 552.473 666.772 553.648C667.262 551.788 666.479 550.613 666.087 548.851C665.206 544.545 666.185 540.238 670.785 539.063C673.428 538.378 676.071 538.378 678.616 539.455C679.301 539.748 680.182 540.434 680.965 540.238C681.846 539.944 683.51 537.595 683.999 537.106C685.076 536.029 686.446 535.05 688.012 534.756C693.004 533.876 694.473 539.161 698.192 540.923C700.443 541.902 702.89 540.042 705.24 540.434C707.393 540.727 709.546 542.978 710.917 544.545C711.21 544.936 711.602 545.328 711.896 545.817C709.742 545.523 708.176 546.306 707.491 548.362Z" fill="#457FA4"/>
<path d="M641.323 554.92C641.029 554.626 640.638 554.431 640.344 554.235C640.736 554.333 641.029 554.528 641.323 554.92Z" fill="#FAAB41"/>
<path d="M782.174 552.767C781 551.494 778.455 551.396 776.889 551.005C775.616 550.711 774.539 550.711 773.267 550.613C771.603 550.613 770.037 550.124 768.373 550.026C761.325 549.732 753.103 551.984 747.916 556.878C743.315 561.184 741.26 567.155 741.064 573.322C740.966 576.454 741.064 579.586 741.064 582.816C741.064 584.186 741.26 585.263 741.456 586.536C741.553 587.221 741.847 588.004 741.26 588.493C740.868 588.689 740.085 588.493 739.694 588.591C739.106 588.689 738.519 589.081 738.128 589.374C736.855 590.353 736.366 590.94 736.268 592.506C736.17 594.366 734.995 594.953 734.212 596.715C733.038 599.064 732.744 598.967 730.787 597.4C729.906 596.715 728.829 595.834 727.654 595.541C726.773 595.345 725.892 595.541 725.012 595.541C722.956 595.345 722.173 594.66 720.117 595.541C717.866 596.519 715.517 597.4 713.951 599.456C713.266 600.337 712.874 602.49 711.7 602.882C709.351 599.358 710.525 594.072 707.001 591.332C703.869 588.885 698.094 588.2 694.473 589.472C692.319 590.255 690.459 590.94 689.187 592.898C688.306 594.366 687.915 596.128 687.229 597.596C686.446 599.064 685.174 599.358 684.782 601.12C684.489 602.49 684.684 604.154 684.88 605.622C684.978 606.308 685.565 607.384 685.272 608.069C684.391 607.972 683.608 607.286 682.629 607.58C681.552 607.972 680.965 610.027 680.573 611.006C680.084 612.18 679.693 612.67 678.42 613.061C676.952 613.453 675.484 613.551 674.309 614.725C672.254 616.683 672.645 619.717 672.645 622.262C672.645 624.122 672.254 626.373 673.134 627.939C671.47 628.527 667.066 627.058 667.262 630.093C665.598 630.582 665.304 629.603 664.032 631.169C663.248 632.148 661.78 633.029 661.584 634.106C661.291 635.378 661.78 635.672 660.508 636.455C659.04 637.336 658.256 636.749 656.788 635.77C654.537 634.204 651.307 632.638 648.468 632.638C645.336 632.736 645.434 635.868 644.162 637.923C642.204 635.868 641.323 632.05 637.799 632.833C637.114 633.225 636.527 633.519 635.744 633.714C635.254 633.91 634.667 633.91 634.178 633.812C633.003 634.008 632.807 634.693 631.926 635.476C630.458 636.749 628.598 635.868 627.62 637.532C626.934 638.608 626.543 640.566 626.445 641.741C626.347 642.719 627.032 643.307 626.837 644.286C625.466 644.775 624.194 643.698 623.019 643.209C620.279 642.23 617.832 644.677 616.07 646.537C613.721 648.984 613.721 651.529 613.721 654.857C613.721 657.402 613.623 660.142 615.189 662.296C614.014 662.002 613.427 661.513 612.448 662.296C611.861 662.785 611.371 663.666 610.98 664.351C610.49 664.155 609.903 663.862 609.316 663.862C608.337 663.764 607.456 664.351 606.477 664.449C605.303 661.121 598.255 662.1 595.612 662.687C591.599 663.47 588.076 666.113 588.369 670.616C588.174 668.169 594.829 667.19 596.298 667.973C598.157 668.854 597.962 669.735 599.919 668.756C601.779 667.875 603.149 668.266 604.813 669.147C605.401 669.539 605.401 669.343 605.89 669.833C606.379 670.518 605.988 671.399 607.163 671.692C608.141 670.518 610.197 670.811 611.567 670.811C613.035 670.811 614.308 670.713 614.797 672.28C617.832 668.756 621.747 667.581 626.347 668.756C627.13 668.952 632.416 670.224 632.612 671.301C628.99 670.126 626.641 666.7 622.628 666.113C621.062 665.917 619.789 666.113 618.419 666.798C620.67 665.917 623.019 665.134 625.368 664.449C623.313 661.806 621.257 661.513 618.125 662.198C619.3 660.142 617.048 658.968 616.168 657.402C614.895 655.248 616.363 653.291 618.419 652.214C619.985 651.431 622.04 650.941 623.802 651.431C625.76 651.92 626.935 654.367 627.522 656.129C628.305 654.759 629.088 653.095 630.262 652.018C631.731 650.648 632.71 651.039 634.373 652.214C635.059 652.703 635.646 653.193 636.429 653.584C637.016 654.074 637.701 654.465 638.485 654.661C638.974 655.15 638.974 655.933 639.17 656.521C639.17 654.759 639.463 652.116 638.68 650.55C637.897 648.984 636.135 648.494 634.569 648.299C632.807 648.005 631.437 647.222 629.577 647.222C630.262 645.362 631.829 643.209 633.688 642.328C635.744 641.447 637.995 641.936 640.051 642.23C642.889 642.622 645.434 641.936 646.119 645.558C648.762 645.558 650.132 643.796 652.873 645.069C654.929 646.047 656.886 647.613 659.04 648.201C653.852 649.375 647.685 649.082 644.749 654.465C646.511 654.661 648.86 653.388 650.622 652.997C652.384 652.41 654.243 652.116 656.201 652.312C656.788 652.605 657.376 652.801 657.963 653.095C658.159 653.291 658.354 653.388 658.55 653.584C659.137 653.486 659.725 653.486 660.214 653.486C662.368 653.584 663.738 654.465 665.695 655.444C666.968 656.129 667.359 655.933 668.73 655.444C671.666 654.269 673.82 653.388 676.952 654.074C681.259 654.955 685.174 656.619 686.544 660.925C688.893 655.444 683.706 651.333 678.812 650.941C677.05 650.844 676.756 649.767 674.896 648.984C671.275 647.418 668.24 648.201 665.402 650.746C665.304 648.299 665.206 646.439 662.661 645.362C661.389 644.775 659.333 643.698 657.963 644.188C660.018 643.6 661.878 643.111 664.032 643.111C666.576 643.111 668.534 643.796 670.59 645.264C671.568 644.579 672.156 643.111 672.841 642.132C674.015 640.566 675.386 639.783 677.343 639.881C679.105 639.979 680.28 640.272 682.042 639.587C684.391 638.706 687.132 638.021 689.383 639.489C690.264 640.077 690.949 641.251 691.928 641.741C693.592 641.741 695.256 641.643 696.92 641.349C698.388 641.055 699.856 640.958 701.422 640.958C703.771 640.958 705.729 641.447 707.784 642.524C708.274 642.817 709.84 643.307 709.448 644.188C707.589 643.894 706.12 643.894 704.359 644.481C701.422 645.46 698.975 647.418 696.528 649.375C696.332 649.082 704.75 648.005 705.337 647.907C709.253 647.711 713.168 647.711 717.083 647.907C718.062 647.907 718.943 648.103 719.824 648.592C722.564 648.984 725.599 648.005 728.437 647.907C730.493 647.613 732.548 647.809 734.604 648.397C735.387 649.082 736.366 649.473 737.345 649.571C737.442 647.907 737.638 645.852 736.953 644.286C735.485 640.958 732.059 640.37 728.829 639.783C726.284 639.391 723.739 639.098 721.194 639.587C718.943 640.077 716.789 640.86 714.538 641.251C714.049 640.175 713.559 639.098 713.168 638.021C712.385 637.63 711.602 637.14 710.819 636.749C708.763 636.749 706.708 636.847 704.75 637.042C703.967 636.357 703.184 635.476 702.597 634.595C700.052 631.267 695.745 631.659 691.928 631.855C688.893 631.952 686.446 632.54 683.706 633.519C681.846 630.68 678.028 629.408 674.896 630.876C679.301 628.625 683.51 626.08 688.6 625.884C690.851 625.786 691.732 626.373 693.69 625.199C692.613 623.241 689.187 624.024 687.229 624.024C685.468 624.024 683.216 624.709 681.454 624.416C681.454 621.871 682.531 620.109 683.412 617.76C684.88 613.551 688.893 612.768 692.319 615.508C693.102 616.096 693.2 616.487 694.179 616.585C695.647 616.781 696.43 616.683 697.605 617.662C698.486 618.347 698.975 619.228 699.66 620.109C699.954 620.207 700.345 620.305 700.639 620.403C701.226 621.479 701.52 622.556 701.324 623.828C702.695 624.122 703.967 623.828 705.239 622.85C707.099 622.556 709.057 622.262 710.917 622.164C714.538 621.381 717.768 620.207 721.194 622.556C721.879 623.73 722.76 624.318 724.033 624.318C725.501 624.611 727.067 624.611 728.633 624.416C731.276 624.807 733.625 625.688 735.876 627.156C736.659 628.135 737.54 628.429 738.617 628.233C739.009 623.926 737.54 620.794 732.94 619.913C730.199 619.424 727.361 620.305 724.62 619.913C723.739 616.781 721.39 616.683 718.356 616.487C716.398 616.683 714.538 616.487 712.776 615.802C711.602 615.508 710.623 615.704 709.644 616.389C707.98 617.27 705.533 619.326 704.554 616.487C704.359 615.215 704.456 613.844 704.848 612.572C704.848 611.495 704.848 610.516 705.044 609.44C707.393 608.461 709.644 608.363 711.895 609.538C713.07 610.125 714.049 611.691 715.517 611.593C715.713 610.81 715.713 609.048 715.126 608.363C714.636 607.874 712.972 607.874 712.287 607.874C714.93 607.189 718.649 606.699 721.194 607.189C722.564 607.58 723.935 607.972 725.305 608.363C725.99 609.048 726.871 609.538 727.752 609.831C729.71 609.831 729.416 608.755 732.451 609.244C734.8 609.636 736.855 611.202 739.204 611.495C740.575 609.831 736.855 607.58 735.974 607.189C734.212 606.503 732.353 606.014 730.493 605.72C729.808 605.818 729.123 605.72 728.437 605.525C727.556 603.078 732.157 602.686 733.625 602.49C735.681 602.294 737.54 602.686 739.4 603.371C739.889 603.763 740.281 603.665 740.575 603.175C741.358 602.294 742.434 601.805 743.707 601.707C745.567 601.316 747.328 601.218 749.188 601.609C751.244 601.903 753.201 602.588 755.159 603.469C754.376 599.358 749.58 596.226 745.762 596.03C743.413 595.932 741.749 596.324 739.792 597.694C739.889 596.813 740.085 595.541 740.575 594.758C741.456 593.485 743.217 593.192 744.49 592.702C746.056 592.115 748.699 591.038 750.265 591.234C753.495 591.723 756.921 593.485 759.955 594.562C761.325 595.051 762.989 595.345 764.262 595.932C766.709 597.205 767.003 600.924 767.198 603.273C767.394 605.818 767.198 607.972 765.436 610.027C768.079 608.95 772.484 607.482 774.05 604.937C776.399 601.316 774.246 596.128 771.114 593.877C770.331 593.387 769.45 592.8 768.667 592.311C766.807 590.451 764.556 589.081 762.011 588.395C758.976 587.808 755.844 588.297 753.006 587.123C755.55 582.718 762.696 581.446 767.1 582.718C769.547 583.403 771.995 584.186 774.344 585.361C775.616 585.948 776.889 587.221 778.259 587.71C779.14 585.067 780.51 583.11 779.629 579.978C778.748 578.216 777.769 576.356 776.889 574.594C774.735 572.539 772.19 571.462 769.352 571.462C767.198 571.168 764.36 570.385 762.206 570.679C759.368 570.972 757.117 572.539 754.278 571.853C754.474 568.917 755.942 565.687 757.606 563.338C759.27 561.086 762.206 560.989 764.849 560.891C769.058 560.793 771.897 562.065 775.42 564.61C776.595 565.491 777.77 566.372 779.042 567.253C779.825 568.525 780.804 569.113 782.076 569.015C782.566 566.372 782.664 563.827 782.566 561.184C782.566 560.01 782.37 558.639 782.664 557.465C782.664 555.507 784.132 554.528 782.174 552.767Z" fill="#457FA4"/>
<path d="M781.685 639.098C781.489 638.217 779.336 636.553 778.553 636.064C776.106 634.595 771.995 635.476 769.254 635.476C767.981 635.476 766.611 635.281 765.436 635.77C764.262 636.259 762.989 637.728 762.206 638.706C761.325 639.783 760.934 641.056 760.738 642.426C760.542 643.405 760.934 644.481 760.64 645.46C758.878 645.558 758.389 647.809 757.802 649.18C757.117 650.844 757.312 651.431 755.453 651.333C754.963 651.333 754.278 651.529 753.886 651.333C753.299 651.137 753.397 650.746 752.908 650.354C751.929 649.669 750.559 649.375 749.482 649.963C747.328 651.137 746.056 653.878 743.413 653.878C742.141 653.878 740.477 653.584 739.302 653.976C738.323 654.27 738.03 655.053 737.247 655.64C735.681 656.717 733.331 655.542 731.667 655.444C729.71 655.346 726.773 655.053 725.012 656.031C722.662 657.402 720.901 660.24 720.705 662.883C720.607 664.351 719.726 665.624 719.628 666.994C719.628 667.581 719.726 669.245 718.551 669.147C717.964 669.147 717.475 667.875 717.181 667.581C716.3 666.798 715.811 666.994 714.734 666.994C713.266 666.994 712.581 666.603 711.895 668.071C711.406 669.05 711.308 670.224 710.721 671.203C711.504 671.203 711.895 670.518 712.581 670.322C713.462 670.028 714.245 670.224 715.028 670.518C716.3 671.007 717.475 671.888 717.475 673.356C719.334 673.454 724.326 670.518 724.228 674.433C725.599 674.727 732.157 673.356 732.059 675.999C731.276 675.02 731.178 673.356 730.493 672.28C729.318 670.42 727.165 669.441 725.012 669.343C723.543 669.245 723.25 669.441 722.662 667.973C722.369 667.386 721.977 665.722 721.096 666.309C722.075 664.743 723.152 663.372 724.424 662.1C725.501 661.023 725.795 661.415 727.165 661.708C729.318 662.1 731.863 660.142 733.821 661.121C734.995 661.611 734.8 662.002 735.289 663.177C735.681 664.253 735.681 664.449 736.953 664.547C738.226 664.743 738.128 664.547 739.009 665.526C739.889 666.407 740.477 666.994 741.553 666.211C742.532 665.526 742.434 664.156 743.315 663.372C744.196 662.589 745.86 662.687 746.937 662.785C750.754 663.275 754.082 665.624 757.9 666.309C758.389 664.253 756.334 662.002 754.767 661.121C753.201 660.436 751.537 660.044 749.873 660.142C749.188 660.338 748.601 660.338 748.014 660.142C747.622 657.01 743.511 659.457 741.749 659.849C743.315 658.283 746.056 656.814 748.014 656.129C749.384 655.64 753.201 654.465 754.865 655.346C755.55 655.738 755.746 656.717 756.627 657.01C757.704 657.304 758.781 656.521 759.857 656.521C760.445 656.325 760.934 656.423 761.521 656.717C761.619 657.01 761.717 657.206 761.815 657.5C762.402 657.989 762.304 658.381 763.283 658.185C765.534 657.793 763.87 654.172 762.206 653.78C762.892 649.571 769.645 650.256 772.68 650.159C773.756 650.159 774.735 650.158 775.91 650.452C777.672 651.039 778.944 652.997 780.608 653.291C781.783 653.486 781.881 652.703 782.37 651.725C783.545 649.375 784.817 647.809 783.838 645.167C783.545 644.481 783.055 643.698 782.859 643.013C782.468 641.936 782.859 641.153 781.685 639.098Z" fill="#D1BDF0"/>
<path d="M-80.5544 499.606C-76.8073 496.067 -68.4804 492.424 -63.276 494.714C-61.2984 495.651 -59.0085 498.357 -57.8636 500.023C-56.7186 501.584 -56.7186 502.833 -56.4063 504.602C-54.6369 504.394 -53.1797 503.041 -51.4102 504.082C-49.2244 505.435 -47.7672 510.431 -47.8713 512.825C-47.9753 516.364 -50.9939 517.509 -52.1388 520.32C-52.6592 521.673 -52.4511 524.691 -52.1388 526.044C-50.0571 525.94 -47.8713 524.379 -45.6855 523.963C-42.771 523.338 -39.128 523.026 -36.8381 525.42C-36.1095 526.148 -35.3809 527.501 -35.1727 528.542C-35.0686 529.167 -35.3809 530.312 -35.0686 530.832C-34.236 532.081 -31.2175 530.312 -29.9684 530.312C-24.7641 530.208 -22.4742 536.037 -23.5151 540.304C-24.1396 542.802 -23.0987 546.549 -25.3886 548.527C-22.8905 548.111 -16.7495 548.423 -16.229 551.754C-16.7495 548.319 -15.0841 543.531 -12.7942 541.033C-11.337 539.367 -8.94299 536.973 -6.65308 536.557C-4.05093 536.141 -1.44878 538.222 1.04929 537.077C5.10866 535.204 6.77404 529.375 12.1865 530.416C13.8519 530.728 15.4132 531.873 16.5582 533.018C17.0786 533.538 18.8481 536.141 19.7848 536.453C20.7216 536.765 21.6584 535.932 22.387 535.62C25.1973 534.475 28.0076 534.475 30.9221 535.204C35.9182 536.557 36.9591 541.241 36.0223 545.925C35.606 547.798 34.7733 549.151 35.2937 551.129C39.1449 549.88 41.3307 544.155 44.0369 541.657C46.9514 538.951 51.4271 539.888 54.966 540.616C56.7355 540.929 56.1109 540.929 57.5682 539.888C59.5458 538.431 61.2112 536.973 63.5011 535.932C66.6237 534.475 71.4116 534.059 74.5342 535.724C76.0955 536.557 77.0323 538.847 78.5936 539.471C80.1549 540.2 79.8426 539.68 81.8203 538.326C84.5265 536.453 87.4409 534.579 90.6676 533.538C92.4371 532.914 93.8943 532.394 95.7678 533.33C97.225 534.059 97.121 535.412 98.9945 535.516C101.701 535.724 105.344 532.706 107.842 532.289C111.797 531.769 115.232 532.394 118.146 535.308C121.998 539.055 122.518 544.051 122.934 549.151C128.555 549.776 131.157 555.397 130.637 560.393C130.429 562.683 129.7 564.66 128.035 566.222C126.89 567.262 125.328 567.887 124.496 569.344C123.247 571.53 123.767 573.612 121.685 575.485C119.812 577.151 117.522 579.024 116.169 581.314C117.106 583.188 120.957 582.355 122.518 584.749C123.871 586.935 123.663 593.492 121.477 595.158C124.287 593.18 129.18 596.615 129.492 599.425C130.116 605.046 126.369 610.146 127.41 615.871C129.804 615.767 132.198 614.205 134.696 613.893C137.506 613.477 140.421 614.205 143.127 613.685C145.209 613.269 146.562 612.332 148.748 613.06C150.621 613.269 151.974 614.414 152.703 616.391C152.703 618.161 153.328 619.306 154.681 619.826C156.346 618.265 160.718 613.165 163.008 613.06C166.026 612.852 166.547 616.391 167.379 618.577C168.836 614.934 171.959 609.73 176.851 611.083C180.078 612.02 183.096 615.038 184.866 617.744C187.468 621.7 185.178 623.365 186.739 626.8C192.568 626.071 197.252 623.261 199.854 630.859C200.999 635.855 200.166 640.435 197.46 644.599C196.107 645.952 194.754 647.097 193.193 648.242C192.568 649.907 192.88 651.885 192.048 653.758C190.486 656.673 188.405 658.963 185.802 660.836C184.345 661.356 183.2 662.085 182.159 663.23C186.635 666.04 191.215 665.52 196.315 666.249C198.189 666.457 199.23 666.561 200.479 668.122C201.415 669.267 201.103 671.349 202.56 672.077C206.62 667.081 215.571 653.55 222.545 660.42C224.939 656.673 225.668 651.572 231.184 650.948C236.597 650.323 238.887 655.111 241.28 658.754C247.109 657.089 254.499 650.74 260.016 656.881C263.867 661.148 262.722 673.014 257.518 675.929C258.975 677.178 260.849 675.616 262.41 677.906C264.492 680.925 263.139 684.151 261.265 686.754C263.971 687.378 271.153 683.943 273.027 683.735C276.982 683.319 280.937 682.694 281.874 687.378C284.164 687.066 285.829 684.672 288.015 683.527C290.617 682.278 292.907 682.174 295.405 683.735C296.758 684.568 298.112 686.233 299.569 686.754C301.442 687.482 303.94 686.545 305.918 686.441C308.832 686.337 311.539 687.586 314.141 688.731C315.702 689.46 317.68 689.876 318.825 691.125C320.698 691.125 323.821 693.207 325.07 693.935C326.423 694.768 327.672 694.872 328.817 696.225C330.066 697.891 329.754 698.932 328.088 699.973C326.215 701.117 326.319 700.389 324.654 699.452C322.572 698.307 317.472 698.307 314.974 699.036C311.643 699.972 308.208 699.66 304.669 699.66C303.004 699.66 301.234 699.66 299.569 699.66C297.591 699.66 297.071 699.66 295.509 698.828C294.26 698.099 295.093 697.579 293.011 698.099C292.179 698.307 291.034 699.14 290.409 699.452C288.119 700.493 285.934 700.701 283.435 700.493C280.729 700.285 278.231 699.14 275.629 698.515C273.235 697.891 271.049 697.891 268.551 697.891C266.469 697.891 264.075 698.307 262.098 697.891C258.871 697.37 256.165 696.642 252.834 697.058C248.983 697.474 245.34 698.932 241.385 699.348C238.47 699.66 235.556 699.868 232.641 700.181C231.08 700.389 229.415 700.597 227.749 700.285C223.69 699.452 220.775 697.787 216.404 697.787C210.055 697.891 203.705 698.723 197.356 698.723C190.799 698.723 184.241 698.723 177.684 698.723C171.751 698.723 165.818 697.787 159.885 697.787C146.042 697.891 132.302 697.891 118.459 697.787C112.318 697.787 106.385 698.515 100.348 698.723C94.8311 698.932 89.3145 698.619 83.7979 698.723C81.9243 698.723 80.0508 699.14 78.1772 698.411C76.72 697.891 75.5751 696.642 74.0138 696.225C70.1626 695.289 65.8951 696.225 62.4602 697.891C59.9621 699.036 57.1518 700.805 54.966 698.619C52.572 696.121 50.8026 696.017 47.2636 695.497C43.5165 694.872 39.4571 694.768 35.6059 694.456C30.4016 694.04 25.4055 693.623 20.2012 693.623C15.5173 693.623 10.2089 692.895 5.52501 693.831C1.88199 694.56 -1.44878 694.144 -5.19588 694.456C-9.04707 694.768 -12.4819 696.329 -16.5413 696.225C-21.2252 696.121 -25.0764 696.85 -29.6562 697.995C-34.9646 699.244 -40.273 698.723 -45.6855 698.723C-49.7448 698.723 -53.1797 699.973 -57.1349 700.389C-60.778 700.805 -64.421 700.389 -68.064 699.868C-77.6399 698.723 -87.4241 696.434 -97 698.723L-80.5544 499.606Z" fill="#285D7E"/>
<path d="M231.184 653.029C233.474 653.654 235.972 656.672 236.388 658.962C236.493 659.587 237.221 661.669 236.909 661.981C236.388 662.605 234.307 661.877 233.578 662.189C232.017 662.71 229.727 664.791 228.894 666.248C228.374 667.081 227.437 669.891 227.853 670.724C228.582 670.516 229.519 669.163 230.247 668.747C231.705 667.81 233.162 666.977 234.827 666.457C235.66 666.248 238.678 665.104 239.303 665.624C239.927 666.144 239.719 667.081 239.823 667.81C240.656 667.914 240.76 667.081 241.385 666.665C242.217 666.04 243.154 665.936 244.195 666.04C245.444 666.144 247.109 667.602 248.254 667.185C248.254 666.353 247.109 665.624 246.693 664.999C246.173 664.271 245.86 663.23 245.132 662.71C244.715 662.397 244.403 662.293 244.091 662.397C243.779 662.501 243.466 662.605 243.05 662.71C242.842 662.814 242.53 662.814 242.113 662.814C242.425 662.814 242.738 662.814 243.05 662.71C243.362 662.605 243.674 662.501 244.091 662.397C244.924 662.085 245.652 661.773 246.381 661.565C248.879 660.94 252.314 660.211 254.604 661.981C256.165 663.126 256.893 664.895 256.893 666.769C256.893 667.393 257.102 668.538 256.789 669.059C256.373 669.787 255.228 670.412 254.604 670.932C252.418 672.702 249.503 673.743 247.942 676.345C248.775 678.01 251.169 676.241 252.418 676.033C254.291 675.616 256.269 675.304 258.247 675.304C262.722 671.557 263.555 660.836 259.912 656.777C254.395 650.636 247.005 656.985 241.176 658.65C238.782 654.903 236.493 650.219 231.08 650.844C228.998 651.052 227.645 651.885 226.604 653.029C228.27 652.717 229.935 652.717 231.184 653.029Z" fill="#457FA4"/>
<path d="M243.258 662.605C242.946 662.709 242.634 662.709 242.321 662.709C242.738 662.709 243.05 662.709 243.258 662.605Z" fill="#FAAB41"/>
<path d="M244.299 662.293C243.987 662.293 243.674 662.501 243.258 662.605C243.674 662.501 243.987 662.397 244.299 662.293Z" fill="#FAAB41"/>
<path d="M177.476 616.287C177.788 617.432 177.059 619.201 177.684 620.138C178.725 622.012 182.159 621.699 183.617 623.365C184.553 624.302 184.866 626.696 184.449 627.945C183.929 629.922 182.055 628.153 181.015 627.32C179.037 625.655 177.059 625.655 174.665 626.487C173.624 626.8 169.357 629.506 168.732 629.298C164.777 631.275 162.175 633.149 160.405 637.312C159.989 638.249 160.093 641.164 158.74 641.268C158.636 640.955 158.636 640.643 158.532 640.331C157.075 639.81 154.993 640.227 153.432 640.227C151.038 640.227 148.435 640.019 147.082 642.308C146.666 642.933 146.562 643.453 145.937 644.182C145.313 644.911 144.584 645.535 144.064 646.472C145.937 644.078 149.476 642.933 152.183 644.286C153.119 644.807 154.056 645.535 154.993 646.056C155.93 646.576 156.762 647.513 157.699 647.721C159.156 643.558 165.61 647.617 167.587 649.386C167.483 647.825 165.818 646.368 164.777 645.327C163.84 644.286 163.216 644.182 161.759 644.807C161.55 643.766 163.216 642.204 163.84 641.476C165.402 639.498 166.755 638.665 169.253 638.353C172.271 638.041 173.52 638.457 175.81 639.915C177.267 640.851 178.308 641.892 179.245 643.453C179.661 644.286 180.806 646.056 180.702 646.888C179.87 647.513 178.308 646.992 177.267 647.513C175.914 648.137 174.249 649.49 174.457 651.156C176.435 651.052 178.308 649.907 180.39 650.219C181.951 650.531 181.847 650.948 182.888 651.884C184.241 653.133 186.219 652.301 187.26 653.862C188.613 655.736 186.635 655.84 185.282 656.256C183.721 656.672 182.472 658.026 181.223 658.962C180.39 659.483 177.684 660.315 177.267 661.252C179.141 661.669 181.639 661.46 183.513 661.252C183.825 661.252 184.137 661.148 184.345 661.148C184.762 660.94 185.178 660.732 185.594 660.628C188.301 658.754 190.382 656.36 191.839 653.55C192.672 651.676 192.36 649.803 192.984 648.033C194.546 646.992 195.899 645.743 197.252 644.39C199.958 640.227 200.791 635.647 199.646 630.651C196.94 623.053 192.36 625.759 186.531 626.591C184.97 623.261 187.26 621.491 184.658 617.536C182.888 614.83 179.87 611.811 176.643 610.874C174.873 610.354 173.312 610.77 171.959 611.603C172.271 611.811 172.479 611.915 172.792 612.123C174.665 613.164 176.851 614.309 177.476 616.287Z" fill="#457FA4"/>
<path d="M13.8519 577.879C13.8519 578.087 13.8519 578.191 13.8519 578.399C13.956 578.191 13.956 577.983 13.8519 577.879Z" fill="#FAAB41"/>
<path d="M-9.15118 545.508C-8.83893 546.549 -8.83892 548.943 -7.90215 549.359C-6.13268 550.192 -5.1959 548.11 -4.57138 550.921C-4.36321 551.962 -5.1959 556.958 -3.94687 557.374C-2.28149 557.999 -2.38557 555.292 -2.1774 554.46C-1.76105 552.69 0.00841236 551.233 1.98605 551.545C3.85961 551.858 4.06778 554.043 4.17187 555.605C5.00456 555.813 5.73316 554.356 6.56585 554.043C8.02306 553.523 9.68844 553.731 10.6252 554.876C11.3538 555.709 11.9783 557.999 12.0824 559.039C12.1865 559.872 11.8743 560.497 12.3947 561.329C10.9375 561.954 9.06392 561.121 7.50263 561.85C5.94133 562.578 4.17187 564.14 3.02691 565.597C2.4024 566.326 1.98605 568.615 1.15336 569.136C0.112499 569.76 -1.13654 569.136 -2.28149 569.76C-4.25912 570.905 -5.09182 575.381 -5.09182 577.463C-2.80192 577.255 -0.72019 574.548 1.36154 573.82C3.85961 572.883 3.23509 574.132 4.48413 575.797C7.19037 575.901 8.95984 572.258 11.1456 575.485C11.3538 575.901 11.3538 576.318 11.7702 576.63C12.0824 576.942 12.4988 576.838 12.811 577.046C13.2274 577.359 13.5396 577.567 13.7478 577.983C13.5396 576.214 11.6661 574.34 10.313 573.403C9.16801 572.675 7.7108 572.363 6.35768 572.258C6.46177 570.905 5.10864 569.552 3.85961 571.009C4.58821 569.76 6.25359 568.511 7.60671 567.991C8.23123 567.783 9.16801 567.575 9.79253 567.887C10.1048 568.095 10.417 568.824 10.8334 568.928C11.4579 569.032 12.1865 568.303 12.6029 567.991C13.6437 567.366 14.8928 566.846 16.1418 566.742C17.2867 566.638 18.5358 566.742 19.5766 567.366C20.3052 567.887 20.7216 568.824 21.4502 569.344C22.387 569.864 23.5319 569.448 24.5728 569.032C26.03 568.511 26.1341 567.471 25.0932 566.221C24.0524 564.972 22.387 564.452 20.8257 564.452C19.7848 564.452 18.0153 564.868 17.1827 564.348C16.6622 562.058 19.3685 560.601 20.7216 559.248C21.8665 558.103 24.885 555.084 23.7401 553.315C23.0115 552.17 21.242 552.17 22.5951 550.192C23.4278 548.943 24.4687 549.984 25.7177 549.464C25.6136 546.237 14.8928 548.11 13.2274 548.839C12.4988 548.319 12.3947 546.757 11.8743 545.925C11.0416 544.572 10.1048 544.363 8.54349 544.363C6.1495 544.363 4.06778 545.3 1.56971 544.988C2.09014 542.698 5.83725 540.512 8.02306 540.304C11.4579 539.888 11.8743 542.698 14.3723 543.843C16.1418 544.676 19.4726 543.635 21.3461 543.739C22.387 543.843 25.9259 544.155 25.7177 545.925C25.8218 543.427 30.818 543.218 32.1711 544.78C32.7956 545.508 32.5874 545.925 31.9629 546.549C31.6507 546.861 31.1302 546.757 30.922 547.174C30.7139 547.59 30.9221 548.215 30.818 548.631C30.6098 549.464 29.673 550.713 29.7771 551.545C29.8812 552.378 30.4016 552.482 30.922 553.211C31.7547 554.356 31.3384 554.668 30.4016 555.501C28.7362 556.958 27.9035 558.623 27.5913 560.913C30.2975 561.017 32.4833 557.999 35.6059 558.623C37.1672 558.935 37.6877 560.393 39.0408 560.913C40.8102 561.538 42.5797 560.393 44.3492 561.329C45.4941 561.954 46.9513 563.515 47.4718 564.764C45.8064 565.493 44.0369 564.972 42.2675 565.805C40.1857 566.742 40.1857 567.47 38.9367 568.928C36.7509 571.426 34.3569 572.779 34.3569 576.526C35.3978 575.901 36.1264 574.965 36.6468 573.716C37.8958 571.842 39.6653 570.801 41.8511 570.593C43.8288 570.385 45.7023 570.697 47.4718 571.322C48.6167 571.842 49.5535 572.571 50.2821 573.403C51.427 573.403 52.3638 573.091 53.3006 572.363C55.4864 571.634 57.36 572.05 59.1294 573.508C60.0662 574.132 63.8133 576.734 64.3338 577.983C61.2112 578.4 58.609 577.775 55.5905 579.024C53.9251 579.44 52.6761 580.377 51.6352 581.834C51.2189 582.667 51.323 583.083 51.9475 583.188C50.8025 582.979 48.4086 585.061 47.8881 585.373C45.4941 587.039 46.3268 585.477 43.3083 585.061C34.8773 584.02 30.6098 591.306 29.4648 598.384C31.1302 596.198 32.6915 592.868 35.2937 591.931C37.5836 591.098 39.5612 590.89 40.8102 593.388C41.2266 593.284 41.5389 592.972 41.747 592.555C42.4756 591.514 43.5165 590.89 44.7655 590.578C46.2227 590.057 47.6799 590.057 48.929 590.682C49.7617 590.786 50.3862 591.202 50.9066 591.723C52.1557 591.723 52.0516 590.786 53.717 591.306C56.215 592.035 57.8804 594.325 59.6499 595.99C60.8989 595.574 60.1703 591.306 59.6499 590.369C58.5049 588.496 56.9436 588.392 54.8619 588.288C57.4641 586.935 61.4193 585.582 64.3338 586.622C65.5828 587.351 66.8318 587.975 68.0809 588.704C69.1217 589.849 70.1626 590.994 71.2035 592.139C73.2852 593.804 72.9729 592.763 75.7832 593.18C78.2813 593.596 79.6345 594.845 80.5712 597.239C81.6121 596.511 82.5489 595.678 83.3816 594.741C85.3592 593.284 87.4409 593.18 89.4186 594.117C93.1657 595.157 96.8087 597.239 100.035 599.321C97.1209 599.425 94.9351 598.8 92.1248 600.258C89.8349 601.507 87.9614 603.276 86.5041 605.462C86.6082 606.295 86.296 606.711 85.7755 606.815C85.151 607.023 84.5265 607.023 83.902 606.711C81.8203 606.503 79.8426 606.711 77.865 607.336C75.7832 608.376 74.5342 609.938 73.9097 612.228C73.3893 612.852 73.1811 613.581 73.2852 614.205C74.9506 612.956 76.72 612.019 78.5936 611.291C80.8835 610.354 85.6715 608.376 87.8573 609.625C89.1063 610.354 89.7308 611.291 91.188 610.042C91.188 608.168 91.0839 606.711 92.2289 605.15C94.2065 602.652 98.9945 602.027 101.909 602.235C103.782 602.339 105.76 602.548 107.217 603.693C107.842 604.213 108.57 605.358 109.507 605.254C109.611 601.611 108.466 597.656 104.719 596.407C103.47 595.99 102.95 596.094 102.117 595.157C100.348 593.284 100.556 590.265 98.0577 588.808C96.2883 587.767 94.8311 587.871 92.8534 587.663C90.4594 587.351 88.4818 586.102 86.1919 585.686C84.3183 585.269 82.9652 585.061 81.7162 586.622C81.2998 587.143 81.0917 587.767 80.5712 588.184C79.9467 584.957 75.471 584.332 72.8688 585.373C72.4525 584.437 71.9321 583.5 71.3075 582.667C74.326 583.604 77.3445 581.834 80.363 581.314C82.0284 581.002 83.6938 580.794 85.4633 580.898C86.0878 580.898 86.7123 581.106 87.3368 580.794C86.9205 577.151 82.9652 575.485 79.8426 574.652C76.9282 573.82 74.6383 574.236 71.7239 574.652C71.0994 572.779 70.3708 571.218 68.289 570.593C67.2482 570.385 66.1032 570.281 65.0624 570.073C63.9174 570.281 62.7725 570.281 61.6275 569.969C60.8989 570.073 60.4826 569.656 60.3785 568.928C59.754 567.679 59.1294 566.326 58.4008 565.077C56.0069 562.995 53.5088 563.411 50.5944 564.036C55.0701 558.207 63.2929 554.98 70.3708 557.374C69.434 555.292 68.289 553.731 66.3114 552.586C65.5828 552.17 64.4378 551.753 63.5011 551.858C63.0847 552.066 62.7725 552.274 62.3561 552.586C62.6684 552.17 62.9806 551.962 63.5011 551.858C64.1256 551.441 64.8542 551.129 65.5828 550.921C67.7686 550.817 69.9544 550.817 72.2443 550.921C72.7648 550.609 73.3893 550.296 73.9097 549.984C75.6792 548.527 77.7609 548.006 80.0508 548.527C81.8203 549.047 83.5897 549.359 85.4633 549.359C86.8164 549.672 87.9614 549.359 89.1063 548.527C93.2698 547.174 95.7678 549.88 99.5149 551.129C101.597 548.319 97.0169 544.78 94.9351 543.739C91.2921 541.865 87.6491 542.073 83.5897 542.802C84.1102 539.471 87.2327 537.181 90.4594 536.973C94.2065 536.765 96.0801 538.743 98.37 541.241C99.9313 541.033 101.284 540.2 102.325 538.847C105.656 536.557 109.403 535.308 113.462 534.996C114.92 534.891 116.377 534.996 117.73 535.204C114.816 532.289 111.381 531.665 107.425 532.185C104.927 532.497 101.18 535.516 98.5782 535.412C96.7046 535.308 96.8087 533.955 95.3515 533.226C93.4779 532.289 92.1248 532.914 90.2513 533.434C87.1287 534.475 84.2142 536.349 81.4039 538.222C79.3222 539.575 79.7385 539.992 78.1772 539.367C76.72 538.743 75.7832 536.453 74.1179 535.62C70.9953 533.955 66.1032 534.371 63.0847 535.828C60.7948 536.869 59.1294 538.43 57.1518 539.784C55.6946 540.824 56.3191 540.824 54.5497 540.512C51.1148 539.888 46.6391 538.847 43.6206 541.553C40.9143 544.051 38.7285 549.776 34.8773 551.025C34.3569 549.047 35.2937 547.694 35.6059 545.821C36.5427 541.137 35.5018 536.453 30.5057 535.1C27.5913 534.371 24.781 534.371 21.9706 535.516C21.242 535.828 20.3052 536.557 19.3685 536.349C18.4317 536.036 16.6622 533.434 16.1418 532.914C14.8928 531.769 13.4355 530.624 11.7702 530.312C6.35768 529.271 4.6923 535.1 0.632931 536.973C-1.76105 538.118 -4.4673 536.036 -7.06946 536.453C-9.35936 536.765 -11.7533 539.263 -13.2105 540.928C-13.5228 541.345 -13.9392 541.865 -14.2514 542.282C-11.5452 542.386 -9.87979 543.218 -9.15118 545.508Z" fill="#457FA4"/>
<path d="M62.8766 552.586C63.1888 552.274 63.6052 552.066 64.0215 551.858C63.5011 551.962 63.1888 552.17 62.8766 552.586Z" fill="#FAAB41"/>
<path d="M-90.3385 550.296C-89.0895 548.943 -86.2791 548.839 -84.6138 548.423C-83.2606 548.111 -82.0116 548.111 -80.6585 548.006C-78.889 547.902 -77.1196 547.486 -75.3501 547.382C-67.7518 547.07 -58.6963 549.464 -53.0756 554.876C-48.0795 559.56 -45.8937 566.013 -45.6855 572.779C-45.5814 576.214 -45.6855 579.649 -45.6855 583.084C-45.6855 584.645 -45.8937 585.686 -46.1018 587.143C-46.2059 587.872 -46.6223 588.808 -45.8937 589.225C-45.4773 589.433 -44.6446 589.225 -44.2283 589.329C-43.6038 589.433 -42.9792 589.849 -42.5629 590.161C-41.2098 591.202 -40.6893 591.931 -40.5853 593.596C-40.4812 595.574 -39.2321 596.303 -38.2954 598.176C-37.0463 600.778 -36.7341 600.57 -34.5482 598.905C-33.5074 598.072 -32.3624 597.135 -31.1134 596.927C-30.1766 596.719 -29.2398 596.927 -28.3031 596.927C-26.1173 596.719 -25.2846 595.99 -22.9947 596.927C-20.4966 597.968 -17.9985 599.009 -16.2291 601.195C-15.5005 602.131 -15.0841 604.525 -13.731 604.942C-11.1288 601.09 -12.4819 595.366 -8.63075 592.347C-5.19591 589.641 1.04927 588.912 5.00455 590.37C7.29445 591.202 9.37617 591.931 10.7293 594.117C11.6661 595.678 12.0824 597.552 12.9151 599.217C13.7478 600.882 15.205 601.195 15.5173 603.068C15.8295 604.525 15.6214 606.399 15.4132 607.96C15.3091 608.793 14.6846 609.938 14.9968 610.666C15.9336 610.562 16.7663 609.73 17.8072 610.146C18.9521 610.562 19.5766 612.852 20.0971 613.893C20.7216 615.246 21.0338 615.663 22.387 616.079C24.0524 616.495 25.5096 616.599 26.8627 617.848C29.0485 620.034 28.7362 623.261 28.7362 626.071C28.7362 628.049 29.1526 630.547 28.2158 632.212C29.9853 632.837 34.7732 631.275 34.5651 634.502C36.4386 635.127 36.6468 633.982 38.104 635.647C38.9367 636.688 40.498 637.625 40.8102 638.874C41.1225 640.227 40.6021 640.539 41.9552 641.372C43.5165 642.309 44.4533 641.684 46.0146 640.643C48.5126 638.978 51.9475 637.208 55.0701 637.313C58.5049 637.417 58.2968 640.851 59.754 643.037C61.9398 640.851 62.8765 636.688 66.6236 637.521C67.3522 637.937 68.0809 638.249 68.8095 638.457C69.3299 638.666 69.9544 638.666 70.4748 638.562C71.828 638.77 71.9321 639.498 72.9729 640.435C74.5342 641.788 76.5119 640.956 77.6568 642.621C78.3854 643.766 78.8018 645.848 79.0099 647.201C79.114 648.242 78.3854 648.97 78.5936 649.907C80.1549 650.427 81.4039 649.178 82.757 648.762C85.6714 647.721 88.3777 650.323 90.3553 652.405C92.8534 655.111 92.9575 657.818 92.9575 661.461C92.9575 664.271 93.0616 667.185 91.2921 669.579C92.5412 669.267 93.1657 668.747 94.3106 669.579C95.0392 670.1 95.4556 671.036 95.8719 671.765C96.3923 671.557 97.0168 671.245 97.6414 671.141C98.6822 671.036 99.7231 671.765 100.764 671.765C102.013 668.122 109.715 669.267 112.526 669.787C116.793 670.62 120.749 673.535 120.332 678.427C120.54 675.824 113.254 674.784 111.693 675.512C109.611 676.449 109.924 677.386 107.842 676.345C105.864 675.408 104.303 675.72 102.429 676.761C101.701 677.178 101.805 676.969 101.284 677.594C100.764 678.323 101.18 679.363 99.9313 679.572C98.8904 678.323 96.7046 678.531 95.1433 678.531C93.4779 678.531 92.2289 678.427 91.6044 680.196C88.2736 676.345 84.0061 675.096 79.0099 676.345C78.1772 676.553 72.4525 677.906 72.1402 679.051C76.0955 677.802 78.6977 674.055 83.0693 673.43C84.8388 673.222 86.1919 673.43 87.6491 674.159C85.151 673.222 82.6529 672.39 80.1549 671.661C82.3407 668.747 84.6306 668.434 88.0654 669.163C86.8164 666.873 89.2104 665.624 90.1472 663.959C91.6044 661.565 89.8349 659.483 87.7532 658.338C86.0878 657.505 83.7979 656.985 81.9243 657.505C79.7385 658.026 78.4895 660.628 77.865 662.605C77.0323 661.044 76.0955 659.275 74.8465 658.13C73.1811 656.568 72.1402 657.089 70.4748 658.338C69.7462 658.858 69.0176 659.379 68.289 659.899C67.6645 660.42 66.9359 660.836 66.1032 661.148C65.5828 661.669 65.5828 662.501 65.3746 663.126C65.3746 661.252 65.0623 658.338 65.8951 656.673C66.8318 655.007 68.7054 654.383 70.3708 654.175C72.3484 653.862 73.8056 653.03 75.7832 653.03C75.0546 651.052 73.2852 648.658 71.3075 647.721C69.1217 646.784 66.6236 647.305 64.3338 647.617C61.2112 648.033 58.5049 647.305 57.6722 651.26C54.7578 651.26 53.3006 649.282 50.3862 650.636C48.2004 651.676 46.0146 653.446 43.6206 654.07C49.2412 655.319 56.0069 655.007 59.1294 660.836C57.1518 661.044 54.6537 659.691 52.7802 659.171C50.8025 658.442 48.8249 658.234 46.7432 658.442C46.1187 658.754 45.4941 659.067 44.8696 659.275C44.6614 659.483 44.4533 659.587 44.2451 659.795C43.6206 659.691 42.996 659.691 42.3715 659.691C39.9775 659.795 38.5204 660.732 36.4386 661.877C35.0855 662.605 34.6692 662.397 33.1079 661.877C29.8812 660.628 27.5913 659.691 24.1564 660.316C19.4725 661.252 15.205 663.126 13.7478 667.81C11.1456 661.773 16.8704 657.297 22.1788 656.881C24.1564 656.777 24.3646 655.632 26.4463 654.695C30.4016 653.03 33.7324 653.862 36.7509 656.568C36.855 653.862 36.959 651.885 39.6653 650.74C41.0184 650.115 43.3083 648.97 44.7655 649.387C42.4756 648.762 40.498 648.137 38.2081 648.137C35.3978 648.137 33.316 648.866 31.0261 650.427C29.9853 649.699 29.3608 648.033 28.5281 646.993C27.1749 645.327 25.7177 644.494 23.636 644.599C21.7625 644.703 20.5134 645.015 18.5358 644.286C16.0377 643.35 13.0192 642.621 10.5211 644.182C9.48026 644.807 8.85575 646.16 7.81489 646.68C5.94133 646.68 4.17186 646.576 2.29831 646.16C0.737015 645.848 -0.928368 645.639 -2.59374 645.744C-5.19591 645.744 -7.27763 646.264 -9.46345 647.409C-9.98388 647.721 -11.6493 648.346 -11.2329 649.178C-9.15118 648.866 -7.69398 648.866 -5.61225 649.491C-2.38557 650.636 0.216583 652.717 2.92282 654.799C3.131 654.487 -6.02859 653.342 -6.65311 653.238C-10.9207 653.03 -15.1882 653.03 -19.4557 653.238C-20.4966 653.238 -21.5375 653.446 -22.4742 653.966C-25.4927 654.383 -28.7194 653.342 -31.842 653.238C-34.1319 652.925 -36.3177 653.134 -38.5035 653.862C-39.4403 654.591 -40.3771 655.007 -41.522 655.215C-41.6261 653.342 -41.8343 651.156 -41.1057 649.491C-39.5444 645.848 -35.7973 645.223 -32.2584 644.599C-29.448 644.182 -26.7418 643.87 -23.9314 644.39C-21.4334 644.911 -19.1435 645.744 -16.7495 646.264C-16.125 645.119 -15.7086 643.974 -15.2923 642.725C-14.4596 642.309 -13.6269 641.788 -12.7942 641.372C-10.6084 641.372 -8.3185 641.476 -6.13268 641.684C-5.19591 640.956 -4.46731 640.019 -3.84279 639.082C-1.03246 635.439 3.54734 635.959 7.71079 636.168C10.9375 636.376 13.6437 636.896 16.6622 638.041C18.7439 634.919 22.8033 633.565 26.2382 635.231C21.4502 632.837 16.8704 630.026 11.3538 629.818C8.95983 629.714 7.91897 630.339 5.83724 629.09C7.08628 627.008 10.7293 627.841 12.811 627.841C14.7887 627.841 17.1827 628.569 19.1603 628.257C19.1603 625.447 18.0153 623.573 17.0786 621.075C15.4132 616.495 11.0416 615.663 7.39854 618.681C6.56585 619.41 6.35767 619.722 5.31681 619.826C3.75552 620.034 2.92283 619.93 1.67379 620.971C0.737015 621.7 0.216583 622.74 -0.512016 623.573C-0.82428 623.677 -1.24062 623.781 -1.55288 623.885C-2.28149 625.03 -2.48966 626.279 -2.28149 627.528C-3.7387 627.841 -5.19591 627.528 -6.54903 626.488C-8.63075 626.175 -10.7125 625.863 -12.7942 625.759C-16.6454 624.926 -20.1843 623.573 -23.9314 626.175C-24.66 627.424 -25.7009 628.153 -26.9499 628.153C-28.6153 628.465 -30.2807 628.465 -31.9461 628.257C-34.7564 628.673 -37.3586 629.61 -39.7526 631.276C-40.5853 632.316 -41.522 632.733 -42.667 632.42C-43.0833 627.737 -41.4179 624.302 -36.5259 623.365C-33.5074 622.845 -30.4889 623.781 -27.4704 623.365C-26.5336 619.93 -23.9314 619.826 -20.7048 619.618C-18.623 619.826 -16.5413 619.618 -14.5637 618.785C-13.3146 618.473 -12.1697 618.681 -11.1288 619.41C-9.25527 620.346 -6.65311 622.636 -5.61225 619.514C-5.40408 618.057 -5.50817 616.703 -5.92451 615.246C-5.92451 614.101 -5.92451 612.956 -6.13268 611.811C-8.63075 610.771 -11.1288 610.666 -13.6269 611.915C-14.8759 612.54 -16.0209 614.309 -17.5822 614.205C-17.7904 613.269 -17.7904 611.499 -17.1658 610.771C-16.6454 610.25 -14.7718 610.25 -14.0432 610.146C-16.8536 609.417 -21.017 608.793 -23.7233 609.417C-25.1805 609.834 -26.7418 610.25 -28.199 610.666C-29.0317 611.395 -29.8644 612.02 -30.9052 612.332C-32.9869 612.332 -32.7788 611.187 -36.0055 611.707C-38.6076 612.124 -40.7934 613.789 -43.3956 614.205C-44.8528 612.332 -40.8975 609.938 -39.8567 609.521C-37.9831 608.793 -35.9014 608.272 -33.9237 607.96C-33.1951 608.064 -32.4665 607.96 -31.7379 607.752C-30.8011 605.15 -35.7973 604.629 -37.4627 604.421C-39.6485 604.213 -41.7302 604.629 -43.8119 605.462C-44.3324 605.878 -44.7487 605.774 -45.061 605.254C-45.8937 604.317 -47.0386 603.797 -48.4958 603.693C-50.4735 603.172 -52.4511 603.172 -54.4287 603.589C-56.7186 603.901 -58.8004 604.629 -60.8821 605.67C-59.9453 601.195 -54.8451 597.76 -50.5775 597.552C-47.9754 597.447 -46.2059 597.864 -44.0201 599.321C-44.1242 598.384 -44.3324 597.031 -44.8528 596.198C-45.7896 594.741 -47.6631 594.533 -49.1203 594.013C-50.7857 593.388 -53.7001 592.243 -55.3655 592.451C-58.9044 592.972 -62.5475 594.949 -65.8782 596.094C-67.3354 596.615 -69.209 596.927 -70.5621 597.552C-73.1643 598.905 -73.4765 603.068 -73.6847 605.566C-73.8929 608.377 -73.6847 610.666 -71.8111 612.852C-74.7256 611.707 -79.5135 610.042 -81.1789 607.336C-83.677 603.38 -81.3871 597.76 -77.9522 595.262C-77.0155 594.637 -76.1828 594.117 -75.246 593.492C-73.1643 591.41 -70.7703 589.953 -67.96 589.225C-64.6292 588.496 -61.2984 589.121 -58.1758 587.872C-60.8821 583.084 -68.6886 581.73 -73.5806 583.084C-76.2869 583.916 -78.889 584.749 -81.3871 585.894C-82.8443 586.622 -84.1974 587.872 -85.6546 588.392C-86.5914 585.478 -88.0486 583.396 -87.1118 579.961C-86.071 577.983 -85.1342 576.006 -84.0933 574.028C-81.6994 571.842 -78.9931 570.697 -75.8705 570.593C-73.4765 570.281 -70.458 569.448 -68.064 569.656C-65.0455 569.969 -62.5475 571.738 -59.4249 570.905C-59.633 567.679 -61.1943 564.244 -63.0679 561.642C-64.8374 559.248 -68.064 559.144 -70.9785 559.04C-75.5583 558.936 -78.5768 560.393 -82.428 562.995C-83.677 563.932 -85.0301 564.868 -86.2791 565.805C-87.1118 567.158 -88.2568 567.783 -89.6099 567.679C-90.1303 564.868 -90.2344 562.058 -90.1303 559.144C-90.1303 557.895 -89.9222 556.333 -90.2344 555.084C-90.8589 553.211 -92.4202 552.17 -90.3385 550.296Z" fill="#457FA4"/>
<path d="M431.467 675.629C418.951 673.69 406.17 674.748 394.007 674.307C389.864 673.25 385.721 672.368 381.579 671.751C378.229 671.222 374.792 671.751 371.354 672.368C370.385 672.28 369.503 672.192 368.534 672.104C361.394 671.399 354.784 667.609 348.614 667.256C343.149 666.903 337.861 670.429 332.484 672.104C331.603 672.016 330.633 671.928 329.752 671.839C325.345 671.399 321.114 672.545 316.795 673.514C314.062 673.514 311.33 673.426 308.686 673.426C306.394 673.426 304.102 673.602 301.899 673.779C300.401 673.426 298.814 672.897 297.316 672.368C292.997 670.958 290.088 670.341 285.416 671.399C278.894 672.897 269.904 674.572 264.263 677.921C264.263 678.538 263.557 679.067 262.94 679.508C262.676 679.508 262.412 679.508 262.147 679.508C252.716 687 241.61 693.875 231.915 695.373C279.952 691.848 329.84 696.872 378.229 695.021C429.175 693.081 479.416 689.203 530.45 689.203C497.397 687.088 463.638 680.654 431.467 675.629Z" fill="#356683"/>
<path d="M419.568 690.173C424.415 691.759 436.843 685.149 443.366 683.21C455.441 679.772 467.517 676.863 479.68 674.748C494.047 672.192 508.943 671.839 522.958 667.785C533.535 664.788 544.993 664.964 555.482 662.232C567.293 659.147 570.642 656.855 582.718 661.439C588.27 663.554 593.383 665.934 599.024 667.785C602.902 669.019 687.518 674.307 685.138 672.721C685.138 676.335 614.184 678.097 614.184 681.711V689.027L419.568 690.173Z" fill="#0D344B"/>
<path d="M357.252 690.349C389.776 685.589 428.999 683.121 462.933 683.121C478.358 683.121 493.783 683.386 508.679 683.121C524.104 682.769 533.27 678.274 548.431 676.511C558.126 671.928 566.235 672.809 574.432 673.426C590.562 674.748 600.61 671.311 615.242 670.165C625.819 663.025 637.189 663.73 654.465 663.73C671.829 663.73 681.083 662.408 696.773 659.676C713.343 656.767 729.297 656.943 746.749 655.621V698.37L357.252 690.349Z" fill="#0D2432"/>
<path d="M302.075 690.173C297.227 691.759 284.799 685.149 278.277 683.21C266.202 679.772 254.126 676.863 241.963 674.748C227.596 672.192 212.7 671.839 198.685 667.785C188.108 664.788 176.65 664.964 166.161 662.232C154.35 659.147 151.001 656.855 138.925 661.439C133.372 663.554 128.26 665.934 122.619 667.785C118.741 669.019 105.079 672.456 107.459 670.87C107.459 674.484 107.459 678.097 107.459 681.711V689.027L302.075 690.173Z" fill="#0D344B"/>
<path d="M-14 691.495H237.379C240.905 691.495 244.431 691.583 247.956 691.319C236.322 686.647 228.125 679.243 214.991 677.921C205.648 676.952 195.953 676.952 186.698 675.629C177.708 674.396 168.453 674.131 159.286 672.809C151.882 671.751 144.919 668.754 137.515 668.049C129.318 667.256 121.562 669.46 113.364 669.019C98.9973 668.226 85.9524 660.822 71.2328 660.557C57.7471 660.293 45.848 665.052 32.098 664.347C17.2902 663.554 3.71643 653.33 -11.0913 654.035C-11.0913 665.229 -14 680.301 -14 691.495Z" fill="#0D2432"/>
<path d="M1171.02 691H-186.32V949.632H1171.02V691Z" fill="url(#paint1_linear)"/>
<path d="M-220.699 878.823L1218.81 895.54V976.914H-233L-220.699 878.823Z" fill="#347BA6"/>
<path d="M1272.74 849.491H-204.771L1272.74 820.316V849.491Z" fill="#4788B0"/>
<path d="M1272.74 926.449H-204.771L1272.74 897.117V926.449Z" fill="#215779"/>
<path d="M-204.771 806.281H1218.81L-204.771 786.252V806.281Z" fill="#4788B0"/>
<path d="M356.018 823.628C356.018 823.628 248.465 827.097 115.68 827.097C-17.1056 827.097 -124.659 823.628 -124.659 823.628C-124.659 823.628 -17.1056 820.158 115.68 820.158C248.465 820.158 356.018 823.628 356.018 823.628Z" fill="#4788B0"/>
<path d="M371.946 870.465C371.946 870.465 264.393 873.934 131.608 873.934C-1.17767 873.934 -108.731 870.465 -108.731 870.465C-108.731 870.465 -1.17767 866.996 131.608 866.996C264.393 866.996 371.946 870.465 371.946 870.465Z" fill="#4788B0"/>
<path d="M447.607 811.431C457.336 811.972 465.444 812.188 467.497 812.188C467.606 812.188 467.606 812.08 467.606 812.08L468.254 812.296C468.038 812.404 467.93 812.512 467.714 812.62C465.984 818.566 480.361 825.484 480.361 825.484L480.686 825.592C481.01 833.916 502.522 845.807 502.738 845.915H502.522H502.306L489.766 845.159L514.089 858.995C514.521 859.212 514.737 859.212 514.845 859.212L514.521 859.32C514.305 859.212 492.901 850.888 461.768 846.888C462.201 847.213 462.309 847.429 462.309 847.429C460.795 848.077 458.958 848.618 457.228 849.05L463.714 852.618C467.606 851.428 467.281 850.131 467.281 850.131C475.173 854.023 478.956 857.266 478.956 857.266L474.308 858.455L489.334 866.779C489.982 867.103 490.415 867.211 490.415 867.211H490.199H489.982C489.982 867.211 489.226 866.887 487.928 866.346L487.712 866.238L487.604 866.346C487.172 866.238 446.85 853.699 412.799 847.969L414.744 849.266L404.691 848.51L409.231 850.996C414.312 851.212 416.258 850.78 416.258 850.78L424.257 856.077C421.771 855.969 419.609 855.861 417.771 855.644L430.095 862.347C430.311 862.455 430.527 862.455 430.635 862.563L430.527 862.671L430.419 862.779C358.64 838.889 268.701 819.323 267.728 819.106L267.403 818.998V818.89C267.403 818.782 263.404 806.459 280.592 800.946C279.186 798.892 278.43 796.622 279.294 795H428.365L431.5 796.73H428.581L430.743 797.919C430.743 797.919 433.662 797.486 441.229 799.865C448.796 802.243 458.849 806.999 458.849 806.999C458.849 806.999 451.607 806.675 441.445 806.242C443.067 808.08 445.229 809.702 447.607 811.431ZM440.905 806.567C434.851 806.351 427.716 806.134 420.582 805.918L427.5 809.918C433.878 810.566 440.797 811.107 446.958 811.431C444.688 809.702 442.526 807.972 440.905 806.567ZM443.175 822.025C442.202 821.593 441.229 821.268 440.256 820.836C433.662 818.674 418.852 814.026 401.556 809.702C409.339 813.593 415.825 817.269 419.933 819.647C432.473 823.647 441.121 826.998 443.823 828.079L458.849 828.727L447.283 822.349L443.175 822.025ZM392.259 844.294C388.152 843.105 382.855 841.699 376.909 839.862L371.18 839.537L361.991 835.43C345.884 830.673 327.832 825.16 313.454 820.836C342.641 832.943 380.477 842.348 380.693 842.456C385.125 843.537 389.016 844.078 392.259 844.294ZM387.611 840.402L382.747 840.186C387.503 842.024 391.287 843.429 393.989 844.402C394.422 844.402 394.854 844.402 395.286 844.402L387.611 840.402ZM414.42 827.214L407.285 823.322L387.719 824.295C382.747 821.593 377.666 819.106 372.91 816.944C364.586 814.458 350.317 810.458 335.182 807.215L337.344 808.837H337.02C357.992 820.62 369.558 822.566 369.558 822.566L355.938 822.349L364.262 826.89C370.207 825.809 371.288 823.539 371.288 823.539L388.26 833.592C406.421 835.862 424.473 840.186 435.067 842.997C413.663 832.187 387.611 824.295 387.611 824.295C400.475 826.782 408.907 827.43 414.42 827.214ZM424.69 822.566C425.338 822.998 425.987 823.322 426.744 823.755C455.714 832.078 480.686 842.024 486.956 844.51H487.388L460.255 829.592L444.256 828.727L442.959 827.971H443.175C440.364 826.89 432.149 823.755 420.69 820.079C423.284 821.593 424.69 822.566 424.69 822.566L422.96 822.674C423.501 822.782 424.149 822.998 424.69 823.106C424.798 822.782 424.69 822.566 424.69 822.566ZM475.929 843.861L486.415 844.402C479.821 841.699 455.498 832.187 427.5 824.079C433.986 827.863 439.607 831.322 444.148 834.24C460.471 838.565 472.038 842.456 475.929 843.861ZM487.712 844.078C485.55 842.672 478.307 837.592 472.362 831.754C471.821 831.214 471.281 830.673 470.74 830.133L462.417 829.7L487.712 844.078ZM362.208 827.214L352.803 822.349L339.831 822.133C343.506 823.863 347.073 825.484 350.641 827.106C355.505 827.43 359.289 827.43 362.208 827.214ZM334.426 807.107C333.669 806.999 333.02 806.783 332.264 806.675C330.426 806.675 328.805 806.675 327.183 806.783L333.02 809.918C335.615 809.377 337.02 808.837 337.02 808.837H336.696L334.426 807.107ZM333.993 806.783L333.777 806.567C333.561 806.567 333.345 806.567 333.129 806.567C333.453 806.675 333.777 806.675 333.993 806.783ZM323.075 806.783C319.616 806.891 317.454 806.891 317.454 806.891L315.833 806.026C305.779 806.242 305.671 806.891 305.671 806.891L306.968 807.648C305.779 807.864 304.59 808.08 303.293 808.296C305.239 809.269 306.644 809.918 306.644 809.918H306.428C316.589 811.647 324.697 811.215 329.994 810.458L323.075 806.783ZM306.536 809.918H306.32C306.32 809.918 304.914 809.269 302.969 808.296C297.672 809.377 292.05 811.107 287.078 812.837C301.131 814.674 311.292 815.539 317.886 815.863C310.211 812.404 306.536 809.918 306.536 809.918ZM363.721 806.567C358.1 806.459 351.614 806.459 345.236 806.459C350.208 807.54 352.154 808.188 352.37 808.188L352.262 808.404C352.262 808.404 349.992 807.756 344.371 806.459C340.912 806.459 337.453 806.459 334.21 806.567L334.75 806.891C349.344 810.026 363.072 813.918 371.612 816.404C360.694 811.431 352.262 808.296 352.262 808.296C365.667 810.242 375.612 810.566 382.747 810.242L380.585 809.053C374.531 807.648 368.153 806.351 361.667 805.27L363.721 806.567ZM287.078 812.837C282.538 814.35 278.538 815.863 275.835 816.944H300.59C292.267 814.458 287.078 812.837 287.078 812.837ZM295.51 808.296L292.699 806.783C290.429 807.215 288.483 807.756 287.186 808.296C287.186 808.296 285.456 806.891 283.51 804.837C264.269 808.296 274.646 815.215 275.835 815.971L295.51 808.296ZM361.235 804.945C367.721 806.134 373.991 807.323 379.936 808.729L369.558 803.216C366.207 803.216 362.424 803.216 358.424 803.216L361.235 804.945ZM386.314 810.026C390.962 809.594 393.989 808.837 395.719 808.404C389.233 806.891 382.639 805.486 375.936 804.297L386.314 810.026ZM460.903 828.835L469.984 829.268C468.47 827.646 467.173 825.917 466.092 824.187L450.093 822.674L460.903 828.835ZM466.741 824.295C467.714 826.025 469.119 827.754 470.524 829.376L477.226 829.7C476.037 829.052 472.47 827.106 467.822 824.403L466.741 824.295ZM500.9 845.159C496.144 842.348 480.469 832.727 480.037 825.484L468.47 824.403C473.119 827.106 476.794 829.052 477.875 829.592H478.632L480.361 830.457L471.389 830.025C471.93 830.565 472.47 831.214 473.119 831.754C480.037 838.565 488.901 844.402 489.009 844.402H488.577L500.9 845.159ZM513.981 859.104L488.685 845.159H488.253H488.145C488.145 845.159 488.145 845.159 488.037 845.159L477.01 844.51H476.362L475.281 843.861C471.173 842.348 460.147 838.673 444.58 834.673C453.985 840.835 459.39 845.159 461.444 846.888C489.55 850.456 509.873 857.59 513.981 859.104ZM424.69 823.322C423.933 823.106 423.176 822.89 422.42 822.674L410.312 823.214L417.123 826.998C422.96 826.349 424.365 824.403 424.69 823.322ZM455.931 849.591C452.255 850.456 449.012 851.104 449.012 851.104C445.121 848.51 440.689 845.915 435.932 843.537C425.554 840.726 407.177 836.294 388.8 833.916L400.583 840.835C423.068 844.942 443.499 850.78 457.876 855.536C458.849 855.861 459.822 856.185 460.795 856.509C457.985 854.996 456.147 854.239 456.147 854.239C458.958 854.023 461.011 853.59 462.633 853.266L455.931 849.591ZM473.335 858.887L470.2 859.644C477.01 862.022 482.307 864.184 485.875 865.59L473.335 858.887ZM405.34 843.429L412.366 847.969C443.823 853.266 480.578 864.292 486.847 866.238C483.496 864.833 477.659 862.563 469.876 859.752L467.606 860.293C465.552 858.995 463.606 857.806 461.876 856.942C460.579 856.509 459.174 856.077 457.768 855.536C443.607 850.888 423.284 845.051 401.124 841.051L389.557 840.51L396.8 844.402C402.421 844.402 405.34 843.429 405.34 843.429ZM403.286 848.618L392.259 847.753L379.071 842.024C379.612 842.132 380.152 842.24 380.693 842.456L274.862 817.269C273.565 817.809 272.592 818.134 272.268 818.35C276.16 819.215 334.101 831.43 398.097 849.915C402.313 850.564 405.556 850.996 408.15 851.104L403.286 848.618ZM429.987 862.563L417.123 855.861C409.556 855.212 406.637 854.347 406.637 854.347L395.394 849.591C395.719 849.699 396.151 849.699 396.475 849.807C331.291 830.997 272.808 818.782 272.16 818.674L272.052 818.566L267.944 819.215C274.322 820.512 360.478 839.537 429.987 862.563ZM267.944 819.106L273.241 817.052L275.727 816.08H275.403C275.295 815.972 271.727 813.918 271.187 811.431C270.755 809.269 272.7 806.459 283.186 804.621C282.321 803.648 281.457 802.675 280.7 801.594C265.241 806.675 267.512 817.485 267.944 819.106ZM386.422 803.216C386.422 803.216 381.666 803.108 374.207 803.108L375.504 803.864C382.422 805.053 389.449 806.567 396.151 808.188C397.016 807.864 397.448 807.756 397.448 807.756H397.124C397.124 807.756 395.935 806.891 393.665 805.594C392.692 805.594 391.719 805.594 390.746 805.594L386.422 803.216ZM394.205 805.594C396.475 806.891 397.773 807.756 397.773 807.756H397.448C398.529 808.296 399.61 808.837 400.691 809.377C416.474 813.269 430.311 817.485 437.986 819.971C423.176 813.701 416.042 808.404 416.042 808.404C418.312 808.837 420.906 809.161 423.501 809.485L417.015 805.918C408.799 805.594 400.799 805.486 394.205 805.594Z" fill="url(#paint2_linear)"/>
<path d="M422.05 761.324C431.288 760.184 439.385 759.842 441.438 759.728C441.552 759.842 441.666 759.842 441.78 759.956L442.008 759.5C441.666 759.272 441.21 759.044 440.868 758.815C427.639 746.499 429.235 732.129 429.235 732.129L429.463 731.901C413.611 714.567 413.269 690.047 413.269 689.819H413.041H412.813L400.952 691.302L399.812 662.677C399.926 662.335 400.04 662.107 400.04 662.107L399.47 661.878C399.356 662.107 392.969 679.213 367.88 687.424C367.652 686.74 367.538 686.398 367.538 686.398C364.686 685.143 361.721 684.003 358.87 682.977L358.756 675.45C365.143 677.845 367.423 680.696 367.423 680.696C368.108 672.599 365.827 665.87 365.827 665.87L358.642 663.475L358.3 646.254C358.414 645.684 358.528 645.342 358.528 645.228L358.3 645.114L358.072 645C358.072 645 357.958 645.684 357.616 646.825L357.502 646.939L357.274 646.825C357.046 647.053 338.799 673.055 314.051 684.915L313.595 682.292L304.471 683.889V678.757C309.375 678.187 312.34 679.213 312.34 679.213L310.516 668.265C308.121 668.493 306.182 668.835 304.471 669.177V655.378C304.585 655.264 304.585 655.15 304.7 655.036L304.471 654.922L304.243 654.808C274.706 704.189 217.798 744.674 217.228 745.016L217 745.13L217.228 745.358C217.456 745.7 237.072 771.018 266.039 782.537C268.662 786.87 272.083 791.432 276.189 794.853H433.455V791.318H430.376V788.809C430.376 788.809 434.253 789.607 437.56 784.703C440.868 779.8 442.236 769.878 442.236 769.878C442.236 769.878 435.165 770.562 425.244 771.36C423.761 768.281 422.849 764.86 422.05 761.324ZM424.445 771.36C418.401 771.816 411.444 772.273 404.26 772.615L403.917 764.404C409.392 763.035 415.664 762.009 421.594 761.324C422.278 764.86 423.191 768.281 424.445 771.36ZM396.733 739.314C396.391 740.112 396.162 740.911 395.934 741.709C393.197 746.157 386.583 755.85 376.661 764.746C377.345 756.763 377.117 749.122 376.775 744.218C382.135 735.893 384.872 729.05 385.67 726.883L400.154 725.515L400.268 738.63L396.733 739.314ZM299.796 693.24C297.629 695.635 295.006 698.715 292.155 702.25L286.567 702.82L284.856 711.373C277.101 721.295 268.662 732.585 261.933 741.595C269.346 716.619 290.786 697.004 291.014 696.89C293.751 694.837 296.831 693.697 299.796 693.24ZM302.419 701.223L297.743 701.68C299.225 697.916 300.48 694.951 301.392 693.012C301.848 693.012 302.305 692.898 302.761 692.898L302.419 701.223ZM356.247 728.594L356.133 736.577L333.667 734.638C333.667 740.226 333.096 745.358 332.298 749.806C328.307 754.824 321.008 763.149 311.428 769.992L310.63 766.684L310.402 766.799C309.717 742.393 318.157 738.402 318.157 738.402L304.243 738.858V729.392C312.569 731.559 318.157 736.349 318.157 736.349L316.56 715.593C331.386 710.917 341.878 701.908 347.58 696.092C345.983 718.444 333.667 734.752 333.667 734.752C342.448 729.506 350.089 728.138 356.247 728.594ZM376.205 738.288C376.205 737.489 376.091 736.691 376.091 735.893C390.46 718.672 397.759 698.258 399.47 693.012H399.926L400.154 723.918L384.872 725.629V727.111H385.1C384.302 729.392 381.679 735.893 376.775 743.534C376.547 740.112 376.205 738.288 376.205 738.288L374.266 738.06C374.608 737.717 374.836 737.375 375.178 737.033C375.863 737.831 376.205 738.288 376.205 738.288ZM388.978 694.153L398.9 693.012C397.075 698.486 389.89 718.216 376.091 735.094C375.635 727.339 374.836 720.269 373.924 713.996C383.047 705.215 387.495 697.004 388.978 694.153ZM400.952 693.697C401.523 696.662 403.575 707.154 408.707 719.242C409.163 720.383 409.734 721.523 410.19 722.664L402.207 723.576L400.952 693.697ZM301.392 728.708L301.05 738.858L287.707 739.314C288.277 735.779 288.847 732.357 289.532 729.164C293.751 728.024 297.743 728.138 301.392 728.708ZM310.972 770.22C310.516 770.562 310.06 770.904 309.603 771.132C307.665 771.132 305.84 771.018 304.129 771.018V764.518C307.893 765.658 310.402 766.684 310.402 766.684L310.174 766.799L310.972 770.22ZM311.086 770.79L311.2 771.246C310.972 771.246 310.744 771.246 310.516 771.246C310.744 771.132 310.972 771.018 311.086 770.79ZM299.682 770.904C295.918 770.79 293.523 770.676 293.523 770.676V772.501C282.575 772.159 281.092 770.676 281.092 770.676V769.193C279.496 768.851 277.785 768.281 275.961 767.825C276.189 765.886 276.417 764.518 276.417 764.518H276.189C283.601 760.982 292.953 761.895 300.024 763.491L299.682 770.904ZM276.075 764.518H275.847C275.847 764.518 275.618 765.886 275.39 767.711C267.635 765.316 258.398 761.781 249.73 758.359C260.907 754.482 270.03 752.885 276.417 752.201C275.048 759.158 276.075 764.518 276.075 764.518ZM342.904 771.246C337.202 771.474 330.359 771.474 323.631 771.474C326.71 769.193 327.622 767.939 327.736 767.825L327.28 767.483C327.28 767.483 326.14 768.851 322.718 771.474C318.955 771.474 315.306 771.36 311.884 771.246L311.656 770.448C320.894 763.833 327.964 755.964 332.184 750.832C330.359 761.096 327.508 767.597 327.508 767.597C337.772 763.491 347.694 762.921 355.905 763.605V766C352.142 768.851 348.036 771.588 343.36 773.983L342.904 771.246ZM249.73 758.245C241.976 755.052 234.791 751.973 229.887 749.692H256.003C252.239 754.938 249.73 758.245 249.73 758.245ZM267.521 767.711V770.79C264.214 769.878 261.249 768.851 258.854 767.711C258.854 767.711 259.766 770.676 261.705 774.896C234.563 767.711 232.282 753.455 232.054 751.973L267.521 767.711ZM343.36 774.668C348.036 772.273 352.142 769.65 355.791 766.913L355.677 778.431C352.142 778.431 348.15 778.431 343.931 778.317L343.36 774.668ZM360.239 764.29C365.941 765.202 370.617 766.685 373.354 767.711C369.476 770.79 365.143 773.755 360.467 776.264L360.239 764.29ZM402.207 725.287L410.988 724.374C412.585 727.796 414.523 731.331 416.804 734.866L402.891 737.946L402.207 725.287ZM417.261 734.752C414.98 731.217 413.155 727.682 411.558 724.374L418.059 723.69C418.059 724.945 418.059 729.05 418.287 734.524L417.261 734.752ZM412.699 691.416C413.041 697.118 415.322 717.19 428.893 732.129L418.743 734.41C418.515 728.936 418.515 724.831 418.515 723.69L419.199 723.576V721.637L410.646 722.55C410.076 721.295 409.506 720.155 409.049 718.9C403.119 704.759 401.294 692.784 401.18 692.67L400.724 692.784V692.67L412.699 691.416ZM399.584 662.791L399.812 691.53H399.356H399.242L388.864 692.898L388.179 693.012V694.267C386.697 697.346 382.249 704.987 373.696 713.312C371.643 700.539 368.906 691.53 367.766 688.108C390.574 680.582 398.215 665.87 399.584 662.791ZM374.722 736.691C374.38 737.147 373.924 737.603 373.582 738.06L359.669 736.919L359.555 729.164C367.081 730.419 372.327 734.41 374.722 736.691ZM356.817 682.406C351.229 680.468 346.668 679.327 346.668 679.327C347.694 684.801 347.922 690.047 347.58 695.065C342.106 700.881 331.386 710.119 316.446 714.909L315.306 700.539C331.158 692.1 341.308 679.897 347.352 670.204C347.808 669.519 348.15 668.835 348.606 668.151C348.492 671.23 348.15 672.941 348.15 672.941C351.571 673.511 354.537 674.195 356.931 674.993L356.817 682.406ZM357.046 663.133L352.256 661.536C354.765 656.518 356.247 652.185 357.274 649.22L357.046 663.133ZM315.42 695.179L313.937 685.714C336.86 674.879 354.194 651.957 357.16 647.965C356.247 650.816 354.651 655.606 351.799 661.308L348.264 660.168C348.606 662.905 348.72 665.186 348.72 667.124C348.15 668.037 347.58 669.063 347.01 669.976C341.079 679.555 331.044 691.644 315.42 699.969L304.243 701.109V693.012C310.402 693.012 315.42 695.179 315.42 695.179ZM303.103 684.231L293.067 685.942L290.102 697.688C290.444 697.346 290.786 697.118 291.128 696.89L228.29 749.008C225.895 747.867 224.185 747.069 223.5 746.841C226.009 745.13 263.416 719.813 295.006 681.608C298.085 680.239 300.936 679.441 303.331 679.099L303.103 684.231ZM304.129 655.492L303.559 669.405C296.831 670.774 295.462 672.599 295.462 672.599L292.839 682.52C293.067 682.406 293.409 682.292 293.637 682.064C261.363 720.953 223.272 746.157 222.816 746.385L222.93 746.613L217.342 745.244C221.562 742.393 275.504 703.162 304.129 655.492ZM217.57 745.472L227.264 749.806L231.712 751.745H231.484C231.484 751.973 231.712 756.193 236.159 761.439C239.809 765.886 247.336 771.702 262.047 775.466C262.96 777.405 264.1 779.571 265.354 781.852C238.668 771.018 220.193 748.78 217.57 745.472ZM373.24 778.089C373.24 778.089 368.336 778.203 360.467 778.317V776.834C365.371 774.325 369.932 771.246 373.924 767.939C375.407 768.509 376.205 768.965 376.319 768.965L376.091 769.079C376.091 769.079 376.433 770.904 376.547 773.413C375.407 773.413 374.38 773.299 373.354 773.299V778.089H373.24ZM377.003 773.299C377.003 770.676 376.547 768.851 376.547 768.851L376.319 768.965C376.433 767.825 376.547 766.799 376.661 765.658C385.785 757.561 392.171 748.78 395.478 743.762C392.057 756.649 394.908 767.711 394.908 767.711C396.619 766.913 398.557 766.114 400.724 765.43L400.838 772.843C392.285 773.185 383.96 773.413 377.003 773.299Z" fill="#081C28"/>
</g>
<defs>
<linearGradient id="paint0_linear" x1="329.494" y1="0.0423618" x2="329.494" y2="531.23" gradientUnits="userSpaceOnUse">
<stop stop-color="#2C5976"/>
<stop offset="1" stop-color="#61A5D1"/>
</linearGradient>
<linearGradient id="paint1_linear" x1="492.259" y1="689.92" x2="492.259" y2="944.042" gradientUnits="userSpaceOnUse">
<stop stop-color="#407799"/>
<stop offset="1" stop-color="#0D4C74"/>
</linearGradient>
<linearGradient id="paint2_linear" x1="326.089" y1="768.842" x2="326.089" y2="869.291" gradientUnits="userSpaceOnUse">
<stop stop-color="#162E3E"/>
<stop offset="1" stop-color="#1D4157" stop-opacity="0"/>
</linearGradient>
<clipPath id="clip0">
<rect width="720" height="976" fill="white"/>
</clipPath>
</defs>
</svg>
