<svg width="720" height="976" viewBox="0 0 720 976" fill="none" xmlns="http://www.w3.org/2000/svg">
<g clip-path="url(#clip0)">
<rect width="720" height="976" fill="#FBFBFB"/>
<path d="M797.719 392C797.719 392 750.649 395.442 741.892 415.468C733.135 435.494 749.555 437.997 749.555 437.997C749.555 437.997 734.23 446.341 725.472 437.997C716.715 429.653 704.346 449.679 704.346 449.679C704.346 449.679 692.633 441.335 682.234 442.169C671.835 443.004 670.74 464.594 670.74 464.594C670.74 464.594 669.098 452.078 654.539 464.594C639.98 477.11 639.98 483.785 626.845 480.448C613.709 477.11 609.33 467.097 595.1 470.435C580.869 473.773 576.819 487.958 576.819 487.958C576.819 487.958 565.544 485.454 545.841 487.958C526.137 490.461 522.853 512.99 522.853 512.99C522.853 512.99 519.569 512.156 507.528 512.99C495.487 513.824 496.581 528.114 490.013 534.267C483.446 540.421 459.363 552.625 447.322 549.808C435.281 546.992 428.713 528.114 421.051 534.267C421.051 534.267 385.255 513.407 373.981 530.408C373.981 530.408 343.33 525.61 336.763 534.267C330.195 542.924 330.195 549.287 313.775 549.808C297.355 550.434 296.917 522.273 270.865 534.267C270.865 534.267 237.149 512.156 211.973 522.899C211.973 522.899 220.73 511.217 211.973 504.541C203.215 497.866 195.115 507.045 185.482 505.376C175.849 503.707 166.873 482.012 152.752 485.35C138.631 488.688 121.117 493.068 121.117 493.068C121.117 493.068 114.549 480.344 98.129 480.344C81.7093 480.344 69.6682 493.068 69.6682 493.068C69.6682 493.068 69.6682 466.158 60.911 460.318C52.1538 454.477 45.8048 462.821 45.8048 462.821C45.8048 462.821 43.0682 439.457 22.4888 441.96C1.90939 444.464 1.14313 455.311 -11.1169 454.477C-23.2675 453.747 -36.4033 399.614 -78 424.646V619.378H797.719V392Z" fill="#ECF8FF"/>
<path d="M0 521C0 521 40.7374 523.708 48.3165 539.686C55.8955 555.664 41.6848 557.649 41.6848 557.649C41.6848 557.649 54.9481 564.329 62.5272 557.649C70.1062 550.969 80.8117 566.947 80.8117 566.947C80.8117 566.947 90.9486 560.267 99.9488 560.989C108.949 561.621 109.896 578.863 109.896 578.863C109.896 578.863 111.317 568.933 123.918 578.863C136.518 588.792 136.518 594.118 147.886 591.501C159.255 588.883 163.044 580.849 175.36 583.557C187.676 586.175 191.182 597.549 191.182 597.549C191.182 597.549 200.94 595.563 217.993 597.549C235.045 599.535 237.888 617.498 237.888 617.498C237.888 617.498 240.73 616.866 251.151 617.498C261.572 618.13 260.625 629.594 266.309 634.559C271.993 639.434 292.836 649.183 303.257 647.016C313.678 644.85 319.362 629.685 325.994 634.559C325.994 634.559 356.973 617.949 366.731 631.49C366.731 631.49 393.258 627.608 398.942 634.559C404.627 641.42 404.627 646.475 418.837 647.016C433.048 647.558 433.427 624.991 455.975 634.559C455.975 634.559 485.154 616.866 506.944 625.532C506.944 625.532 499.365 616.234 506.944 610.908C514.523 605.583 521.534 612.894 529.871 611.54C538.207 610.186 545.976 592.945 558.197 595.563C570.418 598.18 585.577 601.791 585.577 601.791C585.577 601.791 591.261 591.591 605.472 591.591C619.682 591.591 630.104 601.791 630.104 601.791C630.104 601.791 630.104 580.307 637.683 575.703C645.262 571.009 650.756 577.689 650.756 577.689C650.756 577.689 653.125 559.094 670.936 561.08C688.746 563.066 689.41 571.731 700.02 571.009C710.631 570.377 722 527.138 758 547.088V702.442H0V521Z" fill="#BFE6FF"/>
<path d="M-131 754.802C-79.3 754.802 26.685 668.594 39.61 667.363C52.535 666.131 70.63 677.215 70.63 677.215C70.63 677.215 110.698 672.289 143.01 653.816C175.323 635.343 199.88 626.722 232.193 630.416C232.193 630.416 265.798 605.786 285.185 574.997C304.573 544.209 316.205 565.145 316.205 565.145C316.205 565.145 333.008 541.746 342.055 536.82C351.103 531.894 364.027 545.441 375.66 545.441C387.292 545.441 429.945 483.864 449.333 480.169C468.72 476.475 507.495 534.357 541.1 550.367C574.705 566.377 586.338 608.249 605.725 632.88C625.112 657.51 691.03 659.973 706.54 678.446C722.05 696.919 741.438 724.013 754.362 710.466C767.288 696.919 775.043 719.087 789.26 730.171C803.478 741.255 903 754.802 903 754.802V934.606H-131V754.802Z" fill="#5386A7"/>
<path d="M162.397 843.473C206.342 811.454 289.062 794.212 292.94 774.508C296.818 754.803 273.553 765.887 282.6 749.877C291.647 733.867 398.925 715.394 400.218 694.458C401.51 673.522 357.565 677.216 362.735 662.438C367.905 647.659 396.34 625.492 400.218 615.639C404.095 605.787 387.292 602.093 386 593.472C384.708 584.851 442.87 550.368 442.87 526.969C442.87 503.57 426.455 496.55 449.333 480.171C429.945 483.865 387.292 545.442 375.66 545.442C364.027 545.442 351.103 531.895 342.055 536.821C333.008 541.747 316.205 565.146 316.205 565.146C316.205 565.146 304.573 544.21 285.185 574.999C265.798 605.787 232.193 630.418 232.193 630.418C199.88 626.723 175.323 635.344 143.01 653.817C110.698 672.29 70.63 677.216 70.63 677.216C70.63 677.216 52.535 666.132 39.61 667.364C26.685 668.595 -79.3 754.803 -131 754.803V934.607H140.425C140.425 934.607 118.452 875.493 162.397 843.473Z" fill="#3A7295"/>
<path d="M623.82 677.338C650.963 692.24 630.283 715.393 607.018 730.171C583.753 744.949 587.63 772.043 581.168 788.053C574.705 804.063 528.175 822.536 574.705 813.915C621.235 805.295 587.63 788.053 619.943 767.117C652.255 746.181 669.058 751.107 670.35 731.402C671.643 711.698 678.105 712.929 688.445 707.388C698.785 701.846 696.329 671.057 706.54 678.446C691.03 659.973 625.113 657.51 605.725 632.88C627.051 667.609 596.678 662.436 623.82 677.338Z" fill="#3A7295"/>
<path d="M178.942 636.574C177.52 648.274 184.37 655.663 184.37 661.205C184.37 669.826 153.35 675.983 150.248 693.225C147.146 710.466 157.357 723.644 111.085 724.506C88.208 724.875 38.3175 787.683 49.95 790.147C61.5825 792.61 97.7725 762.191 131.378 746.181C164.983 730.171 183.078 742.486 176.615 724.506C170.153 706.525 159.813 705.54 197.295 685.836C234.778 666.131 207.635 650.121 232.193 630.416C212.805 628.2 196.132 630.416 178.942 636.574Z" fill="#5386A7"/>
<path d="M26.685 703.077C37.6712 696.919 40.2562 703.693 51.2425 694.456C62.2287 685.22 58.3512 680.294 70.63 677.215C70.63 677.215 52.535 666.131 39.61 667.363C39.4807 667.363 39.3514 667.363 39.2222 667.486C35.6032 671.55 34.1815 677.338 30.5625 682.141C24.1 690.762 5.3587 704.924 5.3587 711.082C5.3587 717.24 15.6987 709.235 26.685 703.077Z" fill="#5386A7"/>
<path d="M817.199 878.852C754.794 873.708 720.577 819.394 677.467 818.033C634.357 816.671 597.125 858.125 551.151 866.749C505.026 875.372 509.548 899.579 454.529 911.531C399.511 923.483 338.614 877.037 298.368 877.037C258.272 877.037 216.669 933.922 197.224 937.402C177.93 940.882 167.529 944.362 149.592 951.17C131.805 958.129 112.36 932.258 90.0515 930.443C67.7426 928.778 21.6176 961.458 -23 984H879V904.723C856.993 890.955 836.342 880.516 817.199 878.852Z" fill="#3A7295"/>
<path d="M626.059 904.964C630.131 879.1 661.196 869.472 660.292 853.235C659.236 837.142 639.631 841.596 665.57 818.893C627.416 824.21 593.033 856.971 551.411 864.443C505.265 872.634 509.789 895.624 454.746 906.976C399.703 918.327 338.778 874.214 298.513 874.214C258.4 874.214 216.778 928.242 197.324 931.547C178.021 934.852 167.616 938.156 149.67 944.623C131.725 951.089 112.422 926.661 90.1028 924.937C67.7838 923.356 21.6379 954.394 -23 975.803H561.214C509.639 944.192 621.987 930.828 626.059 904.964Z" fill="#234961"/>
<path d="M384.773 925.081C394.877 913.585 434.991 908.844 434.991 908.844C385.527 908.7 333.802 874.214 298.363 874.214C297.005 874.214 295.648 874.358 294.14 874.358C280.115 879.1 265.035 910.568 288.108 905.826C311.181 901.084 274.083 933.558 285.092 935.57C296.101 937.438 264.13 958.561 276.044 964.308C287.957 970.056 290.068 975.804 290.068 975.804H317.213C317.213 975.804 344.358 958.561 369.542 947.065C394.726 935.57 374.669 936.72 384.773 925.081Z" fill="#3A7295"/>
<path d="M241.213 160.274C277.229 160.274 306.426 132.455 306.426 98.1372C306.426 63.8198 277.229 36 241.213 36C205.197 36 176 63.8198 176 98.1372C176 132.455 205.197 160.274 241.213 160.274Z" fill="#ECF8FF"/>
<path d="M251.077 585.676C254.067 585.951 257.102 587.355 259.934 586.458C261.613 585.932 263.061 584.619 264.821 584.409C265.57 584.343 267.222 584.737 267.705 584.101C267.526 583.901 267.337 583.595 267.1 583.346C266.683 582.897 266.208 582.4 265.854 582.054C264.291 580.844 261.972 582.666 260.136 582.019C259.247 581.72 258.641 580.965 258.04 580.263C254.797 576.506 250.248 573.834 245.369 572.916C245.732 573.369 246.149 573.818 246.518 574.324C245.589 574.191 244.661 574.057 243.786 573.918C244.257 574.362 244.629 574.922 244.949 575.487C244.288 575.33 243.539 575.396 242.921 575.72C243.275 576.066 243.736 576.403 244.236 576.574C243.871 576.714 243.448 576.806 243.083 576.946C245.466 578.299 247.806 579.764 250.048 581.345C250.737 581.824 251.513 582.672 251.088 583.356C250.898 583.643 250.533 583.783 250.221 583.918C248.8 584.313 247.309 583.905 245.855 583.926C244.508 583.937 243.185 584.215 241.938 584.756C242.443 584.981 242.949 585.206 243.449 585.378C243.054 585.79 242.659 586.202 242.269 586.668C242.794 586.514 243.271 586.418 243.806 586.371C243.839 586.745 243.712 587.134 243.526 587.474C245.718 586.04 248.408 585.372 251.077 585.676Z" fill="#1D1D1D"/>
<path d="M178.552 606.952C181.542 607.228 184.577 608.631 187.409 607.735C189.088 607.209 190.536 605.895 192.296 605.686C193.045 605.62 194.697 606.013 195.18 605.378C195.001 605.178 194.812 604.871 194.575 604.623C194.158 604.174 193.683 603.677 193.329 603.331C191.766 602.121 189.447 603.943 187.611 603.296C186.722 602.997 186.116 602.242 185.515 601.54C182.272 597.782 177.723 595.11 172.844 594.193C173.207 594.646 173.624 595.094 173.993 595.601C173.064 595.467 172.136 595.333 171.261 595.195C171.732 595.639 172.104 596.199 172.424 596.764C171.763 596.606 171.014 596.672 170.396 596.997C170.75 597.343 171.211 597.679 171.711 597.851C171.346 597.991 170.923 598.082 170.558 598.222C172.941 599.576 175.281 601.041 177.523 602.622C178.212 603.1 178.988 603.948 178.563 604.633C178.373 604.919 178.008 605.059 177.696 605.195C176.275 605.589 174.784 605.182 173.33 605.202C171.983 605.213 170.66 605.492 169.413 606.033C169.918 606.258 170.424 606.483 170.924 606.654C170.529 607.067 170.134 607.479 169.744 607.945C170.269 607.791 170.746 607.695 171.281 607.647C171.314 608.022 171.187 608.41 171.001 608.75C173.198 607.371 175.942 606.697 178.552 606.952Z" fill="#1D1D1D"/>
<path d="M380.272 568.135C383.261 568.411 386.296 569.814 389.129 568.917C390.808 568.392 392.255 567.078 394.016 566.869C394.765 566.803 396.417 567.196 396.9 566.561C396.721 566.361 396.532 566.054 396.294 565.805C395.877 565.357 395.402 564.86 395.048 564.514C393.486 563.304 391.166 565.126 389.33 564.479C388.441 564.18 387.836 563.424 387.234 562.723C385.431 560.617 383.287 558.919 380.854 557.624L372.402 558.37C372.693 558.614 373.091 558.848 373.479 558.976C373.114 559.116 372.691 559.207 372.326 559.347C374.71 560.7 377.049 562.165 379.292 563.747C379.981 564.225 380.756 565.073 380.332 565.758C380.141 566.044 379.776 566.184 379.465 566.319C378.044 566.714 376.552 566.307 375.098 566.327C373.751 566.338 372.428 566.616 371.182 567.158C371.687 567.383 372.192 567.608 372.692 567.779C372.297 568.191 371.902 568.604 371.512 569.069C372.038 568.915 372.515 568.819 373.049 568.772C373.083 569.147 372.955 569.535 372.769 569.875C374.917 568.553 377.661 567.88 380.272 568.135Z" fill="#1D1D1D"/>
<path d="M202.981 704.215C205.97 704.491 209.006 705.894 211.838 704.998C213.517 704.472 214.964 703.158 216.725 702.949C217.474 702.883 219.126 703.277 219.609 702.641C219.43 702.441 219.241 702.134 219.004 701.886C218.587 701.437 218.111 700.94 217.757 700.594C216.195 699.384 213.876 701.206 212.039 700.559C211.15 700.26 210.545 699.505 209.944 698.803C206.701 695.045 202.152 692.373 197.273 691.456C197.636 691.909 198.053 692.357 198.421 692.864C197.493 692.73 196.565 692.597 195.69 692.458C196.16 692.902 196.533 693.462 196.853 694.027C196.192 693.869 195.443 693.936 194.824 694.26C195.178 694.606 195.639 694.943 196.14 695.114C195.775 695.254 195.351 695.345 194.986 695.485C197.37 696.839 199.71 698.304 201.952 699.885C202.641 700.363 203.417 701.212 202.992 701.896C202.802 702.182 202.437 702.322 202.125 702.458C200.704 702.853 199.212 702.445 197.759 702.465C196.412 702.476 195.088 702.755 193.842 703.296C194.347 703.521 194.852 703.746 195.353 703.918C194.958 704.33 194.563 704.742 194.173 705.208C194.698 705.054 195.175 704.958 195.71 704.91C195.743 705.285 195.615 705.674 195.43 706.013C197.622 704.58 200.37 703.96 202.981 704.215Z" fill="#1D1D1D"/>
<path d="M51.7433 727.959C54.3001 728.219 56.9372 729.388 59.4045 728.631C60.8741 728.178 62.1219 727.044 63.6151 726.858C64.2571 726.801 65.6905 727.16 66.1248 726.583C65.9989 726.378 65.7661 726.183 65.582 725.93C65.2232 725.53 64.8063 725.082 64.4617 724.842C63.1322 723.827 61.1102 725.354 59.4975 724.795C58.7202 724.54 58.2308 723.882 57.6927 723.283C54.8716 720.027 50.9491 717.731 46.726 716.918C47.0847 717.317 47.3899 717.722 47.7487 718.121C46.932 718.032 46.1642 717.884 45.3476 717.794C45.7598 718.189 46.0697 718.647 46.3844 719.158C45.7818 719.05 45.1933 719.102 44.6237 719.367C44.973 719.66 45.3223 719.953 45.7692 720.129C45.4529 720.211 45.0878 720.351 44.7716 720.433C46.8154 721.6 48.8688 722.875 50.8198 724.212C51.3973 724.647 52.1053 725.339 51.7292 725.965C51.5923 726.247 51.276 726.329 50.9598 726.411C49.7482 726.733 48.4265 726.418 47.1866 726.42C46.0002 726.417 44.8374 726.681 43.8005 727.15C44.2473 727.326 44.6407 727.507 45.0875 727.683C44.7414 728.037 44.3952 728.391 44.0537 728.799C44.4723 728.654 44.9491 728.558 45.3818 728.574C45.4101 728.895 45.3314 729.225 45.1457 729.565C47.1377 728.311 49.4586 727.729 51.7433 727.959Z" fill="#1D1D1D"/>
<path d="M280.479 688.592C282.71 688.827 284.954 689.815 287.105 689.14C288.366 688.759 289.409 687.751 290.746 687.633C291.281 687.586 292.545 687.852 292.935 687.386C292.814 687.235 292.634 687.035 292.455 686.835C292.154 686.484 291.8 686.138 291.509 685.894C290.35 684.972 288.635 686.31 287.25 685.893C286.584 685.682 286.153 685.073 285.678 684.576C283.269 681.715 279.861 679.751 276.187 679.051C276.488 679.402 276.788 679.753 277.035 680.108C276.326 680.009 275.67 679.905 274.96 679.806C275.314 680.152 275.619 680.557 275.817 680.97C275.322 680.852 274.787 680.899 274.319 681.102C274.615 681.4 274.955 681.586 275.29 681.718C275.028 681.795 274.711 681.877 274.453 682.007C276.215 683.038 277.982 684.122 279.647 685.269C280.166 685.655 280.758 686.25 280.431 686.818C280.289 687.046 280.031 687.176 279.763 687.2C278.708 687.455 277.609 687.228 276.53 687.215C275.504 687.198 274.502 687.448 273.621 687.849C274.014 688.03 274.349 688.163 274.742 688.344C274.445 688.639 274.152 688.989 273.855 689.284C274.22 689.144 274.648 689.107 275.023 689.074C275.046 689.341 274.967 689.672 274.826 689.9C276.462 688.893 278.52 688.388 280.479 688.592Z" fill="#1D1D1D"/>
<path d="M657.889 575.622C660.12 575.856 662.363 576.845 664.514 576.17C665.775 575.789 666.818 574.78 668.155 574.663C668.69 574.615 669.954 574.881 670.344 574.416C670.223 574.265 670.044 574.065 669.864 573.865C669.564 573.514 669.21 573.168 668.919 572.924C667.759 572.002 666.044 573.339 664.659 572.922C663.994 572.711 663.563 572.102 663.088 571.605C660.679 568.744 657.271 566.781 653.597 566.08C653.897 566.431 654.198 566.782 654.445 567.138C653.735 567.039 653.079 566.935 652.369 566.835C652.723 567.182 653.028 567.586 653.227 568C652.731 567.882 652.196 567.929 651.729 568.132C652.025 568.429 652.364 568.615 652.7 568.747C652.437 568.824 652.121 568.906 651.863 569.037C653.625 570.067 655.392 571.152 657.056 572.299C657.576 572.684 658.167 573.279 657.84 573.847C657.698 574.075 657.44 574.206 657.173 574.229C656.117 574.484 655.019 574.258 653.939 574.245C652.913 574.228 651.911 574.478 651.03 574.879C651.423 575.06 651.758 575.192 652.152 575.373C651.854 575.669 651.562 576.018 651.264 576.314C651.629 576.174 652.057 576.136 652.432 576.103C652.455 576.371 652.377 576.701 652.235 576.929C653.872 575.922 655.876 575.422 657.889 575.622Z" fill="#1D1D1D"/>
<path d="M309.248 660.23C313.553 659.527 318.258 660.298 321.935 657.979C324.078 656.604 325.597 654.26 327.991 653.294C328.98 652.883 331.459 652.88 331.954 651.758C331.609 651.519 331.206 651.231 330.803 650.943C330.056 650.416 329.206 649.952 328.531 649.634C325.899 648.518 323.342 651.924 320.522 651.742C319.166 651.646 318.069 650.826 316.977 650.06C311.013 646.003 303.666 644.009 296.434 644.539C297.128 645.071 297.871 645.545 298.565 646.076C297.232 646.248 295.899 646.419 294.562 646.537C295.358 647.006 296.11 647.587 296.818 648.279C295.797 648.315 294.858 648.668 294.054 649.332C294.733 649.703 295.457 649.963 296.215 650.004C295.704 650.318 295.246 650.628 294.735 650.943C298.598 651.95 302.368 653.127 306.152 654.465C307.318 654.847 308.691 655.75 308.362 656.912C308.191 657.412 307.791 657.771 307.329 658.027C305.478 659.053 303.275 659.14 301.217 659.645C299.32 660.135 297.567 661.045 296.061 662.31C296.824 662.404 297.592 662.552 298.408 662.642C297.988 663.38 297.622 664.113 297.201 664.851C297.864 664.415 298.536 664.086 299.271 663.86C299.425 664.385 299.423 664.978 299.31 665.528C301.87 662.768 305.42 660.837 309.248 660.23Z" fill="#1D1D1D"/>
<path d="M423.572 652.574C427.877 651.871 432.581 652.642 436.259 650.323C438.402 648.948 439.92 646.603 442.315 645.637C443.303 645.227 445.783 645.223 446.277 644.102C445.932 643.862 445.53 643.574 445.127 643.287C444.38 642.759 443.53 642.295 442.855 641.977C440.223 640.862 437.665 644.268 434.846 644.085C433.489 643.989 432.393 643.17 431.301 642.403C425.336 638.347 417.99 636.353 410.758 636.883C411.452 637.415 412.195 637.888 412.888 638.42C411.556 638.592 410.223 638.763 408.885 638.881C409.682 639.35 410.434 639.93 411.142 640.623C410.121 640.659 409.181 641.011 408.377 641.675C409.057 642.047 409.781 642.306 410.539 642.347C410.028 642.662 409.57 642.972 409.058 643.287C412.921 644.294 416.691 645.471 420.475 646.809C421.641 647.191 423.015 648.094 422.686 649.255C422.514 649.756 422.115 650.114 421.652 650.371C419.802 651.397 417.599 651.483 415.541 651.988C413.643 652.479 411.89 653.388 410.384 654.653C411.147 654.748 411.915 654.896 412.732 654.985C412.312 655.723 411.945 656.457 411.525 657.195C412.187 656.759 412.859 656.43 413.594 656.203C413.748 656.729 413.747 657.322 413.633 657.871C416.194 655.112 419.748 653.235 423.572 652.574Z" fill="#1D1D1D"/>
<path d="M113.367 643.594C116.735 643.89 120.164 645.474 123.361 644.438C125.249 643.84 126.902 642.4 128.876 642.172C129.732 642.097 131.55 642.529 132.135 641.831C131.951 641.577 131.709 641.275 131.413 640.978C130.933 640.427 130.4 639.881 129.992 639.54C128.255 638.183 125.629 640.194 123.52 639.517C122.52 639.174 121.851 638.317 121.192 637.566C117.532 633.36 112.367 630.419 106.885 629.393C107.306 629.895 107.733 630.45 108.208 630.948C107.172 630.823 106.132 630.645 105.097 630.521C105.626 631.014 106.057 631.623 106.434 632.236C105.667 632.088 104.864 632.159 104.139 632.493C104.551 632.888 105.066 633.22 105.624 633.44C105.206 633.585 104.733 633.734 104.315 633.879C106.985 635.423 109.66 637.02 112.188 638.792C112.989 639.314 113.828 640.264 113.359 641.061C113.173 641.4 112.755 641.545 112.336 641.69C110.755 642.099 109.049 641.71 107.43 641.691C105.918 641.663 104.385 642.014 102.983 642.623C103.542 642.843 104.105 643.117 104.664 643.337C104.22 643.807 103.776 644.278 103.333 644.748C103.907 644.536 104.491 644.431 105.084 644.432C105.068 644.865 104.999 645.302 104.764 645.7C107.312 644.02 110.377 643.318 113.367 643.594Z" fill="#1D1D1D"/>
<path d="M547.818 623.555C550.493 623.319 553.36 624.036 555.726 622.749C557.119 622.033 558.183 620.646 559.706 620.188C560.334 619.971 561.855 620.106 562.227 619.426C562.052 619.28 561.819 619.085 561.533 618.895C561.072 618.558 560.611 618.221 560.213 617.987C558.634 617.209 556.918 619.14 555.173 618.916C554.356 618.827 553.711 618.237 553.071 617.7C549.592 614.934 545.196 613.381 540.722 613.398C541.13 613.739 541.537 614.081 541.945 614.422C541.138 614.439 540.282 614.515 539.474 614.532C539.935 614.869 540.401 615.259 540.765 615.712C540.171 615.711 539.539 615.874 539.032 616.242C539.43 616.477 539.877 616.653 540.319 616.776C540.012 616.965 539.701 617.1 539.341 617.293C541.677 618.112 543.965 618.988 546.209 619.977C546.884 620.294 547.743 620.866 547.43 621.594C547.293 621.876 547.039 622.06 546.728 622.195C545.535 622.732 544.183 622.689 542.909 622.909C541.741 623.12 540.598 623.598 539.579 624.281C540.075 624.399 540.512 624.469 541.008 624.587C540.725 625.043 540.437 625.446 540.154 625.902C540.563 625.65 541.035 625.501 541.458 625.41C541.54 625.726 541.519 626.105 541.387 626.44C543.181 624.772 545.464 623.762 547.818 623.555Z" fill="#1D1D1D"/>
<path d="M650.006 538.2C652.68 537.964 655.547 538.682 657.914 537.395C659.306 536.679 660.37 535.291 661.893 534.833C662.521 534.616 664.043 534.751 664.414 534.072C664.239 533.925 664.006 533.73 663.72 533.54C663.259 533.203 662.798 532.866 662.4 532.632C660.822 531.855 659.105 533.785 657.36 533.562C656.543 533.472 655.898 532.882 655.258 532.345C651.779 529.579 647.383 528.026 642.91 528.043C643.317 528.384 643.725 528.726 644.132 529.067C643.325 529.085 642.469 529.16 641.662 529.177C642.123 529.514 642.589 529.904 642.952 530.357C642.359 530.356 641.726 530.519 641.22 530.888C641.618 531.122 642.065 531.298 642.507 531.421C642.2 531.61 641.888 531.745 641.528 531.939C643.865 532.757 646.152 533.634 648.396 534.622C649.071 534.94 649.93 535.511 649.617 536.239C649.48 536.521 649.227 536.705 648.915 536.84C647.722 537.377 646.371 537.334 645.096 537.555C643.929 537.765 642.785 538.244 641.767 538.927C642.262 539.045 642.7 539.114 643.196 539.232C642.912 539.688 642.624 540.091 642.341 540.547C642.75 540.295 643.222 540.146 643.646 540.055C643.727 540.371 643.707 540.75 643.575 541.085C645.368 539.418 647.652 538.408 650.006 538.2Z" fill="#1D1D1D"/>
<path d="M141.997 726.145C142.83 725.802 143.793 725.717 144.697 725.584C149.382 724.901 153.899 722.939 157.573 719.973C155.735 719.92 153.747 719.987 152.096 720.834L151.36 721.653C151.452 721.483 151.492 721.318 151.58 721.095C151.531 721.153 151.424 721.163 151.375 721.221C151.61 720.823 151.844 720.425 152.137 720.075C152.752 719.104 153.533 718.173 154.492 717.441C154.439 717.446 154.381 717.397 154.376 717.344C154.308 717.188 154.455 717.013 154.548 716.843C154.64 716.674 154.729 716.45 154.559 716.357C154.14 716.502 153.721 716.647 153.356 716.787C153.6 716.496 153.791 716.209 154.03 715.865C152.491 716.755 150.947 717.592 149.409 718.483C148.844 718.802 148.225 719.126 147.574 719.076C146.757 718.986 146.107 718.343 145.521 717.801C144.046 716.368 142.275 715.23 140.375 714.481C140.176 714.66 140.097 714.991 140.169 715.2C139.62 715.087 139.071 714.974 138.522 714.86C138.72 715.274 138.811 715.697 138.8 716.184C138.207 716.182 137.609 716.127 137.016 716.125C137.661 716.715 138.306 717.305 139 717.837C138.791 717.91 138.635 717.977 138.426 718.05C139.19 719.384 140.359 720.413 141.758 720.991C142.598 721.348 143.769 721.784 143.747 722.756C143.736 723.242 143.399 723.703 142.995 724.009C141.991 724.852 140.75 725.447 139.47 725.613C139.096 725.646 138.673 725.738 138.487 726.077C138.399 726.301 138.418 726.515 138.441 726.782C138.507 727.531 138.301 728.25 137.872 728.881C139.376 728.21 140.493 726.817 141.997 726.145Z" fill="#1D1D1D"/>
<path d="M92.4692 692.126C91.1789 692.779 89.6904 693.019 88.2224 692.878C87.785 692.809 87.2988 692.798 87.0549 693.089C86.9085 693.264 86.8834 693.59 86.8487 693.808C86.759 694.625 86.3389 695.363 85.6858 695.906C87.4953 695.638 89.0547 694.369 90.8642 694.101C91.8759 693.958 92.8578 694.087 93.8931 694.211C99.1186 694.775 104.431 693.875 109.197 691.676C107.205 691.096 105.062 690.638 103.111 691.134L102.093 691.817C102.239 691.642 102.385 691.468 102.478 691.298C102.371 691.307 102.322 691.365 102.215 691.375C102.561 691.021 102.961 690.662 103.366 690.357C104.311 689.465 105.378 688.724 106.571 688.187C106.513 688.138 106.459 688.143 106.45 688.036C106.431 687.822 106.635 687.696 106.786 687.575C106.937 687.454 107.079 687.226 106.958 687.075C106.476 687.117 105.995 687.16 105.513 687.202C105.816 686.96 106.166 686.659 106.469 686.417C104.576 686.961 102.678 687.452 100.785 687.996C100.099 688.165 99.3643 688.391 98.694 688.127C97.805 687.828 97.3503 686.952 96.8515 686.187C95.6558 684.244 94.0509 682.552 92.2069 681.205C91.9535 681.389 91.8166 681.671 91.7867 681.943C91.2234 681.669 90.6601 681.395 90.0969 681.122C90.1928 681.598 90.1865 682.138 90.0638 682.58C89.4564 682.418 88.7909 682.207 88.1835 682.045C88.7405 682.859 89.2927 683.619 89.7962 684.437C89.5822 684.456 89.3147 684.479 89.1007 684.498C89.568 686.128 90.5561 687.551 91.8856 688.566C92.6959 689.195 93.7879 689.961 93.5565 691.006C93.492 691.497 92.9853 691.865 92.4692 692.126Z" fill="#1D1D1D"/>
<path d="M550.317 569.366C549.027 570.019 547.539 570.258 546.071 570.118C545.633 570.049 545.147 570.038 544.903 570.329C544.757 570.504 544.732 570.829 544.697 571.048C544.607 571.865 544.187 572.603 543.534 573.145C545.344 572.878 546.903 571.608 548.712 571.341C549.724 571.198 550.706 571.327 551.741 571.451C556.967 572.015 562.279 571.115 567.045 568.915C565.053 568.336 562.91 567.878 560.959 568.374L559.941 569.057C560.087 568.882 560.233 568.707 560.326 568.537C560.219 568.547 560.17 568.605 560.063 568.615C560.41 568.26 560.809 567.902 561.214 567.597C562.159 566.704 563.226 565.963 564.419 565.427C564.361 565.378 564.307 565.383 564.298 565.276C564.279 565.062 564.484 564.936 564.635 564.815C564.786 564.694 564.927 564.465 564.806 564.314C564.325 564.357 563.843 564.399 563.362 564.442C563.664 564.2 564.015 563.899 564.317 563.657C562.424 564.201 560.526 564.692 558.633 565.236C557.947 565.405 557.212 565.631 556.542 565.367C555.653 565.068 555.199 564.191 554.7 563.427C553.504 561.483 551.899 559.792 550.055 558.445C549.802 558.629 549.665 558.911 549.635 559.183C549.072 558.909 548.508 558.635 547.945 558.361C548.041 558.838 548.035 559.378 547.912 559.82C547.305 559.658 546.639 559.447 546.032 559.285C546.589 560.098 547.141 560.858 547.644 561.677C547.43 561.695 547.163 561.719 546.949 561.738C547.416 563.368 548.404 564.791 549.734 565.805C550.544 566.435 551.636 567.201 551.405 568.246C551.34 568.737 550.834 569.105 550.317 569.366Z" fill="#1D1D1D"/>
<path d="M252.271 640.778C250.98 641.431 249.492 641.67 248.024 641.53C247.586 641.461 247.1 641.45 246.856 641.741C246.71 641.916 246.685 642.241 246.65 642.46C246.56 643.277 246.14 644.015 245.487 644.558C247.297 644.29 248.856 643.02 250.666 642.753C251.677 642.61 252.659 642.739 253.694 642.863C258.92 643.427 264.232 642.527 268.998 640.327C267.006 639.748 264.863 639.29 262.912 639.786L261.894 640.469C262.04 640.294 262.187 640.119 262.279 639.95C262.172 639.959 262.124 640.017 262.017 640.027C262.363 639.673 262.763 639.314 263.167 639.009C264.113 638.117 265.179 637.375 266.372 636.839C266.314 636.79 266.26 636.795 266.251 636.688C266.232 636.474 266.437 636.348 266.588 636.227C266.739 636.106 266.88 635.878 266.759 635.727C266.278 635.769 265.796 635.811 265.315 635.854C265.617 635.612 265.968 635.311 266.27 635.069C264.377 635.613 262.479 636.104 260.587 636.648C259.9 636.817 259.166 637.043 258.495 636.779C257.606 636.48 257.152 635.603 256.653 634.839C255.457 632.895 253.852 631.204 252.008 629.857C251.755 630.041 251.618 630.323 251.588 630.595C251.025 630.321 250.462 630.047 249.898 629.773C249.994 630.25 249.988 630.79 249.865 631.232C249.258 631.07 248.592 630.859 247.985 630.697C248.542 631.51 249.094 632.27 249.598 633.089C249.384 633.108 249.116 633.131 248.902 633.15C249.369 634.78 250.357 636.203 251.687 637.218C252.497 637.847 253.589 638.613 253.358 639.658C253.293 640.149 252.787 640.517 252.271 640.778Z" fill="#1D1D1D"/>
<path d="M478.375 591.131C477.995 591.11 477.621 591.143 477.3 591.171C476.502 591.296 475.714 591.527 474.902 591.491C474.197 591.445 473.522 591.127 472.861 590.97C471.146 590.474 469.371 590.523 467.596 590.572C466.147 590.645 464.747 590.661 463.298 590.735C462.17 590.781 460.988 590.831 460.13 591.5C460.645 591.832 461.155 592.11 461.669 592.442C461.129 592.436 460.541 592.488 460.001 592.481C460.506 592.707 461.007 592.878 461.512 593.103C457.902 593.745 454.346 594.382 450.737 595.024C451.265 595.516 451.936 595.781 452.694 595.822C452.45 596.113 452.206 596.404 451.962 596.695C452.546 596.589 453.076 596.489 453.665 596.437C453.551 596.986 453.331 597.545 453.048 598.001C457.617 598.461 462.284 595.138 466.627 596.695C468.687 597.43 470.189 599.185 471.322 601.026C472.455 602.867 473.334 604.892 474.516 606.675C474.763 607.03 475.122 607.43 475.559 607.499C475.614 606.901 475.611 606.255 475.666 605.657C476.155 606.314 476.694 606.914 477.236 607.567C477.542 607.971 477.798 608.434 478.103 608.838C478.311 607.526 478.417 606.277 478.517 604.974C478.769 605.383 479.079 605.841 479.331 606.25C479.391 605.706 479.397 605.166 479.457 604.622C479.568 604.666 479.627 604.714 479.743 604.812L479.295 599.73C479.136 599.151 479.026 598.513 478.867 597.934C478.689 597.141 478.551 596.183 478.917 595.45L478.535 591.116L478.375 591.131Z" fill="#1D1D1D"/>
<path d="M215.25 644.043C216.073 643.593 216.765 642.885 217.118 641.992C215.744 641.088 213.98 640.651 212.331 640.904C211.534 641.028 210.745 641.26 209.933 641.223C209.229 641.178 208.554 640.86 207.893 640.703C206.178 640.207 204.403 640.256 202.628 640.304C201.179 640.378 199.778 640.394 198.329 640.468C197.201 640.513 196.019 640.564 195.162 641.232C195.676 641.564 196.186 641.843 196.701 642.175C196.161 642.169 195.572 642.22 195.033 642.214C195.538 642.439 196.038 642.611 196.543 642.836C192.934 643.478 189.378 644.115 185.768 644.756C186.297 645.249 186.967 645.513 187.725 645.554C187.481 645.845 187.238 646.136 186.994 646.428C187.577 646.322 188.108 646.221 188.696 646.17C188.583 646.719 188.363 647.277 188.079 647.734C192.649 648.193 197.316 644.87 201.658 646.428C203.718 647.163 205.221 648.918 206.353 650.759C207.486 652.6 208.366 654.625 209.547 656.407C209.794 656.763 210.153 657.163 210.59 657.232C210.646 656.634 210.642 655.987 210.698 655.389C211.187 656.047 211.725 656.647 212.268 657.3C212.573 657.704 212.829 658.167 213.135 658.571C213.342 657.259 213.448 656.009 213.549 654.707C213.8 655.116 214.11 655.574 214.362 655.983C214.422 655.438 214.428 654.899 214.488 654.354C214.886 654.589 215.289 654.877 215.643 655.223C215.042 652.688 214.495 650.148 213.894 647.613C213.643 646.611 213.486 645.439 214.237 644.78C214.471 644.382 214.89 644.237 215.25 644.043Z" fill="#1D1D1D"/>
<path d="M-10 707C41.7495 717.209 65.9145 815.392 99.4263 838.634C132.938 861.877 146.616 863.397 164.854 886.422C183.092 909.665 208.169 886.422 230.51 892.287C252.851 898.152 263.566 934.211 274.28 942.899C284.995 951.588 303.233 942.899 321.471 951.588C339.708 960.277 379.147 992.208 379.147 992.208H-10V707Z" fill="#234961"/>
</g>
<defs>
<clipPath id="clip0">
<rect width="720" height="976" fill="white"/>
</clipPath>
</defs>
</svg>
