<svg width="720" height="976" viewBox="0 0 720 976" fill="none" xmlns="http://www.w3.org/2000/svg">
<g clip-path="url(#clip0)">
<rect width="720" height="976" fill="#FBFBFB"/>
<g clip-path="url(#clip1)">
<path d="M1272 0H-552V984H1272V0Z" fill="url(#paint0_linear)"/>
<path d="M93.9106 312.826C77.9753 307.536 59.5419 309.717 44.2972 316.331C42.0229 306.909 31.6581 299.85 20.5474 298.35C9.43729 296.849 -2.01685 300.208 -11.1921 305.773C-10.4167 289.453 -10.1114 271.73 -21.3838 258.546C-33.2293 244.691 -55.0067 239.701 -75.0698 240.014C-105.223 240.484 -134.49 250.847 -158.499 266.457C-182.509 282.067 -201.561 302.707 -216.987 324.873C-225.797 320.222 -237.099 319.198 -246.852 322.167C-256.605 325.137 -264.608 332.039 -268 340.406L121.844 346.33C122.325 331.715 109.846 318.116 93.9106 312.826Z" fill="url(#paint1_linear)"/>
<path d="M709.708 332.514C700.696 331.308 691.564 335.191 685.251 340.823C682.599 330.339 678.227 320.175 672.305 310.721C669.78 306.691 666.857 302.679 662.516 300.01C654.529 295.101 643.628 295.787 634.053 297.712C609.434 302.661 586.801 314.574 570.539 331.142C563.779 321.523 548.498 318.333 535.748 320.981C522.998 323.629 512.297 330.876 502.5 338.342C497.183 333.774 489.13 331.669 481.735 332.915C474.34 334.16 467.822 338.72 464.926 344.671L725.148 348.89C726.656 341.194 718.721 333.721 709.708 332.514Z" fill="url(#paint2_linear)"/>
<path d="M300.959 441.656C294.738 442.453 289.266 446.01 282.991 446.388C282.796 434.32 281.726 420.618 270.806 412.976C259.46 405.036 242.536 407.39 229.005 412.215C211.021 418.627 194.831 428.684 182.138 441.326C180.034 434.735 172.143 429.862 164.167 430.23C156.191 430.598 148.957 445.059 147.695 451.806L312.829 454.637C315.692 449.846 307.18 440.86 300.959 441.656Z" fill="url(#paint3_linear)"/>
<path d="M97.6563 224.006C96.8689 223.332 96.0809 222.659 95.2935 221.985C94.5923 221.386 93.5037 222.316 94.2055 222.916C94.9929 223.59 95.7809 224.263 96.5683 224.937C97.269 225.537 98.3575 224.606 97.6563 224.006Z" fill="white"/>
<path d="M78.9796 357.857C78.9796 357.183 78.9796 356.509 78.9796 355.836C78.9796 354.989 77.4407 354.988 77.4407 355.836C77.4407 356.509 77.4407 357.183 77.4407 357.857C77.4407 358.704 78.9796 358.705 78.9796 357.857Z" fill="white"/>
<path d="M94.7494 109.933C95.7405 109.933 95.742 108.618 94.7494 108.618C93.7583 108.618 93.7568 109.933 94.7494 109.933Z" fill="white"/>
<path d="M215.247 166.52C216.238 166.52 216.24 165.205 215.247 165.205C214.257 165.205 214.255 166.52 215.247 166.52Z" fill="white"/>
<path d="M186.895 299.906C187.886 299.906 187.888 298.59 186.895 298.59C185.904 298.59 185.903 299.906 186.895 299.906Z" fill="white"/>
<path d="M142.39 480.565C142.39 479.78 142.39 478.996 142.39 478.211C142.39 477.364 140.851 477.363 140.851 478.211C140.851 478.996 140.851 479.78 140.851 480.565C140.851 481.412 142.39 481.413 142.39 480.565Z" fill="white"/>
<path d="M26.0428 605.976C27.0338 605.976 27.0354 604.661 26.0428 604.661C25.0523 604.661 25.0507 605.976 26.0428 605.976Z" fill="white"/>
<path d="M297.303 376.004C298.294 376.004 298.296 374.688 297.303 374.688C296.312 374.688 296.31 376.004 297.303 376.004Z" fill="white"/>
<path d="M556.11 187.918C557.101 187.918 557.102 186.602 556.11 186.602C555.12 186.602 555.118 187.918 556.11 187.918Z" fill="white"/>
<path d="M614.488 454.234C615.479 454.234 615.48 452.918 614.488 452.918C613.497 452.918 613.495 454.234 614.488 454.234Z" fill="white"/>
<path d="M361.518 139.648C362.509 139.648 362.511 138.332 361.518 138.332C360.527 138.332 360.526 139.648 361.518 139.648Z" fill="white"/>
<path d="M411.361 307.699C410.712 307.144 410.064 306.589 409.415 306.034C408.714 305.434 407.626 306.365 408.327 306.965C408.976 307.519 409.625 308.074 410.273 308.629C410.974 309.229 412.063 308.298 411.361 307.699Z" fill="white"/>
<path d="M434.324 438.675C434.324 437.514 434.324 436.353 434.324 435.193C434.324 434.346 432.785 434.344 432.785 435.193C432.785 436.353 432.785 437.514 432.785 438.675C432.785 439.522 434.324 439.523 434.324 438.675Z" fill="white"/>
<path d="M307.354 606.477C308.345 606.477 308.347 605.162 307.354 605.162C306.363 605.162 306.362 606.477 307.354 606.477Z" fill="white"/>
<path d="M-140.806 769.48V686.423L-1.55135 626.987L59.6365 660.085L204.166 575.652L408.829 761.033L-140.806 769.48Z" fill="#2578AC"/>
<path d="M-1.55143 626.987L14.6028 665.615L-6.77959 685.506L30.9708 742.325L-124.472 749.901L-1.55143 626.987Z" fill="#251258"/>
<path d="M204.166 575.652L234.885 615.772L212.9 638.055L259.993 665.382L247.686 679.104L316.707 740.802L37.282 729.287L204.166 575.652Z" fill="#0E4262"/>
<path d="M204.166 575.652L-1.55127 695.496L10.2158 707.261L-38.885 729.129L41.4427 749.901L181.722 739.965L141.295 695.496L163.947 686.482L147.474 644.862L202.221 609.576L204.166 575.652Z" fill="#062436"/>
<path d="M171 743.893L367.038 579.517L558.415 796.224L171 743.893Z" fill="#2578AC"/>
<path d="M367.038 579.517L373.436 628.981L345.707 643.849L376.42 669.612L361.883 713.686L385.404 747.486L190.003 727.959L367.038 579.517Z" fill="#062436"/>
<path d="M871 602.414L826.399 533.917L592.657 808.984L871 842.979V602.414Z" fill="#0E4262"/>
<path d="M826.399 533.917L805.499 600.931L779.461 611.879L758.286 653.564L770.277 677.985L710.794 690.896L629.266 765.902L826.399 533.917Z" fill="#2578AC"/>
<path d="M295.324 799.744L570.896 487L756.459 863.763L295.324 799.744Z" fill="url(#paint4_linear)"/>
<path d="M570.896 487L599.581 588.157L592.401 610.402L624.835 637.116L581.965 675.381L638.787 811.277L347.826 740.159L570.896 487Z" fill="#0E4262"/>
<path d="M570.896 487L565.771 596.349L473.701 659.895L499.36 693.775L458.607 785.357L295.324 799.744L570.896 487Z" fill="#062436"/>
<path d="M541.227 795.535L705.745 585.422L856.914 837.379L541.227 795.535Z" fill="#062436"/>
<path d="M705.745 585.422L541.227 795.535L665.333 811.985L661.164 757.906L642.45 734.915L693.201 697.537L689.629 651.702L708.443 636.178L705.745 585.422Z" fill="#0E4262"/>
<path d="M705.745 585.422L722.928 632.276L744.597 657.657L738.64 666.485L856.914 837.379L705.745 585.422Z" fill="#2578AC"/>
<path d="M472.65 769.594L472.762 776.708H474.693V769.594H472.65Z" fill="#080B4A"/>
<path d="M475.345 769.594H474.693V776.708H475.345V769.594Z" fill="#80CEFF"/>
<path d="M477.471 754.278L478.179 754.847L479.751 754.337L482.018 753.601L481.248 750.595L480.161 749.977L480.41 751.053L477.471 754.278Z" fill="#80CEFF"/>
<path d="M482.453 760.334H484.328L482.018 755.886L480.123 755.438L478.41 755.034L481.557 757.569L482.453 760.334Z" fill="#80CEFF"/>
<path d="M480.093 744.943L477.399 736.285L476.024 735.549L478.886 744.943H480.093Z" fill="#80CEFF"/>
<path d="M485.439 765.475C484.912 764.787 484.418 764.086 483.957 763.374L482.897 762.512L483.135 764.824L485.07 768.317L483.539 769.593H486.638L485.439 765.475Z" fill="#80CEFF"/>
<path d="M473.87 731.355H474.973H476.372L473.708 722.183L475.345 729.489L473.87 731.355Z" fill="#80CEFF"/>
<path d="M475.809 734.842H477.399L476.372 732.437L475.2 731.931L473.87 731.355L476.037 733.25L475.809 734.842Z" fill="#80CEFF"/>
<path d="M479.859 748.674L481.248 748.911L480.093 746.025L479.112 745.684L479.335 746.418L479.859 748.674Z" fill="#80CEFF"/>
<path d="M472.64 724.724L471.945 727.868L472.925 728.235L473.421 721.195L472.64 724.724Z" fill="#170B36"/>
<path d="M483.135 764.825L482.897 762.512L480.222 760.334H482.207H482.454L481.557 757.569L478.41 755.034L477.944 754.923L478.179 754.847L477.471 754.278L480.411 751.053L480.161 749.977L478.279 748.908L477.014 748.19L478.161 748.385L479.859 748.674L479.335 746.418L479.112 745.684L477.508 745.126L476.981 744.943H477.473H478.886L476.024 735.549L475.915 735.491L474.704 734.842H475.809L476.037 733.251L473.87 731.355L475.345 729.489L473.708 722.183L473.421 721.195L472.925 728.235L473.511 728.455L473.87 728.589H473.572H472.9L472.65 732.132L475.04 740.246L471.846 741.813L474.704 748.911L471.422 758.635L476.024 763.634L473.335 769.594H477.624H483.539L485.071 768.318L483.135 764.825Z" fill="#2B6589"/>
<path d="M471.422 758.635L474.704 748.911L471.845 741.813L475.04 740.246L472.65 732.132L472.9 728.589H471.752L471.46 729.914L470.084 736.165L472.522 737.007L469.571 737.608L467.774 743.26L471.752 744.462L467.389 745.544L466.234 750.354L469.442 751.316L465.208 753.601L463.026 762.018L470.084 763.461L462.128 764.784L461.358 769.594H473.335L476.024 763.634L471.422 758.635Z" fill="#17364A"/>
<path opacity="0.66" d="M475.741 779.854L470.408 778.245L474.614 776.79L473.75 776.517L473.456 776.424L469.091 777.847L467.963 777.507L464.974 776.605L463.372 776.121L460.908 777.185C460.659 777.423 460.379 777.661 460.067 777.899L459.968 778.272L459.711 779.235L458.569 778.914L458.427 778.874L457.336 778.567L454.773 780.108L455.53 780.546L456.214 780.942L456.4 781.05L456.187 781.033L454.747 780.919L452.616 780.75L450.121 781.778L450.212 782.157L450.372 782.82L450.482 783.27L449.908 783.01L449.056 782.625L448.356 782.309L445.992 783.473L446.309 783.762L446.827 784.237L446.998 784.393L446.646 784.308L445.628 784.063L444.751 783.852L435.788 787.783L435.908 788.362L435.918 788.409L436.024 788.925L435.083 788.727L433.715 788.44L430.998 789.785L431.271 790.252L431.583 790.785L430.579 790.587L429.295 790.333L415.385 796.264L413.65 797.004L421.504 794.788L427.757 793.024L427.431 792.64L428.047 792.445L429.136 792.65L431.53 791.974L441.623 789.123L440.767 788.326L443.857 788.568L451.642 786.563L450.159 785.455L454.246 785.778L459.488 784.317L458.375 783.503L462.848 783.458L470.244 781.435L467.604 780.033L472.488 780.872L475.741 779.854Z" fill="#170B36"/>
<path d="M446.164 770.678L446.241 775.562H447.567V770.678H446.164Z" fill="#080B4A"/>
<path d="M448.014 770.678H447.567V775.562H448.014V770.678Z" fill="#80CEFF"/>
<path d="M449.474 760.162L449.96 760.554L451.039 760.203L452.596 759.697L452.067 757.634L451.32 757.21L451.492 757.948L449.474 760.162Z" fill="#80CEFF"/>
<path d="M452.895 764.321H454.182L452.596 761.266L451.295 760.959L450.118 760.681L452.28 762.422L452.895 764.321Z" fill="#80CEFF"/>
<path d="M451.274 753.753L449.424 747.809L448.481 747.304L450.445 753.753H451.274Z" fill="#80CEFF"/>
<path d="M454.944 767.85C454.582 767.378 454.243 766.897 453.927 766.408L453.2 765.816L453.362 767.404L454.692 769.802L453.64 770.677H455.768L454.944 767.85Z" fill="#80CEFF"/>
<path d="M447.001 744.424H447.759H448.719L446.89 738.127L448.014 743.143L447.001 744.424Z" fill="#80CEFF"/>
<path d="M448.332 746.819H449.423L448.718 745.167L447.913 744.819L447 744.424L448.488 745.726L448.332 746.819Z" fill="#80CEFF"/>
<path d="M451.113 756.315L452.067 756.478L451.274 754.496L450.6 754.262L450.753 754.766L451.113 756.315Z" fill="#80CEFF"/>
<path d="M446.158 739.871L445.68 742.03L446.353 742.282L446.693 737.448L446.158 739.871Z" fill="#17364A"/>
<path d="M453.363 767.403L453.2 765.816L451.362 764.321H452.726H452.895L452.28 762.422L450.118 760.681L449.798 760.606L449.96 760.554L449.474 760.162L451.492 757.948L451.321 757.209L450.029 756.475L449.16 755.983L449.948 756.117L451.113 756.315L450.754 754.766L450.6 754.262L449.499 753.879L449.137 753.753H449.475H450.445L448.481 747.304L448.406 747.264L447.574 746.819H448.333L448.49 745.726L447.001 744.424L448.014 743.143L446.89 738.127L446.693 737.448L446.353 742.282L446.755 742.433L447.001 742.525H446.797H446.336L446.164 744.958L447.805 750.529L445.611 751.604L447.574 756.478L445.321 763.154L448.481 766.586L446.634 770.678H449.579H453.64L454.692 769.802L453.363 767.403Z" fill="#2B6589"/>
<path d="M445.321 763.154L447.574 756.478L445.611 751.604L447.805 750.529L446.164 744.958L446.336 742.526H445.548L445.347 743.435L444.402 747.727L446.076 748.305L444.05 748.718L442.816 752.598L445.548 753.423L442.552 754.166L441.759 757.469L443.962 758.129L441.054 759.698L439.557 765.477L444.402 766.467L438.94 767.376L438.411 770.678H446.634L448.481 766.586L445.321 763.154Z" fill="#17364A"/>
<path opacity="0.66" d="M448.286 777.722L444.625 776.618L447.512 775.619L446.919 775.431L446.717 775.367L443.721 776.345L442.946 776.111L440.894 775.492L439.794 775.16L438.103 775.89C437.932 776.054 437.74 776.217 437.526 776.381L437.457 776.637L437.281 777.298L436.497 777.077L436.399 777.05L435.65 776.839L433.89 777.896L434.41 778.197L434.879 778.469L435.007 778.543L434.861 778.531L433.872 778.453L432.409 778.337L430.695 779.043L430.758 779.303L430.868 779.758L430.943 780.067L430.549 779.888L429.964 779.624L429.483 779.406L427.86 780.206L428.078 780.405L428.434 780.731L428.551 780.838L428.31 780.78L427.611 780.611L427.009 780.466L420.855 783.164L420.937 783.563L420.944 783.594L421.017 783.949L420.371 783.813L419.431 783.616L417.566 784.539L417.754 784.86L417.968 785.226L417.279 785.09L416.397 784.915L406.847 788.987L405.656 789.495L411.048 787.974L415.342 786.763L415.118 786.499L415.54 786.365L416.288 786.505L417.931 786.041L424.861 784.084L424.274 783.537L426.395 783.703L431.74 782.326L430.722 781.566L433.528 781.787L437.127 780.784L436.362 780.225L439.433 780.194L444.511 778.806L442.698 777.843L446.052 778.419L448.286 777.722Z" fill="#170B36"/>
<path d="M546.827 762.181L546.921 768.187H548.551V762.181H546.827Z" fill="#080B4A"/>
<path d="M549.102 762.181H548.551V768.186H549.102V762.181Z" fill="#80CEFF"/>
<path d="M550.896 749.252L551.494 749.733L552.821 749.302L554.735 748.681L554.085 746.143L553.167 745.622L553.378 746.53L550.896 749.252Z" fill="#80CEFF"/>
<path d="M555.102 754.365H556.684L554.735 750.609L553.135 750.232L551.689 749.891L554.346 752.031L555.102 754.365Z" fill="#80CEFF"/>
<path d="M553.11 741.372L550.835 734.064L549.675 733.443L552.091 741.372H553.11Z" fill="#80CEFF"/>
<path d="M557.622 758.704C557.177 758.123 556.76 757.532 556.371 756.931L555.477 756.203L555.677 758.155L557.311 761.104L556.018 762.181H558.634L557.622 758.704Z" fill="#80CEFF"/>
<path d="M547.856 729.902H548.788H549.968L547.72 722.16L549.102 728.327L547.856 729.902Z" fill="#80CEFF"/>
<path d="M549.493 732.846H550.835L549.968 730.816L548.979 730.388L547.856 729.902L549.686 731.503L549.493 732.846Z" fill="#80CEFF"/>
<path d="M552.912 744.522L554.085 744.722L553.11 742.286L552.281 741.998L552.47 742.617L552.912 744.522Z" fill="#80CEFF"/>
<path d="M546.819 724.304L546.232 726.959L547.059 727.269L547.478 721.325L546.819 724.304Z" fill="#17364A"/>
<path d="M555.678 758.155L555.477 756.203L553.218 754.365H554.895H555.102L554.346 752.031L551.689 749.89L551.296 749.798L551.494 749.733L550.896 749.252L553.378 746.53L553.167 745.622L551.578 744.719L550.51 744.113L551.479 744.278L552.912 744.522L552.47 742.617L552.281 741.998L550.927 741.527L550.483 741.372H550.898H552.091L549.675 733.443L549.583 733.393L548.56 732.846H549.493L549.686 731.503L547.856 729.902L549.102 728.327L547.72 722.159L547.478 721.325L547.059 727.269L547.554 727.454L547.856 727.568H547.605H547.038L546.827 730.559L548.844 737.408L546.147 738.73L548.56 744.722L545.79 752.93L549.675 757.15L547.405 762.181H551.025H556.019L557.311 761.104L555.678 758.155Z" fill="#2B6589"/>
<path d="M545.79 752.93L548.56 744.722L546.147 738.73L548.844 737.408L546.827 730.559L547.038 727.568H546.069L545.823 728.686L544.661 733.963L546.719 734.673L544.228 735.181L542.711 739.951L546.069 740.966L542.386 741.88L541.411 745.94L544.119 746.752L540.545 748.681L538.703 755.786L544.661 757.004L537.944 758.121L537.295 762.181H547.405L549.675 757.15L545.79 752.93Z" fill="#17364A"/>
<path opacity="0.66" d="M549.436 770.842L544.935 769.484L548.485 768.255L547.755 768.025L547.507 767.947L543.822 769.148L542.87 768.861L540.347 768.099L538.995 767.691L536.915 768.589C536.705 768.79 536.468 768.99 536.205 769.192L536.121 769.507L535.905 770.319L534.941 770.048L534.821 770.014L533.899 769.755L531.736 771.055L532.375 771.425L532.952 771.759L533.109 771.85L532.93 771.836L531.714 771.739L529.915 771.597L527.809 772.465L527.886 772.785L528.021 773.345L528.113 773.725L527.629 773.505L526.91 773.18L526.319 772.913L524.324 773.895L524.591 774.14L525.029 774.541L525.173 774.672L524.876 774.601L524.017 774.394L523.277 774.215L515.712 777.534L515.812 778.023L515.82 778.062L515.91 778.498L515.115 778.331L513.96 778.088L511.667 779.223L511.898 779.618L512.161 780.069L511.314 779.901L510.229 779.686L498.488 784.693L497.024 785.317L503.653 783.447L508.932 781.958L508.656 781.634L509.176 781.47L510.095 781.642L512.116 781.072L520.636 778.665L519.913 777.992L522.522 778.197L529.093 776.504L527.841 775.569L531.291 775.842L535.717 774.608L534.776 773.921L538.552 773.883L544.795 772.176L542.566 770.992L546.69 771.7L549.436 770.842Z" fill="#170B36"/>
<path d="M492.658 773.971L492.839 785.443H495.952V773.971H492.658Z" fill="#080B4A"/>
<path d="M497.004 773.971H495.952V785.443H497.004V773.971Z" fill="#80CEFF"/>
<path d="M500.432 749.275L501.572 750.194L504.107 749.371L507.764 748.184L506.522 743.337L504.768 742.341L505.171 744.076L500.432 749.275Z" fill="#80CEFF"/>
<path d="M508.465 759.041H511.488L507.764 751.868L504.707 751.146L501.945 750.494L507.02 754.583L508.465 759.041Z" fill="#80CEFF"/>
<path d="M504.66 734.224L500.314 720.264L498.099 719.077L502.713 734.224H504.66Z" fill="#80CEFF"/>
<path d="M513.279 767.329C512.429 766.22 511.633 765.091 510.89 763.943L509.181 762.553L509.564 766.281L512.685 771.914L510.216 773.971H515.212L513.279 767.329Z" fill="#80CEFF"/>
<path d="M494.624 712.314H496.403H498.659L494.364 697.524L497.004 709.305L494.624 712.314Z" fill="#80CEFF"/>
<path d="M497.75 717.937H500.314L498.658 714.059L496.769 713.242L494.623 712.314L498.119 715.371L497.75 717.937Z" fill="#80CEFF"/>
<path d="M504.281 740.241L506.522 740.622L504.66 735.969L503.077 735.418L503.437 736.601L504.281 740.241Z" fill="#80CEFF"/>
<path d="M492.643 701.622L491.521 706.692L493.101 707.284L493.901 695.931L492.643 701.622Z" fill="#17364A"/>
<path d="M509.564 766.281L509.181 762.553L504.867 759.041H508.068H508.465L507.02 754.583L501.945 750.494L501.194 750.316L501.572 750.194L500.431 749.275L505.171 744.076L504.768 742.341L501.734 740.617L499.694 739.459L501.545 739.774L504.281 740.241L503.437 736.601L503.077 735.418L500.49 734.518L499.642 734.224H500.434H502.713L498.098 719.077L497.923 718.983L495.969 717.937H497.751L498.12 715.371L494.624 712.314L497.004 709.305L494.364 697.524L493.901 695.931L493.101 707.284L494.047 707.638L494.624 707.855H494.145H493.061L492.658 713.568L496.511 726.651L491.36 729.177L495.969 740.622L490.677 756.301L498.098 764.362L493.762 773.971H500.678H510.216L512.685 771.914L509.564 766.281Z" fill="#2B6589"/>
<path d="M490.677 756.301L495.969 740.622L491.36 729.177L496.511 726.651L492.658 713.568L493.061 707.855H491.21L490.74 709.991L488.521 720.07L492.452 721.427L487.693 722.396L484.796 731.509L491.21 733.448L484.175 735.193L482.313 742.949L487.486 744.5L480.658 748.184L477.141 761.756L488.521 764.083L475.692 766.215L474.45 773.971H493.762L498.099 764.362L490.677 756.301Z" fill="#17364A"/>
<path opacity="0.66" d="M497.641 790.515L489.044 787.92L495.825 785.574L494.431 785.134L493.957 784.984L486.92 787.28L485.101 786.731L480.282 785.277L477.698 784.497L473.726 786.212C473.325 786.596 472.872 786.98 472.37 787.364L472.21 787.966L471.797 789.518L469.955 789L469.726 788.935L467.966 788.441L463.833 790.924L465.055 791.632L466.157 792.27L466.457 792.444L466.114 792.417L463.791 792.232L460.355 791.959L456.332 793.618L456.479 794.229L456.737 795.298L456.913 796.024L455.988 795.605L454.614 794.984L453.486 794.474L449.674 796.35L450.185 796.818L451.022 797.584L451.297 797.836L450.73 797.699L449.089 797.303L447.674 796.962L433.223 803.3L433.416 804.235L433.431 804.31L433.603 805.143L432.086 804.824L429.88 804.361L425.499 806.529L425.94 807.282L426.442 808.142L424.824 807.822L422.753 807.412L400.325 816.976L397.528 818.169L410.191 814.596L420.275 811.752L419.749 811.132L420.742 810.818L422.498 811.149L426.358 810.059L442.632 805.462L441.252 804.176L446.235 804.566L458.787 801.333L456.395 799.548L462.985 800.068L471.438 797.711L469.642 796.399L476.854 796.327L488.78 793.065L484.523 790.804L492.399 792.156L497.641 790.515Z" fill="#170B36"/>
<path d="M582.873 857.193C270.178 656.975 -24.591 691.722 -212.416 790.692L-209.715 857.193H582.873Z" fill="url(#paint5_linear)"/>
<path d="M279.244 743.759L279.312 748.101H280.49V743.759H279.244Z" fill="#132E40"/>
<path d="M280.888 743.759H280.49V748.101H280.888V743.759Z" fill="#80CEFF"/>
<path d="M282.186 734.411L282.617 734.759L283.577 734.447L284.961 733.998L284.491 732.163L283.827 731.786L283.98 732.443L282.186 734.411Z" fill="#80CEFF"/>
<path d="M285.227 738.108H286.371L284.961 735.392L283.804 735.119L282.759 734.872L284.68 736.42L285.227 738.108Z" fill="#80CEFF"/>
<path d="M283.786 728.714L282.142 723.43L281.303 722.98L283.049 728.714H283.786Z" fill="#80CEFF"/>
<path d="M287.049 741.245C286.727 740.826 286.426 740.398 286.144 739.963L285.498 739.437L285.643 740.849L286.825 742.981L285.89 743.759H287.781L287.049 741.245Z" fill="#80CEFF"/>
<path d="M279.987 720.421H280.661H281.515L279.889 714.822L280.888 719.281L279.987 720.421Z" fill="#80CEFF"/>
<path d="M281.17 722.549H282.141L281.514 721.081L280.799 720.772L279.987 720.421L281.31 721.577L281.17 722.549Z" fill="#80CEFF"/>
<path d="M283.643 730.991L284.491 731.136L283.786 729.374L283.187 729.166L283.323 729.614L283.643 730.991Z" fill="#80CEFF"/>
<path d="M279.238 716.373L278.813 718.292L279.411 718.516L279.714 714.219L279.238 716.373Z" fill="#17364A"/>
<path d="M285.643 740.848L285.498 739.437L283.865 738.108H285.077H285.227L284.68 736.42L282.759 734.872L282.474 734.805L282.617 734.759L282.186 734.411L283.98 732.443L283.827 731.786L282.679 731.134L281.906 730.695L282.607 730.815L283.643 730.991L283.323 729.614L283.187 729.166L282.208 728.825L281.887 728.714H282.187H283.049L281.303 722.98L281.236 722.945L280.497 722.549H281.171L281.311 721.577L279.987 720.42L280.888 719.281L279.889 714.822L279.714 714.219L279.411 718.516L279.769 718.65L279.987 718.732H279.806H279.396L279.244 720.895L280.702 725.847L278.752 726.803L280.497 731.136L278.494 737.071L281.303 740.122L279.661 743.759H282.279H285.889L286.824 742.98L285.643 740.848Z" fill="#2B6589"/>
<path d="M278.494 737.071L280.497 731.136L278.752 726.804L280.702 725.847L279.244 720.895L279.396 718.732H278.696L278.517 719.541L277.677 723.356L279.165 723.87L277.364 724.237L276.267 727.686L278.696 728.42L276.032 729.081L275.327 732.017L277.286 732.603L274.701 733.998L273.37 739.135L277.677 740.016L272.821 740.823L272.351 743.759H279.661L281.303 740.122L278.494 737.071Z" fill="#17364A"/>
<path opacity="0.66" d="M281.129 750.021L277.875 749.039L280.442 748.152L279.914 747.985L279.735 747.928L277.071 748.797L276.382 748.589L274.558 748.039L273.58 747.744L272.077 748.393C271.925 748.538 271.754 748.683 271.564 748.829L271.503 749.057L271.347 749.644L270.649 749.448L270.563 749.423L269.896 749.236L268.332 750.176L268.794 750.444L269.211 750.685L269.325 750.751L269.195 750.741L268.316 750.671L267.016 750.568L265.492 751.195L265.549 751.427L265.646 751.832L265.713 752.107L265.362 751.948L264.843 751.713L264.416 751.52L262.973 752.23L263.166 752.407L263.483 752.697L263.587 752.792L263.372 752.74L262.751 752.59L262.216 752.461L256.746 754.86L256.819 755.214L256.825 755.243L256.89 755.557L256.315 755.437L255.48 755.262L253.822 756.082L253.989 756.367L254.179 756.693L253.567 756.572L252.783 756.416L244.293 760.037L243.235 760.488L248.028 759.136L251.845 758.059L251.646 757.824L252.022 757.705L252.686 757.83L254.148 757.418L260.308 755.678L259.785 755.191L261.671 755.339L266.422 754.115L265.517 753.439L268.011 753.636L271.21 752.744L270.531 752.247L273.261 752.22L277.775 750.986L276.163 750.13L279.144 750.642L281.129 750.021Z" fill="#041A27"/>
<path d="M263.078 744.421L263.125 747.402H263.934V744.421H263.078Z" fill="#132E40"/>
<path d="M264.207 744.421H263.934V747.402H264.207V744.421Z" fill="#80CEFF"/>
<path d="M265.098 738.003L265.395 738.242L266.053 738.028L267.003 737.719L266.681 736.459L266.225 736.201L266.329 736.652L265.098 738.003Z" fill="#80CEFF"/>
<path d="M267.186 740.541H267.971L267.003 738.676L266.209 738.489L265.491 738.32L266.811 739.382L267.186 740.541Z" fill="#80CEFF"/>
<path d="M266.197 734.091L265.068 730.463L264.492 730.155L265.691 734.091H266.197Z" fill="#80CEFF"/>
<path d="M268.437 742.695C268.216 742.407 268.009 742.113 267.816 741.815L267.372 741.454L267.471 742.423L268.283 743.887L267.641 744.421H268.94L268.437 742.695Z" fill="#80CEFF"/>
<path d="M263.589 728.397H264.051H264.637L263.521 724.553L264.207 727.615L263.589 728.397Z" fill="#80CEFF"/>
<path d="M264.4 729.858H265.066L264.636 728.851L264.145 728.638L263.588 728.397L264.496 729.191L264.4 729.858Z" fill="#80CEFF"/>
<path d="M266.099 735.655L266.682 735.755L266.197 734.545L265.785 734.402L265.879 734.709L266.099 735.655Z" fill="#80CEFF"/>
<path d="M263.074 725.618L262.782 726.936L263.193 727.09L263.401 724.14L263.074 725.618Z" fill="#17364A"/>
<path d="M267.472 742.422L267.372 741.453L266.251 740.541H267.083H267.186L266.811 739.382L265.492 738.32L265.296 738.274L265.395 738.242L265.098 738.003L266.33 736.652L266.225 736.201L265.436 735.753L264.906 735.452L265.387 735.533L266.099 735.655L265.879 734.709L265.785 734.402L265.113 734.168L264.893 734.091H265.099H265.691L264.492 730.155L264.446 730.13L263.939 729.859H264.401L264.497 729.191L263.589 728.397L264.207 727.615L263.521 724.553L263.401 724.14L263.193 727.09L263.439 727.182L263.589 727.238H263.464H263.182L263.078 728.723L264.08 732.123L262.741 732.779L263.939 735.754L262.563 739.829L264.492 741.924L263.365 744.421H265.162H267.641L268.283 743.886L267.472 742.422Z" fill="#2B6589"/>
<path d="M262.563 739.829L263.938 735.754L262.74 732.779L264.079 732.123L263.078 728.723L263.182 727.238H262.702L262.579 727.793L262.002 730.413L263.024 730.765L261.788 731.017L261.034 733.386L262.702 733.89L260.873 734.343L260.389 736.359L261.733 736.762L259.959 737.719L259.045 741.246L262.002 741.851L258.669 742.405L258.346 744.421H263.364L264.491 741.924L262.563 739.829Z" fill="#17364A"/>
<path opacity="0.66" d="M264.373 748.72L262.138 748.046L263.901 747.437L263.538 747.322L263.415 747.283L261.586 747.88L261.113 747.737L259.861 747.359L259.19 747.156L258.157 747.602C258.053 747.702 257.935 747.801 257.805 747.901L257.763 748.058L257.655 748.461L257.177 748.326L257.117 748.309L256.66 748.181L255.586 748.826L255.903 749.01L256.19 749.176L256.268 749.221L256.179 749.214L255.575 749.166L254.682 749.095L253.637 749.526L253.675 749.685L253.742 749.963L253.788 750.152L253.547 750.043L253.19 749.882L252.897 749.749L251.906 750.237L252.039 750.359L252.256 750.558L252.328 750.623L252.181 750.587L251.754 750.485L251.387 750.396L247.631 752.043L247.681 752.286L247.685 752.306L247.73 752.522L247.336 752.44L246.762 752.319L245.624 752.883L245.739 753.078L245.869 753.302L245.449 753.219L244.91 753.112L239.082 755.598L238.355 755.908L241.646 754.98L244.266 754.24L244.129 754.08L244.387 753.998L244.843 754.084L245.846 753.8L250.075 752.606L249.717 752.272L251.012 752.374L254.274 751.533L253.653 751.069L255.366 751.204L257.562 750.592L257.095 750.251L258.97 750.232L262.069 749.385L260.962 748.797L263.01 749.148L264.373 748.72Z" fill="#041A27"/>
<path d="M324.517 739.235L324.574 742.9H325.569V739.235H324.517Z" fill="#132E40"/>
<path d="M325.906 739.235H325.569V742.9H325.906V739.235Z" fill="#80CEFF"/>
<path d="M327.001 731.344L327.365 731.637L328.175 731.375L329.343 730.995L328.946 729.447L328.386 729.128L328.515 729.683L327.001 731.344Z" fill="#80CEFF"/>
<path d="M329.568 734.465H330.533L329.343 732.172L328.366 731.942L327.484 731.733L329.106 733.04L329.568 734.465Z" fill="#80CEFF"/>
<path d="M328.352 726.534L326.963 722.074L326.255 721.695L327.73 726.534H328.352Z" fill="#80CEFF"/>
<path d="M331.106 737.113C330.834 736.758 330.58 736.398 330.342 736.031L329.796 735.586L329.919 736.778L330.916 738.577L330.127 739.235H331.724L331.106 737.113Z" fill="#80CEFF"/>
<path d="M325.145 719.534H325.713H326.434L325.062 714.808L325.906 718.572L325.145 719.534Z" fill="#80CEFF"/>
<path d="M326.143 721.331H326.962L326.433 720.091L325.829 719.83L325.144 719.534L326.261 720.51L326.143 721.331Z" fill="#80CEFF"/>
<path d="M328.23 728.457L328.946 728.579L328.352 727.092L327.846 726.916L327.961 727.294L328.23 728.457Z" fill="#80CEFF"/>
<path d="M324.512 716.117L324.153 717.737L324.658 717.926L324.914 714.299L324.512 716.117Z" fill="#17364A"/>
<path d="M329.918 736.778L329.796 735.586L328.417 734.464H329.441H329.567L329.106 733.04L327.484 731.733L327.244 731.677L327.365 731.638L327.001 731.344L328.515 729.683L328.386 729.128L327.417 728.577L326.765 728.207L327.356 728.308L328.23 728.457L327.961 727.294L327.846 726.916L327.019 726.629L326.748 726.535H327.001H327.729L326.255 721.695L326.199 721.665L325.575 721.331H326.144L326.262 720.51L325.145 719.534L325.905 718.572L325.062 714.808L324.914 714.299L324.658 717.926L324.96 718.04L325.145 718.109H324.992H324.645L324.517 719.934L325.748 724.114L324.102 724.922L325.575 728.579L323.884 733.589L326.255 736.164L324.869 739.235H327.079H330.127L330.916 738.577L329.918 736.778Z" fill="#2B6589"/>
<path d="M323.884 733.589L325.575 728.579L324.102 724.922L325.748 724.114L324.517 719.934L324.645 718.109H324.054L323.904 718.791L323.195 722.012L324.451 722.446L322.93 722.755L322.004 725.667L324.054 726.287L321.806 726.844L321.211 729.322L322.864 729.818L320.682 730.995L319.558 735.332L323.195 736.075L319.096 736.757L318.699 739.235H324.869L326.255 736.164L323.884 733.589Z" fill="#17364A"/>
<path opacity="0.66" d="M326.109 744.521L323.362 743.692L325.529 742.942L325.083 742.801L324.932 742.754L322.683 743.487L322.102 743.312L320.562 742.847L319.736 742.598L318.467 743.146C318.339 743.269 318.194 743.391 318.034 743.514L317.983 743.706L317.851 744.203L317.262 744.037L317.189 744.017L316.626 743.859L315.306 744.652L315.697 744.878L316.049 745.082L316.144 745.137L316.035 745.129L315.292 745.07L314.195 744.982L312.909 745.512L312.956 745.707L313.039 746.049L313.095 746.281L312.799 746.147L312.36 745.949L312 745.785L310.782 746.385L310.945 746.534L311.212 746.779L311.3 746.86L311.119 746.816L310.595 746.69L310.143 746.581L305.525 748.606L305.586 748.905L305.591 748.928L305.647 749.195L305.161 749.093L304.457 748.945L303.057 749.638L303.198 749.878L303.359 750.154L302.842 750.051L302.18 749.92L295.014 752.976L294.12 753.357L298.166 752.216L301.388 751.307L301.22 751.109L301.537 751.009L302.098 751.114L303.331 750.766L308.531 749.297L308.09 748.886L309.683 749.011L313.693 747.978L312.929 747.407L315.034 747.574L317.735 746.821L317.161 746.401L319.465 746.378L323.276 745.336L321.916 744.613L324.432 745.045L326.109 744.521Z" fill="#041A27"/>
<path d="M291.455 746.431L291.566 753.432H293.465V746.431H291.455Z" fill="#132E40"/>
<path d="M294.107 746.431H293.465V753.432H294.107V746.431Z" fill="#80CEFF"/>
<path d="M296.2 731.358L296.896 731.919L298.443 731.416L300.675 730.692L299.917 727.734L298.847 727.125L299.093 728.184L296.2 731.358Z" fill="#80CEFF"/>
<path d="M301.103 737.319H302.948L300.675 732.94L298.809 732.5L297.123 732.102L300.221 734.597L301.103 737.319Z" fill="#80CEFF"/>
<path d="M298.78 722.172L296.128 713.651L294.776 712.927L297.592 722.172H298.78Z" fill="#80CEFF"/>
<path d="M304.041 742.377C303.522 741.7 303.036 741.011 302.582 740.31L301.54 739.462L301.773 741.737L303.678 745.175L302.171 746.431H305.221L304.041 742.377Z" fill="#80CEFF"/>
<path d="M292.655 708.799H293.741H295.118L292.496 699.772L294.107 706.962L292.655 708.799Z" fill="#80CEFF"/>
<path d="M294.564 712.231H296.128L295.118 709.864L293.965 709.365L292.655 708.799L294.788 710.665L294.564 712.231Z" fill="#80CEFF"/>
<path d="M298.549 725.844L299.917 726.076L298.78 723.236L297.814 722.901L298.034 723.622L298.549 725.844Z" fill="#80CEFF"/>
<path d="M291.445 702.273L290.761 705.367L291.725 705.728L292.214 698.8L291.445 702.273Z" fill="#17364A"/>
<path d="M301.773 741.737L301.54 739.461L298.906 737.319H300.861H301.103L300.221 734.597L297.123 732.102L296.665 731.993L296.896 731.919L296.2 731.358L299.092 728.184L298.847 727.125L296.994 726.074L295.749 725.366L296.879 725.559L298.549 725.844L298.034 723.622L297.814 722.9L296.235 722.351L295.717 722.172H296.201H297.592L294.775 712.927L294.668 712.869L293.476 712.231H294.563L294.788 710.665L292.655 708.799L294.107 706.962L292.496 699.772L292.214 698.8L291.726 705.728L292.302 705.945L292.655 706.077H292.362H291.701L291.455 709.564L293.807 717.549L290.663 719.091L293.476 726.076L290.246 735.646L294.775 740.566L292.129 746.431H296.35H302.171L303.678 745.175L301.773 741.737Z" fill="#2B6589"/>
<path d="M290.246 735.646L293.476 726.076L290.663 719.091L293.807 717.549L291.455 709.564L291.701 706.077H290.572L290.284 707.381L288.93 713.533L291.329 714.361L288.425 714.953L286.657 720.514L290.572 721.698L286.278 722.763L285.141 727.497L288.298 728.443L284.131 730.692L281.984 738.975L288.93 740.395L281.1 741.697L280.342 746.431H292.129L294.775 740.566L290.246 735.646Z" fill="#17364A"/>
<path opacity="0.66" d="M294.496 756.528L289.249 754.945L293.388 753.513L292.537 753.244L292.247 753.152L287.952 754.553L286.842 754.218L283.9 753.331L282.323 752.855L279.899 753.902C279.654 754.136 279.378 754.37 279.071 754.605L278.973 754.972L278.721 755.92L277.597 755.604L277.457 755.564L276.383 755.262L273.861 756.778L274.606 757.21L275.279 757.6L275.461 757.706L275.252 757.689L273.834 757.576L271.738 757.41L269.282 758.422L269.372 758.796L269.53 759.448L269.637 759.891L269.072 759.635L268.234 759.256L267.546 758.945L265.219 760.09L265.531 760.376L266.042 760.843L266.21 760.996L265.864 760.913L264.862 760.671L263.999 760.463L255.178 764.332L255.296 764.902L255.305 764.948L255.411 765.456L254.484 765.262L253.138 764.979L250.464 766.302L250.734 766.762L251.04 767.287L250.052 767.091L248.788 766.841L235.1 772.678L233.393 773.406L241.122 771.226L247.276 769.49L246.955 769.112L247.56 768.92L248.632 769.122L250.988 768.457L260.921 765.651L260.079 764.866L263.12 765.105L270.781 763.131L269.321 762.041L273.343 762.359L278.502 760.921L277.406 760.12L281.807 760.076L289.086 758.085L286.487 756.705L291.295 757.53L294.496 756.528Z" fill="#041A27"/>
<path d="M986.353 938.382C880.302 827.21 776.814 792.486 643.045 769.968C509.277 747.45 373.167 763.494 240.809 797.787V938.382H986.353Z" fill="url(#paint6_linear)"/>
<path d="M1067 857.108C1044.3 847.97 1021.18 839.781 997.59 832.83C875.974 796.998 745.512 795.153 618.805 808.337C516.971 818.933 414.494 839.643 325.233 886.78V978.633H1067V857.108Z" fill="url(#paint7_linear)"/>
<path d="M596.847 809.585L597.119 826.874H601.81V809.585H596.847Z" fill="#132E40"/>
<path d="M603.395 809.585H601.81V826.874H603.395V809.585Z" fill="#80CEFF"/>
<path d="M608.561 772.368L610.28 773.753L614.1 772.512L619.611 770.723L617.739 763.419L615.097 761.918L615.704 764.532L608.561 772.368Z" fill="#80CEFF"/>
<path d="M620.668 787.086H625.224L619.611 776.275L615.004 775.188L610.842 774.205L618.491 780.367L620.668 787.086Z" fill="#80CEFF"/>
<path d="M614.933 749.685L608.385 728.647L605.045 726.858L611.999 749.685H614.933Z" fill="#80CEFF"/>
<path d="M627.923 799.577C626.642 797.905 625.443 796.204 624.322 794.473L621.747 792.378L622.324 797.997L627.027 806.485L623.306 809.585H630.836L627.923 799.577Z" fill="#80CEFF"/>
<path d="M599.809 716.666H602.491H605.89L599.417 694.377L603.395 712.131L599.809 716.666Z" fill="#80CEFF"/>
<path d="M604.522 725.14H608.385L605.89 719.296L603.042 718.065L599.809 716.666L605.077 721.272L604.522 725.14Z" fill="#80CEFF"/>
<path d="M614.363 758.752L617.739 759.328L614.933 752.315L612.547 751.485L613.091 753.269L614.363 758.752Z" fill="#80CEFF"/>
<path d="M596.823 700.552L595.133 708.193L597.514 709.085L598.719 691.976L596.823 700.552Z" fill="#17364A"/>
<path d="M622.324 797.997L621.747 792.378L615.245 787.086H620.071H620.668L618.491 780.367L610.842 774.205L609.71 773.938L610.28 773.752L608.561 772.368L615.704 764.532L615.097 761.918L610.524 759.32L607.449 757.574L610.239 758.049L614.363 758.752L613.091 753.268L612.547 751.485L608.649 750.129L607.371 749.685H608.566H611.999L605.045 726.858L604.78 726.716L601.836 725.14H604.522L605.077 721.273L599.809 716.666L603.395 712.131L599.417 694.377L598.719 691.976L597.514 709.085L598.939 709.619L599.809 709.946H599.087H597.453L596.847 718.555L602.654 738.272L594.891 742.079L601.836 759.328L593.861 782.957L605.045 795.104L598.51 809.585H608.933H623.306L627.027 806.486L622.324 797.997Z" fill="#2B6589"/>
<path d="M593.861 782.957L601.836 759.328L594.891 742.079L602.654 738.272L596.847 718.555L597.453 709.946H594.664L593.955 713.165L590.611 728.354L596.535 730.4L589.364 731.861L584.998 745.594L594.664 748.517L584.063 751.146L581.256 762.834L589.051 765.172L578.761 770.723L573.461 791.177L590.611 794.683L571.277 797.897L569.406 809.585H598.51L605.045 795.104L593.861 782.957Z" fill="#17364A"/>
<path opacity="0.66" d="M604.355 834.518L591.398 830.608L601.618 827.073L599.517 826.409L598.803 826.183L588.197 829.642L585.457 828.816L578.193 826.624L574.299 825.449L568.314 828.034C567.708 828.612 567.027 829.19 566.27 829.77L566.028 830.677L565.405 833.015L562.629 832.235L562.283 832.138L559.631 831.392L553.404 835.135L555.245 836.201L556.906 837.164L557.358 837.425L556.841 837.384L553.341 837.106L548.163 836.695L542.099 839.195L542.321 840.116L542.711 841.726L542.976 842.82L541.581 842.189L539.511 841.254L537.81 840.485L532.066 843.312L532.835 844.017L534.097 845.172L534.512 845.551L533.657 845.344L531.184 844.748L529.052 844.234L507.273 853.786L507.564 855.195L507.587 855.307L507.846 856.562L505.559 856.082L502.235 855.385L495.633 858.652L496.297 859.787L497.053 861.083L494.615 860.601L491.494 859.984L457.694 874.396L453.479 876.194L472.563 870.81L487.758 866.523L486.966 865.59L488.462 865.117L491.109 865.614L496.926 863.972L521.451 857.044L519.372 855.106L526.881 855.695L545.798 850.821L542.193 848.131L552.124 848.915L564.863 845.363L562.156 843.385L573.025 843.277L590.997 838.362L584.582 834.955L596.453 836.992L604.355 834.518Z" fill="#17364A"/>
<path d="M532.485 812.22L532.672 824.091H535.893V812.22H532.485Z" fill="#132E40"/>
<path d="M536.981 812.22H535.893V824.091H536.981V812.22Z" fill="#80CEFF"/>
<path d="M540.528 786.668L541.708 787.619L544.331 786.767L548.115 785.539L546.83 780.524L545.016 779.493L545.432 781.288L540.528 786.668Z" fill="#80CEFF"/>
<path d="M548.841 796.774H551.968L548.115 789.35L544.952 788.604L542.094 787.929L547.346 792.16L548.841 796.774Z" fill="#80CEFF"/>
<path d="M544.903 771.094L540.407 756.65L538.114 755.422L542.888 771.094H544.903Z" fill="#80CEFF"/>
<path d="M553.822 805.349C552.941 804.201 552.119 803.033 551.349 801.845L549.582 800.406L549.977 804.264L553.207 810.093L550.652 812.221H555.822L553.822 805.349Z" fill="#80CEFF"/>
<path d="M534.52 748.424H536.36H538.694L534.25 733.121L536.981 745.311L534.52 748.424Z" fill="#80CEFF"/>
<path d="M537.755 754.243H540.407L538.694 750.23L536.739 749.385L534.52 748.424L538.136 751.587L537.755 754.243Z" fill="#80CEFF"/>
<path d="M544.511 777.32L546.83 777.715L544.903 772.9L543.265 772.33L543.638 773.555L544.511 777.32Z" fill="#80CEFF"/>
<path d="M532.469 737.361L531.309 742.607L532.943 743.219L533.771 731.473L532.469 737.361Z" fill="#17364A"/>
<path d="M549.977 804.264L549.581 800.406L545.117 796.774H548.43H548.841L547.346 792.16L542.094 787.929L541.317 787.746L541.708 787.618L540.528 786.668L545.432 781.288L545.016 779.493L541.876 777.709L539.765 776.511L541.68 776.837L544.512 777.32L543.638 773.555L543.265 772.33L540.588 771.399L539.711 771.095H540.531H542.889L538.114 755.422L537.932 755.325L535.911 754.243H537.755L538.136 751.587L534.52 748.424L536.981 745.311L534.25 733.121L533.771 731.473L532.943 743.219L533.922 743.586L534.52 743.811H534.023H532.902L532.485 749.721L536.472 763.258L531.142 765.873L535.911 777.715L530.436 793.938L538.114 802.278L533.627 812.22H540.783H550.652L553.207 810.092L549.977 804.264Z" fill="#2B6589"/>
<path d="M530.435 793.938L535.911 777.715L531.142 765.873L536.472 763.258L532.485 749.721L532.901 743.811H530.987L530.5 746.02L528.204 756.449L532.271 757.854L527.348 758.857L524.35 768.286L530.987 770.292L523.708 772.098L521.781 780.122L527.133 781.727L520.068 785.538L516.429 799.581L528.204 801.989L514.93 804.196L513.645 812.22H533.627L538.114 802.278L530.435 793.938Z" fill="#17364A"/>
<path opacity="0.66" d="M537.641 829.339L528.744 826.654L535.761 824.227L534.319 823.771L533.829 823.616L526.547 825.991L524.665 825.423L519.679 823.919L517.005 823.112L512.895 824.886C512.479 825.284 512.011 825.681 511.492 826.079L511.326 826.701L510.898 828.307L508.993 827.771L508.755 827.704L506.935 827.192L502.659 829.762L503.923 830.494L505.063 831.155L505.373 831.334L505.019 831.306L502.616 831.115L499.061 830.833L494.898 832.549L495.051 833.181L495.318 834.287L495.5 835.038L494.542 834.605L493.121 833.963L491.954 833.435L488.01 835.376L488.538 835.86L489.404 836.652L489.689 836.913L489.102 836.771L487.404 836.362L485.94 836.009L470.987 842.567L471.187 843.534L471.203 843.611L471.381 844.473L469.811 844.143L467.528 843.664L462.996 845.907L463.451 846.687L463.971 847.577L462.298 847.245L460.155 846.821L436.949 856.717L434.055 857.951L447.158 854.255L457.591 851.312L457.047 850.671L458.074 850.346L459.892 850.687L463.885 849.559L480.724 844.803L479.296 843.472L484.452 843.876L497.44 840.53L494.965 838.683L501.784 839.221L510.53 836.783L508.671 835.425L516.134 835.35L528.473 831.976L524.068 829.636L532.218 831.035L537.641 829.339Z" fill="#17364A"/>
<path opacity="0.66" d="M783.435 812.62L772.496 809.319L781.123 806.335L779.35 805.774L778.747 805.584L769.794 808.504L767.481 807.806L761.35 805.956L758.063 804.964L753.01 807.146C752.499 807.634 751.924 808.122 751.285 808.612L751.081 809.377L750.554 811.352L748.211 810.693L747.92 810.611L745.681 809.981L740.424 813.141L741.978 814.041L743.38 814.853L743.761 815.074L743.325 815.039L740.371 814.805L736 814.458L730.881 816.568L731.069 817.345L731.398 818.704L731.622 819.628L730.444 819.096L728.697 818.306L727.261 817.657L722.412 820.043L723.062 820.638L724.127 821.613L724.477 821.933L723.755 821.758L721.668 821.255L719.869 820.821L701.484 828.885L701.729 830.074L701.749 830.169L701.968 831.228L700.037 830.823L697.231 830.234L691.658 832.992L692.219 833.95L692.858 835.044L690.8 834.637L688.165 834.116L659.633 846.282L656.075 847.799L672.184 843.255L685.012 839.636L684.343 838.848L685.606 838.449L687.84 838.869L692.75 837.482L713.453 831.634L711.698 829.998L718.037 830.495L734.006 826.381L730.963 824.11L739.346 824.772L750.1 821.774L747.815 820.104L756.989 820.013L772.161 815.863L766.745 812.987L776.766 814.707L783.435 812.62Z" fill="#17364A"/>
<path d="M645.466 820.222L645.904 848.1H653.469V820.222H645.466Z" fill="#132E40"/>
<path d="M656.025 820.222H653.469V848.1H656.025V820.222Z" fill="#80CEFF"/>
<path d="M664.355 760.212L667.126 762.444L673.286 760.444L682.171 757.56L679.155 745.782L674.894 743.362L675.872 747.577L664.355 760.212Z" fill="#80CEFF"/>
<path d="M683.876 783.944H691.221L682.171 766.512L674.744 764.759L668.032 763.174L680.366 773.109L683.876 783.944Z" fill="#80CEFF"/>
<path d="M674.629 723.638L664.071 689.715L658.685 686.831L669.898 723.638H674.629Z" fill="#80CEFF"/>
<path d="M695.575 804.084C693.508 801.389 691.575 798.645 689.768 795.855L685.616 792.477L686.546 801.537L694.131 815.224L688.13 820.222H700.273L695.575 804.084Z" fill="#80CEFF"/>
<path d="M650.243 670.397H654.566H660.047L649.61 634.458L656.025 663.085L650.243 670.397Z" fill="#80CEFF"/>
<path d="M657.842 684.061H664.071L660.047 674.637L655.456 672.652L650.243 670.397L658.737 677.825L657.842 684.061Z" fill="#80CEFF"/>
<path d="M673.71 738.258L679.154 739.185L674.629 727.878L670.782 726.54L671.658 729.415L673.71 738.258Z" fill="#80CEFF"/>
<path d="M645.428 644.414L642.703 656.734L646.542 658.173L648.486 630.586L645.428 644.414Z" fill="#17364A"/>
<path d="M686.546 801.537L685.616 792.476L675.132 783.945H682.912H683.877L680.366 773.11L668.033 763.174L666.206 762.743L667.126 762.444L664.355 760.212L675.872 747.577L674.894 743.362L667.519 739.173L662.562 736.358L667.059 737.125L673.71 738.258L671.658 729.415L670.782 726.54L664.496 724.354L662.435 723.638H664.362H669.898L658.685 686.831L658.258 686.602L653.512 684.061H657.842L658.737 677.825L650.243 670.397L656.025 663.085L649.61 634.458L648.486 630.586L646.542 658.173L648.839 659.035L650.243 659.561H649.078H646.444L645.466 673.443L654.829 705.234L642.311 711.374L653.512 739.185L640.652 777.286L658.685 796.873L648.147 820.222H664.954H688.13L694.13 815.224L686.546 801.537Z" fill="#2B6589"/>
<path d="M640.653 777.286L653.512 739.185L642.311 711.374L654.829 705.234L645.466 673.443L646.444 659.561H641.947L640.804 664.751L635.411 689.244L644.964 692.542L633.4 694.897L626.361 717.041L641.947 721.753L624.852 725.993L620.327 744.839L632.897 748.609L616.304 757.56L607.758 790.54L635.411 796.194L604.237 801.376L601.22 820.222H648.148L658.685 796.873L640.653 777.286Z" fill="#17364A"/>
<path opacity="0.66" d="M657.574 860.425L636.681 854.12L653.16 848.419L649.773 847.349L648.621 846.985L631.521 852.562L627.101 851.229L615.39 847.695L609.112 845.801L599.46 849.968C598.484 850.901 597.385 851.833 596.165 852.767L595.775 854.23L594.769 858.001L590.294 856.742L589.736 856.585L585.46 855.382L575.418 861.418L578.386 863.137L581.065 864.688L581.793 865.11L580.96 865.044L575.316 864.596L566.968 863.934L557.191 867.964L557.549 869.449L558.177 872.046L558.604 873.81L556.354 872.793L553.017 871.284L550.275 870.045L541.013 874.604L542.254 875.74L544.287 877.601L544.957 878.212L543.578 877.879L539.59 876.918L536.154 876.089L501.036 891.491L501.505 893.763L501.542 893.944L501.96 895.967L498.272 895.193L492.912 894.068L482.268 899.336L483.338 901.166L484.558 903.257L480.627 902.479L475.594 901.483L421.094 924.723L414.298 927.621L445.069 918.94L469.571 912.028L468.294 910.523L470.706 909.76L474.974 910.562L484.353 907.912L523.898 896.742L520.546 893.617L532.653 894.567L563.156 886.708L557.343 882.37L573.356 883.635L593.897 877.908L589.533 874.719L607.057 874.544L636.036 866.618L625.691 861.125L644.832 864.41L657.574 860.425Z" fill="#17364A"/>
<path d="M599.055 978.633C464.517 838.075 333.117 794.054 163.397 765.484C-6.6727 736.855 -179.718 730.418 -348 773.969V803.799H-347.986L-348 978.633H599.055Z" fill="url(#paint8_linear)"/>
<path d="M218.17 760.079L218.524 782.584H224.631V760.079H218.17Z" fill="#132E40"/>
<path d="M226.694 760.079H224.63V782.584H226.694V760.079Z" fill="#80CEFF"/>
<path d="M233.418 711.635L235.656 713.437L240.628 711.822L247.801 709.494L245.366 699.986L241.926 698.032L242.716 701.436L233.418 711.635Z" fill="#80CEFF"/>
<path d="M249.178 730.794H255.107L247.801 716.721L241.806 715.305L236.388 714.026L246.344 722.047L249.178 730.794Z" fill="#80CEFF"/>
<path d="M241.713 682.109L233.189 654.724L228.842 652.396L237.893 682.109H241.713Z" fill="#80CEFF"/>
<path d="M258.621 747.051C256.953 744.876 255.393 742.661 253.933 740.408L250.582 737.681L251.333 744.996L257.456 756.045L252.612 760.079H262.414L258.621 747.051Z" fill="#80CEFF"/>
<path d="M222.027 639.13H225.517H229.942L221.516 610.117L226.694 633.227L222.027 639.13Z" fill="#80CEFF"/>
<path d="M228.161 650.16H233.189L229.941 642.553L226.235 640.95L222.026 639.13L228.883 645.126L228.161 650.16Z" fill="#80CEFF"/>
<path d="M240.971 693.912L245.366 694.661L241.713 685.532L238.607 684.452L239.314 686.774L240.971 693.912Z" fill="#80CEFF"/>
<path d="M218.14 618.155L215.94 628.1L219.039 629.262L220.608 606.991L218.14 618.155Z" fill="#17364A"/>
<path d="M251.333 744.996L250.582 737.681L242.119 730.794H248.4H249.178L246.344 722.047L236.388 714.026L234.914 713.678L235.656 713.437L233.419 711.635L242.716 701.436L241.926 698.032L235.973 694.651L231.971 692.379L235.602 692.997L240.971 693.912L239.314 686.774L238.607 684.452L233.533 682.687L231.869 682.109H233.425H237.893L228.842 652.396L228.497 652.212L224.665 650.16H228.161L228.884 645.126L222.027 639.13L226.694 633.227L221.516 610.117L220.608 606.991L219.039 629.262L220.894 629.957L222.027 630.383H221.086H218.96L218.17 641.589L225.729 667.253L215.624 672.209L224.665 694.661L214.284 725.418L228.842 741.23L220.335 760.079H233.903H252.612L257.456 756.045L251.333 744.996Z" fill="#2B6589"/>
<path d="M214.284 725.418L224.665 694.661L215.624 672.209L225.729 667.253L218.17 641.589L218.96 630.383H215.329L214.406 634.572L210.053 654.344L217.765 657.007L208.43 658.908L202.747 676.784L215.329 680.588L201.529 684.011L197.876 699.225L208.024 702.268L194.629 709.494L187.729 736.118L210.053 740.682L184.887 744.865L182.452 760.079H220.335L228.842 741.23L214.284 725.418Z" fill="#17364A"/>
<path opacity="0.66" d="M227.945 792.534L211.078 787.444L224.381 782.842L221.647 781.978L220.717 781.684L206.912 786.187L203.345 785.111L193.89 782.258L188.822 780.728L181.031 784.092C180.243 784.845 179.356 785.598 178.371 786.352L178.056 787.533L177.244 790.577L173.632 789.561L173.182 789.435L169.73 788.463L161.623 793.336L164.019 794.724L166.182 795.976L166.77 796.317L166.098 796.263L161.542 795.902L154.803 795.367L146.909 798.621L147.199 799.819L147.705 801.916L148.05 803.34L146.235 802.519L143.54 801.301L141.326 800.3L133.849 803.981L134.851 804.898L136.493 806.401L137.033 806.894L135.92 806.626L132.701 805.849L129.926 805.18L101.577 817.614L101.956 819.449L101.986 819.595L102.324 821.228L99.3461 820.603L95.0191 819.695L86.4263 823.948L87.2907 825.425L88.2758 827.113L85.1022 826.485L81.0394 825.68L37.0434 844.441L31.5571 846.78L56.3976 839.773L76.1773 834.193L75.1466 832.978L77.0933 832.361L80.539 833.009L88.1105 830.87L120.034 821.853L117.328 819.331L127.101 820.097L151.725 813.753L147.033 810.251L159.96 811.272L176.541 806.649L173.018 804.074L187.165 803.934L210.56 797.535L202.209 793.101L217.66 795.752L227.945 792.534Z" fill="#041A27"/>
<path d="M14.6937 755.255L15.719 820.415H33.3996V755.255H14.6937Z" fill="#132E40"/>
<path d="M39.3739 755.255H33.3997V820.415H39.3739V755.255Z" fill="#80CEFF"/>
<path d="M58.8447 614.988L65.3229 620.206L79.7202 615.531L100.489 608.788L93.4373 581.259L83.4787 575.602L85.7645 585.456L58.8447 614.988Z" fill="#80CEFF"/>
<path d="M104.474 670.46H121.643L100.489 629.713L83.1287 625.615L67.4406 621.911L96.2698 645.134L104.474 670.46Z" fill="#80CEFF"/>
<path d="M82.86 529.499L58.1795 450.208L45.5925 443.467L71.8017 529.499H82.86Z" fill="#80CEFF"/>
<path d="M131.818 717.533C126.987 711.234 122.469 704.822 118.245 698.298L108.542 690.402L110.715 711.58L128.442 743.573L114.417 755.255H142.798L131.818 717.533Z" fill="#80CEFF"/>
<path d="M25.8603 405.054H35.9654H48.7768L24.3813 321.05L39.3743 387.963L25.8603 405.054Z" fill="#80CEFF"/>
<path d="M43.6203 436.993H58.1794L48.7769 414.966L38.0452 410.326L25.8604 405.054L45.7135 422.417L43.6203 436.993Z" fill="#80CEFF"/>
<path d="M80.7108 563.671L93.4374 565.84L82.8601 539.409L73.8681 536.282L75.9157 543.004L80.7108 563.671Z" fill="#80CEFF"/>
<path d="M14.6049 344.323L8.23541 373.12L17.209 376.483L21.7529 312L14.6049 344.323Z" fill="#17364A"/>
<path d="M110.714 711.58L108.541 690.402L84.0343 670.46H102.221H104.474L96.2698 645.134L67.4405 621.911L63.1732 620.904L65.323 620.206L58.8448 614.988L85.7645 585.456L83.4787 575.602L66.241 565.811L54.6539 559.232L65.1656 561.023L80.7108 563.671L75.9156 543.004L73.8681 536.282L59.1755 531.172L54.358 529.499H58.8612H71.8017L45.5925 443.467L44.594 442.932L33.4994 436.993H43.6204L45.7136 422.416L25.8604 405.054L39.3744 387.963L24.3814 321.05L21.7529 312L17.2091 376.483L22.5791 378.496L25.8604 379.728H23.1372H16.9807L14.6938 412.175L36.5792 486.484L7.32095 500.833L33.4994 565.84L3.44336 654.895L45.5925 700.678L20.9625 755.255H60.2454H114.417L128.442 743.573L110.714 711.58Z" fill="#2B6589"/>
<path d="M3.44334 654.895L33.4994 565.84L7.32094 500.833L36.5792 486.484L14.6938 412.175L16.9807 379.728H6.46896L3.79635 391.858L-8.8081 449.106L13.5206 456.816L-13.5084 462.321L-29.9626 514.081L6.46896 525.095L-33.4882 535.005L-44.0659 579.055L-14.6851 587.866L-53.4685 608.788L-73.4458 685.876L-8.8081 699.091L-81.6742 711.205L-88.7258 755.255H20.9625L45.5925 700.678L3.44334 654.895Z" fill="#17364A"/>
<path opacity="0.66" d="M42.9949 849.224L-5.83997 834.488L32.6773 821.163L24.7598 818.661L22.0678 817.81L-17.9037 830.848L-28.2332 827.731L-55.6068 819.471L-70.282 815.043L-92.8421 824.783C-95.123 826.963 -97.6924 829.144 -100.544 831.327L-101.455 834.745L-103.805 843.56L-114.265 840.618L-115.569 840.251L-125.565 837.441L-149.036 851.548L-142.099 855.566L-135.837 859.192L-134.135 860.178L-136.082 860.023L-149.273 858.976L-168.787 857.427L-191.641 866.848L-190.802 870.318L-189.336 876.388L-188.336 880.511L-193.594 878.134L-201.395 874.608L-207.805 871.711L-229.455 882.367L-226.553 885.023L-221.801 889.374L-220.237 890.803L-223.46 890.026L-232.78 887.778L-240.814 885.84L-322.897 921.843L-321.802 927.153L-321.714 927.576L-320.737 932.304L-329.358 930.495L-341.886 927.866L-347.987 930.885V956.297L-269.459 934.115L-277.295 926.812L-248.996 929.031L-177.698 910.662L-191.286 900.523L-153.856 903.479L-105.845 890.094L-116.046 882.639L-75.0836 882.23L-7.34781 863.704L-31.5284 850.863L13.2119 858.542L42.9949 849.224Z" fill="#041A27"/>
<path d="M372.07 791.897C372.07 791.897 421.773 788.321 445.483 792.703C445.483 792.703 426.648 749.394 412.695 750.747C398.741 752.1 376.559 775.715 372.07 791.897Z" fill="#0C2230"/>
<path opacity="0.18" d="M376.389 791.234C374.569 791.611 372.723 792.077 371.211 793.017C370.67 793.356 370.129 793.844 370.219 794.407C370.325 795.08 371.222 795.415 371.996 795.595C377.7 796.959 383.711 797.038 389.637 797.097C400.715 797.208 411.803 797.293 422.855 796.704C429.041 796.375 435.254 795.828 441.217 794.396C442.326 794.131 443.7 793.425 443.318 792.502C443.164 792.125 442.745 791.881 442.337 791.674C440.639 790.825 438.74 790.274 436.782 790.067C434.416 789.812 432.023 790.061 429.646 790.157C422.558 790.449 415.528 789.451 408.466 789.154C404.975 789.006 401.447 789.022 397.988 789.478C396.449 789.679 395.372 789.987 393.791 789.908C392.014 789.817 390.231 789.796 388.454 789.844C384.39 789.955 380.336 790.417 376.389 791.234Z" fill="#000203"/>
<path d="M399.463 785.09C399.463 785.09 390.406 783.525 388.279 788.491C386.151 793.451 406.567 795.298 407.697 795.181C408.827 795.064 409.14 790.533 409.14 790.533C409.14 790.533 400.747 785.244 399.463 785.09Z" fill="#387FAC"/>
<path d="M394.974 787.138C396.794 788.639 399.022 789.642 401.351 790.014C401.431 790.024 401.304 788.029 401.097 787.78C400.725 787.34 399.924 787.058 399.362 786.995C397.977 786.825 396.354 787.037 394.974 787.138Z" fill="#266085"/>
<path d="M407.469 791.154C405.739 791.261 403.978 791.367 402.37 792.009C401.155 792.491 400.073 793.261 399.006 794.025C398.492 794.391 397.935 794.831 397.871 795.457C397.749 795.547 398.036 795.691 398.179 795.728C398.327 795.765 398.476 795.68 398.598 795.59C398.407 795.754 398.492 795.945 398.502 796.2C398.502 796.242 398.513 796.29 398.54 796.322C398.577 796.37 398.646 796.38 398.704 796.38C398.922 796.38 399.134 796.301 399.293 796.158C399.16 796.338 399.06 796.656 399.197 796.831C399.282 796.937 399.442 796.964 399.574 796.927C399.707 796.89 399.818 796.799 399.924 796.715C399.961 796.906 399.988 797.07 399.999 797.266C400.009 797.431 400.195 797.542 400.359 797.532C400.524 797.521 400.672 797.426 400.81 797.335C400.948 797.473 400.736 797.707 400.773 797.898C400.805 798.089 401.033 798.179 401.229 798.179C401.983 798.19 402.519 797.495 403.044 796.948C404.185 795.765 405.808 795.059 407.453 795.038C407.856 795.033 408.302 795.054 408.609 794.794C408.785 794.645 408.885 794.428 408.96 794.216C409.204 793.51 409.23 792.714 408.944 792.03C408.652 791.335 408.212 791.112 407.469 791.154Z" fill="#965544"/>
<path d="M403.553 792.295C403.925 792.162 404.296 792.035 404.689 792.008C405.145 791.982 405.596 792.099 406.036 792.221C406.535 792.359 407.93 792.56 409.119 792.751C409.092 792.502 409.029 792.253 408.933 792.019C408.647 791.329 408.206 791.112 407.464 791.154C405.734 791.26 403.972 791.366 402.365 792.008C401.15 792.491 400.068 793.261 399.001 794.025C398.529 794.359 398.025 794.762 397.892 795.308C399.399 793.791 401.521 793.011 403.553 792.295Z" fill="#7A3E32"/>
<path d="M415.528 785.09C415.528 785.09 424.584 783.525 426.712 788.491C428.839 793.452 408.424 795.298 407.294 795.181C406.164 795.064 405.851 790.534 405.851 790.534C405.851 790.534 414.244 785.244 415.528 785.09Z" fill="#387FAC"/>
<path d="M420.022 787.138C418.202 788.639 415.974 789.642 413.644 790.014C413.565 790.024 413.692 788.029 413.899 787.78C414.27 787.34 415.072 787.058 415.634 786.995C417.013 786.825 418.637 787.037 420.022 787.138Z" fill="#36365B"/>
<path d="M417.417 761.443C417.417 761.443 419.247 759.697 419.576 760.902C419.91 762.106 417.581 766.515 416.085 765.39C414.589 764.271 417.417 761.443 417.417 761.443Z" fill="#965544"/>
<path d="M404.604 760.239C404.604 760.239 403.861 757.819 402.98 758.711C402.1 759.602 401.983 764.584 403.835 764.334C405.691 764.085 404.604 760.239 404.604 760.239Z" fill="#965544"/>
<path d="M408.562 769.587L404.195 770.945C403.564 771.141 402.89 770.802 402.667 770.181L400.184 763.135L396.46 764.785L400.168 776.166L403.622 775.954L406.344 786.363H415.74L418.934 775.296C418.939 775.29 417.443 769.534 408.562 769.587Z" fill="#387FAC"/>
<path d="M409.198 769.587C409.198 769.587 408.307 779.774 408.769 786.023H410.27C410.27 786.023 409.856 772.823 411.114 769.672L409.198 769.587Z" fill="#1A557A"/>
<path d="M414.164 767.884L412.371 771.359C412.371 771.359 409.511 772.574 408.132 770.722L407.851 767.629C407.851 767.624 412.891 766.202 414.164 767.884Z" fill="#965544"/>
<path d="M411.602 752.397C410.042 752.328 408.403 752.774 406.827 754.095C405.347 755.342 404.455 757.151 404.333 759.082L404.089 762.907C403.904 765.751 405.792 768.319 408.567 768.993L409.75 769.279C412.663 769.985 415.639 768.388 416.658 765.571L417.953 761.995C419.576 757.48 416.398 752.604 411.602 752.397Z" fill="#B56F59"/>
<path d="M405.182 762.127L404.238 760.499L404.073 760.759L404.991 762.812L405.182 762.127Z" fill="#B7A970"/>
<path d="M407.448 766.197C408.992 766.197 410.244 764.89 410.244 763.279C410.244 761.667 408.992 760.361 407.448 760.361C405.903 760.361 404.652 761.667 404.652 763.279C404.652 764.89 405.903 766.197 407.448 766.197Z" fill="#B7A970"/>
<path d="M415.745 763.48L418.313 761.193L418.414 761.501L415.857 763.798L415.745 763.48Z" fill="#B7A970"/>
<path d="M413.56 767.231C415.104 767.231 416.356 765.925 416.356 764.313C416.356 762.702 415.104 761.395 413.56 761.395C412.015 761.395 410.764 762.702 410.764 764.313C410.764 765.925 412.015 767.231 413.56 767.231Z" fill="#B7A970"/>
<path d="M411.602 752.397C410.042 752.328 408.403 752.774 406.827 754.095C405.347 755.342 404.455 757.151 404.333 759.082L404.201 761.125C404.62 760.796 404.965 760.377 405.193 759.894C405.251 760.371 405.129 760.87 404.853 761.268C405.628 760.843 406.27 760.186 406.673 759.406C406.753 760.011 407.135 760.568 407.676 760.849C407.649 760.536 407.883 760.265 408.105 760.042C408.418 759.724 408.737 759.4 409.05 759.082C409.045 759.697 408.869 760.313 408.546 760.843C409.495 760.499 410.371 759.957 411.103 759.268C411.039 760.26 411.888 761.215 412.88 761.273C412.477 760.711 412.636 759.936 412.817 759.268C413.124 760.451 414.281 761.363 415.507 761.379C415.337 761.13 415.204 760.859 415.109 760.573C415.846 761.088 416.074 762.207 415.586 762.966C416.064 762.764 416.451 762.371 416.647 761.894C416.87 762.324 417.215 762.658 417.608 762.939L417.947 762C419.576 757.48 416.398 752.604 411.602 752.397Z" fill="#91594A"/>
<path d="M404.28 759.639C404.243 760.217 403.988 760.774 403.575 761.188C404.047 761.093 404.381 760.684 404.636 760.276C404.858 759.92 405.049 759.549 405.214 759.162C405.394 759.506 405.755 759.735 406.121 759.873C406.063 759.273 406.259 758.599 406.662 758.154C406.551 758.557 406.71 758.987 407.002 759.284C407.294 759.581 407.686 759.761 408.079 759.899C408.312 759.273 408.726 758.7 409.342 758.435C409.506 759.151 409.214 759.904 408.641 760.366C409.761 760.217 410.795 759.522 411.347 758.536C411.342 758.498 411.273 758.753 411.289 758.785C411.48 759.289 411.612 759.851 412.01 760.212C412.35 760.52 412.859 760.631 413.3 760.488C413.114 760.228 412.965 759.926 413.04 759.618C413.146 759.162 413.321 758.727 413.56 758.323C413.464 758.636 413.501 759.167 413.666 759.448C413.83 759.729 414.079 759.952 414.334 760.143C414.52 760.281 414.716 760.414 414.928 760.515C415.082 760.589 415.241 760.652 415.406 760.706C415.406 760.392 415.464 760.042 415.464 759.729C415.692 760.037 415.873 760.377 415.979 760.748C416.037 760.96 416.08 761.178 416.048 761.395C416 761.724 415.793 762.011 415.735 762.34C416.202 762.021 416.642 761.597 416.907 761.098C416.828 761.448 416.854 761.958 417.056 762.249C417.257 762.541 417.586 762.748 417.937 762.796C417.666 762.393 417.608 761.883 417.815 761.443C417.868 761.719 418.122 762.085 418.393 762.165C418.663 762.244 418.95 762.223 419.226 762.202C418.87 761.804 418.605 761.321 418.435 760.817C418.626 760.923 418.828 761.029 419.051 761.034C419.189 761.04 419.327 760.997 419.459 760.96C419.767 760.87 420.075 760.78 420.382 760.695C420.16 760.684 419.937 760.451 419.804 760.265C419.602 759.979 419.454 759.655 419.364 759.321C419.316 759.146 419.284 758.955 419.157 758.822C418.833 758.477 418.966 758.01 418.876 757.543C418.775 757.018 418.711 756.435 418.313 756.084C418.573 756.286 419.061 756.557 419.38 756.626C419.231 756.355 419.088 756.079 418.939 755.809C418.642 755.257 418.334 754.689 417.878 754.254C417.337 753.739 416.637 753.442 416 753.05C416.414 752.965 416.653 752.859 417.029 752.678C416.584 752.699 416.138 752.646 415.708 752.53C414.843 752.286 414.17 751.973 413.273 751.973C412.944 751.665 412.594 751.309 412.27 751.002C412.302 751.225 412.371 751.442 412.477 751.644C411.819 751.532 411.156 751.564 410.488 751.585C409.824 751.607 409.151 751.744 408.572 752.084C408.981 752.079 409.389 752.158 409.761 752.323C409.671 752.254 409.4 752.302 409.299 752.344C408.254 752.779 407.124 753.023 405.994 753.05C406.259 753.315 406.567 753.527 406.906 753.681C405.792 754.09 404.758 754.726 404.057 755.686C404.445 755.591 404.72 755.538 405.092 755.389C404.965 755.522 404.896 755.602 404.768 755.734C404.524 755.989 404.28 756.249 403.994 756.456C403.622 756.732 403.187 756.917 402.736 757.002C403.198 757.278 403.718 757.453 404.248 757.517C403.771 757.978 403.277 758.27 402.62 758.318C403.155 758.52 403.718 758.658 404.285 758.732C404.301 758.695 404.312 758.663 404.328 758.626C404.031 759.098 403.506 759.369 403.012 759.628C403.389 759.639 403.903 759.639 404.28 759.639Z" fill="#663C2F"/>
<path opacity="0.63" d="M419.279 760.631C418.854 760.53 418.446 760.302 418.202 759.941C418.154 760.223 418.223 760.525 418.393 760.753C418.425 760.796 418.457 760.833 418.494 760.865C418.664 760.955 418.844 761.04 419.04 761.045C419.178 761.05 419.316 761.008 419.449 760.971C419.756 760.88 420.064 760.79 420.372 760.705C420.345 760.705 420.319 760.7 420.292 760.695C419.953 760.716 419.613 760.711 419.279 760.631Z" fill="#B7A970"/>
<path opacity="0.63" d="M414.875 759.931C414.663 759.586 414.446 759.241 414.27 758.875C414.053 758.424 413.894 757.893 414.085 757.432C413.82 757.761 413.538 758.127 413.448 758.53C413.485 758.466 413.517 758.397 413.56 758.334C413.464 758.647 413.501 759.177 413.666 759.459C413.83 759.74 414.079 759.963 414.334 760.154C414.52 760.292 414.716 760.424 414.928 760.525C415.082 760.599 415.241 760.663 415.406 760.716C415.406 760.689 415.406 760.663 415.406 760.636C415.194 760.44 415.029 760.18 414.875 759.931Z" fill="#B7A970"/>
<path opacity="0.63" d="M403.628 761.172C404.073 761.061 404.397 760.668 404.641 760.27C404.848 759.942 405.028 759.591 405.182 759.236C405.118 758.949 405.034 758.658 405.023 758.371C405.007 759.453 404.476 760.515 403.628 761.172Z" fill="#B7A970"/>
<path opacity="0.63" d="M408.976 760.308C409.915 760.09 410.758 759.485 411.268 758.668C411.358 757.952 411.368 757.214 411.384 756.493C411.018 757.978 410.159 759.331 408.976 760.308Z" fill="#B7A970"/>
<path opacity="0.63" d="M407.495 754.8C407.532 755.05 407.67 755.273 407.867 755.432C408.063 755.586 408.307 755.676 408.556 755.692C408.864 755.713 409.183 755.628 409.442 755.464C409.84 755.209 409.549 755.14 409.241 755.209C408.631 755.342 407.968 755.209 407.495 754.8Z" fill="#B7A970"/>
<path opacity="0.63" d="M405.134 756.037C405.272 756.058 405.511 756.403 405.691 756.461C405.851 756.514 406.238 756.572 406.323 756.376C406.503 755.962 405.347 756.068 405.134 756.037Z" fill="#B7A970"/>
<path opacity="0.63" d="M413.538 755.639C413.538 755.639 413.74 757.649 415.74 757.506C415.745 757.506 412.896 758.467 413.538 755.639Z" fill="#B7A970"/>
<path d="M411.727 763.138L409.271 762.814L409.23 763.124L411.686 763.449L411.727 763.138Z" fill="#B7A970"/>
<path opacity="0.63" d="M393.982 764.61L397.622 785.769L422.287 776.659L401.919 762.594C401.919 762.594 396.768 760.058 393.982 764.61Z" fill="#B7A970"/>
<path d="M396.173 777.381L394.285 775.949C394.285 775.949 406.519 773.55 408.556 780.808L399.203 779.487L396.173 777.381Z" fill="#B7A970"/>
<path d="M421.969 777.381L423.858 775.949C423.858 775.949 411.623 773.55 409.586 780.808L418.939 779.487L421.969 777.381Z" fill="#B7A970"/>
<path d="M393.643 778.002L394.078 777.233C394.078 777.233 403.67 774.744 407.607 780.533H410.641C410.641 780.533 413.528 775.041 425.523 776.087V776.803L410.933 781.387H407.341L393.643 778.002Z" fill="#BC5E5E"/>
<path d="M393.643 778.002C393.643 778.002 398.598 785.822 398.736 790.263L408.116 792.417H410.657C410.657 792.417 417.581 790.693 422.701 789.403L425.529 776.803C425.529 776.803 415.798 775.593 411.374 780.304H406.922C406.917 780.299 401.856 775.307 393.643 778.002Z" fill="#6B3232"/>
<path d="M406.917 780.299L408.111 792.417H410.652L411.368 780.299H406.917Z" fill="#682C2C"/>
<path d="M393.446 764.674L393.85 762.976L396.322 758.822C396.322 758.822 397.436 757.57 399.049 758.599L402.529 762.594L393.446 764.674Z" fill="#3F3D36"/>
<path d="M398.546 767.47C401.145 767.165 403.076 765.419 402.859 763.571C402.642 761.723 400.359 760.472 397.76 760.777C395.162 761.083 393.231 762.828 393.448 764.676C393.665 766.524 395.947 767.775 398.546 767.47Z" fill="#4F4D43"/>
<path d="M398.502 767.09C400.807 766.819 402.519 765.272 402.327 763.633C402.134 761.995 400.11 760.886 397.805 761.157C395.5 761.427 393.788 762.975 393.98 764.613C394.172 766.252 396.197 767.361 398.502 767.09Z" fill="#B7A970"/>
<path d="M398.02 765.502C400.11 765.258 401.707 763.963 401.845 762.504C401.081 761.523 399.521 760.955 397.802 761.157C395.712 761.401 394.115 762.695 393.977 764.154C394.735 765.136 396.301 765.703 398.02 765.502Z" fill="#938755"/>
<path d="M422.659 781.71C422.505 781.774 422.34 781.853 422.25 781.997C422.16 782.14 422.165 782.357 422.308 782.448C422.367 782.485 422.436 782.49 422.505 782.501C423.359 782.601 424.261 782.697 425.046 782.347C425.662 782.071 425.72 781.386 425.02 781.264C424.277 781.126 423.327 781.429 422.659 781.71Z" fill="#965544"/>
<path d="M422.659 783.074C422.505 783.137 422.34 783.217 422.25 783.36C422.16 783.503 422.165 783.721 422.308 783.811C422.367 783.848 422.436 783.854 422.505 783.864C423.359 783.965 424.261 784.061 425.046 783.71C425.662 783.435 425.72 782.75 425.02 782.628C424.277 782.49 423.327 782.793 422.659 783.074Z" fill="#965544"/>
<path d="M422.473 784.437C422.34 784.501 422.202 784.58 422.123 784.724C422.043 784.867 422.048 785.084 422.176 785.175C422.223 785.212 422.287 785.217 422.346 785.228C423.078 785.328 423.852 785.424 424.526 785.074C425.057 784.798 425.11 784.114 424.505 783.992C423.868 783.854 423.051 784.151 422.473 784.437Z" fill="#965544"/>
<path d="M422.59 785.573C422.489 785.636 422.383 785.716 422.324 785.859C422.266 786.002 422.271 786.22 422.361 786.31C422.399 786.347 422.446 786.353 422.489 786.363C423.041 786.464 423.629 786.559 424.139 786.209C424.537 785.933 424.579 785.249 424.123 785.127C423.64 784.989 423.025 785.291 422.59 785.573Z" fill="#965544"/>
<path d="M449.329 789.6C443.271 778.039 423.826 743.182 409.92 744.015C395.961 744.848 374.978 778.628 368.542 789.552C367.423 791.457 368.107 794.072 369.948 794.889C370.06 794.937 370.166 794.985 370.272 795.027C371.301 795.431 372.436 795.006 373.073 793.977C377.784 786.379 397.303 755.835 408.625 752.19C420.669 748.312 436.983 783.557 442.432 793.499C443.021 794.571 444.114 795.096 445.186 794.82L447.653 794.184C449.404 793.733 450.263 791.388 449.329 789.6Z" fill="#9D834E"/>
<path d="M449.33 789.6C443.271 778.039 423.826 743.182 409.921 744.015C395.962 744.848 374.978 778.628 368.543 789.552C368.092 790.321 367.933 791.202 368.028 792.04C370.543 787.732 373.535 783.7 376.512 779.689C378.735 776.697 380.958 773.704 383.181 770.712C384.189 769.359 385.192 768.001 386.338 766.759C387.139 765.884 388.009 765.072 388.874 764.261C389.319 763.841 388.868 764.229 389.102 763.661C389.298 763.194 389.266 762.669 389.346 762.17C389.6 760.52 390.959 759.295 392.237 758.218C394.45 756.35 396.232 754.482 398.445 752.615C399.543 751.692 400.763 750.922 401.978 750.153C403.262 749.341 404.551 748.53 405.835 747.718C406.175 747.506 406.525 747.288 406.912 747.203C407.501 747.076 408.106 747.267 408.706 747.368C410.149 747.607 411.677 747.283 412.897 746.482C413.682 745.967 416.171 747.378 416.653 748.185C417.141 748.991 417.439 749.92 418.086 750.599C418.924 751.48 420.213 751.793 421.094 752.626C421.826 753.321 422.219 754.313 422.935 755.024C423.975 756.053 425.567 756.361 426.607 757.395C427.588 758.377 427.949 759.905 429.063 760.738C431.328 762.441 432.193 765.438 433.742 767.81C434.093 768.346 434.443 768.876 434.719 769.449C435.361 770.765 435.631 772.272 436.475 773.466C437.271 774.59 438.496 775.323 439.478 776.283C440.486 777.27 441.229 778.485 441.961 779.689C444.38 783.658 446.799 787.626 449.213 791.595C449.325 791.78 449.441 791.966 449.558 792.152C449.808 791.345 449.755 790.417 449.33 789.6Z" fill="#25485F"/>
<path opacity="0.63" d="M440.697 787.297C440.246 786.087 439.907 784.841 439.461 783.636C438.416 780.819 436.952 778.405 434.824 776.283C434.336 773.402 431.641 771.529 429.8 769.264C428.749 767.969 427.948 766.494 427.158 765.024C426.134 763.13 425.481 761.056 423.932 759.56C422.627 758.297 421.693 756.636 420.17 755.644C419.438 755.167 418.626 754.599 417.799 754.302C417.236 752.944 415.931 751.989 414.531 751.543C413.13 751.092 411.623 751.087 410.153 751.161C408.705 751.235 407.235 751.389 405.909 751.968C403.713 752.917 402.163 754.886 400.466 756.562C399.489 757.528 398.439 758.414 397.42 759.332C393.361 762.987 388.242 765.555 387.016 770.876C386.783 771.879 386.167 772.744 385.562 773.582C380.771 780.209 375.981 786.83 371.195 793.457C370.829 793.961 370.463 794.47 370.065 794.948C370.134 794.979 370.208 795.006 370.277 795.038C371.306 795.441 372.442 795.017 373.078 793.987C377.784 786.379 397.304 755.835 408.625 752.19C420.669 748.312 436.984 783.557 442.432 793.499C443.021 794.571 444.114 795.096 445.186 794.82L445.578 794.719C443.435 792.64 441.748 790.093 440.697 787.297Z" fill="#7B602A"/>
<path opacity="0.04" d="M684.744 198.313C739.079 143.285 731.334 61.364 667.445 15.3378C603.556 -30.6884 507.717 -23.391 453.382 31.637C399.047 86.665 406.792 168.586 470.681 214.612C534.57 260.638 630.409 253.341 684.744 198.313Z" fill="#E5EDD4"/>
<path opacity="0.04" d="M660.881 184.918C706.691 141.057 702.712 74.1701 651.994 35.5217C601.275 -3.12663 523.024 1.09909 477.214 44.9602C431.404 88.8213 435.383 155.708 486.101 194.357C536.819 233.005 615.071 228.779 660.881 184.918Z" fill="#E5EDD4"/>
<path opacity="0.04" d="M569.083 197.039C622.077 197.039 665.038 160.292 665.038 114.962C665.038 69.6321 622.077 32.885 569.083 32.885C516.088 32.885 473.128 69.6321 473.128 114.962C473.128 160.292 516.088 197.039 569.083 197.039Z" fill="#E5EDD4"/>
<path opacity="0.04" d="M569.083 170.678C605.057 170.678 634.22 145.733 634.22 114.962C634.22 84.1907 605.057 59.2456 569.083 59.2456C533.108 59.2456 503.945 84.1907 503.945 114.962C503.945 145.733 533.108 170.678 569.083 170.678Z" fill="#E5EDD4"/>
<path opacity="0.15" d="M569.536 154.868C595.666 154.868 616.848 136.75 616.848 114.4C616.848 92.0493 595.666 73.9309 569.536 73.9309C543.407 73.9309 522.225 92.0493 522.225 114.4C522.225 136.75 543.407 154.868 569.536 154.868Z" fill="white"/>
<path d="M597.222 115.001C600.143 98.3625 590.738 82.5784 574.869 74.4153C575.47 74.4727 576.07 74.5298 576.673 74.6074C603.002 77.9897 620.961 99.3739 616.033 121.953C611.506 142.698 588.733 157.041 564.23 154.594C557.312 153.904 550.944 151.971 545.369 149.103C570.441 151.497 593.443 136.523 597.222 115.001Z" fill="white"/>
<path opacity="0.4" d="M373.709 265.688L799.303 177.005C799.423 176.981 799.544 177.043 799.573 177.146C799.602 177.247 799.53 177.35 799.411 177.376L374.79 269.4C373.592 269.66 372.373 269.04 372.069 268.016C371.765 266.992 372.49 265.951 373.689 265.692L373.709 265.688Z" fill="white"/>
<path opacity="0.4" d="M63.7083 146.822L337.202 93.772C337.316 93.75 337.43 93.8105 337.456 93.9074C337.482 94.0036 337.412 94.0994 337.299 94.1225L64.6813 150.336C63.5413 150.571 62.3932 149.976 62.1169 149.007C61.8406 148.038 62.5403 147.062 63.6803 146.827C63.6858 146.826 63.7028 146.823 63.7083 146.822Z" fill="#FBFBFB"/>
</g>
</g>
<defs>
<linearGradient id="paint0_linear" x1="-118.369" y1="103.256" x2="793.348" y2="1118.75" gradientUnits="userSpaceOnUse">
<stop stop-color="#041A27"/>
<stop offset="0.9964" stop-color="#1D5172"/>
</linearGradient>
<linearGradient id="paint1_linear" x1="-73.0719" y1="241.643" x2="-73.0719" y2="342.11" gradientUnits="userSpaceOnUse">
<stop offset="0.0077" stop-color="white" stop-opacity="0.5"/>
<stop offset="1" stop-color="white" stop-opacity="0.1"/>
</linearGradient>
<linearGradient id="paint2_linear" x1="595.13" y1="297.075" x2="595.13" y2="346.8" gradientUnits="userSpaceOnUse">
<stop offset="0.0077" stop-color="white" stop-opacity="0.5"/>
<stop offset="1" stop-color="white" stop-opacity="0.1"/>
</linearGradient>
<linearGradient id="paint3_linear" x1="230.547" y1="410.913" x2="230.547" y2="453.559" gradientUnits="userSpaceOnUse">
<stop offset="0.0077" stop-color="white" stop-opacity="0.5"/>
<stop offset="1" stop-color="white" stop-opacity="0.1"/>
</linearGradient>
<linearGradient id="paint4_linear" x1="525.891" y1="502.59" x2="525.891" y2="813.816" gradientUnits="userSpaceOnUse">
<stop offset="0.0015" stop-color="#3C8ABC"/>
<stop offset="0.2053" stop-color="#2E7AAB"/>
<stop offset="0.4206" stop-color="#196292"/>
<stop offset="0.6413" stop-color="#0B4C76"/>
<stop offset="0.8642" stop-color="#042D47"/>
<stop offset="0.999"/>
</linearGradient>
<linearGradient id="paint5_linear" x1="185.228" y1="712.675" x2="185.228" y2="846.233" gradientUnits="userSpaceOnUse">
<stop offset="0.0015" stop-color="#4D95C1"/>
<stop offset="0.999" stop-color="#01090F"/>
</linearGradient>
<linearGradient id="paint6_linear" x1="613.581" y1="761.062" x2="613.581" y2="924.935" gradientUnits="userSpaceOnUse">
<stop offset="0.0015" stop-color="#4D95C1"/>
<stop offset="0.999" stop-color="#01080C"/>
</linearGradient>
<linearGradient id="paint7_linear" x1="696.117" y1="802.348" x2="696.117" y2="965.264" gradientUnits="userSpaceOnUse">
<stop offset="0.0015" stop-color="#4D95C1"/>
<stop offset="0.999" stop-color="#02121C"/>
</linearGradient>
<linearGradient id="paint8_linear" x1="125.527" y1="744.674" x2="125.527" y2="960.89" gradientUnits="userSpaceOnUse">
<stop offset="0.0015" stop-color="#4D95C1"/>
<stop offset="0.999" stop-color="#0D2432"/>
</linearGradient>
<clipPath id="clip0">
<rect width="720" height="976" fill="white"/>
</clipPath>
<clipPath id="clip1">
<rect width="1824" height="984" fill="white" transform="translate(-552)"/>
</clipPath>
</defs>
</svg>
